0
SECTION
2
HEADER
9
$INSUNITS
70
4
9
$ACADVER
1
AC1014
9
$HANDSEED
5
FFFF
0
ENDSEC
0
SECTION
2
TABLES
0
TABLE
2
VPORT
5
8
100
AcDbSymbolTable
0
ENDTAB
0
TABLE
2
LTYPE
5
5
100
AcDbSymbolTable
0
LTYPE
5
14
100
AcDbSymbolTableRecord
100
AcDbLinetypeTableRecord
2
BYBLOCK
70
0
0
LTYPE
5
15
100
AcDbSymbolTableRecord
100
AcDbLinetypeTableRecord
2
BYLAYER
70
0
0
ENDTAB
0
TABLE
2
LAYER
5
2
100
AcDbSymbolTable
70
2
0
LAYER
5
50
100
AcDbSymbolTableRecord
100
AcDbLayerTableRecord
2
0
70
0
6
CONTINUOUS
0
ENDTAB
0
TABLE
2
STYLE
5
3
100
AcDbSymbolTable
70
1
0
STYLE
5
11
100
AcDbSymbolTableRecord
100
AcDbTextStyleTableRecord
2
STANDARD
70
0
0
ENDTAB
0
TABLE
2
VIEW
5
6
100
AcDbSymbolTable
70
0
0
ENDTAB
0
TABLE
2
UCS
5
7
100
AcDbSymbolTable
70
0
0
ENDTAB
0
TABLE
2
APPID
5
9
100
AcDbSymbolTable
70
2
0
APPID
5
12
100
AcDbSymbolTableRecord
100
AcDbRegAppTableRecord
2
ACAD
70
0
0
ENDTAB
0
TABLE
2
DIMSTYLE
5
A
100
AcDbSymbolTable
70
1
0
ENDTAB
0
TABLE
2
BLOCK_RECORD
5
1
100
AcDbSymbolTable
70
1
0
BLOCK_RECORD
5
1F
100
AcDbSymbolTableRecord
100
AcDbBlockTableRecord
2
*MODEL_SPACE
0
BLOCK_RECORD
5
1B
100
AcDbSymbolTableRecord
100
AcDbBlockTableRecord
2
*PAPER_SPACE
0
ENDTAB
0
ENDSEC
0
SECTION
2
BLOCKS
0
BLOCK
5
20
100
AcDbEntity
100
AcDbBlockBegin
2
*MODEL_SPACE
0
ENDBLK
5
21
100
AcDbEntity
100
AcDbBlockEnd
0
BLOCK
5
1C
100
AcDbEntity
100
AcDbBlockBegin
2
*PAPER_SPACE
0
ENDBLK
5
1D
100
AcDbEntity
100
AcDbBlockEnd
0
ENDSEC
0
SECTION
2
ENTITIES
0
LINE
5
100
100
AcDbEntity
8
0
100
AcDbLine
10
7.7399999999999967
20
-21.762000000000008
30
0
11
16.399999999999999
21
-21.762000000000008
31
0
0
LINE
5
101
100
AcDbEntity
8
0
100
AcDbLine
10
16.399999999999999
20
-21.762000000000008
30
0
11
16.399999999999999
21
-21.000000000000007
31
0
0
LINE
5
102
100
AcDbEntity
8
0
100
AcDbLine
10
16.399999999999999
20
-21.000000000000007
30
0
11
17.899999999999988
21
-21.000000000000028
31
0
0
LINE
5
103
100
AcDbEntity
8
0
100
AcDbLine
10
17.899999999999988
20
-21.000000000000028
30
0
11
17.900000000000027
21
-14.500000000000028
31
0
0
LINE
5
104
100
AcDbEntity
8
0
100
AcDbLine
10
17.899999999999988
20
20.999999999999972
30
0
11
16.399999999999999
21
21.000000000000007
31
0
0
LINE
5
105
100
AcDbEntity
8
0
100
AcDbLine
10
16.399999999999999
20
21.000000000000007
30
0
11
16.399999999999999
21
21.800000000000004
31
0
0
LINE
5
106
100
AcDbEntity
8
0
100
AcDbLine
10
-16.399999999999999
20
21.800000000000004
30
0
11
-16.400000000000002
21
20.999999999999996
31
0
0
LINE
5
107
100
AcDbEntity
8
0
100
AcDbLine
10
-16.400000000000002
20
20.999999999999996
30
0
11
-17.900000000000013
21
21.000000000000064
31
0
0
LINE
5
108
100
AcDbEntity
8
0
100
AcDbLine
10
-17.900000000000031
20
-14.500000000000032
30
0
11
-17.900000000000034
21
-21.000000000000028
31
0
0
LINE
5
109
100
AcDbEntity
8
0
100
AcDbLine
10
-16.400000000000034
20
6.2000000000000011
30
0
11
-13.900000000000023
21
6.2000000000000011
31
0
0
LINE
5
110
100
AcDbEntity
8
0
100
AcDbLine
10
-13.900000000000023
20
6.2000000000000011
30
0
11
-13.900000000000023
21
2.200000000000002
31
0
0
LINE
5
111
100
AcDbEntity
8
0
100
AcDbLine
10
-13.900000000000023
20
2.200000000000002
30
0
11
-16.400000000000034
21
2.200000000000002
31
0
0
LINE
5
112
100
AcDbEntity
8
0
100
AcDbLine
10
-17.900000000000034
20
-21.000000000000028
30
0
11
-16.400000000000002
21
-21.000000000000007
31
0
0
LINE
5
113
100
AcDbEntity
8
0
100
AcDbLine
10
-16.400000000000002
20
-21.000000000000007
30
0
11
-16.400000000000002
21
-21.762000000000008
31
0
0
LINE
5
114
100
AcDbEntity
8
0
100
AcDbLine
10
-16.400000000000002
20
-21.762000000000008
30
0
11
0.66000000000000059
21
-21.762000000000008
31
0
0
LINE
5
115
100
AcDbEntity
8
0
100
AcDbLine
10
0.66000000000000059
20
-21.762000000000008
30
0
11
0.66000000000000059
21
-22.600000000000009
31
0
0
LINE
5
116
100
AcDbEntity
8
0
100
AcDbLine
10
0.66000000000000059
20
-22.600000000000009
30
0
11
7.7399999999999967
21
-22.600000000000009
31
0
0
LINE
5
117
100
AcDbEntity
8
0
100
AcDbLine
10
7.7399999999999967
20
-22.600000000000009
30
0
11
7.7399999999999967
21
-21.762000000000008
31
0
0
LINE
5
118
100
AcDbEntity
8
0
100
AcDbLine
10
8.5
20
6.199999999999994
30
0
11
-8.5
21
6.199999999999994
31
0
0
LINE
5
119
100
AcDbEntity
8
0
100
AcDbLine
10
-8.5
20
6.199999999999994
30
0
11
-8.5
21
-10.800000000000008
31
0
0
LINE
5
120
100
AcDbEntity
8
0
100
AcDbLine
10
-8.5
20
-10.800000000000008
30
0
11
8.5
21
-10.800000000000008
31
0
0
LINE
5
121
100
AcDbEntity
8
0
100
AcDbLine
10
8.5
20
-10.800000000000008
30
0
11
8.5
21
6.199999999999994
31
0
0
LINE
5
122
100
AcDbEntity
8
0
100
AcDbLine
10
7.7399999999999984
20
-17.439000000000007
30
0
11
7.7399999999999984
21
-22.600000000000009
31
0
0
LINE
5
123
100
AcDbEntity
8
0
100
AcDbLine
10
15.789999999999999
20
-17.439000000000007
30
0
11
7.7399999999999984
21
-17.439000000000007
31
0
0
LINE
5
124
100
AcDbEntity
8
0
100
AcDbLine
10
15.789999999999999
20
-22.600000000000009
30
0
11
15.789999999999999
21
-17.439000000000007
31
0
0
LINE
5
125
100
AcDbEntity
8
0
100
AcDbLine
10
16.399999999999999
20
21.800000000000004
30
0
11
-16.399999999999999
21
21.800000000000004
31
0
0
LINE
5
126
100
AcDbEntity
8
0
100
AcDbLine
10
-16.400000000000034
20
2.200000000000002
30
0
11
-16.400000000000034
21
-14.500000000000028
31
0
0
LINE
5
127
100
AcDbEntity
8
0
100
AcDbLine
10
-16.400000000000034
20
-14.500000000000028
30
0
11
-17.900000000000031
21
-14.500000000000032
31
0
0
LINE
5
128
100
AcDbEntity
8
0
100
AcDbLine
10
17.900000000000027
20
-14.500000000000028
30
0
11
16.400000000000034
21
-14.500000000000028
31
0
0
LINE
5
129
100
AcDbEntity
8
0
100
AcDbLine
10
16.400000000000034
20
-14.500000000000028
30
0
11
16.400000000000034
21
14.499999999999996
31
0
0
LINE
5
130
100
AcDbEntity
8
0
100
AcDbLine
10
16.400000000000034
20
14.499999999999996
30
0
11
17.900000000000031
21
14.5
31
0
0
LINE
5
131
100
AcDbEntity
8
0
100
AcDbLine
10
17.900000000000031
20
14.5
30
0
11
17.899999999999988
21
20.999999999999972
31
0
0
LINE
5
132
100
AcDbEntity
8
0
100
AcDbLine
10
-17.900000000000013
20
21.000000000000064
30
0
11
-17.900000000000031
21
14.5
31
0
0
LINE
5
133
100
AcDbEntity
8
0
100
AcDbLine
10
-17.900000000000031
20
14.5
30
0
11
-16.400000000000034
21
14.499999999999996
31
0
0
LINE
5
134
100
AcDbEntity
8
0
100
AcDbLine
10
-16.400000000000034
20
14.499999999999996
30
0
11
-16.400000000000034
21
6.2000000000000011
31
0
0
ENDSEC
0
SECTION
2
OBJECTS
0
DICTIONARY
5
C
100
AcDbDictionary
3
ACAD_GROUP
350
D
3
ACAD_MLINESTYLE
350
17
0
DICTIONARY
5
D
100
AcDbDictionary
0
DICTIONARY
5
1A
330
C
100
AcDbDictionary
0
DICTIONARY
5
17
100
AcDbDictionary
0
ENDSEC
0
EOF
