<?xml version="1.0" standalone="no"?>
 <!DOCTYPE svg PUBLIC "-//W3C//DTD SVG 1.1//EN" 
 "http://www.w3.org/Graphics/SVG/1.1/DTD/svg11.dtd"> 
<svg xmlns="http://www.w3.org/2000/svg" version="1.1" 
    width="4.62534cm" height="3.82016cm" viewBox="0 0 18210 15040 ">
<title>SVG Picture created as mainboard-B_Paste.svg date 2019/12/31 13:33:48 </title>
  <desc>Picture generated by PCBNEW </desc>
<g style="fill:#000000; fill-opacity:1;stroke:#000000; stroke-opacity:1;
stroke-linecap:round; stroke-linejoin:round; "
 transform="translate(0 0) scale(1 1)">
</g>
<g style="fill:#000000; fill-opacity:0.0; 
stroke:#000000; stroke-width:-0.000393701; stroke-opacity:1; 
stroke-linecap:round; stroke-linejoin:round;">
<g >
</g>
<g >
</g>
<g >
</g>
<g >
</g>
<g >
</g>
<g >
</g>
<g >
</g>
<g >
</g>
<g >
</g>
<g >
</g>
<g >
</g>
<g >
</g>
<g >
</g>
<g >
</g>
<g >
</g>
<g >
</g>
<g >
</g>
<g >
</g>
<g >
</g>
<g >
</g>
<g >
</g>
<g >
</g>
<g >
</g>
<g >
</g>
<g >
</g>
<g >
</g>
<g >
</g>
<g >
</g>
<g >
</g>
<g >
</g>
<g style="fill:#000000; fill-opacity:0.0; 
stroke:#000000; stroke-width:-0.000393701; stroke-opacity:1; 
stroke-linecap:round; stroke-linejoin:round;">
</g>
<g style="fill:#000000; fill-opacity:0.0; 
stroke:#000000; stroke-width:0; stroke-opacity:1; 
stroke-linecap:round; stroke-linejoin:round;">
</g>
<g style="fill:#000000; fill-opacity:1.0; 
stroke:#000000; stroke-width:0; stroke-opacity:1; 
stroke-linecap:round; stroke-linejoin:round;">
<path style="fill:#000000; fill-opacity:1.0; 
stroke:#000000; stroke-width:0; stroke-opacity:1; 
stroke-linecap:round; stroke-linejoin:round;fill-rule:evenodd;"
d="M 1476,2530
1476,1861
2066,1861
2066,2530
1476,2530
Z" /> 
<path style="fill:#000000; fill-opacity:1.0; 
stroke:#000000; stroke-width:0; stroke-opacity:1; 
stroke-linecap:round; stroke-linejoin:round;fill-rule:evenodd;"
d="M 1476,8357
1476,7687
2066,7687
2066,8357
1476,8357
Z" /> 
<path style="fill:#000000; fill-opacity:1.0; 
stroke:#000000; stroke-width:0; stroke-opacity:1; 
stroke-linecap:round; stroke-linejoin:round;fill-rule:evenodd;"
d="M 3523,2894
3090,2894
3090,2796
3523,2796
3523,2894
Z" /> 
<path style="fill:#000000; fill-opacity:1.0; 
stroke:#000000; stroke-width:0; stroke-opacity:1; 
stroke-linecap:round; stroke-linejoin:round;fill-rule:evenodd;"
d="M 3523,3091
3090,3091
3090,2993
3523,2993
3523,3091
Z" /> 
<path style="fill:#000000; fill-opacity:1.0; 
stroke:#000000; stroke-width:0; stroke-opacity:1; 
stroke-linecap:round; stroke-linejoin:round;fill-rule:evenodd;"
d="M 3523,3288
3090,3288
3090,3189
3523,3189
3523,3288
Z" /> 
<path style="fill:#000000; fill-opacity:1.0; 
stroke:#000000; stroke-width:0; stroke-opacity:1; 
stroke-linecap:round; stroke-linejoin:round;fill-rule:evenodd;"
d="M 3523,3485
3090,3485
3090,3386
3523,3386
3523,3485
Z" /> 
<path style="fill:#000000; fill-opacity:1.0; 
stroke:#000000; stroke-width:0; stroke-opacity:1; 
stroke-linecap:round; stroke-linejoin:round;fill-rule:evenodd;"
d="M 3523,3682
3090,3682
3090,3583
3523,3583
3523,3682
Z" /> 
<path style="fill:#000000; fill-opacity:1.0; 
stroke:#000000; stroke-width:0; stroke-opacity:1; 
stroke-linecap:round; stroke-linejoin:round;fill-rule:evenodd;"
d="M 3523,3878
3090,3878
3090,3780
3523,3780
3523,3878
Z" /> 
<path style="fill:#000000; fill-opacity:1.0; 
stroke:#000000; stroke-width:0; stroke-opacity:1; 
stroke-linecap:round; stroke-linejoin:round;fill-rule:evenodd;"
d="M 3523,4075
3090,4075
3090,3977
3523,3977
3523,4075
Z" /> 
<path style="fill:#000000; fill-opacity:1.0; 
stroke:#000000; stroke-width:0; stroke-opacity:1; 
stroke-linecap:round; stroke-linejoin:round;fill-rule:evenodd;"
d="M 3523,4272
3090,4272
3090,4174
3523,4174
3523,4272
Z" /> 
<path style="fill:#000000; fill-opacity:1.0; 
stroke:#000000; stroke-width:0; stroke-opacity:1; 
stroke-linecap:round; stroke-linejoin:round;fill-rule:evenodd;"
d="M 3523,4469
3090,4469
3090,4371
3523,4371
3523,4469
Z" /> 
<path style="fill:#000000; fill-opacity:1.0; 
stroke:#000000; stroke-width:0; stroke-opacity:1; 
stroke-linecap:round; stroke-linejoin:round;fill-rule:evenodd;"
d="M 3523,4666
3090,4666
3090,4567
3523,4567
3523,4666
Z" /> 
<path style="fill:#000000; fill-opacity:1.0; 
stroke:#000000; stroke-width:0; stroke-opacity:1; 
stroke-linecap:round; stroke-linejoin:round;fill-rule:evenodd;"
d="M 3523,4863
3090,4863
3090,4764
3523,4764
3523,4863
Z" /> 
<path style="fill:#000000; fill-opacity:1.0; 
stroke:#000000; stroke-width:0; stroke-opacity:1; 
stroke-linecap:round; stroke-linejoin:round;fill-rule:evenodd;"
d="M 3523,5060
3090,5060
3090,4961
3523,4961
3523,5060
Z" /> 
<path style="fill:#000000; fill-opacity:1.0; 
stroke:#000000; stroke-width:0; stroke-opacity:1; 
stroke-linecap:round; stroke-linejoin:round;fill-rule:evenodd;"
d="M 3523,5256
3090,5256
3090,5158
3523,5158
3523,5256
Z" /> 
<path style="fill:#000000; fill-opacity:1.0; 
stroke:#000000; stroke-width:0; stroke-opacity:1; 
stroke-linecap:round; stroke-linejoin:round;fill-rule:evenodd;"
d="M 3523,5453
3090,5453
3090,5355
3523,5355
3523,5453
Z" /> 
<path style="fill:#000000; fill-opacity:1.0; 
stroke:#000000; stroke-width:0; stroke-opacity:1; 
stroke-linecap:round; stroke-linejoin:round;fill-rule:evenodd;"
d="M 3523,5650
3090,5650
3090,5552
3523,5552
3523,5650
Z" /> 
<path style="fill:#000000; fill-opacity:1.0; 
stroke:#000000; stroke-width:0; stroke-opacity:1; 
stroke-linecap:round; stroke-linejoin:round;fill-rule:evenodd;"
d="M 3523,5847
3090,5847
3090,5749
3523,5749
3523,5847
Z" /> 
<path style="fill:#000000; fill-opacity:1.0; 
stroke:#000000; stroke-width:0; stroke-opacity:1; 
stroke-linecap:round; stroke-linejoin:round;fill-rule:evenodd;"
d="M 3523,6044
3090,6044
3090,5945
3523,5945
3523,6044
Z" /> 
<path style="fill:#000000; fill-opacity:1.0; 
stroke:#000000; stroke-width:0; stroke-opacity:1; 
stroke-linecap:round; stroke-linejoin:round;fill-rule:evenodd;"
d="M 3523,6241
3090,6241
3090,6142
3523,6142
3523,6241
Z" /> 
<path style="fill:#000000; fill-opacity:1.0; 
stroke:#000000; stroke-width:0; stroke-opacity:1; 
stroke-linecap:round; stroke-linejoin:round;fill-rule:evenodd;"
d="M 3523,6437
3090,6437
3090,6339
3523,6339
3523,6437
Z" /> 
<path style="fill:#000000; fill-opacity:1.0; 
stroke:#000000; stroke-width:0; stroke-opacity:1; 
stroke-linecap:round; stroke-linejoin:round;fill-rule:evenodd;"
d="M 3523,6634
3090,6634
3090,6536
3523,6536
3523,6634
Z" /> 
<path style="fill:#000000; fill-opacity:1.0; 
stroke:#000000; stroke-width:0; stroke-opacity:1; 
stroke-linecap:round; stroke-linejoin:round;fill-rule:evenodd;"
d="M 3523,6831
3090,6831
3090,6733
3523,6733
3523,6831
Z" /> 
<path style="fill:#000000; fill-opacity:1.0; 
stroke:#000000; stroke-width:0; stroke-opacity:1; 
stroke-linecap:round; stroke-linejoin:round;fill-rule:evenodd;"
d="M 3523,7028
3090,7028
3090,6930
3523,6930
3523,7028
Z" /> 
<path style="fill:#000000; fill-opacity:1.0; 
stroke:#000000; stroke-width:0; stroke-opacity:1; 
stroke-linecap:round; stroke-linejoin:round;fill-rule:evenodd;"
d="M 3523,7225
3090,7225
3090,7126
3523,7126
3523,7225
Z" /> 
<path style="fill:#000000; fill-opacity:1.0; 
stroke:#000000; stroke-width:0; stroke-opacity:1; 
stroke-linecap:round; stroke-linejoin:round;fill-rule:evenodd;"
d="M 3523,7422
3090,7422
3090,7323
3523,7323
3523,7422
Z" /> 
</g>
<g >
</g>
<g >
</g>
<g >
</g>
<g >
</g>
<g >
</g>
<g >
</g>
<g style="fill:#000000; fill-opacity:1.0; 
stroke:#000000; stroke-width:0; stroke-opacity:1; 
stroke-linecap:round; stroke-linejoin:round;">
<path style="fill:#000000; fill-opacity:1.0; 
stroke:#000000; stroke-width:0; stroke-opacity:1; 
stroke-linecap:round; stroke-linejoin:round;fill-rule:evenodd;"
d="M 1164,12867
1164,12473
1755,12473
1755,12867
1164,12867
Z" /> 
<path style="fill:#000000; fill-opacity:1.0; 
stroke:#000000; stroke-width:0; stroke-opacity:1; 
stroke-linecap:round; stroke-linejoin:round;fill-rule:evenodd;"
d="M 1164,11607
1164,11213
1755,11213
1755,11607
1164,11607
Z" /> 
<path style="fill:#000000; fill-opacity:1.0; 
stroke:#000000; stroke-width:0; stroke-opacity:1; 
stroke-linecap:round; stroke-linejoin:round;fill-rule:evenodd;"
d="M 3094,12867
3094,12473
3684,12473
3684,12867
3094,12867
Z" /> 
<path style="fill:#000000; fill-opacity:1.0; 
stroke:#000000; stroke-width:0; stroke-opacity:1; 
stroke-linecap:round; stroke-linejoin:round;fill-rule:evenodd;"
d="M 3094,11607
3094,11213
3684,11213
3684,11607
3094,11607
Z" /> 
</g>
<g >
</g>
<g >
</g>
<g >
</g>
<g style="fill:#000000; fill-opacity:1.0; 
stroke:#000000; stroke-width:0; stroke-opacity:1; 
stroke-linecap:round; stroke-linejoin:round;">
<path style="fill:#000000; fill-opacity:1.0; 
stroke:#000000; stroke-width:0; stroke-opacity:1; 
stroke-linecap:round; stroke-linejoin:round;fill-rule:evenodd;"
d="M 5197,10264
5203,10265
5208,10266
5214,10268
5219,10271
5224,10274
5228,10277
5232,10281
5236,10285
5240,10290
5243,10294
5245,10300
5247,10305
5248,10311
5249,10316
5249,10322
5249,10458
5249,10463
5248,10469
5247,10475
5245,10480
5243,10485
5240,10490
5236,10495
5232,10499
5228,10503
5224,10506
5219,10509
5214,10511
5208,10513
5203,10515
5197,10515
5191,10516
5075,10516
5070,10515
5064,10515
5058,10513
5053,10511
5048,10509
5043,10506
5038,10503
5034,10499
5030,10495
5027,10490
5024,10485
5022,10480
5020,10475
5018,10469
5017,10463
5017,10458
5017,10322
5017,10316
5018,10311
5020,10305
5022,10300
5024,10294
5027,10290
5030,10285
5034,10281
5038,10277
5043,10274
5048,10271
5053,10268
5058,10266
5064,10265
5070,10264
5075,10264
5191,10264
5197,10264
Z" /> 
<path style="fill:#000000; fill-opacity:1.0; 
stroke:#000000; stroke-width:0; stroke-opacity:1; 
stroke-linecap:round; stroke-linejoin:round;fill-rule:evenodd;"
d="M 5579,10264
5585,10265
5590,10266
5596,10268
5601,10271
5606,10274
5610,10277
5614,10281
5618,10285
5622,10290
5624,10294
5627,10300
5629,10305
5630,10311
5631,10316
5631,10322
5631,10458
5631,10463
5630,10469
5629,10475
5627,10480
5624,10485
5622,10490
5618,10495
5614,10499
5610,10503
5606,10506
5601,10509
5596,10511
5590,10513
5585,10515
5579,10515
5573,10516
5457,10516
5451,10515
5446,10515
5440,10513
5435,10511
5430,10509
5425,10506
5420,10503
5416,10499
5412,10495
5409,10490
5406,10485
5403,10480
5402,10475
5400,10469
5399,10463
5399,10458
5399,10322
5399,10316
5400,10311
5402,10305
5403,10300
5406,10294
5409,10290
5412,10285
5416,10281
5420,10277
5425,10274
5430,10271
5435,10268
5440,10266
5446,10265
5451,10264
5457,10264
5573,10264
5579,10264
Z" /> 
</g>
<g >
</g>
<g >
</g>
<g style="fill:#000000; fill-opacity:1.0; 
stroke:#000000; stroke-width:0; stroke-opacity:1; 
stroke-linecap:round; stroke-linejoin:round;">
<path style="fill:#000000; fill-opacity:1.0; 
stroke:#000000; stroke-width:0; stroke-opacity:1; 
stroke-linecap:round; stroke-linejoin:round;fill-rule:evenodd;"
d="M 10676,6663
10676,7076
10263,7076
10263,6663
10676,6663
Z" /> 
<path style="fill:#000000; fill-opacity:1.0; 
stroke:#000000; stroke-width:0; stroke-opacity:1; 
stroke-linecap:round; stroke-linejoin:round;fill-rule:evenodd;"
d="M 9426,7244
10312,7244
10312,7657
9426,7657
9426,7244
Z" /> 
<path style="fill:#000000; fill-opacity:1.0; 
stroke:#000000; stroke-width:0; stroke-opacity:1; 
stroke-linecap:round; stroke-linejoin:round;fill-rule:evenodd;"
d="M 9426,6082
10312,6082
10312,6496
9426,6496
9426,6082
Z" /> 
</g>
<g >
</g>
<g style="fill:#000000; fill-opacity:1.0; 
stroke:#000000; stroke-width:0; stroke-opacity:1; 
stroke-linecap:round; stroke-linejoin:round;">
<path style="fill:#000000; fill-opacity:1.0; 
stroke:#000000; stroke-width:0; stroke-opacity:1; 
stroke-linecap:round; stroke-linejoin:round;fill-rule:evenodd;"
d="M 7573,10684
7579,10685
7584,10686
7589,10688
7595,10691
7599,10693
7604,10697
7608,10701
7612,10705
7615,10709
7618,10714
7621,10720
7623,10725
7624,10730
7625,10736
7625,10742
7625,10858
7625,10864
7624,10869
7623,10875
7621,10880
7618,10885
7615,10890
7612,10895
7608,10899
7604,10903
7599,10906
7595,10909
7589,10912
7584,10913
7579,10915
7573,10916
7567,10916
7431,10916
7426,10916
7420,10915
7414,10913
7409,10912
7404,10909
7399,10906
7395,10903
7390,10899
7386,10895
7383,10890
7380,10885
7378,10880
7376,10875
7374,10869
7374,10864
7373,10858
7373,10742
7374,10736
7374,10730
7376,10725
7378,10720
7380,10714
7383,10709
7386,10705
7390,10701
7395,10697
7399,10693
7404,10691
7409,10688
7414,10686
7420,10685
7426,10684
7431,10684
7567,10684
7573,10684
Z" /> 
<path style="fill:#000000; fill-opacity:1.0; 
stroke:#000000; stroke-width:0; stroke-opacity:1; 
stroke-linecap:round; stroke-linejoin:round;fill-rule:evenodd;"
d="M 7573,11066
7579,11067
7584,11068
7589,11070
7595,11072
7599,11075
7604,11079
7608,11083
7612,11087
7615,11091
7618,11096
7621,11101
7623,11107
7624,11112
7625,11118
7625,11124
7625,11240
7625,11245
7624,11251
7623,11257
7621,11262
7618,11267
7615,11272
7612,11277
7608,11281
7604,11285
7599,11288
7595,11291
7589,11293
7584,11295
7579,11297
7573,11298
7567,11298
7431,11298
7426,11298
7420,11297
7414,11295
7409,11293
7404,11291
7399,11288
7395,11285
7390,11281
7386,11277
7383,11272
7380,11267
7378,11262
7376,11257
7374,11251
7374,11245
7373,11240
7373,11124
7374,11118
7374,11112
7376,11107
7378,11101
7380,11096
7383,11091
7386,11087
7390,11083
7395,11079
7399,11075
7404,11072
7409,11070
7414,11068
7420,11067
7426,11066
7431,11066
7567,11066
7573,11066
Z" /> 
</g>
<g >
</g>
<g style="fill:#000000; fill-opacity:1.0; 
stroke:#000000; stroke-width:0; stroke-opacity:1; 
stroke-linecap:round; stroke-linejoin:round;">
<path style="fill:#000000; fill-opacity:1.0; 
stroke:#000000; stroke-width:0; stroke-opacity:1; 
stroke-linecap:round; stroke-linejoin:round;fill-rule:evenodd;"
d="M 8648,8790
8654,8791
8659,8792
8664,8794
8670,8796
8674,8799
8679,8803
8683,8807
8687,8811
8690,8815
8693,8820
8696,8825
8698,8831
8699,8836
8700,8842
8700,8848
8700,8964
8700,8969
8699,8975
8698,8981
8696,8986
8693,8991
8690,8996
8687,9001
8683,9005
8679,9009
8674,9012
8670,9015
8664,9017
8659,9019
8654,9021
8648,9022
8642,9022
8506,9022
8501,9022
8495,9021
8489,9019
8484,9017
8479,9015
8474,9012
8470,9009
8465,9005
8461,9001
8458,8996
8455,8991
8453,8986
8451,8981
8449,8975
8449,8969
8448,8964
8448,8848
8449,8842
8449,8836
8451,8831
8453,8825
8455,8820
8458,8815
8461,8811
8465,8807
8470,8803
8474,8799
8479,8796
8484,8794
8489,8792
8495,8791
8501,8790
8506,8790
8642,8790
8648,8790
Z" /> 
<path style="fill:#000000; fill-opacity:1.0; 
stroke:#000000; stroke-width:0; stroke-opacity:1; 
stroke-linecap:round; stroke-linejoin:round;fill-rule:evenodd;"
d="M 8648,8408
8654,8409
8659,8410
8664,8412
8670,8415
8674,8417
8679,8421
8683,8425
8687,8429
8690,8433
8693,8438
8696,8444
8698,8449
8699,8454
8700,8460
8700,8466
8700,8582
8700,8588
8699,8593
8698,8599
8696,8604
8693,8609
8690,8614
8687,8619
8683,8623
8679,8627
8674,8630
8670,8633
8664,8636
8659,8637
8654,8639
8648,8640
8642,8640
8506,8640
8501,8640
8495,8639
8489,8637
8484,8636
8479,8633
8474,8630
8470,8627
8465,8623
8461,8619
8458,8614
8455,8609
8453,8604
8451,8599
8449,8593
8449,8588
8448,8582
8448,8466
8449,8460
8449,8454
8451,8449
8453,8444
8455,8438
8458,8433
8461,8429
8465,8425
8470,8421
8474,8417
8479,8415
8484,8412
8489,8410
8495,8409
8501,8408
8506,8408
8642,8408
8648,8408
Z" /> 
</g>
<g >
</g>
<g >
</g>
<g >
</g>
<g style="fill:#000000; fill-opacity:1.0; 
stroke:#000000; stroke-width:0; stroke-opacity:1; 
stroke-linecap:round; stroke-linejoin:round;">
<path style="fill:#000000; fill-opacity:1.0; 
stroke:#000000; stroke-width:0; stroke-opacity:1; 
stroke-linecap:round; stroke-linejoin:round;fill-rule:evenodd;"
d="M 5250,6005
6219,6005
6219,6914
5250,6914
5250,6005
Z" /> 
<path style="fill:#000000; fill-opacity:1.0; 
stroke:#000000; stroke-width:0; stroke-opacity:1; 
stroke-linecap:round; stroke-linejoin:round;fill-rule:evenodd;"
d="M 6601,7267
7181,7267
7181,7444
6601,7444
6601,7267
Z" /> 
<path style="fill:#000000; fill-opacity:1.0; 
stroke:#000000; stroke-width:0; stroke-opacity:1; 
stroke-linecap:round; stroke-linejoin:round;fill-rule:evenodd;"
d="M 6601,7011
7181,7011
7181,7188
6601,7188
6601,7011
Z" /> 
<path style="fill:#000000; fill-opacity:1.0; 
stroke:#000000; stroke-width:0; stroke-opacity:1; 
stroke-linecap:round; stroke-linejoin:round;fill-rule:evenodd;"
d="M 6601,6755
7181,6755
7181,6932
6601,6932
6601,6755
Z" /> 
<path style="fill:#000000; fill-opacity:1.0; 
stroke:#000000; stroke-width:0; stroke-opacity:1; 
stroke-linecap:round; stroke-linejoin:round;fill-rule:evenodd;"
d="M 6601,6499
7181,6499
7181,6676
6601,6676
6601,6499
Z" /> 
<path style="fill:#000000; fill-opacity:1.0; 
stroke:#000000; stroke-width:0; stroke-opacity:1; 
stroke-linecap:round; stroke-linejoin:round;fill-rule:evenodd;"
d="M 6601,6243
7181,6243
7181,6420
6601,6420
6601,6243
Z" /> 
<path style="fill:#000000; fill-opacity:1.0; 
stroke:#000000; stroke-width:0; stroke-opacity:1; 
stroke-linecap:round; stroke-linejoin:round;fill-rule:evenodd;"
d="M 6601,5987
7181,5987
7181,6164
6601,6164
6601,5987
Z" /> 
<path style="fill:#000000; fill-opacity:1.0; 
stroke:#000000; stroke-width:0; stroke-opacity:1; 
stroke-linecap:round; stroke-linejoin:round;fill-rule:evenodd;"
d="M 6601,5731
7181,5731
7181,5909
6601,5909
6601,5731
Z" /> 
<path style="fill:#000000; fill-opacity:1.0; 
stroke:#000000; stroke-width:0; stroke-opacity:1; 
stroke-linecap:round; stroke-linejoin:round;fill-rule:evenodd;"
d="M 6601,5476
7181,5476
7181,5653
6601,5653
6601,5476
Z" /> 
<path style="fill:#000000; fill-opacity:1.0; 
stroke:#000000; stroke-width:0; stroke-opacity:1; 
stroke-linecap:round; stroke-linejoin:round;fill-rule:evenodd;"
d="M 4287,5476
4868,5476
4868,5653
4287,5653
4287,5476
Z" /> 
<path style="fill:#000000; fill-opacity:1.0; 
stroke:#000000; stroke-width:0; stroke-opacity:1; 
stroke-linecap:round; stroke-linejoin:round;fill-rule:evenodd;"
d="M 4287,5731
4868,5731
4868,5909
4287,5909
4287,5731
Z" /> 
<path style="fill:#000000; fill-opacity:1.0; 
stroke:#000000; stroke-width:0; stroke-opacity:1; 
stroke-linecap:round; stroke-linejoin:round;fill-rule:evenodd;"
d="M 4287,5987
4868,5987
4868,6164
4287,6164
4287,5987
Z" /> 
<path style="fill:#000000; fill-opacity:1.0; 
stroke:#000000; stroke-width:0; stroke-opacity:1; 
stroke-linecap:round; stroke-linejoin:round;fill-rule:evenodd;"
d="M 4287,6243
4868,6243
4868,6420
4287,6420
4287,6243
Z" /> 
<path style="fill:#000000; fill-opacity:1.0; 
stroke:#000000; stroke-width:0; stroke-opacity:1; 
stroke-linecap:round; stroke-linejoin:round;fill-rule:evenodd;"
d="M 4287,6499
4868,6499
4868,6676
4287,6676
4287,6499
Z" /> 
<path style="fill:#000000; fill-opacity:1.0; 
stroke:#000000; stroke-width:0; stroke-opacity:1; 
stroke-linecap:round; stroke-linejoin:round;fill-rule:evenodd;"
d="M 4287,6755
4868,6755
4868,6932
4287,6932
4287,6755
Z" /> 
<path style="fill:#000000; fill-opacity:1.0; 
stroke:#000000; stroke-width:0; stroke-opacity:1; 
stroke-linecap:round; stroke-linejoin:round;fill-rule:evenodd;"
d="M 4287,7011
4868,7011
4868,7188
4287,7188
4287,7011
Z" /> 
<path style="fill:#000000; fill-opacity:1.0; 
stroke:#000000; stroke-width:0; stroke-opacity:1; 
stroke-linecap:round; stroke-linejoin:round;fill-rule:evenodd;"
d="M 4287,7267
4868,7267
4868,7444
4287,7444
4287,7267
Z" /> 
</g>
<g >
</g>
<g style="fill:#000000; fill-opacity:1.0; 
stroke:#000000; stroke-width:0; stroke-opacity:1; 
stroke-linecap:round; stroke-linejoin:round;">
<path style="fill:#000000; fill-opacity:1.0; 
stroke:#000000; stroke-width:0; stroke-opacity:1; 
stroke-linecap:round; stroke-linejoin:round;fill-rule:evenodd;"
d="M 5270,3645
6239,3645
6239,4554
5270,4554
5270,3645
Z" /> 
<path style="fill:#000000; fill-opacity:1.0; 
stroke:#000000; stroke-width:0; stroke-opacity:1; 
stroke-linecap:round; stroke-linejoin:round;fill-rule:evenodd;"
d="M 6621,4907
7201,4907
7201,5084
6621,5084
6621,4907
Z" /> 
<path style="fill:#000000; fill-opacity:1.0; 
stroke:#000000; stroke-width:0; stroke-opacity:1; 
stroke-linecap:round; stroke-linejoin:round;fill-rule:evenodd;"
d="M 6621,4651
7201,4651
7201,4828
6621,4828
6621,4651
Z" /> 
<path style="fill:#000000; fill-opacity:1.0; 
stroke:#000000; stroke-width:0; stroke-opacity:1; 
stroke-linecap:round; stroke-linejoin:round;fill-rule:evenodd;"
d="M 6621,4395
7201,4395
7201,4572
6621,4572
6621,4395
Z" /> 
<path style="fill:#000000; fill-opacity:1.0; 
stroke:#000000; stroke-width:0; stroke-opacity:1; 
stroke-linecap:round; stroke-linejoin:round;fill-rule:evenodd;"
d="M 6621,4139
7201,4139
7201,4316
6621,4316
6621,4139
Z" /> 
<path style="fill:#000000; fill-opacity:1.0; 
stroke:#000000; stroke-width:0; stroke-opacity:1; 
stroke-linecap:round; stroke-linejoin:round;fill-rule:evenodd;"
d="M 6621,3883
7201,3883
7201,4060
6621,4060
6621,3883
Z" /> 
<path style="fill:#000000; fill-opacity:1.0; 
stroke:#000000; stroke-width:0; stroke-opacity:1; 
stroke-linecap:round; stroke-linejoin:round;fill-rule:evenodd;"
d="M 6621,3627
7201,3627
7201,3804
6621,3804
6621,3627
Z" /> 
<path style="fill:#000000; fill-opacity:1.0; 
stroke:#000000; stroke-width:0; stroke-opacity:1; 
stroke-linecap:round; stroke-linejoin:round;fill-rule:evenodd;"
d="M 6621,3371
7201,3371
7201,3549
6621,3549
6621,3371
Z" /> 
<path style="fill:#000000; fill-opacity:1.0; 
stroke:#000000; stroke-width:0; stroke-opacity:1; 
stroke-linecap:round; stroke-linejoin:round;fill-rule:evenodd;"
d="M 6621,3116
7201,3116
7201,3293
6621,3293
6621,3116
Z" /> 
<path style="fill:#000000; fill-opacity:1.0; 
stroke:#000000; stroke-width:0; stroke-opacity:1; 
stroke-linecap:round; stroke-linejoin:round;fill-rule:evenodd;"
d="M 4307,3116
4888,3116
4888,3293
4307,3293
4307,3116
Z" /> 
<path style="fill:#000000; fill-opacity:1.0; 
stroke:#000000; stroke-width:0; stroke-opacity:1; 
stroke-linecap:round; stroke-linejoin:round;fill-rule:evenodd;"
d="M 4307,3371
4888,3371
4888,3549
4307,3549
4307,3371
Z" /> 
<path style="fill:#000000; fill-opacity:1.0; 
stroke:#000000; stroke-width:0; stroke-opacity:1; 
stroke-linecap:round; stroke-linejoin:round;fill-rule:evenodd;"
d="M 4307,3627
4888,3627
4888,3804
4307,3804
4307,3627
Z" /> 
<path style="fill:#000000; fill-opacity:1.0; 
stroke:#000000; stroke-width:0; stroke-opacity:1; 
stroke-linecap:round; stroke-linejoin:round;fill-rule:evenodd;"
d="M 4307,3883
4888,3883
4888,4060
4307,4060
4307,3883
Z" /> 
<path style="fill:#000000; fill-opacity:1.0; 
stroke:#000000; stroke-width:0; stroke-opacity:1; 
stroke-linecap:round; stroke-linejoin:round;fill-rule:evenodd;"
d="M 4307,4139
4888,4139
4888,4316
4307,4316
4307,4139
Z" /> 
<path style="fill:#000000; fill-opacity:1.0; 
stroke:#000000; stroke-width:0; stroke-opacity:1; 
stroke-linecap:round; stroke-linejoin:round;fill-rule:evenodd;"
d="M 4307,4395
4888,4395
4888,4572
4307,4572
4307,4395
Z" /> 
<path style="fill:#000000; fill-opacity:1.0; 
stroke:#000000; stroke-width:0; stroke-opacity:1; 
stroke-linecap:round; stroke-linejoin:round;fill-rule:evenodd;"
d="M 4307,4651
4888,4651
4888,4828
4307,4828
4307,4651
Z" /> 
<path style="fill:#000000; fill-opacity:1.0; 
stroke:#000000; stroke-width:0; stroke-opacity:1; 
stroke-linecap:round; stroke-linejoin:round;fill-rule:evenodd;"
d="M 4307,4907
4888,4907
4888,5084
4307,5084
4307,4907
Z" /> 
</g>
<g >
</g>
<g >
</g>
<g style="fill:#000000; fill-opacity:1.0; 
stroke:#000000; stroke-width:0; stroke-opacity:1; 
stroke-linecap:round; stroke-linejoin:round;">
<path style="fill:#000000; fill-opacity:1.0; 
stroke:#000000; stroke-width:0; stroke-opacity:1; 
stroke-linecap:round; stroke-linejoin:round;fill-rule:evenodd;"
d="M 11593,1587
11593,1981
10885,1981
10885,1587
11593,1587
Z" /> 
<path style="fill:#000000; fill-opacity:1.0; 
stroke:#000000; stroke-width:0; stroke-opacity:1; 
stroke-linecap:round; stroke-linejoin:round;fill-rule:evenodd;"
d="M 11593,2374
11593,2768
10885,2768
10885,2374
11593,2374
Z" /> 
<path style="fill:#000000; fill-opacity:1.0; 
stroke:#000000; stroke-width:0; stroke-opacity:1; 
stroke-linecap:round; stroke-linejoin:round;fill-rule:evenodd;"
d="M 11593,3162
11593,3556
10885,3556
10885,3162
11593,3162
Z" /> 
<path style="fill:#000000; fill-opacity:1.0; 
stroke:#000000; stroke-width:0; stroke-opacity:1; 
stroke-linecap:round; stroke-linejoin:round;fill-rule:evenodd;"
d="M 11593,3949
11593,4343
10885,4343
10885,3949
11593,3949
Z" /> 
<path style="fill:#000000; fill-opacity:1.0; 
stroke:#000000; stroke-width:0; stroke-opacity:1; 
stroke-linecap:round; stroke-linejoin:round;fill-rule:evenodd;"
d="M 11593,4737
11593,5130
10885,5130
10885,4737
11593,4737
Z" /> 
<path style="fill:#000000; fill-opacity:1.0; 
stroke:#000000; stroke-width:0; stroke-opacity:1; 
stroke-linecap:round; stroke-linejoin:round;fill-rule:evenodd;"
d="M 11593,5524
11593,5918
10885,5918
10885,5524
11593,5524
Z" /> 
<path style="fill:#000000; fill-opacity:1.0; 
stroke:#000000; stroke-width:0; stroke-opacity:1; 
stroke-linecap:round; stroke-linejoin:round;fill-rule:evenodd;"
d="M 11593,6311
11593,6705
10885,6705
10885,6311
11593,6311
Z" /> 
<path style="fill:#000000; fill-opacity:1.0; 
stroke:#000000; stroke-width:0; stroke-opacity:1; 
stroke-linecap:round; stroke-linejoin:round;fill-rule:evenodd;"
d="M 11593,7099
11593,7493
10885,7493
10885,7099
11593,7099
Z" /> 
<path style="fill:#000000; fill-opacity:1.0; 
stroke:#000000; stroke-width:0; stroke-opacity:1; 
stroke-linecap:round; stroke-linejoin:round;fill-rule:evenodd;"
d="M 17814,7099
17814,7493
17105,7493
17105,7099
17814,7099
Z" /> 
<path style="fill:#000000; fill-opacity:1.0; 
stroke:#000000; stroke-width:0; stroke-opacity:1; 
stroke-linecap:round; stroke-linejoin:round;fill-rule:evenodd;"
d="M 17814,6311
17814,6705
17105,6705
17105,6311
17814,6311
Z" /> 
<path style="fill:#000000; fill-opacity:1.0; 
stroke:#000000; stroke-width:0; stroke-opacity:1; 
stroke-linecap:round; stroke-linejoin:round;fill-rule:evenodd;"
d="M 17814,5524
17814,5918
17105,5918
17105,5524
17814,5524
Z" /> 
<path style="fill:#000000; fill-opacity:1.0; 
stroke:#000000; stroke-width:0; stroke-opacity:1; 
stroke-linecap:round; stroke-linejoin:round;fill-rule:evenodd;"
d="M 17814,4737
17814,5130
17105,5130
17105,4737
17814,4737
Z" /> 
<path style="fill:#000000; fill-opacity:1.0; 
stroke:#000000; stroke-width:0; stroke-opacity:1; 
stroke-linecap:round; stroke-linejoin:round;fill-rule:evenodd;"
d="M 17814,3949
17814,4343
17105,4343
17105,3949
17814,3949
Z" /> 
<path style="fill:#000000; fill-opacity:1.0; 
stroke:#000000; stroke-width:0; stroke-opacity:1; 
stroke-linecap:round; stroke-linejoin:round;fill-rule:evenodd;"
d="M 17814,3162
17814,3556
17105,3556
17105,3162
17814,3162
Z" /> 
<path style="fill:#000000; fill-opacity:1.0; 
stroke:#000000; stroke-width:0; stroke-opacity:1; 
stroke-linecap:round; stroke-linejoin:round;fill-rule:evenodd;"
d="M 17814,2374
17814,2768
17105,2768
17105,2374
17814,2374
Z" /> 
<path style="fill:#000000; fill-opacity:1.0; 
stroke:#000000; stroke-width:0; stroke-opacity:1; 
stroke-linecap:round; stroke-linejoin:round;fill-rule:evenodd;"
d="M 17814,1587
17814,1981
17105,1981
17105,1587
17814,1587
Z" /> 
</g>
<g >
</g>
<g >
</g>
<g >
</g>
<g style="fill:#000000; fill-opacity:1.0; 
stroke:#000000; stroke-width:0; stroke-opacity:1; 
stroke-linecap:round; stroke-linejoin:round;">
<path style="fill:#000000; fill-opacity:1.0; 
stroke:#000000; stroke-width:0; stroke-opacity:1; 
stroke-linecap:round; stroke-linejoin:round;fill-rule:evenodd;"
d="M 5064,12809
5070,12810
5075,12812
5081,12814
5086,12816
5091,12819
5096,12822
5100,12826
5104,12831
5107,12835
5110,12840
5113,12846
5115,12851
5116,12857
5117,12862
5117,12868
5117,13439
5117,13445
5116,13450
5115,13456
5113,13462
5110,13467
5107,13472
5104,13476
5100,13481
5096,13485
5091,13488
5086,13491
5081,13494
5075,13495
5070,13497
5064,13498
5058,13498
4940,13498
4934,13498
4929,13497
4923,13495
4918,13494
4912,13491
4907,13488
4903,13485
4898,13481
4895,13476
4891,13472
4888,13467
4886,13462
4884,13456
4882,13450
4881,13445
4881,13439
4881,12868
4881,12862
4882,12857
4884,12851
4886,12846
4888,12840
4891,12835
4895,12831
4898,12826
4903,12822
4907,12819
4912,12816
4918,12814
4923,12812
4929,12810
4934,12809
4940,12809
5058,12809
5064,12809
Z" /> 
<path style="fill:#000000; fill-opacity:1.0; 
stroke:#000000; stroke-width:0; stroke-opacity:1; 
stroke-linecap:round; stroke-linejoin:round;fill-rule:evenodd;"
d="M 5564,12809
5570,12810
5575,12812
5581,12814
5586,12816
5591,12819
5596,12822
5600,12826
5604,12831
5607,12835
5610,12840
5613,12846
5615,12851
5616,12857
5617,12862
5617,12868
5617,13439
5617,13445
5616,13450
5615,13456
5613,13462
5610,13467
5607,13472
5604,13476
5600,13481
5596,13485
5591,13488
5586,13491
5581,13494
5575,13495
5570,13497
5564,13498
5558,13498
5440,13498
5434,13498
5429,13497
5423,13495
5418,13494
5412,13491
5407,13488
5403,13485
5398,13481
5395,13476
5391,13472
5388,13467
5386,13462
5384,13456
5382,13450
5381,13445
5381,13439
5381,12868
5381,12862
5382,12857
5384,12851
5386,12846
5388,12840
5391,12835
5395,12831
5398,12826
5403,12822
5407,12819
5412,12816
5418,12814
5423,12812
5429,12810
5434,12809
5440,12809
5558,12809
5564,12809
Z" /> 
<path style="fill:#000000; fill-opacity:1.0; 
stroke:#000000; stroke-width:0; stroke-opacity:1; 
stroke-linecap:round; stroke-linejoin:round;fill-rule:evenodd;"
d="M 6064,12809
6070,12810
6075,12812
6081,12814
6086,12816
6091,12819
6096,12822
6100,12826
6104,12831
6107,12835
6110,12840
6113,12846
6115,12851
6116,12857
6117,12862
6117,12868
6117,13439
6117,13445
6116,13450
6115,13456
6113,13462
6110,13467
6107,13472
6104,13476
6100,13481
6096,13485
6091,13488
6086,13491
6081,13494
6075,13495
6070,13497
6064,13498
6058,13498
5940,13498
5934,13498
5929,13497
5923,13495
5918,13494
5912,13491
5907,13488
5903,13485
5898,13481
5895,13476
5891,13472
5888,13467
5886,13462
5884,13456
5882,13450
5881,13445
5881,13439
5881,12868
5881,12862
5882,12857
5884,12851
5886,12846
5888,12840
5891,12835
5895,12831
5898,12826
5903,12822
5907,12819
5912,12816
5918,12814
5923,12812
5929,12810
5934,12809
5940,12809
6058,12809
6064,12809
Z" /> 
<path style="fill:#000000; fill-opacity:1.0; 
stroke:#000000; stroke-width:0; stroke-opacity:1; 
stroke-linecap:round; stroke-linejoin:round;fill-rule:evenodd;"
d="M 6564,12809
6570,12810
6575,12812
6581,12814
6586,12816
6591,12819
6596,12822
6600,12826
6604,12831
6607,12835
6610,12840
6613,12846
6615,12851
6616,12857
6617,12862
6617,12868
6617,13439
6617,13445
6616,13450
6615,13456
6613,13462
6610,13467
6607,13472
6604,13476
6600,13481
6596,13485
6591,13488
6586,13491
6581,13494
6575,13495
6570,13497
6564,13498
6558,13498
6440,13498
6434,13498
6429,13497
6423,13495
6418,13494
6412,13491
6407,13488
6403,13485
6398,13481
6395,13476
6391,13472
6388,13467
6386,13462
6384,13456
6382,13450
6381,13445
6381,13439
6381,12868
6381,12862
6382,12857
6384,12851
6386,12846
6388,12840
6391,12835
6395,12831
6398,12826
6403,12822
6407,12819
6412,12816
6418,12814
6423,12812
6429,12810
6434,12809
6440,12809
6558,12809
6564,12809
Z" /> 
<path style="fill:#000000; fill-opacity:1.0; 
stroke:#000000; stroke-width:0; stroke-opacity:1; 
stroke-linecap:round; stroke-linejoin:round;fill-rule:evenodd;"
d="M 6564,10782
6570,10783
6575,10784
6581,10786
6586,10788
6591,10791
6596,10795
6600,10799
6604,10803
6607,10808
6610,10813
6613,10818
6615,10823
6616,10829
6617,10835
6617,10841
6617,11411
6617,11417
6616,11423
6615,11429
6613,11434
6610,11439
6607,11444
6604,11449
6600,11453
6596,11457
6591,11461
6586,11463
6581,11466
6575,11468
6570,11469
6564,11470
6558,11470
6440,11470
6434,11470
6429,11469
6423,11468
6418,11466
6412,11463
6407,11461
6403,11457
6398,11453
6395,11449
6391,11444
6388,11439
6386,11434
6384,11429
6382,11423
6381,11417
6381,11411
6381,10841
6381,10835
6382,10829
6384,10823
6386,10818
6388,10813
6391,10808
6395,10803
6398,10799
6403,10795
6407,10791
6412,10788
6418,10786
6423,10784
6429,10783
6434,10782
6440,10781
6558,10781
6564,10782
Z" /> 
<path style="fill:#000000; fill-opacity:1.0; 
stroke:#000000; stroke-width:0; stroke-opacity:1; 
stroke-linecap:round; stroke-linejoin:round;fill-rule:evenodd;"
d="M 6064,10782
6070,10783
6075,10784
6081,10786
6086,10788
6091,10791
6096,10795
6100,10799
6104,10803
6107,10808
6110,10813
6113,10818
6115,10823
6116,10829
6117,10835
6117,10841
6117,11411
6117,11417
6116,11423
6115,11429
6113,11434
6110,11439
6107,11444
6104,11449
6100,11453
6096,11457
6091,11461
6086,11463
6081,11466
6075,11468
6070,11469
6064,11470
6058,11470
5940,11470
5934,11470
5929,11469
5923,11468
5918,11466
5912,11463
5907,11461
5903,11457
5898,11453
5895,11449
5891,11444
5888,11439
5886,11434
5884,11429
5882,11423
5881,11417
5881,11411
5881,10841
5881,10835
5882,10829
5884,10823
5886,10818
5888,10813
5891,10808
5895,10803
5898,10799
5903,10795
5907,10791
5912,10788
5918,10786
5923,10784
5929,10783
5934,10782
5940,10781
6058,10781
6064,10782
Z" /> 
<path style="fill:#000000; fill-opacity:1.0; 
stroke:#000000; stroke-width:0; stroke-opacity:1; 
stroke-linecap:round; stroke-linejoin:round;fill-rule:evenodd;"
d="M 5564,10782
5570,10783
5575,10784
5581,10786
5586,10788
5591,10791
5596,10795
5600,10799
5604,10803
5607,10808
5610,10813
5613,10818
5615,10823
5616,10829
5617,10835
5617,10841
5617,11411
5617,11417
5616,11423
5615,11429
5613,11434
5610,11439
5607,11444
5604,11449
5600,11453
5596,11457
5591,11461
5586,11463
5581,11466
5575,11468
5570,11469
5564,11470
5558,11470
5440,11470
5434,11470
5429,11469
5423,11468
5418,11466
5412,11463
5407,11461
5403,11457
5398,11453
5395,11449
5391,11444
5388,11439
5386,11434
5384,11429
5382,11423
5381,11417
5381,11411
5381,10841
5381,10835
5382,10829
5384,10823
5386,10818
5388,10813
5391,10808
5395,10803
5398,10799
5403,10795
5407,10791
5412,10788
5418,10786
5423,10784
5429,10783
5434,10782
5440,10781
5558,10781
5564,10782
Z" /> 
<path style="fill:#000000; fill-opacity:1.0; 
stroke:#000000; stroke-width:0; stroke-opacity:1; 
stroke-linecap:round; stroke-linejoin:round;fill-rule:evenodd;"
d="M 5064,10782
5070,10783
5075,10784
5081,10786
5086,10788
5091,10791
5096,10795
5100,10799
5104,10803
5107,10808
5110,10813
5113,10818
5115,10823
5116,10829
5117,10835
5117,10841
5117,11411
5117,11417
5116,11423
5115,11429
5113,11434
5110,11439
5107,11444
5104,11449
5100,11453
5096,11457
5091,11461
5086,11463
5081,11466
5075,11468
5070,11469
5064,11470
5058,11470
4940,11470
4934,11470
4929,11469
4923,11468
4918,11466
4912,11463
4907,11461
4903,11457
4898,11453
4895,11449
4891,11444
4888,11439
4886,11434
4884,11429
4882,11423
4881,11417
4881,11411
4881,10841
4881,10835
4882,10829
4884,10823
4886,10818
4888,10813
4891,10808
4895,10803
4898,10799
4903,10795
4907,10791
4912,10788
4918,10786
4923,10784
4929,10783
4934,10782
4940,10781
5058,10781
5064,10782
Z" /> 
</g>
<g >
</g>
<g style="fill:#000000; fill-opacity:1.0; 
stroke:#000000; stroke-width:0; stroke-opacity:1; 
stroke-linecap:round; stroke-linejoin:round;">
<path style="fill:#000000; fill-opacity:1.0; 
stroke:#000000; stroke-width:0; stroke-opacity:1; 
stroke-linecap:round; stroke-linejoin:round;fill-rule:evenodd;"
d="M 4498,13040
4504,13041
4509,13042
4514,13044
4520,13046
4524,13049
4529,13053
4533,13057
4537,13061
4540,13065
4543,13070
4546,13075
4548,13081
4549,13086
4550,13092
4550,13098
4550,13214
4550,13219
4549,13225
4548,13231
4546,13236
4543,13241
4540,13246
4537,13251
4533,13255
4529,13259
4524,13262
4520,13265
4514,13267
4509,13269
4504,13271
4498,13272
4492,13272
4356,13272
4351,13272
4345,13271
4339,13269
4334,13267
4329,13265
4324,13262
4320,13259
4315,13255
4311,13251
4308,13246
4305,13241
4303,13236
4301,13231
4299,13225
4299,13219
4298,13214
4298,13098
4299,13092
4299,13086
4301,13081
4303,13075
4305,13070
4308,13065
4311,13061
4315,13057
4320,13053
4324,13049
4329,13046
4334,13044
4339,13042
4345,13041
4351,13040
4356,13040
4492,13040
4498,13040
Z" /> 
<path style="fill:#000000; fill-opacity:1.0; 
stroke:#000000; stroke-width:0; stroke-opacity:1; 
stroke-linecap:round; stroke-linejoin:round;fill-rule:evenodd;"
d="M 4498,12658
4504,12659
4509,12660
4514,12662
4520,12665
4524,12667
4529,12671
4533,12675
4537,12679
4540,12683
4543,12688
4546,12694
4548,12699
4549,12704
4550,12710
4550,12716
4550,12832
4550,12838
4549,12843
4548,12849
4546,12854
4543,12859
4540,12864
4537,12869
4533,12873
4529,12877
4524,12880
4520,12883
4514,12886
4509,12887
4504,12889
4498,12890
4492,12890
4356,12890
4351,12890
4345,12889
4339,12887
4334,12886
4329,12883
4324,12880
4320,12877
4315,12873
4311,12869
4308,12864
4305,12859
4303,12854
4301,12849
4299,12843
4299,12838
4298,12832
4298,12716
4299,12710
4299,12704
4301,12699
4303,12694
4305,12688
4308,12683
4311,12679
4315,12675
4320,12671
4324,12667
4329,12665
4334,12662
4339,12660
4345,12659
4351,12658
4356,12658
4492,12658
4498,12658
Z" /> 
</g>
<g >
</g>
<g >
</g>
<g style="fill:#000000; fill-opacity:1.0; 
stroke:#000000; stroke-width:0; stroke-opacity:1; 
stroke-linecap:round; stroke-linejoin:round;">
<path style="fill:#000000; fill-opacity:1.0; 
stroke:#000000; stroke-width:0; stroke-opacity:1; 
stroke-linecap:round; stroke-linejoin:round;fill-rule:evenodd;"
d="M 10608,8500
11061,8500
11061,9090
10608,9090
10608,8500
Z" /> 
<path style="fill:#000000; fill-opacity:1.0; 
stroke:#000000; stroke-width:0; stroke-opacity:1; 
stroke-linecap:round; stroke-linejoin:round;fill-rule:evenodd;"
d="M 10608,11563
11061,11563
11061,12153
10608,12153
10608,11563
Z" /> 
<path style="fill:#000000; fill-opacity:1.0; 
stroke:#000000; stroke-width:0; stroke-opacity:1; 
stroke-linecap:round; stroke-linejoin:round;fill-rule:evenodd;"
d="M 10714,13779
10714,13326
11580,13326
11580,13779
10714,13779
Z" /> 
<path style="fill:#000000; fill-opacity:1.0; 
stroke:#000000; stroke-width:0; stroke-opacity:1; 
stroke-linecap:round; stroke-linejoin:round;fill-rule:evenodd;"
d="M 11041,8315
11041,7858
11513,7858
11513,8315
11041,8315
Z" /> 
<path style="fill:#000000; fill-opacity:1.0; 
stroke:#000000; stroke-width:0; stroke-opacity:1; 
stroke-linecap:round; stroke-linejoin:round;fill-rule:evenodd;"
d="M 14574,8315
14574,7858
15067,7858
15067,8315
14574,8315
Z" /> 
<path style="fill:#000000; fill-opacity:1.0; 
stroke:#000000; stroke-width:0; stroke-opacity:1; 
stroke-linecap:round; stroke-linejoin:round;fill-rule:evenodd;"
d="M 15234,8153
15234,7700
16100,7700
16100,8153
15234,8153
Z" /> 
<path style="fill:#000000; fill-opacity:1.0; 
stroke:#000000; stroke-width:0; stroke-opacity:1; 
stroke-linecap:round; stroke-linejoin:round;fill-rule:evenodd;"
d="M 15116,13779
15116,13405
16100,13405
16100,13779
15116,13779
Z" /> 
<path style="fill:#000000; fill-opacity:1.0; 
stroke:#000000; stroke-width:0; stroke-opacity:1; 
stroke-linecap:round; stroke-linejoin:round;fill-rule:evenodd;"
d="M 15612,9007
15612,8693
16100,8693
16100,9007
15612,9007
Z" /> 
<path style="fill:#000000; fill-opacity:1.0; 
stroke:#000000; stroke-width:0; stroke-opacity:1; 
stroke-linecap:round; stroke-linejoin:round;fill-rule:evenodd;"
d="M 15612,9441
15612,9126
16100,9126
16100,9441
15612,9441
Z" /> 
<path style="fill:#000000; fill-opacity:1.0; 
stroke:#000000; stroke-width:0; stroke-opacity:1; 
stroke-linecap:round; stroke-linejoin:round;fill-rule:evenodd;"
d="M 15612,9874
15612,9559
16100,9559
16100,9874
15612,9874
Z" /> 
<path style="fill:#000000; fill-opacity:1.0; 
stroke:#000000; stroke-width:0; stroke-opacity:1; 
stroke-linecap:round; stroke-linejoin:round;fill-rule:evenodd;"
d="M 15612,10307
15612,9992
16100,9992
16100,10307
15612,10307
Z" /> 
<path style="fill:#000000; fill-opacity:1.0; 
stroke:#000000; stroke-width:0; stroke-opacity:1; 
stroke-linecap:round; stroke-linejoin:round;fill-rule:evenodd;"
d="M 15612,10740
15612,10425
16100,10425
16100,10740
15612,10740
Z" /> 
<path style="fill:#000000; fill-opacity:1.0; 
stroke:#000000; stroke-width:0; stroke-opacity:1; 
stroke-linecap:round; stroke-linejoin:round;fill-rule:evenodd;"
d="M 15612,11173
15612,10858
16100,10858
16100,11173
15612,11173
Z" /> 
<path style="fill:#000000; fill-opacity:1.0; 
stroke:#000000; stroke-width:0; stroke-opacity:1; 
stroke-linecap:round; stroke-linejoin:round;fill-rule:evenodd;"
d="M 15612,11606
15612,11291
16100,11291
16100,11606
15612,11606
Z" /> 
<path style="fill:#000000; fill-opacity:1.0; 
stroke:#000000; stroke-width:0; stroke-opacity:1; 
stroke-linecap:round; stroke-linejoin:round;fill-rule:evenodd;"
d="M 15612,12039
15612,11724
16100,11724
16100,12039
15612,12039
Z" /> 
</g>
<g >
</g>
<g >
</g>
<g >
</g>
<g >
</g>
<g >
</g>
<g style="fill:#000000; fill-opacity:1.0; 
stroke:#000000; stroke-width:0; stroke-opacity:1; 
stroke-linecap:round; stroke-linejoin:round;">
<path style="fill:#000000; fill-opacity:1.0; 
stroke:#000000; stroke-width:0; stroke-opacity:1; 
stroke-linecap:round; stroke-linejoin:round;fill-rule:evenodd;"
d="M 7936,11665
7945,11666
7954,11668
7963,11671
7971,11675
7979,11680
7987,11686
7994,11692
8000,11699
8006,11707
8011,11715
8015,11723
8018,11732
8020,11741
8022,11751
8022,11760
8022,12119
8022,12129
8020,12138
8018,12147
8015,12156
8011,12165
8006,12173
8000,12180
7994,12187
7987,12194
7979,12199
7971,12204
7963,12208
7954,12211
7945,12214
7936,12215
7926,12215
7734,12215
7725,12215
7715,12214
7706,12211
7697,12208
7689,12204
7681,12199
7673,12194
7666,12187
7660,12180
7654,12173
7650,12165
7646,12156
7642,12147
7640,12138
7639,12129
7638,12119
7638,11760
7639,11751
7640,11741
7642,11732
7646,11723
7650,11715
7654,11707
7660,11699
7666,11692
7673,11686
7681,11680
7689,11675
7697,11671
7706,11668
7715,11666
7725,11665
7734,11664
7926,11664
7936,11665
Z" /> 
<path style="fill:#000000; fill-opacity:1.0; 
stroke:#000000; stroke-width:0; stroke-opacity:1; 
stroke-linecap:round; stroke-linejoin:round;fill-rule:evenodd;"
d="M 8674,11665
8683,11666
8692,11668
8701,11671
8710,11675
8718,11680
8725,11686
8732,11692
8739,11699
8744,11707
8749,11715
8753,11723
8756,11732
8758,11741
8760,11751
8760,11760
8760,12119
8760,12129
8758,12138
8756,12147
8753,12156
8749,12165
8744,12173
8739,12180
8732,12187
8725,12194
8718,12199
8710,12204
8701,12208
8692,12211
8683,12214
8674,12215
8664,12215
8472,12215
8463,12215
8454,12214
8445,12211
8436,12208
8427,12204
8419,12199
8412,12194
8405,12187
8398,12180
8393,12173
8388,12165
8384,12156
8381,12147
8378,12138
8377,12129
8376,12119
8376,11760
8377,11751
8378,11741
8381,11732
8384,11723
8388,11715
8393,11707
8398,11699
8405,11692
8412,11686
8419,11680
8427,11675
8436,11671
8445,11668
8454,11666
8463,11665
8472,11664
8664,11664
8674,11665
Z" /> 
</g>
<g >
</g>
<g style="fill:#000000; fill-opacity:1.0; 
stroke:#000000; stroke-width:0; stroke-opacity:1; 
stroke-linecap:round; stroke-linejoin:round;">
<path style="fill:#000000; fill-opacity:1.0; 
stroke:#000000; stroke-width:0; stroke-opacity:1; 
stroke-linecap:round; stroke-linejoin:round;fill-rule:evenodd;"
d="M 8098,10683
8104,10684
8109,10685
8114,10687
8120,10690
8124,10692
8129,10696
8133,10700
8137,10704
8140,10708
8143,10713
8146,10719
8148,10724
8149,10729
8150,10735
8150,10741
8150,10857
8150,10863
8149,10868
8148,10874
8146,10879
8143,10884
8140,10889
8137,10894
8133,10898
8129,10902
8124,10905
8120,10908
8114,10911
8109,10912
8104,10914
8098,10915
8092,10915
7956,10915
7951,10915
7945,10914
7939,10912
7934,10911
7929,10908
7924,10905
7920,10902
7915,10898
7911,10894
7908,10889
7905,10884
7903,10879
7901,10874
7899,10868
7899,10863
7898,10857
7898,10741
7899,10735
7899,10729
7901,10724
7903,10719
7905,10713
7908,10708
7911,10704
7915,10700
7920,10696
7924,10692
7929,10690
7934,10687
7939,10685
7945,10684
7951,10683
7956,10683
8092,10683
8098,10683
Z" /> 
<path style="fill:#000000; fill-opacity:1.0; 
stroke:#000000; stroke-width:0; stroke-opacity:1; 
stroke-linecap:round; stroke-linejoin:round;fill-rule:evenodd;"
d="M 8098,11065
8104,11066
8109,11067
8114,11069
8120,11071
8124,11074
8129,11078
8133,11082
8137,11086
8140,11090
8143,11095
8146,11100
8148,11106
8149,11111
8150,11117
8150,11123
8150,11239
8150,11244
8149,11250
8148,11256
8146,11261
8143,11266
8140,11271
8137,11276
8133,11280
8129,11284
8124,11287
8120,11290
8114,11292
8109,11294
8104,11296
8098,11297
8092,11297
7956,11297
7951,11297
7945,11296
7939,11294
7934,11292
7929,11290
7924,11287
7920,11284
7915,11280
7911,11276
7908,11271
7905,11266
7903,11261
7901,11256
7899,11250
7899,11244
7898,11239
7898,11123
7899,11117
7899,11111
7901,11106
7903,11100
7905,11095
7908,11090
7911,11086
7915,11082
7920,11078
7924,11074
7929,11071
7934,11069
7939,11067
7945,11066
7951,11065
7956,11065
8092,11065
8098,11065
Z" /> 
</g>
<g >
</g>
<g style="fill:#000000; fill-opacity:1.0; 
stroke:#000000; stroke-width:0; stroke-opacity:1; 
stroke-linecap:round; stroke-linejoin:round;">
<path style="fill:#000000; fill-opacity:1.0; 
stroke:#000000; stroke-width:0; stroke-opacity:1; 
stroke-linecap:round; stroke-linejoin:round;fill-rule:evenodd;"
d="M 8573,10683
8579,10684
8584,10685
8589,10687
8595,10690
8599,10692
8604,10696
8608,10700
8612,10704
8615,10708
8618,10713
8621,10719
8623,10724
8624,10729
8625,10735
8625,10741
8625,10857
8625,10863
8624,10868
8623,10874
8621,10879
8618,10884
8615,10889
8612,10894
8608,10898
8604,10902
8599,10905
8595,10908
8589,10911
8584,10912
8579,10914
8573,10915
8567,10915
8431,10915
8426,10915
8420,10914
8414,10912
8409,10911
8404,10908
8399,10905
8395,10902
8390,10898
8386,10894
8383,10889
8380,10884
8378,10879
8376,10874
8374,10868
8374,10863
8373,10857
8373,10741
8374,10735
8374,10729
8376,10724
8378,10719
8380,10713
8383,10708
8386,10704
8390,10700
8395,10696
8399,10692
8404,10690
8409,10687
8414,10685
8420,10684
8426,10683
8431,10683
8567,10683
8573,10683
Z" /> 
<path style="fill:#000000; fill-opacity:1.0; 
stroke:#000000; stroke-width:0; stroke-opacity:1; 
stroke-linecap:round; stroke-linejoin:round;fill-rule:evenodd;"
d="M 8573,11065
8579,11066
8584,11067
8589,11069
8595,11071
8599,11074
8604,11078
8608,11082
8612,11086
8615,11090
8618,11095
8621,11100
8623,11106
8624,11111
8625,11117
8625,11123
8625,11239
8625,11244
8624,11250
8623,11256
8621,11261
8618,11266
8615,11271
8612,11276
8608,11280
8604,11284
8599,11287
8595,11290
8589,11292
8584,11294
8579,11296
8573,11297
8567,11297
8431,11297
8426,11297
8420,11296
8414,11294
8409,11292
8404,11290
8399,11287
8395,11284
8390,11280
8386,11276
8383,11271
8380,11266
8378,11261
8376,11256
8374,11250
8374,11244
8373,11239
8373,11123
8374,11117
8374,11111
8376,11106
8378,11100
8380,11095
8383,11090
8386,11086
8390,11082
8395,11078
8399,11074
8404,11071
8409,11069
8414,11067
8420,11066
8426,11065
8431,11065
8567,11065
8573,11065
Z" /> 
</g>
<g >
</g>
<g style="fill:#000000; fill-opacity:1.0; 
stroke:#000000; stroke-width:0; stroke-opacity:1; 
stroke-linecap:round; stroke-linejoin:round;">
<path style="fill:#000000; fill-opacity:1.0; 
stroke:#000000; stroke-width:0; stroke-opacity:1; 
stroke-linecap:round; stroke-linejoin:round;fill-rule:evenodd;"
d="M 9854,9839
9860,9840
9865,9841
9871,9843
9876,9846
9881,9849
9885,9852
9889,9856
9893,9860
9897,9865
9899,9869
9902,9875
9904,9880
9905,9886
9906,9891
9906,9897
9906,10033
9906,10038
9905,10044
9904,10050
9902,10055
9899,10060
9897,10065
9893,10070
9889,10074
9885,10078
9881,10081
9876,10084
9871,10086
9865,10088
9860,10090
9854,10090
9848,10091
9732,10091
9726,10090
9721,10090
9715,10088
9710,10086
9705,10084
9700,10081
9695,10078
9691,10074
9687,10070
9684,10065
9681,10060
9678,10055
9677,10050
9675,10044
9674,10038
9674,10033
9674,9897
9674,9891
9675,9886
9677,9880
9678,9875
9681,9869
9684,9865
9687,9860
9691,9856
9695,9852
9700,9849
9705,9846
9710,9843
9715,9841
9721,9840
9726,9839
9732,9839
9848,9839
9854,9839
Z" /> 
<path style="fill:#000000; fill-opacity:1.0; 
stroke:#000000; stroke-width:0; stroke-opacity:1; 
stroke-linecap:round; stroke-linejoin:round;fill-rule:evenodd;"
d="M 9472,9839
9478,9840
9483,9841
9489,9843
9494,9846
9499,9849
9503,9852
9507,9856
9511,9860
9515,9865
9518,9869
9520,9875
9522,9880
9523,9886
9524,9891
9524,9897
9524,10033
9524,10038
9523,10044
9522,10050
9520,10055
9518,10060
9515,10065
9511,10070
9507,10074
9503,10078
9499,10081
9494,10084
9489,10086
9483,10088
9478,10090
9472,10090
9466,10091
9350,10091
9345,10090
9339,10090
9333,10088
9328,10086
9323,10084
9318,10081
9313,10078
9309,10074
9305,10070
9302,10065
9299,10060
9297,10055
9295,10050
9293,10044
9292,10038
9292,10033
9292,9897
9292,9891
9293,9886
9295,9880
9297,9875
9299,9869
9302,9865
9305,9860
9309,9856
9313,9852
9318,9849
9323,9846
9328,9843
9333,9841
9339,9840
9345,9839
9350,9839
9466,9839
9472,9839
Z" /> 
</g>
<g >
</g>
<g style="fill:#000000; fill-opacity:1.0; 
stroke:#000000; stroke-width:0; stroke-opacity:1; 
stroke-linecap:round; stroke-linejoin:round;">
<path style="fill:#000000; fill-opacity:1.0; 
stroke:#000000; stroke-width:0; stroke-opacity:1; 
stroke-linecap:round; stroke-linejoin:round;fill-rule:evenodd;"
d="M 9048,10683
9054,10684
9059,10685
9064,10687
9070,10690
9074,10692
9079,10696
9083,10700
9087,10704
9090,10708
9093,10713
9096,10719
9098,10724
9099,10729
9100,10735
9100,10741
9100,10857
9100,10863
9099,10868
9098,10874
9096,10879
9093,10884
9090,10889
9087,10894
9083,10898
9079,10902
9074,10905
9070,10908
9064,10911
9059,10912
9054,10914
9048,10915
9042,10915
8906,10915
8901,10915
8895,10914
8889,10912
8884,10911
8879,10908
8874,10905
8870,10902
8865,10898
8861,10894
8858,10889
8855,10884
8853,10879
8851,10874
8849,10868
8849,10863
8848,10857
8848,10741
8849,10735
8849,10729
8851,10724
8853,10719
8855,10713
8858,10708
8861,10704
8865,10700
8870,10696
8874,10692
8879,10690
8884,10687
8889,10685
8895,10684
8901,10683
8906,10683
9042,10683
9048,10683
Z" /> 
<path style="fill:#000000; fill-opacity:1.0; 
stroke:#000000; stroke-width:0; stroke-opacity:1; 
stroke-linecap:round; stroke-linejoin:round;fill-rule:evenodd;"
d="M 9048,11065
9054,11066
9059,11067
9064,11069
9070,11071
9074,11074
9079,11078
9083,11082
9087,11086
9090,11090
9093,11095
9096,11100
9098,11106
9099,11111
9100,11117
9100,11123
9100,11239
9100,11244
9099,11250
9098,11256
9096,11261
9093,11266
9090,11271
9087,11276
9083,11280
9079,11284
9074,11287
9070,11290
9064,11292
9059,11294
9054,11296
9048,11297
9042,11297
8906,11297
8901,11297
8895,11296
8889,11294
8884,11292
8879,11290
8874,11287
8870,11284
8865,11280
8861,11276
8858,11271
8855,11266
8853,11261
8851,11256
8849,11250
8849,11244
8848,11239
8848,11123
8849,11117
8849,11111
8851,11106
8853,11100
8855,11095
8858,11090
8861,11086
8865,11082
8870,11078
8874,11074
8879,11071
8884,11069
8889,11067
8895,11066
8901,11065
8906,11065
9042,11065
9048,11065
Z" /> 
</g>
<g >
</g>
<g >
</g>
<g >
</g>
<g >
</g>
<g >
</g>
<g >
</g>
<g >
</g>
<g >
</g>
<g >
</g>
<g >
</g>
<g >
</g>
<g >
</g>
<g >
</g>
<g >
</g>
<g >
</g>
<g >
</g>
</g>
<g style="fill:#000000; fill-opacity:1.0; 
stroke:#000000; stroke-width:0; stroke-opacity:1; 
stroke-linecap:round; stroke-linejoin:round;">
</g>
<g style="fill:#000000; fill-opacity:1.0; 
stroke:#000000; stroke-width:59.0551; stroke-opacity:1; 
stroke-linecap:round; stroke-linejoin:round;">
</g>
<g style="fill:#000000; fill-opacity:0.0; 
stroke:#000000; stroke-width:59.0551; stroke-opacity:1; 
stroke-linecap:round; stroke-linejoin:round;">
<path d="M17949 937
L17634 937
" />
<path d="M3657.82 741.02 A196.85 196.85 0.0 0 0 3854.67 937.87 " />
<path d="M14878.3 937.87 A196.85 196.85 0.0 0 0 15075.1 741.02 " />
<path d="M15075.1 14048.1 A196.85 196.85 0.0 0 0 14878.3 13851.3 " />
<path d="M3854.67 13851.3 A196.85 196.85 0.0 0 0 3657.82 14048.1 " />
<path d="M798 7654
L468 7984
" />
<path d="M798 10441
L468 10140
" />
<path d="M17634 347
L15075 347
" />
<path d="M15075 14048
L15075 14441
" />
<path d="M3854 13851
L14878 13851
" />
<path d="M3657 14441
L3657 14048
" />
<path d="M15075 14441
L17634 14441
" />
<path d="M14878 937
L7307 937
" />
<path d="M15075 347
L15075 741
" />
<path d="M1098 347
L1098 937
" />
<path d="M7307 937
L7307 1390
" />
<path d="M7307 1390
L5732 1390
" />
<path d="M1098 937
L798 937
" />
<path d="M798 937
L798 7654
" />
<path d="M17634 13851
L17949 13851
" />
<path d="M17634 937
L17634 347
" />
<path d="M5732 1390
L5732 937
" />
<path d="M3657 347
L1098 347
" />
<path d="M3657 741
L3657 347
" />
<path d="M5732 937
L3854 937
" />
<path d="M468 7984
L468 10140
" />
<path d="M17949 13851
L17949 937
" />
<path d="M1098 13851
L1098 14441
" />
<path d="M17634 14441
L17634 13851
" />
<path d="M798 10441
L798 13851
" />
<path d="M1098 14441
L3657 14441
" />
<path d="M798 13851
L1098 13851
" />
<g >
</g>
<g >
</g>
<g >
</g>
<g >
</g>
<g >
</g>
<g >
</g>
<g >
</g>
<g >
</g>
<g >
</g>
<g >
</g>
<g >
</g>
<g >
</g>
<g >
</g>
<g >
</g>
<g >
</g>
<g >
</g>
<g >
</g>
<g >
</g>
<g >
</g>
<g >
</g>
<g >
</g>
<g >
</g>
<g >
</g>
<g >
</g>
<g >
</g>
<g >
</g>
<g >
</g>
<g >
</g>
<g >
</g>
<g >
</g>
<g >
</g>
<g >
</g>
<g >
</g>
<g >
</g>
<g >
</g>
<g >
</g>
<g >
</g>
<g >
</g>
<g >
</g>
<g >
</g>
<g >
</g>
<g >
</g>
<g >
</g>
<g >
</g>
<g >
</g>
<g >
</g>
<g >
</g>
<g >
</g>
<g >
</g>
<g >
</g>
<g >
</g>
<g >
</g>
<g >
</g>
<g >
</g>
<g >
</g>
<g >
</g>
<g >
</g>
<g >
</g>
<g >
</g>
<g >
</g>
<g >
</g>
<g >
</g>
<g >
</g>
<g >
</g>
<g >
</g>
<g >
</g>
<g >
</g>
<g >
</g>
<g >
</g>
<g >
</g>
<g >
</g>
<g >
</g>
<g >
</g>
<g >
</g>
<g >
</g>
<g >
</g>
<g >
</g>
<g >
</g>
</g> 
</svg>
