%TF.GenerationSoftware,KiCad,Pcbnew,(5.1.4)-1*%
%TF.CreationDate,2019-10-25T20:43:54-07:00*%
%TF.ProjectId,mainboard,6d61696e-626f-4617-9264-2e6b69636164,rev?*%
%TF.SameCoordinates,Original*%
%TF.FileFunction,Soldermask,Top*%
%TF.FilePolarity,Negative*%
%FSLAX46Y46*%
G04 Gerber Fmt 4.6, Leading zero omitted, Abs format (unit mm)*
G04 Created by KiCad (PCBNEW (5.1.4)-1) date 2019-10-25 20:43:54*
%MOMM*%
%LPD*%
G04 APERTURE LIST*
%ADD10C,0.150000*%
%ADD11O,1.801600X1.801600*%
%ADD12R,2.501600X0.841600*%
%ADD13C,0.100000*%
%ADD14C,0.691600*%
%ADD15R,1.151600X1.151600*%
%ADD16R,1.151600X2.351600*%
%ADD17R,0.951600X0.401600*%
%ADD18R,0.401600X0.951600*%
%ADD19R,5.351600X5.351600*%
%ADD20R,1.901600X1.101600*%
%ADD21R,0.351600X0.776600*%
%ADD22R,0.776600X0.351600*%
%ADD23R,0.351600X1.201600*%
%ADD24R,1.801600X1.601600*%
%ADD25R,0.551600X0.701600*%
%ADD26R,1.451600X0.551600*%
%ADD27C,1.509600*%
%ADD28C,1.901600*%
%ADD29R,1.651600X1.601600*%
%ADD30C,0.401599*%
%ADD31R,1.001600X1.001600*%
G04 APERTURE END LIST*
D10*
X76625100Y-98791400D02*
X76625100Y-92202000D01*
X77463300Y-78486000D02*
X76625100Y-77978000D01*
X77463300Y-91694000D02*
X76625100Y-92202000D01*
X77463300Y-78486000D02*
X77463300Y-91694000D01*
X81725100Y-75141600D02*
X81725100Y-73541600D01*
X81725100Y-107941600D02*
X81725100Y-109541600D01*
X121800300Y-107941600D02*
X116700300Y-107941600D01*
X76625100Y-75141600D02*
X81725100Y-75141600D01*
X116700300Y-107941600D02*
X116700300Y-109541600D01*
X116700300Y-73541600D02*
X116700300Y-75141600D01*
X121800300Y-75141600D02*
X116700300Y-75141600D01*
X76625100Y-107941600D02*
X76625100Y-106335200D01*
X81725100Y-107941600D02*
X76625100Y-107941600D01*
X77463300Y-99299400D02*
X76625100Y-98791400D01*
X121800300Y-107941600D02*
X121800300Y-75141600D01*
X77463300Y-105827200D02*
X76625100Y-106335200D01*
X77463300Y-99299400D02*
X77463300Y-105827200D01*
X81725100Y-109541600D02*
X116700300Y-109541600D01*
X116700300Y-73541600D02*
X81725100Y-73541600D01*
X76625100Y-75141600D02*
X76625100Y-77978000D01*
D11*
X92583000Y-76962000D03*
X90043000Y-76962000D03*
D12*
X84817500Y-96710500D03*
X80917500Y-96710500D03*
X84817500Y-95440500D03*
X80917500Y-95440500D03*
X84817500Y-94170500D03*
X80917500Y-94170500D03*
D13*
G36*
X86001347Y-85799533D02*
G01*
X86018131Y-85802022D01*
X86034590Y-85806145D01*
X86050566Y-85811861D01*
X86065904Y-85819116D01*
X86080458Y-85827839D01*
X86094087Y-85837946D01*
X86106659Y-85849341D01*
X86118054Y-85861913D01*
X86128161Y-85875542D01*
X86136884Y-85890096D01*
X86144139Y-85905434D01*
X86149855Y-85921410D01*
X86153978Y-85937869D01*
X86156467Y-85954653D01*
X86157300Y-85971600D01*
X86157300Y-86367400D01*
X86156467Y-86384347D01*
X86153978Y-86401131D01*
X86149855Y-86417590D01*
X86144139Y-86433566D01*
X86136884Y-86448904D01*
X86128161Y-86463458D01*
X86118054Y-86477087D01*
X86106659Y-86489659D01*
X86094087Y-86501054D01*
X86080458Y-86511161D01*
X86065904Y-86519884D01*
X86050566Y-86527139D01*
X86034590Y-86532855D01*
X86018131Y-86536978D01*
X86001347Y-86539467D01*
X85984400Y-86540300D01*
X85638600Y-86540300D01*
X85621653Y-86539467D01*
X85604869Y-86536978D01*
X85588410Y-86532855D01*
X85572434Y-86527139D01*
X85557096Y-86519884D01*
X85542542Y-86511161D01*
X85528913Y-86501054D01*
X85516341Y-86489659D01*
X85504946Y-86477087D01*
X85494839Y-86463458D01*
X85486116Y-86448904D01*
X85478861Y-86433566D01*
X85473145Y-86417590D01*
X85469022Y-86401131D01*
X85466533Y-86384347D01*
X85465700Y-86367400D01*
X85465700Y-85971600D01*
X85466533Y-85954653D01*
X85469022Y-85937869D01*
X85473145Y-85921410D01*
X85478861Y-85905434D01*
X85486116Y-85890096D01*
X85494839Y-85875542D01*
X85504946Y-85861913D01*
X85516341Y-85849341D01*
X85528913Y-85837946D01*
X85542542Y-85827839D01*
X85557096Y-85819116D01*
X85572434Y-85811861D01*
X85588410Y-85806145D01*
X85604869Y-85802022D01*
X85621653Y-85799533D01*
X85638600Y-85798700D01*
X85984400Y-85798700D01*
X86001347Y-85799533D01*
X86001347Y-85799533D01*
G37*
D14*
X85811500Y-86169500D03*
D13*
G36*
X86971347Y-85799533D02*
G01*
X86988131Y-85802022D01*
X87004590Y-85806145D01*
X87020566Y-85811861D01*
X87035904Y-85819116D01*
X87050458Y-85827839D01*
X87064087Y-85837946D01*
X87076659Y-85849341D01*
X87088054Y-85861913D01*
X87098161Y-85875542D01*
X87106884Y-85890096D01*
X87114139Y-85905434D01*
X87119855Y-85921410D01*
X87123978Y-85937869D01*
X87126467Y-85954653D01*
X87127300Y-85971600D01*
X87127300Y-86367400D01*
X87126467Y-86384347D01*
X87123978Y-86401131D01*
X87119855Y-86417590D01*
X87114139Y-86433566D01*
X87106884Y-86448904D01*
X87098161Y-86463458D01*
X87088054Y-86477087D01*
X87076659Y-86489659D01*
X87064087Y-86501054D01*
X87050458Y-86511161D01*
X87035904Y-86519884D01*
X87020566Y-86527139D01*
X87004590Y-86532855D01*
X86988131Y-86536978D01*
X86971347Y-86539467D01*
X86954400Y-86540300D01*
X86608600Y-86540300D01*
X86591653Y-86539467D01*
X86574869Y-86536978D01*
X86558410Y-86532855D01*
X86542434Y-86527139D01*
X86527096Y-86519884D01*
X86512542Y-86511161D01*
X86498913Y-86501054D01*
X86486341Y-86489659D01*
X86474946Y-86477087D01*
X86464839Y-86463458D01*
X86456116Y-86448904D01*
X86448861Y-86433566D01*
X86443145Y-86417590D01*
X86439022Y-86401131D01*
X86436533Y-86384347D01*
X86435700Y-86367400D01*
X86435700Y-85971600D01*
X86436533Y-85954653D01*
X86439022Y-85937869D01*
X86443145Y-85921410D01*
X86448861Y-85905434D01*
X86456116Y-85890096D01*
X86464839Y-85875542D01*
X86474946Y-85861913D01*
X86486341Y-85849341D01*
X86498913Y-85837946D01*
X86512542Y-85827839D01*
X86527096Y-85819116D01*
X86542434Y-85811861D01*
X86558410Y-85806145D01*
X86574869Y-85802022D01*
X86591653Y-85799533D01*
X86608600Y-85798700D01*
X86954400Y-85798700D01*
X86971347Y-85799533D01*
X86971347Y-85799533D01*
G37*
D14*
X86781500Y-86169500D03*
D13*
G36*
X86001347Y-79322533D02*
G01*
X86018131Y-79325022D01*
X86034590Y-79329145D01*
X86050566Y-79334861D01*
X86065904Y-79342116D01*
X86080458Y-79350839D01*
X86094087Y-79360946D01*
X86106659Y-79372341D01*
X86118054Y-79384913D01*
X86128161Y-79398542D01*
X86136884Y-79413096D01*
X86144139Y-79428434D01*
X86149855Y-79444410D01*
X86153978Y-79460869D01*
X86156467Y-79477653D01*
X86157300Y-79494600D01*
X86157300Y-79890400D01*
X86156467Y-79907347D01*
X86153978Y-79924131D01*
X86149855Y-79940590D01*
X86144139Y-79956566D01*
X86136884Y-79971904D01*
X86128161Y-79986458D01*
X86118054Y-80000087D01*
X86106659Y-80012659D01*
X86094087Y-80024054D01*
X86080458Y-80034161D01*
X86065904Y-80042884D01*
X86050566Y-80050139D01*
X86034590Y-80055855D01*
X86018131Y-80059978D01*
X86001347Y-80062467D01*
X85984400Y-80063300D01*
X85638600Y-80063300D01*
X85621653Y-80062467D01*
X85604869Y-80059978D01*
X85588410Y-80055855D01*
X85572434Y-80050139D01*
X85557096Y-80042884D01*
X85542542Y-80034161D01*
X85528913Y-80024054D01*
X85516341Y-80012659D01*
X85504946Y-80000087D01*
X85494839Y-79986458D01*
X85486116Y-79971904D01*
X85478861Y-79956566D01*
X85473145Y-79940590D01*
X85469022Y-79924131D01*
X85466533Y-79907347D01*
X85465700Y-79890400D01*
X85465700Y-79494600D01*
X85466533Y-79477653D01*
X85469022Y-79460869D01*
X85473145Y-79444410D01*
X85478861Y-79428434D01*
X85486116Y-79413096D01*
X85494839Y-79398542D01*
X85504946Y-79384913D01*
X85516341Y-79372341D01*
X85528913Y-79360946D01*
X85542542Y-79350839D01*
X85557096Y-79342116D01*
X85572434Y-79334861D01*
X85588410Y-79329145D01*
X85604869Y-79325022D01*
X85621653Y-79322533D01*
X85638600Y-79321700D01*
X85984400Y-79321700D01*
X86001347Y-79322533D01*
X86001347Y-79322533D01*
G37*
D14*
X85811500Y-79692500D03*
D13*
G36*
X86971347Y-79322533D02*
G01*
X86988131Y-79325022D01*
X87004590Y-79329145D01*
X87020566Y-79334861D01*
X87035904Y-79342116D01*
X87050458Y-79350839D01*
X87064087Y-79360946D01*
X87076659Y-79372341D01*
X87088054Y-79384913D01*
X87098161Y-79398542D01*
X87106884Y-79413096D01*
X87114139Y-79428434D01*
X87119855Y-79444410D01*
X87123978Y-79460869D01*
X87126467Y-79477653D01*
X87127300Y-79494600D01*
X87127300Y-79890400D01*
X87126467Y-79907347D01*
X87123978Y-79924131D01*
X87119855Y-79940590D01*
X87114139Y-79956566D01*
X87106884Y-79971904D01*
X87098161Y-79986458D01*
X87088054Y-80000087D01*
X87076659Y-80012659D01*
X87064087Y-80024054D01*
X87050458Y-80034161D01*
X87035904Y-80042884D01*
X87020566Y-80050139D01*
X87004590Y-80055855D01*
X86988131Y-80059978D01*
X86971347Y-80062467D01*
X86954400Y-80063300D01*
X86608600Y-80063300D01*
X86591653Y-80062467D01*
X86574869Y-80059978D01*
X86558410Y-80055855D01*
X86542434Y-80050139D01*
X86527096Y-80042884D01*
X86512542Y-80034161D01*
X86498913Y-80024054D01*
X86486341Y-80012659D01*
X86474946Y-80000087D01*
X86464839Y-79986458D01*
X86456116Y-79971904D01*
X86448861Y-79956566D01*
X86443145Y-79940590D01*
X86439022Y-79924131D01*
X86436533Y-79907347D01*
X86435700Y-79890400D01*
X86435700Y-79494600D01*
X86436533Y-79477653D01*
X86439022Y-79460869D01*
X86443145Y-79444410D01*
X86448861Y-79428434D01*
X86456116Y-79413096D01*
X86464839Y-79398542D01*
X86474946Y-79384913D01*
X86486341Y-79372341D01*
X86498913Y-79360946D01*
X86512542Y-79350839D01*
X86527096Y-79342116D01*
X86542434Y-79334861D01*
X86558410Y-79329145D01*
X86574869Y-79325022D01*
X86591653Y-79322533D01*
X86608600Y-79321700D01*
X86954400Y-79321700D01*
X86971347Y-79322533D01*
X86971347Y-79322533D01*
G37*
D14*
X86781500Y-79692500D03*
D13*
G36*
X83018847Y-88387533D02*
G01*
X83035631Y-88390022D01*
X83052090Y-88394145D01*
X83068066Y-88399861D01*
X83083404Y-88407116D01*
X83097958Y-88415839D01*
X83111587Y-88425946D01*
X83124159Y-88437341D01*
X83135554Y-88449913D01*
X83145661Y-88463542D01*
X83154384Y-88478096D01*
X83161639Y-88493434D01*
X83167355Y-88509410D01*
X83171478Y-88525869D01*
X83173967Y-88542653D01*
X83174800Y-88559600D01*
X83174800Y-88905400D01*
X83173967Y-88922347D01*
X83171478Y-88939131D01*
X83167355Y-88955590D01*
X83161639Y-88971566D01*
X83154384Y-88986904D01*
X83145661Y-89001458D01*
X83135554Y-89015087D01*
X83124159Y-89027659D01*
X83111587Y-89039054D01*
X83097958Y-89049161D01*
X83083404Y-89057884D01*
X83068066Y-89065139D01*
X83052090Y-89070855D01*
X83035631Y-89074978D01*
X83018847Y-89077467D01*
X83001900Y-89078300D01*
X82606100Y-89078300D01*
X82589153Y-89077467D01*
X82572369Y-89074978D01*
X82555910Y-89070855D01*
X82539934Y-89065139D01*
X82524596Y-89057884D01*
X82510042Y-89049161D01*
X82496413Y-89039054D01*
X82483841Y-89027659D01*
X82472446Y-89015087D01*
X82462339Y-89001458D01*
X82453616Y-88986904D01*
X82446361Y-88971566D01*
X82440645Y-88955590D01*
X82436522Y-88939131D01*
X82434033Y-88922347D01*
X82433200Y-88905400D01*
X82433200Y-88559600D01*
X82434033Y-88542653D01*
X82436522Y-88525869D01*
X82440645Y-88509410D01*
X82446361Y-88493434D01*
X82453616Y-88478096D01*
X82462339Y-88463542D01*
X82472446Y-88449913D01*
X82483841Y-88437341D01*
X82496413Y-88425946D01*
X82510042Y-88415839D01*
X82524596Y-88407116D01*
X82539934Y-88399861D01*
X82555910Y-88394145D01*
X82572369Y-88390022D01*
X82589153Y-88387533D01*
X82606100Y-88386700D01*
X83001900Y-88386700D01*
X83018847Y-88387533D01*
X83018847Y-88387533D01*
G37*
D14*
X82804000Y-88732500D03*
D13*
G36*
X83018847Y-89357533D02*
G01*
X83035631Y-89360022D01*
X83052090Y-89364145D01*
X83068066Y-89369861D01*
X83083404Y-89377116D01*
X83097958Y-89385839D01*
X83111587Y-89395946D01*
X83124159Y-89407341D01*
X83135554Y-89419913D01*
X83145661Y-89433542D01*
X83154384Y-89448096D01*
X83161639Y-89463434D01*
X83167355Y-89479410D01*
X83171478Y-89495869D01*
X83173967Y-89512653D01*
X83174800Y-89529600D01*
X83174800Y-89875400D01*
X83173967Y-89892347D01*
X83171478Y-89909131D01*
X83167355Y-89925590D01*
X83161639Y-89941566D01*
X83154384Y-89956904D01*
X83145661Y-89971458D01*
X83135554Y-89985087D01*
X83124159Y-89997659D01*
X83111587Y-90009054D01*
X83097958Y-90019161D01*
X83083404Y-90027884D01*
X83068066Y-90035139D01*
X83052090Y-90040855D01*
X83035631Y-90044978D01*
X83018847Y-90047467D01*
X83001900Y-90048300D01*
X82606100Y-90048300D01*
X82589153Y-90047467D01*
X82572369Y-90044978D01*
X82555910Y-90040855D01*
X82539934Y-90035139D01*
X82524596Y-90027884D01*
X82510042Y-90019161D01*
X82496413Y-90009054D01*
X82483841Y-89997659D01*
X82472446Y-89985087D01*
X82462339Y-89971458D01*
X82453616Y-89956904D01*
X82446361Y-89941566D01*
X82440645Y-89925590D01*
X82436522Y-89909131D01*
X82434033Y-89892347D01*
X82433200Y-89875400D01*
X82433200Y-89529600D01*
X82434033Y-89512653D01*
X82436522Y-89495869D01*
X82440645Y-89479410D01*
X82446361Y-89463434D01*
X82453616Y-89448096D01*
X82462339Y-89433542D01*
X82472446Y-89419913D01*
X82483841Y-89407341D01*
X82496413Y-89395946D01*
X82510042Y-89385839D01*
X82524596Y-89377116D01*
X82539934Y-89369861D01*
X82555910Y-89364145D01*
X82572369Y-89360022D01*
X82589153Y-89357533D01*
X82606100Y-89356700D01*
X83001900Y-89356700D01*
X83018847Y-89357533D01*
X83018847Y-89357533D01*
G37*
D14*
X82804000Y-89702500D03*
D13*
G36*
X83018847Y-82228033D02*
G01*
X83035631Y-82230522D01*
X83052090Y-82234645D01*
X83068066Y-82240361D01*
X83083404Y-82247616D01*
X83097958Y-82256339D01*
X83111587Y-82266446D01*
X83124159Y-82277841D01*
X83135554Y-82290413D01*
X83145661Y-82304042D01*
X83154384Y-82318596D01*
X83161639Y-82333934D01*
X83167355Y-82349910D01*
X83171478Y-82366369D01*
X83173967Y-82383153D01*
X83174800Y-82400100D01*
X83174800Y-82745900D01*
X83173967Y-82762847D01*
X83171478Y-82779631D01*
X83167355Y-82796090D01*
X83161639Y-82812066D01*
X83154384Y-82827404D01*
X83145661Y-82841958D01*
X83135554Y-82855587D01*
X83124159Y-82868159D01*
X83111587Y-82879554D01*
X83097958Y-82889661D01*
X83083404Y-82898384D01*
X83068066Y-82905639D01*
X83052090Y-82911355D01*
X83035631Y-82915478D01*
X83018847Y-82917967D01*
X83001900Y-82918800D01*
X82606100Y-82918800D01*
X82589153Y-82917967D01*
X82572369Y-82915478D01*
X82555910Y-82911355D01*
X82539934Y-82905639D01*
X82524596Y-82898384D01*
X82510042Y-82889661D01*
X82496413Y-82879554D01*
X82483841Y-82868159D01*
X82472446Y-82855587D01*
X82462339Y-82841958D01*
X82453616Y-82827404D01*
X82446361Y-82812066D01*
X82440645Y-82796090D01*
X82436522Y-82779631D01*
X82434033Y-82762847D01*
X82433200Y-82745900D01*
X82433200Y-82400100D01*
X82434033Y-82383153D01*
X82436522Y-82366369D01*
X82440645Y-82349910D01*
X82446361Y-82333934D01*
X82453616Y-82318596D01*
X82462339Y-82304042D01*
X82472446Y-82290413D01*
X82483841Y-82277841D01*
X82496413Y-82266446D01*
X82510042Y-82256339D01*
X82524596Y-82247616D01*
X82539934Y-82240361D01*
X82555910Y-82234645D01*
X82572369Y-82230522D01*
X82589153Y-82228033D01*
X82606100Y-82227200D01*
X83001900Y-82227200D01*
X83018847Y-82228033D01*
X83018847Y-82228033D01*
G37*
D14*
X82804000Y-82573000D03*
D13*
G36*
X83018847Y-83198033D02*
G01*
X83035631Y-83200522D01*
X83052090Y-83204645D01*
X83068066Y-83210361D01*
X83083404Y-83217616D01*
X83097958Y-83226339D01*
X83111587Y-83236446D01*
X83124159Y-83247841D01*
X83135554Y-83260413D01*
X83145661Y-83274042D01*
X83154384Y-83288596D01*
X83161639Y-83303934D01*
X83167355Y-83319910D01*
X83171478Y-83336369D01*
X83173967Y-83353153D01*
X83174800Y-83370100D01*
X83174800Y-83715900D01*
X83173967Y-83732847D01*
X83171478Y-83749631D01*
X83167355Y-83766090D01*
X83161639Y-83782066D01*
X83154384Y-83797404D01*
X83145661Y-83811958D01*
X83135554Y-83825587D01*
X83124159Y-83838159D01*
X83111587Y-83849554D01*
X83097958Y-83859661D01*
X83083404Y-83868384D01*
X83068066Y-83875639D01*
X83052090Y-83881355D01*
X83035631Y-83885478D01*
X83018847Y-83887967D01*
X83001900Y-83888800D01*
X82606100Y-83888800D01*
X82589153Y-83887967D01*
X82572369Y-83885478D01*
X82555910Y-83881355D01*
X82539934Y-83875639D01*
X82524596Y-83868384D01*
X82510042Y-83859661D01*
X82496413Y-83849554D01*
X82483841Y-83838159D01*
X82472446Y-83825587D01*
X82462339Y-83811958D01*
X82453616Y-83797404D01*
X82446361Y-83782066D01*
X82440645Y-83766090D01*
X82436522Y-83749631D01*
X82434033Y-83732847D01*
X82433200Y-83715900D01*
X82433200Y-83370100D01*
X82434033Y-83353153D01*
X82436522Y-83336369D01*
X82440645Y-83319910D01*
X82446361Y-83303934D01*
X82453616Y-83288596D01*
X82462339Y-83274042D01*
X82472446Y-83260413D01*
X82483841Y-83247841D01*
X82496413Y-83236446D01*
X82510042Y-83226339D01*
X82524596Y-83217616D01*
X82539934Y-83210361D01*
X82555910Y-83204645D01*
X82572369Y-83200522D01*
X82589153Y-83198033D01*
X82606100Y-83197200D01*
X83001900Y-83197200D01*
X83018847Y-83198033D01*
X83018847Y-83198033D01*
G37*
D14*
X82804000Y-83543000D03*
D13*
G36*
X83018847Y-80259533D02*
G01*
X83035631Y-80262022D01*
X83052090Y-80266145D01*
X83068066Y-80271861D01*
X83083404Y-80279116D01*
X83097958Y-80287839D01*
X83111587Y-80297946D01*
X83124159Y-80309341D01*
X83135554Y-80321913D01*
X83145661Y-80335542D01*
X83154384Y-80350096D01*
X83161639Y-80365434D01*
X83167355Y-80381410D01*
X83171478Y-80397869D01*
X83173967Y-80414653D01*
X83174800Y-80431600D01*
X83174800Y-80777400D01*
X83173967Y-80794347D01*
X83171478Y-80811131D01*
X83167355Y-80827590D01*
X83161639Y-80843566D01*
X83154384Y-80858904D01*
X83145661Y-80873458D01*
X83135554Y-80887087D01*
X83124159Y-80899659D01*
X83111587Y-80911054D01*
X83097958Y-80921161D01*
X83083404Y-80929884D01*
X83068066Y-80937139D01*
X83052090Y-80942855D01*
X83035631Y-80946978D01*
X83018847Y-80949467D01*
X83001900Y-80950300D01*
X82606100Y-80950300D01*
X82589153Y-80949467D01*
X82572369Y-80946978D01*
X82555910Y-80942855D01*
X82539934Y-80937139D01*
X82524596Y-80929884D01*
X82510042Y-80921161D01*
X82496413Y-80911054D01*
X82483841Y-80899659D01*
X82472446Y-80887087D01*
X82462339Y-80873458D01*
X82453616Y-80858904D01*
X82446361Y-80843566D01*
X82440645Y-80827590D01*
X82436522Y-80811131D01*
X82434033Y-80794347D01*
X82433200Y-80777400D01*
X82433200Y-80431600D01*
X82434033Y-80414653D01*
X82436522Y-80397869D01*
X82440645Y-80381410D01*
X82446361Y-80365434D01*
X82453616Y-80350096D01*
X82462339Y-80335542D01*
X82472446Y-80321913D01*
X82483841Y-80309341D01*
X82496413Y-80297946D01*
X82510042Y-80287839D01*
X82524596Y-80279116D01*
X82539934Y-80271861D01*
X82555910Y-80266145D01*
X82572369Y-80262022D01*
X82589153Y-80259533D01*
X82606100Y-80258700D01*
X83001900Y-80258700D01*
X83018847Y-80259533D01*
X83018847Y-80259533D01*
G37*
D14*
X82804000Y-80604500D03*
D13*
G36*
X83018847Y-81229533D02*
G01*
X83035631Y-81232022D01*
X83052090Y-81236145D01*
X83068066Y-81241861D01*
X83083404Y-81249116D01*
X83097958Y-81257839D01*
X83111587Y-81267946D01*
X83124159Y-81279341D01*
X83135554Y-81291913D01*
X83145661Y-81305542D01*
X83154384Y-81320096D01*
X83161639Y-81335434D01*
X83167355Y-81351410D01*
X83171478Y-81367869D01*
X83173967Y-81384653D01*
X83174800Y-81401600D01*
X83174800Y-81747400D01*
X83173967Y-81764347D01*
X83171478Y-81781131D01*
X83167355Y-81797590D01*
X83161639Y-81813566D01*
X83154384Y-81828904D01*
X83145661Y-81843458D01*
X83135554Y-81857087D01*
X83124159Y-81869659D01*
X83111587Y-81881054D01*
X83097958Y-81891161D01*
X83083404Y-81899884D01*
X83068066Y-81907139D01*
X83052090Y-81912855D01*
X83035631Y-81916978D01*
X83018847Y-81919467D01*
X83001900Y-81920300D01*
X82606100Y-81920300D01*
X82589153Y-81919467D01*
X82572369Y-81916978D01*
X82555910Y-81912855D01*
X82539934Y-81907139D01*
X82524596Y-81899884D01*
X82510042Y-81891161D01*
X82496413Y-81881054D01*
X82483841Y-81869659D01*
X82472446Y-81857087D01*
X82462339Y-81843458D01*
X82453616Y-81828904D01*
X82446361Y-81813566D01*
X82440645Y-81797590D01*
X82436522Y-81781131D01*
X82434033Y-81764347D01*
X82433200Y-81747400D01*
X82433200Y-81401600D01*
X82434033Y-81384653D01*
X82436522Y-81367869D01*
X82440645Y-81351410D01*
X82446361Y-81335434D01*
X82453616Y-81320096D01*
X82462339Y-81305542D01*
X82472446Y-81291913D01*
X82483841Y-81279341D01*
X82496413Y-81267946D01*
X82510042Y-81257839D01*
X82524596Y-81249116D01*
X82539934Y-81241861D01*
X82555910Y-81236145D01*
X82572369Y-81232022D01*
X82589153Y-81229533D01*
X82606100Y-81228700D01*
X83001900Y-81228700D01*
X83018847Y-81229533D01*
X83018847Y-81229533D01*
G37*
D14*
X82804000Y-81574500D03*
D13*
G36*
X100163847Y-86355533D02*
G01*
X100180631Y-86358022D01*
X100197090Y-86362145D01*
X100213066Y-86367861D01*
X100228404Y-86375116D01*
X100242958Y-86383839D01*
X100256587Y-86393946D01*
X100269159Y-86405341D01*
X100280554Y-86417913D01*
X100290661Y-86431542D01*
X100299384Y-86446096D01*
X100306639Y-86461434D01*
X100312355Y-86477410D01*
X100316478Y-86493869D01*
X100318967Y-86510653D01*
X100319800Y-86527600D01*
X100319800Y-86873400D01*
X100318967Y-86890347D01*
X100316478Y-86907131D01*
X100312355Y-86923590D01*
X100306639Y-86939566D01*
X100299384Y-86954904D01*
X100290661Y-86969458D01*
X100280554Y-86983087D01*
X100269159Y-86995659D01*
X100256587Y-87007054D01*
X100242958Y-87017161D01*
X100228404Y-87025884D01*
X100213066Y-87033139D01*
X100197090Y-87038855D01*
X100180631Y-87042978D01*
X100163847Y-87045467D01*
X100146900Y-87046300D01*
X99751100Y-87046300D01*
X99734153Y-87045467D01*
X99717369Y-87042978D01*
X99700910Y-87038855D01*
X99684934Y-87033139D01*
X99669596Y-87025884D01*
X99655042Y-87017161D01*
X99641413Y-87007054D01*
X99628841Y-86995659D01*
X99617446Y-86983087D01*
X99607339Y-86969458D01*
X99598616Y-86954904D01*
X99591361Y-86939566D01*
X99585645Y-86923590D01*
X99581522Y-86907131D01*
X99579033Y-86890347D01*
X99578200Y-86873400D01*
X99578200Y-86527600D01*
X99579033Y-86510653D01*
X99581522Y-86493869D01*
X99585645Y-86477410D01*
X99591361Y-86461434D01*
X99598616Y-86446096D01*
X99607339Y-86431542D01*
X99617446Y-86417913D01*
X99628841Y-86405341D01*
X99641413Y-86393946D01*
X99655042Y-86383839D01*
X99669596Y-86375116D01*
X99684934Y-86367861D01*
X99700910Y-86362145D01*
X99717369Y-86358022D01*
X99734153Y-86355533D01*
X99751100Y-86354700D01*
X100146900Y-86354700D01*
X100163847Y-86355533D01*
X100163847Y-86355533D01*
G37*
D14*
X99949000Y-86700500D03*
D13*
G36*
X100163847Y-87325533D02*
G01*
X100180631Y-87328022D01*
X100197090Y-87332145D01*
X100213066Y-87337861D01*
X100228404Y-87345116D01*
X100242958Y-87353839D01*
X100256587Y-87363946D01*
X100269159Y-87375341D01*
X100280554Y-87387913D01*
X100290661Y-87401542D01*
X100299384Y-87416096D01*
X100306639Y-87431434D01*
X100312355Y-87447410D01*
X100316478Y-87463869D01*
X100318967Y-87480653D01*
X100319800Y-87497600D01*
X100319800Y-87843400D01*
X100318967Y-87860347D01*
X100316478Y-87877131D01*
X100312355Y-87893590D01*
X100306639Y-87909566D01*
X100299384Y-87924904D01*
X100290661Y-87939458D01*
X100280554Y-87953087D01*
X100269159Y-87965659D01*
X100256587Y-87977054D01*
X100242958Y-87987161D01*
X100228404Y-87995884D01*
X100213066Y-88003139D01*
X100197090Y-88008855D01*
X100180631Y-88012978D01*
X100163847Y-88015467D01*
X100146900Y-88016300D01*
X99751100Y-88016300D01*
X99734153Y-88015467D01*
X99717369Y-88012978D01*
X99700910Y-88008855D01*
X99684934Y-88003139D01*
X99669596Y-87995884D01*
X99655042Y-87987161D01*
X99641413Y-87977054D01*
X99628841Y-87965659D01*
X99617446Y-87953087D01*
X99607339Y-87939458D01*
X99598616Y-87924904D01*
X99591361Y-87909566D01*
X99585645Y-87893590D01*
X99581522Y-87877131D01*
X99579033Y-87860347D01*
X99578200Y-87843400D01*
X99578200Y-87497600D01*
X99579033Y-87480653D01*
X99581522Y-87463869D01*
X99585645Y-87447410D01*
X99591361Y-87431434D01*
X99598616Y-87416096D01*
X99607339Y-87401542D01*
X99617446Y-87387913D01*
X99628841Y-87375341D01*
X99641413Y-87363946D01*
X99655042Y-87353839D01*
X99669596Y-87345116D01*
X99684934Y-87337861D01*
X99700910Y-87332145D01*
X99717369Y-87328022D01*
X99734153Y-87325533D01*
X99751100Y-87324700D01*
X100146900Y-87324700D01*
X100163847Y-87325533D01*
X100163847Y-87325533D01*
G37*
D14*
X99949000Y-87670500D03*
D13*
G36*
X100163847Y-84006033D02*
G01*
X100180631Y-84008522D01*
X100197090Y-84012645D01*
X100213066Y-84018361D01*
X100228404Y-84025616D01*
X100242958Y-84034339D01*
X100256587Y-84044446D01*
X100269159Y-84055841D01*
X100280554Y-84068413D01*
X100290661Y-84082042D01*
X100299384Y-84096596D01*
X100306639Y-84111934D01*
X100312355Y-84127910D01*
X100316478Y-84144369D01*
X100318967Y-84161153D01*
X100319800Y-84178100D01*
X100319800Y-84523900D01*
X100318967Y-84540847D01*
X100316478Y-84557631D01*
X100312355Y-84574090D01*
X100306639Y-84590066D01*
X100299384Y-84605404D01*
X100290661Y-84619958D01*
X100280554Y-84633587D01*
X100269159Y-84646159D01*
X100256587Y-84657554D01*
X100242958Y-84667661D01*
X100228404Y-84676384D01*
X100213066Y-84683639D01*
X100197090Y-84689355D01*
X100180631Y-84693478D01*
X100163847Y-84695967D01*
X100146900Y-84696800D01*
X99751100Y-84696800D01*
X99734153Y-84695967D01*
X99717369Y-84693478D01*
X99700910Y-84689355D01*
X99684934Y-84683639D01*
X99669596Y-84676384D01*
X99655042Y-84667661D01*
X99641413Y-84657554D01*
X99628841Y-84646159D01*
X99617446Y-84633587D01*
X99607339Y-84619958D01*
X99598616Y-84605404D01*
X99591361Y-84590066D01*
X99585645Y-84574090D01*
X99581522Y-84557631D01*
X99579033Y-84540847D01*
X99578200Y-84523900D01*
X99578200Y-84178100D01*
X99579033Y-84161153D01*
X99581522Y-84144369D01*
X99585645Y-84127910D01*
X99591361Y-84111934D01*
X99598616Y-84096596D01*
X99607339Y-84082042D01*
X99617446Y-84068413D01*
X99628841Y-84055841D01*
X99641413Y-84044446D01*
X99655042Y-84034339D01*
X99669596Y-84025616D01*
X99684934Y-84018361D01*
X99700910Y-84012645D01*
X99717369Y-84008522D01*
X99734153Y-84006033D01*
X99751100Y-84005200D01*
X100146900Y-84005200D01*
X100163847Y-84006033D01*
X100163847Y-84006033D01*
G37*
D14*
X99949000Y-84351000D03*
D13*
G36*
X100163847Y-84976033D02*
G01*
X100180631Y-84978522D01*
X100197090Y-84982645D01*
X100213066Y-84988361D01*
X100228404Y-84995616D01*
X100242958Y-85004339D01*
X100256587Y-85014446D01*
X100269159Y-85025841D01*
X100280554Y-85038413D01*
X100290661Y-85052042D01*
X100299384Y-85066596D01*
X100306639Y-85081934D01*
X100312355Y-85097910D01*
X100316478Y-85114369D01*
X100318967Y-85131153D01*
X100319800Y-85148100D01*
X100319800Y-85493900D01*
X100318967Y-85510847D01*
X100316478Y-85527631D01*
X100312355Y-85544090D01*
X100306639Y-85560066D01*
X100299384Y-85575404D01*
X100290661Y-85589958D01*
X100280554Y-85603587D01*
X100269159Y-85616159D01*
X100256587Y-85627554D01*
X100242958Y-85637661D01*
X100228404Y-85646384D01*
X100213066Y-85653639D01*
X100197090Y-85659355D01*
X100180631Y-85663478D01*
X100163847Y-85665967D01*
X100146900Y-85666800D01*
X99751100Y-85666800D01*
X99734153Y-85665967D01*
X99717369Y-85663478D01*
X99700910Y-85659355D01*
X99684934Y-85653639D01*
X99669596Y-85646384D01*
X99655042Y-85637661D01*
X99641413Y-85627554D01*
X99628841Y-85616159D01*
X99617446Y-85603587D01*
X99607339Y-85589958D01*
X99598616Y-85575404D01*
X99591361Y-85560066D01*
X99585645Y-85544090D01*
X99581522Y-85527631D01*
X99579033Y-85510847D01*
X99578200Y-85493900D01*
X99578200Y-85148100D01*
X99579033Y-85131153D01*
X99581522Y-85114369D01*
X99585645Y-85097910D01*
X99591361Y-85081934D01*
X99598616Y-85066596D01*
X99607339Y-85052042D01*
X99617446Y-85038413D01*
X99628841Y-85025841D01*
X99641413Y-85014446D01*
X99655042Y-85004339D01*
X99669596Y-84995616D01*
X99684934Y-84988361D01*
X99700910Y-84982645D01*
X99717369Y-84978522D01*
X99734153Y-84976033D01*
X99751100Y-84975200D01*
X100146900Y-84975200D01*
X100163847Y-84976033D01*
X100163847Y-84976033D01*
G37*
D14*
X99949000Y-85321000D03*
D15*
X103886000Y-90679000D03*
D16*
X105361000Y-89154000D03*
X102411000Y-89154000D03*
D13*
G36*
X93686847Y-103899033D02*
G01*
X93703631Y-103901522D01*
X93720090Y-103905645D01*
X93736066Y-103911361D01*
X93751404Y-103918616D01*
X93765958Y-103927339D01*
X93779587Y-103937446D01*
X93792159Y-103948841D01*
X93803554Y-103961413D01*
X93813661Y-103975042D01*
X93822384Y-103989596D01*
X93829639Y-104004934D01*
X93835355Y-104020910D01*
X93839478Y-104037369D01*
X93841967Y-104054153D01*
X93842800Y-104071100D01*
X93842800Y-104416900D01*
X93841967Y-104433847D01*
X93839478Y-104450631D01*
X93835355Y-104467090D01*
X93829639Y-104483066D01*
X93822384Y-104498404D01*
X93813661Y-104512958D01*
X93803554Y-104526587D01*
X93792159Y-104539159D01*
X93779587Y-104550554D01*
X93765958Y-104560661D01*
X93751404Y-104569384D01*
X93736066Y-104576639D01*
X93720090Y-104582355D01*
X93703631Y-104586478D01*
X93686847Y-104588967D01*
X93669900Y-104589800D01*
X93274100Y-104589800D01*
X93257153Y-104588967D01*
X93240369Y-104586478D01*
X93223910Y-104582355D01*
X93207934Y-104576639D01*
X93192596Y-104569384D01*
X93178042Y-104560661D01*
X93164413Y-104550554D01*
X93151841Y-104539159D01*
X93140446Y-104526587D01*
X93130339Y-104512958D01*
X93121616Y-104498404D01*
X93114361Y-104483066D01*
X93108645Y-104467090D01*
X93104522Y-104450631D01*
X93102033Y-104433847D01*
X93101200Y-104416900D01*
X93101200Y-104071100D01*
X93102033Y-104054153D01*
X93104522Y-104037369D01*
X93108645Y-104020910D01*
X93114361Y-104004934D01*
X93121616Y-103989596D01*
X93130339Y-103975042D01*
X93140446Y-103961413D01*
X93151841Y-103948841D01*
X93164413Y-103937446D01*
X93178042Y-103927339D01*
X93192596Y-103918616D01*
X93207934Y-103911361D01*
X93223910Y-103905645D01*
X93240369Y-103901522D01*
X93257153Y-103899033D01*
X93274100Y-103898200D01*
X93669900Y-103898200D01*
X93686847Y-103899033D01*
X93686847Y-103899033D01*
G37*
D14*
X93472000Y-104244000D03*
D13*
G36*
X93686847Y-102929033D02*
G01*
X93703631Y-102931522D01*
X93720090Y-102935645D01*
X93736066Y-102941361D01*
X93751404Y-102948616D01*
X93765958Y-102957339D01*
X93779587Y-102967446D01*
X93792159Y-102978841D01*
X93803554Y-102991413D01*
X93813661Y-103005042D01*
X93822384Y-103019596D01*
X93829639Y-103034934D01*
X93835355Y-103050910D01*
X93839478Y-103067369D01*
X93841967Y-103084153D01*
X93842800Y-103101100D01*
X93842800Y-103446900D01*
X93841967Y-103463847D01*
X93839478Y-103480631D01*
X93835355Y-103497090D01*
X93829639Y-103513066D01*
X93822384Y-103528404D01*
X93813661Y-103542958D01*
X93803554Y-103556587D01*
X93792159Y-103569159D01*
X93779587Y-103580554D01*
X93765958Y-103590661D01*
X93751404Y-103599384D01*
X93736066Y-103606639D01*
X93720090Y-103612355D01*
X93703631Y-103616478D01*
X93686847Y-103618967D01*
X93669900Y-103619800D01*
X93274100Y-103619800D01*
X93257153Y-103618967D01*
X93240369Y-103616478D01*
X93223910Y-103612355D01*
X93207934Y-103606639D01*
X93192596Y-103599384D01*
X93178042Y-103590661D01*
X93164413Y-103580554D01*
X93151841Y-103569159D01*
X93140446Y-103556587D01*
X93130339Y-103542958D01*
X93121616Y-103528404D01*
X93114361Y-103513066D01*
X93108645Y-103497090D01*
X93104522Y-103480631D01*
X93102033Y-103463847D01*
X93101200Y-103446900D01*
X93101200Y-103101100D01*
X93102033Y-103084153D01*
X93104522Y-103067369D01*
X93108645Y-103050910D01*
X93114361Y-103034934D01*
X93121616Y-103019596D01*
X93130339Y-103005042D01*
X93140446Y-102991413D01*
X93151841Y-102978841D01*
X93164413Y-102967446D01*
X93178042Y-102957339D01*
X93192596Y-102948616D01*
X93207934Y-102941361D01*
X93223910Y-102935645D01*
X93240369Y-102931522D01*
X93257153Y-102929033D01*
X93274100Y-102928200D01*
X93669900Y-102928200D01*
X93686847Y-102929033D01*
X93686847Y-102929033D01*
G37*
D14*
X93472000Y-103274000D03*
D13*
G36*
X90065347Y-80973533D02*
G01*
X90082131Y-80976022D01*
X90098590Y-80980145D01*
X90114566Y-80985861D01*
X90129904Y-80993116D01*
X90144458Y-81001839D01*
X90158087Y-81011946D01*
X90170659Y-81023341D01*
X90182054Y-81035913D01*
X90192161Y-81049542D01*
X90200884Y-81064096D01*
X90208139Y-81079434D01*
X90213855Y-81095410D01*
X90217978Y-81111869D01*
X90220467Y-81128653D01*
X90221300Y-81145600D01*
X90221300Y-81541400D01*
X90220467Y-81558347D01*
X90217978Y-81575131D01*
X90213855Y-81591590D01*
X90208139Y-81607566D01*
X90200884Y-81622904D01*
X90192161Y-81637458D01*
X90182054Y-81651087D01*
X90170659Y-81663659D01*
X90158087Y-81675054D01*
X90144458Y-81685161D01*
X90129904Y-81693884D01*
X90114566Y-81701139D01*
X90098590Y-81706855D01*
X90082131Y-81710978D01*
X90065347Y-81713467D01*
X90048400Y-81714300D01*
X89702600Y-81714300D01*
X89685653Y-81713467D01*
X89668869Y-81710978D01*
X89652410Y-81706855D01*
X89636434Y-81701139D01*
X89621096Y-81693884D01*
X89606542Y-81685161D01*
X89592913Y-81675054D01*
X89580341Y-81663659D01*
X89568946Y-81651087D01*
X89558839Y-81637458D01*
X89550116Y-81622904D01*
X89542861Y-81607566D01*
X89537145Y-81591590D01*
X89533022Y-81575131D01*
X89530533Y-81558347D01*
X89529700Y-81541400D01*
X89529700Y-81145600D01*
X89530533Y-81128653D01*
X89533022Y-81111869D01*
X89537145Y-81095410D01*
X89542861Y-81079434D01*
X89550116Y-81064096D01*
X89558839Y-81049542D01*
X89568946Y-81035913D01*
X89580341Y-81023341D01*
X89592913Y-81011946D01*
X89606542Y-81001839D01*
X89621096Y-80993116D01*
X89636434Y-80985861D01*
X89652410Y-80980145D01*
X89668869Y-80976022D01*
X89685653Y-80973533D01*
X89702600Y-80972700D01*
X90048400Y-80972700D01*
X90065347Y-80973533D01*
X90065347Y-80973533D01*
G37*
D14*
X89875500Y-81343500D03*
D13*
G36*
X91035347Y-80973533D02*
G01*
X91052131Y-80976022D01*
X91068590Y-80980145D01*
X91084566Y-80985861D01*
X91099904Y-80993116D01*
X91114458Y-81001839D01*
X91128087Y-81011946D01*
X91140659Y-81023341D01*
X91152054Y-81035913D01*
X91162161Y-81049542D01*
X91170884Y-81064096D01*
X91178139Y-81079434D01*
X91183855Y-81095410D01*
X91187978Y-81111869D01*
X91190467Y-81128653D01*
X91191300Y-81145600D01*
X91191300Y-81541400D01*
X91190467Y-81558347D01*
X91187978Y-81575131D01*
X91183855Y-81591590D01*
X91178139Y-81607566D01*
X91170884Y-81622904D01*
X91162161Y-81637458D01*
X91152054Y-81651087D01*
X91140659Y-81663659D01*
X91128087Y-81675054D01*
X91114458Y-81685161D01*
X91099904Y-81693884D01*
X91084566Y-81701139D01*
X91068590Y-81706855D01*
X91052131Y-81710978D01*
X91035347Y-81713467D01*
X91018400Y-81714300D01*
X90672600Y-81714300D01*
X90655653Y-81713467D01*
X90638869Y-81710978D01*
X90622410Y-81706855D01*
X90606434Y-81701139D01*
X90591096Y-81693884D01*
X90576542Y-81685161D01*
X90562913Y-81675054D01*
X90550341Y-81663659D01*
X90538946Y-81651087D01*
X90528839Y-81637458D01*
X90520116Y-81622904D01*
X90512861Y-81607566D01*
X90507145Y-81591590D01*
X90503022Y-81575131D01*
X90500533Y-81558347D01*
X90499700Y-81541400D01*
X90499700Y-81145600D01*
X90500533Y-81128653D01*
X90503022Y-81111869D01*
X90507145Y-81095410D01*
X90512861Y-81079434D01*
X90520116Y-81064096D01*
X90528839Y-81049542D01*
X90538946Y-81035913D01*
X90550341Y-81023341D01*
X90562913Y-81011946D01*
X90576542Y-81001839D01*
X90591096Y-80993116D01*
X90606434Y-80985861D01*
X90622410Y-80980145D01*
X90638869Y-80976022D01*
X90655653Y-80973533D01*
X90672600Y-80972700D01*
X91018400Y-80972700D01*
X91035347Y-80973533D01*
X91035347Y-80973533D01*
G37*
D14*
X90845500Y-81343500D03*
D17*
X100147800Y-99765300D03*
X100147800Y-99265300D03*
X100147800Y-98765300D03*
X100147800Y-98265300D03*
X100147800Y-97765300D03*
X100147800Y-97265300D03*
X100147800Y-96765300D03*
X100147800Y-96265300D03*
X100147800Y-95765300D03*
X100147800Y-95265300D03*
X100147800Y-94765300D03*
X100147800Y-94265300D03*
D18*
X99447800Y-93565300D03*
X98947800Y-93565300D03*
X98447800Y-93565300D03*
X97947800Y-93565300D03*
X97447800Y-93565300D03*
X96947800Y-93565300D03*
X96447800Y-93565300D03*
X95947800Y-93565300D03*
X95447800Y-93565300D03*
X94947800Y-93565300D03*
X94447800Y-93565300D03*
X93947800Y-93565300D03*
D17*
X93247800Y-94265300D03*
X93247800Y-94765300D03*
X93247800Y-95265300D03*
X93247800Y-95765300D03*
X93247800Y-96265300D03*
X93247800Y-96765300D03*
X93247800Y-97265300D03*
X93247800Y-97765300D03*
X93247800Y-98265300D03*
X93247800Y-98765300D03*
X93247800Y-99265300D03*
X93247800Y-99765300D03*
D18*
X93947800Y-100465300D03*
X94447800Y-100465300D03*
X94947800Y-100465300D03*
X95447800Y-100465300D03*
X95947800Y-100465300D03*
X96447800Y-100465300D03*
X96947800Y-100465300D03*
X97447800Y-100465300D03*
X97947800Y-100465300D03*
X98447800Y-100465300D03*
X98947800Y-100465300D03*
X99447800Y-100465300D03*
D19*
X96697800Y-97015300D03*
D20*
X119660000Y-106568000D03*
X119660000Y-104568000D03*
X119660000Y-102568000D03*
X119660000Y-100568000D03*
X119660000Y-98568000D03*
X119660000Y-96568000D03*
X119660000Y-94568000D03*
X119660000Y-92568000D03*
X103860000Y-92568000D03*
X103860000Y-94568000D03*
X103860000Y-96568000D03*
X103860000Y-98568000D03*
X103860000Y-100568000D03*
X103860000Y-102568000D03*
X103860000Y-104568000D03*
X103860000Y-106568000D03*
D21*
X98814000Y-104144000D03*
X99314000Y-104144000D03*
X99814000Y-104144000D03*
D22*
X100576000Y-104406000D03*
X100576000Y-104906000D03*
X100576000Y-105406000D03*
X100576000Y-105906000D03*
D21*
X99814000Y-106168000D03*
X99314000Y-106168000D03*
X98814000Y-106168000D03*
D22*
X98052000Y-105906000D03*
X98052000Y-105406000D03*
X98052000Y-104906000D03*
X98052000Y-104406000D03*
D13*
G36*
X80222847Y-85609033D02*
G01*
X80239631Y-85611522D01*
X80256090Y-85615645D01*
X80272066Y-85621361D01*
X80287404Y-85628616D01*
X80301958Y-85637339D01*
X80315587Y-85647446D01*
X80328159Y-85658841D01*
X80339554Y-85671413D01*
X80349661Y-85685042D01*
X80358384Y-85699596D01*
X80365639Y-85714934D01*
X80371355Y-85730910D01*
X80375478Y-85747369D01*
X80377967Y-85764153D01*
X80378800Y-85781100D01*
X80378800Y-86176900D01*
X80377967Y-86193847D01*
X80375478Y-86210631D01*
X80371355Y-86227090D01*
X80365639Y-86243066D01*
X80358384Y-86258404D01*
X80349661Y-86272958D01*
X80339554Y-86286587D01*
X80328159Y-86299159D01*
X80315587Y-86310554D01*
X80301958Y-86320661D01*
X80287404Y-86329384D01*
X80272066Y-86336639D01*
X80256090Y-86342355D01*
X80239631Y-86346478D01*
X80222847Y-86348967D01*
X80205900Y-86349800D01*
X79860100Y-86349800D01*
X79843153Y-86348967D01*
X79826369Y-86346478D01*
X79809910Y-86342355D01*
X79793934Y-86336639D01*
X79778596Y-86329384D01*
X79764042Y-86320661D01*
X79750413Y-86310554D01*
X79737841Y-86299159D01*
X79726446Y-86286587D01*
X79716339Y-86272958D01*
X79707616Y-86258404D01*
X79700361Y-86243066D01*
X79694645Y-86227090D01*
X79690522Y-86210631D01*
X79688033Y-86193847D01*
X79687200Y-86176900D01*
X79687200Y-85781100D01*
X79688033Y-85764153D01*
X79690522Y-85747369D01*
X79694645Y-85730910D01*
X79700361Y-85714934D01*
X79707616Y-85699596D01*
X79716339Y-85685042D01*
X79726446Y-85671413D01*
X79737841Y-85658841D01*
X79750413Y-85647446D01*
X79764042Y-85637339D01*
X79778596Y-85628616D01*
X79793934Y-85621361D01*
X79809910Y-85615645D01*
X79826369Y-85611522D01*
X79843153Y-85609033D01*
X79860100Y-85608200D01*
X80205900Y-85608200D01*
X80222847Y-85609033D01*
X80222847Y-85609033D01*
G37*
D14*
X80033000Y-85979000D03*
D13*
G36*
X81192847Y-85609033D02*
G01*
X81209631Y-85611522D01*
X81226090Y-85615645D01*
X81242066Y-85621361D01*
X81257404Y-85628616D01*
X81271958Y-85637339D01*
X81285587Y-85647446D01*
X81298159Y-85658841D01*
X81309554Y-85671413D01*
X81319661Y-85685042D01*
X81328384Y-85699596D01*
X81335639Y-85714934D01*
X81341355Y-85730910D01*
X81345478Y-85747369D01*
X81347967Y-85764153D01*
X81348800Y-85781100D01*
X81348800Y-86176900D01*
X81347967Y-86193847D01*
X81345478Y-86210631D01*
X81341355Y-86227090D01*
X81335639Y-86243066D01*
X81328384Y-86258404D01*
X81319661Y-86272958D01*
X81309554Y-86286587D01*
X81298159Y-86299159D01*
X81285587Y-86310554D01*
X81271958Y-86320661D01*
X81257404Y-86329384D01*
X81242066Y-86336639D01*
X81226090Y-86342355D01*
X81209631Y-86346478D01*
X81192847Y-86348967D01*
X81175900Y-86349800D01*
X80830100Y-86349800D01*
X80813153Y-86348967D01*
X80796369Y-86346478D01*
X80779910Y-86342355D01*
X80763934Y-86336639D01*
X80748596Y-86329384D01*
X80734042Y-86320661D01*
X80720413Y-86310554D01*
X80707841Y-86299159D01*
X80696446Y-86286587D01*
X80686339Y-86272958D01*
X80677616Y-86258404D01*
X80670361Y-86243066D01*
X80664645Y-86227090D01*
X80660522Y-86210631D01*
X80658033Y-86193847D01*
X80657200Y-86176900D01*
X80657200Y-85781100D01*
X80658033Y-85764153D01*
X80660522Y-85747369D01*
X80664645Y-85730910D01*
X80670361Y-85714934D01*
X80677616Y-85699596D01*
X80686339Y-85685042D01*
X80696446Y-85671413D01*
X80707841Y-85658841D01*
X80720413Y-85647446D01*
X80734042Y-85637339D01*
X80748596Y-85628616D01*
X80763934Y-85621361D01*
X80779910Y-85615645D01*
X80796369Y-85611522D01*
X80813153Y-85609033D01*
X80830100Y-85608200D01*
X81175900Y-85608200D01*
X81192847Y-85609033D01*
X81192847Y-85609033D01*
G37*
D14*
X81003000Y-85979000D03*
D13*
G36*
X102132347Y-104580033D02*
G01*
X102149131Y-104582522D01*
X102165590Y-104586645D01*
X102181566Y-104592361D01*
X102196904Y-104599616D01*
X102211458Y-104608339D01*
X102225087Y-104618446D01*
X102237659Y-104629841D01*
X102249054Y-104642413D01*
X102259161Y-104656042D01*
X102267884Y-104670596D01*
X102275139Y-104685934D01*
X102280855Y-104701910D01*
X102284978Y-104718369D01*
X102287467Y-104735153D01*
X102288300Y-104752100D01*
X102288300Y-105097900D01*
X102287467Y-105114847D01*
X102284978Y-105131631D01*
X102280855Y-105148090D01*
X102275139Y-105164066D01*
X102267884Y-105179404D01*
X102259161Y-105193958D01*
X102249054Y-105207587D01*
X102237659Y-105220159D01*
X102225087Y-105231554D01*
X102211458Y-105241661D01*
X102196904Y-105250384D01*
X102181566Y-105257639D01*
X102165590Y-105263355D01*
X102149131Y-105267478D01*
X102132347Y-105269967D01*
X102115400Y-105270800D01*
X101719600Y-105270800D01*
X101702653Y-105269967D01*
X101685869Y-105267478D01*
X101669410Y-105263355D01*
X101653434Y-105257639D01*
X101638096Y-105250384D01*
X101623542Y-105241661D01*
X101609913Y-105231554D01*
X101597341Y-105220159D01*
X101585946Y-105207587D01*
X101575839Y-105193958D01*
X101567116Y-105179404D01*
X101559861Y-105164066D01*
X101554145Y-105148090D01*
X101550022Y-105131631D01*
X101547533Y-105114847D01*
X101546700Y-105097900D01*
X101546700Y-104752100D01*
X101547533Y-104735153D01*
X101550022Y-104718369D01*
X101554145Y-104701910D01*
X101559861Y-104685934D01*
X101567116Y-104670596D01*
X101575839Y-104656042D01*
X101585946Y-104642413D01*
X101597341Y-104629841D01*
X101609913Y-104618446D01*
X101623542Y-104608339D01*
X101638096Y-104599616D01*
X101653434Y-104592361D01*
X101669410Y-104586645D01*
X101685869Y-104582522D01*
X101702653Y-104580033D01*
X101719600Y-104579200D01*
X102115400Y-104579200D01*
X102132347Y-104580033D01*
X102132347Y-104580033D01*
G37*
D14*
X101917500Y-104925000D03*
D13*
G36*
X102132347Y-105550033D02*
G01*
X102149131Y-105552522D01*
X102165590Y-105556645D01*
X102181566Y-105562361D01*
X102196904Y-105569616D01*
X102211458Y-105578339D01*
X102225087Y-105588446D01*
X102237659Y-105599841D01*
X102249054Y-105612413D01*
X102259161Y-105626042D01*
X102267884Y-105640596D01*
X102275139Y-105655934D01*
X102280855Y-105671910D01*
X102284978Y-105688369D01*
X102287467Y-105705153D01*
X102288300Y-105722100D01*
X102288300Y-106067900D01*
X102287467Y-106084847D01*
X102284978Y-106101631D01*
X102280855Y-106118090D01*
X102275139Y-106134066D01*
X102267884Y-106149404D01*
X102259161Y-106163958D01*
X102249054Y-106177587D01*
X102237659Y-106190159D01*
X102225087Y-106201554D01*
X102211458Y-106211661D01*
X102196904Y-106220384D01*
X102181566Y-106227639D01*
X102165590Y-106233355D01*
X102149131Y-106237478D01*
X102132347Y-106239967D01*
X102115400Y-106240800D01*
X101719600Y-106240800D01*
X101702653Y-106239967D01*
X101685869Y-106237478D01*
X101669410Y-106233355D01*
X101653434Y-106227639D01*
X101638096Y-106220384D01*
X101623542Y-106211661D01*
X101609913Y-106201554D01*
X101597341Y-106190159D01*
X101585946Y-106177587D01*
X101575839Y-106163958D01*
X101567116Y-106149404D01*
X101559861Y-106134066D01*
X101554145Y-106118090D01*
X101550022Y-106101631D01*
X101547533Y-106084847D01*
X101546700Y-106067900D01*
X101546700Y-105722100D01*
X101547533Y-105705153D01*
X101550022Y-105688369D01*
X101554145Y-105671910D01*
X101559861Y-105655934D01*
X101567116Y-105640596D01*
X101575839Y-105626042D01*
X101585946Y-105612413D01*
X101597341Y-105599841D01*
X101609913Y-105588446D01*
X101623542Y-105578339D01*
X101638096Y-105569616D01*
X101653434Y-105562361D01*
X101669410Y-105556645D01*
X101685869Y-105552522D01*
X101702653Y-105550033D01*
X101719600Y-105549200D01*
X102115400Y-105549200D01*
X102132347Y-105550033D01*
X102132347Y-105550033D01*
G37*
D14*
X101917500Y-105895000D03*
D13*
G36*
X96480847Y-102929033D02*
G01*
X96497631Y-102931522D01*
X96514090Y-102935645D01*
X96530066Y-102941361D01*
X96545404Y-102948616D01*
X96559958Y-102957339D01*
X96573587Y-102967446D01*
X96586159Y-102978841D01*
X96597554Y-102991413D01*
X96607661Y-103005042D01*
X96616384Y-103019596D01*
X96623639Y-103034934D01*
X96629355Y-103050910D01*
X96633478Y-103067369D01*
X96635967Y-103084153D01*
X96636800Y-103101100D01*
X96636800Y-103446900D01*
X96635967Y-103463847D01*
X96633478Y-103480631D01*
X96629355Y-103497090D01*
X96623639Y-103513066D01*
X96616384Y-103528404D01*
X96607661Y-103542958D01*
X96597554Y-103556587D01*
X96586159Y-103569159D01*
X96573587Y-103580554D01*
X96559958Y-103590661D01*
X96545404Y-103599384D01*
X96530066Y-103606639D01*
X96514090Y-103612355D01*
X96497631Y-103616478D01*
X96480847Y-103618967D01*
X96463900Y-103619800D01*
X96068100Y-103619800D01*
X96051153Y-103618967D01*
X96034369Y-103616478D01*
X96017910Y-103612355D01*
X96001934Y-103606639D01*
X95986596Y-103599384D01*
X95972042Y-103590661D01*
X95958413Y-103580554D01*
X95945841Y-103569159D01*
X95934446Y-103556587D01*
X95924339Y-103542958D01*
X95915616Y-103528404D01*
X95908361Y-103513066D01*
X95902645Y-103497090D01*
X95898522Y-103480631D01*
X95896033Y-103463847D01*
X95895200Y-103446900D01*
X95895200Y-103101100D01*
X95896033Y-103084153D01*
X95898522Y-103067369D01*
X95902645Y-103050910D01*
X95908361Y-103034934D01*
X95915616Y-103019596D01*
X95924339Y-103005042D01*
X95934446Y-102991413D01*
X95945841Y-102978841D01*
X95958413Y-102967446D01*
X95972042Y-102957339D01*
X95986596Y-102948616D01*
X96001934Y-102941361D01*
X96017910Y-102935645D01*
X96034369Y-102931522D01*
X96051153Y-102929033D01*
X96068100Y-102928200D01*
X96463900Y-102928200D01*
X96480847Y-102929033D01*
X96480847Y-102929033D01*
G37*
D14*
X96266000Y-103274000D03*
D13*
G36*
X96480847Y-103899033D02*
G01*
X96497631Y-103901522D01*
X96514090Y-103905645D01*
X96530066Y-103911361D01*
X96545404Y-103918616D01*
X96559958Y-103927339D01*
X96573587Y-103937446D01*
X96586159Y-103948841D01*
X96597554Y-103961413D01*
X96607661Y-103975042D01*
X96616384Y-103989596D01*
X96623639Y-104004934D01*
X96629355Y-104020910D01*
X96633478Y-104037369D01*
X96635967Y-104054153D01*
X96636800Y-104071100D01*
X96636800Y-104416900D01*
X96635967Y-104433847D01*
X96633478Y-104450631D01*
X96629355Y-104467090D01*
X96623639Y-104483066D01*
X96616384Y-104498404D01*
X96607661Y-104512958D01*
X96597554Y-104526587D01*
X96586159Y-104539159D01*
X96573587Y-104550554D01*
X96559958Y-104560661D01*
X96545404Y-104569384D01*
X96530066Y-104576639D01*
X96514090Y-104582355D01*
X96497631Y-104586478D01*
X96480847Y-104588967D01*
X96463900Y-104589800D01*
X96068100Y-104589800D01*
X96051153Y-104588967D01*
X96034369Y-104586478D01*
X96017910Y-104582355D01*
X96001934Y-104576639D01*
X95986596Y-104569384D01*
X95972042Y-104560661D01*
X95958413Y-104550554D01*
X95945841Y-104539159D01*
X95934446Y-104526587D01*
X95924339Y-104512958D01*
X95915616Y-104498404D01*
X95908361Y-104483066D01*
X95902645Y-104467090D01*
X95898522Y-104450631D01*
X95896033Y-104433847D01*
X95895200Y-104416900D01*
X95895200Y-104071100D01*
X95896033Y-104054153D01*
X95898522Y-104037369D01*
X95902645Y-104020910D01*
X95908361Y-104004934D01*
X95915616Y-103989596D01*
X95924339Y-103975042D01*
X95934446Y-103961413D01*
X95945841Y-103948841D01*
X95958413Y-103937446D01*
X95972042Y-103927339D01*
X95986596Y-103918616D01*
X96001934Y-103911361D01*
X96017910Y-103905645D01*
X96034369Y-103901522D01*
X96051153Y-103899033D01*
X96068100Y-103898200D01*
X96463900Y-103898200D01*
X96480847Y-103899033D01*
X96480847Y-103899033D01*
G37*
D14*
X96266000Y-104244000D03*
D23*
X102072000Y-80962500D03*
X101572000Y-80962500D03*
X101072000Y-80962500D03*
X100572000Y-80962500D03*
X100072000Y-80962500D03*
X99572000Y-80962500D03*
X99072000Y-80962500D03*
X98572000Y-80962500D03*
X98072000Y-80962500D03*
X97572000Y-80962500D03*
D24*
X103722000Y-77062500D03*
X95922000Y-77062500D03*
D25*
X83820000Y-99280000D03*
X83820000Y-101380000D03*
D26*
X81662300Y-101288700D03*
X81662300Y-101938700D03*
X81662300Y-102588700D03*
X81662300Y-103238700D03*
X81662300Y-103888700D03*
D27*
X81687300Y-100088700D03*
X81687300Y-105088700D03*
D28*
X78987300Y-99088700D03*
X78987300Y-106088700D03*
D29*
X78987300Y-101588700D03*
X78987300Y-103588700D03*
X78987300Y-99538700D03*
X78987300Y-105638700D03*
D30*
X85686999Y-101583998D03*
X85686999Y-100584000D03*
X85686999Y-99583999D03*
X86486997Y-101583998D03*
X86487000Y-100584000D03*
X86486997Y-99583999D03*
X87286998Y-101583998D03*
X87286998Y-100584000D03*
X87286998Y-99583999D03*
D13*
G36*
X95147347Y-103899033D02*
G01*
X95164131Y-103901522D01*
X95180590Y-103905645D01*
X95196566Y-103911361D01*
X95211904Y-103918616D01*
X95226458Y-103927339D01*
X95240087Y-103937446D01*
X95252659Y-103948841D01*
X95264054Y-103961413D01*
X95274161Y-103975042D01*
X95282884Y-103989596D01*
X95290139Y-104004934D01*
X95295855Y-104020910D01*
X95299978Y-104037369D01*
X95302467Y-104054153D01*
X95303300Y-104071100D01*
X95303300Y-104416900D01*
X95302467Y-104433847D01*
X95299978Y-104450631D01*
X95295855Y-104467090D01*
X95290139Y-104483066D01*
X95282884Y-104498404D01*
X95274161Y-104512958D01*
X95264054Y-104526587D01*
X95252659Y-104539159D01*
X95240087Y-104550554D01*
X95226458Y-104560661D01*
X95211904Y-104569384D01*
X95196566Y-104576639D01*
X95180590Y-104582355D01*
X95164131Y-104586478D01*
X95147347Y-104588967D01*
X95130400Y-104589800D01*
X94734600Y-104589800D01*
X94717653Y-104588967D01*
X94700869Y-104586478D01*
X94684410Y-104582355D01*
X94668434Y-104576639D01*
X94653096Y-104569384D01*
X94638542Y-104560661D01*
X94624913Y-104550554D01*
X94612341Y-104539159D01*
X94600946Y-104526587D01*
X94590839Y-104512958D01*
X94582116Y-104498404D01*
X94574861Y-104483066D01*
X94569145Y-104467090D01*
X94565022Y-104450631D01*
X94562533Y-104433847D01*
X94561700Y-104416900D01*
X94561700Y-104071100D01*
X94562533Y-104054153D01*
X94565022Y-104037369D01*
X94569145Y-104020910D01*
X94574861Y-104004934D01*
X94582116Y-103989596D01*
X94590839Y-103975042D01*
X94600946Y-103961413D01*
X94612341Y-103948841D01*
X94624913Y-103937446D01*
X94638542Y-103927339D01*
X94653096Y-103918616D01*
X94668434Y-103911361D01*
X94684410Y-103905645D01*
X94700869Y-103901522D01*
X94717653Y-103899033D01*
X94734600Y-103898200D01*
X95130400Y-103898200D01*
X95147347Y-103899033D01*
X95147347Y-103899033D01*
G37*
D14*
X94932500Y-104244000D03*
D13*
G36*
X95147347Y-102929033D02*
G01*
X95164131Y-102931522D01*
X95180590Y-102935645D01*
X95196566Y-102941361D01*
X95211904Y-102948616D01*
X95226458Y-102957339D01*
X95240087Y-102967446D01*
X95252659Y-102978841D01*
X95264054Y-102991413D01*
X95274161Y-103005042D01*
X95282884Y-103019596D01*
X95290139Y-103034934D01*
X95295855Y-103050910D01*
X95299978Y-103067369D01*
X95302467Y-103084153D01*
X95303300Y-103101100D01*
X95303300Y-103446900D01*
X95302467Y-103463847D01*
X95299978Y-103480631D01*
X95295855Y-103497090D01*
X95290139Y-103513066D01*
X95282884Y-103528404D01*
X95274161Y-103542958D01*
X95264054Y-103556587D01*
X95252659Y-103569159D01*
X95240087Y-103580554D01*
X95226458Y-103590661D01*
X95211904Y-103599384D01*
X95196566Y-103606639D01*
X95180590Y-103612355D01*
X95164131Y-103616478D01*
X95147347Y-103618967D01*
X95130400Y-103619800D01*
X94734600Y-103619800D01*
X94717653Y-103618967D01*
X94700869Y-103616478D01*
X94684410Y-103612355D01*
X94668434Y-103606639D01*
X94653096Y-103599384D01*
X94638542Y-103590661D01*
X94624913Y-103580554D01*
X94612341Y-103569159D01*
X94600946Y-103556587D01*
X94590839Y-103542958D01*
X94582116Y-103528404D01*
X94574861Y-103513066D01*
X94569145Y-103497090D01*
X94565022Y-103480631D01*
X94562533Y-103463847D01*
X94561700Y-103446900D01*
X94561700Y-103101100D01*
X94562533Y-103084153D01*
X94565022Y-103067369D01*
X94569145Y-103050910D01*
X94574861Y-103034934D01*
X94582116Y-103019596D01*
X94590839Y-103005042D01*
X94600946Y-102991413D01*
X94612341Y-102978841D01*
X94624913Y-102967446D01*
X94638542Y-102957339D01*
X94653096Y-102948616D01*
X94668434Y-102941361D01*
X94684410Y-102935645D01*
X94700869Y-102931522D01*
X94717653Y-102929033D01*
X94734600Y-102928200D01*
X95130400Y-102928200D01*
X95147347Y-102929033D01*
X95147347Y-102929033D01*
G37*
D14*
X94932500Y-103274000D03*
D13*
G36*
X87463847Y-97231533D02*
G01*
X87480631Y-97234022D01*
X87497090Y-97238145D01*
X87513066Y-97243861D01*
X87528404Y-97251116D01*
X87542958Y-97259839D01*
X87556587Y-97269946D01*
X87569159Y-97281341D01*
X87580554Y-97293913D01*
X87590661Y-97307542D01*
X87599384Y-97322096D01*
X87606639Y-97337434D01*
X87612355Y-97353410D01*
X87616478Y-97369869D01*
X87618967Y-97386653D01*
X87619800Y-97403600D01*
X87619800Y-97749400D01*
X87618967Y-97766347D01*
X87616478Y-97783131D01*
X87612355Y-97799590D01*
X87606639Y-97815566D01*
X87599384Y-97830904D01*
X87590661Y-97845458D01*
X87580554Y-97859087D01*
X87569159Y-97871659D01*
X87556587Y-97883054D01*
X87542958Y-97893161D01*
X87528404Y-97901884D01*
X87513066Y-97909139D01*
X87497090Y-97914855D01*
X87480631Y-97918978D01*
X87463847Y-97921467D01*
X87446900Y-97922300D01*
X87051100Y-97922300D01*
X87034153Y-97921467D01*
X87017369Y-97918978D01*
X87000910Y-97914855D01*
X86984934Y-97909139D01*
X86969596Y-97901884D01*
X86955042Y-97893161D01*
X86941413Y-97883054D01*
X86928841Y-97871659D01*
X86917446Y-97859087D01*
X86907339Y-97845458D01*
X86898616Y-97830904D01*
X86891361Y-97815566D01*
X86885645Y-97799590D01*
X86881522Y-97783131D01*
X86879033Y-97766347D01*
X86878200Y-97749400D01*
X86878200Y-97403600D01*
X86879033Y-97386653D01*
X86881522Y-97369869D01*
X86885645Y-97353410D01*
X86891361Y-97337434D01*
X86898616Y-97322096D01*
X86907339Y-97307542D01*
X86917446Y-97293913D01*
X86928841Y-97281341D01*
X86941413Y-97269946D01*
X86955042Y-97259839D01*
X86969596Y-97251116D01*
X86984934Y-97243861D01*
X87000910Y-97238145D01*
X87017369Y-97234022D01*
X87034153Y-97231533D01*
X87051100Y-97230700D01*
X87446900Y-97230700D01*
X87463847Y-97231533D01*
X87463847Y-97231533D01*
G37*
D14*
X87249000Y-97576500D03*
D13*
G36*
X87463847Y-96261533D02*
G01*
X87480631Y-96264022D01*
X87497090Y-96268145D01*
X87513066Y-96273861D01*
X87528404Y-96281116D01*
X87542958Y-96289839D01*
X87556587Y-96299946D01*
X87569159Y-96311341D01*
X87580554Y-96323913D01*
X87590661Y-96337542D01*
X87599384Y-96352096D01*
X87606639Y-96367434D01*
X87612355Y-96383410D01*
X87616478Y-96399869D01*
X87618967Y-96416653D01*
X87619800Y-96433600D01*
X87619800Y-96779400D01*
X87618967Y-96796347D01*
X87616478Y-96813131D01*
X87612355Y-96829590D01*
X87606639Y-96845566D01*
X87599384Y-96860904D01*
X87590661Y-96875458D01*
X87580554Y-96889087D01*
X87569159Y-96901659D01*
X87556587Y-96913054D01*
X87542958Y-96923161D01*
X87528404Y-96931884D01*
X87513066Y-96939139D01*
X87497090Y-96944855D01*
X87480631Y-96948978D01*
X87463847Y-96951467D01*
X87446900Y-96952300D01*
X87051100Y-96952300D01*
X87034153Y-96951467D01*
X87017369Y-96948978D01*
X87000910Y-96944855D01*
X86984934Y-96939139D01*
X86969596Y-96931884D01*
X86955042Y-96923161D01*
X86941413Y-96913054D01*
X86928841Y-96901659D01*
X86917446Y-96889087D01*
X86907339Y-96875458D01*
X86898616Y-96860904D01*
X86891361Y-96845566D01*
X86885645Y-96829590D01*
X86881522Y-96813131D01*
X86879033Y-96796347D01*
X86878200Y-96779400D01*
X86878200Y-96433600D01*
X86879033Y-96416653D01*
X86881522Y-96399869D01*
X86885645Y-96383410D01*
X86891361Y-96367434D01*
X86898616Y-96352096D01*
X86907339Y-96337542D01*
X86917446Y-96323913D01*
X86928841Y-96311341D01*
X86941413Y-96299946D01*
X86955042Y-96289839D01*
X86969596Y-96281116D01*
X86984934Y-96273861D01*
X87000910Y-96268145D01*
X87017369Y-96264022D01*
X87034153Y-96261533D01*
X87051100Y-96260700D01*
X87446900Y-96260700D01*
X87463847Y-96261533D01*
X87463847Y-96261533D01*
G37*
D14*
X87249000Y-96606500D03*
D31*
X85707000Y-103848000D03*
X85707000Y-105448000D03*
X89807000Y-105448000D03*
X89807000Y-103848000D03*
D13*
G36*
X91035347Y-87006033D02*
G01*
X91052131Y-87008522D01*
X91068590Y-87012645D01*
X91084566Y-87018361D01*
X91099904Y-87025616D01*
X91114458Y-87034339D01*
X91128087Y-87044446D01*
X91140659Y-87055841D01*
X91152054Y-87068413D01*
X91162161Y-87082042D01*
X91170884Y-87096596D01*
X91178139Y-87111934D01*
X91183855Y-87127910D01*
X91187978Y-87144369D01*
X91190467Y-87161153D01*
X91191300Y-87178100D01*
X91191300Y-87573900D01*
X91190467Y-87590847D01*
X91187978Y-87607631D01*
X91183855Y-87624090D01*
X91178139Y-87640066D01*
X91170884Y-87655404D01*
X91162161Y-87669958D01*
X91152054Y-87683587D01*
X91140659Y-87696159D01*
X91128087Y-87707554D01*
X91114458Y-87717661D01*
X91099904Y-87726384D01*
X91084566Y-87733639D01*
X91068590Y-87739355D01*
X91052131Y-87743478D01*
X91035347Y-87745967D01*
X91018400Y-87746800D01*
X90672600Y-87746800D01*
X90655653Y-87745967D01*
X90638869Y-87743478D01*
X90622410Y-87739355D01*
X90606434Y-87733639D01*
X90591096Y-87726384D01*
X90576542Y-87717661D01*
X90562913Y-87707554D01*
X90550341Y-87696159D01*
X90538946Y-87683587D01*
X90528839Y-87669958D01*
X90520116Y-87655404D01*
X90512861Y-87640066D01*
X90507145Y-87624090D01*
X90503022Y-87607631D01*
X90500533Y-87590847D01*
X90499700Y-87573900D01*
X90499700Y-87178100D01*
X90500533Y-87161153D01*
X90503022Y-87144369D01*
X90507145Y-87127910D01*
X90512861Y-87111934D01*
X90520116Y-87096596D01*
X90528839Y-87082042D01*
X90538946Y-87068413D01*
X90550341Y-87055841D01*
X90562913Y-87044446D01*
X90576542Y-87034339D01*
X90591096Y-87025616D01*
X90606434Y-87018361D01*
X90622410Y-87012645D01*
X90638869Y-87008522D01*
X90655653Y-87006033D01*
X90672600Y-87005200D01*
X91018400Y-87005200D01*
X91035347Y-87006033D01*
X91035347Y-87006033D01*
G37*
D14*
X90845500Y-87376000D03*
D13*
G36*
X90065347Y-87006033D02*
G01*
X90082131Y-87008522D01*
X90098590Y-87012645D01*
X90114566Y-87018361D01*
X90129904Y-87025616D01*
X90144458Y-87034339D01*
X90158087Y-87044446D01*
X90170659Y-87055841D01*
X90182054Y-87068413D01*
X90192161Y-87082042D01*
X90200884Y-87096596D01*
X90208139Y-87111934D01*
X90213855Y-87127910D01*
X90217978Y-87144369D01*
X90220467Y-87161153D01*
X90221300Y-87178100D01*
X90221300Y-87573900D01*
X90220467Y-87590847D01*
X90217978Y-87607631D01*
X90213855Y-87624090D01*
X90208139Y-87640066D01*
X90200884Y-87655404D01*
X90192161Y-87669958D01*
X90182054Y-87683587D01*
X90170659Y-87696159D01*
X90158087Y-87707554D01*
X90144458Y-87717661D01*
X90129904Y-87726384D01*
X90114566Y-87733639D01*
X90098590Y-87739355D01*
X90082131Y-87743478D01*
X90065347Y-87745967D01*
X90048400Y-87746800D01*
X89702600Y-87746800D01*
X89685653Y-87745967D01*
X89668869Y-87743478D01*
X89652410Y-87739355D01*
X89636434Y-87733639D01*
X89621096Y-87726384D01*
X89606542Y-87717661D01*
X89592913Y-87707554D01*
X89580341Y-87696159D01*
X89568946Y-87683587D01*
X89558839Y-87669958D01*
X89550116Y-87655404D01*
X89542861Y-87640066D01*
X89537145Y-87624090D01*
X89533022Y-87607631D01*
X89530533Y-87590847D01*
X89529700Y-87573900D01*
X89529700Y-87178100D01*
X89530533Y-87161153D01*
X89533022Y-87144369D01*
X89537145Y-87127910D01*
X89542861Y-87111934D01*
X89550116Y-87096596D01*
X89558839Y-87082042D01*
X89568946Y-87068413D01*
X89580341Y-87055841D01*
X89592913Y-87044446D01*
X89606542Y-87034339D01*
X89621096Y-87025616D01*
X89636434Y-87018361D01*
X89652410Y-87012645D01*
X89668869Y-87008522D01*
X89685653Y-87006033D01*
X89702600Y-87005200D01*
X90048400Y-87005200D01*
X90065347Y-87006033D01*
X90065347Y-87006033D01*
G37*
D14*
X89875500Y-87376000D03*
D13*
G36*
X90065347Y-85799533D02*
G01*
X90082131Y-85802022D01*
X90098590Y-85806145D01*
X90114566Y-85811861D01*
X90129904Y-85819116D01*
X90144458Y-85827839D01*
X90158087Y-85837946D01*
X90170659Y-85849341D01*
X90182054Y-85861913D01*
X90192161Y-85875542D01*
X90200884Y-85890096D01*
X90208139Y-85905434D01*
X90213855Y-85921410D01*
X90217978Y-85937869D01*
X90220467Y-85954653D01*
X90221300Y-85971600D01*
X90221300Y-86367400D01*
X90220467Y-86384347D01*
X90217978Y-86401131D01*
X90213855Y-86417590D01*
X90208139Y-86433566D01*
X90200884Y-86448904D01*
X90192161Y-86463458D01*
X90182054Y-86477087D01*
X90170659Y-86489659D01*
X90158087Y-86501054D01*
X90144458Y-86511161D01*
X90129904Y-86519884D01*
X90114566Y-86527139D01*
X90098590Y-86532855D01*
X90082131Y-86536978D01*
X90065347Y-86539467D01*
X90048400Y-86540300D01*
X89702600Y-86540300D01*
X89685653Y-86539467D01*
X89668869Y-86536978D01*
X89652410Y-86532855D01*
X89636434Y-86527139D01*
X89621096Y-86519884D01*
X89606542Y-86511161D01*
X89592913Y-86501054D01*
X89580341Y-86489659D01*
X89568946Y-86477087D01*
X89558839Y-86463458D01*
X89550116Y-86448904D01*
X89542861Y-86433566D01*
X89537145Y-86417590D01*
X89533022Y-86401131D01*
X89530533Y-86384347D01*
X89529700Y-86367400D01*
X89529700Y-85971600D01*
X89530533Y-85954653D01*
X89533022Y-85937869D01*
X89537145Y-85921410D01*
X89542861Y-85905434D01*
X89550116Y-85890096D01*
X89558839Y-85875542D01*
X89568946Y-85861913D01*
X89580341Y-85849341D01*
X89592913Y-85837946D01*
X89606542Y-85827839D01*
X89621096Y-85819116D01*
X89636434Y-85811861D01*
X89652410Y-85806145D01*
X89668869Y-85802022D01*
X89685653Y-85799533D01*
X89702600Y-85798700D01*
X90048400Y-85798700D01*
X90065347Y-85799533D01*
X90065347Y-85799533D01*
G37*
D14*
X89875500Y-86169500D03*
D13*
G36*
X91035347Y-85799533D02*
G01*
X91052131Y-85802022D01*
X91068590Y-85806145D01*
X91084566Y-85811861D01*
X91099904Y-85819116D01*
X91114458Y-85827839D01*
X91128087Y-85837946D01*
X91140659Y-85849341D01*
X91152054Y-85861913D01*
X91162161Y-85875542D01*
X91170884Y-85890096D01*
X91178139Y-85905434D01*
X91183855Y-85921410D01*
X91187978Y-85937869D01*
X91190467Y-85954653D01*
X91191300Y-85971600D01*
X91191300Y-86367400D01*
X91190467Y-86384347D01*
X91187978Y-86401131D01*
X91183855Y-86417590D01*
X91178139Y-86433566D01*
X91170884Y-86448904D01*
X91162161Y-86463458D01*
X91152054Y-86477087D01*
X91140659Y-86489659D01*
X91128087Y-86501054D01*
X91114458Y-86511161D01*
X91099904Y-86519884D01*
X91084566Y-86527139D01*
X91068590Y-86532855D01*
X91052131Y-86536978D01*
X91035347Y-86539467D01*
X91018400Y-86540300D01*
X90672600Y-86540300D01*
X90655653Y-86539467D01*
X90638869Y-86536978D01*
X90622410Y-86532855D01*
X90606434Y-86527139D01*
X90591096Y-86519884D01*
X90576542Y-86511161D01*
X90562913Y-86501054D01*
X90550341Y-86489659D01*
X90538946Y-86477087D01*
X90528839Y-86463458D01*
X90520116Y-86448904D01*
X90512861Y-86433566D01*
X90507145Y-86417590D01*
X90503022Y-86401131D01*
X90500533Y-86384347D01*
X90499700Y-86367400D01*
X90499700Y-85971600D01*
X90500533Y-85954653D01*
X90503022Y-85937869D01*
X90507145Y-85921410D01*
X90512861Y-85905434D01*
X90520116Y-85890096D01*
X90528839Y-85875542D01*
X90538946Y-85861913D01*
X90550341Y-85849341D01*
X90562913Y-85837946D01*
X90576542Y-85827839D01*
X90591096Y-85819116D01*
X90606434Y-85811861D01*
X90622410Y-85806145D01*
X90638869Y-85802022D01*
X90655653Y-85799533D01*
X90672600Y-85798700D01*
X91018400Y-85798700D01*
X91035347Y-85799533D01*
X91035347Y-85799533D01*
G37*
D14*
X90845500Y-86169500D03*
D13*
G36*
X90065347Y-89673033D02*
G01*
X90082131Y-89675522D01*
X90098590Y-89679645D01*
X90114566Y-89685361D01*
X90129904Y-89692616D01*
X90144458Y-89701339D01*
X90158087Y-89711446D01*
X90170659Y-89722841D01*
X90182054Y-89735413D01*
X90192161Y-89749042D01*
X90200884Y-89763596D01*
X90208139Y-89778934D01*
X90213855Y-89794910D01*
X90217978Y-89811369D01*
X90220467Y-89828153D01*
X90221300Y-89845100D01*
X90221300Y-90240900D01*
X90220467Y-90257847D01*
X90217978Y-90274631D01*
X90213855Y-90291090D01*
X90208139Y-90307066D01*
X90200884Y-90322404D01*
X90192161Y-90336958D01*
X90182054Y-90350587D01*
X90170659Y-90363159D01*
X90158087Y-90374554D01*
X90144458Y-90384661D01*
X90129904Y-90393384D01*
X90114566Y-90400639D01*
X90098590Y-90406355D01*
X90082131Y-90410478D01*
X90065347Y-90412967D01*
X90048400Y-90413800D01*
X89702600Y-90413800D01*
X89685653Y-90412967D01*
X89668869Y-90410478D01*
X89652410Y-90406355D01*
X89636434Y-90400639D01*
X89621096Y-90393384D01*
X89606542Y-90384661D01*
X89592913Y-90374554D01*
X89580341Y-90363159D01*
X89568946Y-90350587D01*
X89558839Y-90336958D01*
X89550116Y-90322404D01*
X89542861Y-90307066D01*
X89537145Y-90291090D01*
X89533022Y-90274631D01*
X89530533Y-90257847D01*
X89529700Y-90240900D01*
X89529700Y-89845100D01*
X89530533Y-89828153D01*
X89533022Y-89811369D01*
X89537145Y-89794910D01*
X89542861Y-89778934D01*
X89550116Y-89763596D01*
X89558839Y-89749042D01*
X89568946Y-89735413D01*
X89580341Y-89722841D01*
X89592913Y-89711446D01*
X89606542Y-89701339D01*
X89621096Y-89692616D01*
X89636434Y-89685361D01*
X89652410Y-89679645D01*
X89668869Y-89675522D01*
X89685653Y-89673033D01*
X89702600Y-89672200D01*
X90048400Y-89672200D01*
X90065347Y-89673033D01*
X90065347Y-89673033D01*
G37*
D14*
X89875500Y-90043000D03*
D13*
G36*
X91035347Y-89673033D02*
G01*
X91052131Y-89675522D01*
X91068590Y-89679645D01*
X91084566Y-89685361D01*
X91099904Y-89692616D01*
X91114458Y-89701339D01*
X91128087Y-89711446D01*
X91140659Y-89722841D01*
X91152054Y-89735413D01*
X91162161Y-89749042D01*
X91170884Y-89763596D01*
X91178139Y-89778934D01*
X91183855Y-89794910D01*
X91187978Y-89811369D01*
X91190467Y-89828153D01*
X91191300Y-89845100D01*
X91191300Y-90240900D01*
X91190467Y-90257847D01*
X91187978Y-90274631D01*
X91183855Y-90291090D01*
X91178139Y-90307066D01*
X91170884Y-90322404D01*
X91162161Y-90336958D01*
X91152054Y-90350587D01*
X91140659Y-90363159D01*
X91128087Y-90374554D01*
X91114458Y-90384661D01*
X91099904Y-90393384D01*
X91084566Y-90400639D01*
X91068590Y-90406355D01*
X91052131Y-90410478D01*
X91035347Y-90412967D01*
X91018400Y-90413800D01*
X90672600Y-90413800D01*
X90655653Y-90412967D01*
X90638869Y-90410478D01*
X90622410Y-90406355D01*
X90606434Y-90400639D01*
X90591096Y-90393384D01*
X90576542Y-90384661D01*
X90562913Y-90374554D01*
X90550341Y-90363159D01*
X90538946Y-90350587D01*
X90528839Y-90336958D01*
X90520116Y-90322404D01*
X90512861Y-90307066D01*
X90507145Y-90291090D01*
X90503022Y-90274631D01*
X90500533Y-90257847D01*
X90499700Y-90240900D01*
X90499700Y-89845100D01*
X90500533Y-89828153D01*
X90503022Y-89811369D01*
X90507145Y-89794910D01*
X90512861Y-89778934D01*
X90520116Y-89763596D01*
X90528839Y-89749042D01*
X90538946Y-89735413D01*
X90550341Y-89722841D01*
X90562913Y-89711446D01*
X90576542Y-89701339D01*
X90591096Y-89692616D01*
X90606434Y-89685361D01*
X90622410Y-89679645D01*
X90638869Y-89675522D01*
X90655653Y-89673033D01*
X90672600Y-89672200D01*
X91018400Y-89672200D01*
X91035347Y-89673033D01*
X91035347Y-89673033D01*
G37*
D14*
X90845500Y-90043000D03*
D13*
G36*
X91035347Y-83767533D02*
G01*
X91052131Y-83770022D01*
X91068590Y-83774145D01*
X91084566Y-83779861D01*
X91099904Y-83787116D01*
X91114458Y-83795839D01*
X91128087Y-83805946D01*
X91140659Y-83817341D01*
X91152054Y-83829913D01*
X91162161Y-83843542D01*
X91170884Y-83858096D01*
X91178139Y-83873434D01*
X91183855Y-83889410D01*
X91187978Y-83905869D01*
X91190467Y-83922653D01*
X91191300Y-83939600D01*
X91191300Y-84335400D01*
X91190467Y-84352347D01*
X91187978Y-84369131D01*
X91183855Y-84385590D01*
X91178139Y-84401566D01*
X91170884Y-84416904D01*
X91162161Y-84431458D01*
X91152054Y-84445087D01*
X91140659Y-84457659D01*
X91128087Y-84469054D01*
X91114458Y-84479161D01*
X91099904Y-84487884D01*
X91084566Y-84495139D01*
X91068590Y-84500855D01*
X91052131Y-84504978D01*
X91035347Y-84507467D01*
X91018400Y-84508300D01*
X90672600Y-84508300D01*
X90655653Y-84507467D01*
X90638869Y-84504978D01*
X90622410Y-84500855D01*
X90606434Y-84495139D01*
X90591096Y-84487884D01*
X90576542Y-84479161D01*
X90562913Y-84469054D01*
X90550341Y-84457659D01*
X90538946Y-84445087D01*
X90528839Y-84431458D01*
X90520116Y-84416904D01*
X90512861Y-84401566D01*
X90507145Y-84385590D01*
X90503022Y-84369131D01*
X90500533Y-84352347D01*
X90499700Y-84335400D01*
X90499700Y-83939600D01*
X90500533Y-83922653D01*
X90503022Y-83905869D01*
X90507145Y-83889410D01*
X90512861Y-83873434D01*
X90520116Y-83858096D01*
X90528839Y-83843542D01*
X90538946Y-83829913D01*
X90550341Y-83817341D01*
X90562913Y-83805946D01*
X90576542Y-83795839D01*
X90591096Y-83787116D01*
X90606434Y-83779861D01*
X90622410Y-83774145D01*
X90638869Y-83770022D01*
X90655653Y-83767533D01*
X90672600Y-83766700D01*
X91018400Y-83766700D01*
X91035347Y-83767533D01*
X91035347Y-83767533D01*
G37*
D14*
X90845500Y-84137500D03*
D13*
G36*
X90065347Y-83767533D02*
G01*
X90082131Y-83770022D01*
X90098590Y-83774145D01*
X90114566Y-83779861D01*
X90129904Y-83787116D01*
X90144458Y-83795839D01*
X90158087Y-83805946D01*
X90170659Y-83817341D01*
X90182054Y-83829913D01*
X90192161Y-83843542D01*
X90200884Y-83858096D01*
X90208139Y-83873434D01*
X90213855Y-83889410D01*
X90217978Y-83905869D01*
X90220467Y-83922653D01*
X90221300Y-83939600D01*
X90221300Y-84335400D01*
X90220467Y-84352347D01*
X90217978Y-84369131D01*
X90213855Y-84385590D01*
X90208139Y-84401566D01*
X90200884Y-84416904D01*
X90192161Y-84431458D01*
X90182054Y-84445087D01*
X90170659Y-84457659D01*
X90158087Y-84469054D01*
X90144458Y-84479161D01*
X90129904Y-84487884D01*
X90114566Y-84495139D01*
X90098590Y-84500855D01*
X90082131Y-84504978D01*
X90065347Y-84507467D01*
X90048400Y-84508300D01*
X89702600Y-84508300D01*
X89685653Y-84507467D01*
X89668869Y-84504978D01*
X89652410Y-84500855D01*
X89636434Y-84495139D01*
X89621096Y-84487884D01*
X89606542Y-84479161D01*
X89592913Y-84469054D01*
X89580341Y-84457659D01*
X89568946Y-84445087D01*
X89558839Y-84431458D01*
X89550116Y-84416904D01*
X89542861Y-84401566D01*
X89537145Y-84385590D01*
X89533022Y-84369131D01*
X89530533Y-84352347D01*
X89529700Y-84335400D01*
X89529700Y-83939600D01*
X89530533Y-83922653D01*
X89533022Y-83905869D01*
X89537145Y-83889410D01*
X89542861Y-83873434D01*
X89550116Y-83858096D01*
X89558839Y-83843542D01*
X89568946Y-83829913D01*
X89580341Y-83817341D01*
X89592913Y-83805946D01*
X89606542Y-83795839D01*
X89621096Y-83787116D01*
X89636434Y-83779861D01*
X89652410Y-83774145D01*
X89668869Y-83770022D01*
X89685653Y-83767533D01*
X89702600Y-83766700D01*
X90048400Y-83766700D01*
X90065347Y-83767533D01*
X90065347Y-83767533D01*
G37*
D14*
X89875500Y-84137500D03*
D13*
G36*
X90128847Y-79322533D02*
G01*
X90145631Y-79325022D01*
X90162090Y-79329145D01*
X90178066Y-79334861D01*
X90193404Y-79342116D01*
X90207958Y-79350839D01*
X90221587Y-79360946D01*
X90234159Y-79372341D01*
X90245554Y-79384913D01*
X90255661Y-79398542D01*
X90264384Y-79413096D01*
X90271639Y-79428434D01*
X90277355Y-79444410D01*
X90281478Y-79460869D01*
X90283967Y-79477653D01*
X90284800Y-79494600D01*
X90284800Y-79890400D01*
X90283967Y-79907347D01*
X90281478Y-79924131D01*
X90277355Y-79940590D01*
X90271639Y-79956566D01*
X90264384Y-79971904D01*
X90255661Y-79986458D01*
X90245554Y-80000087D01*
X90234159Y-80012659D01*
X90221587Y-80024054D01*
X90207958Y-80034161D01*
X90193404Y-80042884D01*
X90178066Y-80050139D01*
X90162090Y-80055855D01*
X90145631Y-80059978D01*
X90128847Y-80062467D01*
X90111900Y-80063300D01*
X89766100Y-80063300D01*
X89749153Y-80062467D01*
X89732369Y-80059978D01*
X89715910Y-80055855D01*
X89699934Y-80050139D01*
X89684596Y-80042884D01*
X89670042Y-80034161D01*
X89656413Y-80024054D01*
X89643841Y-80012659D01*
X89632446Y-80000087D01*
X89622339Y-79986458D01*
X89613616Y-79971904D01*
X89606361Y-79956566D01*
X89600645Y-79940590D01*
X89596522Y-79924131D01*
X89594033Y-79907347D01*
X89593200Y-79890400D01*
X89593200Y-79494600D01*
X89594033Y-79477653D01*
X89596522Y-79460869D01*
X89600645Y-79444410D01*
X89606361Y-79428434D01*
X89613616Y-79413096D01*
X89622339Y-79398542D01*
X89632446Y-79384913D01*
X89643841Y-79372341D01*
X89656413Y-79360946D01*
X89670042Y-79350839D01*
X89684596Y-79342116D01*
X89699934Y-79334861D01*
X89715910Y-79329145D01*
X89732369Y-79325022D01*
X89749153Y-79322533D01*
X89766100Y-79321700D01*
X90111900Y-79321700D01*
X90128847Y-79322533D01*
X90128847Y-79322533D01*
G37*
D14*
X89939000Y-79692500D03*
D13*
G36*
X91098847Y-79322533D02*
G01*
X91115631Y-79325022D01*
X91132090Y-79329145D01*
X91148066Y-79334861D01*
X91163404Y-79342116D01*
X91177958Y-79350839D01*
X91191587Y-79360946D01*
X91204159Y-79372341D01*
X91215554Y-79384913D01*
X91225661Y-79398542D01*
X91234384Y-79413096D01*
X91241639Y-79428434D01*
X91247355Y-79444410D01*
X91251478Y-79460869D01*
X91253967Y-79477653D01*
X91254800Y-79494600D01*
X91254800Y-79890400D01*
X91253967Y-79907347D01*
X91251478Y-79924131D01*
X91247355Y-79940590D01*
X91241639Y-79956566D01*
X91234384Y-79971904D01*
X91225661Y-79986458D01*
X91215554Y-80000087D01*
X91204159Y-80012659D01*
X91191587Y-80024054D01*
X91177958Y-80034161D01*
X91163404Y-80042884D01*
X91148066Y-80050139D01*
X91132090Y-80055855D01*
X91115631Y-80059978D01*
X91098847Y-80062467D01*
X91081900Y-80063300D01*
X90736100Y-80063300D01*
X90719153Y-80062467D01*
X90702369Y-80059978D01*
X90685910Y-80055855D01*
X90669934Y-80050139D01*
X90654596Y-80042884D01*
X90640042Y-80034161D01*
X90626413Y-80024054D01*
X90613841Y-80012659D01*
X90602446Y-80000087D01*
X90592339Y-79986458D01*
X90583616Y-79971904D01*
X90576361Y-79956566D01*
X90570645Y-79940590D01*
X90566522Y-79924131D01*
X90564033Y-79907347D01*
X90563200Y-79890400D01*
X90563200Y-79494600D01*
X90564033Y-79477653D01*
X90566522Y-79460869D01*
X90570645Y-79444410D01*
X90576361Y-79428434D01*
X90583616Y-79413096D01*
X90592339Y-79398542D01*
X90602446Y-79384913D01*
X90613841Y-79372341D01*
X90626413Y-79360946D01*
X90640042Y-79350839D01*
X90654596Y-79342116D01*
X90669934Y-79334861D01*
X90685910Y-79329145D01*
X90702369Y-79325022D01*
X90719153Y-79322533D01*
X90736100Y-79321700D01*
X91081900Y-79321700D01*
X91098847Y-79322533D01*
X91098847Y-79322533D01*
G37*
D14*
X90909000Y-79692500D03*
D13*
G36*
X81192847Y-86688533D02*
G01*
X81209631Y-86691022D01*
X81226090Y-86695145D01*
X81242066Y-86700861D01*
X81257404Y-86708116D01*
X81271958Y-86716839D01*
X81285587Y-86726946D01*
X81298159Y-86738341D01*
X81309554Y-86750913D01*
X81319661Y-86764542D01*
X81328384Y-86779096D01*
X81335639Y-86794434D01*
X81341355Y-86810410D01*
X81345478Y-86826869D01*
X81347967Y-86843653D01*
X81348800Y-86860600D01*
X81348800Y-87256400D01*
X81347967Y-87273347D01*
X81345478Y-87290131D01*
X81341355Y-87306590D01*
X81335639Y-87322566D01*
X81328384Y-87337904D01*
X81319661Y-87352458D01*
X81309554Y-87366087D01*
X81298159Y-87378659D01*
X81285587Y-87390054D01*
X81271958Y-87400161D01*
X81257404Y-87408884D01*
X81242066Y-87416139D01*
X81226090Y-87421855D01*
X81209631Y-87425978D01*
X81192847Y-87428467D01*
X81175900Y-87429300D01*
X80830100Y-87429300D01*
X80813153Y-87428467D01*
X80796369Y-87425978D01*
X80779910Y-87421855D01*
X80763934Y-87416139D01*
X80748596Y-87408884D01*
X80734042Y-87400161D01*
X80720413Y-87390054D01*
X80707841Y-87378659D01*
X80696446Y-87366087D01*
X80686339Y-87352458D01*
X80677616Y-87337904D01*
X80670361Y-87322566D01*
X80664645Y-87306590D01*
X80660522Y-87290131D01*
X80658033Y-87273347D01*
X80657200Y-87256400D01*
X80657200Y-86860600D01*
X80658033Y-86843653D01*
X80660522Y-86826869D01*
X80664645Y-86810410D01*
X80670361Y-86794434D01*
X80677616Y-86779096D01*
X80686339Y-86764542D01*
X80696446Y-86750913D01*
X80707841Y-86738341D01*
X80720413Y-86726946D01*
X80734042Y-86716839D01*
X80748596Y-86708116D01*
X80763934Y-86700861D01*
X80779910Y-86695145D01*
X80796369Y-86691022D01*
X80813153Y-86688533D01*
X80830100Y-86687700D01*
X81175900Y-86687700D01*
X81192847Y-86688533D01*
X81192847Y-86688533D01*
G37*
D14*
X81003000Y-87058500D03*
D13*
G36*
X80222847Y-86688533D02*
G01*
X80239631Y-86691022D01*
X80256090Y-86695145D01*
X80272066Y-86700861D01*
X80287404Y-86708116D01*
X80301958Y-86716839D01*
X80315587Y-86726946D01*
X80328159Y-86738341D01*
X80339554Y-86750913D01*
X80349661Y-86764542D01*
X80358384Y-86779096D01*
X80365639Y-86794434D01*
X80371355Y-86810410D01*
X80375478Y-86826869D01*
X80377967Y-86843653D01*
X80378800Y-86860600D01*
X80378800Y-87256400D01*
X80377967Y-87273347D01*
X80375478Y-87290131D01*
X80371355Y-87306590D01*
X80365639Y-87322566D01*
X80358384Y-87337904D01*
X80349661Y-87352458D01*
X80339554Y-87366087D01*
X80328159Y-87378659D01*
X80315587Y-87390054D01*
X80301958Y-87400161D01*
X80287404Y-87408884D01*
X80272066Y-87416139D01*
X80256090Y-87421855D01*
X80239631Y-87425978D01*
X80222847Y-87428467D01*
X80205900Y-87429300D01*
X79860100Y-87429300D01*
X79843153Y-87428467D01*
X79826369Y-87425978D01*
X79809910Y-87421855D01*
X79793934Y-87416139D01*
X79778596Y-87408884D01*
X79764042Y-87400161D01*
X79750413Y-87390054D01*
X79737841Y-87378659D01*
X79726446Y-87366087D01*
X79716339Y-87352458D01*
X79707616Y-87337904D01*
X79700361Y-87322566D01*
X79694645Y-87306590D01*
X79690522Y-87290131D01*
X79688033Y-87273347D01*
X79687200Y-87256400D01*
X79687200Y-86860600D01*
X79688033Y-86843653D01*
X79690522Y-86826869D01*
X79694645Y-86810410D01*
X79700361Y-86794434D01*
X79707616Y-86779096D01*
X79716339Y-86764542D01*
X79726446Y-86750913D01*
X79737841Y-86738341D01*
X79750413Y-86726946D01*
X79764042Y-86716839D01*
X79778596Y-86708116D01*
X79793934Y-86700861D01*
X79809910Y-86695145D01*
X79826369Y-86691022D01*
X79843153Y-86688533D01*
X79860100Y-86687700D01*
X80205900Y-86687700D01*
X80222847Y-86688533D01*
X80222847Y-86688533D01*
G37*
D14*
X80033000Y-87058500D03*
D13*
G36*
X80222847Y-90308033D02*
G01*
X80239631Y-90310522D01*
X80256090Y-90314645D01*
X80272066Y-90320361D01*
X80287404Y-90327616D01*
X80301958Y-90336339D01*
X80315587Y-90346446D01*
X80328159Y-90357841D01*
X80339554Y-90370413D01*
X80349661Y-90384042D01*
X80358384Y-90398596D01*
X80365639Y-90413934D01*
X80371355Y-90429910D01*
X80375478Y-90446369D01*
X80377967Y-90463153D01*
X80378800Y-90480100D01*
X80378800Y-90875900D01*
X80377967Y-90892847D01*
X80375478Y-90909631D01*
X80371355Y-90926090D01*
X80365639Y-90942066D01*
X80358384Y-90957404D01*
X80349661Y-90971958D01*
X80339554Y-90985587D01*
X80328159Y-90998159D01*
X80315587Y-91009554D01*
X80301958Y-91019661D01*
X80287404Y-91028384D01*
X80272066Y-91035639D01*
X80256090Y-91041355D01*
X80239631Y-91045478D01*
X80222847Y-91047967D01*
X80205900Y-91048800D01*
X79860100Y-91048800D01*
X79843153Y-91047967D01*
X79826369Y-91045478D01*
X79809910Y-91041355D01*
X79793934Y-91035639D01*
X79778596Y-91028384D01*
X79764042Y-91019661D01*
X79750413Y-91009554D01*
X79737841Y-90998159D01*
X79726446Y-90985587D01*
X79716339Y-90971958D01*
X79707616Y-90957404D01*
X79700361Y-90942066D01*
X79694645Y-90926090D01*
X79690522Y-90909631D01*
X79688033Y-90892847D01*
X79687200Y-90875900D01*
X79687200Y-90480100D01*
X79688033Y-90463153D01*
X79690522Y-90446369D01*
X79694645Y-90429910D01*
X79700361Y-90413934D01*
X79707616Y-90398596D01*
X79716339Y-90384042D01*
X79726446Y-90370413D01*
X79737841Y-90357841D01*
X79750413Y-90346446D01*
X79764042Y-90336339D01*
X79778596Y-90327616D01*
X79793934Y-90320361D01*
X79809910Y-90314645D01*
X79826369Y-90310522D01*
X79843153Y-90308033D01*
X79860100Y-90307200D01*
X80205900Y-90307200D01*
X80222847Y-90308033D01*
X80222847Y-90308033D01*
G37*
D14*
X80033000Y-90678000D03*
D13*
G36*
X81192847Y-90308033D02*
G01*
X81209631Y-90310522D01*
X81226090Y-90314645D01*
X81242066Y-90320361D01*
X81257404Y-90327616D01*
X81271958Y-90336339D01*
X81285587Y-90346446D01*
X81298159Y-90357841D01*
X81309554Y-90370413D01*
X81319661Y-90384042D01*
X81328384Y-90398596D01*
X81335639Y-90413934D01*
X81341355Y-90429910D01*
X81345478Y-90446369D01*
X81347967Y-90463153D01*
X81348800Y-90480100D01*
X81348800Y-90875900D01*
X81347967Y-90892847D01*
X81345478Y-90909631D01*
X81341355Y-90926090D01*
X81335639Y-90942066D01*
X81328384Y-90957404D01*
X81319661Y-90971958D01*
X81309554Y-90985587D01*
X81298159Y-90998159D01*
X81285587Y-91009554D01*
X81271958Y-91019661D01*
X81257404Y-91028384D01*
X81242066Y-91035639D01*
X81226090Y-91041355D01*
X81209631Y-91045478D01*
X81192847Y-91047967D01*
X81175900Y-91048800D01*
X80830100Y-91048800D01*
X80813153Y-91047967D01*
X80796369Y-91045478D01*
X80779910Y-91041355D01*
X80763934Y-91035639D01*
X80748596Y-91028384D01*
X80734042Y-91019661D01*
X80720413Y-91009554D01*
X80707841Y-90998159D01*
X80696446Y-90985587D01*
X80686339Y-90971958D01*
X80677616Y-90957404D01*
X80670361Y-90942066D01*
X80664645Y-90926090D01*
X80660522Y-90909631D01*
X80658033Y-90892847D01*
X80657200Y-90875900D01*
X80657200Y-90480100D01*
X80658033Y-90463153D01*
X80660522Y-90446369D01*
X80664645Y-90429910D01*
X80670361Y-90413934D01*
X80677616Y-90398596D01*
X80686339Y-90384042D01*
X80696446Y-90370413D01*
X80707841Y-90357841D01*
X80720413Y-90346446D01*
X80734042Y-90336339D01*
X80748596Y-90327616D01*
X80763934Y-90320361D01*
X80779910Y-90314645D01*
X80796369Y-90310522D01*
X80813153Y-90308033D01*
X80830100Y-90307200D01*
X81175900Y-90307200D01*
X81192847Y-90308033D01*
X81192847Y-90308033D01*
G37*
D14*
X81003000Y-90678000D03*
D13*
G36*
X81192847Y-91514533D02*
G01*
X81209631Y-91517022D01*
X81226090Y-91521145D01*
X81242066Y-91526861D01*
X81257404Y-91534116D01*
X81271958Y-91542839D01*
X81285587Y-91552946D01*
X81298159Y-91564341D01*
X81309554Y-91576913D01*
X81319661Y-91590542D01*
X81328384Y-91605096D01*
X81335639Y-91620434D01*
X81341355Y-91636410D01*
X81345478Y-91652869D01*
X81347967Y-91669653D01*
X81348800Y-91686600D01*
X81348800Y-92082400D01*
X81347967Y-92099347D01*
X81345478Y-92116131D01*
X81341355Y-92132590D01*
X81335639Y-92148566D01*
X81328384Y-92163904D01*
X81319661Y-92178458D01*
X81309554Y-92192087D01*
X81298159Y-92204659D01*
X81285587Y-92216054D01*
X81271958Y-92226161D01*
X81257404Y-92234884D01*
X81242066Y-92242139D01*
X81226090Y-92247855D01*
X81209631Y-92251978D01*
X81192847Y-92254467D01*
X81175900Y-92255300D01*
X80830100Y-92255300D01*
X80813153Y-92254467D01*
X80796369Y-92251978D01*
X80779910Y-92247855D01*
X80763934Y-92242139D01*
X80748596Y-92234884D01*
X80734042Y-92226161D01*
X80720413Y-92216054D01*
X80707841Y-92204659D01*
X80696446Y-92192087D01*
X80686339Y-92178458D01*
X80677616Y-92163904D01*
X80670361Y-92148566D01*
X80664645Y-92132590D01*
X80660522Y-92116131D01*
X80658033Y-92099347D01*
X80657200Y-92082400D01*
X80657200Y-91686600D01*
X80658033Y-91669653D01*
X80660522Y-91652869D01*
X80664645Y-91636410D01*
X80670361Y-91620434D01*
X80677616Y-91605096D01*
X80686339Y-91590542D01*
X80696446Y-91576913D01*
X80707841Y-91564341D01*
X80720413Y-91552946D01*
X80734042Y-91542839D01*
X80748596Y-91534116D01*
X80763934Y-91526861D01*
X80779910Y-91521145D01*
X80796369Y-91517022D01*
X80813153Y-91514533D01*
X80830100Y-91513700D01*
X81175900Y-91513700D01*
X81192847Y-91514533D01*
X81192847Y-91514533D01*
G37*
D14*
X81003000Y-91884500D03*
D13*
G36*
X80222847Y-91514533D02*
G01*
X80239631Y-91517022D01*
X80256090Y-91521145D01*
X80272066Y-91526861D01*
X80287404Y-91534116D01*
X80301958Y-91542839D01*
X80315587Y-91552946D01*
X80328159Y-91564341D01*
X80339554Y-91576913D01*
X80349661Y-91590542D01*
X80358384Y-91605096D01*
X80365639Y-91620434D01*
X80371355Y-91636410D01*
X80375478Y-91652869D01*
X80377967Y-91669653D01*
X80378800Y-91686600D01*
X80378800Y-92082400D01*
X80377967Y-92099347D01*
X80375478Y-92116131D01*
X80371355Y-92132590D01*
X80365639Y-92148566D01*
X80358384Y-92163904D01*
X80349661Y-92178458D01*
X80339554Y-92192087D01*
X80328159Y-92204659D01*
X80315587Y-92216054D01*
X80301958Y-92226161D01*
X80287404Y-92234884D01*
X80272066Y-92242139D01*
X80256090Y-92247855D01*
X80239631Y-92251978D01*
X80222847Y-92254467D01*
X80205900Y-92255300D01*
X79860100Y-92255300D01*
X79843153Y-92254467D01*
X79826369Y-92251978D01*
X79809910Y-92247855D01*
X79793934Y-92242139D01*
X79778596Y-92234884D01*
X79764042Y-92226161D01*
X79750413Y-92216054D01*
X79737841Y-92204659D01*
X79726446Y-92192087D01*
X79716339Y-92178458D01*
X79707616Y-92163904D01*
X79700361Y-92148566D01*
X79694645Y-92132590D01*
X79690522Y-92116131D01*
X79688033Y-92099347D01*
X79687200Y-92082400D01*
X79687200Y-91686600D01*
X79688033Y-91669653D01*
X79690522Y-91652869D01*
X79694645Y-91636410D01*
X79700361Y-91620434D01*
X79707616Y-91605096D01*
X79716339Y-91590542D01*
X79726446Y-91576913D01*
X79737841Y-91564341D01*
X79750413Y-91552946D01*
X79764042Y-91542839D01*
X79778596Y-91534116D01*
X79793934Y-91526861D01*
X79809910Y-91521145D01*
X79826369Y-91517022D01*
X79843153Y-91514533D01*
X79860100Y-91513700D01*
X80205900Y-91513700D01*
X80222847Y-91514533D01*
X80222847Y-91514533D01*
G37*
D14*
X80033000Y-91884500D03*
M02*
