%TF.GenerationSoftware,KiCad,Pcbnew,(5.1.4)-1*%
%TF.CreationDate,2019-10-25T20:43:54-07:00*%
%TF.ProjectId,mainboard,6d61696e-626f-4617-9264-2e6b69636164,rev?*%
%TF.SameCoordinates,Original*%
%TF.FileFunction,Profile,NP*%
%FSLAX46Y46*%
G04 Gerber Fmt 4.6, Leading zero omitted, Abs format (unit mm)*
G04 Created by KiCad (PCBNEW (5.1.4)-1) date 2019-10-25 20:43:54*
%MOMM*%
%LPD*%
G04 APERTURE LIST*
%ADD10C,0.150000*%
G04 APERTURE END LIST*
D10*
X76625100Y-98791400D02*
X76625100Y-92202000D01*
X77463300Y-78486000D02*
X76625100Y-77978000D01*
X77463300Y-91694000D02*
X76625100Y-92202000D01*
X77463300Y-78486000D02*
X77463300Y-91694000D01*
X81725100Y-75141600D02*
X81725100Y-73541600D01*
X81725100Y-107941600D02*
X81725100Y-109541600D01*
X121800300Y-107941600D02*
X116700300Y-107941600D01*
X76625100Y-75141600D02*
X81725100Y-75141600D01*
X116700300Y-107941600D02*
X116700300Y-109541600D01*
X116700300Y-73541600D02*
X116700300Y-75141600D01*
X121800300Y-75141600D02*
X116700300Y-75141600D01*
X76625100Y-107941600D02*
X76625100Y-106335200D01*
X81725100Y-107941600D02*
X76625100Y-107941600D01*
X77463300Y-99299400D02*
X76625100Y-98791400D01*
X121800300Y-107941600D02*
X121800300Y-75141600D01*
X77463300Y-105827200D02*
X76625100Y-106335200D01*
X77463300Y-99299400D02*
X77463300Y-105827200D01*
X81725100Y-109541600D02*
X116700300Y-109541600D01*
X116700300Y-73541600D02*
X81725100Y-73541600D01*
X76625100Y-75141600D02*
X76625100Y-77978000D01*
M02*
