%TF.GenerationSoftware,KiCad,Pcbnew,(5.1.4)-1*%
%TF.CreationDate,2019-10-25T20:43:54-07:00*%
%TF.ProjectId,mainboard,6d61696e-626f-4617-9264-2e6b69636164,rev?*%
%TF.SameCoordinates,Original*%
%TF.FileFunction,Paste,Top*%
%TF.FilePolarity,Positive*%
%FSLAX46Y46*%
G04 Gerber Fmt 4.6, Leading zero omitted, Abs format (unit mm)*
G04 Created by KiCad (PCBNEW (5.1.4)-1) date 2019-10-25 20:43:54*
%MOMM*%
%LPD*%
G04 APERTURE LIST*
%ADD10C,0.150000*%
%ADD11R,2.400000X0.740000*%
%ADD12C,0.100000*%
%ADD13C,0.590000*%
%ADD14R,1.050000X1.050000*%
%ADD15R,1.050000X2.250000*%
%ADD16R,0.850000X0.300000*%
%ADD17R,0.300000X0.850000*%
%ADD18R,5.250000X5.250000*%
%ADD19R,1.800000X1.000000*%
%ADD20R,0.250000X0.675000*%
%ADD21R,0.675000X0.250000*%
%ADD22R,0.250000X1.100000*%
%ADD23R,1.700000X1.500000*%
%ADD24R,0.450000X0.600000*%
%ADD25R,1.350000X0.450000*%
%ADD26R,1.550000X1.500000*%
%ADD27C,0.339999*%
%ADD28R,0.900000X0.900000*%
G04 APERTURE END LIST*
D10*
X76625100Y-98791400D02*
X76625100Y-92202000D01*
X77463300Y-78486000D02*
X76625100Y-77978000D01*
X77463300Y-91694000D02*
X76625100Y-92202000D01*
X77463300Y-78486000D02*
X77463300Y-91694000D01*
X81725100Y-75141600D02*
X81725100Y-73541600D01*
X81725100Y-107941600D02*
X81725100Y-109541600D01*
X121800300Y-107941600D02*
X116700300Y-107941600D01*
X76625100Y-75141600D02*
X81725100Y-75141600D01*
X116700300Y-107941600D02*
X116700300Y-109541600D01*
X116700300Y-73541600D02*
X116700300Y-75141600D01*
X121800300Y-75141600D02*
X116700300Y-75141600D01*
X76625100Y-107941600D02*
X76625100Y-106335200D01*
X81725100Y-107941600D02*
X76625100Y-107941600D01*
X77463300Y-99299400D02*
X76625100Y-98791400D01*
X121800300Y-107941600D02*
X121800300Y-75141600D01*
X77463300Y-105827200D02*
X76625100Y-106335200D01*
X77463300Y-99299400D02*
X77463300Y-105827200D01*
X81725100Y-109541600D02*
X116700300Y-109541600D01*
X116700300Y-73541600D02*
X81725100Y-73541600D01*
X76625100Y-75141600D02*
X76625100Y-77978000D01*
D11*
X84817500Y-96710500D03*
X80917500Y-96710500D03*
X84817500Y-95440500D03*
X80917500Y-95440500D03*
X84817500Y-94170500D03*
X80917500Y-94170500D03*
D12*
G36*
X85973458Y-85850210D02*
G01*
X85987776Y-85852334D01*
X86001817Y-85855851D01*
X86015446Y-85860728D01*
X86028531Y-85866917D01*
X86040947Y-85874358D01*
X86052573Y-85882981D01*
X86063298Y-85892702D01*
X86073019Y-85903427D01*
X86081642Y-85915053D01*
X86089083Y-85927469D01*
X86095272Y-85940554D01*
X86100149Y-85954183D01*
X86103666Y-85968224D01*
X86105790Y-85982542D01*
X86106500Y-85997000D01*
X86106500Y-86342000D01*
X86105790Y-86356458D01*
X86103666Y-86370776D01*
X86100149Y-86384817D01*
X86095272Y-86398446D01*
X86089083Y-86411531D01*
X86081642Y-86423947D01*
X86073019Y-86435573D01*
X86063298Y-86446298D01*
X86052573Y-86456019D01*
X86040947Y-86464642D01*
X86028531Y-86472083D01*
X86015446Y-86478272D01*
X86001817Y-86483149D01*
X85987776Y-86486666D01*
X85973458Y-86488790D01*
X85959000Y-86489500D01*
X85664000Y-86489500D01*
X85649542Y-86488790D01*
X85635224Y-86486666D01*
X85621183Y-86483149D01*
X85607554Y-86478272D01*
X85594469Y-86472083D01*
X85582053Y-86464642D01*
X85570427Y-86456019D01*
X85559702Y-86446298D01*
X85549981Y-86435573D01*
X85541358Y-86423947D01*
X85533917Y-86411531D01*
X85527728Y-86398446D01*
X85522851Y-86384817D01*
X85519334Y-86370776D01*
X85517210Y-86356458D01*
X85516500Y-86342000D01*
X85516500Y-85997000D01*
X85517210Y-85982542D01*
X85519334Y-85968224D01*
X85522851Y-85954183D01*
X85527728Y-85940554D01*
X85533917Y-85927469D01*
X85541358Y-85915053D01*
X85549981Y-85903427D01*
X85559702Y-85892702D01*
X85570427Y-85882981D01*
X85582053Y-85874358D01*
X85594469Y-85866917D01*
X85607554Y-85860728D01*
X85621183Y-85855851D01*
X85635224Y-85852334D01*
X85649542Y-85850210D01*
X85664000Y-85849500D01*
X85959000Y-85849500D01*
X85973458Y-85850210D01*
X85973458Y-85850210D01*
G37*
D13*
X85811500Y-86169500D03*
D12*
G36*
X86943458Y-85850210D02*
G01*
X86957776Y-85852334D01*
X86971817Y-85855851D01*
X86985446Y-85860728D01*
X86998531Y-85866917D01*
X87010947Y-85874358D01*
X87022573Y-85882981D01*
X87033298Y-85892702D01*
X87043019Y-85903427D01*
X87051642Y-85915053D01*
X87059083Y-85927469D01*
X87065272Y-85940554D01*
X87070149Y-85954183D01*
X87073666Y-85968224D01*
X87075790Y-85982542D01*
X87076500Y-85997000D01*
X87076500Y-86342000D01*
X87075790Y-86356458D01*
X87073666Y-86370776D01*
X87070149Y-86384817D01*
X87065272Y-86398446D01*
X87059083Y-86411531D01*
X87051642Y-86423947D01*
X87043019Y-86435573D01*
X87033298Y-86446298D01*
X87022573Y-86456019D01*
X87010947Y-86464642D01*
X86998531Y-86472083D01*
X86985446Y-86478272D01*
X86971817Y-86483149D01*
X86957776Y-86486666D01*
X86943458Y-86488790D01*
X86929000Y-86489500D01*
X86634000Y-86489500D01*
X86619542Y-86488790D01*
X86605224Y-86486666D01*
X86591183Y-86483149D01*
X86577554Y-86478272D01*
X86564469Y-86472083D01*
X86552053Y-86464642D01*
X86540427Y-86456019D01*
X86529702Y-86446298D01*
X86519981Y-86435573D01*
X86511358Y-86423947D01*
X86503917Y-86411531D01*
X86497728Y-86398446D01*
X86492851Y-86384817D01*
X86489334Y-86370776D01*
X86487210Y-86356458D01*
X86486500Y-86342000D01*
X86486500Y-85997000D01*
X86487210Y-85982542D01*
X86489334Y-85968224D01*
X86492851Y-85954183D01*
X86497728Y-85940554D01*
X86503917Y-85927469D01*
X86511358Y-85915053D01*
X86519981Y-85903427D01*
X86529702Y-85892702D01*
X86540427Y-85882981D01*
X86552053Y-85874358D01*
X86564469Y-85866917D01*
X86577554Y-85860728D01*
X86591183Y-85855851D01*
X86605224Y-85852334D01*
X86619542Y-85850210D01*
X86634000Y-85849500D01*
X86929000Y-85849500D01*
X86943458Y-85850210D01*
X86943458Y-85850210D01*
G37*
D13*
X86781500Y-86169500D03*
D12*
G36*
X85973458Y-79373210D02*
G01*
X85987776Y-79375334D01*
X86001817Y-79378851D01*
X86015446Y-79383728D01*
X86028531Y-79389917D01*
X86040947Y-79397358D01*
X86052573Y-79405981D01*
X86063298Y-79415702D01*
X86073019Y-79426427D01*
X86081642Y-79438053D01*
X86089083Y-79450469D01*
X86095272Y-79463554D01*
X86100149Y-79477183D01*
X86103666Y-79491224D01*
X86105790Y-79505542D01*
X86106500Y-79520000D01*
X86106500Y-79865000D01*
X86105790Y-79879458D01*
X86103666Y-79893776D01*
X86100149Y-79907817D01*
X86095272Y-79921446D01*
X86089083Y-79934531D01*
X86081642Y-79946947D01*
X86073019Y-79958573D01*
X86063298Y-79969298D01*
X86052573Y-79979019D01*
X86040947Y-79987642D01*
X86028531Y-79995083D01*
X86015446Y-80001272D01*
X86001817Y-80006149D01*
X85987776Y-80009666D01*
X85973458Y-80011790D01*
X85959000Y-80012500D01*
X85664000Y-80012500D01*
X85649542Y-80011790D01*
X85635224Y-80009666D01*
X85621183Y-80006149D01*
X85607554Y-80001272D01*
X85594469Y-79995083D01*
X85582053Y-79987642D01*
X85570427Y-79979019D01*
X85559702Y-79969298D01*
X85549981Y-79958573D01*
X85541358Y-79946947D01*
X85533917Y-79934531D01*
X85527728Y-79921446D01*
X85522851Y-79907817D01*
X85519334Y-79893776D01*
X85517210Y-79879458D01*
X85516500Y-79865000D01*
X85516500Y-79520000D01*
X85517210Y-79505542D01*
X85519334Y-79491224D01*
X85522851Y-79477183D01*
X85527728Y-79463554D01*
X85533917Y-79450469D01*
X85541358Y-79438053D01*
X85549981Y-79426427D01*
X85559702Y-79415702D01*
X85570427Y-79405981D01*
X85582053Y-79397358D01*
X85594469Y-79389917D01*
X85607554Y-79383728D01*
X85621183Y-79378851D01*
X85635224Y-79375334D01*
X85649542Y-79373210D01*
X85664000Y-79372500D01*
X85959000Y-79372500D01*
X85973458Y-79373210D01*
X85973458Y-79373210D01*
G37*
D13*
X85811500Y-79692500D03*
D12*
G36*
X86943458Y-79373210D02*
G01*
X86957776Y-79375334D01*
X86971817Y-79378851D01*
X86985446Y-79383728D01*
X86998531Y-79389917D01*
X87010947Y-79397358D01*
X87022573Y-79405981D01*
X87033298Y-79415702D01*
X87043019Y-79426427D01*
X87051642Y-79438053D01*
X87059083Y-79450469D01*
X87065272Y-79463554D01*
X87070149Y-79477183D01*
X87073666Y-79491224D01*
X87075790Y-79505542D01*
X87076500Y-79520000D01*
X87076500Y-79865000D01*
X87075790Y-79879458D01*
X87073666Y-79893776D01*
X87070149Y-79907817D01*
X87065272Y-79921446D01*
X87059083Y-79934531D01*
X87051642Y-79946947D01*
X87043019Y-79958573D01*
X87033298Y-79969298D01*
X87022573Y-79979019D01*
X87010947Y-79987642D01*
X86998531Y-79995083D01*
X86985446Y-80001272D01*
X86971817Y-80006149D01*
X86957776Y-80009666D01*
X86943458Y-80011790D01*
X86929000Y-80012500D01*
X86634000Y-80012500D01*
X86619542Y-80011790D01*
X86605224Y-80009666D01*
X86591183Y-80006149D01*
X86577554Y-80001272D01*
X86564469Y-79995083D01*
X86552053Y-79987642D01*
X86540427Y-79979019D01*
X86529702Y-79969298D01*
X86519981Y-79958573D01*
X86511358Y-79946947D01*
X86503917Y-79934531D01*
X86497728Y-79921446D01*
X86492851Y-79907817D01*
X86489334Y-79893776D01*
X86487210Y-79879458D01*
X86486500Y-79865000D01*
X86486500Y-79520000D01*
X86487210Y-79505542D01*
X86489334Y-79491224D01*
X86492851Y-79477183D01*
X86497728Y-79463554D01*
X86503917Y-79450469D01*
X86511358Y-79438053D01*
X86519981Y-79426427D01*
X86529702Y-79415702D01*
X86540427Y-79405981D01*
X86552053Y-79397358D01*
X86564469Y-79389917D01*
X86577554Y-79383728D01*
X86591183Y-79378851D01*
X86605224Y-79375334D01*
X86619542Y-79373210D01*
X86634000Y-79372500D01*
X86929000Y-79372500D01*
X86943458Y-79373210D01*
X86943458Y-79373210D01*
G37*
D13*
X86781500Y-79692500D03*
D12*
G36*
X82990958Y-88438210D02*
G01*
X83005276Y-88440334D01*
X83019317Y-88443851D01*
X83032946Y-88448728D01*
X83046031Y-88454917D01*
X83058447Y-88462358D01*
X83070073Y-88470981D01*
X83080798Y-88480702D01*
X83090519Y-88491427D01*
X83099142Y-88503053D01*
X83106583Y-88515469D01*
X83112772Y-88528554D01*
X83117649Y-88542183D01*
X83121166Y-88556224D01*
X83123290Y-88570542D01*
X83124000Y-88585000D01*
X83124000Y-88880000D01*
X83123290Y-88894458D01*
X83121166Y-88908776D01*
X83117649Y-88922817D01*
X83112772Y-88936446D01*
X83106583Y-88949531D01*
X83099142Y-88961947D01*
X83090519Y-88973573D01*
X83080798Y-88984298D01*
X83070073Y-88994019D01*
X83058447Y-89002642D01*
X83046031Y-89010083D01*
X83032946Y-89016272D01*
X83019317Y-89021149D01*
X83005276Y-89024666D01*
X82990958Y-89026790D01*
X82976500Y-89027500D01*
X82631500Y-89027500D01*
X82617042Y-89026790D01*
X82602724Y-89024666D01*
X82588683Y-89021149D01*
X82575054Y-89016272D01*
X82561969Y-89010083D01*
X82549553Y-89002642D01*
X82537927Y-88994019D01*
X82527202Y-88984298D01*
X82517481Y-88973573D01*
X82508858Y-88961947D01*
X82501417Y-88949531D01*
X82495228Y-88936446D01*
X82490351Y-88922817D01*
X82486834Y-88908776D01*
X82484710Y-88894458D01*
X82484000Y-88880000D01*
X82484000Y-88585000D01*
X82484710Y-88570542D01*
X82486834Y-88556224D01*
X82490351Y-88542183D01*
X82495228Y-88528554D01*
X82501417Y-88515469D01*
X82508858Y-88503053D01*
X82517481Y-88491427D01*
X82527202Y-88480702D01*
X82537927Y-88470981D01*
X82549553Y-88462358D01*
X82561969Y-88454917D01*
X82575054Y-88448728D01*
X82588683Y-88443851D01*
X82602724Y-88440334D01*
X82617042Y-88438210D01*
X82631500Y-88437500D01*
X82976500Y-88437500D01*
X82990958Y-88438210D01*
X82990958Y-88438210D01*
G37*
D13*
X82804000Y-88732500D03*
D12*
G36*
X82990958Y-89408210D02*
G01*
X83005276Y-89410334D01*
X83019317Y-89413851D01*
X83032946Y-89418728D01*
X83046031Y-89424917D01*
X83058447Y-89432358D01*
X83070073Y-89440981D01*
X83080798Y-89450702D01*
X83090519Y-89461427D01*
X83099142Y-89473053D01*
X83106583Y-89485469D01*
X83112772Y-89498554D01*
X83117649Y-89512183D01*
X83121166Y-89526224D01*
X83123290Y-89540542D01*
X83124000Y-89555000D01*
X83124000Y-89850000D01*
X83123290Y-89864458D01*
X83121166Y-89878776D01*
X83117649Y-89892817D01*
X83112772Y-89906446D01*
X83106583Y-89919531D01*
X83099142Y-89931947D01*
X83090519Y-89943573D01*
X83080798Y-89954298D01*
X83070073Y-89964019D01*
X83058447Y-89972642D01*
X83046031Y-89980083D01*
X83032946Y-89986272D01*
X83019317Y-89991149D01*
X83005276Y-89994666D01*
X82990958Y-89996790D01*
X82976500Y-89997500D01*
X82631500Y-89997500D01*
X82617042Y-89996790D01*
X82602724Y-89994666D01*
X82588683Y-89991149D01*
X82575054Y-89986272D01*
X82561969Y-89980083D01*
X82549553Y-89972642D01*
X82537927Y-89964019D01*
X82527202Y-89954298D01*
X82517481Y-89943573D01*
X82508858Y-89931947D01*
X82501417Y-89919531D01*
X82495228Y-89906446D01*
X82490351Y-89892817D01*
X82486834Y-89878776D01*
X82484710Y-89864458D01*
X82484000Y-89850000D01*
X82484000Y-89555000D01*
X82484710Y-89540542D01*
X82486834Y-89526224D01*
X82490351Y-89512183D01*
X82495228Y-89498554D01*
X82501417Y-89485469D01*
X82508858Y-89473053D01*
X82517481Y-89461427D01*
X82527202Y-89450702D01*
X82537927Y-89440981D01*
X82549553Y-89432358D01*
X82561969Y-89424917D01*
X82575054Y-89418728D01*
X82588683Y-89413851D01*
X82602724Y-89410334D01*
X82617042Y-89408210D01*
X82631500Y-89407500D01*
X82976500Y-89407500D01*
X82990958Y-89408210D01*
X82990958Y-89408210D01*
G37*
D13*
X82804000Y-89702500D03*
D12*
G36*
X82990958Y-82278710D02*
G01*
X83005276Y-82280834D01*
X83019317Y-82284351D01*
X83032946Y-82289228D01*
X83046031Y-82295417D01*
X83058447Y-82302858D01*
X83070073Y-82311481D01*
X83080798Y-82321202D01*
X83090519Y-82331927D01*
X83099142Y-82343553D01*
X83106583Y-82355969D01*
X83112772Y-82369054D01*
X83117649Y-82382683D01*
X83121166Y-82396724D01*
X83123290Y-82411042D01*
X83124000Y-82425500D01*
X83124000Y-82720500D01*
X83123290Y-82734958D01*
X83121166Y-82749276D01*
X83117649Y-82763317D01*
X83112772Y-82776946D01*
X83106583Y-82790031D01*
X83099142Y-82802447D01*
X83090519Y-82814073D01*
X83080798Y-82824798D01*
X83070073Y-82834519D01*
X83058447Y-82843142D01*
X83046031Y-82850583D01*
X83032946Y-82856772D01*
X83019317Y-82861649D01*
X83005276Y-82865166D01*
X82990958Y-82867290D01*
X82976500Y-82868000D01*
X82631500Y-82868000D01*
X82617042Y-82867290D01*
X82602724Y-82865166D01*
X82588683Y-82861649D01*
X82575054Y-82856772D01*
X82561969Y-82850583D01*
X82549553Y-82843142D01*
X82537927Y-82834519D01*
X82527202Y-82824798D01*
X82517481Y-82814073D01*
X82508858Y-82802447D01*
X82501417Y-82790031D01*
X82495228Y-82776946D01*
X82490351Y-82763317D01*
X82486834Y-82749276D01*
X82484710Y-82734958D01*
X82484000Y-82720500D01*
X82484000Y-82425500D01*
X82484710Y-82411042D01*
X82486834Y-82396724D01*
X82490351Y-82382683D01*
X82495228Y-82369054D01*
X82501417Y-82355969D01*
X82508858Y-82343553D01*
X82517481Y-82331927D01*
X82527202Y-82321202D01*
X82537927Y-82311481D01*
X82549553Y-82302858D01*
X82561969Y-82295417D01*
X82575054Y-82289228D01*
X82588683Y-82284351D01*
X82602724Y-82280834D01*
X82617042Y-82278710D01*
X82631500Y-82278000D01*
X82976500Y-82278000D01*
X82990958Y-82278710D01*
X82990958Y-82278710D01*
G37*
D13*
X82804000Y-82573000D03*
D12*
G36*
X82990958Y-83248710D02*
G01*
X83005276Y-83250834D01*
X83019317Y-83254351D01*
X83032946Y-83259228D01*
X83046031Y-83265417D01*
X83058447Y-83272858D01*
X83070073Y-83281481D01*
X83080798Y-83291202D01*
X83090519Y-83301927D01*
X83099142Y-83313553D01*
X83106583Y-83325969D01*
X83112772Y-83339054D01*
X83117649Y-83352683D01*
X83121166Y-83366724D01*
X83123290Y-83381042D01*
X83124000Y-83395500D01*
X83124000Y-83690500D01*
X83123290Y-83704958D01*
X83121166Y-83719276D01*
X83117649Y-83733317D01*
X83112772Y-83746946D01*
X83106583Y-83760031D01*
X83099142Y-83772447D01*
X83090519Y-83784073D01*
X83080798Y-83794798D01*
X83070073Y-83804519D01*
X83058447Y-83813142D01*
X83046031Y-83820583D01*
X83032946Y-83826772D01*
X83019317Y-83831649D01*
X83005276Y-83835166D01*
X82990958Y-83837290D01*
X82976500Y-83838000D01*
X82631500Y-83838000D01*
X82617042Y-83837290D01*
X82602724Y-83835166D01*
X82588683Y-83831649D01*
X82575054Y-83826772D01*
X82561969Y-83820583D01*
X82549553Y-83813142D01*
X82537927Y-83804519D01*
X82527202Y-83794798D01*
X82517481Y-83784073D01*
X82508858Y-83772447D01*
X82501417Y-83760031D01*
X82495228Y-83746946D01*
X82490351Y-83733317D01*
X82486834Y-83719276D01*
X82484710Y-83704958D01*
X82484000Y-83690500D01*
X82484000Y-83395500D01*
X82484710Y-83381042D01*
X82486834Y-83366724D01*
X82490351Y-83352683D01*
X82495228Y-83339054D01*
X82501417Y-83325969D01*
X82508858Y-83313553D01*
X82517481Y-83301927D01*
X82527202Y-83291202D01*
X82537927Y-83281481D01*
X82549553Y-83272858D01*
X82561969Y-83265417D01*
X82575054Y-83259228D01*
X82588683Y-83254351D01*
X82602724Y-83250834D01*
X82617042Y-83248710D01*
X82631500Y-83248000D01*
X82976500Y-83248000D01*
X82990958Y-83248710D01*
X82990958Y-83248710D01*
G37*
D13*
X82804000Y-83543000D03*
D12*
G36*
X82990958Y-80310210D02*
G01*
X83005276Y-80312334D01*
X83019317Y-80315851D01*
X83032946Y-80320728D01*
X83046031Y-80326917D01*
X83058447Y-80334358D01*
X83070073Y-80342981D01*
X83080798Y-80352702D01*
X83090519Y-80363427D01*
X83099142Y-80375053D01*
X83106583Y-80387469D01*
X83112772Y-80400554D01*
X83117649Y-80414183D01*
X83121166Y-80428224D01*
X83123290Y-80442542D01*
X83124000Y-80457000D01*
X83124000Y-80752000D01*
X83123290Y-80766458D01*
X83121166Y-80780776D01*
X83117649Y-80794817D01*
X83112772Y-80808446D01*
X83106583Y-80821531D01*
X83099142Y-80833947D01*
X83090519Y-80845573D01*
X83080798Y-80856298D01*
X83070073Y-80866019D01*
X83058447Y-80874642D01*
X83046031Y-80882083D01*
X83032946Y-80888272D01*
X83019317Y-80893149D01*
X83005276Y-80896666D01*
X82990958Y-80898790D01*
X82976500Y-80899500D01*
X82631500Y-80899500D01*
X82617042Y-80898790D01*
X82602724Y-80896666D01*
X82588683Y-80893149D01*
X82575054Y-80888272D01*
X82561969Y-80882083D01*
X82549553Y-80874642D01*
X82537927Y-80866019D01*
X82527202Y-80856298D01*
X82517481Y-80845573D01*
X82508858Y-80833947D01*
X82501417Y-80821531D01*
X82495228Y-80808446D01*
X82490351Y-80794817D01*
X82486834Y-80780776D01*
X82484710Y-80766458D01*
X82484000Y-80752000D01*
X82484000Y-80457000D01*
X82484710Y-80442542D01*
X82486834Y-80428224D01*
X82490351Y-80414183D01*
X82495228Y-80400554D01*
X82501417Y-80387469D01*
X82508858Y-80375053D01*
X82517481Y-80363427D01*
X82527202Y-80352702D01*
X82537927Y-80342981D01*
X82549553Y-80334358D01*
X82561969Y-80326917D01*
X82575054Y-80320728D01*
X82588683Y-80315851D01*
X82602724Y-80312334D01*
X82617042Y-80310210D01*
X82631500Y-80309500D01*
X82976500Y-80309500D01*
X82990958Y-80310210D01*
X82990958Y-80310210D01*
G37*
D13*
X82804000Y-80604500D03*
D12*
G36*
X82990958Y-81280210D02*
G01*
X83005276Y-81282334D01*
X83019317Y-81285851D01*
X83032946Y-81290728D01*
X83046031Y-81296917D01*
X83058447Y-81304358D01*
X83070073Y-81312981D01*
X83080798Y-81322702D01*
X83090519Y-81333427D01*
X83099142Y-81345053D01*
X83106583Y-81357469D01*
X83112772Y-81370554D01*
X83117649Y-81384183D01*
X83121166Y-81398224D01*
X83123290Y-81412542D01*
X83124000Y-81427000D01*
X83124000Y-81722000D01*
X83123290Y-81736458D01*
X83121166Y-81750776D01*
X83117649Y-81764817D01*
X83112772Y-81778446D01*
X83106583Y-81791531D01*
X83099142Y-81803947D01*
X83090519Y-81815573D01*
X83080798Y-81826298D01*
X83070073Y-81836019D01*
X83058447Y-81844642D01*
X83046031Y-81852083D01*
X83032946Y-81858272D01*
X83019317Y-81863149D01*
X83005276Y-81866666D01*
X82990958Y-81868790D01*
X82976500Y-81869500D01*
X82631500Y-81869500D01*
X82617042Y-81868790D01*
X82602724Y-81866666D01*
X82588683Y-81863149D01*
X82575054Y-81858272D01*
X82561969Y-81852083D01*
X82549553Y-81844642D01*
X82537927Y-81836019D01*
X82527202Y-81826298D01*
X82517481Y-81815573D01*
X82508858Y-81803947D01*
X82501417Y-81791531D01*
X82495228Y-81778446D01*
X82490351Y-81764817D01*
X82486834Y-81750776D01*
X82484710Y-81736458D01*
X82484000Y-81722000D01*
X82484000Y-81427000D01*
X82484710Y-81412542D01*
X82486834Y-81398224D01*
X82490351Y-81384183D01*
X82495228Y-81370554D01*
X82501417Y-81357469D01*
X82508858Y-81345053D01*
X82517481Y-81333427D01*
X82527202Y-81322702D01*
X82537927Y-81312981D01*
X82549553Y-81304358D01*
X82561969Y-81296917D01*
X82575054Y-81290728D01*
X82588683Y-81285851D01*
X82602724Y-81282334D01*
X82617042Y-81280210D01*
X82631500Y-81279500D01*
X82976500Y-81279500D01*
X82990958Y-81280210D01*
X82990958Y-81280210D01*
G37*
D13*
X82804000Y-81574500D03*
D12*
G36*
X100135958Y-86406210D02*
G01*
X100150276Y-86408334D01*
X100164317Y-86411851D01*
X100177946Y-86416728D01*
X100191031Y-86422917D01*
X100203447Y-86430358D01*
X100215073Y-86438981D01*
X100225798Y-86448702D01*
X100235519Y-86459427D01*
X100244142Y-86471053D01*
X100251583Y-86483469D01*
X100257772Y-86496554D01*
X100262649Y-86510183D01*
X100266166Y-86524224D01*
X100268290Y-86538542D01*
X100269000Y-86553000D01*
X100269000Y-86848000D01*
X100268290Y-86862458D01*
X100266166Y-86876776D01*
X100262649Y-86890817D01*
X100257772Y-86904446D01*
X100251583Y-86917531D01*
X100244142Y-86929947D01*
X100235519Y-86941573D01*
X100225798Y-86952298D01*
X100215073Y-86962019D01*
X100203447Y-86970642D01*
X100191031Y-86978083D01*
X100177946Y-86984272D01*
X100164317Y-86989149D01*
X100150276Y-86992666D01*
X100135958Y-86994790D01*
X100121500Y-86995500D01*
X99776500Y-86995500D01*
X99762042Y-86994790D01*
X99747724Y-86992666D01*
X99733683Y-86989149D01*
X99720054Y-86984272D01*
X99706969Y-86978083D01*
X99694553Y-86970642D01*
X99682927Y-86962019D01*
X99672202Y-86952298D01*
X99662481Y-86941573D01*
X99653858Y-86929947D01*
X99646417Y-86917531D01*
X99640228Y-86904446D01*
X99635351Y-86890817D01*
X99631834Y-86876776D01*
X99629710Y-86862458D01*
X99629000Y-86848000D01*
X99629000Y-86553000D01*
X99629710Y-86538542D01*
X99631834Y-86524224D01*
X99635351Y-86510183D01*
X99640228Y-86496554D01*
X99646417Y-86483469D01*
X99653858Y-86471053D01*
X99662481Y-86459427D01*
X99672202Y-86448702D01*
X99682927Y-86438981D01*
X99694553Y-86430358D01*
X99706969Y-86422917D01*
X99720054Y-86416728D01*
X99733683Y-86411851D01*
X99747724Y-86408334D01*
X99762042Y-86406210D01*
X99776500Y-86405500D01*
X100121500Y-86405500D01*
X100135958Y-86406210D01*
X100135958Y-86406210D01*
G37*
D13*
X99949000Y-86700500D03*
D12*
G36*
X100135958Y-87376210D02*
G01*
X100150276Y-87378334D01*
X100164317Y-87381851D01*
X100177946Y-87386728D01*
X100191031Y-87392917D01*
X100203447Y-87400358D01*
X100215073Y-87408981D01*
X100225798Y-87418702D01*
X100235519Y-87429427D01*
X100244142Y-87441053D01*
X100251583Y-87453469D01*
X100257772Y-87466554D01*
X100262649Y-87480183D01*
X100266166Y-87494224D01*
X100268290Y-87508542D01*
X100269000Y-87523000D01*
X100269000Y-87818000D01*
X100268290Y-87832458D01*
X100266166Y-87846776D01*
X100262649Y-87860817D01*
X100257772Y-87874446D01*
X100251583Y-87887531D01*
X100244142Y-87899947D01*
X100235519Y-87911573D01*
X100225798Y-87922298D01*
X100215073Y-87932019D01*
X100203447Y-87940642D01*
X100191031Y-87948083D01*
X100177946Y-87954272D01*
X100164317Y-87959149D01*
X100150276Y-87962666D01*
X100135958Y-87964790D01*
X100121500Y-87965500D01*
X99776500Y-87965500D01*
X99762042Y-87964790D01*
X99747724Y-87962666D01*
X99733683Y-87959149D01*
X99720054Y-87954272D01*
X99706969Y-87948083D01*
X99694553Y-87940642D01*
X99682927Y-87932019D01*
X99672202Y-87922298D01*
X99662481Y-87911573D01*
X99653858Y-87899947D01*
X99646417Y-87887531D01*
X99640228Y-87874446D01*
X99635351Y-87860817D01*
X99631834Y-87846776D01*
X99629710Y-87832458D01*
X99629000Y-87818000D01*
X99629000Y-87523000D01*
X99629710Y-87508542D01*
X99631834Y-87494224D01*
X99635351Y-87480183D01*
X99640228Y-87466554D01*
X99646417Y-87453469D01*
X99653858Y-87441053D01*
X99662481Y-87429427D01*
X99672202Y-87418702D01*
X99682927Y-87408981D01*
X99694553Y-87400358D01*
X99706969Y-87392917D01*
X99720054Y-87386728D01*
X99733683Y-87381851D01*
X99747724Y-87378334D01*
X99762042Y-87376210D01*
X99776500Y-87375500D01*
X100121500Y-87375500D01*
X100135958Y-87376210D01*
X100135958Y-87376210D01*
G37*
D13*
X99949000Y-87670500D03*
D12*
G36*
X100135958Y-84056710D02*
G01*
X100150276Y-84058834D01*
X100164317Y-84062351D01*
X100177946Y-84067228D01*
X100191031Y-84073417D01*
X100203447Y-84080858D01*
X100215073Y-84089481D01*
X100225798Y-84099202D01*
X100235519Y-84109927D01*
X100244142Y-84121553D01*
X100251583Y-84133969D01*
X100257772Y-84147054D01*
X100262649Y-84160683D01*
X100266166Y-84174724D01*
X100268290Y-84189042D01*
X100269000Y-84203500D01*
X100269000Y-84498500D01*
X100268290Y-84512958D01*
X100266166Y-84527276D01*
X100262649Y-84541317D01*
X100257772Y-84554946D01*
X100251583Y-84568031D01*
X100244142Y-84580447D01*
X100235519Y-84592073D01*
X100225798Y-84602798D01*
X100215073Y-84612519D01*
X100203447Y-84621142D01*
X100191031Y-84628583D01*
X100177946Y-84634772D01*
X100164317Y-84639649D01*
X100150276Y-84643166D01*
X100135958Y-84645290D01*
X100121500Y-84646000D01*
X99776500Y-84646000D01*
X99762042Y-84645290D01*
X99747724Y-84643166D01*
X99733683Y-84639649D01*
X99720054Y-84634772D01*
X99706969Y-84628583D01*
X99694553Y-84621142D01*
X99682927Y-84612519D01*
X99672202Y-84602798D01*
X99662481Y-84592073D01*
X99653858Y-84580447D01*
X99646417Y-84568031D01*
X99640228Y-84554946D01*
X99635351Y-84541317D01*
X99631834Y-84527276D01*
X99629710Y-84512958D01*
X99629000Y-84498500D01*
X99629000Y-84203500D01*
X99629710Y-84189042D01*
X99631834Y-84174724D01*
X99635351Y-84160683D01*
X99640228Y-84147054D01*
X99646417Y-84133969D01*
X99653858Y-84121553D01*
X99662481Y-84109927D01*
X99672202Y-84099202D01*
X99682927Y-84089481D01*
X99694553Y-84080858D01*
X99706969Y-84073417D01*
X99720054Y-84067228D01*
X99733683Y-84062351D01*
X99747724Y-84058834D01*
X99762042Y-84056710D01*
X99776500Y-84056000D01*
X100121500Y-84056000D01*
X100135958Y-84056710D01*
X100135958Y-84056710D01*
G37*
D13*
X99949000Y-84351000D03*
D12*
G36*
X100135958Y-85026710D02*
G01*
X100150276Y-85028834D01*
X100164317Y-85032351D01*
X100177946Y-85037228D01*
X100191031Y-85043417D01*
X100203447Y-85050858D01*
X100215073Y-85059481D01*
X100225798Y-85069202D01*
X100235519Y-85079927D01*
X100244142Y-85091553D01*
X100251583Y-85103969D01*
X100257772Y-85117054D01*
X100262649Y-85130683D01*
X100266166Y-85144724D01*
X100268290Y-85159042D01*
X100269000Y-85173500D01*
X100269000Y-85468500D01*
X100268290Y-85482958D01*
X100266166Y-85497276D01*
X100262649Y-85511317D01*
X100257772Y-85524946D01*
X100251583Y-85538031D01*
X100244142Y-85550447D01*
X100235519Y-85562073D01*
X100225798Y-85572798D01*
X100215073Y-85582519D01*
X100203447Y-85591142D01*
X100191031Y-85598583D01*
X100177946Y-85604772D01*
X100164317Y-85609649D01*
X100150276Y-85613166D01*
X100135958Y-85615290D01*
X100121500Y-85616000D01*
X99776500Y-85616000D01*
X99762042Y-85615290D01*
X99747724Y-85613166D01*
X99733683Y-85609649D01*
X99720054Y-85604772D01*
X99706969Y-85598583D01*
X99694553Y-85591142D01*
X99682927Y-85582519D01*
X99672202Y-85572798D01*
X99662481Y-85562073D01*
X99653858Y-85550447D01*
X99646417Y-85538031D01*
X99640228Y-85524946D01*
X99635351Y-85511317D01*
X99631834Y-85497276D01*
X99629710Y-85482958D01*
X99629000Y-85468500D01*
X99629000Y-85173500D01*
X99629710Y-85159042D01*
X99631834Y-85144724D01*
X99635351Y-85130683D01*
X99640228Y-85117054D01*
X99646417Y-85103969D01*
X99653858Y-85091553D01*
X99662481Y-85079927D01*
X99672202Y-85069202D01*
X99682927Y-85059481D01*
X99694553Y-85050858D01*
X99706969Y-85043417D01*
X99720054Y-85037228D01*
X99733683Y-85032351D01*
X99747724Y-85028834D01*
X99762042Y-85026710D01*
X99776500Y-85026000D01*
X100121500Y-85026000D01*
X100135958Y-85026710D01*
X100135958Y-85026710D01*
G37*
D13*
X99949000Y-85321000D03*
D14*
X103886000Y-90679000D03*
D15*
X105361000Y-89154000D03*
X102411000Y-89154000D03*
D12*
G36*
X93658958Y-103949710D02*
G01*
X93673276Y-103951834D01*
X93687317Y-103955351D01*
X93700946Y-103960228D01*
X93714031Y-103966417D01*
X93726447Y-103973858D01*
X93738073Y-103982481D01*
X93748798Y-103992202D01*
X93758519Y-104002927D01*
X93767142Y-104014553D01*
X93774583Y-104026969D01*
X93780772Y-104040054D01*
X93785649Y-104053683D01*
X93789166Y-104067724D01*
X93791290Y-104082042D01*
X93792000Y-104096500D01*
X93792000Y-104391500D01*
X93791290Y-104405958D01*
X93789166Y-104420276D01*
X93785649Y-104434317D01*
X93780772Y-104447946D01*
X93774583Y-104461031D01*
X93767142Y-104473447D01*
X93758519Y-104485073D01*
X93748798Y-104495798D01*
X93738073Y-104505519D01*
X93726447Y-104514142D01*
X93714031Y-104521583D01*
X93700946Y-104527772D01*
X93687317Y-104532649D01*
X93673276Y-104536166D01*
X93658958Y-104538290D01*
X93644500Y-104539000D01*
X93299500Y-104539000D01*
X93285042Y-104538290D01*
X93270724Y-104536166D01*
X93256683Y-104532649D01*
X93243054Y-104527772D01*
X93229969Y-104521583D01*
X93217553Y-104514142D01*
X93205927Y-104505519D01*
X93195202Y-104495798D01*
X93185481Y-104485073D01*
X93176858Y-104473447D01*
X93169417Y-104461031D01*
X93163228Y-104447946D01*
X93158351Y-104434317D01*
X93154834Y-104420276D01*
X93152710Y-104405958D01*
X93152000Y-104391500D01*
X93152000Y-104096500D01*
X93152710Y-104082042D01*
X93154834Y-104067724D01*
X93158351Y-104053683D01*
X93163228Y-104040054D01*
X93169417Y-104026969D01*
X93176858Y-104014553D01*
X93185481Y-104002927D01*
X93195202Y-103992202D01*
X93205927Y-103982481D01*
X93217553Y-103973858D01*
X93229969Y-103966417D01*
X93243054Y-103960228D01*
X93256683Y-103955351D01*
X93270724Y-103951834D01*
X93285042Y-103949710D01*
X93299500Y-103949000D01*
X93644500Y-103949000D01*
X93658958Y-103949710D01*
X93658958Y-103949710D01*
G37*
D13*
X93472000Y-104244000D03*
D12*
G36*
X93658958Y-102979710D02*
G01*
X93673276Y-102981834D01*
X93687317Y-102985351D01*
X93700946Y-102990228D01*
X93714031Y-102996417D01*
X93726447Y-103003858D01*
X93738073Y-103012481D01*
X93748798Y-103022202D01*
X93758519Y-103032927D01*
X93767142Y-103044553D01*
X93774583Y-103056969D01*
X93780772Y-103070054D01*
X93785649Y-103083683D01*
X93789166Y-103097724D01*
X93791290Y-103112042D01*
X93792000Y-103126500D01*
X93792000Y-103421500D01*
X93791290Y-103435958D01*
X93789166Y-103450276D01*
X93785649Y-103464317D01*
X93780772Y-103477946D01*
X93774583Y-103491031D01*
X93767142Y-103503447D01*
X93758519Y-103515073D01*
X93748798Y-103525798D01*
X93738073Y-103535519D01*
X93726447Y-103544142D01*
X93714031Y-103551583D01*
X93700946Y-103557772D01*
X93687317Y-103562649D01*
X93673276Y-103566166D01*
X93658958Y-103568290D01*
X93644500Y-103569000D01*
X93299500Y-103569000D01*
X93285042Y-103568290D01*
X93270724Y-103566166D01*
X93256683Y-103562649D01*
X93243054Y-103557772D01*
X93229969Y-103551583D01*
X93217553Y-103544142D01*
X93205927Y-103535519D01*
X93195202Y-103525798D01*
X93185481Y-103515073D01*
X93176858Y-103503447D01*
X93169417Y-103491031D01*
X93163228Y-103477946D01*
X93158351Y-103464317D01*
X93154834Y-103450276D01*
X93152710Y-103435958D01*
X93152000Y-103421500D01*
X93152000Y-103126500D01*
X93152710Y-103112042D01*
X93154834Y-103097724D01*
X93158351Y-103083683D01*
X93163228Y-103070054D01*
X93169417Y-103056969D01*
X93176858Y-103044553D01*
X93185481Y-103032927D01*
X93195202Y-103022202D01*
X93205927Y-103012481D01*
X93217553Y-103003858D01*
X93229969Y-102996417D01*
X93243054Y-102990228D01*
X93256683Y-102985351D01*
X93270724Y-102981834D01*
X93285042Y-102979710D01*
X93299500Y-102979000D01*
X93644500Y-102979000D01*
X93658958Y-102979710D01*
X93658958Y-102979710D01*
G37*
D13*
X93472000Y-103274000D03*
D12*
G36*
X90037458Y-81024210D02*
G01*
X90051776Y-81026334D01*
X90065817Y-81029851D01*
X90079446Y-81034728D01*
X90092531Y-81040917D01*
X90104947Y-81048358D01*
X90116573Y-81056981D01*
X90127298Y-81066702D01*
X90137019Y-81077427D01*
X90145642Y-81089053D01*
X90153083Y-81101469D01*
X90159272Y-81114554D01*
X90164149Y-81128183D01*
X90167666Y-81142224D01*
X90169790Y-81156542D01*
X90170500Y-81171000D01*
X90170500Y-81516000D01*
X90169790Y-81530458D01*
X90167666Y-81544776D01*
X90164149Y-81558817D01*
X90159272Y-81572446D01*
X90153083Y-81585531D01*
X90145642Y-81597947D01*
X90137019Y-81609573D01*
X90127298Y-81620298D01*
X90116573Y-81630019D01*
X90104947Y-81638642D01*
X90092531Y-81646083D01*
X90079446Y-81652272D01*
X90065817Y-81657149D01*
X90051776Y-81660666D01*
X90037458Y-81662790D01*
X90023000Y-81663500D01*
X89728000Y-81663500D01*
X89713542Y-81662790D01*
X89699224Y-81660666D01*
X89685183Y-81657149D01*
X89671554Y-81652272D01*
X89658469Y-81646083D01*
X89646053Y-81638642D01*
X89634427Y-81630019D01*
X89623702Y-81620298D01*
X89613981Y-81609573D01*
X89605358Y-81597947D01*
X89597917Y-81585531D01*
X89591728Y-81572446D01*
X89586851Y-81558817D01*
X89583334Y-81544776D01*
X89581210Y-81530458D01*
X89580500Y-81516000D01*
X89580500Y-81171000D01*
X89581210Y-81156542D01*
X89583334Y-81142224D01*
X89586851Y-81128183D01*
X89591728Y-81114554D01*
X89597917Y-81101469D01*
X89605358Y-81089053D01*
X89613981Y-81077427D01*
X89623702Y-81066702D01*
X89634427Y-81056981D01*
X89646053Y-81048358D01*
X89658469Y-81040917D01*
X89671554Y-81034728D01*
X89685183Y-81029851D01*
X89699224Y-81026334D01*
X89713542Y-81024210D01*
X89728000Y-81023500D01*
X90023000Y-81023500D01*
X90037458Y-81024210D01*
X90037458Y-81024210D01*
G37*
D13*
X89875500Y-81343500D03*
D12*
G36*
X91007458Y-81024210D02*
G01*
X91021776Y-81026334D01*
X91035817Y-81029851D01*
X91049446Y-81034728D01*
X91062531Y-81040917D01*
X91074947Y-81048358D01*
X91086573Y-81056981D01*
X91097298Y-81066702D01*
X91107019Y-81077427D01*
X91115642Y-81089053D01*
X91123083Y-81101469D01*
X91129272Y-81114554D01*
X91134149Y-81128183D01*
X91137666Y-81142224D01*
X91139790Y-81156542D01*
X91140500Y-81171000D01*
X91140500Y-81516000D01*
X91139790Y-81530458D01*
X91137666Y-81544776D01*
X91134149Y-81558817D01*
X91129272Y-81572446D01*
X91123083Y-81585531D01*
X91115642Y-81597947D01*
X91107019Y-81609573D01*
X91097298Y-81620298D01*
X91086573Y-81630019D01*
X91074947Y-81638642D01*
X91062531Y-81646083D01*
X91049446Y-81652272D01*
X91035817Y-81657149D01*
X91021776Y-81660666D01*
X91007458Y-81662790D01*
X90993000Y-81663500D01*
X90698000Y-81663500D01*
X90683542Y-81662790D01*
X90669224Y-81660666D01*
X90655183Y-81657149D01*
X90641554Y-81652272D01*
X90628469Y-81646083D01*
X90616053Y-81638642D01*
X90604427Y-81630019D01*
X90593702Y-81620298D01*
X90583981Y-81609573D01*
X90575358Y-81597947D01*
X90567917Y-81585531D01*
X90561728Y-81572446D01*
X90556851Y-81558817D01*
X90553334Y-81544776D01*
X90551210Y-81530458D01*
X90550500Y-81516000D01*
X90550500Y-81171000D01*
X90551210Y-81156542D01*
X90553334Y-81142224D01*
X90556851Y-81128183D01*
X90561728Y-81114554D01*
X90567917Y-81101469D01*
X90575358Y-81089053D01*
X90583981Y-81077427D01*
X90593702Y-81066702D01*
X90604427Y-81056981D01*
X90616053Y-81048358D01*
X90628469Y-81040917D01*
X90641554Y-81034728D01*
X90655183Y-81029851D01*
X90669224Y-81026334D01*
X90683542Y-81024210D01*
X90698000Y-81023500D01*
X90993000Y-81023500D01*
X91007458Y-81024210D01*
X91007458Y-81024210D01*
G37*
D13*
X90845500Y-81343500D03*
D16*
X100147800Y-99765300D03*
X100147800Y-99265300D03*
X100147800Y-98765300D03*
X100147800Y-98265300D03*
X100147800Y-97765300D03*
X100147800Y-97265300D03*
X100147800Y-96765300D03*
X100147800Y-96265300D03*
X100147800Y-95765300D03*
X100147800Y-95265300D03*
X100147800Y-94765300D03*
X100147800Y-94265300D03*
D17*
X99447800Y-93565300D03*
X98947800Y-93565300D03*
X98447800Y-93565300D03*
X97947800Y-93565300D03*
X97447800Y-93565300D03*
X96947800Y-93565300D03*
X96447800Y-93565300D03*
X95947800Y-93565300D03*
X95447800Y-93565300D03*
X94947800Y-93565300D03*
X94447800Y-93565300D03*
X93947800Y-93565300D03*
D16*
X93247800Y-94265300D03*
X93247800Y-94765300D03*
X93247800Y-95265300D03*
X93247800Y-95765300D03*
X93247800Y-96265300D03*
X93247800Y-96765300D03*
X93247800Y-97265300D03*
X93247800Y-97765300D03*
X93247800Y-98265300D03*
X93247800Y-98765300D03*
X93247800Y-99265300D03*
X93247800Y-99765300D03*
D17*
X93947800Y-100465300D03*
X94447800Y-100465300D03*
X94947800Y-100465300D03*
X95447800Y-100465300D03*
X95947800Y-100465300D03*
X96447800Y-100465300D03*
X96947800Y-100465300D03*
X97447800Y-100465300D03*
X97947800Y-100465300D03*
X98447800Y-100465300D03*
X98947800Y-100465300D03*
X99447800Y-100465300D03*
D18*
X96697800Y-97015300D03*
D19*
X119660000Y-106568000D03*
X119660000Y-104568000D03*
X119660000Y-102568000D03*
X119660000Y-100568000D03*
X119660000Y-98568000D03*
X119660000Y-96568000D03*
X119660000Y-94568000D03*
X119660000Y-92568000D03*
X103860000Y-92568000D03*
X103860000Y-94568000D03*
X103860000Y-96568000D03*
X103860000Y-98568000D03*
X103860000Y-100568000D03*
X103860000Y-102568000D03*
X103860000Y-104568000D03*
X103860000Y-106568000D03*
D20*
X98814000Y-104144000D03*
X99314000Y-104144000D03*
X99814000Y-104144000D03*
D21*
X100576000Y-104406000D03*
X100576000Y-104906000D03*
X100576000Y-105406000D03*
X100576000Y-105906000D03*
D20*
X99814000Y-106168000D03*
X99314000Y-106168000D03*
X98814000Y-106168000D03*
D21*
X98052000Y-105906000D03*
X98052000Y-105406000D03*
X98052000Y-104906000D03*
X98052000Y-104406000D03*
D12*
G36*
X80194958Y-85659710D02*
G01*
X80209276Y-85661834D01*
X80223317Y-85665351D01*
X80236946Y-85670228D01*
X80250031Y-85676417D01*
X80262447Y-85683858D01*
X80274073Y-85692481D01*
X80284798Y-85702202D01*
X80294519Y-85712927D01*
X80303142Y-85724553D01*
X80310583Y-85736969D01*
X80316772Y-85750054D01*
X80321649Y-85763683D01*
X80325166Y-85777724D01*
X80327290Y-85792042D01*
X80328000Y-85806500D01*
X80328000Y-86151500D01*
X80327290Y-86165958D01*
X80325166Y-86180276D01*
X80321649Y-86194317D01*
X80316772Y-86207946D01*
X80310583Y-86221031D01*
X80303142Y-86233447D01*
X80294519Y-86245073D01*
X80284798Y-86255798D01*
X80274073Y-86265519D01*
X80262447Y-86274142D01*
X80250031Y-86281583D01*
X80236946Y-86287772D01*
X80223317Y-86292649D01*
X80209276Y-86296166D01*
X80194958Y-86298290D01*
X80180500Y-86299000D01*
X79885500Y-86299000D01*
X79871042Y-86298290D01*
X79856724Y-86296166D01*
X79842683Y-86292649D01*
X79829054Y-86287772D01*
X79815969Y-86281583D01*
X79803553Y-86274142D01*
X79791927Y-86265519D01*
X79781202Y-86255798D01*
X79771481Y-86245073D01*
X79762858Y-86233447D01*
X79755417Y-86221031D01*
X79749228Y-86207946D01*
X79744351Y-86194317D01*
X79740834Y-86180276D01*
X79738710Y-86165958D01*
X79738000Y-86151500D01*
X79738000Y-85806500D01*
X79738710Y-85792042D01*
X79740834Y-85777724D01*
X79744351Y-85763683D01*
X79749228Y-85750054D01*
X79755417Y-85736969D01*
X79762858Y-85724553D01*
X79771481Y-85712927D01*
X79781202Y-85702202D01*
X79791927Y-85692481D01*
X79803553Y-85683858D01*
X79815969Y-85676417D01*
X79829054Y-85670228D01*
X79842683Y-85665351D01*
X79856724Y-85661834D01*
X79871042Y-85659710D01*
X79885500Y-85659000D01*
X80180500Y-85659000D01*
X80194958Y-85659710D01*
X80194958Y-85659710D01*
G37*
D13*
X80033000Y-85979000D03*
D12*
G36*
X81164958Y-85659710D02*
G01*
X81179276Y-85661834D01*
X81193317Y-85665351D01*
X81206946Y-85670228D01*
X81220031Y-85676417D01*
X81232447Y-85683858D01*
X81244073Y-85692481D01*
X81254798Y-85702202D01*
X81264519Y-85712927D01*
X81273142Y-85724553D01*
X81280583Y-85736969D01*
X81286772Y-85750054D01*
X81291649Y-85763683D01*
X81295166Y-85777724D01*
X81297290Y-85792042D01*
X81298000Y-85806500D01*
X81298000Y-86151500D01*
X81297290Y-86165958D01*
X81295166Y-86180276D01*
X81291649Y-86194317D01*
X81286772Y-86207946D01*
X81280583Y-86221031D01*
X81273142Y-86233447D01*
X81264519Y-86245073D01*
X81254798Y-86255798D01*
X81244073Y-86265519D01*
X81232447Y-86274142D01*
X81220031Y-86281583D01*
X81206946Y-86287772D01*
X81193317Y-86292649D01*
X81179276Y-86296166D01*
X81164958Y-86298290D01*
X81150500Y-86299000D01*
X80855500Y-86299000D01*
X80841042Y-86298290D01*
X80826724Y-86296166D01*
X80812683Y-86292649D01*
X80799054Y-86287772D01*
X80785969Y-86281583D01*
X80773553Y-86274142D01*
X80761927Y-86265519D01*
X80751202Y-86255798D01*
X80741481Y-86245073D01*
X80732858Y-86233447D01*
X80725417Y-86221031D01*
X80719228Y-86207946D01*
X80714351Y-86194317D01*
X80710834Y-86180276D01*
X80708710Y-86165958D01*
X80708000Y-86151500D01*
X80708000Y-85806500D01*
X80708710Y-85792042D01*
X80710834Y-85777724D01*
X80714351Y-85763683D01*
X80719228Y-85750054D01*
X80725417Y-85736969D01*
X80732858Y-85724553D01*
X80741481Y-85712927D01*
X80751202Y-85702202D01*
X80761927Y-85692481D01*
X80773553Y-85683858D01*
X80785969Y-85676417D01*
X80799054Y-85670228D01*
X80812683Y-85665351D01*
X80826724Y-85661834D01*
X80841042Y-85659710D01*
X80855500Y-85659000D01*
X81150500Y-85659000D01*
X81164958Y-85659710D01*
X81164958Y-85659710D01*
G37*
D13*
X81003000Y-85979000D03*
D12*
G36*
X102104458Y-104630710D02*
G01*
X102118776Y-104632834D01*
X102132817Y-104636351D01*
X102146446Y-104641228D01*
X102159531Y-104647417D01*
X102171947Y-104654858D01*
X102183573Y-104663481D01*
X102194298Y-104673202D01*
X102204019Y-104683927D01*
X102212642Y-104695553D01*
X102220083Y-104707969D01*
X102226272Y-104721054D01*
X102231149Y-104734683D01*
X102234666Y-104748724D01*
X102236790Y-104763042D01*
X102237500Y-104777500D01*
X102237500Y-105072500D01*
X102236790Y-105086958D01*
X102234666Y-105101276D01*
X102231149Y-105115317D01*
X102226272Y-105128946D01*
X102220083Y-105142031D01*
X102212642Y-105154447D01*
X102204019Y-105166073D01*
X102194298Y-105176798D01*
X102183573Y-105186519D01*
X102171947Y-105195142D01*
X102159531Y-105202583D01*
X102146446Y-105208772D01*
X102132817Y-105213649D01*
X102118776Y-105217166D01*
X102104458Y-105219290D01*
X102090000Y-105220000D01*
X101745000Y-105220000D01*
X101730542Y-105219290D01*
X101716224Y-105217166D01*
X101702183Y-105213649D01*
X101688554Y-105208772D01*
X101675469Y-105202583D01*
X101663053Y-105195142D01*
X101651427Y-105186519D01*
X101640702Y-105176798D01*
X101630981Y-105166073D01*
X101622358Y-105154447D01*
X101614917Y-105142031D01*
X101608728Y-105128946D01*
X101603851Y-105115317D01*
X101600334Y-105101276D01*
X101598210Y-105086958D01*
X101597500Y-105072500D01*
X101597500Y-104777500D01*
X101598210Y-104763042D01*
X101600334Y-104748724D01*
X101603851Y-104734683D01*
X101608728Y-104721054D01*
X101614917Y-104707969D01*
X101622358Y-104695553D01*
X101630981Y-104683927D01*
X101640702Y-104673202D01*
X101651427Y-104663481D01*
X101663053Y-104654858D01*
X101675469Y-104647417D01*
X101688554Y-104641228D01*
X101702183Y-104636351D01*
X101716224Y-104632834D01*
X101730542Y-104630710D01*
X101745000Y-104630000D01*
X102090000Y-104630000D01*
X102104458Y-104630710D01*
X102104458Y-104630710D01*
G37*
D13*
X101917500Y-104925000D03*
D12*
G36*
X102104458Y-105600710D02*
G01*
X102118776Y-105602834D01*
X102132817Y-105606351D01*
X102146446Y-105611228D01*
X102159531Y-105617417D01*
X102171947Y-105624858D01*
X102183573Y-105633481D01*
X102194298Y-105643202D01*
X102204019Y-105653927D01*
X102212642Y-105665553D01*
X102220083Y-105677969D01*
X102226272Y-105691054D01*
X102231149Y-105704683D01*
X102234666Y-105718724D01*
X102236790Y-105733042D01*
X102237500Y-105747500D01*
X102237500Y-106042500D01*
X102236790Y-106056958D01*
X102234666Y-106071276D01*
X102231149Y-106085317D01*
X102226272Y-106098946D01*
X102220083Y-106112031D01*
X102212642Y-106124447D01*
X102204019Y-106136073D01*
X102194298Y-106146798D01*
X102183573Y-106156519D01*
X102171947Y-106165142D01*
X102159531Y-106172583D01*
X102146446Y-106178772D01*
X102132817Y-106183649D01*
X102118776Y-106187166D01*
X102104458Y-106189290D01*
X102090000Y-106190000D01*
X101745000Y-106190000D01*
X101730542Y-106189290D01*
X101716224Y-106187166D01*
X101702183Y-106183649D01*
X101688554Y-106178772D01*
X101675469Y-106172583D01*
X101663053Y-106165142D01*
X101651427Y-106156519D01*
X101640702Y-106146798D01*
X101630981Y-106136073D01*
X101622358Y-106124447D01*
X101614917Y-106112031D01*
X101608728Y-106098946D01*
X101603851Y-106085317D01*
X101600334Y-106071276D01*
X101598210Y-106056958D01*
X101597500Y-106042500D01*
X101597500Y-105747500D01*
X101598210Y-105733042D01*
X101600334Y-105718724D01*
X101603851Y-105704683D01*
X101608728Y-105691054D01*
X101614917Y-105677969D01*
X101622358Y-105665553D01*
X101630981Y-105653927D01*
X101640702Y-105643202D01*
X101651427Y-105633481D01*
X101663053Y-105624858D01*
X101675469Y-105617417D01*
X101688554Y-105611228D01*
X101702183Y-105606351D01*
X101716224Y-105602834D01*
X101730542Y-105600710D01*
X101745000Y-105600000D01*
X102090000Y-105600000D01*
X102104458Y-105600710D01*
X102104458Y-105600710D01*
G37*
D13*
X101917500Y-105895000D03*
D12*
G36*
X96452958Y-102979710D02*
G01*
X96467276Y-102981834D01*
X96481317Y-102985351D01*
X96494946Y-102990228D01*
X96508031Y-102996417D01*
X96520447Y-103003858D01*
X96532073Y-103012481D01*
X96542798Y-103022202D01*
X96552519Y-103032927D01*
X96561142Y-103044553D01*
X96568583Y-103056969D01*
X96574772Y-103070054D01*
X96579649Y-103083683D01*
X96583166Y-103097724D01*
X96585290Y-103112042D01*
X96586000Y-103126500D01*
X96586000Y-103421500D01*
X96585290Y-103435958D01*
X96583166Y-103450276D01*
X96579649Y-103464317D01*
X96574772Y-103477946D01*
X96568583Y-103491031D01*
X96561142Y-103503447D01*
X96552519Y-103515073D01*
X96542798Y-103525798D01*
X96532073Y-103535519D01*
X96520447Y-103544142D01*
X96508031Y-103551583D01*
X96494946Y-103557772D01*
X96481317Y-103562649D01*
X96467276Y-103566166D01*
X96452958Y-103568290D01*
X96438500Y-103569000D01*
X96093500Y-103569000D01*
X96079042Y-103568290D01*
X96064724Y-103566166D01*
X96050683Y-103562649D01*
X96037054Y-103557772D01*
X96023969Y-103551583D01*
X96011553Y-103544142D01*
X95999927Y-103535519D01*
X95989202Y-103525798D01*
X95979481Y-103515073D01*
X95970858Y-103503447D01*
X95963417Y-103491031D01*
X95957228Y-103477946D01*
X95952351Y-103464317D01*
X95948834Y-103450276D01*
X95946710Y-103435958D01*
X95946000Y-103421500D01*
X95946000Y-103126500D01*
X95946710Y-103112042D01*
X95948834Y-103097724D01*
X95952351Y-103083683D01*
X95957228Y-103070054D01*
X95963417Y-103056969D01*
X95970858Y-103044553D01*
X95979481Y-103032927D01*
X95989202Y-103022202D01*
X95999927Y-103012481D01*
X96011553Y-103003858D01*
X96023969Y-102996417D01*
X96037054Y-102990228D01*
X96050683Y-102985351D01*
X96064724Y-102981834D01*
X96079042Y-102979710D01*
X96093500Y-102979000D01*
X96438500Y-102979000D01*
X96452958Y-102979710D01*
X96452958Y-102979710D01*
G37*
D13*
X96266000Y-103274000D03*
D12*
G36*
X96452958Y-103949710D02*
G01*
X96467276Y-103951834D01*
X96481317Y-103955351D01*
X96494946Y-103960228D01*
X96508031Y-103966417D01*
X96520447Y-103973858D01*
X96532073Y-103982481D01*
X96542798Y-103992202D01*
X96552519Y-104002927D01*
X96561142Y-104014553D01*
X96568583Y-104026969D01*
X96574772Y-104040054D01*
X96579649Y-104053683D01*
X96583166Y-104067724D01*
X96585290Y-104082042D01*
X96586000Y-104096500D01*
X96586000Y-104391500D01*
X96585290Y-104405958D01*
X96583166Y-104420276D01*
X96579649Y-104434317D01*
X96574772Y-104447946D01*
X96568583Y-104461031D01*
X96561142Y-104473447D01*
X96552519Y-104485073D01*
X96542798Y-104495798D01*
X96532073Y-104505519D01*
X96520447Y-104514142D01*
X96508031Y-104521583D01*
X96494946Y-104527772D01*
X96481317Y-104532649D01*
X96467276Y-104536166D01*
X96452958Y-104538290D01*
X96438500Y-104539000D01*
X96093500Y-104539000D01*
X96079042Y-104538290D01*
X96064724Y-104536166D01*
X96050683Y-104532649D01*
X96037054Y-104527772D01*
X96023969Y-104521583D01*
X96011553Y-104514142D01*
X95999927Y-104505519D01*
X95989202Y-104495798D01*
X95979481Y-104485073D01*
X95970858Y-104473447D01*
X95963417Y-104461031D01*
X95957228Y-104447946D01*
X95952351Y-104434317D01*
X95948834Y-104420276D01*
X95946710Y-104405958D01*
X95946000Y-104391500D01*
X95946000Y-104096500D01*
X95946710Y-104082042D01*
X95948834Y-104067724D01*
X95952351Y-104053683D01*
X95957228Y-104040054D01*
X95963417Y-104026969D01*
X95970858Y-104014553D01*
X95979481Y-104002927D01*
X95989202Y-103992202D01*
X95999927Y-103982481D01*
X96011553Y-103973858D01*
X96023969Y-103966417D01*
X96037054Y-103960228D01*
X96050683Y-103955351D01*
X96064724Y-103951834D01*
X96079042Y-103949710D01*
X96093500Y-103949000D01*
X96438500Y-103949000D01*
X96452958Y-103949710D01*
X96452958Y-103949710D01*
G37*
D13*
X96266000Y-104244000D03*
D22*
X102072000Y-80962500D03*
X101572000Y-80962500D03*
X101072000Y-80962500D03*
X100572000Y-80962500D03*
X100072000Y-80962500D03*
X99572000Y-80962500D03*
X99072000Y-80962500D03*
X98572000Y-80962500D03*
X98072000Y-80962500D03*
X97572000Y-80962500D03*
D23*
X103722000Y-77062500D03*
X95922000Y-77062500D03*
D24*
X83820000Y-99280000D03*
X83820000Y-101380000D03*
D25*
X81662300Y-101288700D03*
X81662300Y-101938700D03*
X81662300Y-102588700D03*
X81662300Y-103238700D03*
X81662300Y-103888700D03*
D26*
X78987300Y-101588700D03*
X78987300Y-103588700D03*
X78987300Y-99538700D03*
X78987300Y-105638700D03*
D27*
X85686999Y-101583998D03*
X85686999Y-100584000D03*
X85686999Y-99583999D03*
X86486997Y-101583998D03*
X86487000Y-100584000D03*
X86486997Y-99583999D03*
X87286998Y-101583998D03*
X87286998Y-100584000D03*
X87286998Y-99583999D03*
D12*
G36*
X95119458Y-103949710D02*
G01*
X95133776Y-103951834D01*
X95147817Y-103955351D01*
X95161446Y-103960228D01*
X95174531Y-103966417D01*
X95186947Y-103973858D01*
X95198573Y-103982481D01*
X95209298Y-103992202D01*
X95219019Y-104002927D01*
X95227642Y-104014553D01*
X95235083Y-104026969D01*
X95241272Y-104040054D01*
X95246149Y-104053683D01*
X95249666Y-104067724D01*
X95251790Y-104082042D01*
X95252500Y-104096500D01*
X95252500Y-104391500D01*
X95251790Y-104405958D01*
X95249666Y-104420276D01*
X95246149Y-104434317D01*
X95241272Y-104447946D01*
X95235083Y-104461031D01*
X95227642Y-104473447D01*
X95219019Y-104485073D01*
X95209298Y-104495798D01*
X95198573Y-104505519D01*
X95186947Y-104514142D01*
X95174531Y-104521583D01*
X95161446Y-104527772D01*
X95147817Y-104532649D01*
X95133776Y-104536166D01*
X95119458Y-104538290D01*
X95105000Y-104539000D01*
X94760000Y-104539000D01*
X94745542Y-104538290D01*
X94731224Y-104536166D01*
X94717183Y-104532649D01*
X94703554Y-104527772D01*
X94690469Y-104521583D01*
X94678053Y-104514142D01*
X94666427Y-104505519D01*
X94655702Y-104495798D01*
X94645981Y-104485073D01*
X94637358Y-104473447D01*
X94629917Y-104461031D01*
X94623728Y-104447946D01*
X94618851Y-104434317D01*
X94615334Y-104420276D01*
X94613210Y-104405958D01*
X94612500Y-104391500D01*
X94612500Y-104096500D01*
X94613210Y-104082042D01*
X94615334Y-104067724D01*
X94618851Y-104053683D01*
X94623728Y-104040054D01*
X94629917Y-104026969D01*
X94637358Y-104014553D01*
X94645981Y-104002927D01*
X94655702Y-103992202D01*
X94666427Y-103982481D01*
X94678053Y-103973858D01*
X94690469Y-103966417D01*
X94703554Y-103960228D01*
X94717183Y-103955351D01*
X94731224Y-103951834D01*
X94745542Y-103949710D01*
X94760000Y-103949000D01*
X95105000Y-103949000D01*
X95119458Y-103949710D01*
X95119458Y-103949710D01*
G37*
D13*
X94932500Y-104244000D03*
D12*
G36*
X95119458Y-102979710D02*
G01*
X95133776Y-102981834D01*
X95147817Y-102985351D01*
X95161446Y-102990228D01*
X95174531Y-102996417D01*
X95186947Y-103003858D01*
X95198573Y-103012481D01*
X95209298Y-103022202D01*
X95219019Y-103032927D01*
X95227642Y-103044553D01*
X95235083Y-103056969D01*
X95241272Y-103070054D01*
X95246149Y-103083683D01*
X95249666Y-103097724D01*
X95251790Y-103112042D01*
X95252500Y-103126500D01*
X95252500Y-103421500D01*
X95251790Y-103435958D01*
X95249666Y-103450276D01*
X95246149Y-103464317D01*
X95241272Y-103477946D01*
X95235083Y-103491031D01*
X95227642Y-103503447D01*
X95219019Y-103515073D01*
X95209298Y-103525798D01*
X95198573Y-103535519D01*
X95186947Y-103544142D01*
X95174531Y-103551583D01*
X95161446Y-103557772D01*
X95147817Y-103562649D01*
X95133776Y-103566166D01*
X95119458Y-103568290D01*
X95105000Y-103569000D01*
X94760000Y-103569000D01*
X94745542Y-103568290D01*
X94731224Y-103566166D01*
X94717183Y-103562649D01*
X94703554Y-103557772D01*
X94690469Y-103551583D01*
X94678053Y-103544142D01*
X94666427Y-103535519D01*
X94655702Y-103525798D01*
X94645981Y-103515073D01*
X94637358Y-103503447D01*
X94629917Y-103491031D01*
X94623728Y-103477946D01*
X94618851Y-103464317D01*
X94615334Y-103450276D01*
X94613210Y-103435958D01*
X94612500Y-103421500D01*
X94612500Y-103126500D01*
X94613210Y-103112042D01*
X94615334Y-103097724D01*
X94618851Y-103083683D01*
X94623728Y-103070054D01*
X94629917Y-103056969D01*
X94637358Y-103044553D01*
X94645981Y-103032927D01*
X94655702Y-103022202D01*
X94666427Y-103012481D01*
X94678053Y-103003858D01*
X94690469Y-102996417D01*
X94703554Y-102990228D01*
X94717183Y-102985351D01*
X94731224Y-102981834D01*
X94745542Y-102979710D01*
X94760000Y-102979000D01*
X95105000Y-102979000D01*
X95119458Y-102979710D01*
X95119458Y-102979710D01*
G37*
D13*
X94932500Y-103274000D03*
D12*
G36*
X87435958Y-97282210D02*
G01*
X87450276Y-97284334D01*
X87464317Y-97287851D01*
X87477946Y-97292728D01*
X87491031Y-97298917D01*
X87503447Y-97306358D01*
X87515073Y-97314981D01*
X87525798Y-97324702D01*
X87535519Y-97335427D01*
X87544142Y-97347053D01*
X87551583Y-97359469D01*
X87557772Y-97372554D01*
X87562649Y-97386183D01*
X87566166Y-97400224D01*
X87568290Y-97414542D01*
X87569000Y-97429000D01*
X87569000Y-97724000D01*
X87568290Y-97738458D01*
X87566166Y-97752776D01*
X87562649Y-97766817D01*
X87557772Y-97780446D01*
X87551583Y-97793531D01*
X87544142Y-97805947D01*
X87535519Y-97817573D01*
X87525798Y-97828298D01*
X87515073Y-97838019D01*
X87503447Y-97846642D01*
X87491031Y-97854083D01*
X87477946Y-97860272D01*
X87464317Y-97865149D01*
X87450276Y-97868666D01*
X87435958Y-97870790D01*
X87421500Y-97871500D01*
X87076500Y-97871500D01*
X87062042Y-97870790D01*
X87047724Y-97868666D01*
X87033683Y-97865149D01*
X87020054Y-97860272D01*
X87006969Y-97854083D01*
X86994553Y-97846642D01*
X86982927Y-97838019D01*
X86972202Y-97828298D01*
X86962481Y-97817573D01*
X86953858Y-97805947D01*
X86946417Y-97793531D01*
X86940228Y-97780446D01*
X86935351Y-97766817D01*
X86931834Y-97752776D01*
X86929710Y-97738458D01*
X86929000Y-97724000D01*
X86929000Y-97429000D01*
X86929710Y-97414542D01*
X86931834Y-97400224D01*
X86935351Y-97386183D01*
X86940228Y-97372554D01*
X86946417Y-97359469D01*
X86953858Y-97347053D01*
X86962481Y-97335427D01*
X86972202Y-97324702D01*
X86982927Y-97314981D01*
X86994553Y-97306358D01*
X87006969Y-97298917D01*
X87020054Y-97292728D01*
X87033683Y-97287851D01*
X87047724Y-97284334D01*
X87062042Y-97282210D01*
X87076500Y-97281500D01*
X87421500Y-97281500D01*
X87435958Y-97282210D01*
X87435958Y-97282210D01*
G37*
D13*
X87249000Y-97576500D03*
D12*
G36*
X87435958Y-96312210D02*
G01*
X87450276Y-96314334D01*
X87464317Y-96317851D01*
X87477946Y-96322728D01*
X87491031Y-96328917D01*
X87503447Y-96336358D01*
X87515073Y-96344981D01*
X87525798Y-96354702D01*
X87535519Y-96365427D01*
X87544142Y-96377053D01*
X87551583Y-96389469D01*
X87557772Y-96402554D01*
X87562649Y-96416183D01*
X87566166Y-96430224D01*
X87568290Y-96444542D01*
X87569000Y-96459000D01*
X87569000Y-96754000D01*
X87568290Y-96768458D01*
X87566166Y-96782776D01*
X87562649Y-96796817D01*
X87557772Y-96810446D01*
X87551583Y-96823531D01*
X87544142Y-96835947D01*
X87535519Y-96847573D01*
X87525798Y-96858298D01*
X87515073Y-96868019D01*
X87503447Y-96876642D01*
X87491031Y-96884083D01*
X87477946Y-96890272D01*
X87464317Y-96895149D01*
X87450276Y-96898666D01*
X87435958Y-96900790D01*
X87421500Y-96901500D01*
X87076500Y-96901500D01*
X87062042Y-96900790D01*
X87047724Y-96898666D01*
X87033683Y-96895149D01*
X87020054Y-96890272D01*
X87006969Y-96884083D01*
X86994553Y-96876642D01*
X86982927Y-96868019D01*
X86972202Y-96858298D01*
X86962481Y-96847573D01*
X86953858Y-96835947D01*
X86946417Y-96823531D01*
X86940228Y-96810446D01*
X86935351Y-96796817D01*
X86931834Y-96782776D01*
X86929710Y-96768458D01*
X86929000Y-96754000D01*
X86929000Y-96459000D01*
X86929710Y-96444542D01*
X86931834Y-96430224D01*
X86935351Y-96416183D01*
X86940228Y-96402554D01*
X86946417Y-96389469D01*
X86953858Y-96377053D01*
X86962481Y-96365427D01*
X86972202Y-96354702D01*
X86982927Y-96344981D01*
X86994553Y-96336358D01*
X87006969Y-96328917D01*
X87020054Y-96322728D01*
X87033683Y-96317851D01*
X87047724Y-96314334D01*
X87062042Y-96312210D01*
X87076500Y-96311500D01*
X87421500Y-96311500D01*
X87435958Y-96312210D01*
X87435958Y-96312210D01*
G37*
D13*
X87249000Y-96606500D03*
D28*
X85707000Y-103848000D03*
X85707000Y-105448000D03*
X89807000Y-105448000D03*
X89807000Y-103848000D03*
D12*
G36*
X91007458Y-87056710D02*
G01*
X91021776Y-87058834D01*
X91035817Y-87062351D01*
X91049446Y-87067228D01*
X91062531Y-87073417D01*
X91074947Y-87080858D01*
X91086573Y-87089481D01*
X91097298Y-87099202D01*
X91107019Y-87109927D01*
X91115642Y-87121553D01*
X91123083Y-87133969D01*
X91129272Y-87147054D01*
X91134149Y-87160683D01*
X91137666Y-87174724D01*
X91139790Y-87189042D01*
X91140500Y-87203500D01*
X91140500Y-87548500D01*
X91139790Y-87562958D01*
X91137666Y-87577276D01*
X91134149Y-87591317D01*
X91129272Y-87604946D01*
X91123083Y-87618031D01*
X91115642Y-87630447D01*
X91107019Y-87642073D01*
X91097298Y-87652798D01*
X91086573Y-87662519D01*
X91074947Y-87671142D01*
X91062531Y-87678583D01*
X91049446Y-87684772D01*
X91035817Y-87689649D01*
X91021776Y-87693166D01*
X91007458Y-87695290D01*
X90993000Y-87696000D01*
X90698000Y-87696000D01*
X90683542Y-87695290D01*
X90669224Y-87693166D01*
X90655183Y-87689649D01*
X90641554Y-87684772D01*
X90628469Y-87678583D01*
X90616053Y-87671142D01*
X90604427Y-87662519D01*
X90593702Y-87652798D01*
X90583981Y-87642073D01*
X90575358Y-87630447D01*
X90567917Y-87618031D01*
X90561728Y-87604946D01*
X90556851Y-87591317D01*
X90553334Y-87577276D01*
X90551210Y-87562958D01*
X90550500Y-87548500D01*
X90550500Y-87203500D01*
X90551210Y-87189042D01*
X90553334Y-87174724D01*
X90556851Y-87160683D01*
X90561728Y-87147054D01*
X90567917Y-87133969D01*
X90575358Y-87121553D01*
X90583981Y-87109927D01*
X90593702Y-87099202D01*
X90604427Y-87089481D01*
X90616053Y-87080858D01*
X90628469Y-87073417D01*
X90641554Y-87067228D01*
X90655183Y-87062351D01*
X90669224Y-87058834D01*
X90683542Y-87056710D01*
X90698000Y-87056000D01*
X90993000Y-87056000D01*
X91007458Y-87056710D01*
X91007458Y-87056710D01*
G37*
D13*
X90845500Y-87376000D03*
D12*
G36*
X90037458Y-87056710D02*
G01*
X90051776Y-87058834D01*
X90065817Y-87062351D01*
X90079446Y-87067228D01*
X90092531Y-87073417D01*
X90104947Y-87080858D01*
X90116573Y-87089481D01*
X90127298Y-87099202D01*
X90137019Y-87109927D01*
X90145642Y-87121553D01*
X90153083Y-87133969D01*
X90159272Y-87147054D01*
X90164149Y-87160683D01*
X90167666Y-87174724D01*
X90169790Y-87189042D01*
X90170500Y-87203500D01*
X90170500Y-87548500D01*
X90169790Y-87562958D01*
X90167666Y-87577276D01*
X90164149Y-87591317D01*
X90159272Y-87604946D01*
X90153083Y-87618031D01*
X90145642Y-87630447D01*
X90137019Y-87642073D01*
X90127298Y-87652798D01*
X90116573Y-87662519D01*
X90104947Y-87671142D01*
X90092531Y-87678583D01*
X90079446Y-87684772D01*
X90065817Y-87689649D01*
X90051776Y-87693166D01*
X90037458Y-87695290D01*
X90023000Y-87696000D01*
X89728000Y-87696000D01*
X89713542Y-87695290D01*
X89699224Y-87693166D01*
X89685183Y-87689649D01*
X89671554Y-87684772D01*
X89658469Y-87678583D01*
X89646053Y-87671142D01*
X89634427Y-87662519D01*
X89623702Y-87652798D01*
X89613981Y-87642073D01*
X89605358Y-87630447D01*
X89597917Y-87618031D01*
X89591728Y-87604946D01*
X89586851Y-87591317D01*
X89583334Y-87577276D01*
X89581210Y-87562958D01*
X89580500Y-87548500D01*
X89580500Y-87203500D01*
X89581210Y-87189042D01*
X89583334Y-87174724D01*
X89586851Y-87160683D01*
X89591728Y-87147054D01*
X89597917Y-87133969D01*
X89605358Y-87121553D01*
X89613981Y-87109927D01*
X89623702Y-87099202D01*
X89634427Y-87089481D01*
X89646053Y-87080858D01*
X89658469Y-87073417D01*
X89671554Y-87067228D01*
X89685183Y-87062351D01*
X89699224Y-87058834D01*
X89713542Y-87056710D01*
X89728000Y-87056000D01*
X90023000Y-87056000D01*
X90037458Y-87056710D01*
X90037458Y-87056710D01*
G37*
D13*
X89875500Y-87376000D03*
D12*
G36*
X90037458Y-85850210D02*
G01*
X90051776Y-85852334D01*
X90065817Y-85855851D01*
X90079446Y-85860728D01*
X90092531Y-85866917D01*
X90104947Y-85874358D01*
X90116573Y-85882981D01*
X90127298Y-85892702D01*
X90137019Y-85903427D01*
X90145642Y-85915053D01*
X90153083Y-85927469D01*
X90159272Y-85940554D01*
X90164149Y-85954183D01*
X90167666Y-85968224D01*
X90169790Y-85982542D01*
X90170500Y-85997000D01*
X90170500Y-86342000D01*
X90169790Y-86356458D01*
X90167666Y-86370776D01*
X90164149Y-86384817D01*
X90159272Y-86398446D01*
X90153083Y-86411531D01*
X90145642Y-86423947D01*
X90137019Y-86435573D01*
X90127298Y-86446298D01*
X90116573Y-86456019D01*
X90104947Y-86464642D01*
X90092531Y-86472083D01*
X90079446Y-86478272D01*
X90065817Y-86483149D01*
X90051776Y-86486666D01*
X90037458Y-86488790D01*
X90023000Y-86489500D01*
X89728000Y-86489500D01*
X89713542Y-86488790D01*
X89699224Y-86486666D01*
X89685183Y-86483149D01*
X89671554Y-86478272D01*
X89658469Y-86472083D01*
X89646053Y-86464642D01*
X89634427Y-86456019D01*
X89623702Y-86446298D01*
X89613981Y-86435573D01*
X89605358Y-86423947D01*
X89597917Y-86411531D01*
X89591728Y-86398446D01*
X89586851Y-86384817D01*
X89583334Y-86370776D01*
X89581210Y-86356458D01*
X89580500Y-86342000D01*
X89580500Y-85997000D01*
X89581210Y-85982542D01*
X89583334Y-85968224D01*
X89586851Y-85954183D01*
X89591728Y-85940554D01*
X89597917Y-85927469D01*
X89605358Y-85915053D01*
X89613981Y-85903427D01*
X89623702Y-85892702D01*
X89634427Y-85882981D01*
X89646053Y-85874358D01*
X89658469Y-85866917D01*
X89671554Y-85860728D01*
X89685183Y-85855851D01*
X89699224Y-85852334D01*
X89713542Y-85850210D01*
X89728000Y-85849500D01*
X90023000Y-85849500D01*
X90037458Y-85850210D01*
X90037458Y-85850210D01*
G37*
D13*
X89875500Y-86169500D03*
D12*
G36*
X91007458Y-85850210D02*
G01*
X91021776Y-85852334D01*
X91035817Y-85855851D01*
X91049446Y-85860728D01*
X91062531Y-85866917D01*
X91074947Y-85874358D01*
X91086573Y-85882981D01*
X91097298Y-85892702D01*
X91107019Y-85903427D01*
X91115642Y-85915053D01*
X91123083Y-85927469D01*
X91129272Y-85940554D01*
X91134149Y-85954183D01*
X91137666Y-85968224D01*
X91139790Y-85982542D01*
X91140500Y-85997000D01*
X91140500Y-86342000D01*
X91139790Y-86356458D01*
X91137666Y-86370776D01*
X91134149Y-86384817D01*
X91129272Y-86398446D01*
X91123083Y-86411531D01*
X91115642Y-86423947D01*
X91107019Y-86435573D01*
X91097298Y-86446298D01*
X91086573Y-86456019D01*
X91074947Y-86464642D01*
X91062531Y-86472083D01*
X91049446Y-86478272D01*
X91035817Y-86483149D01*
X91021776Y-86486666D01*
X91007458Y-86488790D01*
X90993000Y-86489500D01*
X90698000Y-86489500D01*
X90683542Y-86488790D01*
X90669224Y-86486666D01*
X90655183Y-86483149D01*
X90641554Y-86478272D01*
X90628469Y-86472083D01*
X90616053Y-86464642D01*
X90604427Y-86456019D01*
X90593702Y-86446298D01*
X90583981Y-86435573D01*
X90575358Y-86423947D01*
X90567917Y-86411531D01*
X90561728Y-86398446D01*
X90556851Y-86384817D01*
X90553334Y-86370776D01*
X90551210Y-86356458D01*
X90550500Y-86342000D01*
X90550500Y-85997000D01*
X90551210Y-85982542D01*
X90553334Y-85968224D01*
X90556851Y-85954183D01*
X90561728Y-85940554D01*
X90567917Y-85927469D01*
X90575358Y-85915053D01*
X90583981Y-85903427D01*
X90593702Y-85892702D01*
X90604427Y-85882981D01*
X90616053Y-85874358D01*
X90628469Y-85866917D01*
X90641554Y-85860728D01*
X90655183Y-85855851D01*
X90669224Y-85852334D01*
X90683542Y-85850210D01*
X90698000Y-85849500D01*
X90993000Y-85849500D01*
X91007458Y-85850210D01*
X91007458Y-85850210D01*
G37*
D13*
X90845500Y-86169500D03*
D12*
G36*
X90037458Y-89723710D02*
G01*
X90051776Y-89725834D01*
X90065817Y-89729351D01*
X90079446Y-89734228D01*
X90092531Y-89740417D01*
X90104947Y-89747858D01*
X90116573Y-89756481D01*
X90127298Y-89766202D01*
X90137019Y-89776927D01*
X90145642Y-89788553D01*
X90153083Y-89800969D01*
X90159272Y-89814054D01*
X90164149Y-89827683D01*
X90167666Y-89841724D01*
X90169790Y-89856042D01*
X90170500Y-89870500D01*
X90170500Y-90215500D01*
X90169790Y-90229958D01*
X90167666Y-90244276D01*
X90164149Y-90258317D01*
X90159272Y-90271946D01*
X90153083Y-90285031D01*
X90145642Y-90297447D01*
X90137019Y-90309073D01*
X90127298Y-90319798D01*
X90116573Y-90329519D01*
X90104947Y-90338142D01*
X90092531Y-90345583D01*
X90079446Y-90351772D01*
X90065817Y-90356649D01*
X90051776Y-90360166D01*
X90037458Y-90362290D01*
X90023000Y-90363000D01*
X89728000Y-90363000D01*
X89713542Y-90362290D01*
X89699224Y-90360166D01*
X89685183Y-90356649D01*
X89671554Y-90351772D01*
X89658469Y-90345583D01*
X89646053Y-90338142D01*
X89634427Y-90329519D01*
X89623702Y-90319798D01*
X89613981Y-90309073D01*
X89605358Y-90297447D01*
X89597917Y-90285031D01*
X89591728Y-90271946D01*
X89586851Y-90258317D01*
X89583334Y-90244276D01*
X89581210Y-90229958D01*
X89580500Y-90215500D01*
X89580500Y-89870500D01*
X89581210Y-89856042D01*
X89583334Y-89841724D01*
X89586851Y-89827683D01*
X89591728Y-89814054D01*
X89597917Y-89800969D01*
X89605358Y-89788553D01*
X89613981Y-89776927D01*
X89623702Y-89766202D01*
X89634427Y-89756481D01*
X89646053Y-89747858D01*
X89658469Y-89740417D01*
X89671554Y-89734228D01*
X89685183Y-89729351D01*
X89699224Y-89725834D01*
X89713542Y-89723710D01*
X89728000Y-89723000D01*
X90023000Y-89723000D01*
X90037458Y-89723710D01*
X90037458Y-89723710D01*
G37*
D13*
X89875500Y-90043000D03*
D12*
G36*
X91007458Y-89723710D02*
G01*
X91021776Y-89725834D01*
X91035817Y-89729351D01*
X91049446Y-89734228D01*
X91062531Y-89740417D01*
X91074947Y-89747858D01*
X91086573Y-89756481D01*
X91097298Y-89766202D01*
X91107019Y-89776927D01*
X91115642Y-89788553D01*
X91123083Y-89800969D01*
X91129272Y-89814054D01*
X91134149Y-89827683D01*
X91137666Y-89841724D01*
X91139790Y-89856042D01*
X91140500Y-89870500D01*
X91140500Y-90215500D01*
X91139790Y-90229958D01*
X91137666Y-90244276D01*
X91134149Y-90258317D01*
X91129272Y-90271946D01*
X91123083Y-90285031D01*
X91115642Y-90297447D01*
X91107019Y-90309073D01*
X91097298Y-90319798D01*
X91086573Y-90329519D01*
X91074947Y-90338142D01*
X91062531Y-90345583D01*
X91049446Y-90351772D01*
X91035817Y-90356649D01*
X91021776Y-90360166D01*
X91007458Y-90362290D01*
X90993000Y-90363000D01*
X90698000Y-90363000D01*
X90683542Y-90362290D01*
X90669224Y-90360166D01*
X90655183Y-90356649D01*
X90641554Y-90351772D01*
X90628469Y-90345583D01*
X90616053Y-90338142D01*
X90604427Y-90329519D01*
X90593702Y-90319798D01*
X90583981Y-90309073D01*
X90575358Y-90297447D01*
X90567917Y-90285031D01*
X90561728Y-90271946D01*
X90556851Y-90258317D01*
X90553334Y-90244276D01*
X90551210Y-90229958D01*
X90550500Y-90215500D01*
X90550500Y-89870500D01*
X90551210Y-89856042D01*
X90553334Y-89841724D01*
X90556851Y-89827683D01*
X90561728Y-89814054D01*
X90567917Y-89800969D01*
X90575358Y-89788553D01*
X90583981Y-89776927D01*
X90593702Y-89766202D01*
X90604427Y-89756481D01*
X90616053Y-89747858D01*
X90628469Y-89740417D01*
X90641554Y-89734228D01*
X90655183Y-89729351D01*
X90669224Y-89725834D01*
X90683542Y-89723710D01*
X90698000Y-89723000D01*
X90993000Y-89723000D01*
X91007458Y-89723710D01*
X91007458Y-89723710D01*
G37*
D13*
X90845500Y-90043000D03*
D12*
G36*
X91007458Y-83818210D02*
G01*
X91021776Y-83820334D01*
X91035817Y-83823851D01*
X91049446Y-83828728D01*
X91062531Y-83834917D01*
X91074947Y-83842358D01*
X91086573Y-83850981D01*
X91097298Y-83860702D01*
X91107019Y-83871427D01*
X91115642Y-83883053D01*
X91123083Y-83895469D01*
X91129272Y-83908554D01*
X91134149Y-83922183D01*
X91137666Y-83936224D01*
X91139790Y-83950542D01*
X91140500Y-83965000D01*
X91140500Y-84310000D01*
X91139790Y-84324458D01*
X91137666Y-84338776D01*
X91134149Y-84352817D01*
X91129272Y-84366446D01*
X91123083Y-84379531D01*
X91115642Y-84391947D01*
X91107019Y-84403573D01*
X91097298Y-84414298D01*
X91086573Y-84424019D01*
X91074947Y-84432642D01*
X91062531Y-84440083D01*
X91049446Y-84446272D01*
X91035817Y-84451149D01*
X91021776Y-84454666D01*
X91007458Y-84456790D01*
X90993000Y-84457500D01*
X90698000Y-84457500D01*
X90683542Y-84456790D01*
X90669224Y-84454666D01*
X90655183Y-84451149D01*
X90641554Y-84446272D01*
X90628469Y-84440083D01*
X90616053Y-84432642D01*
X90604427Y-84424019D01*
X90593702Y-84414298D01*
X90583981Y-84403573D01*
X90575358Y-84391947D01*
X90567917Y-84379531D01*
X90561728Y-84366446D01*
X90556851Y-84352817D01*
X90553334Y-84338776D01*
X90551210Y-84324458D01*
X90550500Y-84310000D01*
X90550500Y-83965000D01*
X90551210Y-83950542D01*
X90553334Y-83936224D01*
X90556851Y-83922183D01*
X90561728Y-83908554D01*
X90567917Y-83895469D01*
X90575358Y-83883053D01*
X90583981Y-83871427D01*
X90593702Y-83860702D01*
X90604427Y-83850981D01*
X90616053Y-83842358D01*
X90628469Y-83834917D01*
X90641554Y-83828728D01*
X90655183Y-83823851D01*
X90669224Y-83820334D01*
X90683542Y-83818210D01*
X90698000Y-83817500D01*
X90993000Y-83817500D01*
X91007458Y-83818210D01*
X91007458Y-83818210D01*
G37*
D13*
X90845500Y-84137500D03*
D12*
G36*
X90037458Y-83818210D02*
G01*
X90051776Y-83820334D01*
X90065817Y-83823851D01*
X90079446Y-83828728D01*
X90092531Y-83834917D01*
X90104947Y-83842358D01*
X90116573Y-83850981D01*
X90127298Y-83860702D01*
X90137019Y-83871427D01*
X90145642Y-83883053D01*
X90153083Y-83895469D01*
X90159272Y-83908554D01*
X90164149Y-83922183D01*
X90167666Y-83936224D01*
X90169790Y-83950542D01*
X90170500Y-83965000D01*
X90170500Y-84310000D01*
X90169790Y-84324458D01*
X90167666Y-84338776D01*
X90164149Y-84352817D01*
X90159272Y-84366446D01*
X90153083Y-84379531D01*
X90145642Y-84391947D01*
X90137019Y-84403573D01*
X90127298Y-84414298D01*
X90116573Y-84424019D01*
X90104947Y-84432642D01*
X90092531Y-84440083D01*
X90079446Y-84446272D01*
X90065817Y-84451149D01*
X90051776Y-84454666D01*
X90037458Y-84456790D01*
X90023000Y-84457500D01*
X89728000Y-84457500D01*
X89713542Y-84456790D01*
X89699224Y-84454666D01*
X89685183Y-84451149D01*
X89671554Y-84446272D01*
X89658469Y-84440083D01*
X89646053Y-84432642D01*
X89634427Y-84424019D01*
X89623702Y-84414298D01*
X89613981Y-84403573D01*
X89605358Y-84391947D01*
X89597917Y-84379531D01*
X89591728Y-84366446D01*
X89586851Y-84352817D01*
X89583334Y-84338776D01*
X89581210Y-84324458D01*
X89580500Y-84310000D01*
X89580500Y-83965000D01*
X89581210Y-83950542D01*
X89583334Y-83936224D01*
X89586851Y-83922183D01*
X89591728Y-83908554D01*
X89597917Y-83895469D01*
X89605358Y-83883053D01*
X89613981Y-83871427D01*
X89623702Y-83860702D01*
X89634427Y-83850981D01*
X89646053Y-83842358D01*
X89658469Y-83834917D01*
X89671554Y-83828728D01*
X89685183Y-83823851D01*
X89699224Y-83820334D01*
X89713542Y-83818210D01*
X89728000Y-83817500D01*
X90023000Y-83817500D01*
X90037458Y-83818210D01*
X90037458Y-83818210D01*
G37*
D13*
X89875500Y-84137500D03*
D12*
G36*
X90100958Y-79373210D02*
G01*
X90115276Y-79375334D01*
X90129317Y-79378851D01*
X90142946Y-79383728D01*
X90156031Y-79389917D01*
X90168447Y-79397358D01*
X90180073Y-79405981D01*
X90190798Y-79415702D01*
X90200519Y-79426427D01*
X90209142Y-79438053D01*
X90216583Y-79450469D01*
X90222772Y-79463554D01*
X90227649Y-79477183D01*
X90231166Y-79491224D01*
X90233290Y-79505542D01*
X90234000Y-79520000D01*
X90234000Y-79865000D01*
X90233290Y-79879458D01*
X90231166Y-79893776D01*
X90227649Y-79907817D01*
X90222772Y-79921446D01*
X90216583Y-79934531D01*
X90209142Y-79946947D01*
X90200519Y-79958573D01*
X90190798Y-79969298D01*
X90180073Y-79979019D01*
X90168447Y-79987642D01*
X90156031Y-79995083D01*
X90142946Y-80001272D01*
X90129317Y-80006149D01*
X90115276Y-80009666D01*
X90100958Y-80011790D01*
X90086500Y-80012500D01*
X89791500Y-80012500D01*
X89777042Y-80011790D01*
X89762724Y-80009666D01*
X89748683Y-80006149D01*
X89735054Y-80001272D01*
X89721969Y-79995083D01*
X89709553Y-79987642D01*
X89697927Y-79979019D01*
X89687202Y-79969298D01*
X89677481Y-79958573D01*
X89668858Y-79946947D01*
X89661417Y-79934531D01*
X89655228Y-79921446D01*
X89650351Y-79907817D01*
X89646834Y-79893776D01*
X89644710Y-79879458D01*
X89644000Y-79865000D01*
X89644000Y-79520000D01*
X89644710Y-79505542D01*
X89646834Y-79491224D01*
X89650351Y-79477183D01*
X89655228Y-79463554D01*
X89661417Y-79450469D01*
X89668858Y-79438053D01*
X89677481Y-79426427D01*
X89687202Y-79415702D01*
X89697927Y-79405981D01*
X89709553Y-79397358D01*
X89721969Y-79389917D01*
X89735054Y-79383728D01*
X89748683Y-79378851D01*
X89762724Y-79375334D01*
X89777042Y-79373210D01*
X89791500Y-79372500D01*
X90086500Y-79372500D01*
X90100958Y-79373210D01*
X90100958Y-79373210D01*
G37*
D13*
X89939000Y-79692500D03*
D12*
G36*
X91070958Y-79373210D02*
G01*
X91085276Y-79375334D01*
X91099317Y-79378851D01*
X91112946Y-79383728D01*
X91126031Y-79389917D01*
X91138447Y-79397358D01*
X91150073Y-79405981D01*
X91160798Y-79415702D01*
X91170519Y-79426427D01*
X91179142Y-79438053D01*
X91186583Y-79450469D01*
X91192772Y-79463554D01*
X91197649Y-79477183D01*
X91201166Y-79491224D01*
X91203290Y-79505542D01*
X91204000Y-79520000D01*
X91204000Y-79865000D01*
X91203290Y-79879458D01*
X91201166Y-79893776D01*
X91197649Y-79907817D01*
X91192772Y-79921446D01*
X91186583Y-79934531D01*
X91179142Y-79946947D01*
X91170519Y-79958573D01*
X91160798Y-79969298D01*
X91150073Y-79979019D01*
X91138447Y-79987642D01*
X91126031Y-79995083D01*
X91112946Y-80001272D01*
X91099317Y-80006149D01*
X91085276Y-80009666D01*
X91070958Y-80011790D01*
X91056500Y-80012500D01*
X90761500Y-80012500D01*
X90747042Y-80011790D01*
X90732724Y-80009666D01*
X90718683Y-80006149D01*
X90705054Y-80001272D01*
X90691969Y-79995083D01*
X90679553Y-79987642D01*
X90667927Y-79979019D01*
X90657202Y-79969298D01*
X90647481Y-79958573D01*
X90638858Y-79946947D01*
X90631417Y-79934531D01*
X90625228Y-79921446D01*
X90620351Y-79907817D01*
X90616834Y-79893776D01*
X90614710Y-79879458D01*
X90614000Y-79865000D01*
X90614000Y-79520000D01*
X90614710Y-79505542D01*
X90616834Y-79491224D01*
X90620351Y-79477183D01*
X90625228Y-79463554D01*
X90631417Y-79450469D01*
X90638858Y-79438053D01*
X90647481Y-79426427D01*
X90657202Y-79415702D01*
X90667927Y-79405981D01*
X90679553Y-79397358D01*
X90691969Y-79389917D01*
X90705054Y-79383728D01*
X90718683Y-79378851D01*
X90732724Y-79375334D01*
X90747042Y-79373210D01*
X90761500Y-79372500D01*
X91056500Y-79372500D01*
X91070958Y-79373210D01*
X91070958Y-79373210D01*
G37*
D13*
X90909000Y-79692500D03*
D12*
G36*
X81164958Y-86739210D02*
G01*
X81179276Y-86741334D01*
X81193317Y-86744851D01*
X81206946Y-86749728D01*
X81220031Y-86755917D01*
X81232447Y-86763358D01*
X81244073Y-86771981D01*
X81254798Y-86781702D01*
X81264519Y-86792427D01*
X81273142Y-86804053D01*
X81280583Y-86816469D01*
X81286772Y-86829554D01*
X81291649Y-86843183D01*
X81295166Y-86857224D01*
X81297290Y-86871542D01*
X81298000Y-86886000D01*
X81298000Y-87231000D01*
X81297290Y-87245458D01*
X81295166Y-87259776D01*
X81291649Y-87273817D01*
X81286772Y-87287446D01*
X81280583Y-87300531D01*
X81273142Y-87312947D01*
X81264519Y-87324573D01*
X81254798Y-87335298D01*
X81244073Y-87345019D01*
X81232447Y-87353642D01*
X81220031Y-87361083D01*
X81206946Y-87367272D01*
X81193317Y-87372149D01*
X81179276Y-87375666D01*
X81164958Y-87377790D01*
X81150500Y-87378500D01*
X80855500Y-87378500D01*
X80841042Y-87377790D01*
X80826724Y-87375666D01*
X80812683Y-87372149D01*
X80799054Y-87367272D01*
X80785969Y-87361083D01*
X80773553Y-87353642D01*
X80761927Y-87345019D01*
X80751202Y-87335298D01*
X80741481Y-87324573D01*
X80732858Y-87312947D01*
X80725417Y-87300531D01*
X80719228Y-87287446D01*
X80714351Y-87273817D01*
X80710834Y-87259776D01*
X80708710Y-87245458D01*
X80708000Y-87231000D01*
X80708000Y-86886000D01*
X80708710Y-86871542D01*
X80710834Y-86857224D01*
X80714351Y-86843183D01*
X80719228Y-86829554D01*
X80725417Y-86816469D01*
X80732858Y-86804053D01*
X80741481Y-86792427D01*
X80751202Y-86781702D01*
X80761927Y-86771981D01*
X80773553Y-86763358D01*
X80785969Y-86755917D01*
X80799054Y-86749728D01*
X80812683Y-86744851D01*
X80826724Y-86741334D01*
X80841042Y-86739210D01*
X80855500Y-86738500D01*
X81150500Y-86738500D01*
X81164958Y-86739210D01*
X81164958Y-86739210D01*
G37*
D13*
X81003000Y-87058500D03*
D12*
G36*
X80194958Y-86739210D02*
G01*
X80209276Y-86741334D01*
X80223317Y-86744851D01*
X80236946Y-86749728D01*
X80250031Y-86755917D01*
X80262447Y-86763358D01*
X80274073Y-86771981D01*
X80284798Y-86781702D01*
X80294519Y-86792427D01*
X80303142Y-86804053D01*
X80310583Y-86816469D01*
X80316772Y-86829554D01*
X80321649Y-86843183D01*
X80325166Y-86857224D01*
X80327290Y-86871542D01*
X80328000Y-86886000D01*
X80328000Y-87231000D01*
X80327290Y-87245458D01*
X80325166Y-87259776D01*
X80321649Y-87273817D01*
X80316772Y-87287446D01*
X80310583Y-87300531D01*
X80303142Y-87312947D01*
X80294519Y-87324573D01*
X80284798Y-87335298D01*
X80274073Y-87345019D01*
X80262447Y-87353642D01*
X80250031Y-87361083D01*
X80236946Y-87367272D01*
X80223317Y-87372149D01*
X80209276Y-87375666D01*
X80194958Y-87377790D01*
X80180500Y-87378500D01*
X79885500Y-87378500D01*
X79871042Y-87377790D01*
X79856724Y-87375666D01*
X79842683Y-87372149D01*
X79829054Y-87367272D01*
X79815969Y-87361083D01*
X79803553Y-87353642D01*
X79791927Y-87345019D01*
X79781202Y-87335298D01*
X79771481Y-87324573D01*
X79762858Y-87312947D01*
X79755417Y-87300531D01*
X79749228Y-87287446D01*
X79744351Y-87273817D01*
X79740834Y-87259776D01*
X79738710Y-87245458D01*
X79738000Y-87231000D01*
X79738000Y-86886000D01*
X79738710Y-86871542D01*
X79740834Y-86857224D01*
X79744351Y-86843183D01*
X79749228Y-86829554D01*
X79755417Y-86816469D01*
X79762858Y-86804053D01*
X79771481Y-86792427D01*
X79781202Y-86781702D01*
X79791927Y-86771981D01*
X79803553Y-86763358D01*
X79815969Y-86755917D01*
X79829054Y-86749728D01*
X79842683Y-86744851D01*
X79856724Y-86741334D01*
X79871042Y-86739210D01*
X79885500Y-86738500D01*
X80180500Y-86738500D01*
X80194958Y-86739210D01*
X80194958Y-86739210D01*
G37*
D13*
X80033000Y-87058500D03*
D12*
G36*
X80194958Y-90358710D02*
G01*
X80209276Y-90360834D01*
X80223317Y-90364351D01*
X80236946Y-90369228D01*
X80250031Y-90375417D01*
X80262447Y-90382858D01*
X80274073Y-90391481D01*
X80284798Y-90401202D01*
X80294519Y-90411927D01*
X80303142Y-90423553D01*
X80310583Y-90435969D01*
X80316772Y-90449054D01*
X80321649Y-90462683D01*
X80325166Y-90476724D01*
X80327290Y-90491042D01*
X80328000Y-90505500D01*
X80328000Y-90850500D01*
X80327290Y-90864958D01*
X80325166Y-90879276D01*
X80321649Y-90893317D01*
X80316772Y-90906946D01*
X80310583Y-90920031D01*
X80303142Y-90932447D01*
X80294519Y-90944073D01*
X80284798Y-90954798D01*
X80274073Y-90964519D01*
X80262447Y-90973142D01*
X80250031Y-90980583D01*
X80236946Y-90986772D01*
X80223317Y-90991649D01*
X80209276Y-90995166D01*
X80194958Y-90997290D01*
X80180500Y-90998000D01*
X79885500Y-90998000D01*
X79871042Y-90997290D01*
X79856724Y-90995166D01*
X79842683Y-90991649D01*
X79829054Y-90986772D01*
X79815969Y-90980583D01*
X79803553Y-90973142D01*
X79791927Y-90964519D01*
X79781202Y-90954798D01*
X79771481Y-90944073D01*
X79762858Y-90932447D01*
X79755417Y-90920031D01*
X79749228Y-90906946D01*
X79744351Y-90893317D01*
X79740834Y-90879276D01*
X79738710Y-90864958D01*
X79738000Y-90850500D01*
X79738000Y-90505500D01*
X79738710Y-90491042D01*
X79740834Y-90476724D01*
X79744351Y-90462683D01*
X79749228Y-90449054D01*
X79755417Y-90435969D01*
X79762858Y-90423553D01*
X79771481Y-90411927D01*
X79781202Y-90401202D01*
X79791927Y-90391481D01*
X79803553Y-90382858D01*
X79815969Y-90375417D01*
X79829054Y-90369228D01*
X79842683Y-90364351D01*
X79856724Y-90360834D01*
X79871042Y-90358710D01*
X79885500Y-90358000D01*
X80180500Y-90358000D01*
X80194958Y-90358710D01*
X80194958Y-90358710D01*
G37*
D13*
X80033000Y-90678000D03*
D12*
G36*
X81164958Y-90358710D02*
G01*
X81179276Y-90360834D01*
X81193317Y-90364351D01*
X81206946Y-90369228D01*
X81220031Y-90375417D01*
X81232447Y-90382858D01*
X81244073Y-90391481D01*
X81254798Y-90401202D01*
X81264519Y-90411927D01*
X81273142Y-90423553D01*
X81280583Y-90435969D01*
X81286772Y-90449054D01*
X81291649Y-90462683D01*
X81295166Y-90476724D01*
X81297290Y-90491042D01*
X81298000Y-90505500D01*
X81298000Y-90850500D01*
X81297290Y-90864958D01*
X81295166Y-90879276D01*
X81291649Y-90893317D01*
X81286772Y-90906946D01*
X81280583Y-90920031D01*
X81273142Y-90932447D01*
X81264519Y-90944073D01*
X81254798Y-90954798D01*
X81244073Y-90964519D01*
X81232447Y-90973142D01*
X81220031Y-90980583D01*
X81206946Y-90986772D01*
X81193317Y-90991649D01*
X81179276Y-90995166D01*
X81164958Y-90997290D01*
X81150500Y-90998000D01*
X80855500Y-90998000D01*
X80841042Y-90997290D01*
X80826724Y-90995166D01*
X80812683Y-90991649D01*
X80799054Y-90986772D01*
X80785969Y-90980583D01*
X80773553Y-90973142D01*
X80761927Y-90964519D01*
X80751202Y-90954798D01*
X80741481Y-90944073D01*
X80732858Y-90932447D01*
X80725417Y-90920031D01*
X80719228Y-90906946D01*
X80714351Y-90893317D01*
X80710834Y-90879276D01*
X80708710Y-90864958D01*
X80708000Y-90850500D01*
X80708000Y-90505500D01*
X80708710Y-90491042D01*
X80710834Y-90476724D01*
X80714351Y-90462683D01*
X80719228Y-90449054D01*
X80725417Y-90435969D01*
X80732858Y-90423553D01*
X80741481Y-90411927D01*
X80751202Y-90401202D01*
X80761927Y-90391481D01*
X80773553Y-90382858D01*
X80785969Y-90375417D01*
X80799054Y-90369228D01*
X80812683Y-90364351D01*
X80826724Y-90360834D01*
X80841042Y-90358710D01*
X80855500Y-90358000D01*
X81150500Y-90358000D01*
X81164958Y-90358710D01*
X81164958Y-90358710D01*
G37*
D13*
X81003000Y-90678000D03*
D12*
G36*
X81164958Y-91565210D02*
G01*
X81179276Y-91567334D01*
X81193317Y-91570851D01*
X81206946Y-91575728D01*
X81220031Y-91581917D01*
X81232447Y-91589358D01*
X81244073Y-91597981D01*
X81254798Y-91607702D01*
X81264519Y-91618427D01*
X81273142Y-91630053D01*
X81280583Y-91642469D01*
X81286772Y-91655554D01*
X81291649Y-91669183D01*
X81295166Y-91683224D01*
X81297290Y-91697542D01*
X81298000Y-91712000D01*
X81298000Y-92057000D01*
X81297290Y-92071458D01*
X81295166Y-92085776D01*
X81291649Y-92099817D01*
X81286772Y-92113446D01*
X81280583Y-92126531D01*
X81273142Y-92138947D01*
X81264519Y-92150573D01*
X81254798Y-92161298D01*
X81244073Y-92171019D01*
X81232447Y-92179642D01*
X81220031Y-92187083D01*
X81206946Y-92193272D01*
X81193317Y-92198149D01*
X81179276Y-92201666D01*
X81164958Y-92203790D01*
X81150500Y-92204500D01*
X80855500Y-92204500D01*
X80841042Y-92203790D01*
X80826724Y-92201666D01*
X80812683Y-92198149D01*
X80799054Y-92193272D01*
X80785969Y-92187083D01*
X80773553Y-92179642D01*
X80761927Y-92171019D01*
X80751202Y-92161298D01*
X80741481Y-92150573D01*
X80732858Y-92138947D01*
X80725417Y-92126531D01*
X80719228Y-92113446D01*
X80714351Y-92099817D01*
X80710834Y-92085776D01*
X80708710Y-92071458D01*
X80708000Y-92057000D01*
X80708000Y-91712000D01*
X80708710Y-91697542D01*
X80710834Y-91683224D01*
X80714351Y-91669183D01*
X80719228Y-91655554D01*
X80725417Y-91642469D01*
X80732858Y-91630053D01*
X80741481Y-91618427D01*
X80751202Y-91607702D01*
X80761927Y-91597981D01*
X80773553Y-91589358D01*
X80785969Y-91581917D01*
X80799054Y-91575728D01*
X80812683Y-91570851D01*
X80826724Y-91567334D01*
X80841042Y-91565210D01*
X80855500Y-91564500D01*
X81150500Y-91564500D01*
X81164958Y-91565210D01*
X81164958Y-91565210D01*
G37*
D13*
X81003000Y-91884500D03*
D12*
G36*
X80194958Y-91565210D02*
G01*
X80209276Y-91567334D01*
X80223317Y-91570851D01*
X80236946Y-91575728D01*
X80250031Y-91581917D01*
X80262447Y-91589358D01*
X80274073Y-91597981D01*
X80284798Y-91607702D01*
X80294519Y-91618427D01*
X80303142Y-91630053D01*
X80310583Y-91642469D01*
X80316772Y-91655554D01*
X80321649Y-91669183D01*
X80325166Y-91683224D01*
X80327290Y-91697542D01*
X80328000Y-91712000D01*
X80328000Y-92057000D01*
X80327290Y-92071458D01*
X80325166Y-92085776D01*
X80321649Y-92099817D01*
X80316772Y-92113446D01*
X80310583Y-92126531D01*
X80303142Y-92138947D01*
X80294519Y-92150573D01*
X80284798Y-92161298D01*
X80274073Y-92171019D01*
X80262447Y-92179642D01*
X80250031Y-92187083D01*
X80236946Y-92193272D01*
X80223317Y-92198149D01*
X80209276Y-92201666D01*
X80194958Y-92203790D01*
X80180500Y-92204500D01*
X79885500Y-92204500D01*
X79871042Y-92203790D01*
X79856724Y-92201666D01*
X79842683Y-92198149D01*
X79829054Y-92193272D01*
X79815969Y-92187083D01*
X79803553Y-92179642D01*
X79791927Y-92171019D01*
X79781202Y-92161298D01*
X79771481Y-92150573D01*
X79762858Y-92138947D01*
X79755417Y-92126531D01*
X79749228Y-92113446D01*
X79744351Y-92099817D01*
X79740834Y-92085776D01*
X79738710Y-92071458D01*
X79738000Y-92057000D01*
X79738000Y-91712000D01*
X79738710Y-91697542D01*
X79740834Y-91683224D01*
X79744351Y-91669183D01*
X79749228Y-91655554D01*
X79755417Y-91642469D01*
X79762858Y-91630053D01*
X79771481Y-91618427D01*
X79781202Y-91607702D01*
X79791927Y-91597981D01*
X79803553Y-91589358D01*
X79815969Y-91581917D01*
X79829054Y-91575728D01*
X79842683Y-91570851D01*
X79856724Y-91567334D01*
X79871042Y-91565210D01*
X79885500Y-91564500D01*
X80180500Y-91564500D01*
X80194958Y-91565210D01*
X80194958Y-91565210D01*
G37*
D13*
X80033000Y-91884500D03*
M02*
