M48
; DRILL file {KiCad (5.1.4)-1} date 10/25/2019 8:43:56 PM
; FORMAT={-:-/ absolute / inch / decimal}
; #@! TF.CreationDate,2019-10-25T20:43:56-07:00
; #@! TF.GenerationSoftware,Kicad,Pcbnew,(5.1.4)-1
FMAT,2
INCH
T1C0.0118
T2C0.0354
T3C0.0394
T4C0.0472
%
G90
G05
T1
X3.15Y-3.36
X3.15Y-3.5425
X3.15Y-3.4525
X3.1525Y-3.645
X3.2248Y-3.1673
X3.225Y-3.19
X3.225Y-3.215
X3.225Y-3.25
X3.225Y-3.2975
X3.225Y-3.3925
X3.225Y-3.42
X3.225Y-3.455
X3.225Y-3.4823
X3.225Y-3.505
X3.225Y-3.5327
X3.225Y-3.57
X3.2253Y-3.2727
X3.245Y-3.605
X3.25Y-3.7075
X3.25Y-3.7575
X3.25Y-3.805
X3.26Y-4.015
X3.26Y-4.0402
X3.295Y-3.14
X3.295Y-3.18
X3.295Y-3.2575
X3.295Y-3.3175
X3.295Y-3.4887
X3.2952Y-3.4449
X3.3Y-3.3775
X3.305Y-3.1075
X3.305Y-3.9375
X3.31Y-4.0658
X3.3425Y-3.4525
X3.345Y-3.51
X3.3455Y-3.3906
X3.3455Y-3.5331
X3.3473Y-3.2198
X3.3475Y-3.195
X3.3475Y-3.27
X3.3475Y-3.2975
X3.3475Y-3.335
X3.352Y-3.1369
X3.405Y-3.7075
X3.405Y-3.7575
X3.4175Y-4.0675
X3.43Y-3.52
X3.4306Y-3.2075
X3.4306Y-3.285
X3.4327Y-3.175
X3.435Y-3.865
X3.4381Y-3.5736
X3.4475Y-3.3925
X3.46Y-4.0
X3.4675Y-3.45
X3.4675Y-3.515
X3.4725Y-3.2125
X3.4725Y-3.2775
X3.4775Y-3.8475
X3.5025Y-3.4825
X3.5055Y-3.245
X3.54Y-3.465
X3.54Y-3.515
X3.5425Y-3.2275
X3.5425Y-3.2775
X3.565Y-4.0
X3.57Y-4.07
X3.5775Y-3.285
X3.5775Y-3.3625
X3.5775Y-3.4675
X3.5775Y-3.52
X3.5775Y-3.1075
X3.58Y-3.2325
X3.6093Y-3.7507
X3.61Y-3.71
X3.61Y-3.79
X3.61Y-3.83
X3.61Y-3.87
X3.615Y-4.0
X3.6391Y-3.73
X3.64Y-3.77
X3.64Y-3.81
X3.64Y-3.89
X3.6405Y-3.848
X3.66Y-3.495
X3.665Y-3.2575
X3.665Y-3.3175
X3.665Y-3.3525
X3.67Y-3.165
X3.67Y-3.1975
X3.67Y-3.545
X3.67Y-3.585
X3.6708Y-3.949
X3.675Y-3.99
X3.6763Y-3.6481
X3.68Y-4.1325
X3.705Y-4.025
X3.7075Y-4.065
X3.715Y-3.89
X3.7177Y-3.6525
X3.72Y-3.7325
X3.7375Y-3.625
X3.7375Y-3.9875
X3.7575Y-3.6525
X3.7675Y-3.89
X3.775Y-3.9875
X3.7775Y-3.625
X3.7975Y-3.6525
X3.81Y-3.82
X3.815Y-3.89
X3.815Y-3.9875
X3.82Y-4.105
X3.8375Y-3.6525
X3.84Y-3.505
X3.8401Y-3.9875
X3.8475Y-3.7275
X3.8478Y-3.1521
X3.855Y-3.6225
X3.8575Y-3.23
X3.8749Y-4.0239
X3.875Y-3.6525
X3.875Y-3.9875
X3.88Y-3.8325
X3.8875Y-3.9125
X3.89Y-4.205
X3.895Y-3.6225
X3.9025Y-3.1475
X3.91Y-4.045
X3.91Y-4.07
X3.912Y-3.9956
X3.9125Y-3.2325
X3.915Y-3.65
X3.935Y-3.2925
X3.935Y-3.3875
X3.94Y-3.9625
X3.945Y-4.0775
X3.9475Y-3.235
X3.9575Y-3.505
X3.975Y-3.71
X3.975Y-3.75
X3.975Y-3.79
X3.975Y-3.83
X3.975Y-3.89
X3.975Y-3.9275
X3.975Y-3.8673
X3.9875Y-4.17
X4.005Y-3.73
X4.005Y-3.77
X4.005Y-3.81
X4.0075Y-3.9275
X4.0175Y-3.1075
X4.03Y-3.33
X4.0875Y-3.455
X4.0875Y-4.085
X4.0888Y-3.1252
X4.09Y-3.9125
X4.145Y-3.945
X4.455Y-4.2
X4.5075Y-3.97
X4.51Y-3.8225
X4.5925Y-3.755
X4.5925Y-3.9275
X4.6125Y-3.84
X4.6525Y-3.0925
X4.6525Y-3.1725
X4.6525Y-3.25
X4.6525Y-3.8025
X4.6525Y-3.88
X4.6525Y-3.96
X4.6525Y-4.0375
X4.6525Y-4.1175
X4.655Y-3.015
X4.71Y-3.3625
X4.71Y-3.4425
X4.7125Y-3.5325
T2
X3.216Y-3.9405
X3.216Y-4.1374
T3
X3.545Y-3.03
X3.645Y-3.03
T4
X3.1097Y-3.9011
X3.1097Y-4.1767
T0
M30
