%TF.GenerationSoftware,KiCad,Pcbnew,(5.1.4)-1*%
%TF.CreationDate,2019-10-25T20:43:54-07:00*%
%TF.ProjectId,mainboard,6d61696e-626f-4617-9264-2e6b69636164,rev?*%
%TF.SameCoordinates,Original*%
%TF.FileFunction,Copper,L3,Inr*%
%TF.FilePolarity,Positive*%
%FSLAX46Y46*%
G04 Gerber Fmt 4.6, Leading zero omitted, Abs format (unit mm)*
G04 Created by KiCad (PCBNEW (5.1.4)-1) date 2019-10-25 20:43:54*
%MOMM*%
%LPD*%
G04 APERTURE LIST*
%ADD10C,0.150000*%
%ADD11O,1.700000X1.700000*%
%ADD12C,1.408000*%
%ADD13C,1.800000*%
%ADD14C,0.450000*%
%ADD15C,0.152400*%
G04 APERTURE END LIST*
D10*
X76625100Y-98791400D02*
X76625100Y-92202000D01*
X77463300Y-78486000D02*
X76625100Y-77978000D01*
X77463300Y-91694000D02*
X76625100Y-92202000D01*
X77463300Y-78486000D02*
X77463300Y-91694000D01*
X81725100Y-75141600D02*
X81725100Y-73541600D01*
X81725100Y-107941600D02*
X81725100Y-109541600D01*
X121800300Y-107941600D02*
X116700300Y-107941600D01*
X76625100Y-75141600D02*
X81725100Y-75141600D01*
X116700300Y-107941600D02*
X116700300Y-109541600D01*
X116700300Y-73541600D02*
X116700300Y-75141600D01*
X121800300Y-75141600D02*
X116700300Y-75141600D01*
X76625100Y-107941600D02*
X76625100Y-106335200D01*
X81725100Y-107941600D02*
X76625100Y-107941600D01*
X77463300Y-99299400D02*
X76625100Y-98791400D01*
X121800300Y-107941600D02*
X121800300Y-75141600D01*
X77463300Y-105827200D02*
X76625100Y-106335200D01*
X77463300Y-99299400D02*
X77463300Y-105827200D01*
X81725100Y-109541600D02*
X116700300Y-109541600D01*
X116700300Y-73541600D02*
X81725100Y-73541600D01*
X76625100Y-75141600D02*
X76625100Y-77978000D01*
D11*
X92583000Y-76962000D03*
X90043000Y-76962000D03*
D12*
X81687300Y-100088700D03*
X81687300Y-105088700D03*
D13*
X78987300Y-99088700D03*
X78987300Y-106088700D03*
D14*
X98552000Y-97345500D03*
X98742500Y-99377500D03*
X96901000Y-98806000D03*
X95694500Y-98806000D03*
X94361000Y-98806000D03*
X89916000Y-88011000D03*
X89916000Y-89281000D03*
X88963500Y-88455500D03*
X90551000Y-101600000D03*
X91821000Y-101600000D03*
X87122000Y-89408000D03*
X88074500Y-89281000D03*
X88074500Y-87630000D03*
X89979500Y-83248500D03*
X89039700Y-82423000D03*
X88201500Y-81597500D03*
X88201500Y-83248500D03*
X89979500Y-81978500D03*
X83693000Y-79756000D03*
X93091000Y-82740500D03*
X92964000Y-88773000D03*
X87138290Y-81470500D03*
X87138290Y-83438998D03*
X83693000Y-84264500D03*
X84899500Y-87693496D03*
X83947000Y-100012500D03*
X113157000Y-106680000D03*
X82550000Y-95440500D03*
X103822500Y-87757000D03*
X100520500Y-89027000D03*
X97536000Y-89027000D03*
X97726500Y-94678500D03*
X96774000Y-97028000D03*
X94488000Y-94805500D03*
X119697500Y-89725500D03*
X114554000Y-97091500D03*
X118237000Y-76581000D03*
X88328500Y-97726500D03*
X92456010Y-98806000D03*
X82804014Y-102621513D03*
X91694000Y-98298000D03*
X82804000Y-101981000D03*
X98425000Y-101282506D03*
X86487000Y-94170500D03*
X98422460Y-102207060D03*
X86487000Y-95440500D03*
X98425000Y-92773500D03*
X118173500Y-104584500D03*
X118173500Y-78549500D03*
X116649500Y-95377000D03*
X99123500Y-79946500D03*
X98933000Y-92011500D03*
X118173500Y-100584000D03*
X118173500Y-82550000D03*
X117157500Y-97536000D03*
X99377510Y-82105500D03*
X99441000Y-92710000D03*
X118173500Y-102552500D03*
X118173500Y-80581500D03*
X116649500Y-99758500D03*
X100266492Y-82169000D03*
X96901000Y-101282500D03*
X97472500Y-92773500D03*
X100965000Y-97282000D03*
X100965219Y-98228989D03*
X101282500Y-105918000D03*
X93238320Y-100304600D03*
X97028000Y-104267000D03*
X97539590Y-101282500D03*
X93472000Y-104965488D03*
X90868500Y-89408000D03*
X90868500Y-83439000D03*
X85140456Y-79676658D03*
X82550000Y-94170500D03*
X87249000Y-98171000D03*
X105283000Y-100203000D03*
X80073500Y-92583000D03*
X80010000Y-89979500D03*
X98806000Y-106807000D03*
X100203000Y-103568500D03*
X80010006Y-87693500D03*
X80010000Y-85344000D03*
X87884000Y-101600000D03*
X95885000Y-101282500D03*
X114490500Y-100838000D03*
X99363750Y-101489357D03*
X81915000Y-81661000D03*
X83693000Y-82740500D03*
X94932500Y-101282500D03*
X103886000Y-99377496D03*
X101727008Y-96774000D03*
X118173500Y-96583500D03*
X94170500Y-103251000D03*
X86804506Y-103314500D03*
X82550000Y-96647000D03*
X94107000Y-102235000D03*
X90678000Y-103378000D03*
X83947000Y-78930506D03*
X90868500Y-88074500D03*
X90932000Y-82105500D03*
X90868506Y-78930506D03*
X90868500Y-85407500D03*
X99949000Y-83629500D03*
X102044504Y-78930500D03*
X92432267Y-94742000D03*
X81915000Y-90678000D03*
X100965000Y-99758500D03*
X99314000Y-102742990D03*
X81915000Y-86868000D03*
X91694000Y-94234000D03*
X82423000Y-91567000D03*
X101790500Y-99758500D03*
X99314000Y-103378000D03*
X81915000Y-86169500D03*
X91694000Y-96266000D03*
X83696924Y-87501373D03*
X91694000Y-97282000D03*
X81915000Y-87757000D03*
X97917000Y-92011500D03*
X97980500Y-82042000D03*
X96456500Y-92773500D03*
X97734479Y-80062489D03*
X94429956Y-92773893D03*
X93091000Y-85153500D03*
X94932500Y-92075000D03*
X93091000Y-84264500D03*
X95440500Y-92773500D03*
X93218000Y-81216500D03*
X95948500Y-92075000D03*
X93218000Y-80390996D03*
X83693000Y-88613490D03*
X93378020Y-92661740D03*
X93218000Y-91059000D03*
X92468946Y-97738216D03*
X93218000Y-90043000D03*
X118173500Y-98552000D03*
X100076000Y-100647500D03*
X100965000Y-98806000D03*
X103822500Y-103759000D03*
X100965000Y-94234000D03*
X103855520Y-79380080D03*
X101727000Y-94742000D03*
X102362000Y-84582000D03*
X100965000Y-96266000D03*
X119634000Y-87439500D03*
X101727000Y-95758000D03*
X119634000Y-85407500D03*
X100965000Y-95250000D03*
X99949000Y-86042500D03*
X91675689Y-95268311D03*
X83820000Y-85788500D03*
X92456000Y-96774000D03*
X87191216Y-80645000D03*
X87566500Y-86169500D03*
X92455988Y-95758000D03*
X87327740Y-90769440D03*
X85026504Y-84709000D03*
X93345000Y-101346010D03*
X84074000Y-103271320D03*
X81915000Y-89731013D03*
X85025447Y-81152697D03*
X81910602Y-80449005D03*
X81915000Y-81026000D03*
X85022406Y-81782581D03*
X85026500Y-83058000D03*
X81915000Y-82550000D03*
X85026500Y-83756500D03*
X81923548Y-83126949D03*
X81915000Y-88449987D03*
X84963000Y-89154000D03*
X81915000Y-89027000D03*
X84975170Y-89740335D03*
X84974655Y-86122290D03*
X83693000Y-80772000D03*
X81915000Y-83756500D03*
D15*
X91567000Y-99250500D02*
X86487000Y-94170500D01*
X96901000Y-99250500D02*
X91567000Y-99250500D01*
X98425000Y-101282506D02*
X98425000Y-100774500D01*
X98425000Y-100774500D02*
X96901000Y-99250500D01*
X86711999Y-95665499D02*
X86487000Y-95440500D01*
X97980500Y-101765100D02*
X97980500Y-100965000D01*
X98422460Y-102207060D02*
X97980500Y-101765100D01*
X96647000Y-99631500D02*
X90867238Y-99631500D01*
X90867238Y-99631500D02*
X86901237Y-95665499D01*
X97980500Y-100965000D02*
X96647000Y-99631500D01*
X86901237Y-95665499D02*
X86711999Y-95665499D01*
X118173500Y-104266302D02*
X115951000Y-102043802D01*
X118173500Y-104584500D02*
X118173500Y-104266302D01*
X115951000Y-96075500D02*
X116649500Y-95377000D01*
X115951000Y-102043802D02*
X115951000Y-96075500D01*
X116649500Y-95377000D02*
X117157500Y-94869000D01*
X117157500Y-79565500D02*
X118173500Y-78549500D01*
X117157500Y-94869000D02*
X117157500Y-79565500D01*
X98425000Y-92773500D02*
X98425000Y-80645000D01*
X98425000Y-80645000D02*
X98898501Y-80171499D01*
X98898501Y-80171499D02*
X99123500Y-79946500D01*
X117157500Y-99568000D02*
X117157500Y-97536000D01*
X118173500Y-100584000D02*
X117157500Y-99568000D01*
X118173500Y-95631000D02*
X118173500Y-82550000D01*
X117157500Y-97536000D02*
X117157500Y-96647000D01*
X117157500Y-96647000D02*
X118173500Y-95631000D01*
X98933000Y-92011500D02*
X98933000Y-82550000D01*
X98933000Y-82550000D02*
X99377500Y-82105500D01*
X99377500Y-82105500D02*
X99377510Y-82105500D01*
X116649500Y-101028500D02*
X118173500Y-102552500D01*
X116649500Y-99758500D02*
X116649500Y-101028500D01*
X117948501Y-80806499D02*
X118173500Y-80581500D01*
X117602000Y-81153000D02*
X117948501Y-80806499D01*
X117602000Y-95465177D02*
X117602000Y-81153000D01*
X116649500Y-99758500D02*
X116649500Y-96417677D01*
X116649500Y-96417677D02*
X117602000Y-95465177D01*
X99441000Y-82994492D02*
X100041493Y-82393999D01*
X100041493Y-82393999D02*
X100266492Y-82169000D01*
X99441000Y-92710000D02*
X99441000Y-82994492D01*
X84963000Y-96647000D02*
X82550000Y-96647000D01*
X86804506Y-103314500D02*
X86804506Y-98488506D01*
X86804506Y-98488506D02*
X84963000Y-96647000D01*
X102044504Y-81533996D02*
X102044504Y-78930500D01*
X99949000Y-83629500D02*
X102044504Y-81533996D01*
X100965000Y-99758500D02*
X100965000Y-101091990D01*
X100965000Y-101091990D02*
X99538999Y-102517991D01*
X99538999Y-102517991D02*
X99314000Y-102742990D01*
X101790500Y-100901500D02*
X99314000Y-103378000D01*
X101790500Y-99758500D02*
X101790500Y-100901500D01*
X83248500Y-87949797D02*
X83696924Y-87501373D01*
X83248500Y-89344500D02*
X83248500Y-87949797D01*
X91694000Y-96266000D02*
X90170000Y-96266000D01*
X90170000Y-96266000D02*
X83248500Y-89344500D01*
X82931000Y-88773000D02*
X81915000Y-87757000D01*
X82931000Y-89662000D02*
X82931000Y-88773000D01*
X91694000Y-97282000D02*
X90551000Y-97282000D01*
X90551000Y-97282000D02*
X82931000Y-89662000D01*
X97980500Y-82816700D02*
X97980500Y-82042000D01*
X97917000Y-92011500D02*
X97980500Y-91948000D01*
X97980500Y-91948000D02*
X97980500Y-82816700D01*
X96456500Y-92773500D02*
X96456500Y-81340468D01*
X96456500Y-81340468D02*
X97734479Y-80062489D01*
X94429956Y-86492456D02*
X93091000Y-85153500D01*
X94429956Y-92773893D02*
X94429956Y-86492456D01*
X94932500Y-86106000D02*
X93091000Y-84264500D01*
X94932500Y-92075000D02*
X94932500Y-86106000D01*
X95440500Y-83439000D02*
X93218000Y-81216500D01*
X95440500Y-92773500D02*
X95440500Y-83439000D01*
X95948500Y-83121496D02*
X93218000Y-80390996D01*
X95948500Y-92075000D02*
X95948500Y-83121496D01*
X93378020Y-92661740D02*
X93218000Y-92501720D01*
X93218000Y-92501720D02*
X93218000Y-91059000D01*
X93827600Y-90652600D02*
X93218000Y-90043000D01*
X93827600Y-93352620D02*
X93827600Y-90652600D01*
X93573600Y-93606620D02*
X93827600Y-93352620D01*
X92468946Y-97738216D02*
X93573600Y-96633562D01*
X93573600Y-96633562D02*
X93573600Y-93606620D01*
X103822500Y-100901500D02*
X103822500Y-103440802D01*
X101727000Y-98806000D02*
X103822500Y-100901500D01*
X103822500Y-103440802D02*
X103822500Y-103759000D01*
X100965000Y-98806000D02*
X101727000Y-98806000D01*
X103855520Y-82008980D02*
X103855520Y-79380080D01*
X100965000Y-94234000D02*
X100965000Y-84899500D01*
X100965000Y-84899500D02*
X103855520Y-82008980D01*
X101727000Y-85217000D02*
X102362000Y-84582000D01*
X101727000Y-94742000D02*
X101727000Y-85217000D01*
X99949000Y-94231460D02*
X99949000Y-86042500D01*
X100740001Y-95022461D02*
X99949000Y-94231460D01*
X100965000Y-95250000D02*
X100740001Y-95025001D01*
X100740001Y-95025001D02*
X100740001Y-95022461D01*
X84264500Y-86233000D02*
X83820000Y-85788500D01*
X84264500Y-89725500D02*
X84264500Y-86233000D01*
X91675689Y-95268311D02*
X89807311Y-95268311D01*
X89807311Y-95268311D02*
X84264500Y-89725500D01*
X93139888Y-96090112D02*
X92456000Y-96774000D01*
X93139888Y-94620708D02*
X93139888Y-96090112D01*
X92128340Y-93609160D02*
X93139888Y-94620708D01*
X87191216Y-80645000D02*
X87566500Y-81020284D01*
X87566500Y-81020284D02*
X87566500Y-84899500D01*
X87566500Y-84899500D02*
X87566506Y-84899506D01*
X87566506Y-84899506D02*
X87566506Y-90233506D01*
X87566506Y-90233506D02*
X90942160Y-93609160D01*
X90942160Y-93609160D02*
X92128340Y-93609160D01*
X92455988Y-95439802D02*
X92286506Y-95270320D01*
X91008200Y-94449900D02*
X87327740Y-90769440D01*
X92455988Y-95758000D02*
X92455988Y-95439802D01*
X92286506Y-95270320D02*
X92283280Y-95270320D01*
X92283280Y-95270320D02*
X91719400Y-94706440D01*
X91719400Y-94706440D02*
X91264740Y-94706440D01*
X91264740Y-94706440D02*
X91008200Y-94449900D01*
X85251503Y-84933999D02*
X85026504Y-84709000D01*
X87327740Y-90769440D02*
X85513609Y-88955309D01*
X85513609Y-88955309D02*
X85513609Y-85196105D01*
X85513609Y-85196105D02*
X85251503Y-84933999D01*
M02*
