M48
; DRILL file {KiCad (5.1.4)-1} date 9/4/2019 4:38:24 PM
; FORMAT={-:-/ absolute / inch / decimal}
; #@! TF.CreationDate,2019-09-04T16:38:24-07:00
; #@! TF.GenerationSoftware,Kicad,Pcbnew,(5.1.4)-1
FMAT,2
INCH
T1C0.0118
T2C0.0157
T3C0.0197
T4C0.0236
T5C0.0354
T6C0.0394
T7C0.0472
T8C0.0197
T9C0.1102
%
G90
G05
T1
X3.759Y-4.986
X3.775Y-3.972
X3.775Y-4.049
X3.775Y-4.124
X3.789Y-1.809
X3.79Y-1.885
X3.79Y-1.965
X3.7925Y-2.105
X3.7926Y-2.165
X3.835Y-4.985
X3.8458Y-2.8756
X3.8479Y-2.7991
X3.848Y-2.8254
X3.914Y-2.596
X3.915Y-4.985
X4.0066Y-3.0272
X4.0114Y-2.6786
X4.0172Y-2.5694
X4.0274Y-2.995
X4.031Y-2.538
X4.0414Y-2.6462
X4.0478Y-2.5678
X4.055Y-4.9825
X4.1Y-2.586
X4.107Y-2.803
X4.113Y-2.639
X4.115Y-4.9824
X4.1327Y-3.0081
X4.1438Y-2.8734
X4.144Y-2.804
X4.145Y-2.8277
X4.1535Y-2.8498
X4.1759Y-3.067
X4.18Y-2.621
X4.185Y-2.907
X4.1868Y-2.9558
X4.205Y-2.9967
X4.216Y-2.924
X4.224Y-2.664
X4.25Y-2.92
X4.268Y-2.585
X4.307Y-2.587
X4.3072Y-2.9216
X4.318Y-2.755
X4.3269Y-2.6604
X4.369Y-2.579
X4.404Y-3.013
X4.414Y-2.986
X4.4206Y-2.7861
X4.422Y-2.539
X4.4243Y-2.5811
X4.442Y-2.926
X4.4695Y-3.084
X4.473Y-3.002
X4.484Y-2.846
X4.484Y-2.879
X4.488Y-4.744
X4.489Y-4.353
X4.492Y-2.649
X4.507Y-2.688
X4.5178Y-4.7272
X4.5194Y-4.7578
X4.529Y-4.406
X4.5311Y-4.3507
X4.535Y-4.507
X4.536Y-4.675
X4.537Y-4.468
X4.546Y-4.861
X4.568Y-2.897
X4.571Y-4.595
X4.589Y-4.662
X4.594Y-2.926
X4.5962Y-4.7336
X4.599Y-4.283
X4.6104Y-4.4481
X4.614Y-4.551
X4.6286Y-4.7636
X4.638Y-4.268
X4.651Y-1.825
X4.705Y-4.457
X4.725Y-3.045
X4.725Y-3.075
X4.7251Y-3.1011
X4.726Y-1.825
X4.734Y-2.9984
X4.7361Y-4.3544
X4.7362Y-2.9332
X4.7491Y-4.9271
X4.753Y-4.668
X4.754Y-4.631
X4.7606Y-3.025
X4.7609Y-3.0959
X4.7754Y-4.927
X4.7777Y-4.63
X4.7845Y-2.8842
X4.7867Y-2.9546
X4.7868Y-2.998
X4.789Y-3.764
X4.791Y-3.88
X4.793Y-3.824
X4.7945Y-3.9441
X4.7947Y-3.1006
X4.795Y-3.045
X4.795Y-3.075
X4.795Y-3.92
X4.796Y-4.291
X4.7998Y-4.6215
X4.803Y-1.825
X4.8034Y-2.9746
X4.8116Y-2.8667
X4.814Y-3.723
X4.814Y-3.75
X4.814Y-3.78
X4.814Y-3.81
X4.814Y-3.84
X4.814Y-3.867
X4.8148Y-2.9266
X4.8167Y-3.9634
X4.8234Y-4.6312
X4.824Y-3.889
X4.8256Y-4.9292
X4.829Y-4.291
X4.8309Y-2.8445
X4.8342Y-3.9905
X4.847Y-4.207
X4.855Y-2.845
X4.857Y-4.59
X4.87Y-4.525
X4.8716Y-4.4678
X4.874Y-4.559
X4.876Y-4.181
X4.876Y-4.333
X4.8766Y-3.9602
X4.8832Y-4.0388
X4.886Y-2.874
X4.895Y-2.841
X4.9046Y-3.9883
X4.9058Y-4.5882
X4.908Y-2.864
X4.9246Y-3.9716
X4.935Y-2.864
X4.936Y-4.361
X4.945Y-4.7476
X4.9467Y-4.57
X4.948Y-3.9882
X4.9484Y-4.041
X4.951Y-2.843
X4.952Y-4.302
X4.9581Y-4.6423
X4.963Y-4.371
X4.965Y-2.864
X4.975Y-4.0144
X4.9772Y-4.7684
X4.995Y-2.864
X4.995Y-3.98
X4.995Y-4.05
X5.011Y-2.839
X5.017Y-4.5991
X5.025Y-2.864
X5.025Y-3.98
X5.025Y-4.05
X5.034Y-4.3055
X5.0459Y-4.0141
X5.0506Y-3.9803
X5.0511Y-4.0499
X5.052Y-2.864
X5.673Y-3.961
X5.6739Y-2.7751
X5.6744Y-2.8447
X5.6791Y-2.8109
X5.691Y-2.5195
X5.7Y-2.775
X5.7Y-2.845
X5.7Y-3.961
X5.708Y-2.2259
X5.714Y-3.986
X5.73Y-2.775
X5.73Y-2.845
X5.73Y-3.961
X5.7478Y-2.0566
X5.75Y-2.8106
X5.76Y-3.961
X5.762Y-2.454
X5.7669Y-2.1827
X5.773Y-2.523
X5.774Y-3.982
X5.7766Y-2.784
X5.777Y-2.8368
X5.7783Y-2.255
X5.78Y-2.0774
X5.789Y-2.464
X5.79Y-3.961
X5.8004Y-2.8534
X5.817Y-3.961
X5.8192Y-2.2368
X5.8204Y-2.8367
X5.83Y-3.984
X5.839Y-3.951
X5.8418Y-2.7862
X5.8484Y-2.8648
X5.849Y-2.492
X5.849Y-2.644
X5.851Y-2.266
X5.8534Y-2.3572
X5.855Y-2.3
X5.868Y-2.235
X5.87Y-3.98
X5.878Y-2.618
X5.8908Y-2.8345
X5.8941Y-3.9805
X5.896Y-2.534
X5.8994Y-1.8958
X5.901Y-2.936
X5.9016Y-2.1938
X5.9083Y-2.8616
X5.9102Y-3.8984
X5.911Y-2.958
X5.911Y-2.985
X5.911Y-3.015
X5.911Y-3.045
X5.911Y-3.075
X5.911Y-3.102
X5.9134Y-3.9583
X5.9216Y-3.8504
X5.922Y-5.0
X5.9252Y-2.2035
X5.929Y-2.534
X5.93Y-2.905
X5.93Y-3.75
X5.93Y-3.78
X5.9303Y-3.7244
X5.9305Y-2.8809
X5.932Y-3.001
X5.934Y-2.945
X5.936Y-3.061
X5.9382Y-3.827
X5.9383Y-3.8704
X5.9405Y-3.9408
X5.9473Y-2.195
X5.9496Y-1.898
X5.9641Y-3.7291
X5.9644Y-3.8
X5.971Y-2.194
X5.972Y-2.157
X5.9759Y-1.8979
X5.9888Y-3.8918
X5.9889Y-2.4706
X5.991Y-3.8266
X5.999Y-5.0
X5.9999Y-3.7239
X6.0Y-3.75
X6.0Y-3.78
X6.02Y-2.368
X6.074Y-5.0
X6.087Y-2.557
X6.0964Y-2.0614
X6.111Y-2.274
X6.1146Y-2.3769
X6.126Y-2.542
X6.1288Y-2.0914
X6.131Y-3.899
X6.136Y-2.163
X6.154Y-2.23
X6.157Y-3.928
X6.179Y-1.964
X6.188Y-2.357
X6.189Y-2.15
X6.19Y-2.318
X6.1939Y-2.4743
X6.196Y-2.419
X6.2056Y-2.0672
X6.2072Y-2.0978
X6.218Y-4.137
X6.233Y-4.176
X6.236Y-2.472
X6.237Y-2.081
X6.241Y-3.946
X6.241Y-3.979
X6.252Y-3.823
X6.2555Y-3.741
X6.283Y-3.899
X6.3007Y-4.2439
X6.303Y-4.286
X6.3044Y-4.0389
X6.311Y-3.839
X6.321Y-3.812
X6.356Y-4.246
X6.3981Y-4.1646
X6.407Y-4.07
X6.4178Y-3.9034
X6.418Y-4.238
X6.457Y-4.24
X6.475Y-3.905
X6.501Y-4.161
X6.509Y-3.901
X6.52Y-3.8283
X6.5382Y-3.8692
X6.54Y-3.918
X6.545Y-4.204
X6.5491Y-3.758
X6.5715Y-3.9752
X6.58Y-3.9973
X6.581Y-4.021
X6.5812Y-3.9516
X6.5923Y-3.8169
X6.61Y-1.8426
X6.612Y-4.186
X6.618Y-4.022
X6.625Y-4.239
X6.67Y-1.8425
X6.6772Y-4.2572
X6.6836Y-4.1788
X6.694Y-4.287
X6.6976Y-3.83
X6.7078Y-4.2556
X6.7136Y-4.1464
X6.7184Y-3.7978
X6.81Y-1.84
X6.811Y-4.229
X6.877Y-3.9996
X6.8771Y-4.0259
X6.8792Y-3.9494
X6.89Y-1.84
X6.9324Y-4.66
X6.9325Y-4.72
X6.935Y-4.86
X6.935Y-4.94
X6.936Y-5.016
X6.95Y-2.701
X6.95Y-2.776
X6.95Y-2.853
X6.966Y-1.839
T2
X4.6621Y-3.0981
X4.6624Y-2.9836
X4.677Y-2.935
X4.699Y-2.965
X4.702Y-3.727
X4.702Y-3.77
X4.702Y-3.921
X4.7022Y-3.0067
X4.7023Y-3.87
X4.704Y-2.889
X4.71Y-2.92
X4.731Y-3.745
X4.731Y-3.882
X4.732Y-3.964
X4.735Y-2.895
X4.737Y-3.924
X4.759Y-2.869
X4.76Y-2.833
X4.7679Y-3.9518
X4.775Y-3.735
X4.775Y-3.795
X4.775Y-3.855
X4.775Y-3.905
X4.783Y-4.015
X4.792Y-2.842
X4.792Y-3.983
X4.811Y-2.782
X4.819Y-4.016
X4.8232Y-2.8179
X4.839Y-4.071
X4.845Y-4.04
X4.851Y-2.787
X4.854Y-2.752
X4.87Y-2.825
X4.87Y-4.065
X4.885Y-4.098
X4.893Y-2.781
X4.905Y-2.7523
X4.915Y-4.076
X4.92Y-2.825
X4.9336Y-4.1126
X4.9567Y-4.0728
X4.98Y-2.825
X5.005Y-2.752
X5.03Y-2.781
X5.04Y-2.825
X5.048Y-2.752
X5.0481Y-4.1129
X5.064Y-3.43
X5.064Y-3.505
X5.064Y-3.565
X5.065Y-3.624
X5.069Y-3.379
X5.0839Y-3.475
X5.0839Y-3.535
X5.0839Y-3.595
X5.0839Y-3.6518
X5.0997Y-3.3298
X5.102Y-3.43
X5.109Y-3.279
X5.109Y-3.379
X5.121Y-3.696
X5.123Y-3.157
X5.137Y-3.225
X5.1412Y-3.535
X5.1412Y-3.595
X5.1412Y-3.655
X5.143Y-3.471
X5.149Y-3.379
X5.169Y-3.339
X5.176Y-3.525
X5.176Y-3.567
X5.176Y-3.627
X5.189Y-3.379
X5.194Y-3.409
X5.194Y-3.466
X5.194Y-3.499
X5.201Y-3.721
X5.203Y-3.157
X5.211Y-3.655
X5.2155Y-3.615
X5.227Y-3.501
X5.26Y-3.3875
X5.26Y-3.4275
X5.26Y-3.4675
X5.2605Y-3.64
X5.265Y-3.54
X5.281Y-3.157
X5.281Y-3.721
X5.299Y-3.621
X5.3Y-3.3875
X5.3Y-3.4275
X5.3Y-3.4675
X5.3072Y-3.3198
X5.3237Y-3.2588
X5.34Y-3.3875
X5.34Y-3.4275
X5.34Y-3.4675
X5.359Y-3.157
X5.361Y-3.721
X5.372Y-3.519
X5.3739Y-3.3537
X5.387Y-3.563
X5.3962Y-3.2859
X5.4078Y-3.4003
X5.433Y-3.487
X5.439Y-3.157
X5.439Y-3.721
X5.4466Y-3.4431
X5.451Y-3.553
X5.457Y-3.589
X5.459Y-3.473
X5.468Y-3.317
X5.485Y-3.607
X5.489Y-3.249
X5.503Y-3.398
X5.505Y-3.348
X5.517Y-3.157
X5.517Y-3.721
X5.519Y-3.527
X5.535Y-3.485
X5.541Y-3.349
X5.557Y-3.295
X5.557Y-3.443
X5.557Y-3.581
X5.597Y-3.157
X5.597Y-3.721
X5.6769Y-2.7121
X5.677Y-4.073
X5.685Y-4.0
X5.695Y-4.044
X5.72Y-4.073
X5.745Y-4.0
X5.7683Y-2.7522
X5.7914Y-2.7124
X5.805Y-4.0
X5.81Y-2.749
X5.82Y-4.0727
X5.832Y-4.044
X5.84Y-2.727
X5.855Y-2.76
X5.855Y-4.0
X5.871Y-4.073
X5.874Y-4.038
X5.88Y-2.785
X5.886Y-2.754
X5.9018Y-4.0071
X5.906Y-2.809
X5.914Y-4.043
X5.933Y-2.842
X5.933Y-3.983
X5.942Y-2.81
X5.95Y-2.92
X5.95Y-2.97
X5.95Y-3.03
X5.95Y-3.09
X5.9571Y-2.8732
X5.965Y-3.992
X5.966Y-3.956
X5.988Y-2.901
X5.99Y-3.93
X5.993Y-2.861
X5.994Y-2.943
X5.994Y-3.08
X6.015Y-3.905
X6.021Y-3.936
X6.0227Y-2.955
X6.0228Y-3.8183
X6.023Y-2.904
X6.023Y-3.055
X6.023Y-3.098
X6.026Y-3.86
X6.048Y-3.89
X6.0626Y-3.8414
X6.0629Y-3.7269
T3
X5.5569Y-3.6925
X5.5569Y-3.7555
X5.2419Y-3.6925
X5.2419Y-3.7555
X5.0676Y-4.461
X5.6569Y-2.5637
X5.0681Y-4.1613
X5.6356Y-3.1245
X5.6356Y-3.1875
X6.2113Y-3.7069
X5.4781Y-3.1245
X5.4781Y-3.1875
X4.314Y-3.1176
X6.411Y-3.7074
X6.3113Y-3.7069
X4.5137Y-3.1181
X5.1632Y-3.1245
X5.1632Y-3.1875
X5.2419Y-3.1245
X5.2419Y-3.1875
X5.0681Y-4.2613
X5.3206Y-3.6925
X5.3206Y-3.7555
X5.6569Y-2.4637
X5.3994Y-3.1245
X5.3994Y-3.1875
X4.6137Y-3.1181
X5.5569Y-3.1245
X5.5569Y-3.1875
X5.6574Y-2.364
X4.4137Y-3.1181
X5.3994Y-3.6925
X5.3994Y-3.7555
X5.4781Y-3.6925
X5.4781Y-3.7555
X5.6356Y-3.6925
X5.6356Y-3.7555
X5.0844Y-3.1245
X5.0844Y-3.1875
X5.6569Y-2.6637
X5.3206Y-3.1245
X5.3206Y-3.1875
X6.1113Y-3.7069
X5.1632Y-3.6925
X5.1632Y-3.7555
X5.0681Y-4.3613
X5.0844Y-3.6925
X5.0844Y-3.7555
T4
X4.8585Y-3.8542
X4.8672Y-3.8049
X4.8759Y-3.7557
X5.8491Y-3.0693
X5.8578Y-3.0201
X5.8665Y-2.9708
X4.9208Y-2.9085
X4.9701Y-2.9172
X5.0193Y-2.9259
X4.9223Y-3.9219
X4.9715Y-3.9132
X5.0208Y-3.9046
X4.8531Y-2.9723
X4.8618Y-3.0215
X4.8704Y-3.0708
X5.7057Y-3.8991
X5.7549Y-3.9078
X5.8042Y-3.9165
X5.7042Y-2.9204
X5.7535Y-2.9118
X5.8027Y-2.9031
X5.8546Y-3.7542
X5.8632Y-3.8035
X5.8719Y-3.8527
T5
X5.8516Y-1.9413
X6.0484Y-1.9413
X6.8337Y-3.9016
X6.8337Y-4.0984
X4.6766Y-4.8837
X4.8734Y-4.8837
X3.8913Y-2.7266
X3.8913Y-2.9234
T6
X6.184Y-3.2355
X6.184Y-3.3355
X6.184Y-3.4355
X6.184Y-3.5355
X4.141Y-3.7665
X4.141Y-3.8665
X6.084Y-3.2355
X6.9707Y-3.485
X4.041Y-3.2895
X4.041Y-3.3895
X4.041Y-3.4895
X4.041Y-3.5895
X4.641Y-3.7665
X4.641Y-3.8665
X4.9085Y-2.691
X5.0085Y-2.691
X6.9707Y-3.285
X6.584Y-3.2355
X6.584Y-3.3355
X6.584Y-3.4355
X6.584Y-3.5355
X5.2395Y-4.834
X5.3395Y-4.834
X5.4395Y-4.834
X5.5395Y-4.834
X3.7543Y-3.34
X4.9085Y-2.191
X5.0085Y-2.191
X4.7276Y-3.8165
X4.7276Y-3.5395
X5.1855Y-2.391
X5.2855Y-2.391
X5.3855Y-2.391
X5.4855Y-2.391
X5.7165Y-4.734
X5.8165Y-4.734
X5.3895Y-4.0474
X4.241Y-3.7665
X4.241Y-3.8665
X5.1855Y-2.491
X5.2855Y-2.491
X5.3855Y-2.491
X5.4855Y-2.491
X5.7165Y-4.134
X5.8165Y-4.134
X5.235Y-1.8043
X5.1855Y-1.991
X5.2855Y-1.991
X5.3855Y-1.991
X5.4855Y-1.991
X6.684Y-2.9585
X6.684Y-3.0585
X5.435Y-1.8043
X5.7165Y-4.234
X5.8165Y-4.234
X4.141Y-3.2895
X4.141Y-3.3895
X4.141Y-3.4895
X4.141Y-3.5895
X6.084Y-3.4355
X3.8407Y-3.29
X3.8407Y-3.39
X3.8407Y-3.49
X3.8407Y-3.59
X5.5395Y-4.134
X5.2855Y-2.691
X6.684Y-3.2355
X6.684Y-3.3355
X6.684Y-3.4355
X6.684Y-3.5355
X6.784Y-3.2355
X6.784Y-3.3355
X6.784Y-3.4355
X6.784Y-3.5355
X4.241Y-3.2895
X4.241Y-3.3895
X4.241Y-3.4895
X4.241Y-3.5895
X4.641Y-3.5895
X6.484Y-3.2355
X6.484Y-3.3355
X6.484Y-3.4355
X6.484Y-3.5355
X6.8843Y-3.235
X6.8843Y-3.335
X6.8843Y-3.435
X6.8843Y-3.535
X4.041Y-3.7665
X4.041Y-3.8665
X5.7665Y-4.8206
X4.441Y-3.2895
X4.441Y-3.3895
X4.441Y-3.4895
X4.441Y-3.5895
X4.9085Y-2.591
X5.0085Y-2.591
X5.2395Y-4.534
X5.3395Y-4.534
X5.4395Y-4.534
X5.5395Y-4.534
X5.29Y-5.0207
X6.284Y-2.9585
X6.284Y-3.0585
X4.9585Y-2.0044
X5.7165Y-4.634
X5.8165Y-4.634
X5.335Y-1.8043
X6.384Y-2.9585
X6.384Y-3.0585
X4.541Y-3.2895
X4.541Y-3.3895
X4.541Y-3.4895
X4.541Y-3.5895
X5.7165Y-4.534
X5.8165Y-4.534
X5.39Y-5.0207
X4.9085Y-2.291
X5.0085Y-2.291
X6.084Y-2.9585
X6.084Y-3.0585
X5.185Y-1.8907
X5.285Y-1.8907
X5.385Y-1.8907
X5.485Y-1.8907
X5.2395Y-4.634
X5.3395Y-4.634
X5.4395Y-4.634
X5.5395Y-4.634
X5.2395Y-4.334
X5.3395Y-4.334
X5.4395Y-4.334
X5.5395Y-4.334
X4.341Y-3.2895
X4.341Y-3.3895
X4.341Y-3.4895
X4.341Y-3.5895
X5.1855Y-2.291
X5.2855Y-2.291
X5.3855Y-2.291
X5.4855Y-2.291
X5.3855Y-2.691
X5.9974Y-3.3855
X6.584Y-2.9585
X6.584Y-3.0585
X5.3355Y-2.7776
X5.2395Y-4.734
X5.3395Y-4.734
X5.4395Y-4.734
X5.5395Y-4.734
X4.641Y-3.4895
X6.284Y-3.2355
X6.284Y-3.3355
X6.284Y-3.4355
X6.284Y-3.5355
X5.49Y-5.0207
X3.9544Y-3.8165
X6.384Y-3.2355
X6.384Y-3.3355
X6.384Y-3.4355
X6.384Y-3.5355
X5.3395Y-4.134
X4.441Y-3.7665
X4.441Y-3.8665
X4.9085Y-2.091
X5.0085Y-2.091
X5.2395Y-4.234
X5.3395Y-4.234
X5.4395Y-4.234
X5.5395Y-4.234
X5.9974Y-3.2855
X4.9085Y-2.491
X5.0085Y-2.491
X6.7706Y-3.0085
X4.7276Y-3.4395
X5.1855Y-2.591
X5.2855Y-2.591
X5.3855Y-2.591
X5.4855Y-2.591
X5.7165Y-4.334
X5.8165Y-4.334
X3.7543Y-3.54
X5.9974Y-3.0085
X5.2395Y-4.434
X5.3395Y-4.434
X5.4395Y-4.434
X5.5395Y-4.434
X5.4395Y-4.134
X4.641Y-3.3895
X5.7665Y-4.0474
X6.084Y-3.3355
X3.941Y-3.2895
X3.941Y-3.3895
X3.941Y-3.4895
X3.941Y-3.5895
X5.1855Y-2.091
X5.2855Y-2.091
X5.3855Y-2.091
X5.4855Y-2.091
X5.7165Y-4.434
X5.8165Y-4.434
X5.1855Y-2.691
X6.484Y-2.9585
X6.484Y-3.0585
X4.9085Y-2.391
X5.0085Y-2.391
X5.24Y-4.9343
X5.34Y-4.9343
X5.44Y-4.9343
X5.54Y-4.9343
X5.4895Y-4.0474
X3.7543Y-3.44
X5.1855Y-2.191
X5.2855Y-2.191
X5.3855Y-2.191
X5.4855Y-2.191
X6.184Y-2.9585
X6.184Y-3.0585
X4.541Y-3.7665
X4.541Y-3.8665
X5.2355Y-2.7776
X6.9707Y-3.385
X4.341Y-3.7665
X4.341Y-3.8665
X4.9585Y-2.7776
T7
X4.6372Y-4.99
X4.9128Y-4.99
X3.785Y-2.6872
X3.785Y-2.9628
X5.8122Y-1.835
X6.0878Y-1.835
X6.94Y-3.8622
X6.94Y-4.1378
T8
X3.41Y-1.75
X3.4567Y-1.75
X3.5033Y-1.75
X3.55Y-1.75
X3.6821Y-4.2025
X3.6821Y-4.2487
X3.6821Y-4.295
X3.6821Y-4.3413
X3.6821Y-4.3875
X3.9825Y-3.2151
X4.0287Y-3.2151
X4.075Y-3.2151
X4.1213Y-3.2151
X4.1675Y-3.2151
X5.6491Y-1.9575
X5.6491Y-2.0037
X5.6491Y-2.05
X5.6491Y-2.0963
X5.6491Y-2.1425
X7.0429Y-2.4575
X7.0429Y-2.5037
X7.0429Y-2.55
X7.0429Y-2.5963
X7.0429Y-2.6425
X5.125Y-5.2
X5.125Y-5.25
X5.125Y-5.3
X5.125Y-5.35
X7.0404Y-4.6025
X7.0404Y-4.6487
X7.0404Y-4.695
X7.0404Y-4.7413
X7.0404Y-4.7875
X7.155Y-3.4
X7.195Y-3.4
X7.235Y-3.4
X7.275Y-3.4
X7.315Y-3.4
X3.6846Y-2.0875
X3.6846Y-2.1337
X3.6846Y-2.18
X3.6846Y-2.2263
X3.6846Y-2.2725
X7.155Y-5.05
X7.195Y-5.05
X7.235Y-5.05
X7.275Y-5.05
X7.315Y-5.05
X4.8029Y-3.4575
X4.8029Y-3.5037
X4.8029Y-3.55
X4.8029Y-3.5963
X4.8029Y-3.6425
X3.41Y-3.4
X3.4567Y-3.4
X3.5033Y-3.4
X3.55Y-3.4
X6.5575Y-3.6991
X6.6037Y-3.6991
X6.65Y-3.6991
X6.6963Y-3.6991
X6.7425Y-3.6991
X5.0759Y-4.6075
X5.0759Y-4.6537
X5.0759Y-4.7
X5.0759Y-4.7463
X5.0759Y-4.7925
X6.1375Y-5.0929
X6.1837Y-5.0929
X6.23Y-5.0929
X6.2763Y-5.0929
X6.3225Y-5.0929
X4.0275Y-5.0904
X4.0737Y-5.0904
X4.12Y-5.0904
X4.1663Y-5.0904
X4.2125Y-5.0904
X5.0372Y-3.4575
X5.0372Y-3.5037
X5.0372Y-3.55
X5.0372Y-3.5963
X5.0372Y-3.6425
X7.155Y-1.75
X7.195Y-1.75
X7.235Y-1.75
X7.275Y-1.75
X7.315Y-1.75
X5.6829Y-3.2075
X5.6829Y-3.2537
X5.6829Y-3.3
X5.6829Y-3.3463
X5.6829Y-3.3925
X5.5599Y-1.9575
X5.5599Y-2.0037
X5.5599Y-2.05
X5.5599Y-2.0963
X5.5599Y-2.1425
X6.245Y-1.45
X6.245Y-1.5
X6.245Y-1.55
X6.245Y-1.6
X5.9221Y-3.2075
X5.9221Y-3.2537
X5.9221Y-3.3
X5.9221Y-3.3463
X5.9221Y-3.3925
X3.9825Y-3.1259
X4.0287Y-3.1259
X4.075Y-3.1259
X4.1213Y-3.1259
X4.1675Y-3.1259
X6.5575Y-3.6099
X6.6037Y-3.6099
X6.65Y-3.6099
X6.6963Y-3.6099
X6.7425Y-3.6099
X4.905Y-1.45
X4.905Y-1.5
X4.905Y-1.55
X4.905Y-1.6
X3.41Y-5.1
X3.4567Y-5.1
X3.5033Y-5.1
X3.55Y-5.1
X5.1651Y-4.6075
X5.1651Y-4.6537
X5.1651Y-4.7
X5.1651Y-4.7463
X5.1651Y-4.7925
X4.4075Y-1.7321
X4.4537Y-1.7321
X4.5Y-1.7321
X4.5463Y-1.7321
X4.5925Y-1.7321
X6.5275Y-1.7346
X6.5737Y-1.7346
X6.62Y-1.7346
X6.6663Y-1.7346
X6.7125Y-1.7346
T9
X5.7697Y-4.9708
X3.8042Y-3.8197
X4.9553Y-1.8542
X6.9208Y-3.0053
T0
M30
