G04 #@! TF.GenerationSoftware,KiCad,Pcbnew,(5.1.4)-1*
G04 #@! TF.CreationDate,2019-09-04T16:38:23-07:00*
G04 #@! TF.ProjectId,output.sprite_panel,6f757470-7574-42e7-9370-726974655f70,rev?*
G04 #@! TF.SameCoordinates,Original*
G04 #@! TF.FileFunction,Profile,NP*
%FSLAX46Y46*%
G04 Gerber Fmt 4.6, Leading zero omitted, Abs format (unit mm)*
G04 Created by KiCad (PCBNEW (5.1.4)-1) date 2019-09-04 16:38:23*
%MOMM*%
%LPD*%
G04 APERTURE LIST*
%ADD10C,0.150000*%
%ADD11C,0.050800*%
%ADD12C,0.100000*%
G04 APERTURE END LIST*
D10*
X143649700Y-98425000D02*
X147828000Y-94158400D01*
X142506700Y-129159000D02*
X131394200Y-129159000D01*
X143648956Y-98425000D02*
X143648956Y-108686600D01*
X142506700Y-129159000D02*
X142507444Y-121564400D01*
X178624900Y-97536000D02*
X178624900Y-94158400D01*
X177800000Y-105156000D02*
X178624900Y-105664000D01*
X131394200Y-105156000D02*
X135458200Y-101092000D01*
X135458200Y-101092000D02*
X142507444Y-101092000D01*
X142507444Y-108686600D02*
X142507444Y-101092000D01*
X142506700Y-119100600D02*
X142506700Y-111150400D01*
X177800000Y-105156000D02*
X177800000Y-98044000D01*
X177800000Y-98044000D02*
X178624900Y-97536000D01*
X143648956Y-121564400D02*
X143649700Y-129158400D01*
X143648956Y-111150400D02*
X143648956Y-119100600D01*
X142507444Y-121564400D02*
G75*
G02X143648956Y-121564400I570756J0D01*
G01*
X143648956Y-119100600D02*
G75*
G02X142507444Y-119100600I-570756J0D01*
G01*
X142507444Y-111150400D02*
G75*
G02X143648956Y-111150400I570756J0D01*
G01*
X143648956Y-108686600D02*
G75*
G02X142507444Y-108686600I-570756J0D01*
G01*
X147955000Y-79235300D02*
X143688400Y-75057000D01*
X158216600Y-79236044D02*
G75*
G02X158216600Y-80377556I0J-570756D01*
G01*
X171094400Y-80377556D02*
G75*
G02X171094400Y-79236044I0J570756D01*
G01*
X160680400Y-80377556D02*
G75*
G02X160680400Y-79236044I0J570756D01*
G01*
X168630600Y-79236044D02*
G75*
G02X168630600Y-80377556I0J-570756D01*
G01*
X168630600Y-80378300D02*
X160680400Y-80378300D01*
X158216600Y-80377556D02*
X150622000Y-80377556D01*
X178689000Y-80378300D02*
X178689000Y-91490800D01*
X147955000Y-79236044D02*
X158216600Y-79236044D01*
X171094400Y-79236044D02*
X178688400Y-79235300D01*
X160680400Y-79236044D02*
X168630600Y-79236044D01*
X154686000Y-45085000D02*
X147574000Y-45085000D01*
X147574000Y-45085000D02*
X147066000Y-44260100D01*
X147066000Y-44260100D02*
X143688400Y-44260100D01*
X178689000Y-80378300D02*
X171094400Y-80377556D01*
X154686000Y-91490800D02*
X150622000Y-87426800D01*
X154686000Y-45085000D02*
X155194000Y-44260100D01*
D11*
X86614000Y-36890000D02*
X185740000Y-36890000D01*
X185740000Y-135890000D02*
X185740000Y-36890000D01*
X86614000Y-135890000D02*
X86614000Y-36890000D01*
X86614000Y-135890000D02*
X185740000Y-135890000D01*
D10*
X128766044Y-54254400D02*
G75*
G02X129907556Y-54254400I570756J0D01*
G01*
X129907556Y-51790600D02*
G75*
G02X128766044Y-51790600I-570756J0D01*
G01*
X128766044Y-64668400D02*
G75*
G02X129907556Y-64668400I570756J0D01*
G01*
X129907556Y-62204600D02*
G75*
G02X128766044Y-62204600I-570756J0D01*
G01*
X128765300Y-74930000D02*
X124587000Y-79196600D01*
X129908300Y-54254400D02*
X129908300Y-62204600D01*
X129908300Y-44196000D02*
X129907556Y-51790600D01*
X129907556Y-64668400D02*
X129907556Y-72263000D01*
X128766044Y-74930000D02*
X128766044Y-64668400D01*
X128766044Y-62204600D02*
X128766044Y-54254400D01*
X128766044Y-51790600D02*
X128765300Y-44196600D01*
X136956800Y-72263000D02*
X129907556Y-72263000D01*
X141020800Y-68199000D02*
X136956800Y-72263000D01*
X129908300Y-44196000D02*
X141020800Y-44196000D01*
X94615000Y-68199000D02*
X93790100Y-67691000D01*
X94615000Y-75311000D02*
X93790100Y-75819000D01*
X93790100Y-75819000D02*
X93790100Y-79196600D01*
X94615000Y-68199000D02*
X94615000Y-75311000D01*
X103784400Y-94118956D02*
G75*
G02X103784400Y-92977444I0J570756D01*
G01*
X101320600Y-92977444D02*
G75*
G02X101320600Y-94118956I0J-570756D01*
G01*
X114198400Y-94118956D02*
G75*
G02X114198400Y-92977444I0J570756D01*
G01*
X111734600Y-92977444D02*
G75*
G02X111734600Y-94118956I0J-570756D01*
G01*
X124460000Y-94119700D02*
X128726600Y-98298000D01*
X103784400Y-92976700D02*
X111734600Y-92976700D01*
X93726000Y-92976700D02*
X101320600Y-92977444D01*
X114198400Y-92977444D02*
X121793000Y-92977444D01*
X124460000Y-94118956D02*
X114198400Y-94118956D01*
X111734600Y-94118956D02*
X103784400Y-94118956D01*
X101320600Y-94118956D02*
X93726600Y-94119700D01*
X117729000Y-81864200D02*
X121793000Y-85928200D01*
X93726000Y-92976700D02*
X93726000Y-81864200D01*
X117729000Y-128270000D02*
X117221000Y-129094900D01*
X124841000Y-128270000D02*
X125349000Y-129094900D01*
X125349000Y-129094900D02*
X128726600Y-129094900D01*
X117729000Y-128270000D02*
X124841000Y-128270000D01*
D12*
X144145000Y-95123000D02*
X143891000Y-95377000D01*
X128397000Y-95377000D02*
X128143000Y-95123000D01*
X128143000Y-79629000D02*
X128397000Y-79375000D01*
X143891000Y-79375000D02*
X144145000Y-79629000D01*
X143891000Y-79375000D02*
X128397000Y-79375000D01*
X128397000Y-95375000D02*
X143891000Y-95375000D01*
X160741998Y-132080000D02*
X181736000Y-132080000D01*
X155742010Y-129158400D02*
X143649700Y-129158400D01*
X160742013Y-129158400D02*
X178624900Y-129158400D01*
X160741998Y-132080000D02*
X160642294Y-132072313D01*
X160742013Y-129158400D02*
X160642309Y-129166087D01*
X160642294Y-132072313D02*
X160543476Y-132056985D01*
X160642309Y-129166087D02*
X160543491Y-129181415D01*
X160543476Y-132056985D02*
X160446129Y-132034107D01*
X160543491Y-129181415D02*
X160446144Y-129204293D01*
X160446129Y-132034107D02*
X160350829Y-132003814D01*
X160446144Y-129204293D02*
X160350844Y-129234586D01*
X160350829Y-132003814D02*
X160258139Y-131966285D01*
X160350844Y-129234586D02*
X160258154Y-129272115D01*
X160258139Y-131966285D02*
X160168608Y-131921742D01*
X160258154Y-129272115D02*
X160168623Y-129316658D01*
X160168608Y-131921742D02*
X160082766Y-131870449D01*
X160168623Y-129316658D02*
X160082781Y-129367951D01*
X160082766Y-131870449D02*
X160001121Y-131812709D01*
X160082781Y-129367951D02*
X160001136Y-129425691D01*
X160001121Y-131812709D02*
X159924156Y-131748864D01*
X160001136Y-129425691D02*
X159924171Y-129489536D01*
X159924156Y-131748864D02*
X159852326Y-131679292D01*
X159924171Y-129489536D02*
X159852341Y-129559108D01*
X159852326Y-131679292D02*
X159786056Y-131604405D01*
X159852341Y-129559108D02*
X159786071Y-129633995D01*
X159786056Y-131604405D02*
X159725738Y-131524646D01*
X159786071Y-129633995D02*
X159725753Y-129713754D01*
X159725738Y-131524646D02*
X159671729Y-131440487D01*
X159725753Y-129713754D02*
X159671744Y-129797913D01*
X159671729Y-131440487D02*
X159624349Y-131352426D01*
X159671744Y-129797913D02*
X159624364Y-129885974D01*
X159624349Y-131352426D02*
X159583878Y-131260984D01*
X159624364Y-129885974D02*
X159583893Y-129977416D01*
X159583878Y-131260984D02*
X159550556Y-131166702D01*
X159583893Y-129977416D02*
X159550571Y-130071698D01*
X159550556Y-131166702D02*
X159524580Y-131070138D01*
X159550571Y-130071698D02*
X159524595Y-130168262D01*
X159524580Y-131070138D02*
X159506103Y-130971863D01*
X159524595Y-130168262D02*
X159506118Y-130266537D01*
X159506103Y-130971863D02*
X159495235Y-130872458D01*
X159506118Y-130266537D02*
X159495250Y-130365942D01*
X159495235Y-130872458D02*
X159492040Y-130772512D01*
X159495250Y-130365942D02*
X159492055Y-130465888D01*
X159492040Y-130772512D02*
X159492055Y-130465888D01*
X155742055Y-132080000D02*
X155841759Y-132072313D01*
X155742010Y-129158400D02*
X155841714Y-129166087D01*
X155841759Y-132072313D02*
X155940577Y-132056985D01*
X155841714Y-129166087D02*
X155940532Y-129181415D01*
X155940577Y-132056985D02*
X156037924Y-132034107D01*
X155940532Y-129181415D02*
X156037879Y-129204293D01*
X156037924Y-132034107D02*
X156133224Y-132003814D01*
X156037879Y-129204293D02*
X156133179Y-129234586D01*
X156133224Y-132003814D02*
X156225914Y-131966285D01*
X156133179Y-129234586D02*
X156225869Y-129272115D01*
X156225914Y-131966285D02*
X156315445Y-131921742D01*
X156225869Y-129272115D02*
X156315400Y-129316658D01*
X156315445Y-131921742D02*
X156401287Y-131870449D01*
X156315400Y-129316658D02*
X156401242Y-129367951D01*
X156401287Y-131870449D02*
X156482932Y-131812709D01*
X156401242Y-129367951D02*
X156482887Y-129425691D01*
X156482932Y-131812709D02*
X156559897Y-131748864D01*
X156482887Y-129425691D02*
X156559852Y-129489536D01*
X156559897Y-131748864D02*
X156631727Y-131679292D01*
X156559852Y-129489536D02*
X156631682Y-129559108D01*
X156631727Y-131679292D02*
X156697997Y-131604405D01*
X156631682Y-129559108D02*
X156697952Y-129633995D01*
X156697997Y-131604405D02*
X156758315Y-131524646D01*
X156697952Y-129633995D02*
X156758270Y-129713754D01*
X156758315Y-131524646D02*
X156812324Y-131440487D01*
X156758270Y-129713754D02*
X156812279Y-129797913D01*
X156812324Y-131440487D02*
X156859704Y-131352426D01*
X156812279Y-129797913D02*
X156859659Y-129885974D01*
X156859704Y-131352426D02*
X156900175Y-131260984D01*
X156859659Y-129885974D02*
X156900130Y-129977416D01*
X156900175Y-131260984D02*
X156933497Y-131166702D01*
X156900130Y-129977416D02*
X156933452Y-130071698D01*
X156933497Y-131166702D02*
X156959473Y-131070138D01*
X156933452Y-130071698D02*
X156959428Y-130168262D01*
X156959473Y-131070138D02*
X156977950Y-130971863D01*
X156959428Y-130168262D02*
X156977905Y-130266537D01*
X156977950Y-130971863D02*
X156988818Y-130872458D01*
X156977905Y-130266537D02*
X156988773Y-130365942D01*
X156988818Y-130872458D02*
X156992013Y-130772512D01*
X156988773Y-130365942D02*
X156991968Y-130465888D01*
X156992013Y-130772512D02*
X156991968Y-130465888D01*
X128726600Y-121880008D02*
X128726600Y-129094900D01*
X128726600Y-116879990D02*
X128726600Y-98298000D01*
X131394200Y-121879995D02*
X131394200Y-129158400D01*
X131394200Y-116879990D02*
X131394200Y-105156000D01*
X131394200Y-121879995D02*
X131386513Y-121780291D01*
X128726600Y-121880008D02*
X128734287Y-121780304D01*
X131386513Y-121780291D02*
X131371185Y-121681473D01*
X128734287Y-121780304D02*
X128749615Y-121681486D01*
X131371185Y-121681473D02*
X131348307Y-121584126D01*
X128749615Y-121681486D02*
X128772493Y-121584139D01*
X131348307Y-121584126D02*
X131318014Y-121488826D01*
X128772493Y-121584139D02*
X128802786Y-121488839D01*
X131318014Y-121488826D02*
X131280485Y-121396136D01*
X128802786Y-121488839D02*
X128840315Y-121396149D01*
X131280485Y-121396136D02*
X131235942Y-121306605D01*
X128840315Y-121396149D02*
X128884858Y-121306618D01*
X131235942Y-121306605D02*
X131184649Y-121220763D01*
X128884858Y-121306618D02*
X128936151Y-121220776D01*
X131184649Y-121220763D02*
X131126909Y-121139118D01*
X128936151Y-121220776D02*
X128993891Y-121139131D01*
X131126909Y-121139118D02*
X131063064Y-121062153D01*
X128993891Y-121139131D02*
X129057736Y-121062166D01*
X131063064Y-121062153D02*
X130993492Y-120990323D01*
X129057736Y-121062166D02*
X129127308Y-120990336D01*
X130993492Y-120990323D02*
X130918605Y-120924053D01*
X129127308Y-120990336D02*
X129202195Y-120924066D01*
X130918605Y-120924053D02*
X130838846Y-120863735D01*
X129202195Y-120924066D02*
X129281954Y-120863748D01*
X130838846Y-120863735D02*
X130754687Y-120809726D01*
X129281954Y-120863748D02*
X129366113Y-120809739D01*
X130754687Y-120809726D02*
X130666626Y-120762346D01*
X129366113Y-120809739D02*
X129454174Y-120762359D01*
X130666626Y-120762346D02*
X130575184Y-120721875D01*
X129454174Y-120762359D02*
X129545616Y-120721888D01*
X130575184Y-120721875D02*
X130480902Y-120688553D01*
X129545616Y-120721888D02*
X129639898Y-120688566D01*
X130480902Y-120688553D02*
X130384338Y-120662577D01*
X129639898Y-120688566D02*
X129736462Y-120662590D01*
X130384338Y-120662577D02*
X130286063Y-120644100D01*
X129736462Y-120662590D02*
X129834737Y-120644113D01*
X130286063Y-120644100D02*
X130186658Y-120633232D01*
X129834737Y-120644113D02*
X129934142Y-120633245D01*
X130186658Y-120633232D02*
X130086712Y-120630037D01*
X129934142Y-120633245D02*
X130034088Y-120630050D01*
X130034088Y-120630050D02*
X130086712Y-120630037D01*
X131394200Y-116879990D02*
X131386513Y-116979694D01*
X128726600Y-116879990D02*
X128734287Y-116979694D01*
X131386513Y-116979694D02*
X131371185Y-117078512D01*
X128734287Y-116979694D02*
X128749615Y-117078512D01*
X131371185Y-117078512D02*
X131348307Y-117175859D01*
X128749615Y-117078512D02*
X128772493Y-117175859D01*
X131348307Y-117175859D02*
X131318014Y-117271159D01*
X128772493Y-117175859D02*
X128802786Y-117271159D01*
X131318014Y-117271159D02*
X131280485Y-117363849D01*
X128802786Y-117271159D02*
X128840315Y-117363849D01*
X131280485Y-117363849D02*
X131235942Y-117453380D01*
X128840315Y-117363849D02*
X128884858Y-117453380D01*
X131235942Y-117453380D02*
X131184649Y-117539222D01*
X128884858Y-117453380D02*
X128936151Y-117539222D01*
X131184649Y-117539222D02*
X131126909Y-117620867D01*
X128936151Y-117539222D02*
X128993891Y-117620867D01*
X131126909Y-117620867D02*
X131063064Y-117697832D01*
X128993891Y-117620867D02*
X129057736Y-117697832D01*
X131063064Y-117697832D02*
X130993492Y-117769662D01*
X129057736Y-117697832D02*
X129127308Y-117769662D01*
X130993492Y-117769662D02*
X130918605Y-117835932D01*
X129127308Y-117769662D02*
X129202195Y-117835932D01*
X130918605Y-117835932D02*
X130838846Y-117896250D01*
X129202195Y-117835932D02*
X129281954Y-117896250D01*
X130838846Y-117896250D02*
X130754687Y-117950259D01*
X129281954Y-117896250D02*
X129366113Y-117950259D01*
X130754687Y-117950259D02*
X130666626Y-117997639D01*
X129366113Y-117950259D02*
X129454174Y-117997639D01*
X130666626Y-117997639D02*
X130575184Y-118038110D01*
X129454174Y-117997639D02*
X129545616Y-118038110D01*
X130575184Y-118038110D02*
X130480902Y-118071432D01*
X129545616Y-118038110D02*
X129639898Y-118071432D01*
X130480902Y-118071432D02*
X130384338Y-118097408D01*
X129639898Y-118071432D02*
X129736462Y-118097408D01*
X130384338Y-118097408D02*
X130286063Y-118115885D01*
X129736462Y-118097408D02*
X129834737Y-118115885D01*
X130286063Y-118115885D02*
X130186658Y-118126753D01*
X129834737Y-118115885D02*
X129934142Y-118126753D01*
X130186658Y-118126753D02*
X130086712Y-118129948D01*
X129934142Y-118126753D02*
X130034088Y-118129948D01*
X130034088Y-118129948D02*
X130086712Y-118129948D01*
X101004992Y-79196600D02*
X93790100Y-79196600D01*
X106005010Y-79196600D02*
X124587000Y-79196600D01*
X101005005Y-81864200D02*
X93726600Y-81864200D01*
X106005010Y-81864200D02*
X117729000Y-81864200D01*
X101005005Y-81864200D02*
X101104709Y-81856513D01*
X101004992Y-79196600D02*
X101104696Y-79204287D01*
X101104709Y-81856513D02*
X101203527Y-81841185D01*
X101104696Y-79204287D02*
X101203514Y-79219615D01*
X101203527Y-81841185D02*
X101300874Y-81818307D01*
X101203514Y-79219615D02*
X101300861Y-79242493D01*
X101300874Y-81818307D02*
X101396174Y-81788014D01*
X101300861Y-79242493D02*
X101396161Y-79272786D01*
X101396174Y-81788014D02*
X101488864Y-81750485D01*
X101396161Y-79272786D02*
X101488851Y-79310315D01*
X101488864Y-81750485D02*
X101578395Y-81705942D01*
X101488851Y-79310315D02*
X101578382Y-79354858D01*
X101578395Y-81705942D02*
X101664237Y-81654649D01*
X101578382Y-79354858D02*
X101664224Y-79406151D01*
X101664237Y-81654649D02*
X101745882Y-81596909D01*
X101664224Y-79406151D02*
X101745869Y-79463891D01*
X101745882Y-81596909D02*
X101822847Y-81533064D01*
X101745869Y-79463891D02*
X101822834Y-79527736D01*
X101822847Y-81533064D02*
X101894677Y-81463492D01*
X101822834Y-79527736D02*
X101894664Y-79597308D01*
X101894677Y-81463492D02*
X101960947Y-81388605D01*
X101894664Y-79597308D02*
X101960934Y-79672195D01*
X101960947Y-81388605D02*
X102021265Y-81308846D01*
X101960934Y-79672195D02*
X102021252Y-79751954D01*
X102021265Y-81308846D02*
X102075274Y-81224687D01*
X102021252Y-79751954D02*
X102075261Y-79836113D01*
X102075274Y-81224687D02*
X102122654Y-81136626D01*
X102075261Y-79836113D02*
X102122641Y-79924174D01*
X102122654Y-81136626D02*
X102163125Y-81045184D01*
X102122641Y-79924174D02*
X102163112Y-80015616D01*
X102163125Y-81045184D02*
X102196447Y-80950902D01*
X102163112Y-80015616D02*
X102196434Y-80109898D01*
X102196447Y-80950902D02*
X102222423Y-80854338D01*
X102196434Y-80109898D02*
X102222410Y-80206462D01*
X102222423Y-80854338D02*
X102240900Y-80756063D01*
X102222410Y-80206462D02*
X102240887Y-80304737D01*
X102240900Y-80756063D02*
X102251768Y-80656658D01*
X102240887Y-80304737D02*
X102251755Y-80404142D01*
X102251768Y-80656658D02*
X102254963Y-80556712D01*
X102251755Y-80404142D02*
X102254950Y-80504088D01*
X102254950Y-80504088D02*
X102254963Y-80556712D01*
X106005010Y-81864200D02*
X105905306Y-81856513D01*
X106005010Y-79196600D02*
X105905306Y-79204287D01*
X105905306Y-81856513D02*
X105806488Y-81841185D01*
X105905306Y-79204287D02*
X105806488Y-79219615D01*
X105806488Y-81841185D02*
X105709141Y-81818307D01*
X105806488Y-79219615D02*
X105709141Y-79242493D01*
X105709141Y-81818307D02*
X105613841Y-81788014D01*
X105709141Y-79242493D02*
X105613841Y-79272786D01*
X105613841Y-81788014D02*
X105521151Y-81750485D01*
X105613841Y-79272786D02*
X105521151Y-79310315D01*
X105521151Y-81750485D02*
X105431620Y-81705942D01*
X105521151Y-79310315D02*
X105431620Y-79354858D01*
X105431620Y-81705942D02*
X105345778Y-81654649D01*
X105431620Y-79354858D02*
X105345778Y-79406151D01*
X105345778Y-81654649D02*
X105264133Y-81596909D01*
X105345778Y-79406151D02*
X105264133Y-79463891D01*
X105264133Y-81596909D02*
X105187168Y-81533064D01*
X105264133Y-79463891D02*
X105187168Y-79527736D01*
X105187168Y-81533064D02*
X105115338Y-81463492D01*
X105187168Y-79527736D02*
X105115338Y-79597308D01*
X105115338Y-81463492D02*
X105049068Y-81388605D01*
X105115338Y-79597308D02*
X105049068Y-79672195D01*
X105049068Y-81388605D02*
X104988750Y-81308846D01*
X105049068Y-79672195D02*
X104988750Y-79751954D01*
X104988750Y-81308846D02*
X104934741Y-81224687D01*
X104988750Y-79751954D02*
X104934741Y-79836113D01*
X104934741Y-81224687D02*
X104887361Y-81136626D01*
X104934741Y-79836113D02*
X104887361Y-79924174D01*
X104887361Y-81136626D02*
X104846890Y-81045184D01*
X104887361Y-79924174D02*
X104846890Y-80015616D01*
X104846890Y-81045184D02*
X104813568Y-80950902D01*
X104846890Y-80015616D02*
X104813568Y-80109898D01*
X104813568Y-80950902D02*
X104787592Y-80854338D01*
X104813568Y-80109898D02*
X104787592Y-80206462D01*
X104787592Y-80854338D02*
X104769115Y-80756063D01*
X104787592Y-80206462D02*
X104769115Y-80304737D01*
X104769115Y-80756063D02*
X104758247Y-80656658D01*
X104769115Y-80304737D02*
X104758247Y-80404142D01*
X104758247Y-80656658D02*
X104755052Y-80556712D01*
X104758247Y-80404142D02*
X104755052Y-80504088D01*
X104755052Y-80504088D02*
X104755052Y-80556712D01*
X171409995Y-91490800D02*
X178688400Y-91490800D01*
X166409990Y-91490800D02*
X154686000Y-91490800D01*
X171410008Y-94158400D02*
X178624900Y-94158400D01*
X166409990Y-94158400D02*
X147828000Y-94158400D01*
X166409990Y-94158400D02*
X166509694Y-94150713D01*
X166409990Y-91490800D02*
X166509694Y-91498487D01*
X166509694Y-94150713D02*
X166608512Y-94135385D01*
X166509694Y-91498487D02*
X166608512Y-91513815D01*
X166608512Y-94135385D02*
X166705859Y-94112507D01*
X166608512Y-91513815D02*
X166705859Y-91536693D01*
X166705859Y-94112507D02*
X166801159Y-94082214D01*
X166705859Y-91536693D02*
X166801159Y-91566986D01*
X166801159Y-94082214D02*
X166893849Y-94044685D01*
X166801159Y-91566986D02*
X166893849Y-91604515D01*
X166893849Y-94044685D02*
X166983380Y-94000142D01*
X166893849Y-91604515D02*
X166983380Y-91649058D01*
X166983380Y-94000142D02*
X167069222Y-93948849D01*
X166983380Y-91649058D02*
X167069222Y-91700351D01*
X167069222Y-93948849D02*
X167150867Y-93891109D01*
X167069222Y-91700351D02*
X167150867Y-91758091D01*
X167150867Y-93891109D02*
X167227832Y-93827264D01*
X167150867Y-91758091D02*
X167227832Y-91821936D01*
X167227832Y-93827264D02*
X167299662Y-93757692D01*
X167227832Y-91821936D02*
X167299662Y-91891508D01*
X167299662Y-93757692D02*
X167365932Y-93682805D01*
X167299662Y-91891508D02*
X167365932Y-91966395D01*
X167365932Y-93682805D02*
X167426250Y-93603046D01*
X167365932Y-91966395D02*
X167426250Y-92046154D01*
X167426250Y-93603046D02*
X167480259Y-93518887D01*
X167426250Y-92046154D02*
X167480259Y-92130313D01*
X167480259Y-93518887D02*
X167527639Y-93430826D01*
X167480259Y-92130313D02*
X167527639Y-92218374D01*
X167527639Y-93430826D02*
X167568110Y-93339384D01*
X167527639Y-92218374D02*
X167568110Y-92309816D01*
X167568110Y-93339384D02*
X167601432Y-93245102D01*
X167568110Y-92309816D02*
X167601432Y-92404098D01*
X167601432Y-93245102D02*
X167627408Y-93148538D01*
X167601432Y-92404098D02*
X167627408Y-92500662D01*
X167627408Y-93148538D02*
X167645885Y-93050263D01*
X167627408Y-92500662D02*
X167645885Y-92598937D01*
X167645885Y-93050263D02*
X167656753Y-92950858D01*
X167645885Y-92598937D02*
X167656753Y-92698342D01*
X167656753Y-92950858D02*
X167659948Y-92850912D01*
X167656753Y-92698342D02*
X167659948Y-92798288D01*
X167659948Y-92798288D02*
X167659948Y-92850912D01*
X171409995Y-91490800D02*
X171310291Y-91498487D01*
X171410008Y-94158400D02*
X171310304Y-94150713D01*
X171310291Y-91498487D02*
X171211473Y-91513815D01*
X171310304Y-94150713D02*
X171211486Y-94135385D01*
X171211473Y-91513815D02*
X171114126Y-91536693D01*
X171211486Y-94135385D02*
X171114139Y-94112507D01*
X171114126Y-91536693D02*
X171018826Y-91566986D01*
X171114139Y-94112507D02*
X171018839Y-94082214D01*
X171018826Y-91566986D02*
X170926136Y-91604515D01*
X171018839Y-94082214D02*
X170926149Y-94044685D01*
X170926136Y-91604515D02*
X170836605Y-91649058D01*
X170926149Y-94044685D02*
X170836618Y-94000142D01*
X170836605Y-91649058D02*
X170750763Y-91700351D01*
X170836618Y-94000142D02*
X170750776Y-93948849D01*
X170750763Y-91700351D02*
X170669118Y-91758091D01*
X170750776Y-93948849D02*
X170669131Y-93891109D01*
X170669118Y-91758091D02*
X170592153Y-91821936D01*
X170669131Y-93891109D02*
X170592166Y-93827264D01*
X170592153Y-91821936D02*
X170520323Y-91891508D01*
X170592166Y-93827264D02*
X170520336Y-93757692D01*
X170520323Y-91891508D02*
X170454053Y-91966395D01*
X170520336Y-93757692D02*
X170454066Y-93682805D01*
X170454053Y-91966395D02*
X170393735Y-92046154D01*
X170454066Y-93682805D02*
X170393748Y-93603046D01*
X170393735Y-92046154D02*
X170339726Y-92130313D01*
X170393748Y-93603046D02*
X170339739Y-93518887D01*
X170339726Y-92130313D02*
X170292346Y-92218374D01*
X170339739Y-93518887D02*
X170292359Y-93430826D01*
X170292346Y-92218374D02*
X170251875Y-92309816D01*
X170292359Y-93430826D02*
X170251888Y-93339384D01*
X170251875Y-92309816D02*
X170218553Y-92404098D01*
X170251888Y-93339384D02*
X170218566Y-93245102D01*
X170218553Y-92404098D02*
X170192577Y-92500662D01*
X170218566Y-93245102D02*
X170192590Y-93148538D01*
X170192577Y-92500662D02*
X170174100Y-92598937D01*
X170192590Y-93148538D02*
X170174113Y-93050263D01*
X170174100Y-92598937D02*
X170163232Y-92698342D01*
X170174113Y-93050263D02*
X170163245Y-92950858D01*
X170163232Y-92698342D02*
X170160037Y-92798288D01*
X170163245Y-92950858D02*
X170160050Y-92850912D01*
X170160037Y-92798288D02*
X170160050Y-92850912D01*
X143688400Y-49569992D02*
X143688400Y-44260100D01*
X143688400Y-54570008D02*
X143688400Y-75057000D01*
X141020800Y-49569997D02*
X141020800Y-44196600D01*
X141020800Y-54569995D02*
X141020800Y-68199000D01*
X141020800Y-49569997D02*
X141028487Y-49669701D01*
X143688400Y-49569992D02*
X143680713Y-49669696D01*
X141028487Y-49669701D02*
X141043815Y-49768519D01*
X143680713Y-49669696D02*
X143665385Y-49768514D01*
X141043815Y-49768519D02*
X141066693Y-49865866D01*
X143665385Y-49768514D02*
X143642507Y-49865861D01*
X141066693Y-49865866D02*
X141096986Y-49961166D01*
X143642507Y-49865861D02*
X143612214Y-49961161D01*
X141096986Y-49961166D02*
X141134515Y-50053856D01*
X143612214Y-49961161D02*
X143574685Y-50053851D01*
X141134515Y-50053856D02*
X141179058Y-50143387D01*
X143574685Y-50053851D02*
X143530142Y-50143382D01*
X141179058Y-50143387D02*
X141230351Y-50229229D01*
X143530142Y-50143382D02*
X143478849Y-50229224D01*
X141230351Y-50229229D02*
X141288091Y-50310874D01*
X143478849Y-50229224D02*
X143421109Y-50310869D01*
X141288091Y-50310874D02*
X141351936Y-50387839D01*
X143421109Y-50310869D02*
X143357264Y-50387834D01*
X141351936Y-50387839D02*
X141421508Y-50459669D01*
X143357264Y-50387834D02*
X143287692Y-50459664D01*
X141421508Y-50459669D02*
X141496395Y-50525939D01*
X143287692Y-50459664D02*
X143212805Y-50525934D01*
X141496395Y-50525939D02*
X141576154Y-50586257D01*
X143212805Y-50525934D02*
X143133046Y-50586252D01*
X141576154Y-50586257D02*
X141660313Y-50640266D01*
X143133046Y-50586252D02*
X143048887Y-50640261D01*
X141660313Y-50640266D02*
X141748374Y-50687646D01*
X143048887Y-50640261D02*
X142960826Y-50687641D01*
X141748374Y-50687646D02*
X141839816Y-50728117D01*
X142960826Y-50687641D02*
X142869384Y-50728112D01*
X141839816Y-50728117D02*
X141934098Y-50761439D01*
X142869384Y-50728112D02*
X142775102Y-50761434D01*
X141934098Y-50761439D02*
X142030662Y-50787415D01*
X142775102Y-50761434D02*
X142678538Y-50787410D01*
X142030662Y-50787415D02*
X142128937Y-50805892D01*
X142678538Y-50787410D02*
X142580263Y-50805887D01*
X142128937Y-50805892D02*
X142228342Y-50816760D01*
X142580263Y-50805887D02*
X142480858Y-50816755D01*
X142228342Y-50816760D02*
X142328288Y-50819955D01*
X142480858Y-50816755D02*
X142380912Y-50819950D01*
X142380912Y-50819950D02*
X142328288Y-50819955D01*
X141020800Y-54569995D02*
X141028487Y-54470291D01*
X143688400Y-54570008D02*
X143680713Y-54470304D01*
X141028487Y-54470291D02*
X141043815Y-54371473D01*
X143680713Y-54470304D02*
X143665385Y-54371486D01*
X141043815Y-54371473D02*
X141066693Y-54274126D01*
X143665385Y-54371486D02*
X143642507Y-54274139D01*
X141066693Y-54274126D02*
X141096986Y-54178826D01*
X143642507Y-54274139D02*
X143612214Y-54178839D01*
X141096986Y-54178826D02*
X141134515Y-54086136D01*
X143612214Y-54178839D02*
X143574685Y-54086149D01*
X141134515Y-54086136D02*
X141179058Y-53996605D01*
X143574685Y-54086149D02*
X143530142Y-53996618D01*
X141179058Y-53996605D02*
X141230351Y-53910763D01*
X143530142Y-53996618D02*
X143478849Y-53910776D01*
X141230351Y-53910763D02*
X141288091Y-53829118D01*
X143478849Y-53910776D02*
X143421109Y-53829131D01*
X141288091Y-53829118D02*
X141351936Y-53752153D01*
X143421109Y-53829131D02*
X143357264Y-53752166D01*
X141351936Y-53752153D02*
X141421508Y-53680323D01*
X143357264Y-53752166D02*
X143287692Y-53680336D01*
X141421508Y-53680323D02*
X141496395Y-53614053D01*
X143287692Y-53680336D02*
X143212805Y-53614066D01*
X141496395Y-53614053D02*
X141576154Y-53553735D01*
X143212805Y-53614066D02*
X143133046Y-53553748D01*
X141576154Y-53553735D02*
X141660313Y-53499726D01*
X143133046Y-53553748D02*
X143048887Y-53499739D01*
X141660313Y-53499726D02*
X141748374Y-53452346D01*
X143048887Y-53499739D02*
X142960826Y-53452359D01*
X141748374Y-53452346D02*
X141839816Y-53411875D01*
X142960826Y-53452359D02*
X142869384Y-53411888D01*
X141839816Y-53411875D02*
X141934098Y-53378553D01*
X142869384Y-53411888D02*
X142775102Y-53378566D01*
X141934098Y-53378553D02*
X142030662Y-53352577D01*
X142775102Y-53378566D02*
X142678538Y-53352590D01*
X142030662Y-53352577D02*
X142128937Y-53334100D01*
X142678538Y-53352590D02*
X142580263Y-53334113D01*
X142128937Y-53334100D02*
X142228342Y-53323232D01*
X142580263Y-53334113D02*
X142480858Y-53323245D01*
X142228342Y-53323232D02*
X142328288Y-53320037D01*
X142480858Y-53323245D02*
X142380912Y-53320050D01*
X142380912Y-53320050D02*
X142328288Y-53320037D01*
X181736000Y-121753015D02*
X181736000Y-132080000D01*
X178624900Y-121753000D02*
X178624900Y-129158400D01*
X178624900Y-116752997D02*
X178624900Y-105664000D01*
X178624900Y-116752997D02*
X178632587Y-116852701D01*
X181736000Y-116752910D02*
X181728313Y-116852614D01*
X178632587Y-116852701D02*
X178647915Y-116951519D01*
X181728313Y-116852614D02*
X181712985Y-116951432D01*
X178647915Y-116951519D02*
X178670793Y-117048866D01*
X181712985Y-116951432D02*
X181690107Y-117048779D01*
X178670793Y-117048866D02*
X178701086Y-117144166D01*
X181690107Y-117048779D02*
X181659814Y-117144079D01*
X178701086Y-117144166D02*
X178738615Y-117236856D01*
X181659814Y-117144079D02*
X181622285Y-117236769D01*
X178738615Y-117236856D02*
X178783158Y-117326387D01*
X181622285Y-117236769D02*
X181577742Y-117326300D01*
X178783158Y-117326387D02*
X178834451Y-117412229D01*
X181577742Y-117326300D02*
X181526449Y-117412142D01*
X178834451Y-117412229D02*
X178892191Y-117493874D01*
X181526449Y-117412142D02*
X181468709Y-117493787D01*
X178892191Y-117493874D02*
X178956036Y-117570839D01*
X181468709Y-117493787D02*
X181404864Y-117570752D01*
X178956036Y-117570839D02*
X179025608Y-117642669D01*
X181404864Y-117570752D02*
X181335292Y-117642582D01*
X179025608Y-117642669D02*
X179100495Y-117708939D01*
X181335292Y-117642582D02*
X181260405Y-117708852D01*
X179100495Y-117708939D02*
X179180254Y-117769257D01*
X181260405Y-117708852D02*
X181180646Y-117769170D01*
X179180254Y-117769257D02*
X179264413Y-117823266D01*
X181180646Y-117769170D02*
X181096487Y-117823179D01*
X179264413Y-117823266D02*
X179352474Y-117870646D01*
X181096487Y-117823179D02*
X181008426Y-117870559D01*
X179352474Y-117870646D02*
X179443916Y-117911117D01*
X181008426Y-117870559D02*
X180916984Y-117911030D01*
X179443916Y-117911117D02*
X179538198Y-117944439D01*
X180916984Y-117911030D02*
X180822702Y-117944352D01*
X179538198Y-117944439D02*
X179634762Y-117970415D01*
X180822702Y-117944352D02*
X180726138Y-117970328D01*
X179634762Y-117970415D02*
X179733037Y-117988892D01*
X180726138Y-117970328D02*
X180627863Y-117988805D01*
X179733037Y-117988892D02*
X179832442Y-117999760D01*
X180627863Y-117988805D02*
X180528458Y-117999673D01*
X179832442Y-117999760D02*
X179932388Y-118002955D01*
X180528458Y-117999673D02*
X180428512Y-118002868D01*
X180428512Y-118002868D02*
X179932388Y-118002955D01*
X178624900Y-121753000D02*
X178632587Y-121653296D01*
X181736000Y-121753015D02*
X181728313Y-121653311D01*
X178632587Y-121653296D02*
X178647915Y-121554478D01*
X181728313Y-121653311D02*
X181712985Y-121554493D01*
X178647915Y-121554478D02*
X178670793Y-121457131D01*
X181712985Y-121554493D02*
X181690107Y-121457146D01*
X178670793Y-121457131D02*
X178701086Y-121361831D01*
X181690107Y-121457146D02*
X181659814Y-121361846D01*
X178701086Y-121361831D02*
X178738615Y-121269141D01*
X181659814Y-121361846D02*
X181622285Y-121269156D01*
X178738615Y-121269141D02*
X178783158Y-121179610D01*
X181622285Y-121269156D02*
X181577742Y-121179625D01*
X178783158Y-121179610D02*
X178834451Y-121093768D01*
X181577742Y-121179625D02*
X181526449Y-121093783D01*
X178834451Y-121093768D02*
X178892191Y-121012123D01*
X181526449Y-121093783D02*
X181468709Y-121012138D01*
X178892191Y-121012123D02*
X178956036Y-120935158D01*
X181468709Y-121012138D02*
X181404864Y-120935173D01*
X178956036Y-120935158D02*
X179025608Y-120863328D01*
X181404864Y-120935173D02*
X181335292Y-120863343D01*
X179025608Y-120863328D02*
X179100495Y-120797058D01*
X181335292Y-120863343D02*
X181260405Y-120797073D01*
X179100495Y-120797058D02*
X179180254Y-120736740D01*
X181260405Y-120797073D02*
X181180646Y-120736755D01*
X179180254Y-120736740D02*
X179264413Y-120682731D01*
X181180646Y-120736755D02*
X181096487Y-120682746D01*
X179264413Y-120682731D02*
X179352474Y-120635351D01*
X181096487Y-120682746D02*
X181008426Y-120635366D01*
X179352474Y-120635351D02*
X179443916Y-120594880D01*
X181008426Y-120635366D02*
X180916984Y-120594895D01*
X179443916Y-120594880D02*
X179538198Y-120561558D01*
X180916984Y-120594895D02*
X180822702Y-120561573D01*
X179538198Y-120561558D02*
X179634762Y-120535582D01*
X180822702Y-120561573D02*
X180726138Y-120535597D01*
X179634762Y-120535582D02*
X179733037Y-120517105D01*
X180726138Y-120535597D02*
X180627863Y-120517120D01*
X179733037Y-120517105D02*
X179832442Y-120506237D01*
X180627863Y-120517120D02*
X180528458Y-120506252D01*
X179832442Y-120506237D02*
X179932388Y-120503042D01*
X180528458Y-120506252D02*
X180428512Y-120503057D01*
X180428512Y-120503057D02*
X179932388Y-120503042D01*
X181736000Y-67269988D02*
X181736000Y-116752910D01*
X181736000Y-62270012D02*
X181736000Y-40640000D01*
X178688400Y-67270003D02*
X178688400Y-79235300D01*
X178688400Y-62269997D02*
X178688400Y-44260100D01*
X181736000Y-62270012D02*
X181728313Y-62369716D01*
X178688400Y-62269997D02*
X178696087Y-62369701D01*
X181728313Y-62369716D02*
X181712985Y-62468534D01*
X178696087Y-62369701D02*
X178711415Y-62468519D01*
X181712985Y-62468534D02*
X181690107Y-62565881D01*
X178711415Y-62468519D02*
X178734293Y-62565866D01*
X181690107Y-62565881D02*
X181659814Y-62661181D01*
X178734293Y-62565866D02*
X178764586Y-62661166D01*
X181659814Y-62661181D02*
X181622285Y-62753871D01*
X178764586Y-62661166D02*
X178802115Y-62753856D01*
X181622285Y-62753871D02*
X181577742Y-62843402D01*
X178802115Y-62753856D02*
X178846658Y-62843387D01*
X181577742Y-62843402D02*
X181526449Y-62929244D01*
X178846658Y-62843387D02*
X178897951Y-62929229D01*
X181526449Y-62929244D02*
X181468709Y-63010889D01*
X178897951Y-62929229D02*
X178955691Y-63010874D01*
X181468709Y-63010889D02*
X181404864Y-63087854D01*
X178955691Y-63010874D02*
X179019536Y-63087839D01*
X181404864Y-63087854D02*
X181335292Y-63159684D01*
X179019536Y-63087839D02*
X179089108Y-63159669D01*
X181335292Y-63159684D02*
X181260405Y-63225954D01*
X179089108Y-63159669D02*
X179163995Y-63225939D01*
X181260405Y-63225954D02*
X181180646Y-63286272D01*
X179163995Y-63225939D02*
X179243754Y-63286257D01*
X181180646Y-63286272D02*
X181096487Y-63340281D01*
X179243754Y-63286257D02*
X179327913Y-63340266D01*
X181096487Y-63340281D02*
X181008426Y-63387661D01*
X179327913Y-63340266D02*
X179415974Y-63387646D01*
X181008426Y-63387661D02*
X180916984Y-63428132D01*
X179415974Y-63387646D02*
X179507416Y-63428117D01*
X180916984Y-63428132D02*
X180822702Y-63461454D01*
X179507416Y-63428117D02*
X179601698Y-63461439D01*
X180822702Y-63461454D02*
X180726138Y-63487430D01*
X179601698Y-63461439D02*
X179698262Y-63487415D01*
X180726138Y-63487430D02*
X180627863Y-63505907D01*
X179698262Y-63487415D02*
X179796537Y-63505892D01*
X180627863Y-63505907D02*
X180528458Y-63516775D01*
X179796537Y-63505892D02*
X179895942Y-63516760D01*
X180528458Y-63516775D02*
X180428512Y-63519970D01*
X179895942Y-63516760D02*
X179995888Y-63519955D01*
X180428512Y-63519970D02*
X179995888Y-63519955D01*
X181736000Y-67269988D02*
X181728313Y-67170284D01*
X178688400Y-67270003D02*
X178696087Y-67170299D01*
X181728313Y-67170284D02*
X181712985Y-67071466D01*
X178696087Y-67170299D02*
X178711415Y-67071481D01*
X181712985Y-67071466D02*
X181690107Y-66974119D01*
X178711415Y-67071481D02*
X178734293Y-66974134D01*
X181690107Y-66974119D02*
X181659814Y-66878819D01*
X178734293Y-66974134D02*
X178764586Y-66878834D01*
X181659814Y-66878819D02*
X181622285Y-66786129D01*
X178764586Y-66878834D02*
X178802115Y-66786144D01*
X181622285Y-66786129D02*
X181577742Y-66696598D01*
X178802115Y-66786144D02*
X178846658Y-66696613D01*
X181577742Y-66696598D02*
X181526449Y-66610756D01*
X178846658Y-66696613D02*
X178897951Y-66610771D01*
X181526449Y-66610756D02*
X181468709Y-66529111D01*
X178897951Y-66610771D02*
X178955691Y-66529126D01*
X181468709Y-66529111D02*
X181404864Y-66452146D01*
X178955691Y-66529126D02*
X179019536Y-66452161D01*
X181404864Y-66452146D02*
X181335292Y-66380316D01*
X179019536Y-66452161D02*
X179089108Y-66380331D01*
X181335292Y-66380316D02*
X181260405Y-66314046D01*
X179089108Y-66380331D02*
X179163995Y-66314061D01*
X181260405Y-66314046D02*
X181180646Y-66253728D01*
X179163995Y-66314061D02*
X179243754Y-66253743D01*
X181180646Y-66253728D02*
X181096487Y-66199719D01*
X179243754Y-66253743D02*
X179327913Y-66199734D01*
X181096487Y-66199719D02*
X181008426Y-66152339D01*
X179327913Y-66199734D02*
X179415974Y-66152354D01*
X181008426Y-66152339D02*
X180916984Y-66111868D01*
X179415974Y-66152354D02*
X179507416Y-66111883D01*
X180916984Y-66111868D02*
X180822702Y-66078546D01*
X179507416Y-66111883D02*
X179601698Y-66078561D01*
X180822702Y-66078546D02*
X180726138Y-66052570D01*
X179601698Y-66078561D02*
X179698262Y-66052585D01*
X180726138Y-66052570D02*
X180627863Y-66034093D01*
X179698262Y-66052585D02*
X179796537Y-66034108D01*
X180627863Y-66034093D02*
X180528458Y-66023225D01*
X179796537Y-66034108D02*
X179895942Y-66023240D01*
X180528458Y-66023225D02*
X180428512Y-66020030D01*
X179895942Y-66023240D02*
X179995888Y-66020045D01*
X180428512Y-66020030D02*
X179995888Y-66020045D01*
X128145000Y-87669990D02*
X128145000Y-79629000D01*
X128145000Y-92670003D02*
X128145000Y-95123000D01*
X121793000Y-87670000D02*
X121793000Y-85928200D01*
X121793000Y-92670000D02*
X121793000Y-92977444D01*
X121793000Y-87670000D02*
X121800687Y-87769704D01*
X128145000Y-87669990D02*
X128137313Y-87769694D01*
X121800687Y-87769704D02*
X121816015Y-87868522D01*
X128137313Y-87769694D02*
X128121985Y-87868512D01*
X121816015Y-87868522D02*
X121838893Y-87965869D01*
X128121985Y-87868512D02*
X128099107Y-87965859D01*
X121838893Y-87965869D02*
X121869186Y-88061169D01*
X128099107Y-87965859D02*
X128068814Y-88061159D01*
X121869186Y-88061169D02*
X121906715Y-88153859D01*
X128068814Y-88061159D02*
X128031285Y-88153849D01*
X121906715Y-88153859D02*
X121951258Y-88243390D01*
X128031285Y-88153849D02*
X127986742Y-88243380D01*
X121951258Y-88243390D02*
X122002551Y-88329232D01*
X127986742Y-88243380D02*
X127935449Y-88329222D01*
X122002551Y-88329232D02*
X122060291Y-88410877D01*
X127935449Y-88329222D02*
X127877709Y-88410867D01*
X122060291Y-88410877D02*
X122124136Y-88487842D01*
X127877709Y-88410867D02*
X127813864Y-88487832D01*
X122124136Y-88487842D02*
X122193708Y-88559672D01*
X127813864Y-88487832D02*
X127744292Y-88559662D01*
X122193708Y-88559672D02*
X122268595Y-88625942D01*
X127744292Y-88559662D02*
X127669405Y-88625932D01*
X122268595Y-88625942D02*
X122348354Y-88686260D01*
X127669405Y-88625932D02*
X127589646Y-88686250D01*
X122348354Y-88686260D02*
X122432513Y-88740269D01*
X127589646Y-88686250D02*
X127505487Y-88740259D01*
X122432513Y-88740269D02*
X122520574Y-88787649D01*
X127505487Y-88740259D02*
X127417426Y-88787639D01*
X122520574Y-88787649D02*
X122612016Y-88828120D01*
X127417426Y-88787639D02*
X127325984Y-88828110D01*
X122612016Y-88828120D02*
X122706298Y-88861442D01*
X127325984Y-88828110D02*
X127231702Y-88861432D01*
X122706298Y-88861442D02*
X122802862Y-88887418D01*
X127231702Y-88861432D02*
X127135138Y-88887408D01*
X122802862Y-88887418D02*
X122901137Y-88905895D01*
X127135138Y-88887408D02*
X127036863Y-88905885D01*
X122901137Y-88905895D02*
X123000542Y-88916763D01*
X127036863Y-88905885D02*
X126937458Y-88916753D01*
X123000542Y-88916763D02*
X123100488Y-88919958D01*
X126937458Y-88916753D02*
X126837512Y-88919948D01*
X126837512Y-88919948D02*
X123100488Y-88919958D01*
X121793000Y-92670000D02*
X121800687Y-92570296D01*
X128145000Y-92670003D02*
X128137313Y-92570299D01*
X121800687Y-92570296D02*
X121816015Y-92471478D01*
X128137313Y-92570299D02*
X128121985Y-92471481D01*
X121816015Y-92471478D02*
X121838893Y-92374131D01*
X128121985Y-92471481D02*
X128099107Y-92374134D01*
X121838893Y-92374131D02*
X121869186Y-92278831D01*
X128099107Y-92374134D02*
X128068814Y-92278834D01*
X121869186Y-92278831D02*
X121906715Y-92186141D01*
X128068814Y-92278834D02*
X128031285Y-92186144D01*
X121906715Y-92186141D02*
X121951258Y-92096610D01*
X128031285Y-92186144D02*
X127986742Y-92096613D01*
X121951258Y-92096610D02*
X122002551Y-92010768D01*
X127986742Y-92096613D02*
X127935449Y-92010771D01*
X122002551Y-92010768D02*
X122060291Y-91929123D01*
X127935449Y-92010771D02*
X127877709Y-91929126D01*
X122060291Y-91929123D02*
X122124136Y-91852158D01*
X127877709Y-91929126D02*
X127813864Y-91852161D01*
X122124136Y-91852158D02*
X122193708Y-91780328D01*
X127813864Y-91852161D02*
X127744292Y-91780331D01*
X122193708Y-91780328D02*
X122268595Y-91714058D01*
X127744292Y-91780331D02*
X127669405Y-91714061D01*
X122268595Y-91714058D02*
X122348354Y-91653740D01*
X127669405Y-91714061D02*
X127589646Y-91653743D01*
X122348354Y-91653740D02*
X122432513Y-91599731D01*
X127589646Y-91653743D02*
X127505487Y-91599734D01*
X122432513Y-91599731D02*
X122520574Y-91552351D01*
X127505487Y-91599734D02*
X127417426Y-91552354D01*
X122520574Y-91552351D02*
X122612016Y-91511880D01*
X127417426Y-91552354D02*
X127325984Y-91511883D01*
X122612016Y-91511880D02*
X122706298Y-91478558D01*
X127325984Y-91511883D02*
X127231702Y-91478561D01*
X122706298Y-91478558D02*
X122802862Y-91452582D01*
X127231702Y-91478561D02*
X127135138Y-91452585D01*
X122802862Y-91452582D02*
X122901137Y-91434105D01*
X127135138Y-91452585D02*
X127036863Y-91434108D01*
X122901137Y-91434105D02*
X123000542Y-91423237D01*
X127036863Y-91434108D02*
X126937458Y-91423240D01*
X123000542Y-91423237D02*
X123100488Y-91420042D01*
X126937458Y-91423240D02*
X126837512Y-91420045D01*
X126837512Y-91420045D02*
X123100488Y-91420042D01*
X150622000Y-86320000D02*
X150622000Y-87426800D01*
X150622000Y-81320002D02*
X150622000Y-80377556D01*
X144145000Y-81319995D02*
X144145000Y-79629000D01*
X144145000Y-86319998D02*
X144145000Y-95123000D01*
X150622000Y-81320002D02*
X150614313Y-81419706D01*
X144145000Y-81319995D02*
X144152687Y-81419699D01*
X150614313Y-81419706D02*
X150598985Y-81518524D01*
X144152687Y-81419699D02*
X144168015Y-81518517D01*
X150598985Y-81518524D02*
X150576107Y-81615871D01*
X144168015Y-81518517D02*
X144190893Y-81615864D01*
X150576107Y-81615871D02*
X150545814Y-81711171D01*
X144190893Y-81615864D02*
X144221186Y-81711164D01*
X150545814Y-81711171D02*
X150508285Y-81803861D01*
X144221186Y-81711164D02*
X144258715Y-81803854D01*
X150508285Y-81803861D02*
X150463742Y-81893392D01*
X144258715Y-81803854D02*
X144303258Y-81893385D01*
X150463742Y-81893392D02*
X150412449Y-81979234D01*
X144303258Y-81893385D02*
X144354551Y-81979227D01*
X150412449Y-81979234D02*
X150354709Y-82060879D01*
X144354551Y-81979227D02*
X144412291Y-82060872D01*
X150354709Y-82060879D02*
X150290864Y-82137844D01*
X144412291Y-82060872D02*
X144476136Y-82137837D01*
X150290864Y-82137844D02*
X150221292Y-82209674D01*
X144476136Y-82137837D02*
X144545708Y-82209667D01*
X150221292Y-82209674D02*
X150146405Y-82275944D01*
X144545708Y-82209667D02*
X144620595Y-82275937D01*
X150146405Y-82275944D02*
X150066646Y-82336262D01*
X144620595Y-82275937D02*
X144700354Y-82336255D01*
X150066646Y-82336262D02*
X149982487Y-82390271D01*
X144700354Y-82336255D02*
X144784513Y-82390264D01*
X149982487Y-82390271D02*
X149894426Y-82437651D01*
X144784513Y-82390264D02*
X144872574Y-82437644D01*
X149894426Y-82437651D02*
X149802984Y-82478122D01*
X144872574Y-82437644D02*
X144964016Y-82478115D01*
X149802984Y-82478122D02*
X149708702Y-82511444D01*
X144964016Y-82478115D02*
X145058298Y-82511437D01*
X149708702Y-82511444D02*
X149612138Y-82537420D01*
X145058298Y-82511437D02*
X145154862Y-82537413D01*
X149612138Y-82537420D02*
X149513863Y-82555897D01*
X145154862Y-82537413D02*
X145253137Y-82555890D01*
X149513863Y-82555897D02*
X149414458Y-82566765D01*
X145253137Y-82555890D02*
X145352542Y-82566758D01*
X149414458Y-82566765D02*
X149314512Y-82569960D01*
X145352542Y-82566758D02*
X145452488Y-82569953D01*
X149314512Y-82569960D02*
X145452488Y-82569953D01*
X144145000Y-86319998D02*
X144152687Y-86220294D01*
X150622000Y-86320000D02*
X150614313Y-86220296D01*
X144152687Y-86220294D02*
X144168015Y-86121476D01*
X150614313Y-86220296D02*
X150598985Y-86121478D01*
X144168015Y-86121476D02*
X144190893Y-86024129D01*
X150598985Y-86121478D02*
X150576107Y-86024131D01*
X144190893Y-86024129D02*
X144221186Y-85928829D01*
X150576107Y-86024131D02*
X150545814Y-85928831D01*
X144221186Y-85928829D02*
X144258715Y-85836139D01*
X150545814Y-85928831D02*
X150508285Y-85836141D01*
X144258715Y-85836139D02*
X144303258Y-85746608D01*
X150508285Y-85836141D02*
X150463742Y-85746610D01*
X144303258Y-85746608D02*
X144354551Y-85660766D01*
X150463742Y-85746610D02*
X150412449Y-85660768D01*
X144354551Y-85660766D02*
X144412291Y-85579121D01*
X150412449Y-85660768D02*
X150354709Y-85579123D01*
X144412291Y-85579121D02*
X144476136Y-85502156D01*
X150354709Y-85579123D02*
X150290864Y-85502158D01*
X144476136Y-85502156D02*
X144545708Y-85430326D01*
X150290864Y-85502158D02*
X150221292Y-85430328D01*
X144545708Y-85430326D02*
X144620595Y-85364056D01*
X150221292Y-85430328D02*
X150146405Y-85364058D01*
X144620595Y-85364056D02*
X144700354Y-85303738D01*
X150146405Y-85364058D02*
X150066646Y-85303740D01*
X144700354Y-85303738D02*
X144784513Y-85249729D01*
X150066646Y-85303740D02*
X149982487Y-85249731D01*
X144784513Y-85249729D02*
X144872574Y-85202349D01*
X149982487Y-85249731D02*
X149894426Y-85202351D01*
X144872574Y-85202349D02*
X144964016Y-85161878D01*
X149894426Y-85202351D02*
X149802984Y-85161880D01*
X144964016Y-85161878D02*
X145058298Y-85128556D01*
X149802984Y-85161880D02*
X149708702Y-85128558D01*
X145058298Y-85128556D02*
X145154862Y-85102580D01*
X149708702Y-85128558D02*
X149612138Y-85102582D01*
X145154862Y-85102580D02*
X145253137Y-85084103D01*
X149612138Y-85102582D02*
X149513863Y-85084105D01*
X145253137Y-85084103D02*
X145352542Y-85073235D01*
X149513863Y-85084105D02*
X149414458Y-85073237D01*
X145352542Y-85073235D02*
X145452488Y-85070040D01*
X149414458Y-85073237D02*
X149314512Y-85070042D01*
X149314512Y-85070042D02*
X145452488Y-85070040D01*
X170647988Y-40640000D02*
X181736000Y-40640000D01*
X170647998Y-44260100D02*
X178688400Y-44260100D01*
X165648007Y-44260100D02*
X155194000Y-44260100D01*
X165648025Y-40640000D02*
X165747729Y-40647687D01*
X165648007Y-44260100D02*
X165747711Y-44252413D01*
X165747729Y-40647687D02*
X165846547Y-40663015D01*
X165747711Y-44252413D02*
X165846529Y-44237085D01*
X165846547Y-40663015D02*
X165943894Y-40685893D01*
X165846529Y-44237085D02*
X165943876Y-44214207D01*
X165943894Y-40685893D02*
X166039194Y-40716186D01*
X165943876Y-44214207D02*
X166039176Y-44183914D01*
X166039194Y-40716186D02*
X166131884Y-40753715D01*
X166039176Y-44183914D02*
X166131866Y-44146385D01*
X166131884Y-40753715D02*
X166221415Y-40798258D01*
X166131866Y-44146385D02*
X166221397Y-44101842D01*
X166221415Y-40798258D02*
X166307257Y-40849551D01*
X166221397Y-44101842D02*
X166307239Y-44050549D01*
X166307257Y-40849551D02*
X166388902Y-40907291D01*
X166307239Y-44050549D02*
X166388884Y-43992809D01*
X166388902Y-40907291D02*
X166465867Y-40971136D01*
X166388884Y-43992809D02*
X166465849Y-43928964D01*
X166465867Y-40971136D02*
X166537697Y-41040708D01*
X166465849Y-43928964D02*
X166537679Y-43859392D01*
X166537697Y-41040708D02*
X166603967Y-41115595D01*
X166537679Y-43859392D02*
X166603949Y-43784505D01*
X166603967Y-41115595D02*
X166664285Y-41195354D01*
X166603949Y-43784505D02*
X166664267Y-43704746D01*
X166664285Y-41195354D02*
X166718294Y-41279513D01*
X166664267Y-43704746D02*
X166718276Y-43620587D01*
X166718294Y-41279513D02*
X166765674Y-41367574D01*
X166718276Y-43620587D02*
X166765656Y-43532526D01*
X166765674Y-41367574D02*
X166806145Y-41459016D01*
X166765656Y-43532526D02*
X166806127Y-43441084D01*
X166806145Y-41459016D02*
X166839467Y-41553298D01*
X166806127Y-43441084D02*
X166839449Y-43346802D01*
X166839467Y-41553298D02*
X166865443Y-41649862D01*
X166839449Y-43346802D02*
X166865425Y-43250238D01*
X166865443Y-41649862D02*
X166883920Y-41748137D01*
X166865425Y-43250238D02*
X166883902Y-43151963D01*
X166883920Y-41748137D02*
X166894788Y-41847542D01*
X166883902Y-43151963D02*
X166894770Y-43052558D01*
X166894788Y-41847542D02*
X166897983Y-41947488D01*
X166894770Y-43052558D02*
X166897965Y-42952612D01*
X166897983Y-41947488D02*
X166897965Y-42952612D01*
X170647988Y-40640000D02*
X170548284Y-40647687D01*
X170647998Y-44260100D02*
X170548294Y-44252413D01*
X170548284Y-40647687D02*
X170449466Y-40663015D01*
X170548294Y-44252413D02*
X170449476Y-44237085D01*
X170449466Y-40663015D02*
X170352119Y-40685893D01*
X170449476Y-44237085D02*
X170352129Y-44214207D01*
X170352119Y-40685893D02*
X170256819Y-40716186D01*
X170352129Y-44214207D02*
X170256829Y-44183914D01*
X170256819Y-40716186D02*
X170164129Y-40753715D01*
X170256829Y-44183914D02*
X170164139Y-44146385D01*
X170164129Y-40753715D02*
X170074598Y-40798258D01*
X170164139Y-44146385D02*
X170074608Y-44101842D01*
X170074598Y-40798258D02*
X169988756Y-40849551D01*
X170074608Y-44101842D02*
X169988766Y-44050549D01*
X169988756Y-40849551D02*
X169907111Y-40907291D01*
X169988766Y-44050549D02*
X169907121Y-43992809D01*
X169907111Y-40907291D02*
X169830146Y-40971136D01*
X169907121Y-43992809D02*
X169830156Y-43928964D01*
X169830146Y-40971136D02*
X169758316Y-41040708D01*
X169830156Y-43928964D02*
X169758326Y-43859392D01*
X169758316Y-41040708D02*
X169692046Y-41115595D01*
X169758326Y-43859392D02*
X169692056Y-43784505D01*
X169692046Y-41115595D02*
X169631728Y-41195354D01*
X169692056Y-43784505D02*
X169631738Y-43704746D01*
X169631728Y-41195354D02*
X169577719Y-41279513D01*
X169631738Y-43704746D02*
X169577729Y-43620587D01*
X169577719Y-41279513D02*
X169530339Y-41367574D01*
X169577729Y-43620587D02*
X169530349Y-43532526D01*
X169530339Y-41367574D02*
X169489868Y-41459016D01*
X169530349Y-43532526D02*
X169489878Y-43441084D01*
X169489868Y-41459016D02*
X169456546Y-41553298D01*
X169489878Y-43441084D02*
X169456556Y-43346802D01*
X169456546Y-41553298D02*
X169430570Y-41649862D01*
X169456556Y-43346802D02*
X169430580Y-43250238D01*
X169430570Y-41649862D02*
X169412093Y-41748137D01*
X169430580Y-43250238D02*
X169412103Y-43151963D01*
X169412093Y-41748137D02*
X169401225Y-41847542D01*
X169412103Y-43151963D02*
X169401235Y-43052558D01*
X169401225Y-41847542D02*
X169398030Y-41947488D01*
X169401235Y-43052558D02*
X169398040Y-42952612D01*
X169398030Y-41947488D02*
X169398040Y-42952612D01*
X116800008Y-40640000D02*
X165648025Y-40640000D01*
X111800012Y-40640000D02*
X90170000Y-40640000D01*
X116800003Y-44196600D02*
X128765300Y-44196600D01*
X111799997Y-44196600D02*
X93790100Y-44196600D01*
X111800012Y-40640000D02*
X111899716Y-40647687D01*
X111799997Y-44196600D02*
X111899701Y-44188913D01*
X111899716Y-40647687D02*
X111998534Y-40663015D01*
X111899701Y-44188913D02*
X111998519Y-44173585D01*
X111998534Y-40663015D02*
X112095881Y-40685893D01*
X111998519Y-44173585D02*
X112095866Y-44150707D01*
X112095881Y-40685893D02*
X112191181Y-40716186D01*
X112095866Y-44150707D02*
X112191166Y-44120414D01*
X112191181Y-40716186D02*
X112283871Y-40753715D01*
X112191166Y-44120414D02*
X112283856Y-44082885D01*
X112283871Y-40753715D02*
X112373402Y-40798258D01*
X112283856Y-44082885D02*
X112373387Y-44038342D01*
X112373402Y-40798258D02*
X112459244Y-40849551D01*
X112373387Y-44038342D02*
X112459229Y-43987049D01*
X112459244Y-40849551D02*
X112540889Y-40907291D01*
X112459229Y-43987049D02*
X112540874Y-43929309D01*
X112540889Y-40907291D02*
X112617854Y-40971136D01*
X112540874Y-43929309D02*
X112617839Y-43865464D01*
X112617854Y-40971136D02*
X112689684Y-41040708D01*
X112617839Y-43865464D02*
X112689669Y-43795892D01*
X112689684Y-41040708D02*
X112755954Y-41115595D01*
X112689669Y-43795892D02*
X112755939Y-43721005D01*
X112755954Y-41115595D02*
X112816272Y-41195354D01*
X112755939Y-43721005D02*
X112816257Y-43641246D01*
X112816272Y-41195354D02*
X112870281Y-41279513D01*
X112816257Y-43641246D02*
X112870266Y-43557087D01*
X112870281Y-41279513D02*
X112917661Y-41367574D01*
X112870266Y-43557087D02*
X112917646Y-43469026D01*
X112917661Y-41367574D02*
X112958132Y-41459016D01*
X112917646Y-43469026D02*
X112958117Y-43377584D01*
X112958132Y-41459016D02*
X112991454Y-41553298D01*
X112958117Y-43377584D02*
X112991439Y-43283302D01*
X112991454Y-41553298D02*
X113017430Y-41649862D01*
X112991439Y-43283302D02*
X113017415Y-43186738D01*
X113017430Y-41649862D02*
X113035907Y-41748137D01*
X113017415Y-43186738D02*
X113035892Y-43088463D01*
X113035907Y-41748137D02*
X113046775Y-41847542D01*
X113035892Y-43088463D02*
X113046760Y-42989058D01*
X113046775Y-41847542D02*
X113049970Y-41947488D01*
X113046760Y-42989058D02*
X113049955Y-42889112D01*
X113049970Y-41947488D02*
X113049955Y-42889112D01*
X116800003Y-44196600D02*
X116700299Y-44188913D01*
X116800008Y-40640000D02*
X116700304Y-40647687D01*
X116700299Y-44188913D02*
X116601481Y-44173585D01*
X116700304Y-40647687D02*
X116601486Y-40663015D01*
X116601481Y-44173585D02*
X116504134Y-44150707D01*
X116601486Y-40663015D02*
X116504139Y-40685893D01*
X116504134Y-44150707D02*
X116408834Y-44120414D01*
X116504139Y-40685893D02*
X116408839Y-40716186D01*
X116408834Y-44120414D02*
X116316144Y-44082885D01*
X116408839Y-40716186D02*
X116316149Y-40753715D01*
X116316144Y-44082885D02*
X116226613Y-44038342D01*
X116316149Y-40753715D02*
X116226618Y-40798258D01*
X116226613Y-44038342D02*
X116140771Y-43987049D01*
X116226618Y-40798258D02*
X116140776Y-40849551D01*
X116140771Y-43987049D02*
X116059126Y-43929309D01*
X116140776Y-40849551D02*
X116059131Y-40907291D01*
X116059126Y-43929309D02*
X115982161Y-43865464D01*
X116059131Y-40907291D02*
X115982166Y-40971136D01*
X115982161Y-43865464D02*
X115910331Y-43795892D01*
X115982166Y-40971136D02*
X115910336Y-41040708D01*
X115910331Y-43795892D02*
X115844061Y-43721005D01*
X115910336Y-41040708D02*
X115844066Y-41115595D01*
X115844061Y-43721005D02*
X115783743Y-43641246D01*
X115844066Y-41115595D02*
X115783748Y-41195354D01*
X115783743Y-43641246D02*
X115729734Y-43557087D01*
X115783748Y-41195354D02*
X115729739Y-41279513D01*
X115729734Y-43557087D02*
X115682354Y-43469026D01*
X115729739Y-41279513D02*
X115682359Y-41367574D01*
X115682354Y-43469026D02*
X115641883Y-43377584D01*
X115682359Y-41367574D02*
X115641888Y-41459016D01*
X115641883Y-43377584D02*
X115608561Y-43283302D01*
X115641888Y-41459016D02*
X115608566Y-41553298D01*
X115608561Y-43283302D02*
X115582585Y-43186738D01*
X115608566Y-41553298D02*
X115582590Y-41649862D01*
X115582585Y-43186738D02*
X115564108Y-43088463D01*
X115582590Y-41649862D02*
X115564113Y-41748137D01*
X115564108Y-43088463D02*
X115553240Y-42989058D01*
X115564113Y-41748137D02*
X115553245Y-41847542D01*
X115553240Y-42989058D02*
X115550045Y-42889112D01*
X115553245Y-41847542D02*
X115550050Y-41947488D01*
X115550050Y-41947488D02*
X115550045Y-42889112D01*
X90170000Y-52872017D02*
X90170000Y-40640000D01*
X93790100Y-52872007D02*
X93790100Y-44196600D01*
X93790100Y-57871988D02*
X93790100Y-67691000D01*
X90170000Y-57871913D02*
X90177687Y-57772209D01*
X93790100Y-57871988D02*
X93782413Y-57772284D01*
X90177687Y-57772209D02*
X90193015Y-57673391D01*
X93782413Y-57772284D02*
X93767085Y-57673466D01*
X90193015Y-57673391D02*
X90215893Y-57576044D01*
X93767085Y-57673466D02*
X93744207Y-57576119D01*
X90215893Y-57576044D02*
X90246186Y-57480744D01*
X93744207Y-57576119D02*
X93713914Y-57480819D01*
X90246186Y-57480744D02*
X90283715Y-57388054D01*
X93713914Y-57480819D02*
X93676385Y-57388129D01*
X90283715Y-57388054D02*
X90328258Y-57298523D01*
X93676385Y-57388129D02*
X93631842Y-57298598D01*
X90328258Y-57298523D02*
X90379551Y-57212681D01*
X93631842Y-57298598D02*
X93580549Y-57212756D01*
X90379551Y-57212681D02*
X90437291Y-57131036D01*
X93580549Y-57212756D02*
X93522809Y-57131111D01*
X90437291Y-57131036D02*
X90501136Y-57054071D01*
X93522809Y-57131111D02*
X93458964Y-57054146D01*
X90501136Y-57054071D02*
X90570708Y-56982241D01*
X93458964Y-57054146D02*
X93389392Y-56982316D01*
X90570708Y-56982241D02*
X90645595Y-56915971D01*
X93389392Y-56982316D02*
X93314505Y-56916046D01*
X90645595Y-56915971D02*
X90725354Y-56855653D01*
X93314505Y-56916046D02*
X93234746Y-56855728D01*
X90725354Y-56855653D02*
X90809513Y-56801644D01*
X93234746Y-56855728D02*
X93150587Y-56801719D01*
X90809513Y-56801644D02*
X90897574Y-56754264D01*
X93150587Y-56801719D02*
X93062526Y-56754339D01*
X90897574Y-56754264D02*
X90989016Y-56713793D01*
X93062526Y-56754339D02*
X92971084Y-56713868D01*
X90989016Y-56713793D02*
X91083298Y-56680471D01*
X92971084Y-56713868D02*
X92876802Y-56680546D01*
X91083298Y-56680471D02*
X91179862Y-56654495D01*
X92876802Y-56680546D02*
X92780238Y-56654570D01*
X91179862Y-56654495D02*
X91278137Y-56636018D01*
X92780238Y-56654570D02*
X92681963Y-56636093D01*
X91278137Y-56636018D02*
X91377542Y-56625150D01*
X92681963Y-56636093D02*
X92582558Y-56625225D01*
X91377542Y-56625150D02*
X91477488Y-56621955D01*
X92582558Y-56625225D02*
X92482612Y-56622030D01*
X91477488Y-56621955D02*
X92482612Y-56622030D01*
X90170000Y-52872017D02*
X90177687Y-52971721D01*
X93790100Y-52872007D02*
X93782413Y-52971711D01*
X90177687Y-52971721D02*
X90193015Y-53070539D01*
X93782413Y-52971711D02*
X93767085Y-53070529D01*
X90193015Y-53070539D02*
X90215893Y-53167886D01*
X93767085Y-53070529D02*
X93744207Y-53167876D01*
X90215893Y-53167886D02*
X90246186Y-53263186D01*
X93744207Y-53167876D02*
X93713914Y-53263176D01*
X90246186Y-53263186D02*
X90283715Y-53355876D01*
X93713914Y-53263176D02*
X93676385Y-53355866D01*
X90283715Y-53355876D02*
X90328258Y-53445407D01*
X93676385Y-53355866D02*
X93631842Y-53445397D01*
X90328258Y-53445407D02*
X90379551Y-53531249D01*
X93631842Y-53445397D02*
X93580549Y-53531239D01*
X90379551Y-53531249D02*
X90437291Y-53612894D01*
X93580549Y-53531239D02*
X93522809Y-53612884D01*
X90437291Y-53612894D02*
X90501136Y-53689859D01*
X93522809Y-53612884D02*
X93458964Y-53689849D01*
X90501136Y-53689859D02*
X90570708Y-53761689D01*
X93458964Y-53689849D02*
X93389392Y-53761679D01*
X90570708Y-53761689D02*
X90645595Y-53827959D01*
X93389392Y-53761679D02*
X93314505Y-53827949D01*
X90645595Y-53827959D02*
X90725354Y-53888277D01*
X93314505Y-53827949D02*
X93234746Y-53888267D01*
X90725354Y-53888277D02*
X90809513Y-53942286D01*
X93234746Y-53888267D02*
X93150587Y-53942276D01*
X90809513Y-53942286D02*
X90897574Y-53989666D01*
X93150587Y-53942276D02*
X93062526Y-53989656D01*
X90897574Y-53989666D02*
X90989016Y-54030137D01*
X93062526Y-53989656D02*
X92971084Y-54030127D01*
X90989016Y-54030137D02*
X91083298Y-54063459D01*
X92971084Y-54030127D02*
X92876802Y-54063449D01*
X91083298Y-54063459D02*
X91179862Y-54089435D01*
X92876802Y-54063449D02*
X92780238Y-54089425D01*
X91179862Y-54089435D02*
X91278137Y-54107912D01*
X92780238Y-54089425D02*
X92681963Y-54107902D01*
X91278137Y-54107912D02*
X91377542Y-54118780D01*
X92681963Y-54107902D02*
X92582558Y-54118770D01*
X91377542Y-54118780D02*
X91477488Y-54121975D01*
X92582558Y-54118770D02*
X92482612Y-54121965D01*
X91477488Y-54121975D02*
X92482612Y-54121965D01*
X90170000Y-106593027D02*
X90170000Y-57871913D01*
X90170000Y-111593008D02*
X90170000Y-132080000D01*
X93726600Y-106592982D02*
X93726600Y-94119700D01*
X93726600Y-111592988D02*
X93726600Y-129094900D01*
X93726600Y-111592988D02*
X93718913Y-111493284D01*
X90170000Y-111593008D02*
X90177687Y-111493304D01*
X93718913Y-111493284D02*
X93703585Y-111394466D01*
X90177687Y-111493304D02*
X90193015Y-111394486D01*
X93703585Y-111394466D02*
X93680707Y-111297119D01*
X90193015Y-111394486D02*
X90215893Y-111297139D01*
X93680707Y-111297119D02*
X93650414Y-111201819D01*
X90215893Y-111297139D02*
X90246186Y-111201839D01*
X93650414Y-111201819D02*
X93612885Y-111109129D01*
X90246186Y-111201839D02*
X90283715Y-111109149D01*
X93612885Y-111109129D02*
X93568342Y-111019598D01*
X90283715Y-111109149D02*
X90328258Y-111019618D01*
X93568342Y-111019598D02*
X93517049Y-110933756D01*
X90328258Y-111019618D02*
X90379551Y-110933776D01*
X93517049Y-110933756D02*
X93459309Y-110852111D01*
X90379551Y-110933776D02*
X90437291Y-110852131D01*
X93459309Y-110852111D02*
X93395464Y-110775146D01*
X90437291Y-110852131D02*
X90501136Y-110775166D01*
X93395464Y-110775146D02*
X93325892Y-110703316D01*
X90501136Y-110775166D02*
X90570708Y-110703336D01*
X93325892Y-110703316D02*
X93251005Y-110637046D01*
X90570708Y-110703336D02*
X90645595Y-110637066D01*
X93251005Y-110637046D02*
X93171246Y-110576728D01*
X90645595Y-110637066D02*
X90725354Y-110576748D01*
X93171246Y-110576728D02*
X93087087Y-110522719D01*
X90725354Y-110576748D02*
X90809513Y-110522739D01*
X93087087Y-110522719D02*
X92999026Y-110475339D01*
X90809513Y-110522739D02*
X90897574Y-110475359D01*
X92999026Y-110475339D02*
X92907584Y-110434868D01*
X90897574Y-110475359D02*
X90989016Y-110434888D01*
X92907584Y-110434868D02*
X92813302Y-110401546D01*
X90989016Y-110434888D02*
X91083298Y-110401566D01*
X92813302Y-110401546D02*
X92716738Y-110375570D01*
X91083298Y-110401566D02*
X91179862Y-110375590D01*
X92716738Y-110375570D02*
X92618463Y-110357093D01*
X91179862Y-110375590D02*
X91278137Y-110357113D01*
X92618463Y-110357093D02*
X92519058Y-110346225D01*
X91278137Y-110357113D02*
X91377542Y-110346245D01*
X92519058Y-110346225D02*
X92419112Y-110343030D01*
X91377542Y-110346245D02*
X91477488Y-110343050D01*
X91477488Y-110343050D02*
X92419112Y-110343030D01*
X90170000Y-106593027D02*
X90177687Y-106692731D01*
X93726600Y-106592982D02*
X93718913Y-106692686D01*
X90177687Y-106692731D02*
X90193015Y-106791549D01*
X93718913Y-106692686D02*
X93703585Y-106791504D01*
X90193015Y-106791549D02*
X90215893Y-106888896D01*
X93703585Y-106791504D02*
X93680707Y-106888851D01*
X90215893Y-106888896D02*
X90246186Y-106984196D01*
X93680707Y-106888851D02*
X93650414Y-106984151D01*
X90246186Y-106984196D02*
X90283715Y-107076886D01*
X93650414Y-106984151D02*
X93612885Y-107076841D01*
X90283715Y-107076886D02*
X90328258Y-107166417D01*
X93612885Y-107076841D02*
X93568342Y-107166372D01*
X90328258Y-107166417D02*
X90379551Y-107252259D01*
X93568342Y-107166372D02*
X93517049Y-107252214D01*
X90379551Y-107252259D02*
X90437291Y-107333904D01*
X93517049Y-107252214D02*
X93459309Y-107333859D01*
X90437291Y-107333904D02*
X90501136Y-107410869D01*
X93459309Y-107333859D02*
X93395464Y-107410824D01*
X90501136Y-107410869D02*
X90570708Y-107482699D01*
X93395464Y-107410824D02*
X93325892Y-107482654D01*
X90570708Y-107482699D02*
X90645595Y-107548969D01*
X93325892Y-107482654D02*
X93251005Y-107548924D01*
X90645595Y-107548969D02*
X90725354Y-107609287D01*
X93251005Y-107548924D02*
X93171246Y-107609242D01*
X90725354Y-107609287D02*
X90809513Y-107663296D01*
X93171246Y-107609242D02*
X93087087Y-107663251D01*
X90809513Y-107663296D02*
X90897574Y-107710676D01*
X93087087Y-107663251D02*
X92999026Y-107710631D01*
X90897574Y-107710676D02*
X90989016Y-107751147D01*
X92999026Y-107710631D02*
X92907584Y-107751102D01*
X90989016Y-107751147D02*
X91083298Y-107784469D01*
X92907584Y-107751102D02*
X92813302Y-107784424D01*
X91083298Y-107784469D02*
X91179862Y-107810445D01*
X92813302Y-107784424D02*
X92716738Y-107810400D01*
X91179862Y-107810445D02*
X91278137Y-107828922D01*
X92716738Y-107810400D02*
X92618463Y-107828877D01*
X91278137Y-107828922D02*
X91377542Y-107839790D01*
X92618463Y-107828877D02*
X92519058Y-107839745D01*
X91377542Y-107839790D02*
X91477488Y-107842985D01*
X92519058Y-107839745D02*
X92419112Y-107842940D01*
X91477488Y-107842985D02*
X92419112Y-107842940D01*
X107148033Y-132080000D02*
X155742055Y-132080000D01*
X102148012Y-132080000D02*
X90170000Y-132080000D01*
X102148010Y-129094900D02*
X93726600Y-129094900D01*
X107148015Y-129094900D02*
X117221000Y-129094900D01*
X107148015Y-129094900D02*
X107048311Y-129102587D01*
X107148033Y-132080000D02*
X107048329Y-132072313D01*
X107048311Y-129102587D02*
X106949493Y-129117915D01*
X107048329Y-132072313D02*
X106949511Y-132056985D01*
X106949493Y-129117915D02*
X106852146Y-129140793D01*
X106949511Y-132056985D02*
X106852164Y-132034107D01*
X106852146Y-129140793D02*
X106756846Y-129171086D01*
X106852164Y-132034107D02*
X106756864Y-132003814D01*
X106756846Y-129171086D02*
X106664156Y-129208615D01*
X106756864Y-132003814D02*
X106664174Y-131966285D01*
X106664156Y-129208615D02*
X106574625Y-129253158D01*
X106664174Y-131966285D02*
X106574643Y-131921742D01*
X106574625Y-129253158D02*
X106488783Y-129304451D01*
X106574643Y-131921742D02*
X106488801Y-131870449D01*
X106488783Y-129304451D02*
X106407138Y-129362191D01*
X106488801Y-131870449D02*
X106407156Y-131812709D01*
X106407138Y-129362191D02*
X106330173Y-129426036D01*
X106407156Y-131812709D02*
X106330191Y-131748864D01*
X106330173Y-129426036D02*
X106258343Y-129495608D01*
X106330191Y-131748864D02*
X106258361Y-131679292D01*
X106258343Y-129495608D02*
X106192073Y-129570495D01*
X106258361Y-131679292D02*
X106192091Y-131604405D01*
X106192073Y-129570495D02*
X106131755Y-129650254D01*
X106192091Y-131604405D02*
X106131773Y-131524646D01*
X106131755Y-129650254D02*
X106077746Y-129734413D01*
X106131773Y-131524646D02*
X106077764Y-131440487D01*
X106077746Y-129734413D02*
X106030366Y-129822474D01*
X106077764Y-131440487D02*
X106030384Y-131352426D01*
X106030366Y-129822474D02*
X105989895Y-129913916D01*
X106030384Y-131352426D02*
X105989913Y-131260984D01*
X105989895Y-129913916D02*
X105956573Y-130008198D01*
X105989913Y-131260984D02*
X105956591Y-131166702D01*
X105956573Y-130008198D02*
X105930597Y-130104762D01*
X105956591Y-131166702D02*
X105930615Y-131070138D01*
X105930597Y-130104762D02*
X105912120Y-130203037D01*
X105930615Y-131070138D02*
X105912138Y-130971863D01*
X105912120Y-130203037D02*
X105901252Y-130302442D01*
X105912138Y-130971863D02*
X105901270Y-130872458D01*
X105901252Y-130302442D02*
X105898057Y-130402388D01*
X105901270Y-130872458D02*
X105898075Y-130772512D01*
X105898075Y-130772512D02*
X105898057Y-130402388D01*
X102148012Y-132080000D02*
X102247716Y-132072313D01*
X102148010Y-129094900D02*
X102247714Y-129102587D01*
X102247716Y-132072313D02*
X102346534Y-132056985D01*
X102247714Y-129102587D02*
X102346532Y-129117915D01*
X102346534Y-132056985D02*
X102443881Y-132034107D01*
X102346532Y-129117915D02*
X102443879Y-129140793D01*
X102443881Y-132034107D02*
X102539181Y-132003814D01*
X102443879Y-129140793D02*
X102539179Y-129171086D01*
X102539181Y-132003814D02*
X102631871Y-131966285D01*
X102539179Y-129171086D02*
X102631869Y-129208615D01*
X102631871Y-131966285D02*
X102721402Y-131921742D01*
X102631869Y-129208615D02*
X102721400Y-129253158D01*
X102721402Y-131921742D02*
X102807244Y-131870449D01*
X102721400Y-129253158D02*
X102807242Y-129304451D01*
X102807244Y-131870449D02*
X102888889Y-131812709D01*
X102807242Y-129304451D02*
X102888887Y-129362191D01*
X102888889Y-131812709D02*
X102965854Y-131748864D01*
X102888887Y-129362191D02*
X102965852Y-129426036D01*
X102965854Y-131748864D02*
X103037684Y-131679292D01*
X102965852Y-129426036D02*
X103037682Y-129495608D01*
X103037684Y-131679292D02*
X103103954Y-131604405D01*
X103037682Y-129495608D02*
X103103952Y-129570495D01*
X103103954Y-131604405D02*
X103164272Y-131524646D01*
X103103952Y-129570495D02*
X103164270Y-129650254D01*
X103164272Y-131524646D02*
X103218281Y-131440487D01*
X103164270Y-129650254D02*
X103218279Y-129734413D01*
X103218281Y-131440487D02*
X103265661Y-131352426D01*
X103218279Y-129734413D02*
X103265659Y-129822474D01*
X103265661Y-131352426D02*
X103306132Y-131260984D01*
X103265659Y-129822474D02*
X103306130Y-129913916D01*
X103306132Y-131260984D02*
X103339454Y-131166702D01*
X103306130Y-129913916D02*
X103339452Y-130008198D01*
X103339454Y-131166702D02*
X103365430Y-131070138D01*
X103339452Y-130008198D02*
X103365428Y-130104762D01*
X103365430Y-131070138D02*
X103383907Y-130971863D01*
X103365428Y-130104762D02*
X103383905Y-130203037D01*
X103383907Y-130971863D02*
X103394775Y-130872458D01*
X103383905Y-130203037D02*
X103394773Y-130302442D01*
X103394775Y-130872458D02*
X103397970Y-130772512D01*
X103394773Y-130302442D02*
X103397968Y-130402388D01*
X103397970Y-130772512D02*
X103397968Y-130402388D01*
M02*
