%TF.GenerationSoftware,KiCad,Pcbnew,5.0.2-bee76a0~70~ubuntu18.04.1*%
%TF.CreationDate,2020-02-29T17:46:36-08:00*%
%TF.ProjectId,mainboard,6d61696e-626f-4617-9264-2e6b69636164,rev?*%
%TF.SameCoordinates,Original*%
%TF.FileFunction,Soldermask,Bot*%
%TF.FilePolarity,Negative*%
%FSLAX46Y46*%
G04 Gerber Fmt 4.6, Leading zero omitted, Abs format (unit mm)*
G04 Created by KiCad (PCBNEW 5.0.2-bee76a0~70~ubuntu18.04.1) date Sat 29 Feb 2020 05:46:36 PM PST*
%MOMM*%
%LPD*%
G01*
G04 APERTURE LIST*
%ADD10C,0.150000*%
%ADD11C,0.100000*%
G04 APERTURE END LIST*
D10*
X120902460Y-74415942D02*
X120102459Y-74415941D01*
X85102460Y-74415941D02*
G75*
G02X84602460Y-73915941I0J500000D01*
G01*
X113602459Y-73915941D02*
G75*
G02X113102459Y-74415941I-500000J0D01*
G01*
X113102459Y-107215941D02*
G75*
G02X113602459Y-107715941I0J-500000D01*
G01*
X84602460Y-107715941D02*
G75*
G02X85102460Y-107215941I500000J0D01*
G01*
X77340460Y-91475941D02*
X76502460Y-92313941D01*
X77340460Y-98555940D02*
X76502460Y-97790000D01*
X120102460Y-72915941D02*
X113602460Y-72915941D01*
X113602459Y-107715941D02*
X113602460Y-108715941D01*
X85102460Y-107215941D02*
X113102459Y-107215941D01*
X84602460Y-108715941D02*
X84602460Y-107715941D01*
X113602460Y-108715941D02*
X120102459Y-108715940D01*
X113102459Y-74415941D02*
X93872460Y-74415941D01*
X113602460Y-72915941D02*
X113602459Y-73915941D01*
X78102460Y-72915941D02*
X78102460Y-74415941D01*
X93872460Y-74415941D02*
X93872460Y-75565000D01*
X93872460Y-75565000D02*
X89872460Y-75565000D01*
X78102460Y-74415941D02*
X77340460Y-74415941D01*
X77340460Y-74415941D02*
X77340460Y-91475941D01*
X120102460Y-107215940D02*
X120902460Y-107215940D01*
X120102459Y-74415941D02*
X120102460Y-72915941D01*
X89872460Y-75565000D02*
X89872460Y-74415941D01*
X84602460Y-72915941D02*
X78102460Y-72915941D01*
X84602460Y-73915941D02*
X84602460Y-72915941D01*
X89872460Y-74415941D02*
X85102460Y-74415941D01*
X76502460Y-92313941D02*
X76502460Y-97790000D01*
X120902460Y-107215940D02*
X120902460Y-74415942D01*
X78102460Y-107215940D02*
X78102460Y-108715940D01*
X120102459Y-108715940D02*
X120102460Y-107215940D01*
X77340460Y-98555940D02*
X77340460Y-107215940D01*
X78102460Y-108715940D02*
X84602460Y-108715941D01*
X77340460Y-107215940D02*
X78102460Y-107215940D01*
D11*
G36*
X83618767Y-106828822D02*
X83755258Y-106885359D01*
X83878097Y-106967437D01*
X83982563Y-107071903D01*
X84064641Y-107194742D01*
X84121178Y-107331233D01*
X84150000Y-107476131D01*
X84150000Y-107623869D01*
X84121178Y-107768767D01*
X84064641Y-107905258D01*
X83982563Y-108028097D01*
X83878097Y-108132563D01*
X83755258Y-108214641D01*
X83618767Y-108271178D01*
X83473869Y-108300000D01*
X83326131Y-108300000D01*
X83181233Y-108271178D01*
X83044742Y-108214641D01*
X82921903Y-108132563D01*
X82817437Y-108028097D01*
X82735359Y-107905258D01*
X82678822Y-107768767D01*
X82650000Y-107623869D01*
X82650000Y-107476131D01*
X82678822Y-107331233D01*
X82735359Y-107194742D01*
X82817437Y-107071903D01*
X82921903Y-106967437D01*
X83044742Y-106885359D01*
X83181233Y-106828822D01*
X83326131Y-106800000D01*
X83473869Y-106800000D01*
X83618767Y-106828822D01*
X83618767Y-106828822D01*
G37*
G36*
X116256000Y-107083000D02*
X113658000Y-107083000D01*
X113658000Y-106035000D01*
X116256000Y-106035000D01*
X116256000Y-107083000D01*
X116256000Y-107083000D01*
G37*
G36*
X104776000Y-107083000D02*
X102478000Y-107083000D01*
X102478000Y-105835000D01*
X104776000Y-105835000D01*
X104776000Y-107083000D01*
X104776000Y-107083000D01*
G37*
G36*
X79264113Y-105176169D02*
X79436820Y-105247707D01*
X79592252Y-105351563D01*
X79724437Y-105483748D01*
X79828293Y-105639180D01*
X79899831Y-105811887D01*
X79936300Y-105995232D01*
X79936300Y-106182168D01*
X79899831Y-106365513D01*
X79828293Y-106538220D01*
X79724437Y-106693652D01*
X79592252Y-106825837D01*
X79436820Y-106929693D01*
X79264113Y-107001231D01*
X79080768Y-107037700D01*
X78893832Y-107037700D01*
X78710487Y-107001231D01*
X78537780Y-106929693D01*
X78382348Y-106825837D01*
X78250163Y-106693652D01*
X78146307Y-106538220D01*
X78074769Y-106365513D01*
X78038300Y-106182168D01*
X78038300Y-105995232D01*
X78074769Y-105811887D01*
X78146307Y-105639180D01*
X78250163Y-105483748D01*
X78382348Y-105351563D01*
X78537780Y-105247707D01*
X78710487Y-105176169D01*
X78893832Y-105139700D01*
X79080768Y-105139700D01*
X79264113Y-105176169D01*
X79264113Y-105176169D01*
G37*
G36*
X89509418Y-104524113D02*
X89537466Y-104532621D01*
X89563316Y-104546439D01*
X89585970Y-104565030D01*
X89604561Y-104587684D01*
X89618379Y-104613534D01*
X89626887Y-104641582D01*
X89630000Y-104673186D01*
X89630000Y-106216814D01*
X89626887Y-106248418D01*
X89618379Y-106276466D01*
X89604561Y-106302316D01*
X89585970Y-106324970D01*
X89563316Y-106343561D01*
X89537466Y-106357379D01*
X89509418Y-106365887D01*
X89477814Y-106369000D01*
X89084186Y-106369000D01*
X89052582Y-106365887D01*
X89024534Y-106357379D01*
X88998684Y-106343561D01*
X88976030Y-106324970D01*
X88957439Y-106302316D01*
X88943621Y-106276466D01*
X88935113Y-106248418D01*
X88932000Y-106216814D01*
X88932000Y-104673186D01*
X88935113Y-104641582D01*
X88943621Y-104613534D01*
X88957439Y-104587684D01*
X88976030Y-104565030D01*
X88998684Y-104546439D01*
X89024534Y-104532621D01*
X89052582Y-104524113D01*
X89084186Y-104521000D01*
X89477814Y-104521000D01*
X89509418Y-104524113D01*
X89509418Y-104524113D01*
G37*
G36*
X92049418Y-104524113D02*
X92077466Y-104532621D01*
X92103316Y-104546439D01*
X92125970Y-104565030D01*
X92144561Y-104587684D01*
X92158379Y-104613534D01*
X92166887Y-104641582D01*
X92170000Y-104673186D01*
X92170000Y-106216814D01*
X92166887Y-106248418D01*
X92158379Y-106276466D01*
X92144561Y-106302316D01*
X92125970Y-106324970D01*
X92103316Y-106343561D01*
X92077466Y-106357379D01*
X92049418Y-106365887D01*
X92017814Y-106369000D01*
X91624186Y-106369000D01*
X91592582Y-106365887D01*
X91564534Y-106357379D01*
X91538684Y-106343561D01*
X91516030Y-106324970D01*
X91497439Y-106302316D01*
X91483621Y-106276466D01*
X91475113Y-106248418D01*
X91472000Y-106216814D01*
X91472000Y-104673186D01*
X91475113Y-104641582D01*
X91483621Y-104613534D01*
X91497439Y-104587684D01*
X91516030Y-104565030D01*
X91538684Y-104546439D01*
X91564534Y-104532621D01*
X91592582Y-104524113D01*
X91624186Y-104521000D01*
X92017814Y-104521000D01*
X92049418Y-104524113D01*
X92049418Y-104524113D01*
G37*
G36*
X88239418Y-104524113D02*
X88267466Y-104532621D01*
X88293316Y-104546439D01*
X88315970Y-104565030D01*
X88334561Y-104587684D01*
X88348379Y-104613534D01*
X88356887Y-104641582D01*
X88360000Y-104673186D01*
X88360000Y-106216814D01*
X88356887Y-106248418D01*
X88348379Y-106276466D01*
X88334561Y-106302316D01*
X88315970Y-106324970D01*
X88293316Y-106343561D01*
X88267466Y-106357379D01*
X88239418Y-106365887D01*
X88207814Y-106369000D01*
X87814186Y-106369000D01*
X87782582Y-106365887D01*
X87754534Y-106357379D01*
X87728684Y-106343561D01*
X87706030Y-106324970D01*
X87687439Y-106302316D01*
X87673621Y-106276466D01*
X87665113Y-106248418D01*
X87662000Y-106216814D01*
X87662000Y-104673186D01*
X87665113Y-104641582D01*
X87673621Y-104613534D01*
X87687439Y-104587684D01*
X87706030Y-104565030D01*
X87728684Y-104546439D01*
X87754534Y-104532621D01*
X87782582Y-104524113D01*
X87814186Y-104521000D01*
X88207814Y-104521000D01*
X88239418Y-104524113D01*
X88239418Y-104524113D01*
G37*
G36*
X90779418Y-104524113D02*
X90807466Y-104532621D01*
X90833316Y-104546439D01*
X90855970Y-104565030D01*
X90874561Y-104587684D01*
X90888379Y-104613534D01*
X90896887Y-104641582D01*
X90900000Y-104673186D01*
X90900000Y-106216814D01*
X90896887Y-106248418D01*
X90888379Y-106276466D01*
X90874561Y-106302316D01*
X90855970Y-106324970D01*
X90833316Y-106343561D01*
X90807466Y-106357379D01*
X90779418Y-106365887D01*
X90747814Y-106369000D01*
X90354186Y-106369000D01*
X90322582Y-106365887D01*
X90294534Y-106357379D01*
X90268684Y-106343561D01*
X90246030Y-106324970D01*
X90227439Y-106302316D01*
X90213621Y-106276466D01*
X90205113Y-106248418D01*
X90202000Y-106216814D01*
X90202000Y-104673186D01*
X90205113Y-104641582D01*
X90213621Y-104613534D01*
X90227439Y-104587684D01*
X90246030Y-104565030D01*
X90268684Y-104546439D01*
X90294534Y-104532621D01*
X90322582Y-104524113D01*
X90354186Y-104521000D01*
X90747814Y-104521000D01*
X90779418Y-104524113D01*
X90779418Y-104524113D01*
G37*
G36*
X81834203Y-104350169D02*
X81906943Y-104364638D01*
X81952621Y-104383559D01*
X82043979Y-104421400D01*
X82167309Y-104503807D01*
X82272193Y-104608691D01*
X82354600Y-104732021D01*
X82411362Y-104869058D01*
X82440300Y-105014536D01*
X82440300Y-105162864D01*
X82411362Y-105308342D01*
X82354600Y-105445379D01*
X82272193Y-105568709D01*
X82167309Y-105673593D01*
X82043979Y-105756000D01*
X81959010Y-105791195D01*
X81906943Y-105812762D01*
X81834203Y-105827231D01*
X81761464Y-105841700D01*
X81613136Y-105841700D01*
X81540397Y-105827231D01*
X81467657Y-105812762D01*
X81415590Y-105791195D01*
X81330621Y-105756000D01*
X81207291Y-105673593D01*
X81102407Y-105568709D01*
X81020000Y-105445379D01*
X80963238Y-105308342D01*
X80934300Y-105162864D01*
X80934300Y-105014536D01*
X80963238Y-104869058D01*
X81020000Y-104732021D01*
X81102407Y-104608691D01*
X81207291Y-104503807D01*
X81330621Y-104421400D01*
X81421979Y-104383559D01*
X81467657Y-104364638D01*
X81540397Y-104350169D01*
X81613136Y-104335700D01*
X81761464Y-104335700D01*
X81834203Y-104350169D01*
X81834203Y-104350169D01*
G37*
G36*
X86800933Y-105109564D02*
X86828508Y-105117930D01*
X86853922Y-105131514D01*
X86876202Y-105149798D01*
X86894486Y-105172078D01*
X86908070Y-105197492D01*
X86916436Y-105225067D01*
X86919500Y-105256184D01*
X86919500Y-105644816D01*
X86916436Y-105675933D01*
X86908070Y-105703508D01*
X86894486Y-105728922D01*
X86876202Y-105751202D01*
X86853922Y-105769486D01*
X86828508Y-105783070D01*
X86800933Y-105791436D01*
X86769816Y-105794500D01*
X86331184Y-105794500D01*
X86300067Y-105791436D01*
X86272492Y-105783070D01*
X86247078Y-105769486D01*
X86224798Y-105751202D01*
X86206514Y-105728922D01*
X86192930Y-105703508D01*
X86184564Y-105675933D01*
X86181500Y-105644816D01*
X86181500Y-105256184D01*
X86184564Y-105225067D01*
X86192930Y-105197492D01*
X86206514Y-105172078D01*
X86224798Y-105149798D01*
X86247078Y-105131514D01*
X86272492Y-105117930D01*
X86300067Y-105109564D01*
X86331184Y-105106500D01*
X86769816Y-105106500D01*
X86800933Y-105109564D01*
X86800933Y-105109564D01*
G37*
G36*
X86800933Y-104139564D02*
X86828508Y-104147930D01*
X86853922Y-104161514D01*
X86876202Y-104179798D01*
X86894486Y-104202078D01*
X86908070Y-104227492D01*
X86916436Y-104255067D01*
X86919500Y-104286184D01*
X86919500Y-104674816D01*
X86916436Y-104705933D01*
X86908070Y-104733508D01*
X86894486Y-104758922D01*
X86876202Y-104781202D01*
X86853922Y-104799486D01*
X86828508Y-104813070D01*
X86800933Y-104821436D01*
X86769816Y-104824500D01*
X86331184Y-104824500D01*
X86300067Y-104821436D01*
X86272492Y-104813070D01*
X86247078Y-104799486D01*
X86224798Y-104781202D01*
X86206514Y-104758922D01*
X86192930Y-104733508D01*
X86184564Y-104705933D01*
X86181500Y-104674816D01*
X86181500Y-104286184D01*
X86184564Y-104255067D01*
X86192930Y-104227492D01*
X86206514Y-104202078D01*
X86224798Y-104179798D01*
X86247078Y-104161514D01*
X86272492Y-104147930D01*
X86300067Y-104139564D01*
X86331184Y-104136500D01*
X86769816Y-104136500D01*
X86800933Y-104139564D01*
X86800933Y-104139564D01*
G37*
G36*
X79819500Y-104765000D02*
X78221500Y-104765000D01*
X78221500Y-103667000D01*
X79819500Y-103667000D01*
X79819500Y-104765000D01*
X79819500Y-104765000D01*
G37*
G36*
X84719500Y-104765000D02*
X83121500Y-104765000D01*
X83121500Y-103667000D01*
X84719500Y-103667000D01*
X84719500Y-104765000D01*
X84719500Y-104765000D01*
G37*
G36*
X97416957Y-101755914D02*
X97462594Y-101769758D01*
X97504646Y-101792235D01*
X97541511Y-101822489D01*
X97571765Y-101859354D01*
X97594242Y-101901406D01*
X97608086Y-101947043D01*
X97613000Y-101996936D01*
X97613000Y-103003064D01*
X97608086Y-103052957D01*
X97594242Y-103098594D01*
X97571765Y-103140646D01*
X97541511Y-103177511D01*
X97504646Y-103207765D01*
X97462594Y-103230242D01*
X97416957Y-103244086D01*
X97367064Y-103249000D01*
X96785936Y-103249000D01*
X96736043Y-103244086D01*
X96690406Y-103230242D01*
X96648354Y-103207765D01*
X96611489Y-103177511D01*
X96581235Y-103140646D01*
X96558758Y-103098594D01*
X96544914Y-103052957D01*
X96540000Y-103003064D01*
X96540000Y-101996936D01*
X96544914Y-101947043D01*
X96558758Y-101901406D01*
X96581235Y-101859354D01*
X96611489Y-101822489D01*
X96648354Y-101792235D01*
X96690406Y-101769758D01*
X96736043Y-101755914D01*
X96785936Y-101751000D01*
X97367064Y-101751000D01*
X97416957Y-101755914D01*
X97416957Y-101755914D01*
G37*
G36*
X95541957Y-101755914D02*
X95587594Y-101769758D01*
X95629646Y-101792235D01*
X95666511Y-101822489D01*
X95696765Y-101859354D01*
X95719242Y-101901406D01*
X95733086Y-101947043D01*
X95738000Y-101996936D01*
X95738000Y-103003064D01*
X95733086Y-103052957D01*
X95719242Y-103098594D01*
X95696765Y-103140646D01*
X95666511Y-103177511D01*
X95629646Y-103207765D01*
X95587594Y-103230242D01*
X95541957Y-103244086D01*
X95492064Y-103249000D01*
X94910936Y-103249000D01*
X94861043Y-103244086D01*
X94815406Y-103230242D01*
X94773354Y-103207765D01*
X94736489Y-103177511D01*
X94706235Y-103140646D01*
X94683758Y-103098594D01*
X94669914Y-103052957D01*
X94665000Y-103003064D01*
X94665000Y-101996936D01*
X94669914Y-101947043D01*
X94683758Y-101901406D01*
X94706235Y-101859354D01*
X94736489Y-101822489D01*
X94773354Y-101792235D01*
X94815406Y-101769758D01*
X94861043Y-101755914D01*
X94910936Y-101751000D01*
X95492064Y-101751000D01*
X95541957Y-101755914D01*
X95541957Y-101755914D01*
G37*
G36*
X103456000Y-102953000D02*
X102208000Y-102953000D01*
X102208000Y-101355000D01*
X103456000Y-101355000D01*
X103456000Y-102953000D01*
X103456000Y-102953000D01*
G37*
G36*
X116256000Y-102663000D02*
X114918000Y-102663000D01*
X114918000Y-101765000D01*
X116256000Y-101765000D01*
X116256000Y-102663000D01*
X116256000Y-102663000D01*
G37*
G36*
X79819500Y-101565000D02*
X78221500Y-101565000D01*
X78221500Y-100467000D01*
X79819500Y-100467000D01*
X79819500Y-101565000D01*
X79819500Y-101565000D01*
G37*
G36*
X84719500Y-101565000D02*
X83121500Y-101565000D01*
X83121500Y-100467000D01*
X84719500Y-100467000D01*
X84719500Y-101565000D01*
X84719500Y-101565000D01*
G37*
G36*
X116256000Y-101563000D02*
X114918000Y-101563000D01*
X114918000Y-100665000D01*
X116256000Y-100665000D01*
X116256000Y-101563000D01*
X116256000Y-101563000D01*
G37*
G36*
X92049418Y-99374113D02*
X92077466Y-99382621D01*
X92103316Y-99396439D01*
X92125970Y-99415030D01*
X92144561Y-99437684D01*
X92158379Y-99463534D01*
X92166887Y-99491582D01*
X92170000Y-99523186D01*
X92170000Y-101066814D01*
X92166887Y-101098418D01*
X92158379Y-101126466D01*
X92144561Y-101152316D01*
X92125970Y-101174970D01*
X92103316Y-101193561D01*
X92077466Y-101207379D01*
X92049418Y-101215887D01*
X92017814Y-101219000D01*
X91624186Y-101219000D01*
X91592582Y-101215887D01*
X91564534Y-101207379D01*
X91538684Y-101193561D01*
X91516030Y-101174970D01*
X91497439Y-101152316D01*
X91483621Y-101126466D01*
X91475113Y-101098418D01*
X91472000Y-101066814D01*
X91472000Y-99523186D01*
X91475113Y-99491582D01*
X91483621Y-99463534D01*
X91497439Y-99437684D01*
X91516030Y-99415030D01*
X91538684Y-99396439D01*
X91564534Y-99382621D01*
X91592582Y-99374113D01*
X91624186Y-99371000D01*
X92017814Y-99371000D01*
X92049418Y-99374113D01*
X92049418Y-99374113D01*
G37*
G36*
X90779418Y-99374113D02*
X90807466Y-99382621D01*
X90833316Y-99396439D01*
X90855970Y-99415030D01*
X90874561Y-99437684D01*
X90888379Y-99463534D01*
X90896887Y-99491582D01*
X90900000Y-99523186D01*
X90900000Y-101066814D01*
X90896887Y-101098418D01*
X90888379Y-101126466D01*
X90874561Y-101152316D01*
X90855970Y-101174970D01*
X90833316Y-101193561D01*
X90807466Y-101207379D01*
X90779418Y-101215887D01*
X90747814Y-101219000D01*
X90354186Y-101219000D01*
X90322582Y-101215887D01*
X90294534Y-101207379D01*
X90268684Y-101193561D01*
X90246030Y-101174970D01*
X90227439Y-101152316D01*
X90213621Y-101126466D01*
X90205113Y-101098418D01*
X90202000Y-101066814D01*
X90202000Y-99523186D01*
X90205113Y-99491582D01*
X90213621Y-99463534D01*
X90227439Y-99437684D01*
X90246030Y-99415030D01*
X90268684Y-99396439D01*
X90294534Y-99382621D01*
X90322582Y-99374113D01*
X90354186Y-99371000D01*
X90747814Y-99371000D01*
X90779418Y-99374113D01*
X90779418Y-99374113D01*
G37*
G36*
X89509418Y-99374113D02*
X89537466Y-99382621D01*
X89563316Y-99396439D01*
X89585970Y-99415030D01*
X89604561Y-99437684D01*
X89618379Y-99463534D01*
X89626887Y-99491582D01*
X89630000Y-99523186D01*
X89630000Y-101066814D01*
X89626887Y-101098418D01*
X89618379Y-101126466D01*
X89604561Y-101152316D01*
X89585970Y-101174970D01*
X89563316Y-101193561D01*
X89537466Y-101207379D01*
X89509418Y-101215887D01*
X89477814Y-101219000D01*
X89084186Y-101219000D01*
X89052582Y-101215887D01*
X89024534Y-101207379D01*
X88998684Y-101193561D01*
X88976030Y-101174970D01*
X88957439Y-101152316D01*
X88943621Y-101126466D01*
X88935113Y-101098418D01*
X88932000Y-101066814D01*
X88932000Y-99523186D01*
X88935113Y-99491582D01*
X88943621Y-99463534D01*
X88957439Y-99437684D01*
X88976030Y-99415030D01*
X88998684Y-99396439D01*
X89024534Y-99382621D01*
X89052582Y-99374113D01*
X89084186Y-99371000D01*
X89477814Y-99371000D01*
X89509418Y-99374113D01*
X89509418Y-99374113D01*
G37*
G36*
X88239418Y-99374113D02*
X88267466Y-99382621D01*
X88293316Y-99396439D01*
X88315970Y-99415030D01*
X88334561Y-99437684D01*
X88348379Y-99463534D01*
X88356887Y-99491582D01*
X88360000Y-99523186D01*
X88360000Y-101066814D01*
X88356887Y-101098418D01*
X88348379Y-101126466D01*
X88334561Y-101152316D01*
X88315970Y-101174970D01*
X88293316Y-101193561D01*
X88267466Y-101207379D01*
X88239418Y-101215887D01*
X88207814Y-101219000D01*
X87814186Y-101219000D01*
X87782582Y-101215887D01*
X87754534Y-101207379D01*
X87728684Y-101193561D01*
X87706030Y-101174970D01*
X87687439Y-101152316D01*
X87673621Y-101126466D01*
X87665113Y-101098418D01*
X87662000Y-101066814D01*
X87662000Y-99523186D01*
X87665113Y-99491582D01*
X87673621Y-99463534D01*
X87687439Y-99437684D01*
X87706030Y-99415030D01*
X87728684Y-99396439D01*
X87754534Y-99382621D01*
X87782582Y-99374113D01*
X87814186Y-99371000D01*
X88207814Y-99371000D01*
X88239418Y-99374113D01*
X88239418Y-99374113D01*
G37*
G36*
X81834203Y-99350169D02*
X81906943Y-99364638D01*
X81950357Y-99382621D01*
X82043979Y-99421400D01*
X82167309Y-99503807D01*
X82272193Y-99608691D01*
X82354600Y-99732021D01*
X82411362Y-99869058D01*
X82440300Y-100014536D01*
X82440300Y-100162864D01*
X82411362Y-100308342D01*
X82354600Y-100445379D01*
X82272193Y-100568709D01*
X82167309Y-100673593D01*
X82043979Y-100756000D01*
X81952621Y-100793841D01*
X81906943Y-100812762D01*
X81834203Y-100827231D01*
X81761464Y-100841700D01*
X81613136Y-100841700D01*
X81540397Y-100827231D01*
X81467657Y-100812762D01*
X81421979Y-100793841D01*
X81330621Y-100756000D01*
X81207291Y-100673593D01*
X81102407Y-100568709D01*
X81020000Y-100445379D01*
X80963238Y-100308342D01*
X80934300Y-100162864D01*
X80934300Y-100014536D01*
X80963238Y-99869058D01*
X81020000Y-99732021D01*
X81102407Y-99608691D01*
X81207291Y-99503807D01*
X81330621Y-99421400D01*
X81424243Y-99382621D01*
X81467657Y-99364638D01*
X81540397Y-99350169D01*
X81613136Y-99335700D01*
X81761464Y-99335700D01*
X81834203Y-99350169D01*
X81834203Y-99350169D01*
G37*
G36*
X94611433Y-100095604D02*
X94639008Y-100103970D01*
X94664422Y-100117554D01*
X94686702Y-100135838D01*
X94704986Y-100158118D01*
X94718570Y-100183532D01*
X94726936Y-100211107D01*
X94730000Y-100242224D01*
X94730000Y-100630856D01*
X94726936Y-100661973D01*
X94718570Y-100689548D01*
X94704986Y-100714962D01*
X94686702Y-100737242D01*
X94664422Y-100755526D01*
X94639008Y-100769110D01*
X94611433Y-100777476D01*
X94580316Y-100780540D01*
X94141684Y-100780540D01*
X94110567Y-100777476D01*
X94082992Y-100769110D01*
X94057578Y-100755526D01*
X94035298Y-100737242D01*
X94017014Y-100714962D01*
X94003430Y-100689548D01*
X93995064Y-100661973D01*
X93992000Y-100630856D01*
X93992000Y-100242224D01*
X93995064Y-100211107D01*
X94003430Y-100183532D01*
X94017014Y-100158118D01*
X94035298Y-100135838D01*
X94057578Y-100117554D01*
X94082992Y-100103970D01*
X94110567Y-100095604D01*
X94141684Y-100092540D01*
X94580316Y-100092540D01*
X94611433Y-100095604D01*
X94611433Y-100095604D01*
G37*
G36*
X97151433Y-100093064D02*
X97179008Y-100101430D01*
X97204422Y-100115014D01*
X97226702Y-100133298D01*
X97244986Y-100155578D01*
X97258570Y-100180992D01*
X97266936Y-100208567D01*
X97270000Y-100239684D01*
X97270000Y-100628316D01*
X97266936Y-100659433D01*
X97258570Y-100687008D01*
X97244986Y-100712422D01*
X97226702Y-100734702D01*
X97204422Y-100752986D01*
X97179008Y-100766570D01*
X97151433Y-100774936D01*
X97120316Y-100778000D01*
X96681684Y-100778000D01*
X96650567Y-100774936D01*
X96622992Y-100766570D01*
X96597578Y-100752986D01*
X96575298Y-100734702D01*
X96557014Y-100712422D01*
X96543430Y-100687008D01*
X96535064Y-100659433D01*
X96532000Y-100628316D01*
X96532000Y-100239684D01*
X96535064Y-100208567D01*
X96543430Y-100180992D01*
X96557014Y-100155578D01*
X96575298Y-100133298D01*
X96597578Y-100115014D01*
X96622992Y-100101430D01*
X96650567Y-100093064D01*
X96681684Y-100090000D01*
X97120316Y-100090000D01*
X97151433Y-100093064D01*
X97151433Y-100093064D01*
G37*
G36*
X95944933Y-100093064D02*
X95972508Y-100101430D01*
X95997922Y-100115014D01*
X96020202Y-100133298D01*
X96038486Y-100155578D01*
X96052070Y-100180992D01*
X96060436Y-100208567D01*
X96063500Y-100239684D01*
X96063500Y-100628316D01*
X96060436Y-100659433D01*
X96052070Y-100687008D01*
X96038486Y-100712422D01*
X96020202Y-100734702D01*
X95997922Y-100752986D01*
X95972508Y-100766570D01*
X95944933Y-100774936D01*
X95913816Y-100778000D01*
X95475184Y-100778000D01*
X95444067Y-100774936D01*
X95416492Y-100766570D01*
X95391078Y-100752986D01*
X95368798Y-100734702D01*
X95350514Y-100712422D01*
X95336930Y-100687008D01*
X95328564Y-100659433D01*
X95325500Y-100628316D01*
X95325500Y-100239684D01*
X95328564Y-100208567D01*
X95336930Y-100180992D01*
X95350514Y-100155578D01*
X95368798Y-100133298D01*
X95391078Y-100115014D01*
X95416492Y-100101430D01*
X95444067Y-100093064D01*
X95475184Y-100090000D01*
X95913816Y-100090000D01*
X95944933Y-100093064D01*
X95944933Y-100093064D01*
G37*
G36*
X98357933Y-100093064D02*
X98385508Y-100101430D01*
X98410922Y-100115014D01*
X98433202Y-100133298D01*
X98451486Y-100155578D01*
X98465070Y-100180992D01*
X98473436Y-100208567D01*
X98476500Y-100239684D01*
X98476500Y-100628316D01*
X98473436Y-100659433D01*
X98465070Y-100687008D01*
X98451486Y-100712422D01*
X98433202Y-100734702D01*
X98410922Y-100752986D01*
X98385508Y-100766570D01*
X98357933Y-100774936D01*
X98326816Y-100778000D01*
X97888184Y-100778000D01*
X97857067Y-100774936D01*
X97829492Y-100766570D01*
X97804078Y-100752986D01*
X97781798Y-100734702D01*
X97763514Y-100712422D01*
X97749930Y-100687008D01*
X97741564Y-100659433D01*
X97738500Y-100628316D01*
X97738500Y-100239684D01*
X97741564Y-100208567D01*
X97749930Y-100180992D01*
X97763514Y-100155578D01*
X97781798Y-100133298D01*
X97804078Y-100115014D01*
X97829492Y-100101430D01*
X97857067Y-100093064D01*
X97888184Y-100090000D01*
X98326816Y-100090000D01*
X98357933Y-100093064D01*
X98357933Y-100093064D01*
G37*
G36*
X116256000Y-100463000D02*
X114918000Y-100463000D01*
X114918000Y-99565000D01*
X116256000Y-99565000D01*
X116256000Y-100463000D01*
X116256000Y-100463000D01*
G37*
G36*
X79264113Y-98176169D02*
X79436820Y-98247707D01*
X79592252Y-98351563D01*
X79724437Y-98483748D01*
X79828293Y-98639180D01*
X79899831Y-98811887D01*
X79936300Y-98995232D01*
X79936300Y-99182168D01*
X79899831Y-99365513D01*
X79828293Y-99538220D01*
X79724437Y-99693652D01*
X79592252Y-99825837D01*
X79436820Y-99929693D01*
X79264113Y-100001231D01*
X79080768Y-100037700D01*
X78893832Y-100037700D01*
X78710487Y-100001231D01*
X78537780Y-99929693D01*
X78382348Y-99825837D01*
X78250163Y-99693652D01*
X78146307Y-99538220D01*
X78074769Y-99365513D01*
X78038300Y-99182168D01*
X78038300Y-98995232D01*
X78074769Y-98811887D01*
X78146307Y-98639180D01*
X78250163Y-98483748D01*
X78382348Y-98351563D01*
X78537780Y-98247707D01*
X78710487Y-98176169D01*
X78893832Y-98139700D01*
X79080768Y-98139700D01*
X79264113Y-98176169D01*
X79264113Y-98176169D01*
G37*
G36*
X94611433Y-99125604D02*
X94639008Y-99133970D01*
X94664422Y-99147554D01*
X94686702Y-99165838D01*
X94704986Y-99188118D01*
X94718570Y-99213532D01*
X94726936Y-99241107D01*
X94730000Y-99272224D01*
X94730000Y-99660856D01*
X94726936Y-99691973D01*
X94718570Y-99719548D01*
X94704986Y-99744962D01*
X94686702Y-99767242D01*
X94664422Y-99785526D01*
X94639008Y-99799110D01*
X94611433Y-99807476D01*
X94580316Y-99810540D01*
X94141684Y-99810540D01*
X94110567Y-99807476D01*
X94082992Y-99799110D01*
X94057578Y-99785526D01*
X94035298Y-99767242D01*
X94017014Y-99744962D01*
X94003430Y-99719548D01*
X93995064Y-99691973D01*
X93992000Y-99660856D01*
X93992000Y-99272224D01*
X93995064Y-99241107D01*
X94003430Y-99213532D01*
X94017014Y-99188118D01*
X94035298Y-99165838D01*
X94057578Y-99147554D01*
X94082992Y-99133970D01*
X94110567Y-99125604D01*
X94141684Y-99122540D01*
X94580316Y-99122540D01*
X94611433Y-99125604D01*
X94611433Y-99125604D01*
G37*
G36*
X95944933Y-99123064D02*
X95972508Y-99131430D01*
X95997922Y-99145014D01*
X96020202Y-99163298D01*
X96038486Y-99185578D01*
X96052070Y-99210992D01*
X96060436Y-99238567D01*
X96063500Y-99269684D01*
X96063500Y-99658316D01*
X96060436Y-99689433D01*
X96052070Y-99717008D01*
X96038486Y-99742422D01*
X96020202Y-99764702D01*
X95997922Y-99782986D01*
X95972508Y-99796570D01*
X95944933Y-99804936D01*
X95913816Y-99808000D01*
X95475184Y-99808000D01*
X95444067Y-99804936D01*
X95416492Y-99796570D01*
X95391078Y-99782986D01*
X95368798Y-99764702D01*
X95350514Y-99742422D01*
X95336930Y-99717008D01*
X95328564Y-99689433D01*
X95325500Y-99658316D01*
X95325500Y-99269684D01*
X95328564Y-99238567D01*
X95336930Y-99210992D01*
X95350514Y-99185578D01*
X95368798Y-99163298D01*
X95391078Y-99145014D01*
X95416492Y-99131430D01*
X95444067Y-99123064D01*
X95475184Y-99120000D01*
X95913816Y-99120000D01*
X95944933Y-99123064D01*
X95944933Y-99123064D01*
G37*
G36*
X98357933Y-99123064D02*
X98385508Y-99131430D01*
X98410922Y-99145014D01*
X98433202Y-99163298D01*
X98451486Y-99185578D01*
X98465070Y-99210992D01*
X98473436Y-99238567D01*
X98476500Y-99269684D01*
X98476500Y-99658316D01*
X98473436Y-99689433D01*
X98465070Y-99717008D01*
X98451486Y-99742422D01*
X98433202Y-99764702D01*
X98410922Y-99782986D01*
X98385508Y-99796570D01*
X98357933Y-99804936D01*
X98326816Y-99808000D01*
X97888184Y-99808000D01*
X97857067Y-99804936D01*
X97829492Y-99796570D01*
X97804078Y-99782986D01*
X97781798Y-99764702D01*
X97763514Y-99742422D01*
X97749930Y-99717008D01*
X97741564Y-99689433D01*
X97738500Y-99658316D01*
X97738500Y-99269684D01*
X97741564Y-99238567D01*
X97749930Y-99210992D01*
X97763514Y-99185578D01*
X97781798Y-99163298D01*
X97804078Y-99145014D01*
X97829492Y-99131430D01*
X97857067Y-99123064D01*
X97888184Y-99120000D01*
X98326816Y-99120000D01*
X98357933Y-99123064D01*
X98357933Y-99123064D01*
G37*
G36*
X97151433Y-99123064D02*
X97179008Y-99131430D01*
X97204422Y-99145014D01*
X97226702Y-99163298D01*
X97244986Y-99185578D01*
X97258570Y-99210992D01*
X97266936Y-99238567D01*
X97270000Y-99269684D01*
X97270000Y-99658316D01*
X97266936Y-99689433D01*
X97258570Y-99717008D01*
X97244986Y-99742422D01*
X97226702Y-99764702D01*
X97204422Y-99782986D01*
X97179008Y-99796570D01*
X97151433Y-99804936D01*
X97120316Y-99808000D01*
X96681684Y-99808000D01*
X96650567Y-99804936D01*
X96622992Y-99796570D01*
X96597578Y-99782986D01*
X96575298Y-99764702D01*
X96557014Y-99742422D01*
X96543430Y-99717008D01*
X96535064Y-99689433D01*
X96532000Y-99658316D01*
X96532000Y-99269684D01*
X96535064Y-99238567D01*
X96543430Y-99210992D01*
X96557014Y-99185578D01*
X96575298Y-99163298D01*
X96597578Y-99145014D01*
X96622992Y-99131430D01*
X96650567Y-99123064D01*
X96681684Y-99120000D01*
X97120316Y-99120000D01*
X97151433Y-99123064D01*
X97151433Y-99123064D01*
G37*
G36*
X116256000Y-99363000D02*
X114918000Y-99363000D01*
X114918000Y-98465000D01*
X116256000Y-98465000D01*
X116256000Y-99363000D01*
X116256000Y-99363000D01*
G37*
G36*
X88576933Y-98059064D02*
X88604508Y-98067430D01*
X88629922Y-98081014D01*
X88652202Y-98099298D01*
X88670486Y-98121578D01*
X88684070Y-98146992D01*
X88692436Y-98174567D01*
X88695500Y-98205684D01*
X88695500Y-98644316D01*
X88692436Y-98675433D01*
X88684070Y-98703008D01*
X88670486Y-98728422D01*
X88652202Y-98750702D01*
X88629922Y-98768986D01*
X88604508Y-98782570D01*
X88576933Y-98790936D01*
X88545816Y-98794000D01*
X88157184Y-98794000D01*
X88126067Y-98790936D01*
X88098492Y-98782570D01*
X88073078Y-98768986D01*
X88050798Y-98750702D01*
X88032514Y-98728422D01*
X88018930Y-98703008D01*
X88010564Y-98675433D01*
X88007500Y-98644316D01*
X88007500Y-98205684D01*
X88010564Y-98174567D01*
X88018930Y-98146992D01*
X88032514Y-98121578D01*
X88050798Y-98099298D01*
X88073078Y-98081014D01*
X88098492Y-98067430D01*
X88126067Y-98059064D01*
X88157184Y-98056000D01*
X88545816Y-98056000D01*
X88576933Y-98059064D01*
X88576933Y-98059064D01*
G37*
G36*
X89546933Y-98059064D02*
X89574508Y-98067430D01*
X89599922Y-98081014D01*
X89622202Y-98099298D01*
X89640486Y-98121578D01*
X89654070Y-98146992D01*
X89662436Y-98174567D01*
X89665500Y-98205684D01*
X89665500Y-98644316D01*
X89662436Y-98675433D01*
X89654070Y-98703008D01*
X89640486Y-98728422D01*
X89622202Y-98750702D01*
X89599922Y-98768986D01*
X89574508Y-98782570D01*
X89546933Y-98790936D01*
X89515816Y-98794000D01*
X89127184Y-98794000D01*
X89096067Y-98790936D01*
X89068492Y-98782570D01*
X89043078Y-98768986D01*
X89020798Y-98750702D01*
X89002514Y-98728422D01*
X88988930Y-98703008D01*
X88980564Y-98675433D01*
X88977500Y-98644316D01*
X88977500Y-98205684D01*
X88980564Y-98174567D01*
X88988930Y-98146992D01*
X89002514Y-98121578D01*
X89020798Y-98099298D01*
X89043078Y-98081014D01*
X89068492Y-98067430D01*
X89096067Y-98059064D01*
X89127184Y-98056000D01*
X89515816Y-98056000D01*
X89546933Y-98059064D01*
X89546933Y-98059064D01*
G37*
G36*
X116256000Y-98263000D02*
X114918000Y-98263000D01*
X114918000Y-97365000D01*
X116256000Y-97365000D01*
X116256000Y-98263000D01*
X116256000Y-98263000D01*
G37*
G36*
X99435433Y-96979564D02*
X99463008Y-96987930D01*
X99488422Y-97001514D01*
X99510702Y-97019798D01*
X99528986Y-97042078D01*
X99542570Y-97067492D01*
X99550936Y-97095067D01*
X99554000Y-97126184D01*
X99554000Y-97564816D01*
X99550936Y-97595933D01*
X99542570Y-97623508D01*
X99528986Y-97648922D01*
X99510702Y-97671202D01*
X99488422Y-97689486D01*
X99463008Y-97703070D01*
X99435433Y-97711436D01*
X99404316Y-97714500D01*
X99015684Y-97714500D01*
X98984567Y-97711436D01*
X98956992Y-97703070D01*
X98931578Y-97689486D01*
X98909298Y-97671202D01*
X98891014Y-97648922D01*
X98877430Y-97623508D01*
X98869064Y-97595933D01*
X98866000Y-97564816D01*
X98866000Y-97126184D01*
X98869064Y-97095067D01*
X98877430Y-97067492D01*
X98891014Y-97042078D01*
X98909298Y-97019798D01*
X98931578Y-97001514D01*
X98956992Y-96987930D01*
X98984567Y-96979564D01*
X99015684Y-96976500D01*
X99404316Y-96976500D01*
X99435433Y-96979564D01*
X99435433Y-96979564D01*
G37*
G36*
X100405433Y-96979564D02*
X100433008Y-96987930D01*
X100458422Y-97001514D01*
X100480702Y-97019798D01*
X100498986Y-97042078D01*
X100512570Y-97067492D01*
X100520936Y-97095067D01*
X100524000Y-97126184D01*
X100524000Y-97564816D01*
X100520936Y-97595933D01*
X100512570Y-97623508D01*
X100498986Y-97648922D01*
X100480702Y-97671202D01*
X100458422Y-97689486D01*
X100433008Y-97703070D01*
X100405433Y-97711436D01*
X100374316Y-97714500D01*
X99985684Y-97714500D01*
X99954567Y-97711436D01*
X99926992Y-97703070D01*
X99901578Y-97689486D01*
X99879298Y-97671202D01*
X99861014Y-97648922D01*
X99847430Y-97623508D01*
X99839064Y-97595933D01*
X99836000Y-97564816D01*
X99836000Y-97126184D01*
X99839064Y-97095067D01*
X99847430Y-97067492D01*
X99861014Y-97042078D01*
X99879298Y-97019798D01*
X99901578Y-97001514D01*
X99926992Y-96987930D01*
X99954567Y-96979564D01*
X99985684Y-96976500D01*
X100374316Y-96976500D01*
X100405433Y-96979564D01*
X100405433Y-96979564D01*
G37*
G36*
X116256000Y-97163000D02*
X114918000Y-97163000D01*
X114918000Y-96265000D01*
X116256000Y-96265000D01*
X116256000Y-97163000D01*
X116256000Y-97163000D01*
G37*
G36*
X116256000Y-96063000D02*
X114918000Y-96063000D01*
X114918000Y-95165000D01*
X116256000Y-95165000D01*
X116256000Y-96063000D01*
X116256000Y-96063000D01*
G37*
G36*
X103456000Y-95173000D02*
X102208000Y-95173000D01*
X102208000Y-93575000D01*
X103456000Y-93575000D01*
X103456000Y-95173000D01*
X103456000Y-95173000D01*
G37*
G36*
X97341933Y-94314564D02*
X97369508Y-94322930D01*
X97394922Y-94336514D01*
X97417202Y-94354798D01*
X97435486Y-94377078D01*
X97449070Y-94402492D01*
X97457436Y-94430067D01*
X97460500Y-94461184D01*
X97460500Y-94849816D01*
X97457436Y-94880933D01*
X97449070Y-94908508D01*
X97435486Y-94933922D01*
X97417202Y-94956202D01*
X97394922Y-94974486D01*
X97369508Y-94988070D01*
X97341933Y-94996436D01*
X97310816Y-94999500D01*
X96872184Y-94999500D01*
X96841067Y-94996436D01*
X96813492Y-94988070D01*
X96788078Y-94974486D01*
X96765798Y-94956202D01*
X96747514Y-94933922D01*
X96733930Y-94908508D01*
X96725564Y-94880933D01*
X96722500Y-94849816D01*
X96722500Y-94461184D01*
X96725564Y-94430067D01*
X96733930Y-94402492D01*
X96747514Y-94377078D01*
X96765798Y-94354798D01*
X96788078Y-94336514D01*
X96813492Y-94322930D01*
X96841067Y-94314564D01*
X96872184Y-94311500D01*
X97310816Y-94311500D01*
X97341933Y-94314564D01*
X97341933Y-94314564D01*
G37*
G36*
X116256000Y-94963000D02*
X114918000Y-94963000D01*
X114918000Y-94065000D01*
X116256000Y-94065000D01*
X116256000Y-94963000D01*
X116256000Y-94963000D01*
G37*
G36*
X97341933Y-93344564D02*
X97369508Y-93352930D01*
X97394922Y-93366514D01*
X97417202Y-93384798D01*
X97435486Y-93407078D01*
X97449070Y-93432492D01*
X97457436Y-93460067D01*
X97460500Y-93491184D01*
X97460500Y-93879816D01*
X97457436Y-93910933D01*
X97449070Y-93938508D01*
X97435486Y-93963922D01*
X97417202Y-93986202D01*
X97394922Y-94004486D01*
X97369508Y-94018070D01*
X97341933Y-94026436D01*
X97310816Y-94029500D01*
X96872184Y-94029500D01*
X96841067Y-94026436D01*
X96813492Y-94018070D01*
X96788078Y-94004486D01*
X96765798Y-93986202D01*
X96747514Y-93963922D01*
X96733930Y-93938508D01*
X96725564Y-93910933D01*
X96722500Y-93879816D01*
X96722500Y-93491184D01*
X96725564Y-93460067D01*
X96733930Y-93432492D01*
X96747514Y-93407078D01*
X96765798Y-93384798D01*
X96788078Y-93366514D01*
X96813492Y-93352930D01*
X96841067Y-93344564D01*
X96872184Y-93341500D01*
X97310816Y-93341500D01*
X97341933Y-93344564D01*
X97341933Y-93344564D01*
G37*
G36*
X80609780Y-93310260D02*
X79011780Y-93310260D01*
X79011780Y-91512260D01*
X80609780Y-91512260D01*
X80609780Y-93310260D01*
X80609780Y-93310260D01*
G37*
G36*
X113631000Y-93203000D02*
X112283000Y-93203000D01*
X112283000Y-91945000D01*
X113631000Y-91945000D01*
X113631000Y-93203000D01*
X113631000Y-93203000D01*
G37*
G36*
X104606000Y-93203000D02*
X103308000Y-93203000D01*
X103308000Y-91945000D01*
X104606000Y-91945000D01*
X104606000Y-93203000D01*
X104606000Y-93203000D01*
G37*
G36*
X116256000Y-92793000D02*
X113958000Y-92793000D01*
X113958000Y-91545000D01*
X116256000Y-91545000D01*
X116256000Y-92793000D01*
X116256000Y-92793000D01*
G37*
G36*
X101554800Y-91533200D02*
X99206800Y-91533200D01*
X99206800Y-90385200D01*
X101554800Y-90385200D01*
X101554800Y-91533200D01*
X101554800Y-91533200D01*
G37*
G36*
X87250433Y-90644064D02*
X87278008Y-90652430D01*
X87303422Y-90666014D01*
X87325702Y-90684298D01*
X87343986Y-90706578D01*
X87357570Y-90731992D01*
X87365936Y-90759567D01*
X87369000Y-90790684D01*
X87369000Y-91179316D01*
X87365936Y-91210433D01*
X87357570Y-91238008D01*
X87343986Y-91263422D01*
X87325702Y-91285702D01*
X87303422Y-91303986D01*
X87278008Y-91317570D01*
X87250433Y-91325936D01*
X87219316Y-91329000D01*
X86780684Y-91329000D01*
X86749567Y-91325936D01*
X86721992Y-91317570D01*
X86696578Y-91303986D01*
X86674298Y-91285702D01*
X86656014Y-91263422D01*
X86642430Y-91238008D01*
X86634064Y-91210433D01*
X86631000Y-91179316D01*
X86631000Y-90790684D01*
X86634064Y-90759567D01*
X86642430Y-90731992D01*
X86656014Y-90706578D01*
X86674298Y-90684298D01*
X86696578Y-90666014D01*
X86721992Y-90652430D01*
X86749567Y-90644064D01*
X86780684Y-90641000D01*
X87219316Y-90641000D01*
X87250433Y-90644064D01*
X87250433Y-90644064D01*
G37*
G36*
X88250433Y-90644064D02*
X88278008Y-90652430D01*
X88303422Y-90666014D01*
X88325702Y-90684298D01*
X88343986Y-90706578D01*
X88357570Y-90731992D01*
X88365936Y-90759567D01*
X88369000Y-90790684D01*
X88369000Y-91179316D01*
X88365936Y-91210433D01*
X88357570Y-91238008D01*
X88343986Y-91263422D01*
X88325702Y-91285702D01*
X88303422Y-91303986D01*
X88278008Y-91317570D01*
X88250433Y-91325936D01*
X88219316Y-91329000D01*
X87780684Y-91329000D01*
X87749567Y-91325936D01*
X87721992Y-91317570D01*
X87696578Y-91303986D01*
X87674298Y-91285702D01*
X87656014Y-91263422D01*
X87642430Y-91238008D01*
X87634064Y-91210433D01*
X87631000Y-91179316D01*
X87631000Y-90790684D01*
X87634064Y-90759567D01*
X87642430Y-90731992D01*
X87656014Y-90706578D01*
X87674298Y-90684298D01*
X87696578Y-90666014D01*
X87721992Y-90652430D01*
X87749567Y-90644064D01*
X87780684Y-90641000D01*
X88219316Y-90641000D01*
X88250433Y-90644064D01*
X88250433Y-90644064D01*
G37*
G36*
X104809000Y-91115000D02*
X102911000Y-91115000D01*
X102911000Y-90017000D01*
X104809000Y-90017000D01*
X104809000Y-91115000D01*
X104809000Y-91115000D01*
G37*
G36*
X120609000Y-91115000D02*
X118711000Y-91115000D01*
X118711000Y-90017000D01*
X120609000Y-90017000D01*
X120609000Y-91115000D01*
X120609000Y-91115000D01*
G37*
G36*
X84309780Y-90935260D02*
X83111780Y-90935260D01*
X83111780Y-90587260D01*
X84309780Y-90587260D01*
X84309780Y-90935260D01*
X84309780Y-90935260D01*
G37*
G36*
X84309780Y-90435260D02*
X83111780Y-90435260D01*
X83111780Y-90087260D01*
X84309780Y-90087260D01*
X84309780Y-90435260D01*
X84309780Y-90435260D01*
G37*
G36*
X87250433Y-89674064D02*
X87278008Y-89682430D01*
X87303422Y-89696014D01*
X87325702Y-89714298D01*
X87343986Y-89736578D01*
X87357570Y-89761992D01*
X87365936Y-89789567D01*
X87369000Y-89820684D01*
X87369000Y-90209316D01*
X87365936Y-90240433D01*
X87357570Y-90268008D01*
X87343986Y-90293422D01*
X87325702Y-90315702D01*
X87303422Y-90333986D01*
X87278008Y-90347570D01*
X87250433Y-90355936D01*
X87219316Y-90359000D01*
X86780684Y-90359000D01*
X86749567Y-90355936D01*
X86721992Y-90347570D01*
X86696578Y-90333986D01*
X86674298Y-90315702D01*
X86656014Y-90293422D01*
X86642430Y-90268008D01*
X86634064Y-90240433D01*
X86631000Y-90209316D01*
X86631000Y-89820684D01*
X86634064Y-89789567D01*
X86642430Y-89761992D01*
X86656014Y-89736578D01*
X86674298Y-89714298D01*
X86696578Y-89696014D01*
X86721992Y-89682430D01*
X86749567Y-89674064D01*
X86780684Y-89671000D01*
X87219316Y-89671000D01*
X87250433Y-89674064D01*
X87250433Y-89674064D01*
G37*
G36*
X88250433Y-89674064D02*
X88278008Y-89682430D01*
X88303422Y-89696014D01*
X88325702Y-89714298D01*
X88343986Y-89736578D01*
X88357570Y-89761992D01*
X88365936Y-89789567D01*
X88369000Y-89820684D01*
X88369000Y-90209316D01*
X88365936Y-90240433D01*
X88357570Y-90268008D01*
X88343986Y-90293422D01*
X88325702Y-90315702D01*
X88303422Y-90333986D01*
X88278008Y-90347570D01*
X88250433Y-90355936D01*
X88219316Y-90359000D01*
X87780684Y-90359000D01*
X87749567Y-90355936D01*
X87721992Y-90347570D01*
X87696578Y-90333986D01*
X87674298Y-90315702D01*
X87656014Y-90293422D01*
X87642430Y-90268008D01*
X87634064Y-90240433D01*
X87631000Y-90209316D01*
X87631000Y-89820684D01*
X87634064Y-89789567D01*
X87642430Y-89761992D01*
X87656014Y-89736578D01*
X87674298Y-89714298D01*
X87696578Y-89696014D01*
X87721992Y-89682430D01*
X87749567Y-89674064D01*
X87780684Y-89671000D01*
X88219316Y-89671000D01*
X88250433Y-89674064D01*
X88250433Y-89674064D01*
G37*
G36*
X102479800Y-90058200D02*
X101331800Y-90058200D01*
X101331800Y-88910200D01*
X102479800Y-88910200D01*
X102479800Y-90058200D01*
X102479800Y-90058200D01*
G37*
G36*
X84309780Y-89935260D02*
X83111780Y-89935260D01*
X83111780Y-89587260D01*
X84309780Y-89587260D01*
X84309780Y-89935260D01*
X84309780Y-89935260D01*
G37*
G36*
X84309780Y-89435260D02*
X83111780Y-89435260D01*
X83111780Y-89087260D01*
X84309780Y-89087260D01*
X84309780Y-89435260D01*
X84309780Y-89435260D01*
G37*
G36*
X120609000Y-89115000D02*
X118711000Y-89115000D01*
X118711000Y-88017000D01*
X120609000Y-88017000D01*
X120609000Y-89115000D01*
X120609000Y-89115000D01*
G37*
G36*
X104809000Y-89115000D02*
X102911000Y-89115000D01*
X102911000Y-88017000D01*
X104809000Y-88017000D01*
X104809000Y-89115000D01*
X104809000Y-89115000D01*
G37*
G36*
X84309780Y-88935260D02*
X83111780Y-88935260D01*
X83111780Y-88587260D01*
X84309780Y-88587260D01*
X84309780Y-88935260D01*
X84309780Y-88935260D01*
G37*
G36*
X101554800Y-88583200D02*
X99206800Y-88583200D01*
X99206800Y-87435200D01*
X101554800Y-87435200D01*
X101554800Y-88583200D01*
X101554800Y-88583200D01*
G37*
G36*
X84309780Y-88435260D02*
X83111780Y-88435260D01*
X83111780Y-88087260D01*
X84309780Y-88087260D01*
X84309780Y-88435260D01*
X84309780Y-88435260D01*
G37*
G36*
X84309780Y-87935260D02*
X83111780Y-87935260D01*
X83111780Y-87587260D01*
X84309780Y-87587260D01*
X84309780Y-87935260D01*
X84309780Y-87935260D01*
G37*
G36*
X84309780Y-87435260D02*
X83111780Y-87435260D01*
X83111780Y-87087260D01*
X84309780Y-87087260D01*
X84309780Y-87435260D01*
X84309780Y-87435260D01*
G37*
G36*
X120609000Y-87115000D02*
X118711000Y-87115000D01*
X118711000Y-86017000D01*
X120609000Y-86017000D01*
X120609000Y-87115000D01*
X120609000Y-87115000D01*
G37*
G36*
X104809000Y-87115000D02*
X102911000Y-87115000D01*
X102911000Y-86017000D01*
X104809000Y-86017000D01*
X104809000Y-87115000D01*
X104809000Y-87115000D01*
G37*
G36*
X87250433Y-86394064D02*
X87278008Y-86402430D01*
X87303422Y-86416014D01*
X87325702Y-86434298D01*
X87343986Y-86456578D01*
X87357570Y-86481992D01*
X87365936Y-86509567D01*
X87369000Y-86540684D01*
X87369000Y-86929316D01*
X87365936Y-86960433D01*
X87357570Y-86988008D01*
X87343986Y-87013422D01*
X87325702Y-87035702D01*
X87303422Y-87053986D01*
X87278008Y-87067570D01*
X87250433Y-87075936D01*
X87219316Y-87079000D01*
X86780684Y-87079000D01*
X86749567Y-87075936D01*
X86721992Y-87067570D01*
X86696578Y-87053986D01*
X86674298Y-87035702D01*
X86656014Y-87013422D01*
X86642430Y-86988008D01*
X86634064Y-86960433D01*
X86631000Y-86929316D01*
X86631000Y-86540684D01*
X86634064Y-86509567D01*
X86642430Y-86481992D01*
X86656014Y-86456578D01*
X86674298Y-86434298D01*
X86696578Y-86416014D01*
X86721992Y-86402430D01*
X86749567Y-86394064D01*
X86780684Y-86391000D01*
X87219316Y-86391000D01*
X87250433Y-86394064D01*
X87250433Y-86394064D01*
G37*
G36*
X88250433Y-86394064D02*
X88278008Y-86402430D01*
X88303422Y-86416014D01*
X88325702Y-86434298D01*
X88343986Y-86456578D01*
X88357570Y-86481992D01*
X88365936Y-86509567D01*
X88369000Y-86540684D01*
X88369000Y-86929316D01*
X88365936Y-86960433D01*
X88357570Y-86988008D01*
X88343986Y-87013422D01*
X88325702Y-87035702D01*
X88303422Y-87053986D01*
X88278008Y-87067570D01*
X88250433Y-87075936D01*
X88219316Y-87079000D01*
X87780684Y-87079000D01*
X87749567Y-87075936D01*
X87721992Y-87067570D01*
X87696578Y-87053986D01*
X87674298Y-87035702D01*
X87656014Y-87013422D01*
X87642430Y-86988008D01*
X87634064Y-86960433D01*
X87631000Y-86929316D01*
X87631000Y-86540684D01*
X87634064Y-86509567D01*
X87642430Y-86481992D01*
X87656014Y-86456578D01*
X87674298Y-86434298D01*
X87696578Y-86416014D01*
X87721992Y-86402430D01*
X87749567Y-86394064D01*
X87780684Y-86391000D01*
X88219316Y-86391000D01*
X88250433Y-86394064D01*
X88250433Y-86394064D01*
G37*
G36*
X84309780Y-86935260D02*
X83111780Y-86935260D01*
X83111780Y-86587260D01*
X84309780Y-86587260D01*
X84309780Y-86935260D01*
X84309780Y-86935260D01*
G37*
G36*
X84309780Y-86435260D02*
X83111780Y-86435260D01*
X83111780Y-86087260D01*
X84309780Y-86087260D01*
X84309780Y-86435260D01*
X84309780Y-86435260D01*
G37*
G36*
X87250433Y-85424064D02*
X87278008Y-85432430D01*
X87303422Y-85446014D01*
X87325702Y-85464298D01*
X87343986Y-85486578D01*
X87357570Y-85511992D01*
X87365936Y-85539567D01*
X87369000Y-85570684D01*
X87369000Y-85959316D01*
X87365936Y-85990433D01*
X87357570Y-86018008D01*
X87343986Y-86043422D01*
X87325702Y-86065702D01*
X87303422Y-86083986D01*
X87278008Y-86097570D01*
X87250433Y-86105936D01*
X87219316Y-86109000D01*
X86780684Y-86109000D01*
X86749567Y-86105936D01*
X86721992Y-86097570D01*
X86696578Y-86083986D01*
X86674298Y-86065702D01*
X86656014Y-86043422D01*
X86642430Y-86018008D01*
X86634064Y-85990433D01*
X86631000Y-85959316D01*
X86631000Y-85570684D01*
X86634064Y-85539567D01*
X86642430Y-85511992D01*
X86656014Y-85486578D01*
X86674298Y-85464298D01*
X86696578Y-85446014D01*
X86721992Y-85432430D01*
X86749567Y-85424064D01*
X86780684Y-85421000D01*
X87219316Y-85421000D01*
X87250433Y-85424064D01*
X87250433Y-85424064D01*
G37*
G36*
X88250433Y-85424064D02*
X88278008Y-85432430D01*
X88303422Y-85446014D01*
X88325702Y-85464298D01*
X88343986Y-85486578D01*
X88357570Y-85511992D01*
X88365936Y-85539567D01*
X88369000Y-85570684D01*
X88369000Y-85959316D01*
X88365936Y-85990433D01*
X88357570Y-86018008D01*
X88343986Y-86043422D01*
X88325702Y-86065702D01*
X88303422Y-86083986D01*
X88278008Y-86097570D01*
X88250433Y-86105936D01*
X88219316Y-86109000D01*
X87780684Y-86109000D01*
X87749567Y-86105936D01*
X87721992Y-86097570D01*
X87696578Y-86083986D01*
X87674298Y-86065702D01*
X87656014Y-86043422D01*
X87642430Y-86018008D01*
X87634064Y-85990433D01*
X87631000Y-85959316D01*
X87631000Y-85570684D01*
X87634064Y-85539567D01*
X87642430Y-85511992D01*
X87656014Y-85486578D01*
X87674298Y-85464298D01*
X87696578Y-85446014D01*
X87721992Y-85432430D01*
X87749567Y-85424064D01*
X87780684Y-85421000D01*
X88219316Y-85421000D01*
X88250433Y-85424064D01*
X88250433Y-85424064D01*
G37*
G36*
X84309780Y-85935260D02*
X83111780Y-85935260D01*
X83111780Y-85587260D01*
X84309780Y-85587260D01*
X84309780Y-85935260D01*
X84309780Y-85935260D01*
G37*
G36*
X84309780Y-85435260D02*
X83111780Y-85435260D01*
X83111780Y-85087260D01*
X84309780Y-85087260D01*
X84309780Y-85435260D01*
X84309780Y-85435260D01*
G37*
G36*
X120609000Y-85115000D02*
X118711000Y-85115000D01*
X118711000Y-84017000D01*
X120609000Y-84017000D01*
X120609000Y-85115000D01*
X120609000Y-85115000D01*
G37*
G36*
X104809000Y-85115000D02*
X102911000Y-85115000D01*
X102911000Y-84017000D01*
X104809000Y-84017000D01*
X104809000Y-85115000D01*
X104809000Y-85115000D01*
G37*
G36*
X84309780Y-84935260D02*
X83111780Y-84935260D01*
X83111780Y-84587260D01*
X84309780Y-84587260D01*
X84309780Y-84935260D01*
X84309780Y-84935260D01*
G37*
G36*
X84309780Y-84435260D02*
X83111780Y-84435260D01*
X83111780Y-84087260D01*
X84309780Y-84087260D01*
X84309780Y-84435260D01*
X84309780Y-84435260D01*
G37*
G36*
X93750433Y-83394064D02*
X93778008Y-83402430D01*
X93803422Y-83416014D01*
X93825702Y-83434298D01*
X93843986Y-83456578D01*
X93857570Y-83481992D01*
X93865936Y-83509567D01*
X93869000Y-83540684D01*
X93869000Y-83929316D01*
X93865936Y-83960433D01*
X93857570Y-83988008D01*
X93843986Y-84013422D01*
X93825702Y-84035702D01*
X93803422Y-84053986D01*
X93778008Y-84067570D01*
X93750433Y-84075936D01*
X93719316Y-84079000D01*
X93280684Y-84079000D01*
X93249567Y-84075936D01*
X93221992Y-84067570D01*
X93196578Y-84053986D01*
X93174298Y-84035702D01*
X93156014Y-84013422D01*
X93142430Y-83988008D01*
X93134064Y-83960433D01*
X93131000Y-83929316D01*
X93131000Y-83540684D01*
X93134064Y-83509567D01*
X93142430Y-83481992D01*
X93156014Y-83456578D01*
X93174298Y-83434298D01*
X93196578Y-83416014D01*
X93221992Y-83402430D01*
X93249567Y-83394064D01*
X93280684Y-83391000D01*
X93719316Y-83391000D01*
X93750433Y-83394064D01*
X93750433Y-83394064D01*
G37*
G36*
X92527957Y-82505914D02*
X92573594Y-82519758D01*
X92615646Y-82542235D01*
X92652511Y-82572489D01*
X92682765Y-82609354D01*
X92705242Y-82651406D01*
X92719086Y-82697043D01*
X92724000Y-82746936D01*
X92724000Y-83753064D01*
X92719086Y-83802957D01*
X92705242Y-83848594D01*
X92682765Y-83890646D01*
X92652511Y-83927511D01*
X92615646Y-83957765D01*
X92573594Y-83980242D01*
X92527957Y-83994086D01*
X92478064Y-83999000D01*
X91896936Y-83999000D01*
X91847043Y-83994086D01*
X91801406Y-83980242D01*
X91759354Y-83957765D01*
X91722489Y-83927511D01*
X91692235Y-83890646D01*
X91669758Y-83848594D01*
X91655914Y-83802957D01*
X91651000Y-83753064D01*
X91651000Y-82746936D01*
X91655914Y-82697043D01*
X91669758Y-82651406D01*
X91692235Y-82609354D01*
X91722489Y-82572489D01*
X91759354Y-82542235D01*
X91801406Y-82519758D01*
X91847043Y-82505914D01*
X91896936Y-82501000D01*
X92478064Y-82501000D01*
X92527957Y-82505914D01*
X92527957Y-82505914D01*
G37*
G36*
X90652957Y-82505914D02*
X90698594Y-82519758D01*
X90740646Y-82542235D01*
X90777511Y-82572489D01*
X90807765Y-82609354D01*
X90830242Y-82651406D01*
X90844086Y-82697043D01*
X90849000Y-82746936D01*
X90849000Y-83753064D01*
X90844086Y-83802957D01*
X90830242Y-83848594D01*
X90807765Y-83890646D01*
X90777511Y-83927511D01*
X90740646Y-83957765D01*
X90698594Y-83980242D01*
X90652957Y-83994086D01*
X90603064Y-83999000D01*
X90021936Y-83999000D01*
X89972043Y-83994086D01*
X89926406Y-83980242D01*
X89884354Y-83957765D01*
X89847489Y-83927511D01*
X89817235Y-83890646D01*
X89794758Y-83848594D01*
X89780914Y-83802957D01*
X89776000Y-83753064D01*
X89776000Y-82746936D01*
X89780914Y-82697043D01*
X89794758Y-82651406D01*
X89817235Y-82609354D01*
X89847489Y-82572489D01*
X89884354Y-82542235D01*
X89926406Y-82519758D01*
X89972043Y-82505914D01*
X90021936Y-82501000D01*
X90603064Y-82501000D01*
X90652957Y-82505914D01*
X90652957Y-82505914D01*
G37*
G36*
X84309780Y-83935260D02*
X83111780Y-83935260D01*
X83111780Y-83587260D01*
X84309780Y-83587260D01*
X84309780Y-83935260D01*
X84309780Y-83935260D01*
G37*
G36*
X84309780Y-83435260D02*
X83111780Y-83435260D01*
X83111780Y-83087260D01*
X84309780Y-83087260D01*
X84309780Y-83435260D01*
X84309780Y-83435260D01*
G37*
G36*
X104809000Y-83115000D02*
X102911000Y-83115000D01*
X102911000Y-82017000D01*
X104809000Y-82017000D01*
X104809000Y-83115000D01*
X104809000Y-83115000D01*
G37*
G36*
X120609000Y-83115000D02*
X118711000Y-83115000D01*
X118711000Y-82017000D01*
X120609000Y-82017000D01*
X120609000Y-83115000D01*
X120609000Y-83115000D01*
G37*
G36*
X93750433Y-82424064D02*
X93778008Y-82432430D01*
X93803422Y-82446014D01*
X93825702Y-82464298D01*
X93843986Y-82486578D01*
X93857570Y-82511992D01*
X93865936Y-82539567D01*
X93869000Y-82570684D01*
X93869000Y-82959316D01*
X93865936Y-82990433D01*
X93857570Y-83018008D01*
X93843986Y-83043422D01*
X93825702Y-83065702D01*
X93803422Y-83083986D01*
X93778008Y-83097570D01*
X93750433Y-83105936D01*
X93719316Y-83109000D01*
X93280684Y-83109000D01*
X93249567Y-83105936D01*
X93221992Y-83097570D01*
X93196578Y-83083986D01*
X93174298Y-83065702D01*
X93156014Y-83043422D01*
X93142430Y-83018008D01*
X93134064Y-82990433D01*
X93131000Y-82959316D01*
X93131000Y-82570684D01*
X93134064Y-82539567D01*
X93142430Y-82511992D01*
X93156014Y-82486578D01*
X93174298Y-82464298D01*
X93196578Y-82446014D01*
X93221992Y-82432430D01*
X93249567Y-82424064D01*
X93280684Y-82421000D01*
X93719316Y-82421000D01*
X93750433Y-82424064D01*
X93750433Y-82424064D01*
G37*
G36*
X84309780Y-82935260D02*
X83111780Y-82935260D01*
X83111780Y-82587260D01*
X84309780Y-82587260D01*
X84309780Y-82935260D01*
X84309780Y-82935260D01*
G37*
G36*
X87250433Y-82159064D02*
X87278008Y-82167430D01*
X87303422Y-82181014D01*
X87325702Y-82199298D01*
X87343986Y-82221578D01*
X87357570Y-82246992D01*
X87365936Y-82274567D01*
X87369000Y-82305684D01*
X87369000Y-82694316D01*
X87365936Y-82725433D01*
X87357570Y-82753008D01*
X87343986Y-82778422D01*
X87325702Y-82800702D01*
X87303422Y-82818986D01*
X87278008Y-82832570D01*
X87250433Y-82840936D01*
X87219316Y-82844000D01*
X86780684Y-82844000D01*
X86749567Y-82840936D01*
X86721992Y-82832570D01*
X86696578Y-82818986D01*
X86674298Y-82800702D01*
X86656014Y-82778422D01*
X86642430Y-82753008D01*
X86634064Y-82725433D01*
X86631000Y-82694316D01*
X86631000Y-82305684D01*
X86634064Y-82274567D01*
X86642430Y-82246992D01*
X86656014Y-82221578D01*
X86674298Y-82199298D01*
X86696578Y-82181014D01*
X86721992Y-82167430D01*
X86749567Y-82159064D01*
X86780684Y-82156000D01*
X87219316Y-82156000D01*
X87250433Y-82159064D01*
X87250433Y-82159064D01*
G37*
G36*
X88250433Y-82144064D02*
X88278008Y-82152430D01*
X88303422Y-82166014D01*
X88325702Y-82184298D01*
X88343986Y-82206578D01*
X88357570Y-82231992D01*
X88365936Y-82259567D01*
X88369000Y-82290684D01*
X88369000Y-82679316D01*
X88365936Y-82710433D01*
X88357570Y-82738008D01*
X88343986Y-82763422D01*
X88325702Y-82785702D01*
X88303422Y-82803986D01*
X88278008Y-82817570D01*
X88250433Y-82825936D01*
X88219316Y-82829000D01*
X87780684Y-82829000D01*
X87749567Y-82825936D01*
X87721992Y-82817570D01*
X87696578Y-82803986D01*
X87674298Y-82785702D01*
X87656014Y-82763422D01*
X87642430Y-82738008D01*
X87634064Y-82710433D01*
X87631000Y-82679316D01*
X87631000Y-82290684D01*
X87634064Y-82259567D01*
X87642430Y-82231992D01*
X87656014Y-82206578D01*
X87674298Y-82184298D01*
X87696578Y-82166014D01*
X87721992Y-82152430D01*
X87749567Y-82144064D01*
X87780684Y-82141000D01*
X88219316Y-82141000D01*
X88250433Y-82144064D01*
X88250433Y-82144064D01*
G37*
G36*
X84309780Y-82435260D02*
X83111780Y-82435260D01*
X83111780Y-82087260D01*
X84309780Y-82087260D01*
X84309780Y-82435260D01*
X84309780Y-82435260D01*
G37*
G36*
X84309780Y-81935260D02*
X83111780Y-81935260D01*
X83111780Y-81587260D01*
X84309780Y-81587260D01*
X84309780Y-81935260D01*
X84309780Y-81935260D01*
G37*
G36*
X92824000Y-81929000D02*
X92076000Y-81929000D01*
X92076000Y-80771000D01*
X92824000Y-80771000D01*
X92824000Y-81929000D01*
X92824000Y-81929000D01*
G37*
G36*
X90924000Y-81929000D02*
X90176000Y-81929000D01*
X90176000Y-80771000D01*
X90924000Y-80771000D01*
X90924000Y-81929000D01*
X90924000Y-81929000D01*
G37*
G36*
X91874000Y-81929000D02*
X91126000Y-81929000D01*
X91126000Y-80771000D01*
X91874000Y-80771000D01*
X91874000Y-81929000D01*
X91874000Y-81929000D01*
G37*
G36*
X87250433Y-81189064D02*
X87278008Y-81197430D01*
X87303422Y-81211014D01*
X87325702Y-81229298D01*
X87343986Y-81251578D01*
X87357570Y-81276992D01*
X87365936Y-81304567D01*
X87369000Y-81335684D01*
X87369000Y-81724316D01*
X87365936Y-81755433D01*
X87357570Y-81783008D01*
X87343986Y-81808422D01*
X87325702Y-81830702D01*
X87303422Y-81848986D01*
X87278008Y-81862570D01*
X87250433Y-81870936D01*
X87219316Y-81874000D01*
X86780684Y-81874000D01*
X86749567Y-81870936D01*
X86721992Y-81862570D01*
X86696578Y-81848986D01*
X86674298Y-81830702D01*
X86656014Y-81808422D01*
X86642430Y-81783008D01*
X86634064Y-81755433D01*
X86631000Y-81724316D01*
X86631000Y-81335684D01*
X86634064Y-81304567D01*
X86642430Y-81276992D01*
X86656014Y-81251578D01*
X86674298Y-81229298D01*
X86696578Y-81211014D01*
X86721992Y-81197430D01*
X86749567Y-81189064D01*
X86780684Y-81186000D01*
X87219316Y-81186000D01*
X87250433Y-81189064D01*
X87250433Y-81189064D01*
G37*
G36*
X88250433Y-81174064D02*
X88278008Y-81182430D01*
X88303422Y-81196014D01*
X88325702Y-81214298D01*
X88343986Y-81236578D01*
X88357570Y-81261992D01*
X88365936Y-81289567D01*
X88369000Y-81320684D01*
X88369000Y-81709316D01*
X88365936Y-81740433D01*
X88357570Y-81768008D01*
X88343986Y-81793422D01*
X88325702Y-81815702D01*
X88303422Y-81833986D01*
X88278008Y-81847570D01*
X88250433Y-81855936D01*
X88219316Y-81859000D01*
X87780684Y-81859000D01*
X87749567Y-81855936D01*
X87721992Y-81847570D01*
X87696578Y-81833986D01*
X87674298Y-81815702D01*
X87656014Y-81793422D01*
X87642430Y-81768008D01*
X87634064Y-81740433D01*
X87631000Y-81709316D01*
X87631000Y-81320684D01*
X87634064Y-81289567D01*
X87642430Y-81261992D01*
X87656014Y-81236578D01*
X87674298Y-81214298D01*
X87696578Y-81196014D01*
X87721992Y-81182430D01*
X87749567Y-81174064D01*
X87780684Y-81171000D01*
X88219316Y-81171000D01*
X88250433Y-81174064D01*
X88250433Y-81174064D01*
G37*
G36*
X84309780Y-81435260D02*
X83111780Y-81435260D01*
X83111780Y-81087260D01*
X84309780Y-81087260D01*
X84309780Y-81435260D01*
X84309780Y-81435260D01*
G37*
G36*
X120609000Y-81115000D02*
X118711000Y-81115000D01*
X118711000Y-80017000D01*
X120609000Y-80017000D01*
X120609000Y-81115000D01*
X120609000Y-81115000D01*
G37*
G36*
X104809000Y-81115000D02*
X102911000Y-81115000D01*
X102911000Y-80017000D01*
X104809000Y-80017000D01*
X104809000Y-81115000D01*
X104809000Y-81115000D01*
G37*
G36*
X84309780Y-80935260D02*
X83111780Y-80935260D01*
X83111780Y-80587260D01*
X84309780Y-80587260D01*
X84309780Y-80935260D01*
X84309780Y-80935260D01*
G37*
G36*
X84309780Y-80435260D02*
X83111780Y-80435260D01*
X83111780Y-80087260D01*
X84309780Y-80087260D01*
X84309780Y-80435260D01*
X84309780Y-80435260D01*
G37*
G36*
X84309780Y-79935260D02*
X83111780Y-79935260D01*
X83111780Y-79587260D01*
X84309780Y-79587260D01*
X84309780Y-79935260D01*
X84309780Y-79935260D01*
G37*
G36*
X92824000Y-79729000D02*
X92076000Y-79729000D01*
X92076000Y-78571000D01*
X92824000Y-78571000D01*
X92824000Y-79729000D01*
X92824000Y-79729000D01*
G37*
G36*
X90924000Y-79729000D02*
X90176000Y-79729000D01*
X90176000Y-78571000D01*
X90924000Y-78571000D01*
X90924000Y-79729000D01*
X90924000Y-79729000D01*
G37*
G36*
X91874000Y-79729000D02*
X91126000Y-79729000D01*
X91126000Y-78571000D01*
X91874000Y-78571000D01*
X91874000Y-79729000D01*
X91874000Y-79729000D01*
G37*
G36*
X84309780Y-79435260D02*
X83111780Y-79435260D01*
X83111780Y-79087260D01*
X84309780Y-79087260D01*
X84309780Y-79435260D01*
X84309780Y-79435260D01*
G37*
G36*
X120609000Y-79115000D02*
X118711000Y-79115000D01*
X118711000Y-78017000D01*
X120609000Y-78017000D01*
X120609000Y-79115000D01*
X120609000Y-79115000D01*
G37*
G36*
X104809000Y-79115000D02*
X102911000Y-79115000D01*
X102911000Y-78017000D01*
X104809000Y-78017000D01*
X104809000Y-79115000D01*
X104809000Y-79115000D01*
G37*
G36*
X80609780Y-78510260D02*
X79011780Y-78510260D01*
X79011780Y-76712260D01*
X80609780Y-76712260D01*
X80609780Y-78510260D01*
X80609780Y-78510260D01*
G37*
G36*
X91710433Y-77384064D02*
X91738008Y-77392430D01*
X91763422Y-77406014D01*
X91785702Y-77424298D01*
X91803986Y-77446578D01*
X91817570Y-77471992D01*
X91825936Y-77499567D01*
X91829000Y-77530684D01*
X91829000Y-77969316D01*
X91825936Y-78000433D01*
X91817570Y-78028008D01*
X91803986Y-78053422D01*
X91785702Y-78075702D01*
X91763422Y-78093986D01*
X91738008Y-78107570D01*
X91710433Y-78115936D01*
X91679316Y-78119000D01*
X91290684Y-78119000D01*
X91259567Y-78115936D01*
X91231992Y-78107570D01*
X91206578Y-78093986D01*
X91184298Y-78075702D01*
X91166014Y-78053422D01*
X91152430Y-78028008D01*
X91144064Y-78000433D01*
X91141000Y-77969316D01*
X91141000Y-77530684D01*
X91144064Y-77499567D01*
X91152430Y-77471992D01*
X91166014Y-77446578D01*
X91184298Y-77424298D01*
X91206578Y-77406014D01*
X91231992Y-77392430D01*
X91259567Y-77384064D01*
X91290684Y-77381000D01*
X91679316Y-77381000D01*
X91710433Y-77384064D01*
X91710433Y-77384064D01*
G37*
G36*
X90740433Y-77384064D02*
X90768008Y-77392430D01*
X90793422Y-77406014D01*
X90815702Y-77424298D01*
X90833986Y-77446578D01*
X90847570Y-77471992D01*
X90855936Y-77499567D01*
X90859000Y-77530684D01*
X90859000Y-77969316D01*
X90855936Y-78000433D01*
X90847570Y-78028008D01*
X90833986Y-78053422D01*
X90815702Y-78075702D01*
X90793422Y-78093986D01*
X90768008Y-78107570D01*
X90740433Y-78115936D01*
X90709316Y-78119000D01*
X90320684Y-78119000D01*
X90289567Y-78115936D01*
X90261992Y-78107570D01*
X90236578Y-78093986D01*
X90214298Y-78075702D01*
X90196014Y-78053422D01*
X90182430Y-78028008D01*
X90174064Y-78000433D01*
X90171000Y-77969316D01*
X90171000Y-77530684D01*
X90174064Y-77499567D01*
X90182430Y-77471992D01*
X90196014Y-77446578D01*
X90214298Y-77424298D01*
X90236578Y-77406014D01*
X90261992Y-77392430D01*
X90289567Y-77384064D01*
X90320684Y-77381000D01*
X90709316Y-77381000D01*
X90740433Y-77384064D01*
X90740433Y-77384064D01*
G37*
G36*
X87679239Y-76076009D02*
X87848695Y-76127413D01*
X88004875Y-76210892D01*
X88141765Y-76323235D01*
X88254108Y-76460125D01*
X88337587Y-76616305D01*
X88388991Y-76785761D01*
X88406349Y-76962000D01*
X88388991Y-77138239D01*
X88337587Y-77307695D01*
X88254108Y-77463875D01*
X88141765Y-77600765D01*
X88004875Y-77713108D01*
X87848695Y-77796587D01*
X87679239Y-77847991D01*
X87547158Y-77861000D01*
X87458842Y-77861000D01*
X87326761Y-77847991D01*
X87157305Y-77796587D01*
X87001125Y-77713108D01*
X86864235Y-77600765D01*
X86751892Y-77463875D01*
X86668413Y-77307695D01*
X86617009Y-77138239D01*
X86599651Y-76962000D01*
X86617009Y-76785761D01*
X86668413Y-76616305D01*
X86751892Y-76460125D01*
X86864235Y-76323235D01*
X87001125Y-76210892D01*
X87157305Y-76127413D01*
X87326761Y-76076009D01*
X87458842Y-76063000D01*
X87547158Y-76063000D01*
X87679239Y-76076009D01*
X87679239Y-76076009D01*
G37*
G36*
X85139239Y-76076009D02*
X85308695Y-76127413D01*
X85464875Y-76210892D01*
X85601765Y-76323235D01*
X85714108Y-76460125D01*
X85797587Y-76616305D01*
X85848991Y-76785761D01*
X85866349Y-76962000D01*
X85848991Y-77138239D01*
X85797587Y-77307695D01*
X85714108Y-77463875D01*
X85601765Y-77600765D01*
X85464875Y-77713108D01*
X85308695Y-77796587D01*
X85139239Y-77847991D01*
X85007158Y-77861000D01*
X84918842Y-77861000D01*
X84786761Y-77847991D01*
X84617305Y-77796587D01*
X84461125Y-77713108D01*
X84324235Y-77600765D01*
X84211892Y-77463875D01*
X84128413Y-77307695D01*
X84077009Y-77138239D01*
X84059651Y-76962000D01*
X84077009Y-76785761D01*
X84128413Y-76616305D01*
X84211892Y-76460125D01*
X84324235Y-76323235D01*
X84461125Y-76210892D01*
X84617305Y-76127413D01*
X84786761Y-76076009D01*
X84918842Y-76063000D01*
X85007158Y-76063000D01*
X85139239Y-76076009D01*
X85139239Y-76076009D01*
G37*
G36*
X120609000Y-77115000D02*
X118711000Y-77115000D01*
X118711000Y-76017000D01*
X120609000Y-76017000D01*
X120609000Y-77115000D01*
X120609000Y-77115000D01*
G37*
G36*
X104809000Y-77115000D02*
X102911000Y-77115000D01*
X102911000Y-76017000D01*
X104809000Y-76017000D01*
X104809000Y-77115000D01*
X104809000Y-77115000D01*
G37*
G36*
X79468767Y-73378822D02*
X79605258Y-73435359D01*
X79728097Y-73517437D01*
X79832563Y-73621903D01*
X79914641Y-73744742D01*
X79971178Y-73881233D01*
X80000000Y-74026131D01*
X80000000Y-74173869D01*
X79971178Y-74318767D01*
X79914641Y-74455258D01*
X79832563Y-74578097D01*
X79728097Y-74682563D01*
X79605258Y-74764641D01*
X79468767Y-74821178D01*
X79323869Y-74850000D01*
X79176131Y-74850000D01*
X79031233Y-74821178D01*
X78894742Y-74764641D01*
X78771903Y-74682563D01*
X78667437Y-74578097D01*
X78585359Y-74455258D01*
X78528822Y-74318767D01*
X78500000Y-74173869D01*
X78500000Y-74026131D01*
X78528822Y-73881233D01*
X78585359Y-73744742D01*
X78667437Y-73621903D01*
X78771903Y-73517437D01*
X78894742Y-73435359D01*
X79031233Y-73378822D01*
X79176131Y-73350000D01*
X79323869Y-73350000D01*
X79468767Y-73378822D01*
X79468767Y-73378822D01*
G37*
G36*
X119018767Y-73328822D02*
X119155258Y-73385359D01*
X119278097Y-73467437D01*
X119382563Y-73571903D01*
X119464641Y-73694742D01*
X119521178Y-73831233D01*
X119550000Y-73976131D01*
X119550000Y-74123869D01*
X119521178Y-74268767D01*
X119464641Y-74405258D01*
X119382563Y-74528097D01*
X119278097Y-74632563D01*
X119155258Y-74714641D01*
X119018767Y-74771178D01*
X118873869Y-74800000D01*
X118726131Y-74800000D01*
X118581233Y-74771178D01*
X118444742Y-74714641D01*
X118321903Y-74632563D01*
X118217437Y-74528097D01*
X118135359Y-74405258D01*
X118078822Y-74268767D01*
X118050000Y-74123869D01*
X118050000Y-73976131D01*
X118078822Y-73831233D01*
X118135359Y-73694742D01*
X118217437Y-73571903D01*
X118321903Y-73467437D01*
X118444742Y-73385359D01*
X118581233Y-73328822D01*
X118726131Y-73300000D01*
X118873869Y-73300000D01*
X119018767Y-73328822D01*
X119018767Y-73328822D01*
G37*
M02*
