%TF.GenerationSoftware,KiCad,Pcbnew,(5.1.4)-1*%
%TF.CreationDate,2019-10-25T20:40:59-07:00*%
%TF.ProjectId,mainboard,6d61696e-626f-4617-9264-2e6b69636164,rev?*%
%TF.SameCoordinates,Original*%
%TF.FileFunction,Copper,L2,Inr*%
%TF.FilePolarity,Positive*%
%FSLAX46Y46*%
G04 Gerber Fmt 4.6, Leading zero omitted, Abs format (unit mm)*
G04 Created by KiCad (PCBNEW (5.1.4)-1) date 2019-10-25 20:40:59*
%MOMM*%
%LPD*%
G04 APERTURE LIST*
%ADD10C,0.150000*%
%ADD11C,1.408000*%
%ADD12C,1.800000*%
%ADD13C,0.450000*%
%ADD14C,0.127000*%
G04 APERTURE END LIST*
D10*
X116700300Y-106041600D02*
X116700300Y-109041600D01*
X116700300Y-74041600D02*
X116700300Y-77041600D01*
X121710300Y-106041600D02*
X116700300Y-106041600D01*
X121710300Y-77041600D02*
X116700300Y-77041600D01*
X81725100Y-77041600D02*
X81725100Y-74041600D01*
X76715100Y-106041600D02*
X76721300Y-102057200D01*
X81725100Y-106041600D02*
X76715100Y-106041600D01*
X81725100Y-77041600D02*
X76715100Y-77041600D01*
X77532900Y-95021400D02*
X76708000Y-94513400D01*
X121710300Y-106041600D02*
X121710300Y-77041600D01*
X77546200Y-101549200D02*
X76721300Y-102057200D01*
X81725100Y-106041600D02*
X81725100Y-109041600D01*
X77532900Y-95021400D02*
X77546200Y-101549200D01*
X81725100Y-109041600D02*
X116700300Y-109041600D01*
X116700300Y-74041600D02*
X81725100Y-74041600D01*
X76715100Y-77041600D02*
X76708000Y-94513400D01*
D11*
X81973400Y-95810700D03*
X81973400Y-100810700D03*
D12*
X79273400Y-94810700D03*
X79273400Y-101810700D03*
D13*
X120777000Y-92456000D03*
X112395000Y-81127600D03*
X88722200Y-83312000D03*
X97028000Y-82702400D03*
X97028000Y-84632800D03*
X87223600Y-84099400D03*
X78917800Y-84709000D03*
X78943200Y-82778600D03*
X81737200Y-78790800D03*
X83083400Y-78790800D03*
X84505800Y-78816200D03*
X91846400Y-78841600D03*
X92964000Y-78892400D03*
X94081600Y-78841600D03*
X104978200Y-104038400D03*
X90119200Y-104876600D03*
X105003600Y-90424000D03*
X93199899Y-101663213D03*
X83074574Y-98308022D03*
X93281500Y-101092000D03*
X83112401Y-97641201D03*
X101523800Y-108254800D03*
X99408427Y-104240734D03*
X99720400Y-107137200D03*
X98835009Y-104176431D03*
X105181400Y-96291400D03*
X99296441Y-95556845D03*
X113424456Y-97004507D03*
X99288600Y-89738200D03*
X86918800Y-90805000D03*
X99872800Y-95529400D03*
X106906123Y-95351896D03*
X113505003Y-95907701D03*
X90906600Y-93776800D03*
X99466400Y-94134009D03*
X112979200Y-82626200D03*
X106197400Y-95719900D03*
X113639116Y-96468910D03*
X100873412Y-95875890D03*
X88874600Y-90855800D03*
X99999800Y-89763600D03*
X98298000Y-95631010D03*
X101981000Y-100076000D03*
X106095800Y-99263200D03*
X109982000Y-98637310D03*
X90093800Y-97663000D03*
X90068400Y-96697800D03*
X106832400Y-101904800D03*
X106883200Y-102989822D03*
X98374200Y-106857800D03*
X96494600Y-108559600D03*
X93218000Y-102547791D03*
X87376000Y-99872800D03*
X105435400Y-100203000D03*
X101823545Y-101664965D03*
X98211826Y-104029409D03*
X90932000Y-74980800D03*
X84683600Y-108305600D03*
X87630000Y-82677000D03*
X87630000Y-84709000D03*
X88392000Y-84582000D03*
X88519000Y-82677000D03*
X97358200Y-95529400D03*
X96690611Y-95529400D03*
X95257210Y-95559733D03*
X95859600Y-95554800D03*
X99982322Y-104180841D03*
X95495356Y-104128624D03*
X94896290Y-104117179D03*
X107911900Y-95211900D03*
X93221381Y-98214192D03*
X92862400Y-78028800D03*
X94894400Y-94284800D03*
X92858217Y-94335600D03*
X92608400Y-104444800D03*
X84455000Y-103428800D03*
X94437200Y-105156000D03*
X91846400Y-106908600D03*
X94132400Y-103606600D03*
X86537800Y-103378000D03*
X113383737Y-98663486D03*
X114114123Y-88918794D03*
X88392000Y-83947000D03*
X113596310Y-100328003D03*
X94919800Y-80619600D03*
X80899000Y-80543400D03*
X114690797Y-88938553D03*
X93223809Y-97624144D03*
X103573982Y-88956610D03*
X93675200Y-89077800D03*
X110951233Y-88924314D03*
X109397800Y-102895400D03*
X101948596Y-102793575D03*
X92947012Y-88871183D03*
X102997000Y-88541100D03*
X93253697Y-97006636D03*
X110451105Y-89015113D03*
X109321600Y-101904800D03*
X101988368Y-102217935D03*
X108227486Y-89040156D03*
X107078323Y-88957406D03*
X113538000Y-88950800D03*
X93154500Y-99123500D03*
X113598271Y-98127839D03*
X94124398Y-95631000D03*
X113609800Y-97550942D03*
X88519000Y-81280000D03*
X88392000Y-82042000D03*
X88392000Y-85344000D03*
X88392000Y-85979000D03*
X97282000Y-85852000D03*
X106502200Y-88925400D03*
X97536000Y-85217000D03*
X107655273Y-88965890D03*
X97155000Y-83820000D03*
X97028000Y-81280000D03*
X108787951Y-88902965D03*
X97663000Y-83185000D03*
X109601000Y-89027000D03*
X97536000Y-81915000D03*
X78867000Y-83820000D03*
X105537000Y-88950800D03*
X78232000Y-85344000D03*
X104546400Y-88925400D03*
X87630000Y-85979000D03*
X87630000Y-85344000D03*
X78867000Y-81407000D03*
X78740000Y-85979000D03*
D14*
X83734690Y-98968138D02*
X83074574Y-98308022D01*
X84202071Y-99435519D02*
X83734690Y-98968138D01*
X87383402Y-99435519D02*
X84202071Y-99435519D01*
X87594108Y-99224813D02*
X87383402Y-99435519D01*
X93199899Y-101663213D02*
X90761499Y-99224813D01*
X90761499Y-99224813D02*
X87594108Y-99224813D01*
X93281500Y-101092000D02*
X93056501Y-100867001D01*
X90618101Y-98428601D02*
X93281500Y-101092000D01*
X87160436Y-98428601D02*
X90618101Y-98428601D01*
X86935437Y-98653600D02*
X87160436Y-98428601D01*
X83112401Y-97641201D02*
X84124800Y-98653600D01*
X84124800Y-98653600D02*
X86935437Y-98653600D01*
X105181400Y-96291400D02*
X110789458Y-96291400D01*
X110789458Y-96291400D02*
X110976359Y-96104499D01*
X112524448Y-96104499D02*
X113199457Y-96779508D01*
X113199457Y-96779508D02*
X113424456Y-97004507D01*
X110976359Y-96104499D02*
X112524448Y-96104499D01*
X105181400Y-96291400D02*
X100030996Y-96291400D01*
X100030996Y-96291400D02*
X99296441Y-95556845D01*
X98822298Y-90204502D02*
X99063601Y-89963199D01*
X86918800Y-90805000D02*
X87519298Y-90204502D01*
X99063601Y-89963199D02*
X99288600Y-89738200D01*
X87519298Y-90204502D02*
X98822298Y-90204502D01*
X106906123Y-95351896D02*
X107201504Y-95647277D01*
X107201504Y-95647277D02*
X110664331Y-95647277D01*
X110664331Y-95647277D02*
X110715131Y-95596477D01*
X113280004Y-95682702D02*
X113505003Y-95907701D01*
X113193779Y-95596477D02*
X113280004Y-95682702D01*
X110715131Y-95596477D02*
X113193779Y-95596477D01*
X106681124Y-95126897D02*
X106906123Y-95351896D01*
X99872800Y-95529400D02*
X100275303Y-95126897D01*
X100275303Y-95126897D02*
X106681124Y-95126897D01*
X99109191Y-93776800D02*
X99241401Y-93909010D01*
X99241401Y-93909010D02*
X99466400Y-94134009D01*
X90906600Y-93776800D02*
X99109191Y-93776800D01*
X110725934Y-95944899D02*
X110820345Y-95850488D01*
X110820345Y-95850488D02*
X112702496Y-95850488D01*
X106197400Y-95719900D02*
X106422399Y-95944899D01*
X112702496Y-95850488D02*
X113320918Y-96468910D01*
X113320918Y-96468910D02*
X113639116Y-96468910D01*
X106422399Y-95944899D02*
X110725934Y-95944899D01*
X106197400Y-95719900D02*
X101029402Y-95719900D01*
X101029402Y-95719900D02*
X100873412Y-95875890D01*
X98907600Y-90855800D02*
X99999800Y-89763600D01*
X88874600Y-90855800D02*
X98907600Y-90855800D01*
X93708897Y-97726676D02*
X93221381Y-98214192D01*
X93708897Y-94928097D02*
X93708897Y-97726676D01*
X93653689Y-94872889D02*
X93708897Y-94928097D01*
X107572889Y-94872889D02*
X93653689Y-94872889D01*
X107911900Y-95211900D02*
X107572889Y-94872889D01*
X85152802Y-104444800D02*
X92290202Y-104444800D01*
X84455000Y-103746998D02*
X85152802Y-104444800D01*
X92290202Y-104444800D02*
X92608400Y-104444800D01*
X84455000Y-103428800D02*
X84455000Y-103746998D01*
X86766400Y-103606600D02*
X86537800Y-103378000D01*
X94132400Y-103606600D02*
X86766400Y-103606600D01*
X80975200Y-80619600D02*
X80899000Y-80543400D01*
X94919800Y-80619600D02*
X80975200Y-80619600D01*
X115204602Y-80619600D02*
X115234901Y-80649899D01*
X115234901Y-88394449D02*
X114915796Y-88713554D01*
X115234901Y-80649899D02*
X115234901Y-88394449D01*
X114915796Y-88713554D02*
X114690797Y-88938553D01*
X94919800Y-80619600D02*
X115204602Y-80619600D01*
X103573982Y-88956610D02*
X93796390Y-88956610D01*
X93796390Y-88956610D02*
X93675200Y-89077800D01*
X109397800Y-102895400D02*
X109076712Y-102574312D01*
X109076712Y-102574312D02*
X106527745Y-102574312D01*
X106527745Y-102574312D02*
X106308482Y-102793575D01*
X106308482Y-102793575D02*
X102266794Y-102793575D01*
X102266794Y-102793575D02*
X101948596Y-102793575D01*
X102997000Y-88541100D02*
X93277095Y-88541100D01*
X93277095Y-88541100D02*
X93172011Y-88646184D01*
X93172011Y-88646184D02*
X92947012Y-88871183D01*
X106530593Y-102217935D02*
X102306566Y-102217935D01*
X109321600Y-101904800D02*
X108906099Y-102320301D01*
X108906099Y-102320301D02*
X106632959Y-102320301D01*
X106632959Y-102320301D02*
X106530593Y-102217935D01*
X102306566Y-102217935D02*
X101988368Y-102217935D01*
X94150161Y-98127839D02*
X113280073Y-98127839D01*
X93154500Y-99123500D02*
X94150161Y-98127839D01*
X113280073Y-98127839D02*
X113598271Y-98127839D01*
X103748542Y-97773701D02*
X103971301Y-97550942D01*
X94124398Y-95631000D02*
X96267099Y-97773701D01*
X96267099Y-97773701D02*
X103748542Y-97773701D01*
X103971301Y-97550942D02*
X113291602Y-97550942D01*
X113291602Y-97550942D02*
X113609800Y-97550942D01*
X97536000Y-85217000D02*
X104140000Y-85217000D01*
X104140000Y-85217000D02*
X106172000Y-87249000D01*
X106172000Y-88595200D02*
X106502200Y-88925400D01*
X106172000Y-87249000D02*
X106172000Y-88595200D01*
X97155000Y-83820000D02*
X103632000Y-83820000D01*
X107655273Y-87843273D02*
X107655273Y-88965890D01*
X103632000Y-83820000D02*
X107655273Y-87843273D01*
X97663000Y-83185000D02*
X104648000Y-83185000D01*
X108787951Y-87324951D02*
X108787951Y-88902965D01*
X104648000Y-83185000D02*
X108787951Y-87324951D01*
X97760999Y-82139999D02*
X104872999Y-82139999D01*
X97536000Y-81915000D02*
X97760999Y-82139999D01*
X109601000Y-86868000D02*
X104872999Y-82139999D01*
X109601000Y-89027000D02*
X109601000Y-86868000D01*
X105537000Y-88632602D02*
X103645398Y-86741000D01*
X105537000Y-88950800D02*
X105537000Y-88632602D01*
X81788000Y-86741000D02*
X78867000Y-83820000D01*
X103645398Y-86741000D02*
X81788000Y-86741000D01*
X104546400Y-88925400D02*
X102997000Y-87376000D01*
X102997000Y-87376000D02*
X81153000Y-87376000D01*
X79121000Y-85344000D02*
X78232000Y-85344000D01*
X81153000Y-87376000D02*
X79121000Y-85344000D01*
M02*
