%TF.GenerationSoftware,KiCad,Pcbnew,5.0.2-bee76a0~70~ubuntu18.04.1*%
%TF.CreationDate,2020-02-29T17:46:36-08:00*%
%TF.ProjectId,mainboard,6d61696e-626f-4617-9264-2e6b69636164,rev?*%
%TF.SameCoordinates,Original*%
%TF.FileFunction,Copper,L3,Inr*%
%TF.FilePolarity,Positive*%
%FSLAX46Y46*%
G04 Gerber Fmt 4.6, Leading zero omitted, Abs format (unit mm)*
G04 Created by KiCad (PCBNEW 5.0.2-bee76a0~70~ubuntu18.04.1) date Sat 29 Feb 2020 05:46:36 PM PST*
%MOMM*%
%LPD*%
G01*
G04 APERTURE LIST*
%ADD10C,0.150000*%
%ADD11O,1.700000X1.700000*%
%ADD12C,1.408000*%
%ADD13C,1.800000*%
%ADD14C,0.600000*%
%ADD15C,0.160000*%
%ADD16C,0.152400*%
%ADD17C,0.320000*%
G04 APERTURE END LIST*
D10*
X120902460Y-74415942D02*
X120102459Y-74415941D01*
X85102460Y-74415941D02*
G75*
G02X84602460Y-73915941I0J500000D01*
G01*
X113602459Y-73915941D02*
G75*
G02X113102459Y-74415941I-500000J0D01*
G01*
X113102459Y-107215941D02*
G75*
G02X113602459Y-107715941I0J-500000D01*
G01*
X84602460Y-107715941D02*
G75*
G02X85102460Y-107215941I500000J0D01*
G01*
X77340460Y-91475941D02*
X76502460Y-92313941D01*
X77340460Y-98555940D02*
X76502460Y-97790000D01*
X120102460Y-72915941D02*
X113602460Y-72915941D01*
X113602459Y-107715941D02*
X113602460Y-108715941D01*
X85102460Y-107215941D02*
X113102459Y-107215941D01*
X84602460Y-108715941D02*
X84602460Y-107715941D01*
X113602460Y-108715941D02*
X120102459Y-108715940D01*
X113102459Y-74415941D02*
X93872460Y-74415941D01*
X113602460Y-72915941D02*
X113602459Y-73915941D01*
X78102460Y-72915941D02*
X78102460Y-74415941D01*
X93872460Y-74415941D02*
X93872460Y-75565000D01*
X93872460Y-75565000D02*
X89872460Y-75565000D01*
X78102460Y-74415941D02*
X77340460Y-74415941D01*
X77340460Y-74415941D02*
X77340460Y-91475941D01*
X120102460Y-107215940D02*
X120902460Y-107215940D01*
X120102459Y-74415941D02*
X120102460Y-72915941D01*
X89872460Y-75565000D02*
X89872460Y-74415941D01*
X84602460Y-72915941D02*
X78102460Y-72915941D01*
X84602460Y-73915941D02*
X84602460Y-72915941D01*
X89872460Y-74415941D02*
X85102460Y-74415941D01*
X76502460Y-92313941D02*
X76502460Y-97790000D01*
X120902460Y-107215940D02*
X120902460Y-74415942D01*
X78102460Y-107215940D02*
X78102460Y-108715940D01*
X120102459Y-108715940D02*
X120102460Y-107215940D01*
X77340460Y-98555940D02*
X77340460Y-107215940D01*
X78102460Y-108715940D02*
X84602460Y-108715941D01*
X77340460Y-107215940D02*
X78102460Y-107215940D01*
D11*
X87503000Y-76962000D03*
X84963000Y-76962000D03*
D12*
X81687300Y-100088700D03*
X81687300Y-105088700D03*
D13*
X78987300Y-99088700D03*
X78987300Y-106088700D03*
D14*
X98552000Y-97345500D03*
X90551000Y-101600000D03*
X91821000Y-101600000D03*
X113157000Y-106375200D03*
X82550000Y-95440500D03*
X103822500Y-87757000D03*
X97726500Y-94678500D03*
X97155000Y-96647000D03*
X119697500Y-89725500D03*
X118237000Y-76581000D03*
X84658200Y-100126800D03*
X102260400Y-91465400D03*
X105486200Y-90297000D03*
X105486200Y-91313000D03*
X88950000Y-82900000D03*
X88950000Y-87100000D03*
X89000000Y-91300000D03*
X82600000Y-79750000D03*
X84700000Y-84250000D03*
X92200000Y-77750000D03*
X94200000Y-81500000D03*
X93750000Y-90350000D03*
X114300000Y-97300000D03*
X100455799Y-90000000D03*
X100455799Y-88850000D03*
X88237052Y-97712948D03*
X91250000Y-83600000D03*
X98742500Y-99377500D03*
X96901000Y-98806000D03*
X95694500Y-98806000D03*
X94361000Y-98806000D03*
X95250000Y-94869000D03*
X92263227Y-98768500D03*
X83050000Y-102850000D03*
X91694000Y-98298000D03*
X83000000Y-101981000D03*
X86487000Y-94170500D03*
X99387685Y-102095308D03*
X86487000Y-95440500D03*
X98587411Y-102112589D03*
X118173500Y-78549500D03*
X116649500Y-95377000D03*
X99060000Y-79755984D03*
X118237000Y-103886000D03*
X109600000Y-79350000D03*
X98425000Y-91400000D03*
X98933000Y-92011500D03*
X118173500Y-82550000D03*
X117157500Y-97536000D03*
X118237000Y-99885496D03*
X99400000Y-82450000D03*
X110150000Y-80506810D03*
X116649500Y-99758500D03*
X100076000Y-81915000D03*
X117983000Y-80200500D03*
X118173500Y-101853990D03*
X99700000Y-92550000D03*
X110938014Y-79950000D03*
X97151777Y-101399819D03*
X101282500Y-105918000D03*
X93238320Y-100304600D03*
X97028000Y-104267000D03*
X93472000Y-104965488D03*
X82550000Y-94170500D03*
X87249000Y-98171000D03*
X80899000Y-89979500D03*
X100203000Y-103568500D03*
X80899006Y-87693500D03*
X80899000Y-85344000D03*
X87884000Y-101600000D03*
X112903000Y-89535000D03*
X101473000Y-102616000D03*
X114236500Y-87376000D03*
X80645000Y-82550000D03*
X104775000Y-81724500D03*
X107061000Y-81216500D03*
X108204000Y-86741000D03*
X82600000Y-85000000D03*
X81150000Y-92800000D03*
X93800000Y-86250000D03*
X94350000Y-82350000D03*
X105250000Y-99850000D03*
X91173808Y-97789870D03*
X97393000Y-91450000D03*
X98034211Y-102584290D03*
X98300000Y-106500000D03*
X108100000Y-80500000D03*
X101073140Y-98264537D03*
X100961830Y-97162180D03*
X95951000Y-101350000D03*
X114490500Y-101155500D03*
X99600000Y-101400000D03*
X82350000Y-81900000D03*
X85150000Y-82900000D03*
X103860600Y-98729800D03*
X94944600Y-101350000D03*
X101727008Y-96774000D03*
X118173500Y-96583500D03*
X94170500Y-103251000D03*
X86804506Y-103314500D03*
X82550000Y-96647000D03*
X94107000Y-102235000D03*
X90950000Y-103378000D03*
X84836000Y-78930506D03*
X99949000Y-83629500D03*
X89750000Y-77750000D03*
X102044504Y-78930500D03*
X82550000Y-90678000D03*
X92042990Y-94438434D03*
X82804000Y-86868000D03*
X98781498Y-103354010D03*
X101199973Y-99600028D03*
X92092990Y-93701678D03*
X84048600Y-91414600D03*
X99492000Y-103200000D03*
X101711467Y-99082597D03*
X82600000Y-86169500D03*
X91694000Y-96266000D03*
X84769013Y-87272792D03*
X91694000Y-97282000D03*
X82650000Y-87750000D03*
X97917000Y-92011500D03*
X97900000Y-82400000D03*
X96456500Y-92773500D03*
X98100000Y-79950000D03*
X82650000Y-88750000D03*
X118173500Y-98170998D03*
X100250000Y-100850000D03*
X104114600Y-103073200D03*
X102321399Y-98686959D03*
X100965000Y-94234000D03*
X105092500Y-78549500D03*
X101727000Y-94742000D03*
X103886000Y-83692999D03*
X119634000Y-87439500D03*
X102350000Y-96266000D03*
X101727000Y-95758000D03*
X119634000Y-85407500D03*
X115474750Y-89566750D03*
X92456000Y-96774000D03*
X93650000Y-87000000D03*
X94350000Y-83100000D03*
X93600000Y-91150000D03*
X92250000Y-95750000D03*
X93000000Y-77900000D03*
X93345000Y-101346010D03*
X84074000Y-103271320D03*
X82650000Y-89700000D03*
X85850000Y-79950000D03*
X85054656Y-81460088D03*
X85825000Y-82425000D03*
X85050000Y-85400000D03*
X85088740Y-88261260D03*
X85039520Y-89800000D03*
X84750000Y-80800000D03*
X82600000Y-83750000D03*
X99949000Y-86042500D03*
X100400000Y-93500000D03*
X88800000Y-85000000D03*
X88900000Y-81000000D03*
X111823500Y-81089500D03*
X111823504Y-98171000D03*
X111823500Y-87376000D03*
X91600000Y-95150000D03*
X88950000Y-82147000D03*
X88950000Y-86250000D03*
X88950000Y-90500000D03*
X93650000Y-80000000D03*
X94200000Y-84350000D03*
X93850000Y-88350000D03*
X95750000Y-92300000D03*
X95550000Y-90500000D03*
X94150000Y-80650000D03*
X94200000Y-85250000D03*
X93850000Y-89450000D03*
X94940804Y-92599960D03*
X95500000Y-89500000D03*
X88700000Y-89250000D03*
D15*
X97100500Y-99450000D02*
X98636842Y-100986342D01*
X86487000Y-94170500D02*
X86487000Y-94687000D01*
X91250000Y-99450000D02*
X97100500Y-99450000D01*
X86487000Y-94687000D02*
X91250000Y-99450000D01*
X98636842Y-101344465D02*
X99387685Y-102095308D01*
X98636842Y-101200000D02*
X98636842Y-101344465D01*
X98636842Y-100986342D02*
X98636842Y-101200000D01*
D16*
X86711999Y-95665499D02*
X86487000Y-95440500D01*
X96750000Y-99800000D02*
X91035738Y-99800000D01*
X91035738Y-99800000D02*
X86901237Y-95665499D01*
X86901237Y-95665499D02*
X86711999Y-95665499D01*
D15*
X96750000Y-99800000D02*
X96950000Y-99800000D01*
X96950000Y-99800000D02*
X98250000Y-101100000D01*
X98250000Y-101775178D02*
X98587411Y-102112589D01*
X98250000Y-101100000D02*
X98250000Y-101775178D01*
D16*
X116649500Y-95377000D02*
X117157500Y-94869000D01*
X117157500Y-79565500D02*
X118173500Y-78549500D01*
X117157500Y-94869000D02*
X117157500Y-79565500D01*
X99123500Y-79819484D02*
X99060000Y-79755984D01*
X98996500Y-79819484D02*
X99123500Y-79819484D01*
X98425000Y-80390984D02*
X98996500Y-79819484D01*
X115951000Y-101600000D02*
X118237000Y-103886000D01*
X116649500Y-95377000D02*
X115951000Y-96075500D01*
X115951000Y-96075500D02*
X115951000Y-101600000D01*
X98425000Y-91400000D02*
X98425000Y-80390984D01*
X118173500Y-95631000D02*
X118173500Y-82550000D01*
X117157500Y-97536000D02*
X117157500Y-96647000D01*
X117157500Y-96647000D02*
X118173500Y-95631000D01*
X98933000Y-92011500D02*
X98933000Y-83121500D01*
X98933000Y-83121500D02*
X99441000Y-82613500D01*
X117157500Y-98805996D02*
X118237000Y-99885496D01*
X117157500Y-97536000D02*
X117157500Y-98805996D01*
X100076000Y-82612240D02*
X100076000Y-81915000D01*
X99441000Y-83247240D02*
X100076000Y-82612240D01*
X116649500Y-96417677D02*
X117602000Y-95465177D01*
X116649500Y-99758500D02*
X116649500Y-96417677D01*
X117602000Y-95465177D02*
X117602000Y-80581500D01*
X117602000Y-80581500D02*
X117983000Y-80200500D01*
X116649500Y-99758500D02*
X116649500Y-100329990D01*
X116649500Y-100329990D02*
X118173500Y-101853990D01*
D15*
X99441000Y-83247240D02*
X99441000Y-91641000D01*
X99700000Y-91900000D02*
X99700000Y-92550000D01*
X99441000Y-91641000D02*
X99700000Y-91900000D01*
D16*
X84963000Y-96647000D02*
X82550000Y-96647000D01*
X86804506Y-103314500D02*
X86804506Y-98488506D01*
X86804506Y-98488506D02*
X84963000Y-96647000D01*
X102044504Y-81533996D02*
X102044504Y-78930500D01*
X99949000Y-83629500D02*
X102044504Y-81533996D01*
D15*
X101199973Y-100024292D02*
X101199973Y-99600028D01*
X99550000Y-102650000D02*
X101199973Y-101000027D01*
X101199973Y-101000027D02*
X101199973Y-100024292D01*
X99061244Y-102650000D02*
X99550000Y-102650000D01*
X98781498Y-103354010D02*
X98781498Y-102929746D01*
X98781498Y-102929746D02*
X99061244Y-102650000D01*
D16*
X99492000Y-103200000D02*
X101711467Y-100980533D01*
X101711467Y-100980533D02*
X101711467Y-99506861D01*
X101711467Y-99506861D02*
X101711467Y-99082597D01*
X84124811Y-90279254D02*
X84124811Y-87962486D01*
X91694000Y-96266000D02*
X90111557Y-96266000D01*
X90111557Y-96266000D02*
X84124811Y-90279254D01*
D15*
X84124811Y-87916994D02*
X84769013Y-87272792D01*
X84124811Y-87962486D02*
X84124811Y-87916994D01*
D16*
X83566000Y-88700000D02*
X83566000Y-88519000D01*
D15*
X83074264Y-87750000D02*
X83566000Y-88241736D01*
X83566000Y-88700000D02*
X83566000Y-88450000D01*
X83566000Y-88241736D02*
X83566000Y-88450000D01*
X82650000Y-87750000D02*
X83074264Y-87750000D01*
D16*
X91694000Y-97282000D02*
X90660738Y-97282000D01*
X90660738Y-97282000D02*
X83566000Y-90187262D01*
X83566000Y-90187262D02*
X83566000Y-88700000D01*
X97917000Y-92011500D02*
X97980500Y-91948000D01*
D15*
X97900000Y-91994500D02*
X97917000Y-92011500D01*
X97900000Y-82400000D02*
X97900000Y-91994500D01*
X98100000Y-79950000D02*
X97675736Y-79950000D01*
X98100000Y-79950000D02*
X97200000Y-79950000D01*
X97200000Y-79950000D02*
X97150000Y-80000000D01*
X97150000Y-80000000D02*
X97150000Y-90650000D01*
X96456500Y-92773500D02*
X96850000Y-92380000D01*
X96850000Y-90950000D02*
X97150000Y-90650000D01*
X96850000Y-92380000D02*
X96850000Y-90950000D01*
D16*
X104114600Y-103073200D02*
X102321399Y-101279999D01*
X102321399Y-101279999D02*
X102321399Y-99111223D01*
X102321399Y-99111223D02*
X102321399Y-98686959D01*
X105092500Y-80010000D02*
X105092500Y-78549500D01*
X100965000Y-94234000D02*
X100965000Y-84137500D01*
X100965000Y-84137500D02*
X105092500Y-80010000D01*
X101727000Y-85851999D02*
X103661001Y-83917998D01*
X101727000Y-94742000D02*
X101727000Y-85851999D01*
X103661001Y-83917998D02*
X103886000Y-83692999D01*
D15*
X92900000Y-83700000D02*
X93500000Y-83100000D01*
X93500000Y-83100000D02*
X94350000Y-83100000D01*
X92456000Y-96774000D02*
X92900000Y-96330000D01*
X93225736Y-87000000D02*
X92900000Y-87000000D01*
X93650000Y-87000000D02*
X93225736Y-87000000D01*
X92900000Y-87000000D02*
X92900000Y-83700000D01*
X93600000Y-91150000D02*
X92900000Y-91150000D01*
X92900000Y-96330000D02*
X92900000Y-91150000D01*
X92900000Y-91150000D02*
X92900000Y-87000000D01*
X92250000Y-95325736D02*
X92600000Y-94975736D01*
X92250000Y-95750000D02*
X92250000Y-95325736D01*
X92600000Y-78300000D02*
X93000000Y-77900000D01*
X92600000Y-94975736D02*
X92600000Y-78300000D01*
X99948799Y-86466965D02*
X99948799Y-90898799D01*
X99949000Y-86042500D02*
X99949000Y-86466764D01*
X99949000Y-86466764D02*
X99948799Y-86466965D01*
X99948799Y-90898799D02*
X100400000Y-91350000D01*
X100400000Y-91350000D02*
X100400000Y-93500000D01*
D16*
X111823500Y-98170996D02*
X111823504Y-98171000D01*
X111823500Y-81089500D02*
X111823500Y-87376000D01*
X111823500Y-87376000D02*
X111823500Y-98170996D01*
D17*
X89374264Y-82147000D02*
X89800000Y-82572736D01*
X88950000Y-82147000D02*
X89374264Y-82147000D01*
X89800000Y-89650000D02*
X88950000Y-90500000D01*
X89374264Y-86250000D02*
X89800000Y-86250000D01*
X88950000Y-86250000D02*
X89374264Y-86250000D01*
X89800000Y-82572736D02*
X89800000Y-86250000D01*
X89800000Y-86250000D02*
X89800000Y-89650000D01*
D15*
X95750000Y-90700000D02*
X95550000Y-90500000D01*
X95750000Y-92300000D02*
X95750000Y-90700000D01*
X96050000Y-88950000D02*
X95450000Y-88350000D01*
X95550000Y-90500000D02*
X96050000Y-90000000D01*
X96050000Y-90000000D02*
X96050000Y-88950000D01*
X94950000Y-85100000D02*
X94200000Y-84350000D01*
X94950000Y-88350000D02*
X94950000Y-85100000D01*
X94950000Y-88350000D02*
X93850000Y-88350000D01*
X95450000Y-88350000D02*
X94950000Y-88350000D01*
X95400000Y-80750000D02*
X95400000Y-83750000D01*
X94800000Y-84350000D02*
X94200000Y-84350000D01*
X93650000Y-80000000D02*
X94650000Y-80000000D01*
X95400000Y-83750000D02*
X94800000Y-84350000D01*
X94650000Y-80000000D02*
X95400000Y-80750000D01*
X93900000Y-89500000D02*
X93850000Y-89450000D01*
X93187010Y-88787010D02*
X93187010Y-88212990D01*
X93850000Y-89450000D02*
X93187010Y-88787010D01*
X93187010Y-88212990D02*
X93650000Y-87750000D01*
X93650000Y-87750000D02*
X94100000Y-87750000D01*
X94100000Y-87750000D02*
X94450000Y-87400000D01*
X94200000Y-85674264D02*
X94200000Y-85250000D01*
X94450000Y-85924264D02*
X94200000Y-85674264D01*
X94450000Y-87400000D02*
X94450000Y-85924264D01*
X93650000Y-84700000D02*
X94200000Y-85250000D01*
X94750000Y-80650000D02*
X95000000Y-80900000D01*
X94150000Y-80650000D02*
X94750000Y-80650000D01*
X95000000Y-80900000D02*
X95000000Y-83550000D01*
X93650000Y-84050000D02*
X93650000Y-84700000D01*
X93950000Y-83750000D02*
X93650000Y-84050000D01*
X95000000Y-83550000D02*
X94800000Y-83750000D01*
X94800000Y-83750000D02*
X93950000Y-83750000D01*
X95450000Y-89450000D02*
X95500000Y-89500000D01*
X94940804Y-92599960D02*
X94940804Y-89459196D01*
X93850000Y-89450000D02*
X94950000Y-89450000D01*
X94940804Y-89459196D02*
X94950000Y-89450000D01*
X94950000Y-89450000D02*
X95450000Y-89450000D01*
M02*
