M48
INCH,TZ
T1C0.0118
T2C0.0197
T3C0.0354
T4C0.0472
%
G90
G05
T1
X30800Y-33600
X31000Y-33850
X31050Y-32050
X31050Y-33000
X31070Y-33350
X31080Y-32590
X31850Y-31710
X32180Y-31020
X32707Y-38704
X32710Y-31020
X32721Y-38441
X33250Y-40720
X33270Y-31030
X33340Y-42640
X34070Y-40700
X34220Y-35750
X34340Y-33110
X34400Y-39320
X34500Y-32550
X34500Y-33350
X34500Y-33600
X34500Y-33850
X34800Y-32300
X34800Y-33050
X34800Y-33300
X34800Y-33600
X34800Y-33850
X34850Y-32000
X34850Y-32550
X34930Y-32800
X34990Y-35770
X35460Y-38070
X35470Y-38450
X35480Y-41290
X35790Y-36920
X35800Y-29520
X36160Y-31040
X36160Y-42090
X36460Y-41120
X36558Y-37140
X36560Y-30720
X36593Y-34989
X36600Y-31060
X36675Y-39025
X36693Y-40025
X36700Y-40373
X36701Y-38667
X36702Y-38435
X36714Y-38192
X36725Y-39800
X36880Y-35070
X37040Y-31040
X37057Y-37650
X37060Y-40790
X37180Y-41400
X37360Y-37120
X37361Y-40991
X37370Y-31740
X37503Y-37622
X37597Y-40996
X37740Y-37620
X37990Y-42740
X38067Y-37610
X38200Y-32000
X38200Y-32560
X38200Y-33320
X38250Y-33000
X38300Y-33800
X38330Y-37610
X38400Y-32250
X38400Y-33550
X38450Y-32750
X38666Y-40956
X38700Y-37650
X38730Y-42070
X38911Y-41014
X39090Y-35330
X39093Y-37621
X39137Y-41040
X39160Y-37061
X39260Y-42180
X39320Y-37610
X39363Y-41016
X39370Y-35340
X39714Y-37746
X39970Y-42620
X40088Y-40026
X40137Y-40470
X40150Y-39400
X40153Y-40243
X40550Y-34859
X40777Y-35022
X41160Y-35010
X41330Y-40960
X41340Y-35600
X41410Y-37910
X41510Y-39450
X41550Y-35020
X41770Y-39080
X41810Y-37685
X41930Y-35010
X42060Y-40120
X42080Y-40547
X42089Y-37540
X42157Y-35023
X42384Y-35026
X42485Y-37485
X42609Y-35055
X42830Y-35001
X43040Y-40120
X43070Y-40510
X43150Y-35050
X43300Y-38834
X43485Y-35045
X43682Y-35010
X44250Y-31940
X44480Y-32530
X44639Y-38844
X44655Y-38191
X44687Y-37759
X44700Y-35020
X44723Y-39499
X44724Y-38633
X44728Y-38406
X44740Y-37980
X44927Y-35007
X45154Y-35015
X47550Y-36400
T2
X38390Y-42926
X41387Y-42931
X39500Y-42931
X40387Y-42931
T3
X32273Y-37721
X32273Y-39689
T4
X31210Y-37327
X31210Y-40083
T0
M30
