%TF.GenerationSoftware,KiCad,Pcbnew,(5.1.4)-1*%
%TF.CreationDate,2019-10-25T20:40:59-07:00*%
%TF.ProjectId,mainboard,6d61696e-626f-4617-9264-2e6b69636164,rev?*%
%TF.SameCoordinates,Original*%
%TF.FileFunction,Paste,Top*%
%TF.FilePolarity,Positive*%
%FSLAX46Y46*%
G04 Gerber Fmt 4.6, Leading zero omitted, Abs format (unit mm)*
G04 Created by KiCad (PCBNEW (5.1.4)-1) date 2019-10-25 20:40:59*
%MOMM*%
%LPD*%
G04 APERTURE LIST*
%ADD10C,0.150000*%
%ADD11C,1.000000*%
%ADD12C,0.100000*%
%ADD13R,0.850000X0.300000*%
%ADD14R,0.300000X0.850000*%
%ADD15R,5.250000X5.250000*%
%ADD16R,1.000000X1.800000*%
%ADD17R,0.250000X0.675000*%
%ADD18R,0.675000X0.250000*%
%ADD19C,0.600000*%
%ADD20C,0.590000*%
%ADD21R,1.000000X1.000000*%
%ADD22R,1.050000X2.200000*%
%ADD23R,2.200000X1.050000*%
%ADD24R,1.500000X1.700000*%
%ADD25R,1.100000X0.250000*%
%ADD26R,1.700000X1.500000*%
%ADD27R,0.250000X1.100000*%
%ADD28C,0.875000*%
%ADD29R,0.450000X0.600000*%
%ADD30C,0.975000*%
%ADD31R,1.350000X0.450000*%
%ADD32R,1.550000X1.500000*%
%ADD33C,0.339999*%
%ADD34R,0.900000X0.900000*%
G04 APERTURE END LIST*
D10*
X116700300Y-106041600D02*
X116700300Y-109041600D01*
X116700300Y-74041600D02*
X116700300Y-77041600D01*
X121710300Y-106041600D02*
X116700300Y-106041600D01*
X121710300Y-77041600D02*
X116700300Y-77041600D01*
X81725100Y-77041600D02*
X81725100Y-74041600D01*
X76715100Y-106041600D02*
X76721300Y-102057200D01*
X81725100Y-106041600D02*
X76715100Y-106041600D01*
X81725100Y-77041600D02*
X76715100Y-77041600D01*
X77532900Y-95021400D02*
X76708000Y-94513400D01*
X121710300Y-106041600D02*
X121710300Y-77041600D01*
X77546200Y-101549200D02*
X76721300Y-102057200D01*
X81725100Y-106041600D02*
X81725100Y-109041600D01*
X77532900Y-95021400D02*
X77546200Y-101549200D01*
X81725100Y-109041600D02*
X116700300Y-109041600D01*
X116700300Y-74041600D02*
X81725100Y-74041600D01*
X76715100Y-77041600D02*
X76708000Y-94513400D01*
D11*
X102582980Y-108419900D03*
D12*
G36*
X102082980Y-109044900D02*
G01*
X102082980Y-107794900D01*
X102083582Y-107794900D01*
X102083582Y-107770366D01*
X102088392Y-107721535D01*
X102097964Y-107673410D01*
X102112208Y-107626455D01*
X102130985Y-107581122D01*
X102154116Y-107537849D01*
X102181376Y-107497050D01*
X102212504Y-107459121D01*
X102247201Y-107424424D01*
X102285130Y-107393296D01*
X102325929Y-107366036D01*
X102369202Y-107342905D01*
X102414535Y-107324128D01*
X102461490Y-107309884D01*
X102509615Y-107300312D01*
X102558446Y-107295502D01*
X102607514Y-107295502D01*
X102656345Y-107300312D01*
X102704470Y-107309884D01*
X102751425Y-107324128D01*
X102796758Y-107342905D01*
X102840031Y-107366036D01*
X102880830Y-107393296D01*
X102918759Y-107424424D01*
X102953456Y-107459121D01*
X102984584Y-107497050D01*
X103011844Y-107537849D01*
X103034975Y-107581122D01*
X103053752Y-107626455D01*
X103067996Y-107673410D01*
X103077568Y-107721535D01*
X103082378Y-107770366D01*
X103082378Y-107794900D01*
X103082980Y-107794900D01*
X103082980Y-109044900D01*
X102082980Y-109044900D01*
X102082980Y-109044900D01*
G37*
D11*
X97510600Y-108407200D03*
D12*
G36*
X97010600Y-109032200D02*
G01*
X97010600Y-107782200D01*
X97011202Y-107782200D01*
X97011202Y-107757666D01*
X97016012Y-107708835D01*
X97025584Y-107660710D01*
X97039828Y-107613755D01*
X97058605Y-107568422D01*
X97081736Y-107525149D01*
X97108996Y-107484350D01*
X97140124Y-107446421D01*
X97174821Y-107411724D01*
X97212750Y-107380596D01*
X97253549Y-107353336D01*
X97296822Y-107330205D01*
X97342155Y-107311428D01*
X97389110Y-107297184D01*
X97437235Y-107287612D01*
X97486066Y-107282802D01*
X97535134Y-107282802D01*
X97583965Y-107287612D01*
X97632090Y-107297184D01*
X97679045Y-107311428D01*
X97724378Y-107330205D01*
X97767651Y-107353336D01*
X97808450Y-107380596D01*
X97846379Y-107411724D01*
X97881076Y-107446421D01*
X97912204Y-107484350D01*
X97939464Y-107525149D01*
X97962595Y-107568422D01*
X97981372Y-107613755D01*
X97995616Y-107660710D01*
X98005188Y-107708835D01*
X98009998Y-107757666D01*
X98009998Y-107782200D01*
X98010600Y-107782200D01*
X98010600Y-109032200D01*
X97010600Y-109032200D01*
X97010600Y-109032200D01*
G37*
D11*
X105122980Y-108419900D03*
D12*
G36*
X104622980Y-109044900D02*
G01*
X104622980Y-107794900D01*
X104623582Y-107794900D01*
X104623582Y-107770366D01*
X104628392Y-107721535D01*
X104637964Y-107673410D01*
X104652208Y-107626455D01*
X104670985Y-107581122D01*
X104694116Y-107537849D01*
X104721376Y-107497050D01*
X104752504Y-107459121D01*
X104787201Y-107424424D01*
X104825130Y-107393296D01*
X104865929Y-107366036D01*
X104909202Y-107342905D01*
X104954535Y-107324128D01*
X105001490Y-107309884D01*
X105049615Y-107300312D01*
X105098446Y-107295502D01*
X105147514Y-107295502D01*
X105196345Y-107300312D01*
X105244470Y-107309884D01*
X105291425Y-107324128D01*
X105336758Y-107342905D01*
X105380031Y-107366036D01*
X105420830Y-107393296D01*
X105458759Y-107424424D01*
X105493456Y-107459121D01*
X105524584Y-107497050D01*
X105551844Y-107537849D01*
X105574975Y-107581122D01*
X105593752Y-107626455D01*
X105607996Y-107673410D01*
X105617568Y-107721535D01*
X105622378Y-107770366D01*
X105622378Y-107794900D01*
X105622980Y-107794900D01*
X105622980Y-109044900D01*
X104622980Y-109044900D01*
X104622980Y-109044900D01*
G37*
D11*
X100330000Y-108419900D03*
D12*
G36*
X99830000Y-109044900D02*
G01*
X99830000Y-107794900D01*
X99830602Y-107794900D01*
X99830602Y-107770366D01*
X99835412Y-107721535D01*
X99844984Y-107673410D01*
X99859228Y-107626455D01*
X99878005Y-107581122D01*
X99901136Y-107537849D01*
X99928396Y-107497050D01*
X99959524Y-107459121D01*
X99994221Y-107424424D01*
X100032150Y-107393296D01*
X100072949Y-107366036D01*
X100116222Y-107342905D01*
X100161555Y-107324128D01*
X100208510Y-107309884D01*
X100256635Y-107300312D01*
X100305466Y-107295502D01*
X100354534Y-107295502D01*
X100403365Y-107300312D01*
X100451490Y-107309884D01*
X100498445Y-107324128D01*
X100543778Y-107342905D01*
X100587051Y-107366036D01*
X100627850Y-107393296D01*
X100665779Y-107424424D01*
X100700476Y-107459121D01*
X100731604Y-107497050D01*
X100758864Y-107537849D01*
X100781995Y-107581122D01*
X100800772Y-107626455D01*
X100815016Y-107673410D01*
X100824588Y-107721535D01*
X100829398Y-107770366D01*
X100829398Y-107794900D01*
X100830000Y-107794900D01*
X100830000Y-109044900D01*
X99830000Y-109044900D01*
X99830000Y-109044900D01*
G37*
D13*
X101036800Y-102622800D03*
X101036800Y-102122800D03*
X101036800Y-101622800D03*
X101036800Y-101122800D03*
X101036800Y-100622800D03*
X101036800Y-100122800D03*
X101036800Y-99622800D03*
X101036800Y-99122800D03*
X101036800Y-98622800D03*
X101036800Y-98122800D03*
X101036800Y-97622800D03*
X101036800Y-97122800D03*
D14*
X100336800Y-96422800D03*
X99836800Y-96422800D03*
X99336800Y-96422800D03*
X98836800Y-96422800D03*
X98336800Y-96422800D03*
X97836800Y-96422800D03*
X97336800Y-96422800D03*
X96836800Y-96422800D03*
X96336800Y-96422800D03*
X95836800Y-96422800D03*
X95336800Y-96422800D03*
X94836800Y-96422800D03*
D13*
X94136800Y-97122800D03*
X94136800Y-97622800D03*
X94136800Y-98122800D03*
X94136800Y-98622800D03*
X94136800Y-99122800D03*
X94136800Y-99622800D03*
X94136800Y-100122800D03*
X94136800Y-100622800D03*
X94136800Y-101122800D03*
X94136800Y-101622800D03*
X94136800Y-102122800D03*
X94136800Y-102622800D03*
D14*
X94836800Y-103322800D03*
X95336800Y-103322800D03*
X95836800Y-103322800D03*
X96336800Y-103322800D03*
X96836800Y-103322800D03*
X97336800Y-103322800D03*
X97836800Y-103322800D03*
X98336800Y-103322800D03*
X98836800Y-103322800D03*
X99336800Y-103322800D03*
X99836800Y-103322800D03*
X100336800Y-103322800D03*
D15*
X97586800Y-99872800D03*
D16*
X84900000Y-92279400D03*
X86900000Y-92279400D03*
X88900000Y-92279400D03*
X90900000Y-92279400D03*
X92900000Y-92279400D03*
X94900000Y-92279400D03*
X96900000Y-92279400D03*
X98900000Y-92279400D03*
X98900000Y-76479400D03*
X96900000Y-76479400D03*
X94900000Y-76479400D03*
X92900000Y-76479400D03*
X90900000Y-76479400D03*
X88900000Y-76479400D03*
X86900000Y-76479400D03*
X84900000Y-76479400D03*
D17*
X106865800Y-96041400D03*
X107365800Y-96041400D03*
X107865800Y-96041400D03*
D18*
X108627800Y-96303400D03*
X108627800Y-96803400D03*
X108627800Y-97303400D03*
X108627800Y-97803400D03*
D17*
X107865800Y-98065400D03*
X107365800Y-98065400D03*
X106865800Y-98065400D03*
D18*
X106103800Y-97803400D03*
X106103800Y-97303400D03*
X106103800Y-96803400D03*
X106103800Y-96303400D03*
D12*
G36*
X84137103Y-101071722D02*
G01*
X84151664Y-101073882D01*
X84165943Y-101077459D01*
X84179803Y-101082418D01*
X84193110Y-101088712D01*
X84205736Y-101096280D01*
X84217559Y-101105048D01*
X84228466Y-101114934D01*
X84238352Y-101125841D01*
X84247120Y-101137664D01*
X84254688Y-101150290D01*
X84260982Y-101163597D01*
X84265941Y-101177457D01*
X84269518Y-101191736D01*
X84271678Y-101206297D01*
X84272400Y-101221000D01*
X84272400Y-102671000D01*
X84271678Y-102685703D01*
X84269518Y-102700264D01*
X84265941Y-102714543D01*
X84260982Y-102728403D01*
X84254688Y-102741710D01*
X84247120Y-102754336D01*
X84238352Y-102766159D01*
X84228466Y-102777066D01*
X84217559Y-102786952D01*
X84205736Y-102795720D01*
X84193110Y-102803288D01*
X84179803Y-102809582D01*
X84165943Y-102814541D01*
X84151664Y-102818118D01*
X84137103Y-102820278D01*
X84122400Y-102821000D01*
X83822400Y-102821000D01*
X83807697Y-102820278D01*
X83793136Y-102818118D01*
X83778857Y-102814541D01*
X83764997Y-102809582D01*
X83751690Y-102803288D01*
X83739064Y-102795720D01*
X83727241Y-102786952D01*
X83716334Y-102777066D01*
X83706448Y-102766159D01*
X83697680Y-102754336D01*
X83690112Y-102741710D01*
X83683818Y-102728403D01*
X83678859Y-102714543D01*
X83675282Y-102700264D01*
X83673122Y-102685703D01*
X83672400Y-102671000D01*
X83672400Y-101221000D01*
X83673122Y-101206297D01*
X83675282Y-101191736D01*
X83678859Y-101177457D01*
X83683818Y-101163597D01*
X83690112Y-101150290D01*
X83697680Y-101137664D01*
X83706448Y-101125841D01*
X83716334Y-101114934D01*
X83727241Y-101105048D01*
X83739064Y-101096280D01*
X83751690Y-101088712D01*
X83764997Y-101082418D01*
X83778857Y-101077459D01*
X83793136Y-101073882D01*
X83807697Y-101071722D01*
X83822400Y-101071000D01*
X84122400Y-101071000D01*
X84137103Y-101071722D01*
X84137103Y-101071722D01*
G37*
D19*
X83972400Y-101946000D03*
D12*
G36*
X85407103Y-101071722D02*
G01*
X85421664Y-101073882D01*
X85435943Y-101077459D01*
X85449803Y-101082418D01*
X85463110Y-101088712D01*
X85475736Y-101096280D01*
X85487559Y-101105048D01*
X85498466Y-101114934D01*
X85508352Y-101125841D01*
X85517120Y-101137664D01*
X85524688Y-101150290D01*
X85530982Y-101163597D01*
X85535941Y-101177457D01*
X85539518Y-101191736D01*
X85541678Y-101206297D01*
X85542400Y-101221000D01*
X85542400Y-102671000D01*
X85541678Y-102685703D01*
X85539518Y-102700264D01*
X85535941Y-102714543D01*
X85530982Y-102728403D01*
X85524688Y-102741710D01*
X85517120Y-102754336D01*
X85508352Y-102766159D01*
X85498466Y-102777066D01*
X85487559Y-102786952D01*
X85475736Y-102795720D01*
X85463110Y-102803288D01*
X85449803Y-102809582D01*
X85435943Y-102814541D01*
X85421664Y-102818118D01*
X85407103Y-102820278D01*
X85392400Y-102821000D01*
X85092400Y-102821000D01*
X85077697Y-102820278D01*
X85063136Y-102818118D01*
X85048857Y-102814541D01*
X85034997Y-102809582D01*
X85021690Y-102803288D01*
X85009064Y-102795720D01*
X84997241Y-102786952D01*
X84986334Y-102777066D01*
X84976448Y-102766159D01*
X84967680Y-102754336D01*
X84960112Y-102741710D01*
X84953818Y-102728403D01*
X84948859Y-102714543D01*
X84945282Y-102700264D01*
X84943122Y-102685703D01*
X84942400Y-102671000D01*
X84942400Y-101221000D01*
X84943122Y-101206297D01*
X84945282Y-101191736D01*
X84948859Y-101177457D01*
X84953818Y-101163597D01*
X84960112Y-101150290D01*
X84967680Y-101137664D01*
X84976448Y-101125841D01*
X84986334Y-101114934D01*
X84997241Y-101105048D01*
X85009064Y-101096280D01*
X85021690Y-101088712D01*
X85034997Y-101082418D01*
X85048857Y-101077459D01*
X85063136Y-101073882D01*
X85077697Y-101071722D01*
X85092400Y-101071000D01*
X85392400Y-101071000D01*
X85407103Y-101071722D01*
X85407103Y-101071722D01*
G37*
D19*
X85242400Y-101946000D03*
D12*
G36*
X86677103Y-101071722D02*
G01*
X86691664Y-101073882D01*
X86705943Y-101077459D01*
X86719803Y-101082418D01*
X86733110Y-101088712D01*
X86745736Y-101096280D01*
X86757559Y-101105048D01*
X86768466Y-101114934D01*
X86778352Y-101125841D01*
X86787120Y-101137664D01*
X86794688Y-101150290D01*
X86800982Y-101163597D01*
X86805941Y-101177457D01*
X86809518Y-101191736D01*
X86811678Y-101206297D01*
X86812400Y-101221000D01*
X86812400Y-102671000D01*
X86811678Y-102685703D01*
X86809518Y-102700264D01*
X86805941Y-102714543D01*
X86800982Y-102728403D01*
X86794688Y-102741710D01*
X86787120Y-102754336D01*
X86778352Y-102766159D01*
X86768466Y-102777066D01*
X86757559Y-102786952D01*
X86745736Y-102795720D01*
X86733110Y-102803288D01*
X86719803Y-102809582D01*
X86705943Y-102814541D01*
X86691664Y-102818118D01*
X86677103Y-102820278D01*
X86662400Y-102821000D01*
X86362400Y-102821000D01*
X86347697Y-102820278D01*
X86333136Y-102818118D01*
X86318857Y-102814541D01*
X86304997Y-102809582D01*
X86291690Y-102803288D01*
X86279064Y-102795720D01*
X86267241Y-102786952D01*
X86256334Y-102777066D01*
X86246448Y-102766159D01*
X86237680Y-102754336D01*
X86230112Y-102741710D01*
X86223818Y-102728403D01*
X86218859Y-102714543D01*
X86215282Y-102700264D01*
X86213122Y-102685703D01*
X86212400Y-102671000D01*
X86212400Y-101221000D01*
X86213122Y-101206297D01*
X86215282Y-101191736D01*
X86218859Y-101177457D01*
X86223818Y-101163597D01*
X86230112Y-101150290D01*
X86237680Y-101137664D01*
X86246448Y-101125841D01*
X86256334Y-101114934D01*
X86267241Y-101105048D01*
X86279064Y-101096280D01*
X86291690Y-101088712D01*
X86304997Y-101082418D01*
X86318857Y-101077459D01*
X86333136Y-101073882D01*
X86347697Y-101071722D01*
X86362400Y-101071000D01*
X86662400Y-101071000D01*
X86677103Y-101071722D01*
X86677103Y-101071722D01*
G37*
D19*
X86512400Y-101946000D03*
D12*
G36*
X87947103Y-101071722D02*
G01*
X87961664Y-101073882D01*
X87975943Y-101077459D01*
X87989803Y-101082418D01*
X88003110Y-101088712D01*
X88015736Y-101096280D01*
X88027559Y-101105048D01*
X88038466Y-101114934D01*
X88048352Y-101125841D01*
X88057120Y-101137664D01*
X88064688Y-101150290D01*
X88070982Y-101163597D01*
X88075941Y-101177457D01*
X88079518Y-101191736D01*
X88081678Y-101206297D01*
X88082400Y-101221000D01*
X88082400Y-102671000D01*
X88081678Y-102685703D01*
X88079518Y-102700264D01*
X88075941Y-102714543D01*
X88070982Y-102728403D01*
X88064688Y-102741710D01*
X88057120Y-102754336D01*
X88048352Y-102766159D01*
X88038466Y-102777066D01*
X88027559Y-102786952D01*
X88015736Y-102795720D01*
X88003110Y-102803288D01*
X87989803Y-102809582D01*
X87975943Y-102814541D01*
X87961664Y-102818118D01*
X87947103Y-102820278D01*
X87932400Y-102821000D01*
X87632400Y-102821000D01*
X87617697Y-102820278D01*
X87603136Y-102818118D01*
X87588857Y-102814541D01*
X87574997Y-102809582D01*
X87561690Y-102803288D01*
X87549064Y-102795720D01*
X87537241Y-102786952D01*
X87526334Y-102777066D01*
X87516448Y-102766159D01*
X87507680Y-102754336D01*
X87500112Y-102741710D01*
X87493818Y-102728403D01*
X87488859Y-102714543D01*
X87485282Y-102700264D01*
X87483122Y-102685703D01*
X87482400Y-102671000D01*
X87482400Y-101221000D01*
X87483122Y-101206297D01*
X87485282Y-101191736D01*
X87488859Y-101177457D01*
X87493818Y-101163597D01*
X87500112Y-101150290D01*
X87507680Y-101137664D01*
X87516448Y-101125841D01*
X87526334Y-101114934D01*
X87537241Y-101105048D01*
X87549064Y-101096280D01*
X87561690Y-101088712D01*
X87574997Y-101082418D01*
X87588857Y-101077459D01*
X87603136Y-101073882D01*
X87617697Y-101071722D01*
X87632400Y-101071000D01*
X87932400Y-101071000D01*
X87947103Y-101071722D01*
X87947103Y-101071722D01*
G37*
D19*
X87782400Y-101946000D03*
D12*
G36*
X87947103Y-106221722D02*
G01*
X87961664Y-106223882D01*
X87975943Y-106227459D01*
X87989803Y-106232418D01*
X88003110Y-106238712D01*
X88015736Y-106246280D01*
X88027559Y-106255048D01*
X88038466Y-106264934D01*
X88048352Y-106275841D01*
X88057120Y-106287664D01*
X88064688Y-106300290D01*
X88070982Y-106313597D01*
X88075941Y-106327457D01*
X88079518Y-106341736D01*
X88081678Y-106356297D01*
X88082400Y-106371000D01*
X88082400Y-107821000D01*
X88081678Y-107835703D01*
X88079518Y-107850264D01*
X88075941Y-107864543D01*
X88070982Y-107878403D01*
X88064688Y-107891710D01*
X88057120Y-107904336D01*
X88048352Y-107916159D01*
X88038466Y-107927066D01*
X88027559Y-107936952D01*
X88015736Y-107945720D01*
X88003110Y-107953288D01*
X87989803Y-107959582D01*
X87975943Y-107964541D01*
X87961664Y-107968118D01*
X87947103Y-107970278D01*
X87932400Y-107971000D01*
X87632400Y-107971000D01*
X87617697Y-107970278D01*
X87603136Y-107968118D01*
X87588857Y-107964541D01*
X87574997Y-107959582D01*
X87561690Y-107953288D01*
X87549064Y-107945720D01*
X87537241Y-107936952D01*
X87526334Y-107927066D01*
X87516448Y-107916159D01*
X87507680Y-107904336D01*
X87500112Y-107891710D01*
X87493818Y-107878403D01*
X87488859Y-107864543D01*
X87485282Y-107850264D01*
X87483122Y-107835703D01*
X87482400Y-107821000D01*
X87482400Y-106371000D01*
X87483122Y-106356297D01*
X87485282Y-106341736D01*
X87488859Y-106327457D01*
X87493818Y-106313597D01*
X87500112Y-106300290D01*
X87507680Y-106287664D01*
X87516448Y-106275841D01*
X87526334Y-106264934D01*
X87537241Y-106255048D01*
X87549064Y-106246280D01*
X87561690Y-106238712D01*
X87574997Y-106232418D01*
X87588857Y-106227459D01*
X87603136Y-106223882D01*
X87617697Y-106221722D01*
X87632400Y-106221000D01*
X87932400Y-106221000D01*
X87947103Y-106221722D01*
X87947103Y-106221722D01*
G37*
D19*
X87782400Y-107096000D03*
D12*
G36*
X86677103Y-106221722D02*
G01*
X86691664Y-106223882D01*
X86705943Y-106227459D01*
X86719803Y-106232418D01*
X86733110Y-106238712D01*
X86745736Y-106246280D01*
X86757559Y-106255048D01*
X86768466Y-106264934D01*
X86778352Y-106275841D01*
X86787120Y-106287664D01*
X86794688Y-106300290D01*
X86800982Y-106313597D01*
X86805941Y-106327457D01*
X86809518Y-106341736D01*
X86811678Y-106356297D01*
X86812400Y-106371000D01*
X86812400Y-107821000D01*
X86811678Y-107835703D01*
X86809518Y-107850264D01*
X86805941Y-107864543D01*
X86800982Y-107878403D01*
X86794688Y-107891710D01*
X86787120Y-107904336D01*
X86778352Y-107916159D01*
X86768466Y-107927066D01*
X86757559Y-107936952D01*
X86745736Y-107945720D01*
X86733110Y-107953288D01*
X86719803Y-107959582D01*
X86705943Y-107964541D01*
X86691664Y-107968118D01*
X86677103Y-107970278D01*
X86662400Y-107971000D01*
X86362400Y-107971000D01*
X86347697Y-107970278D01*
X86333136Y-107968118D01*
X86318857Y-107964541D01*
X86304997Y-107959582D01*
X86291690Y-107953288D01*
X86279064Y-107945720D01*
X86267241Y-107936952D01*
X86256334Y-107927066D01*
X86246448Y-107916159D01*
X86237680Y-107904336D01*
X86230112Y-107891710D01*
X86223818Y-107878403D01*
X86218859Y-107864543D01*
X86215282Y-107850264D01*
X86213122Y-107835703D01*
X86212400Y-107821000D01*
X86212400Y-106371000D01*
X86213122Y-106356297D01*
X86215282Y-106341736D01*
X86218859Y-106327457D01*
X86223818Y-106313597D01*
X86230112Y-106300290D01*
X86237680Y-106287664D01*
X86246448Y-106275841D01*
X86256334Y-106264934D01*
X86267241Y-106255048D01*
X86279064Y-106246280D01*
X86291690Y-106238712D01*
X86304997Y-106232418D01*
X86318857Y-106227459D01*
X86333136Y-106223882D01*
X86347697Y-106221722D01*
X86362400Y-106221000D01*
X86662400Y-106221000D01*
X86677103Y-106221722D01*
X86677103Y-106221722D01*
G37*
D19*
X86512400Y-107096000D03*
D12*
G36*
X85407103Y-106221722D02*
G01*
X85421664Y-106223882D01*
X85435943Y-106227459D01*
X85449803Y-106232418D01*
X85463110Y-106238712D01*
X85475736Y-106246280D01*
X85487559Y-106255048D01*
X85498466Y-106264934D01*
X85508352Y-106275841D01*
X85517120Y-106287664D01*
X85524688Y-106300290D01*
X85530982Y-106313597D01*
X85535941Y-106327457D01*
X85539518Y-106341736D01*
X85541678Y-106356297D01*
X85542400Y-106371000D01*
X85542400Y-107821000D01*
X85541678Y-107835703D01*
X85539518Y-107850264D01*
X85535941Y-107864543D01*
X85530982Y-107878403D01*
X85524688Y-107891710D01*
X85517120Y-107904336D01*
X85508352Y-107916159D01*
X85498466Y-107927066D01*
X85487559Y-107936952D01*
X85475736Y-107945720D01*
X85463110Y-107953288D01*
X85449803Y-107959582D01*
X85435943Y-107964541D01*
X85421664Y-107968118D01*
X85407103Y-107970278D01*
X85392400Y-107971000D01*
X85092400Y-107971000D01*
X85077697Y-107970278D01*
X85063136Y-107968118D01*
X85048857Y-107964541D01*
X85034997Y-107959582D01*
X85021690Y-107953288D01*
X85009064Y-107945720D01*
X84997241Y-107936952D01*
X84986334Y-107927066D01*
X84976448Y-107916159D01*
X84967680Y-107904336D01*
X84960112Y-107891710D01*
X84953818Y-107878403D01*
X84948859Y-107864543D01*
X84945282Y-107850264D01*
X84943122Y-107835703D01*
X84942400Y-107821000D01*
X84942400Y-106371000D01*
X84943122Y-106356297D01*
X84945282Y-106341736D01*
X84948859Y-106327457D01*
X84953818Y-106313597D01*
X84960112Y-106300290D01*
X84967680Y-106287664D01*
X84976448Y-106275841D01*
X84986334Y-106264934D01*
X84997241Y-106255048D01*
X85009064Y-106246280D01*
X85021690Y-106238712D01*
X85034997Y-106232418D01*
X85048857Y-106227459D01*
X85063136Y-106223882D01*
X85077697Y-106221722D01*
X85092400Y-106221000D01*
X85392400Y-106221000D01*
X85407103Y-106221722D01*
X85407103Y-106221722D01*
G37*
D19*
X85242400Y-107096000D03*
D12*
G36*
X84137103Y-106221722D02*
G01*
X84151664Y-106223882D01*
X84165943Y-106227459D01*
X84179803Y-106232418D01*
X84193110Y-106238712D01*
X84205736Y-106246280D01*
X84217559Y-106255048D01*
X84228466Y-106264934D01*
X84238352Y-106275841D01*
X84247120Y-106287664D01*
X84254688Y-106300290D01*
X84260982Y-106313597D01*
X84265941Y-106327457D01*
X84269518Y-106341736D01*
X84271678Y-106356297D01*
X84272400Y-106371000D01*
X84272400Y-107821000D01*
X84271678Y-107835703D01*
X84269518Y-107850264D01*
X84265941Y-107864543D01*
X84260982Y-107878403D01*
X84254688Y-107891710D01*
X84247120Y-107904336D01*
X84238352Y-107916159D01*
X84228466Y-107927066D01*
X84217559Y-107936952D01*
X84205736Y-107945720D01*
X84193110Y-107953288D01*
X84179803Y-107959582D01*
X84165943Y-107964541D01*
X84151664Y-107968118D01*
X84137103Y-107970278D01*
X84122400Y-107971000D01*
X83822400Y-107971000D01*
X83807697Y-107970278D01*
X83793136Y-107968118D01*
X83778857Y-107964541D01*
X83764997Y-107959582D01*
X83751690Y-107953288D01*
X83739064Y-107945720D01*
X83727241Y-107936952D01*
X83716334Y-107927066D01*
X83706448Y-107916159D01*
X83697680Y-107904336D01*
X83690112Y-107891710D01*
X83683818Y-107878403D01*
X83678859Y-107864543D01*
X83675282Y-107850264D01*
X83673122Y-107835703D01*
X83672400Y-107821000D01*
X83672400Y-106371000D01*
X83673122Y-106356297D01*
X83675282Y-106341736D01*
X83678859Y-106327457D01*
X83683818Y-106313597D01*
X83690112Y-106300290D01*
X83697680Y-106287664D01*
X83706448Y-106275841D01*
X83716334Y-106264934D01*
X83727241Y-106255048D01*
X83739064Y-106246280D01*
X83751690Y-106238712D01*
X83764997Y-106232418D01*
X83778857Y-106227459D01*
X83793136Y-106223882D01*
X83807697Y-106221722D01*
X83822400Y-106221000D01*
X84122400Y-106221000D01*
X84137103Y-106221722D01*
X84137103Y-106221722D01*
G37*
D19*
X83972400Y-107096000D03*
D12*
G36*
X92767958Y-104811310D02*
G01*
X92782276Y-104813434D01*
X92796317Y-104816951D01*
X92809946Y-104821828D01*
X92823031Y-104828017D01*
X92835447Y-104835458D01*
X92847073Y-104844081D01*
X92857798Y-104853802D01*
X92867519Y-104864527D01*
X92876142Y-104876153D01*
X92883583Y-104888569D01*
X92889772Y-104901654D01*
X92894649Y-104915283D01*
X92898166Y-104929324D01*
X92900290Y-104943642D01*
X92901000Y-104958100D01*
X92901000Y-105303100D01*
X92900290Y-105317558D01*
X92898166Y-105331876D01*
X92894649Y-105345917D01*
X92889772Y-105359546D01*
X92883583Y-105372631D01*
X92876142Y-105385047D01*
X92867519Y-105396673D01*
X92857798Y-105407398D01*
X92847073Y-105417119D01*
X92835447Y-105425742D01*
X92823031Y-105433183D01*
X92809946Y-105439372D01*
X92796317Y-105444249D01*
X92782276Y-105447766D01*
X92767958Y-105449890D01*
X92753500Y-105450600D01*
X92458500Y-105450600D01*
X92444042Y-105449890D01*
X92429724Y-105447766D01*
X92415683Y-105444249D01*
X92402054Y-105439372D01*
X92388969Y-105433183D01*
X92376553Y-105425742D01*
X92364927Y-105417119D01*
X92354202Y-105407398D01*
X92344481Y-105396673D01*
X92335858Y-105385047D01*
X92328417Y-105372631D01*
X92322228Y-105359546D01*
X92317351Y-105345917D01*
X92313834Y-105331876D01*
X92311710Y-105317558D01*
X92311000Y-105303100D01*
X92311000Y-104958100D01*
X92311710Y-104943642D01*
X92313834Y-104929324D01*
X92317351Y-104915283D01*
X92322228Y-104901654D01*
X92328417Y-104888569D01*
X92335858Y-104876153D01*
X92344481Y-104864527D01*
X92354202Y-104853802D01*
X92364927Y-104844081D01*
X92376553Y-104835458D01*
X92388969Y-104828017D01*
X92402054Y-104821828D01*
X92415683Y-104816951D01*
X92429724Y-104813434D01*
X92444042Y-104811310D01*
X92458500Y-104810600D01*
X92753500Y-104810600D01*
X92767958Y-104811310D01*
X92767958Y-104811310D01*
G37*
D20*
X92606000Y-105130600D03*
D12*
G36*
X93737958Y-104811310D02*
G01*
X93752276Y-104813434D01*
X93766317Y-104816951D01*
X93779946Y-104821828D01*
X93793031Y-104828017D01*
X93805447Y-104835458D01*
X93817073Y-104844081D01*
X93827798Y-104853802D01*
X93837519Y-104864527D01*
X93846142Y-104876153D01*
X93853583Y-104888569D01*
X93859772Y-104901654D01*
X93864649Y-104915283D01*
X93868166Y-104929324D01*
X93870290Y-104943642D01*
X93871000Y-104958100D01*
X93871000Y-105303100D01*
X93870290Y-105317558D01*
X93868166Y-105331876D01*
X93864649Y-105345917D01*
X93859772Y-105359546D01*
X93853583Y-105372631D01*
X93846142Y-105385047D01*
X93837519Y-105396673D01*
X93827798Y-105407398D01*
X93817073Y-105417119D01*
X93805447Y-105425742D01*
X93793031Y-105433183D01*
X93779946Y-105439372D01*
X93766317Y-105444249D01*
X93752276Y-105447766D01*
X93737958Y-105449890D01*
X93723500Y-105450600D01*
X93428500Y-105450600D01*
X93414042Y-105449890D01*
X93399724Y-105447766D01*
X93385683Y-105444249D01*
X93372054Y-105439372D01*
X93358969Y-105433183D01*
X93346553Y-105425742D01*
X93334927Y-105417119D01*
X93324202Y-105407398D01*
X93314481Y-105396673D01*
X93305858Y-105385047D01*
X93298417Y-105372631D01*
X93292228Y-105359546D01*
X93287351Y-105345917D01*
X93283834Y-105331876D01*
X93281710Y-105317558D01*
X93281000Y-105303100D01*
X93281000Y-104958100D01*
X93281710Y-104943642D01*
X93283834Y-104929324D01*
X93287351Y-104915283D01*
X93292228Y-104901654D01*
X93298417Y-104888569D01*
X93305858Y-104876153D01*
X93314481Y-104864527D01*
X93324202Y-104853802D01*
X93334927Y-104844081D01*
X93346553Y-104835458D01*
X93358969Y-104828017D01*
X93372054Y-104821828D01*
X93385683Y-104816951D01*
X93399724Y-104813434D01*
X93414042Y-104811310D01*
X93428500Y-104810600D01*
X93723500Y-104810600D01*
X93737958Y-104811310D01*
X93737958Y-104811310D01*
G37*
D20*
X93576000Y-105130600D03*
D12*
G36*
X103766158Y-100899710D02*
G01*
X103780476Y-100901834D01*
X103794517Y-100905351D01*
X103808146Y-100910228D01*
X103821231Y-100916417D01*
X103833647Y-100923858D01*
X103845273Y-100932481D01*
X103855998Y-100942202D01*
X103865719Y-100952927D01*
X103874342Y-100964553D01*
X103881783Y-100976969D01*
X103887972Y-100990054D01*
X103892849Y-101003683D01*
X103896366Y-101017724D01*
X103898490Y-101032042D01*
X103899200Y-101046500D01*
X103899200Y-101391500D01*
X103898490Y-101405958D01*
X103896366Y-101420276D01*
X103892849Y-101434317D01*
X103887972Y-101447946D01*
X103881783Y-101461031D01*
X103874342Y-101473447D01*
X103865719Y-101485073D01*
X103855998Y-101495798D01*
X103845273Y-101505519D01*
X103833647Y-101514142D01*
X103821231Y-101521583D01*
X103808146Y-101527772D01*
X103794517Y-101532649D01*
X103780476Y-101536166D01*
X103766158Y-101538290D01*
X103751700Y-101539000D01*
X103456700Y-101539000D01*
X103442242Y-101538290D01*
X103427924Y-101536166D01*
X103413883Y-101532649D01*
X103400254Y-101527772D01*
X103387169Y-101521583D01*
X103374753Y-101514142D01*
X103363127Y-101505519D01*
X103352402Y-101495798D01*
X103342681Y-101485073D01*
X103334058Y-101473447D01*
X103326617Y-101461031D01*
X103320428Y-101447946D01*
X103315551Y-101434317D01*
X103312034Y-101420276D01*
X103309910Y-101405958D01*
X103309200Y-101391500D01*
X103309200Y-101046500D01*
X103309910Y-101032042D01*
X103312034Y-101017724D01*
X103315551Y-101003683D01*
X103320428Y-100990054D01*
X103326617Y-100976969D01*
X103334058Y-100964553D01*
X103342681Y-100952927D01*
X103352402Y-100942202D01*
X103363127Y-100932481D01*
X103374753Y-100923858D01*
X103387169Y-100916417D01*
X103400254Y-100910228D01*
X103413883Y-100905351D01*
X103427924Y-100901834D01*
X103442242Y-100899710D01*
X103456700Y-100899000D01*
X103751700Y-100899000D01*
X103766158Y-100899710D01*
X103766158Y-100899710D01*
G37*
D20*
X103604200Y-101219000D03*
D12*
G36*
X104736158Y-100899710D02*
G01*
X104750476Y-100901834D01*
X104764517Y-100905351D01*
X104778146Y-100910228D01*
X104791231Y-100916417D01*
X104803647Y-100923858D01*
X104815273Y-100932481D01*
X104825998Y-100942202D01*
X104835719Y-100952927D01*
X104844342Y-100964553D01*
X104851783Y-100976969D01*
X104857972Y-100990054D01*
X104862849Y-101003683D01*
X104866366Y-101017724D01*
X104868490Y-101032042D01*
X104869200Y-101046500D01*
X104869200Y-101391500D01*
X104868490Y-101405958D01*
X104866366Y-101420276D01*
X104862849Y-101434317D01*
X104857972Y-101447946D01*
X104851783Y-101461031D01*
X104844342Y-101473447D01*
X104835719Y-101485073D01*
X104825998Y-101495798D01*
X104815273Y-101505519D01*
X104803647Y-101514142D01*
X104791231Y-101521583D01*
X104778146Y-101527772D01*
X104764517Y-101532649D01*
X104750476Y-101536166D01*
X104736158Y-101538290D01*
X104721700Y-101539000D01*
X104426700Y-101539000D01*
X104412242Y-101538290D01*
X104397924Y-101536166D01*
X104383883Y-101532649D01*
X104370254Y-101527772D01*
X104357169Y-101521583D01*
X104344753Y-101514142D01*
X104333127Y-101505519D01*
X104322402Y-101495798D01*
X104312681Y-101485073D01*
X104304058Y-101473447D01*
X104296617Y-101461031D01*
X104290428Y-101447946D01*
X104285551Y-101434317D01*
X104282034Y-101420276D01*
X104279910Y-101405958D01*
X104279200Y-101391500D01*
X104279200Y-101046500D01*
X104279910Y-101032042D01*
X104282034Y-101017724D01*
X104285551Y-101003683D01*
X104290428Y-100990054D01*
X104296617Y-100976969D01*
X104304058Y-100964553D01*
X104312681Y-100952927D01*
X104322402Y-100942202D01*
X104333127Y-100932481D01*
X104344753Y-100923858D01*
X104357169Y-100916417D01*
X104370254Y-100910228D01*
X104383883Y-100905351D01*
X104397924Y-100901834D01*
X104412242Y-100899710D01*
X104426700Y-100899000D01*
X104721700Y-100899000D01*
X104736158Y-100899710D01*
X104736158Y-100899710D01*
G37*
D20*
X104574200Y-101219000D03*
D12*
G36*
X107753958Y-101585510D02*
G01*
X107768276Y-101587634D01*
X107782317Y-101591151D01*
X107795946Y-101596028D01*
X107809031Y-101602217D01*
X107821447Y-101609658D01*
X107833073Y-101618281D01*
X107843798Y-101628002D01*
X107853519Y-101638727D01*
X107862142Y-101650353D01*
X107869583Y-101662769D01*
X107875772Y-101675854D01*
X107880649Y-101689483D01*
X107884166Y-101703524D01*
X107886290Y-101717842D01*
X107887000Y-101732300D01*
X107887000Y-102077300D01*
X107886290Y-102091758D01*
X107884166Y-102106076D01*
X107880649Y-102120117D01*
X107875772Y-102133746D01*
X107869583Y-102146831D01*
X107862142Y-102159247D01*
X107853519Y-102170873D01*
X107843798Y-102181598D01*
X107833073Y-102191319D01*
X107821447Y-102199942D01*
X107809031Y-102207383D01*
X107795946Y-102213572D01*
X107782317Y-102218449D01*
X107768276Y-102221966D01*
X107753958Y-102224090D01*
X107739500Y-102224800D01*
X107444500Y-102224800D01*
X107430042Y-102224090D01*
X107415724Y-102221966D01*
X107401683Y-102218449D01*
X107388054Y-102213572D01*
X107374969Y-102207383D01*
X107362553Y-102199942D01*
X107350927Y-102191319D01*
X107340202Y-102181598D01*
X107330481Y-102170873D01*
X107321858Y-102159247D01*
X107314417Y-102146831D01*
X107308228Y-102133746D01*
X107303351Y-102120117D01*
X107299834Y-102106076D01*
X107297710Y-102091758D01*
X107297000Y-102077300D01*
X107297000Y-101732300D01*
X107297710Y-101717842D01*
X107299834Y-101703524D01*
X107303351Y-101689483D01*
X107308228Y-101675854D01*
X107314417Y-101662769D01*
X107321858Y-101650353D01*
X107330481Y-101638727D01*
X107340202Y-101628002D01*
X107350927Y-101618281D01*
X107362553Y-101609658D01*
X107374969Y-101602217D01*
X107388054Y-101596028D01*
X107401683Y-101591151D01*
X107415724Y-101587634D01*
X107430042Y-101585510D01*
X107444500Y-101584800D01*
X107739500Y-101584800D01*
X107753958Y-101585510D01*
X107753958Y-101585510D01*
G37*
D20*
X107592000Y-101904800D03*
D12*
G36*
X108723958Y-101585510D02*
G01*
X108738276Y-101587634D01*
X108752317Y-101591151D01*
X108765946Y-101596028D01*
X108779031Y-101602217D01*
X108791447Y-101609658D01*
X108803073Y-101618281D01*
X108813798Y-101628002D01*
X108823519Y-101638727D01*
X108832142Y-101650353D01*
X108839583Y-101662769D01*
X108845772Y-101675854D01*
X108850649Y-101689483D01*
X108854166Y-101703524D01*
X108856290Y-101717842D01*
X108857000Y-101732300D01*
X108857000Y-102077300D01*
X108856290Y-102091758D01*
X108854166Y-102106076D01*
X108850649Y-102120117D01*
X108845772Y-102133746D01*
X108839583Y-102146831D01*
X108832142Y-102159247D01*
X108823519Y-102170873D01*
X108813798Y-102181598D01*
X108803073Y-102191319D01*
X108791447Y-102199942D01*
X108779031Y-102207383D01*
X108765946Y-102213572D01*
X108752317Y-102218449D01*
X108738276Y-102221966D01*
X108723958Y-102224090D01*
X108709500Y-102224800D01*
X108414500Y-102224800D01*
X108400042Y-102224090D01*
X108385724Y-102221966D01*
X108371683Y-102218449D01*
X108358054Y-102213572D01*
X108344969Y-102207383D01*
X108332553Y-102199942D01*
X108320927Y-102191319D01*
X108310202Y-102181598D01*
X108300481Y-102170873D01*
X108291858Y-102159247D01*
X108284417Y-102146831D01*
X108278228Y-102133746D01*
X108273351Y-102120117D01*
X108269834Y-102106076D01*
X108267710Y-102091758D01*
X108267000Y-102077300D01*
X108267000Y-101732300D01*
X108267710Y-101717842D01*
X108269834Y-101703524D01*
X108273351Y-101689483D01*
X108278228Y-101675854D01*
X108284417Y-101662769D01*
X108291858Y-101650353D01*
X108300481Y-101638727D01*
X108310202Y-101628002D01*
X108320927Y-101618281D01*
X108332553Y-101609658D01*
X108344969Y-101602217D01*
X108358054Y-101596028D01*
X108371683Y-101591151D01*
X108385724Y-101587634D01*
X108400042Y-101585510D01*
X108414500Y-101584800D01*
X108709500Y-101584800D01*
X108723958Y-101585510D01*
X108723958Y-101585510D01*
G37*
D20*
X108562000Y-101904800D03*
D12*
G36*
X110168958Y-96439210D02*
G01*
X110183276Y-96441334D01*
X110197317Y-96444851D01*
X110210946Y-96449728D01*
X110224031Y-96455917D01*
X110236447Y-96463358D01*
X110248073Y-96471981D01*
X110258798Y-96481702D01*
X110268519Y-96492427D01*
X110277142Y-96504053D01*
X110284583Y-96516469D01*
X110290772Y-96529554D01*
X110295649Y-96543183D01*
X110299166Y-96557224D01*
X110301290Y-96571542D01*
X110302000Y-96586000D01*
X110302000Y-96881000D01*
X110301290Y-96895458D01*
X110299166Y-96909776D01*
X110295649Y-96923817D01*
X110290772Y-96937446D01*
X110284583Y-96950531D01*
X110277142Y-96962947D01*
X110268519Y-96974573D01*
X110258798Y-96985298D01*
X110248073Y-96995019D01*
X110236447Y-97003642D01*
X110224031Y-97011083D01*
X110210946Y-97017272D01*
X110197317Y-97022149D01*
X110183276Y-97025666D01*
X110168958Y-97027790D01*
X110154500Y-97028500D01*
X109809500Y-97028500D01*
X109795042Y-97027790D01*
X109780724Y-97025666D01*
X109766683Y-97022149D01*
X109753054Y-97017272D01*
X109739969Y-97011083D01*
X109727553Y-97003642D01*
X109715927Y-96995019D01*
X109705202Y-96985298D01*
X109695481Y-96974573D01*
X109686858Y-96962947D01*
X109679417Y-96950531D01*
X109673228Y-96937446D01*
X109668351Y-96923817D01*
X109664834Y-96909776D01*
X109662710Y-96895458D01*
X109662000Y-96881000D01*
X109662000Y-96586000D01*
X109662710Y-96571542D01*
X109664834Y-96557224D01*
X109668351Y-96543183D01*
X109673228Y-96529554D01*
X109679417Y-96516469D01*
X109686858Y-96504053D01*
X109695481Y-96492427D01*
X109705202Y-96481702D01*
X109715927Y-96471981D01*
X109727553Y-96463358D01*
X109739969Y-96455917D01*
X109753054Y-96449728D01*
X109766683Y-96444851D01*
X109780724Y-96441334D01*
X109795042Y-96439210D01*
X109809500Y-96438500D01*
X110154500Y-96438500D01*
X110168958Y-96439210D01*
X110168958Y-96439210D01*
G37*
D20*
X109982000Y-96733500D03*
D12*
G36*
X110168958Y-97409210D02*
G01*
X110183276Y-97411334D01*
X110197317Y-97414851D01*
X110210946Y-97419728D01*
X110224031Y-97425917D01*
X110236447Y-97433358D01*
X110248073Y-97441981D01*
X110258798Y-97451702D01*
X110268519Y-97462427D01*
X110277142Y-97474053D01*
X110284583Y-97486469D01*
X110290772Y-97499554D01*
X110295649Y-97513183D01*
X110299166Y-97527224D01*
X110301290Y-97541542D01*
X110302000Y-97556000D01*
X110302000Y-97851000D01*
X110301290Y-97865458D01*
X110299166Y-97879776D01*
X110295649Y-97893817D01*
X110290772Y-97907446D01*
X110284583Y-97920531D01*
X110277142Y-97932947D01*
X110268519Y-97944573D01*
X110258798Y-97955298D01*
X110248073Y-97965019D01*
X110236447Y-97973642D01*
X110224031Y-97981083D01*
X110210946Y-97987272D01*
X110197317Y-97992149D01*
X110183276Y-97995666D01*
X110168958Y-97997790D01*
X110154500Y-97998500D01*
X109809500Y-97998500D01*
X109795042Y-97997790D01*
X109780724Y-97995666D01*
X109766683Y-97992149D01*
X109753054Y-97987272D01*
X109739969Y-97981083D01*
X109727553Y-97973642D01*
X109715927Y-97965019D01*
X109705202Y-97955298D01*
X109695481Y-97944573D01*
X109686858Y-97932947D01*
X109679417Y-97920531D01*
X109673228Y-97907446D01*
X109668351Y-97893817D01*
X109664834Y-97879776D01*
X109662710Y-97865458D01*
X109662000Y-97851000D01*
X109662000Y-97556000D01*
X109662710Y-97541542D01*
X109664834Y-97527224D01*
X109668351Y-97513183D01*
X109673228Y-97499554D01*
X109679417Y-97486469D01*
X109686858Y-97474053D01*
X109695481Y-97462427D01*
X109705202Y-97451702D01*
X109715927Y-97441981D01*
X109727553Y-97433358D01*
X109739969Y-97425917D01*
X109753054Y-97419728D01*
X109766683Y-97414851D01*
X109780724Y-97411334D01*
X109795042Y-97409210D01*
X109809500Y-97408500D01*
X110154500Y-97408500D01*
X110168958Y-97409210D01*
X110168958Y-97409210D01*
G37*
D20*
X109982000Y-97703500D03*
D12*
G36*
X108012758Y-98943910D02*
G01*
X108027076Y-98946034D01*
X108041117Y-98949551D01*
X108054746Y-98954428D01*
X108067831Y-98960617D01*
X108080247Y-98968058D01*
X108091873Y-98976681D01*
X108102598Y-98986402D01*
X108112319Y-98997127D01*
X108120942Y-99008753D01*
X108128383Y-99021169D01*
X108134572Y-99034254D01*
X108139449Y-99047883D01*
X108142966Y-99061924D01*
X108145090Y-99076242D01*
X108145800Y-99090700D01*
X108145800Y-99435700D01*
X108145090Y-99450158D01*
X108142966Y-99464476D01*
X108139449Y-99478517D01*
X108134572Y-99492146D01*
X108128383Y-99505231D01*
X108120942Y-99517647D01*
X108112319Y-99529273D01*
X108102598Y-99539998D01*
X108091873Y-99549719D01*
X108080247Y-99558342D01*
X108067831Y-99565783D01*
X108054746Y-99571972D01*
X108041117Y-99576849D01*
X108027076Y-99580366D01*
X108012758Y-99582490D01*
X107998300Y-99583200D01*
X107703300Y-99583200D01*
X107688842Y-99582490D01*
X107674524Y-99580366D01*
X107660483Y-99576849D01*
X107646854Y-99571972D01*
X107633769Y-99565783D01*
X107621353Y-99558342D01*
X107609727Y-99549719D01*
X107599002Y-99539998D01*
X107589281Y-99529273D01*
X107580658Y-99517647D01*
X107573217Y-99505231D01*
X107567028Y-99492146D01*
X107562151Y-99478517D01*
X107558634Y-99464476D01*
X107556510Y-99450158D01*
X107555800Y-99435700D01*
X107555800Y-99090700D01*
X107556510Y-99076242D01*
X107558634Y-99061924D01*
X107562151Y-99047883D01*
X107567028Y-99034254D01*
X107573217Y-99021169D01*
X107580658Y-99008753D01*
X107589281Y-98997127D01*
X107599002Y-98986402D01*
X107609727Y-98976681D01*
X107621353Y-98968058D01*
X107633769Y-98960617D01*
X107646854Y-98954428D01*
X107660483Y-98949551D01*
X107674524Y-98946034D01*
X107688842Y-98943910D01*
X107703300Y-98943200D01*
X107998300Y-98943200D01*
X108012758Y-98943910D01*
X108012758Y-98943910D01*
G37*
D20*
X107850800Y-99263200D03*
D12*
G36*
X107042758Y-98943910D02*
G01*
X107057076Y-98946034D01*
X107071117Y-98949551D01*
X107084746Y-98954428D01*
X107097831Y-98960617D01*
X107110247Y-98968058D01*
X107121873Y-98976681D01*
X107132598Y-98986402D01*
X107142319Y-98997127D01*
X107150942Y-99008753D01*
X107158383Y-99021169D01*
X107164572Y-99034254D01*
X107169449Y-99047883D01*
X107172966Y-99061924D01*
X107175090Y-99076242D01*
X107175800Y-99090700D01*
X107175800Y-99435700D01*
X107175090Y-99450158D01*
X107172966Y-99464476D01*
X107169449Y-99478517D01*
X107164572Y-99492146D01*
X107158383Y-99505231D01*
X107150942Y-99517647D01*
X107142319Y-99529273D01*
X107132598Y-99539998D01*
X107121873Y-99549719D01*
X107110247Y-99558342D01*
X107097831Y-99565783D01*
X107084746Y-99571972D01*
X107071117Y-99576849D01*
X107057076Y-99580366D01*
X107042758Y-99582490D01*
X107028300Y-99583200D01*
X106733300Y-99583200D01*
X106718842Y-99582490D01*
X106704524Y-99580366D01*
X106690483Y-99576849D01*
X106676854Y-99571972D01*
X106663769Y-99565783D01*
X106651353Y-99558342D01*
X106639727Y-99549719D01*
X106629002Y-99539998D01*
X106619281Y-99529273D01*
X106610658Y-99517647D01*
X106603217Y-99505231D01*
X106597028Y-99492146D01*
X106592151Y-99478517D01*
X106588634Y-99464476D01*
X106586510Y-99450158D01*
X106585800Y-99435700D01*
X106585800Y-99090700D01*
X106586510Y-99076242D01*
X106588634Y-99061924D01*
X106592151Y-99047883D01*
X106597028Y-99034254D01*
X106603217Y-99021169D01*
X106610658Y-99008753D01*
X106619281Y-98997127D01*
X106629002Y-98986402D01*
X106639727Y-98976681D01*
X106651353Y-98968058D01*
X106663769Y-98960617D01*
X106676854Y-98954428D01*
X106690483Y-98949551D01*
X106704524Y-98946034D01*
X106718842Y-98943910D01*
X106733300Y-98943200D01*
X107028300Y-98943200D01*
X107042758Y-98943910D01*
X107042758Y-98943910D01*
G37*
D20*
X106880800Y-99263200D03*
D21*
X109232700Y-107849800D03*
X109232700Y-104849800D03*
D22*
X110707700Y-106349800D03*
X107757700Y-106349800D03*
D21*
X108837600Y-82194400D03*
X111837600Y-82194400D03*
D23*
X110337600Y-83669400D03*
X110337600Y-80719400D03*
D24*
X116447400Y-94042400D03*
X116447400Y-101842400D03*
D25*
X112547400Y-95692400D03*
X112547400Y-96192400D03*
X112547400Y-96692400D03*
X112547400Y-97192400D03*
X112547400Y-97692400D03*
X112547400Y-98192400D03*
X112547400Y-98692400D03*
X112547400Y-99192400D03*
X112547400Y-99692400D03*
X112547400Y-100192400D03*
D26*
X116188200Y-91834800D03*
X101388200Y-91834800D03*
D27*
X114538200Y-87934800D03*
X114038200Y-87934800D03*
X113538200Y-87934800D03*
X113038200Y-87934800D03*
X112538200Y-87934800D03*
X112038200Y-87934800D03*
X111538200Y-87934800D03*
X111038200Y-87934800D03*
X110538200Y-87934800D03*
X110038200Y-87934800D03*
X109538200Y-87934800D03*
X109038200Y-87934800D03*
X108538200Y-87934800D03*
X108038200Y-87934800D03*
X107538200Y-87934800D03*
X107038200Y-87934800D03*
X106538200Y-87934800D03*
X106038200Y-87934800D03*
X105538200Y-87934800D03*
X105038200Y-87934800D03*
X104538200Y-87934800D03*
X104038200Y-87934800D03*
X103538200Y-87934800D03*
X103038200Y-87934800D03*
D12*
G36*
X102932291Y-104555053D02*
G01*
X102953526Y-104558203D01*
X102974350Y-104563419D01*
X102994562Y-104570651D01*
X103013968Y-104579830D01*
X103032381Y-104590866D01*
X103049624Y-104603654D01*
X103065530Y-104618070D01*
X103079946Y-104633976D01*
X103092734Y-104651219D01*
X103103770Y-104669632D01*
X103112949Y-104689038D01*
X103120181Y-104709250D01*
X103125397Y-104730074D01*
X103128547Y-104751309D01*
X103129600Y-104772750D01*
X103129600Y-105285250D01*
X103128547Y-105306691D01*
X103125397Y-105327926D01*
X103120181Y-105348750D01*
X103112949Y-105368962D01*
X103103770Y-105388368D01*
X103092734Y-105406781D01*
X103079946Y-105424024D01*
X103065530Y-105439930D01*
X103049624Y-105454346D01*
X103032381Y-105467134D01*
X103013968Y-105478170D01*
X102994562Y-105487349D01*
X102974350Y-105494581D01*
X102953526Y-105499797D01*
X102932291Y-105502947D01*
X102910850Y-105504000D01*
X102473350Y-105504000D01*
X102451909Y-105502947D01*
X102430674Y-105499797D01*
X102409850Y-105494581D01*
X102389638Y-105487349D01*
X102370232Y-105478170D01*
X102351819Y-105467134D01*
X102334576Y-105454346D01*
X102318670Y-105439930D01*
X102304254Y-105424024D01*
X102291466Y-105406781D01*
X102280430Y-105388368D01*
X102271251Y-105368962D01*
X102264019Y-105348750D01*
X102258803Y-105327926D01*
X102255653Y-105306691D01*
X102254600Y-105285250D01*
X102254600Y-104772750D01*
X102255653Y-104751309D01*
X102258803Y-104730074D01*
X102264019Y-104709250D01*
X102271251Y-104689038D01*
X102280430Y-104669632D01*
X102291466Y-104651219D01*
X102304254Y-104633976D01*
X102318670Y-104618070D01*
X102334576Y-104603654D01*
X102351819Y-104590866D01*
X102370232Y-104579830D01*
X102389638Y-104570651D01*
X102409850Y-104563419D01*
X102430674Y-104558203D01*
X102451909Y-104555053D01*
X102473350Y-104554000D01*
X102910850Y-104554000D01*
X102932291Y-104555053D01*
X102932291Y-104555053D01*
G37*
D28*
X102692100Y-105029000D03*
D12*
G36*
X104507291Y-104555053D02*
G01*
X104528526Y-104558203D01*
X104549350Y-104563419D01*
X104569562Y-104570651D01*
X104588968Y-104579830D01*
X104607381Y-104590866D01*
X104624624Y-104603654D01*
X104640530Y-104618070D01*
X104654946Y-104633976D01*
X104667734Y-104651219D01*
X104678770Y-104669632D01*
X104687949Y-104689038D01*
X104695181Y-104709250D01*
X104700397Y-104730074D01*
X104703547Y-104751309D01*
X104704600Y-104772750D01*
X104704600Y-105285250D01*
X104703547Y-105306691D01*
X104700397Y-105327926D01*
X104695181Y-105348750D01*
X104687949Y-105368962D01*
X104678770Y-105388368D01*
X104667734Y-105406781D01*
X104654946Y-105424024D01*
X104640530Y-105439930D01*
X104624624Y-105454346D01*
X104607381Y-105467134D01*
X104588968Y-105478170D01*
X104569562Y-105487349D01*
X104549350Y-105494581D01*
X104528526Y-105499797D01*
X104507291Y-105502947D01*
X104485850Y-105504000D01*
X104048350Y-105504000D01*
X104026909Y-105502947D01*
X104005674Y-105499797D01*
X103984850Y-105494581D01*
X103964638Y-105487349D01*
X103945232Y-105478170D01*
X103926819Y-105467134D01*
X103909576Y-105454346D01*
X103893670Y-105439930D01*
X103879254Y-105424024D01*
X103866466Y-105406781D01*
X103855430Y-105388368D01*
X103846251Y-105368962D01*
X103839019Y-105348750D01*
X103833803Y-105327926D01*
X103830653Y-105306691D01*
X103829600Y-105285250D01*
X103829600Y-104772750D01*
X103830653Y-104751309D01*
X103833803Y-104730074D01*
X103839019Y-104709250D01*
X103846251Y-104689038D01*
X103855430Y-104669632D01*
X103866466Y-104651219D01*
X103879254Y-104633976D01*
X103893670Y-104618070D01*
X103909576Y-104603654D01*
X103926819Y-104590866D01*
X103945232Y-104579830D01*
X103964638Y-104570651D01*
X103984850Y-104563419D01*
X104005674Y-104558203D01*
X104026909Y-104555053D01*
X104048350Y-104554000D01*
X104485850Y-104554000D01*
X104507291Y-104555053D01*
X104507291Y-104555053D01*
G37*
D28*
X104267100Y-105029000D03*
D29*
X83705700Y-99170200D03*
X83705700Y-97070200D03*
D12*
G36*
X95875542Y-105219174D02*
G01*
X95899203Y-105222684D01*
X95922407Y-105228496D01*
X95944929Y-105236554D01*
X95966553Y-105246782D01*
X95987070Y-105259079D01*
X96006283Y-105273329D01*
X96024007Y-105289393D01*
X96040071Y-105307117D01*
X96054321Y-105326330D01*
X96066618Y-105346847D01*
X96076846Y-105368471D01*
X96084904Y-105390993D01*
X96090716Y-105414197D01*
X96094226Y-105437858D01*
X96095400Y-105461750D01*
X96095400Y-106374250D01*
X96094226Y-106398142D01*
X96090716Y-106421803D01*
X96084904Y-106445007D01*
X96076846Y-106467529D01*
X96066618Y-106489153D01*
X96054321Y-106509670D01*
X96040071Y-106528883D01*
X96024007Y-106546607D01*
X96006283Y-106562671D01*
X95987070Y-106576921D01*
X95966553Y-106589218D01*
X95944929Y-106599446D01*
X95922407Y-106607504D01*
X95899203Y-106613316D01*
X95875542Y-106616826D01*
X95851650Y-106618000D01*
X95364150Y-106618000D01*
X95340258Y-106616826D01*
X95316597Y-106613316D01*
X95293393Y-106607504D01*
X95270871Y-106599446D01*
X95249247Y-106589218D01*
X95228730Y-106576921D01*
X95209517Y-106562671D01*
X95191793Y-106546607D01*
X95175729Y-106528883D01*
X95161479Y-106509670D01*
X95149182Y-106489153D01*
X95138954Y-106467529D01*
X95130896Y-106445007D01*
X95125084Y-106421803D01*
X95121574Y-106398142D01*
X95120400Y-106374250D01*
X95120400Y-105461750D01*
X95121574Y-105437858D01*
X95125084Y-105414197D01*
X95130896Y-105390993D01*
X95138954Y-105368471D01*
X95149182Y-105346847D01*
X95161479Y-105326330D01*
X95175729Y-105307117D01*
X95191793Y-105289393D01*
X95209517Y-105273329D01*
X95228730Y-105259079D01*
X95249247Y-105246782D01*
X95270871Y-105236554D01*
X95293393Y-105228496D01*
X95316597Y-105222684D01*
X95340258Y-105219174D01*
X95364150Y-105218000D01*
X95851650Y-105218000D01*
X95875542Y-105219174D01*
X95875542Y-105219174D01*
G37*
D30*
X95607900Y-105918000D03*
D12*
G36*
X97750542Y-105219174D02*
G01*
X97774203Y-105222684D01*
X97797407Y-105228496D01*
X97819929Y-105236554D01*
X97841553Y-105246782D01*
X97862070Y-105259079D01*
X97881283Y-105273329D01*
X97899007Y-105289393D01*
X97915071Y-105307117D01*
X97929321Y-105326330D01*
X97941618Y-105346847D01*
X97951846Y-105368471D01*
X97959904Y-105390993D01*
X97965716Y-105414197D01*
X97969226Y-105437858D01*
X97970400Y-105461750D01*
X97970400Y-106374250D01*
X97969226Y-106398142D01*
X97965716Y-106421803D01*
X97959904Y-106445007D01*
X97951846Y-106467529D01*
X97941618Y-106489153D01*
X97929321Y-106509670D01*
X97915071Y-106528883D01*
X97899007Y-106546607D01*
X97881283Y-106562671D01*
X97862070Y-106576921D01*
X97841553Y-106589218D01*
X97819929Y-106599446D01*
X97797407Y-106607504D01*
X97774203Y-106613316D01*
X97750542Y-106616826D01*
X97726650Y-106618000D01*
X97239150Y-106618000D01*
X97215258Y-106616826D01*
X97191597Y-106613316D01*
X97168393Y-106607504D01*
X97145871Y-106599446D01*
X97124247Y-106589218D01*
X97103730Y-106576921D01*
X97084517Y-106562671D01*
X97066793Y-106546607D01*
X97050729Y-106528883D01*
X97036479Y-106509670D01*
X97024182Y-106489153D01*
X97013954Y-106467529D01*
X97005896Y-106445007D01*
X97000084Y-106421803D01*
X96996574Y-106398142D01*
X96995400Y-106374250D01*
X96995400Y-105461750D01*
X96996574Y-105437858D01*
X97000084Y-105414197D01*
X97005896Y-105390993D01*
X97013954Y-105368471D01*
X97024182Y-105346847D01*
X97036479Y-105326330D01*
X97050729Y-105307117D01*
X97066793Y-105289393D01*
X97084517Y-105273329D01*
X97103730Y-105259079D01*
X97124247Y-105246782D01*
X97145871Y-105236554D01*
X97168393Y-105228496D01*
X97191597Y-105222684D01*
X97215258Y-105219174D01*
X97239150Y-105218000D01*
X97726650Y-105218000D01*
X97750542Y-105219174D01*
X97750542Y-105219174D01*
G37*
D30*
X97482900Y-105918000D03*
D12*
G36*
X94878158Y-108089910D02*
G01*
X94892476Y-108092034D01*
X94906517Y-108095551D01*
X94920146Y-108100428D01*
X94933231Y-108106617D01*
X94945647Y-108114058D01*
X94957273Y-108122681D01*
X94967998Y-108132402D01*
X94977719Y-108143127D01*
X94986342Y-108154753D01*
X94993783Y-108167169D01*
X94999972Y-108180254D01*
X95004849Y-108193883D01*
X95008366Y-108207924D01*
X95010490Y-108222242D01*
X95011200Y-108236700D01*
X95011200Y-108531700D01*
X95010490Y-108546158D01*
X95008366Y-108560476D01*
X95004849Y-108574517D01*
X94999972Y-108588146D01*
X94993783Y-108601231D01*
X94986342Y-108613647D01*
X94977719Y-108625273D01*
X94967998Y-108635998D01*
X94957273Y-108645719D01*
X94945647Y-108654342D01*
X94933231Y-108661783D01*
X94920146Y-108667972D01*
X94906517Y-108672849D01*
X94892476Y-108676366D01*
X94878158Y-108678490D01*
X94863700Y-108679200D01*
X94518700Y-108679200D01*
X94504242Y-108678490D01*
X94489924Y-108676366D01*
X94475883Y-108672849D01*
X94462254Y-108667972D01*
X94449169Y-108661783D01*
X94436753Y-108654342D01*
X94425127Y-108645719D01*
X94414402Y-108635998D01*
X94404681Y-108625273D01*
X94396058Y-108613647D01*
X94388617Y-108601231D01*
X94382428Y-108588146D01*
X94377551Y-108574517D01*
X94374034Y-108560476D01*
X94371910Y-108546158D01*
X94371200Y-108531700D01*
X94371200Y-108236700D01*
X94371910Y-108222242D01*
X94374034Y-108207924D01*
X94377551Y-108193883D01*
X94382428Y-108180254D01*
X94388617Y-108167169D01*
X94396058Y-108154753D01*
X94404681Y-108143127D01*
X94414402Y-108132402D01*
X94425127Y-108122681D01*
X94436753Y-108114058D01*
X94449169Y-108106617D01*
X94462254Y-108100428D01*
X94475883Y-108095551D01*
X94489924Y-108092034D01*
X94504242Y-108089910D01*
X94518700Y-108089200D01*
X94863700Y-108089200D01*
X94878158Y-108089910D01*
X94878158Y-108089910D01*
G37*
D20*
X94691200Y-108384200D03*
D12*
G36*
X94878158Y-107119910D02*
G01*
X94892476Y-107122034D01*
X94906517Y-107125551D01*
X94920146Y-107130428D01*
X94933231Y-107136617D01*
X94945647Y-107144058D01*
X94957273Y-107152681D01*
X94967998Y-107162402D01*
X94977719Y-107173127D01*
X94986342Y-107184753D01*
X94993783Y-107197169D01*
X94999972Y-107210254D01*
X95004849Y-107223883D01*
X95008366Y-107237924D01*
X95010490Y-107252242D01*
X95011200Y-107266700D01*
X95011200Y-107561700D01*
X95010490Y-107576158D01*
X95008366Y-107590476D01*
X95004849Y-107604517D01*
X94999972Y-107618146D01*
X94993783Y-107631231D01*
X94986342Y-107643647D01*
X94977719Y-107655273D01*
X94967998Y-107665998D01*
X94957273Y-107675719D01*
X94945647Y-107684342D01*
X94933231Y-107691783D01*
X94920146Y-107697972D01*
X94906517Y-107702849D01*
X94892476Y-107706366D01*
X94878158Y-107708490D01*
X94863700Y-107709200D01*
X94518700Y-107709200D01*
X94504242Y-107708490D01*
X94489924Y-107706366D01*
X94475883Y-107702849D01*
X94462254Y-107697972D01*
X94449169Y-107691783D01*
X94436753Y-107684342D01*
X94425127Y-107675719D01*
X94414402Y-107665998D01*
X94404681Y-107655273D01*
X94396058Y-107643647D01*
X94388617Y-107631231D01*
X94382428Y-107618146D01*
X94377551Y-107604517D01*
X94374034Y-107590476D01*
X94371910Y-107576158D01*
X94371200Y-107561700D01*
X94371200Y-107266700D01*
X94371910Y-107252242D01*
X94374034Y-107237924D01*
X94377551Y-107223883D01*
X94382428Y-107210254D01*
X94388617Y-107197169D01*
X94396058Y-107184753D01*
X94404681Y-107173127D01*
X94414402Y-107162402D01*
X94425127Y-107152681D01*
X94436753Y-107144058D01*
X94449169Y-107136617D01*
X94462254Y-107130428D01*
X94475883Y-107125551D01*
X94489924Y-107122034D01*
X94504242Y-107119910D01*
X94518700Y-107119200D01*
X94863700Y-107119200D01*
X94878158Y-107119910D01*
X94878158Y-107119910D01*
G37*
D20*
X94691200Y-107414200D03*
D12*
G36*
X95863678Y-108089910D02*
G01*
X95877996Y-108092034D01*
X95892037Y-108095551D01*
X95905666Y-108100428D01*
X95918751Y-108106617D01*
X95931167Y-108114058D01*
X95942793Y-108122681D01*
X95953518Y-108132402D01*
X95963239Y-108143127D01*
X95971862Y-108154753D01*
X95979303Y-108167169D01*
X95985492Y-108180254D01*
X95990369Y-108193883D01*
X95993886Y-108207924D01*
X95996010Y-108222242D01*
X95996720Y-108236700D01*
X95996720Y-108531700D01*
X95996010Y-108546158D01*
X95993886Y-108560476D01*
X95990369Y-108574517D01*
X95985492Y-108588146D01*
X95979303Y-108601231D01*
X95971862Y-108613647D01*
X95963239Y-108625273D01*
X95953518Y-108635998D01*
X95942793Y-108645719D01*
X95931167Y-108654342D01*
X95918751Y-108661783D01*
X95905666Y-108667972D01*
X95892037Y-108672849D01*
X95877996Y-108676366D01*
X95863678Y-108678490D01*
X95849220Y-108679200D01*
X95504220Y-108679200D01*
X95489762Y-108678490D01*
X95475444Y-108676366D01*
X95461403Y-108672849D01*
X95447774Y-108667972D01*
X95434689Y-108661783D01*
X95422273Y-108654342D01*
X95410647Y-108645719D01*
X95399922Y-108635998D01*
X95390201Y-108625273D01*
X95381578Y-108613647D01*
X95374137Y-108601231D01*
X95367948Y-108588146D01*
X95363071Y-108574517D01*
X95359554Y-108560476D01*
X95357430Y-108546158D01*
X95356720Y-108531700D01*
X95356720Y-108236700D01*
X95357430Y-108222242D01*
X95359554Y-108207924D01*
X95363071Y-108193883D01*
X95367948Y-108180254D01*
X95374137Y-108167169D01*
X95381578Y-108154753D01*
X95390201Y-108143127D01*
X95399922Y-108132402D01*
X95410647Y-108122681D01*
X95422273Y-108114058D01*
X95434689Y-108106617D01*
X95447774Y-108100428D01*
X95461403Y-108095551D01*
X95475444Y-108092034D01*
X95489762Y-108089910D01*
X95504220Y-108089200D01*
X95849220Y-108089200D01*
X95863678Y-108089910D01*
X95863678Y-108089910D01*
G37*
D20*
X95676720Y-108384200D03*
D12*
G36*
X95863678Y-107119910D02*
G01*
X95877996Y-107122034D01*
X95892037Y-107125551D01*
X95905666Y-107130428D01*
X95918751Y-107136617D01*
X95931167Y-107144058D01*
X95942793Y-107152681D01*
X95953518Y-107162402D01*
X95963239Y-107173127D01*
X95971862Y-107184753D01*
X95979303Y-107197169D01*
X95985492Y-107210254D01*
X95990369Y-107223883D01*
X95993886Y-107237924D01*
X95996010Y-107252242D01*
X95996720Y-107266700D01*
X95996720Y-107561700D01*
X95996010Y-107576158D01*
X95993886Y-107590476D01*
X95990369Y-107604517D01*
X95985492Y-107618146D01*
X95979303Y-107631231D01*
X95971862Y-107643647D01*
X95963239Y-107655273D01*
X95953518Y-107665998D01*
X95942793Y-107675719D01*
X95931167Y-107684342D01*
X95918751Y-107691783D01*
X95905666Y-107697972D01*
X95892037Y-107702849D01*
X95877996Y-107706366D01*
X95863678Y-107708490D01*
X95849220Y-107709200D01*
X95504220Y-107709200D01*
X95489762Y-107708490D01*
X95475444Y-107706366D01*
X95461403Y-107702849D01*
X95447774Y-107697972D01*
X95434689Y-107691783D01*
X95422273Y-107684342D01*
X95410647Y-107675719D01*
X95399922Y-107665998D01*
X95390201Y-107655273D01*
X95381578Y-107643647D01*
X95374137Y-107631231D01*
X95367948Y-107618146D01*
X95363071Y-107604517D01*
X95359554Y-107590476D01*
X95357430Y-107576158D01*
X95356720Y-107561700D01*
X95356720Y-107266700D01*
X95357430Y-107252242D01*
X95359554Y-107237924D01*
X95363071Y-107223883D01*
X95367948Y-107210254D01*
X95374137Y-107197169D01*
X95381578Y-107184753D01*
X95390201Y-107173127D01*
X95399922Y-107162402D01*
X95410647Y-107152681D01*
X95422273Y-107144058D01*
X95434689Y-107136617D01*
X95447774Y-107130428D01*
X95461403Y-107125551D01*
X95475444Y-107122034D01*
X95489762Y-107119910D01*
X95504220Y-107119200D01*
X95849220Y-107119200D01*
X95863678Y-107119910D01*
X95863678Y-107119910D01*
G37*
D20*
X95676720Y-107414200D03*
D12*
G36*
X104710758Y-98943910D02*
G01*
X104725076Y-98946034D01*
X104739117Y-98949551D01*
X104752746Y-98954428D01*
X104765831Y-98960617D01*
X104778247Y-98968058D01*
X104789873Y-98976681D01*
X104800598Y-98986402D01*
X104810319Y-98997127D01*
X104818942Y-99008753D01*
X104826383Y-99021169D01*
X104832572Y-99034254D01*
X104837449Y-99047883D01*
X104840966Y-99061924D01*
X104843090Y-99076242D01*
X104843800Y-99090700D01*
X104843800Y-99435700D01*
X104843090Y-99450158D01*
X104840966Y-99464476D01*
X104837449Y-99478517D01*
X104832572Y-99492146D01*
X104826383Y-99505231D01*
X104818942Y-99517647D01*
X104810319Y-99529273D01*
X104800598Y-99539998D01*
X104789873Y-99549719D01*
X104778247Y-99558342D01*
X104765831Y-99565783D01*
X104752746Y-99571972D01*
X104739117Y-99576849D01*
X104725076Y-99580366D01*
X104710758Y-99582490D01*
X104696300Y-99583200D01*
X104401300Y-99583200D01*
X104386842Y-99582490D01*
X104372524Y-99580366D01*
X104358483Y-99576849D01*
X104344854Y-99571972D01*
X104331769Y-99565783D01*
X104319353Y-99558342D01*
X104307727Y-99549719D01*
X104297002Y-99539998D01*
X104287281Y-99529273D01*
X104278658Y-99517647D01*
X104271217Y-99505231D01*
X104265028Y-99492146D01*
X104260151Y-99478517D01*
X104256634Y-99464476D01*
X104254510Y-99450158D01*
X104253800Y-99435700D01*
X104253800Y-99090700D01*
X104254510Y-99076242D01*
X104256634Y-99061924D01*
X104260151Y-99047883D01*
X104265028Y-99034254D01*
X104271217Y-99021169D01*
X104278658Y-99008753D01*
X104287281Y-98997127D01*
X104297002Y-98986402D01*
X104307727Y-98976681D01*
X104319353Y-98968058D01*
X104331769Y-98960617D01*
X104344854Y-98954428D01*
X104358483Y-98949551D01*
X104372524Y-98946034D01*
X104386842Y-98943910D01*
X104401300Y-98943200D01*
X104696300Y-98943200D01*
X104710758Y-98943910D01*
X104710758Y-98943910D01*
G37*
D20*
X104548800Y-99263200D03*
D12*
G36*
X103740758Y-98943910D02*
G01*
X103755076Y-98946034D01*
X103769117Y-98949551D01*
X103782746Y-98954428D01*
X103795831Y-98960617D01*
X103808247Y-98968058D01*
X103819873Y-98976681D01*
X103830598Y-98986402D01*
X103840319Y-98997127D01*
X103848942Y-99008753D01*
X103856383Y-99021169D01*
X103862572Y-99034254D01*
X103867449Y-99047883D01*
X103870966Y-99061924D01*
X103873090Y-99076242D01*
X103873800Y-99090700D01*
X103873800Y-99435700D01*
X103873090Y-99450158D01*
X103870966Y-99464476D01*
X103867449Y-99478517D01*
X103862572Y-99492146D01*
X103856383Y-99505231D01*
X103848942Y-99517647D01*
X103840319Y-99529273D01*
X103830598Y-99539998D01*
X103819873Y-99549719D01*
X103808247Y-99558342D01*
X103795831Y-99565783D01*
X103782746Y-99571972D01*
X103769117Y-99576849D01*
X103755076Y-99580366D01*
X103740758Y-99582490D01*
X103726300Y-99583200D01*
X103431300Y-99583200D01*
X103416842Y-99582490D01*
X103402524Y-99580366D01*
X103388483Y-99576849D01*
X103374854Y-99571972D01*
X103361769Y-99565783D01*
X103349353Y-99558342D01*
X103337727Y-99549719D01*
X103327002Y-99539998D01*
X103317281Y-99529273D01*
X103308658Y-99517647D01*
X103301217Y-99505231D01*
X103295028Y-99492146D01*
X103290151Y-99478517D01*
X103286634Y-99464476D01*
X103284510Y-99450158D01*
X103283800Y-99435700D01*
X103283800Y-99090700D01*
X103284510Y-99076242D01*
X103286634Y-99061924D01*
X103290151Y-99047883D01*
X103295028Y-99034254D01*
X103301217Y-99021169D01*
X103308658Y-99008753D01*
X103317281Y-98997127D01*
X103327002Y-98986402D01*
X103337727Y-98976681D01*
X103349353Y-98968058D01*
X103361769Y-98960617D01*
X103374854Y-98954428D01*
X103388483Y-98949551D01*
X103402524Y-98946034D01*
X103416842Y-98943910D01*
X103431300Y-98943200D01*
X103726300Y-98943200D01*
X103740758Y-98943910D01*
X103740758Y-98943910D01*
G37*
D20*
X103578800Y-99263200D03*
D12*
G36*
X103766158Y-99883710D02*
G01*
X103780476Y-99885834D01*
X103794517Y-99889351D01*
X103808146Y-99894228D01*
X103821231Y-99900417D01*
X103833647Y-99907858D01*
X103845273Y-99916481D01*
X103855998Y-99926202D01*
X103865719Y-99936927D01*
X103874342Y-99948553D01*
X103881783Y-99960969D01*
X103887972Y-99974054D01*
X103892849Y-99987683D01*
X103896366Y-100001724D01*
X103898490Y-100016042D01*
X103899200Y-100030500D01*
X103899200Y-100375500D01*
X103898490Y-100389958D01*
X103896366Y-100404276D01*
X103892849Y-100418317D01*
X103887972Y-100431946D01*
X103881783Y-100445031D01*
X103874342Y-100457447D01*
X103865719Y-100469073D01*
X103855998Y-100479798D01*
X103845273Y-100489519D01*
X103833647Y-100498142D01*
X103821231Y-100505583D01*
X103808146Y-100511772D01*
X103794517Y-100516649D01*
X103780476Y-100520166D01*
X103766158Y-100522290D01*
X103751700Y-100523000D01*
X103456700Y-100523000D01*
X103442242Y-100522290D01*
X103427924Y-100520166D01*
X103413883Y-100516649D01*
X103400254Y-100511772D01*
X103387169Y-100505583D01*
X103374753Y-100498142D01*
X103363127Y-100489519D01*
X103352402Y-100479798D01*
X103342681Y-100469073D01*
X103334058Y-100457447D01*
X103326617Y-100445031D01*
X103320428Y-100431946D01*
X103315551Y-100418317D01*
X103312034Y-100404276D01*
X103309910Y-100389958D01*
X103309200Y-100375500D01*
X103309200Y-100030500D01*
X103309910Y-100016042D01*
X103312034Y-100001724D01*
X103315551Y-99987683D01*
X103320428Y-99974054D01*
X103326617Y-99960969D01*
X103334058Y-99948553D01*
X103342681Y-99936927D01*
X103352402Y-99926202D01*
X103363127Y-99916481D01*
X103374753Y-99907858D01*
X103387169Y-99900417D01*
X103400254Y-99894228D01*
X103413883Y-99889351D01*
X103427924Y-99885834D01*
X103442242Y-99883710D01*
X103456700Y-99883000D01*
X103751700Y-99883000D01*
X103766158Y-99883710D01*
X103766158Y-99883710D01*
G37*
D20*
X103604200Y-100203000D03*
D12*
G36*
X104736158Y-99883710D02*
G01*
X104750476Y-99885834D01*
X104764517Y-99889351D01*
X104778146Y-99894228D01*
X104791231Y-99900417D01*
X104803647Y-99907858D01*
X104815273Y-99916481D01*
X104825998Y-99926202D01*
X104835719Y-99936927D01*
X104844342Y-99948553D01*
X104851783Y-99960969D01*
X104857972Y-99974054D01*
X104862849Y-99987683D01*
X104866366Y-100001724D01*
X104868490Y-100016042D01*
X104869200Y-100030500D01*
X104869200Y-100375500D01*
X104868490Y-100389958D01*
X104866366Y-100404276D01*
X104862849Y-100418317D01*
X104857972Y-100431946D01*
X104851783Y-100445031D01*
X104844342Y-100457447D01*
X104835719Y-100469073D01*
X104825998Y-100479798D01*
X104815273Y-100489519D01*
X104803647Y-100498142D01*
X104791231Y-100505583D01*
X104778146Y-100511772D01*
X104764517Y-100516649D01*
X104750476Y-100520166D01*
X104736158Y-100522290D01*
X104721700Y-100523000D01*
X104426700Y-100523000D01*
X104412242Y-100522290D01*
X104397924Y-100520166D01*
X104383883Y-100516649D01*
X104370254Y-100511772D01*
X104357169Y-100505583D01*
X104344753Y-100498142D01*
X104333127Y-100489519D01*
X104322402Y-100479798D01*
X104312681Y-100469073D01*
X104304058Y-100457447D01*
X104296617Y-100445031D01*
X104290428Y-100431946D01*
X104285551Y-100418317D01*
X104282034Y-100404276D01*
X104279910Y-100389958D01*
X104279200Y-100375500D01*
X104279200Y-100030500D01*
X104279910Y-100016042D01*
X104282034Y-100001724D01*
X104285551Y-99987683D01*
X104290428Y-99974054D01*
X104296617Y-99960969D01*
X104304058Y-99948553D01*
X104312681Y-99936927D01*
X104322402Y-99926202D01*
X104333127Y-99916481D01*
X104344753Y-99907858D01*
X104357169Y-99900417D01*
X104370254Y-99894228D01*
X104383883Y-99889351D01*
X104397924Y-99885834D01*
X104412242Y-99883710D01*
X104426700Y-99883000D01*
X104721700Y-99883000D01*
X104736158Y-99883710D01*
X104736158Y-99883710D01*
G37*
D20*
X104574200Y-100203000D03*
D31*
X81948400Y-97010700D03*
X81948400Y-97660700D03*
X81948400Y-98310700D03*
X81948400Y-98960700D03*
X81948400Y-99610700D03*
D32*
X79273400Y-97310700D03*
X79273400Y-99310700D03*
X79273400Y-95260700D03*
X79273400Y-101360700D03*
D33*
X85382199Y-99450398D03*
X85382199Y-98450400D03*
X85382199Y-97450399D03*
X86182197Y-99450398D03*
X86182200Y-98450400D03*
X86182197Y-97450399D03*
X86982198Y-99450398D03*
X86982198Y-98450400D03*
X86982198Y-97450399D03*
D12*
G36*
X99196158Y-108110230D02*
G01*
X99210476Y-108112354D01*
X99224517Y-108115871D01*
X99238146Y-108120748D01*
X99251231Y-108126937D01*
X99263647Y-108134378D01*
X99275273Y-108143001D01*
X99285998Y-108152722D01*
X99295719Y-108163447D01*
X99304342Y-108175073D01*
X99311783Y-108187489D01*
X99317972Y-108200574D01*
X99322849Y-108214203D01*
X99326366Y-108228244D01*
X99328490Y-108242562D01*
X99329200Y-108257020D01*
X99329200Y-108552020D01*
X99328490Y-108566478D01*
X99326366Y-108580796D01*
X99322849Y-108594837D01*
X99317972Y-108608466D01*
X99311783Y-108621551D01*
X99304342Y-108633967D01*
X99295719Y-108645593D01*
X99285998Y-108656318D01*
X99275273Y-108666039D01*
X99263647Y-108674662D01*
X99251231Y-108682103D01*
X99238146Y-108688292D01*
X99224517Y-108693169D01*
X99210476Y-108696686D01*
X99196158Y-108698810D01*
X99181700Y-108699520D01*
X98836700Y-108699520D01*
X98822242Y-108698810D01*
X98807924Y-108696686D01*
X98793883Y-108693169D01*
X98780254Y-108688292D01*
X98767169Y-108682103D01*
X98754753Y-108674662D01*
X98743127Y-108666039D01*
X98732402Y-108656318D01*
X98722681Y-108645593D01*
X98714058Y-108633967D01*
X98706617Y-108621551D01*
X98700428Y-108608466D01*
X98695551Y-108594837D01*
X98692034Y-108580796D01*
X98689910Y-108566478D01*
X98689200Y-108552020D01*
X98689200Y-108257020D01*
X98689910Y-108242562D01*
X98692034Y-108228244D01*
X98695551Y-108214203D01*
X98700428Y-108200574D01*
X98706617Y-108187489D01*
X98714058Y-108175073D01*
X98722681Y-108163447D01*
X98732402Y-108152722D01*
X98743127Y-108143001D01*
X98754753Y-108134378D01*
X98767169Y-108126937D01*
X98780254Y-108120748D01*
X98793883Y-108115871D01*
X98807924Y-108112354D01*
X98822242Y-108110230D01*
X98836700Y-108109520D01*
X99181700Y-108109520D01*
X99196158Y-108110230D01*
X99196158Y-108110230D01*
G37*
D20*
X99009200Y-108404520D03*
D12*
G36*
X99196158Y-107140230D02*
G01*
X99210476Y-107142354D01*
X99224517Y-107145871D01*
X99238146Y-107150748D01*
X99251231Y-107156937D01*
X99263647Y-107164378D01*
X99275273Y-107173001D01*
X99285998Y-107182722D01*
X99295719Y-107193447D01*
X99304342Y-107205073D01*
X99311783Y-107217489D01*
X99317972Y-107230574D01*
X99322849Y-107244203D01*
X99326366Y-107258244D01*
X99328490Y-107272562D01*
X99329200Y-107287020D01*
X99329200Y-107582020D01*
X99328490Y-107596478D01*
X99326366Y-107610796D01*
X99322849Y-107624837D01*
X99317972Y-107638466D01*
X99311783Y-107651551D01*
X99304342Y-107663967D01*
X99295719Y-107675593D01*
X99285998Y-107686318D01*
X99275273Y-107696039D01*
X99263647Y-107704662D01*
X99251231Y-107712103D01*
X99238146Y-107718292D01*
X99224517Y-107723169D01*
X99210476Y-107726686D01*
X99196158Y-107728810D01*
X99181700Y-107729520D01*
X98836700Y-107729520D01*
X98822242Y-107728810D01*
X98807924Y-107726686D01*
X98793883Y-107723169D01*
X98780254Y-107718292D01*
X98767169Y-107712103D01*
X98754753Y-107704662D01*
X98743127Y-107696039D01*
X98732402Y-107686318D01*
X98722681Y-107675593D01*
X98714058Y-107663967D01*
X98706617Y-107651551D01*
X98700428Y-107638466D01*
X98695551Y-107624837D01*
X98692034Y-107610796D01*
X98689910Y-107596478D01*
X98689200Y-107582020D01*
X98689200Y-107287020D01*
X98689910Y-107272562D01*
X98692034Y-107258244D01*
X98695551Y-107244203D01*
X98700428Y-107230574D01*
X98706617Y-107217489D01*
X98714058Y-107205073D01*
X98722681Y-107193447D01*
X98732402Y-107182722D01*
X98743127Y-107173001D01*
X98754753Y-107164378D01*
X98767169Y-107156937D01*
X98780254Y-107150748D01*
X98793883Y-107145871D01*
X98807924Y-107142354D01*
X98822242Y-107140230D01*
X98836700Y-107139520D01*
X99181700Y-107139520D01*
X99196158Y-107140230D01*
X99196158Y-107140230D01*
G37*
D20*
X99009200Y-107434520D03*
D34*
X89478900Y-106286400D03*
X89478900Y-107886400D03*
X93578900Y-107886400D03*
X93578900Y-106286400D03*
D12*
G36*
X101558358Y-103792510D02*
G01*
X101572676Y-103794634D01*
X101586717Y-103798151D01*
X101600346Y-103803028D01*
X101613431Y-103809217D01*
X101625847Y-103816658D01*
X101637473Y-103825281D01*
X101648198Y-103835002D01*
X101657919Y-103845727D01*
X101666542Y-103857353D01*
X101673983Y-103869769D01*
X101680172Y-103882854D01*
X101685049Y-103896483D01*
X101688566Y-103910524D01*
X101690690Y-103924842D01*
X101691400Y-103939300D01*
X101691400Y-104234300D01*
X101690690Y-104248758D01*
X101688566Y-104263076D01*
X101685049Y-104277117D01*
X101680172Y-104290746D01*
X101673983Y-104303831D01*
X101666542Y-104316247D01*
X101657919Y-104327873D01*
X101648198Y-104338598D01*
X101637473Y-104348319D01*
X101625847Y-104356942D01*
X101613431Y-104364383D01*
X101600346Y-104370572D01*
X101586717Y-104375449D01*
X101572676Y-104378966D01*
X101558358Y-104381090D01*
X101543900Y-104381800D01*
X101198900Y-104381800D01*
X101184442Y-104381090D01*
X101170124Y-104378966D01*
X101156083Y-104375449D01*
X101142454Y-104370572D01*
X101129369Y-104364383D01*
X101116953Y-104356942D01*
X101105327Y-104348319D01*
X101094602Y-104338598D01*
X101084881Y-104327873D01*
X101076258Y-104316247D01*
X101068817Y-104303831D01*
X101062628Y-104290746D01*
X101057751Y-104277117D01*
X101054234Y-104263076D01*
X101052110Y-104248758D01*
X101051400Y-104234300D01*
X101051400Y-103939300D01*
X101052110Y-103924842D01*
X101054234Y-103910524D01*
X101057751Y-103896483D01*
X101062628Y-103882854D01*
X101068817Y-103869769D01*
X101076258Y-103857353D01*
X101084881Y-103845727D01*
X101094602Y-103835002D01*
X101105327Y-103825281D01*
X101116953Y-103816658D01*
X101129369Y-103809217D01*
X101142454Y-103803028D01*
X101156083Y-103798151D01*
X101170124Y-103794634D01*
X101184442Y-103792510D01*
X101198900Y-103791800D01*
X101543900Y-103791800D01*
X101558358Y-103792510D01*
X101558358Y-103792510D01*
G37*
D20*
X101371400Y-104086800D03*
D12*
G36*
X101558358Y-104762510D02*
G01*
X101572676Y-104764634D01*
X101586717Y-104768151D01*
X101600346Y-104773028D01*
X101613431Y-104779217D01*
X101625847Y-104786658D01*
X101637473Y-104795281D01*
X101648198Y-104805002D01*
X101657919Y-104815727D01*
X101666542Y-104827353D01*
X101673983Y-104839769D01*
X101680172Y-104852854D01*
X101685049Y-104866483D01*
X101688566Y-104880524D01*
X101690690Y-104894842D01*
X101691400Y-104909300D01*
X101691400Y-105204300D01*
X101690690Y-105218758D01*
X101688566Y-105233076D01*
X101685049Y-105247117D01*
X101680172Y-105260746D01*
X101673983Y-105273831D01*
X101666542Y-105286247D01*
X101657919Y-105297873D01*
X101648198Y-105308598D01*
X101637473Y-105318319D01*
X101625847Y-105326942D01*
X101613431Y-105334383D01*
X101600346Y-105340572D01*
X101586717Y-105345449D01*
X101572676Y-105348966D01*
X101558358Y-105351090D01*
X101543900Y-105351800D01*
X101198900Y-105351800D01*
X101184442Y-105351090D01*
X101170124Y-105348966D01*
X101156083Y-105345449D01*
X101142454Y-105340572D01*
X101129369Y-105334383D01*
X101116953Y-105326942D01*
X101105327Y-105318319D01*
X101094602Y-105308598D01*
X101084881Y-105297873D01*
X101076258Y-105286247D01*
X101068817Y-105273831D01*
X101062628Y-105260746D01*
X101057751Y-105247117D01*
X101054234Y-105233076D01*
X101052110Y-105218758D01*
X101051400Y-105204300D01*
X101051400Y-104909300D01*
X101052110Y-104894842D01*
X101054234Y-104880524D01*
X101057751Y-104866483D01*
X101062628Y-104852854D01*
X101068817Y-104839769D01*
X101076258Y-104827353D01*
X101084881Y-104815727D01*
X101094602Y-104805002D01*
X101105327Y-104795281D01*
X101116953Y-104786658D01*
X101129369Y-104779217D01*
X101142454Y-104773028D01*
X101156083Y-104768151D01*
X101170124Y-104764634D01*
X101184442Y-104762510D01*
X101198900Y-104761800D01*
X101543900Y-104761800D01*
X101558358Y-104762510D01*
X101558358Y-104762510D01*
G37*
D20*
X101371400Y-105056800D03*
D12*
G36*
X108774758Y-102576110D02*
G01*
X108789076Y-102578234D01*
X108803117Y-102581751D01*
X108816746Y-102586628D01*
X108829831Y-102592817D01*
X108842247Y-102600258D01*
X108853873Y-102608881D01*
X108864598Y-102618602D01*
X108874319Y-102629327D01*
X108882942Y-102640953D01*
X108890383Y-102653369D01*
X108896572Y-102666454D01*
X108901449Y-102680083D01*
X108904966Y-102694124D01*
X108907090Y-102708442D01*
X108907800Y-102722900D01*
X108907800Y-103067900D01*
X108907090Y-103082358D01*
X108904966Y-103096676D01*
X108901449Y-103110717D01*
X108896572Y-103124346D01*
X108890383Y-103137431D01*
X108882942Y-103149847D01*
X108874319Y-103161473D01*
X108864598Y-103172198D01*
X108853873Y-103181919D01*
X108842247Y-103190542D01*
X108829831Y-103197983D01*
X108816746Y-103204172D01*
X108803117Y-103209049D01*
X108789076Y-103212566D01*
X108774758Y-103214690D01*
X108760300Y-103215400D01*
X108465300Y-103215400D01*
X108450842Y-103214690D01*
X108436524Y-103212566D01*
X108422483Y-103209049D01*
X108408854Y-103204172D01*
X108395769Y-103197983D01*
X108383353Y-103190542D01*
X108371727Y-103181919D01*
X108361002Y-103172198D01*
X108351281Y-103161473D01*
X108342658Y-103149847D01*
X108335217Y-103137431D01*
X108329028Y-103124346D01*
X108324151Y-103110717D01*
X108320634Y-103096676D01*
X108318510Y-103082358D01*
X108317800Y-103067900D01*
X108317800Y-102722900D01*
X108318510Y-102708442D01*
X108320634Y-102694124D01*
X108324151Y-102680083D01*
X108329028Y-102666454D01*
X108335217Y-102653369D01*
X108342658Y-102640953D01*
X108351281Y-102629327D01*
X108361002Y-102618602D01*
X108371727Y-102608881D01*
X108383353Y-102600258D01*
X108395769Y-102592817D01*
X108408854Y-102586628D01*
X108422483Y-102581751D01*
X108436524Y-102578234D01*
X108450842Y-102576110D01*
X108465300Y-102575400D01*
X108760300Y-102575400D01*
X108774758Y-102576110D01*
X108774758Y-102576110D01*
G37*
D20*
X108612800Y-102895400D03*
D12*
G36*
X107804758Y-102576110D02*
G01*
X107819076Y-102578234D01*
X107833117Y-102581751D01*
X107846746Y-102586628D01*
X107859831Y-102592817D01*
X107872247Y-102600258D01*
X107883873Y-102608881D01*
X107894598Y-102618602D01*
X107904319Y-102629327D01*
X107912942Y-102640953D01*
X107920383Y-102653369D01*
X107926572Y-102666454D01*
X107931449Y-102680083D01*
X107934966Y-102694124D01*
X107937090Y-102708442D01*
X107937800Y-102722900D01*
X107937800Y-103067900D01*
X107937090Y-103082358D01*
X107934966Y-103096676D01*
X107931449Y-103110717D01*
X107926572Y-103124346D01*
X107920383Y-103137431D01*
X107912942Y-103149847D01*
X107904319Y-103161473D01*
X107894598Y-103172198D01*
X107883873Y-103181919D01*
X107872247Y-103190542D01*
X107859831Y-103197983D01*
X107846746Y-103204172D01*
X107833117Y-103209049D01*
X107819076Y-103212566D01*
X107804758Y-103214690D01*
X107790300Y-103215400D01*
X107495300Y-103215400D01*
X107480842Y-103214690D01*
X107466524Y-103212566D01*
X107452483Y-103209049D01*
X107438854Y-103204172D01*
X107425769Y-103197983D01*
X107413353Y-103190542D01*
X107401727Y-103181919D01*
X107391002Y-103172198D01*
X107381281Y-103161473D01*
X107372658Y-103149847D01*
X107365217Y-103137431D01*
X107359028Y-103124346D01*
X107354151Y-103110717D01*
X107350634Y-103096676D01*
X107348510Y-103082358D01*
X107347800Y-103067900D01*
X107347800Y-102722900D01*
X107348510Y-102708442D01*
X107350634Y-102694124D01*
X107354151Y-102680083D01*
X107359028Y-102666454D01*
X107365217Y-102653369D01*
X107372658Y-102640953D01*
X107381281Y-102629327D01*
X107391002Y-102618602D01*
X107401727Y-102608881D01*
X107413353Y-102600258D01*
X107425769Y-102592817D01*
X107438854Y-102586628D01*
X107452483Y-102581751D01*
X107466524Y-102578234D01*
X107480842Y-102576110D01*
X107495300Y-102575400D01*
X107790300Y-102575400D01*
X107804758Y-102576110D01*
X107804758Y-102576110D01*
G37*
D20*
X107642800Y-102895400D03*
D12*
G36*
X90992358Y-97343710D02*
G01*
X91006676Y-97345834D01*
X91020717Y-97349351D01*
X91034346Y-97354228D01*
X91047431Y-97360417D01*
X91059847Y-97367858D01*
X91071473Y-97376481D01*
X91082198Y-97386202D01*
X91091919Y-97396927D01*
X91100542Y-97408553D01*
X91107983Y-97420969D01*
X91114172Y-97434054D01*
X91119049Y-97447683D01*
X91122566Y-97461724D01*
X91124690Y-97476042D01*
X91125400Y-97490500D01*
X91125400Y-97835500D01*
X91124690Y-97849958D01*
X91122566Y-97864276D01*
X91119049Y-97878317D01*
X91114172Y-97891946D01*
X91107983Y-97905031D01*
X91100542Y-97917447D01*
X91091919Y-97929073D01*
X91082198Y-97939798D01*
X91071473Y-97949519D01*
X91059847Y-97958142D01*
X91047431Y-97965583D01*
X91034346Y-97971772D01*
X91020717Y-97976649D01*
X91006676Y-97980166D01*
X90992358Y-97982290D01*
X90977900Y-97983000D01*
X90682900Y-97983000D01*
X90668442Y-97982290D01*
X90654124Y-97980166D01*
X90640083Y-97976649D01*
X90626454Y-97971772D01*
X90613369Y-97965583D01*
X90600953Y-97958142D01*
X90589327Y-97949519D01*
X90578602Y-97939798D01*
X90568881Y-97929073D01*
X90560258Y-97917447D01*
X90552817Y-97905031D01*
X90546628Y-97891946D01*
X90541751Y-97878317D01*
X90538234Y-97864276D01*
X90536110Y-97849958D01*
X90535400Y-97835500D01*
X90535400Y-97490500D01*
X90536110Y-97476042D01*
X90538234Y-97461724D01*
X90541751Y-97447683D01*
X90546628Y-97434054D01*
X90552817Y-97420969D01*
X90560258Y-97408553D01*
X90568881Y-97396927D01*
X90578602Y-97386202D01*
X90589327Y-97376481D01*
X90600953Y-97367858D01*
X90613369Y-97360417D01*
X90626454Y-97354228D01*
X90640083Y-97349351D01*
X90654124Y-97345834D01*
X90668442Y-97343710D01*
X90682900Y-97343000D01*
X90977900Y-97343000D01*
X90992358Y-97343710D01*
X90992358Y-97343710D01*
G37*
D20*
X90830400Y-97663000D03*
D12*
G36*
X91962358Y-97343710D02*
G01*
X91976676Y-97345834D01*
X91990717Y-97349351D01*
X92004346Y-97354228D01*
X92017431Y-97360417D01*
X92029847Y-97367858D01*
X92041473Y-97376481D01*
X92052198Y-97386202D01*
X92061919Y-97396927D01*
X92070542Y-97408553D01*
X92077983Y-97420969D01*
X92084172Y-97434054D01*
X92089049Y-97447683D01*
X92092566Y-97461724D01*
X92094690Y-97476042D01*
X92095400Y-97490500D01*
X92095400Y-97835500D01*
X92094690Y-97849958D01*
X92092566Y-97864276D01*
X92089049Y-97878317D01*
X92084172Y-97891946D01*
X92077983Y-97905031D01*
X92070542Y-97917447D01*
X92061919Y-97929073D01*
X92052198Y-97939798D01*
X92041473Y-97949519D01*
X92029847Y-97958142D01*
X92017431Y-97965583D01*
X92004346Y-97971772D01*
X91990717Y-97976649D01*
X91976676Y-97980166D01*
X91962358Y-97982290D01*
X91947900Y-97983000D01*
X91652900Y-97983000D01*
X91638442Y-97982290D01*
X91624124Y-97980166D01*
X91610083Y-97976649D01*
X91596454Y-97971772D01*
X91583369Y-97965583D01*
X91570953Y-97958142D01*
X91559327Y-97949519D01*
X91548602Y-97939798D01*
X91538881Y-97929073D01*
X91530258Y-97917447D01*
X91522817Y-97905031D01*
X91516628Y-97891946D01*
X91511751Y-97878317D01*
X91508234Y-97864276D01*
X91506110Y-97849958D01*
X91505400Y-97835500D01*
X91505400Y-97490500D01*
X91506110Y-97476042D01*
X91508234Y-97461724D01*
X91511751Y-97447683D01*
X91516628Y-97434054D01*
X91522817Y-97420969D01*
X91530258Y-97408553D01*
X91538881Y-97396927D01*
X91548602Y-97386202D01*
X91559327Y-97376481D01*
X91570953Y-97367858D01*
X91583369Y-97360417D01*
X91596454Y-97354228D01*
X91610083Y-97349351D01*
X91624124Y-97345834D01*
X91638442Y-97343710D01*
X91652900Y-97343000D01*
X91947900Y-97343000D01*
X91962358Y-97343710D01*
X91962358Y-97343710D01*
G37*
D20*
X91800400Y-97663000D03*
D12*
G36*
X91959958Y-96378510D02*
G01*
X91974276Y-96380634D01*
X91988317Y-96384151D01*
X92001946Y-96389028D01*
X92015031Y-96395217D01*
X92027447Y-96402658D01*
X92039073Y-96411281D01*
X92049798Y-96421002D01*
X92059519Y-96431727D01*
X92068142Y-96443353D01*
X92075583Y-96455769D01*
X92081772Y-96468854D01*
X92086649Y-96482483D01*
X92090166Y-96496524D01*
X92092290Y-96510842D01*
X92093000Y-96525300D01*
X92093000Y-96870300D01*
X92092290Y-96884758D01*
X92090166Y-96899076D01*
X92086649Y-96913117D01*
X92081772Y-96926746D01*
X92075583Y-96939831D01*
X92068142Y-96952247D01*
X92059519Y-96963873D01*
X92049798Y-96974598D01*
X92039073Y-96984319D01*
X92027447Y-96992942D01*
X92015031Y-97000383D01*
X92001946Y-97006572D01*
X91988317Y-97011449D01*
X91974276Y-97014966D01*
X91959958Y-97017090D01*
X91945500Y-97017800D01*
X91650500Y-97017800D01*
X91636042Y-97017090D01*
X91621724Y-97014966D01*
X91607683Y-97011449D01*
X91594054Y-97006572D01*
X91580969Y-97000383D01*
X91568553Y-96992942D01*
X91556927Y-96984319D01*
X91546202Y-96974598D01*
X91536481Y-96963873D01*
X91527858Y-96952247D01*
X91520417Y-96939831D01*
X91514228Y-96926746D01*
X91509351Y-96913117D01*
X91505834Y-96899076D01*
X91503710Y-96884758D01*
X91503000Y-96870300D01*
X91503000Y-96525300D01*
X91503710Y-96510842D01*
X91505834Y-96496524D01*
X91509351Y-96482483D01*
X91514228Y-96468854D01*
X91520417Y-96455769D01*
X91527858Y-96443353D01*
X91536481Y-96431727D01*
X91546202Y-96421002D01*
X91556927Y-96411281D01*
X91568553Y-96402658D01*
X91580969Y-96395217D01*
X91594054Y-96389028D01*
X91607683Y-96384151D01*
X91621724Y-96380634D01*
X91636042Y-96378510D01*
X91650500Y-96377800D01*
X91945500Y-96377800D01*
X91959958Y-96378510D01*
X91959958Y-96378510D01*
G37*
D20*
X91798000Y-96697800D03*
D12*
G36*
X90989958Y-96378510D02*
G01*
X91004276Y-96380634D01*
X91018317Y-96384151D01*
X91031946Y-96389028D01*
X91045031Y-96395217D01*
X91057447Y-96402658D01*
X91069073Y-96411281D01*
X91079798Y-96421002D01*
X91089519Y-96431727D01*
X91098142Y-96443353D01*
X91105583Y-96455769D01*
X91111772Y-96468854D01*
X91116649Y-96482483D01*
X91120166Y-96496524D01*
X91122290Y-96510842D01*
X91123000Y-96525300D01*
X91123000Y-96870300D01*
X91122290Y-96884758D01*
X91120166Y-96899076D01*
X91116649Y-96913117D01*
X91111772Y-96926746D01*
X91105583Y-96939831D01*
X91098142Y-96952247D01*
X91089519Y-96963873D01*
X91079798Y-96974598D01*
X91069073Y-96984319D01*
X91057447Y-96992942D01*
X91045031Y-97000383D01*
X91031946Y-97006572D01*
X91018317Y-97011449D01*
X91004276Y-97014966D01*
X90989958Y-97017090D01*
X90975500Y-97017800D01*
X90680500Y-97017800D01*
X90666042Y-97017090D01*
X90651724Y-97014966D01*
X90637683Y-97011449D01*
X90624054Y-97006572D01*
X90610969Y-97000383D01*
X90598553Y-96992942D01*
X90586927Y-96984319D01*
X90576202Y-96974598D01*
X90566481Y-96963873D01*
X90557858Y-96952247D01*
X90550417Y-96939831D01*
X90544228Y-96926746D01*
X90539351Y-96913117D01*
X90535834Y-96899076D01*
X90533710Y-96884758D01*
X90533000Y-96870300D01*
X90533000Y-96525300D01*
X90533710Y-96510842D01*
X90535834Y-96496524D01*
X90539351Y-96482483D01*
X90544228Y-96468854D01*
X90550417Y-96455769D01*
X90557858Y-96443353D01*
X90566481Y-96431727D01*
X90576202Y-96421002D01*
X90586927Y-96411281D01*
X90598553Y-96402658D01*
X90610969Y-96395217D01*
X90624054Y-96389028D01*
X90637683Y-96384151D01*
X90651724Y-96380634D01*
X90666042Y-96378510D01*
X90680500Y-96377800D01*
X90975500Y-96377800D01*
X90989958Y-96378510D01*
X90989958Y-96378510D01*
G37*
D20*
X90828000Y-96697800D03*
M02*
