%TF.GenerationSoftware,KiCad,Pcbnew,(5.1.4)-1*%
%TF.CreationDate,2019-10-25T20:40:59-07:00*%
%TF.ProjectId,mainboard,6d61696e-626f-4617-9264-2e6b69636164,rev?*%
%TF.SameCoordinates,Original*%
%TF.FileFunction,Soldermask,Bot*%
%TF.FilePolarity,Negative*%
%FSLAX46Y46*%
G04 Gerber Fmt 4.6, Leading zero omitted, Abs format (unit mm)*
G04 Created by KiCad (PCBNEW (5.1.4)-1) date 2019-10-25 20:40:59*
%MOMM*%
%LPD*%
G04 APERTURE LIST*
%ADD10C,0.150000*%
%ADD11C,0.100000*%
%ADD12C,0.691600*%
%ADD13R,2.561600X2.411600*%
%ADD14R,1.576600X0.551600*%
%ADD15C,2.301600*%
%ADD16R,1.901600X1.101600*%
%ADD17R,1.251600X1.601600*%
%ADD18R,2.301600X1.251600*%
%ADD19R,1.301600X1.261600*%
%ADD20R,1.351600X1.261600*%
%ADD21R,2.601600X1.051600*%
%ADD22R,1.341600X0.901600*%
%ADD23C,1.509600*%
%ADD24C,1.901600*%
G04 APERTURE END LIST*
D10*
X116700300Y-106041600D02*
X116700300Y-109041600D01*
X116700300Y-74041600D02*
X116700300Y-77041600D01*
X121710300Y-106041600D02*
X116700300Y-106041600D01*
X121710300Y-77041600D02*
X116700300Y-77041600D01*
X81725100Y-77041600D02*
X81725100Y-74041600D01*
X76715100Y-106041600D02*
X76721300Y-102057200D01*
X81725100Y-106041600D02*
X76715100Y-106041600D01*
X81725100Y-77041600D02*
X76715100Y-77041600D01*
X77532900Y-95021400D02*
X76708000Y-94513400D01*
X121710300Y-106041600D02*
X121710300Y-77041600D01*
X77546200Y-101549200D02*
X76721300Y-102057200D01*
X81725100Y-106041600D02*
X81725100Y-109041600D01*
X77532900Y-95021400D02*
X77546200Y-101549200D01*
X81725100Y-109041600D02*
X116700300Y-109041600D01*
X116700300Y-74041600D02*
X81725100Y-74041600D01*
X76715100Y-77041600D02*
X76708000Y-94513400D01*
D11*
G36*
X91083887Y-105791873D02*
G01*
X91100671Y-105794362D01*
X91117130Y-105798485D01*
X91133106Y-105804201D01*
X91148444Y-105811456D01*
X91162998Y-105820179D01*
X91176627Y-105830286D01*
X91189199Y-105841681D01*
X91200594Y-105854253D01*
X91210701Y-105867882D01*
X91219424Y-105882436D01*
X91226679Y-105897774D01*
X91232395Y-105913750D01*
X91236518Y-105930209D01*
X91239007Y-105946993D01*
X91239840Y-105963940D01*
X91239840Y-106359740D01*
X91239007Y-106376687D01*
X91236518Y-106393471D01*
X91232395Y-106409930D01*
X91226679Y-106425906D01*
X91219424Y-106441244D01*
X91210701Y-106455798D01*
X91200594Y-106469427D01*
X91189199Y-106481999D01*
X91176627Y-106493394D01*
X91162998Y-106503501D01*
X91148444Y-106512224D01*
X91133106Y-106519479D01*
X91117130Y-106525195D01*
X91100671Y-106529318D01*
X91083887Y-106531807D01*
X91066940Y-106532640D01*
X90721140Y-106532640D01*
X90704193Y-106531807D01*
X90687409Y-106529318D01*
X90670950Y-106525195D01*
X90654974Y-106519479D01*
X90639636Y-106512224D01*
X90625082Y-106503501D01*
X90611453Y-106493394D01*
X90598881Y-106481999D01*
X90587486Y-106469427D01*
X90577379Y-106455798D01*
X90568656Y-106441244D01*
X90561401Y-106425906D01*
X90555685Y-106409930D01*
X90551562Y-106393471D01*
X90549073Y-106376687D01*
X90548240Y-106359740D01*
X90548240Y-105963940D01*
X90549073Y-105946993D01*
X90551562Y-105930209D01*
X90555685Y-105913750D01*
X90561401Y-105897774D01*
X90568656Y-105882436D01*
X90577379Y-105867882D01*
X90587486Y-105854253D01*
X90598881Y-105841681D01*
X90611453Y-105830286D01*
X90625082Y-105820179D01*
X90639636Y-105811456D01*
X90654974Y-105804201D01*
X90670950Y-105798485D01*
X90687409Y-105794362D01*
X90704193Y-105791873D01*
X90721140Y-105791040D01*
X91066940Y-105791040D01*
X91083887Y-105791873D01*
X91083887Y-105791873D01*
G37*
D12*
X90894040Y-106161840D03*
D11*
G36*
X92053887Y-105791873D02*
G01*
X92070671Y-105794362D01*
X92087130Y-105798485D01*
X92103106Y-105804201D01*
X92118444Y-105811456D01*
X92132998Y-105820179D01*
X92146627Y-105830286D01*
X92159199Y-105841681D01*
X92170594Y-105854253D01*
X92180701Y-105867882D01*
X92189424Y-105882436D01*
X92196679Y-105897774D01*
X92202395Y-105913750D01*
X92206518Y-105930209D01*
X92209007Y-105946993D01*
X92209840Y-105963940D01*
X92209840Y-106359740D01*
X92209007Y-106376687D01*
X92206518Y-106393471D01*
X92202395Y-106409930D01*
X92196679Y-106425906D01*
X92189424Y-106441244D01*
X92180701Y-106455798D01*
X92170594Y-106469427D01*
X92159199Y-106481999D01*
X92146627Y-106493394D01*
X92132998Y-106503501D01*
X92118444Y-106512224D01*
X92103106Y-106519479D01*
X92087130Y-106525195D01*
X92070671Y-106529318D01*
X92053887Y-106531807D01*
X92036940Y-106532640D01*
X91691140Y-106532640D01*
X91674193Y-106531807D01*
X91657409Y-106529318D01*
X91640950Y-106525195D01*
X91624974Y-106519479D01*
X91609636Y-106512224D01*
X91595082Y-106503501D01*
X91581453Y-106493394D01*
X91568881Y-106481999D01*
X91557486Y-106469427D01*
X91547379Y-106455798D01*
X91538656Y-106441244D01*
X91531401Y-106425906D01*
X91525685Y-106409930D01*
X91521562Y-106393471D01*
X91519073Y-106376687D01*
X91518240Y-106359740D01*
X91518240Y-105963940D01*
X91519073Y-105946993D01*
X91521562Y-105930209D01*
X91525685Y-105913750D01*
X91531401Y-105897774D01*
X91538656Y-105882436D01*
X91547379Y-105867882D01*
X91557486Y-105854253D01*
X91568881Y-105841681D01*
X91581453Y-105830286D01*
X91595082Y-105820179D01*
X91609636Y-105811456D01*
X91624974Y-105804201D01*
X91640950Y-105798485D01*
X91657409Y-105794362D01*
X91674193Y-105791873D01*
X91691140Y-105791040D01*
X92036940Y-105791040D01*
X92053887Y-105791873D01*
X92053887Y-105791873D01*
G37*
D12*
X91864040Y-106161840D03*
D11*
G36*
X83298247Y-79230833D02*
G01*
X83315031Y-79233322D01*
X83331490Y-79237445D01*
X83347466Y-79243161D01*
X83362804Y-79250416D01*
X83377358Y-79259139D01*
X83390987Y-79269246D01*
X83403559Y-79280641D01*
X83414954Y-79293213D01*
X83425061Y-79306842D01*
X83433784Y-79321396D01*
X83441039Y-79336734D01*
X83446755Y-79352710D01*
X83450878Y-79369169D01*
X83453367Y-79385953D01*
X83454200Y-79402900D01*
X83454200Y-79748700D01*
X83453367Y-79765647D01*
X83450878Y-79782431D01*
X83446755Y-79798890D01*
X83441039Y-79814866D01*
X83433784Y-79830204D01*
X83425061Y-79844758D01*
X83414954Y-79858387D01*
X83403559Y-79870959D01*
X83390987Y-79882354D01*
X83377358Y-79892461D01*
X83362804Y-79901184D01*
X83347466Y-79908439D01*
X83331490Y-79914155D01*
X83315031Y-79918278D01*
X83298247Y-79920767D01*
X83281300Y-79921600D01*
X82885500Y-79921600D01*
X82868553Y-79920767D01*
X82851769Y-79918278D01*
X82835310Y-79914155D01*
X82819334Y-79908439D01*
X82803996Y-79901184D01*
X82789442Y-79892461D01*
X82775813Y-79882354D01*
X82763241Y-79870959D01*
X82751846Y-79858387D01*
X82741739Y-79844758D01*
X82733016Y-79830204D01*
X82725761Y-79814866D01*
X82720045Y-79798890D01*
X82715922Y-79782431D01*
X82713433Y-79765647D01*
X82712600Y-79748700D01*
X82712600Y-79402900D01*
X82713433Y-79385953D01*
X82715922Y-79369169D01*
X82720045Y-79352710D01*
X82725761Y-79336734D01*
X82733016Y-79321396D01*
X82741739Y-79306842D01*
X82751846Y-79293213D01*
X82763241Y-79280641D01*
X82775813Y-79269246D01*
X82789442Y-79259139D01*
X82803996Y-79250416D01*
X82819334Y-79243161D01*
X82835310Y-79237445D01*
X82851769Y-79233322D01*
X82868553Y-79230833D01*
X82885500Y-79230000D01*
X83281300Y-79230000D01*
X83298247Y-79230833D01*
X83298247Y-79230833D01*
G37*
D12*
X83083400Y-79575800D03*
D11*
G36*
X83298247Y-80200833D02*
G01*
X83315031Y-80203322D01*
X83331490Y-80207445D01*
X83347466Y-80213161D01*
X83362804Y-80220416D01*
X83377358Y-80229139D01*
X83390987Y-80239246D01*
X83403559Y-80250641D01*
X83414954Y-80263213D01*
X83425061Y-80276842D01*
X83433784Y-80291396D01*
X83441039Y-80306734D01*
X83446755Y-80322710D01*
X83450878Y-80339169D01*
X83453367Y-80355953D01*
X83454200Y-80372900D01*
X83454200Y-80718700D01*
X83453367Y-80735647D01*
X83450878Y-80752431D01*
X83446755Y-80768890D01*
X83441039Y-80784866D01*
X83433784Y-80800204D01*
X83425061Y-80814758D01*
X83414954Y-80828387D01*
X83403559Y-80840959D01*
X83390987Y-80852354D01*
X83377358Y-80862461D01*
X83362804Y-80871184D01*
X83347466Y-80878439D01*
X83331490Y-80884155D01*
X83315031Y-80888278D01*
X83298247Y-80890767D01*
X83281300Y-80891600D01*
X82885500Y-80891600D01*
X82868553Y-80890767D01*
X82851769Y-80888278D01*
X82835310Y-80884155D01*
X82819334Y-80878439D01*
X82803996Y-80871184D01*
X82789442Y-80862461D01*
X82775813Y-80852354D01*
X82763241Y-80840959D01*
X82751846Y-80828387D01*
X82741739Y-80814758D01*
X82733016Y-80800204D01*
X82725761Y-80784866D01*
X82720045Y-80768890D01*
X82715922Y-80752431D01*
X82713433Y-80735647D01*
X82712600Y-80718700D01*
X82712600Y-80372900D01*
X82713433Y-80355953D01*
X82715922Y-80339169D01*
X82720045Y-80322710D01*
X82725761Y-80306734D01*
X82733016Y-80291396D01*
X82741739Y-80276842D01*
X82751846Y-80263213D01*
X82763241Y-80250641D01*
X82775813Y-80239246D01*
X82789442Y-80229139D01*
X82803996Y-80220416D01*
X82819334Y-80213161D01*
X82835310Y-80207445D01*
X82851769Y-80203322D01*
X82868553Y-80200833D01*
X82885500Y-80200000D01*
X83281300Y-80200000D01*
X83298247Y-80200833D01*
X83298247Y-80200833D01*
G37*
D12*
X83083400Y-80545800D03*
D13*
X83083400Y-83743800D03*
D14*
X86021400Y-86018800D03*
X86021400Y-85368800D03*
X86021400Y-84718800D03*
X86021400Y-84068800D03*
X86021400Y-83418800D03*
X86021400Y-82768800D03*
X86021400Y-82118800D03*
X86021400Y-81468800D03*
X80145400Y-81468800D03*
X80145400Y-82118800D03*
X80145400Y-82768800D03*
X80145400Y-83418800D03*
X80145400Y-84068800D03*
X80145400Y-84718800D03*
X80145400Y-85368800D03*
X80145400Y-86018800D03*
D13*
X92887800Y-83667600D03*
D14*
X89949800Y-81392600D03*
X89949800Y-82042600D03*
X89949800Y-82692600D03*
X89949800Y-83342600D03*
X89949800Y-83992600D03*
X89949800Y-84642600D03*
X89949800Y-85292600D03*
X89949800Y-85942600D03*
X95825800Y-85942600D03*
X95825800Y-85292600D03*
X95825800Y-84642600D03*
X95825800Y-83992600D03*
X95825800Y-83342600D03*
X95825800Y-82692600D03*
X95825800Y-82042600D03*
X95825800Y-81392600D03*
D15*
X113944400Y-79248000D03*
D16*
X119355200Y-104409000D03*
X119355200Y-102409000D03*
X119355200Y-100409000D03*
X119355200Y-98409000D03*
X119355200Y-96409000D03*
X119355200Y-94409000D03*
X119355200Y-92409000D03*
X119355200Y-90409000D03*
X103555200Y-90409000D03*
X103555200Y-92409000D03*
X103555200Y-94409000D03*
X103555200Y-96409000D03*
X103555200Y-98409000D03*
X103555200Y-100409000D03*
X103555200Y-102409000D03*
X103555200Y-104409000D03*
D15*
X119894400Y-85198000D03*
X119894400Y-79248000D03*
X113944400Y-85198000D03*
D17*
X98463200Y-79134000D03*
X98463200Y-86914000D03*
D18*
X99258200Y-91219000D03*
D19*
X99588200Y-77334000D03*
D20*
X108588200Y-77334000D03*
D18*
X110738200Y-76929000D03*
D21*
X110588200Y-91319000D03*
D22*
X111218200Y-79274000D03*
X111218200Y-80374000D03*
X111218200Y-81474000D03*
X111218200Y-82574000D03*
X111218200Y-83674000D03*
X111218200Y-84774000D03*
X111218200Y-85874000D03*
X111218200Y-86974000D03*
D23*
X81973400Y-95810700D03*
X81973400Y-100810700D03*
D24*
X79273400Y-94810700D03*
X79273400Y-101810700D03*
D11*
G36*
X91083887Y-104521873D02*
G01*
X91100671Y-104524362D01*
X91117130Y-104528485D01*
X91133106Y-104534201D01*
X91148444Y-104541456D01*
X91162998Y-104550179D01*
X91176627Y-104560286D01*
X91189199Y-104571681D01*
X91200594Y-104584253D01*
X91210701Y-104597882D01*
X91219424Y-104612436D01*
X91226679Y-104627774D01*
X91232395Y-104643750D01*
X91236518Y-104660209D01*
X91239007Y-104676993D01*
X91239840Y-104693940D01*
X91239840Y-105089740D01*
X91239007Y-105106687D01*
X91236518Y-105123471D01*
X91232395Y-105139930D01*
X91226679Y-105155906D01*
X91219424Y-105171244D01*
X91210701Y-105185798D01*
X91200594Y-105199427D01*
X91189199Y-105211999D01*
X91176627Y-105223394D01*
X91162998Y-105233501D01*
X91148444Y-105242224D01*
X91133106Y-105249479D01*
X91117130Y-105255195D01*
X91100671Y-105259318D01*
X91083887Y-105261807D01*
X91066940Y-105262640D01*
X90721140Y-105262640D01*
X90704193Y-105261807D01*
X90687409Y-105259318D01*
X90670950Y-105255195D01*
X90654974Y-105249479D01*
X90639636Y-105242224D01*
X90625082Y-105233501D01*
X90611453Y-105223394D01*
X90598881Y-105211999D01*
X90587486Y-105199427D01*
X90577379Y-105185798D01*
X90568656Y-105171244D01*
X90561401Y-105155906D01*
X90555685Y-105139930D01*
X90551562Y-105123471D01*
X90549073Y-105106687D01*
X90548240Y-105089740D01*
X90548240Y-104693940D01*
X90549073Y-104676993D01*
X90551562Y-104660209D01*
X90555685Y-104643750D01*
X90561401Y-104627774D01*
X90568656Y-104612436D01*
X90577379Y-104597882D01*
X90587486Y-104584253D01*
X90598881Y-104571681D01*
X90611453Y-104560286D01*
X90625082Y-104550179D01*
X90639636Y-104541456D01*
X90654974Y-104534201D01*
X90670950Y-104528485D01*
X90687409Y-104524362D01*
X90704193Y-104521873D01*
X90721140Y-104521040D01*
X91066940Y-104521040D01*
X91083887Y-104521873D01*
X91083887Y-104521873D01*
G37*
D12*
X90894040Y-104891840D03*
D11*
G36*
X92053887Y-104521873D02*
G01*
X92070671Y-104524362D01*
X92087130Y-104528485D01*
X92103106Y-104534201D01*
X92118444Y-104541456D01*
X92132998Y-104550179D01*
X92146627Y-104560286D01*
X92159199Y-104571681D01*
X92170594Y-104584253D01*
X92180701Y-104597882D01*
X92189424Y-104612436D01*
X92196679Y-104627774D01*
X92202395Y-104643750D01*
X92206518Y-104660209D01*
X92209007Y-104676993D01*
X92209840Y-104693940D01*
X92209840Y-105089740D01*
X92209007Y-105106687D01*
X92206518Y-105123471D01*
X92202395Y-105139930D01*
X92196679Y-105155906D01*
X92189424Y-105171244D01*
X92180701Y-105185798D01*
X92170594Y-105199427D01*
X92159199Y-105211999D01*
X92146627Y-105223394D01*
X92132998Y-105233501D01*
X92118444Y-105242224D01*
X92103106Y-105249479D01*
X92087130Y-105255195D01*
X92070671Y-105259318D01*
X92053887Y-105261807D01*
X92036940Y-105262640D01*
X91691140Y-105262640D01*
X91674193Y-105261807D01*
X91657409Y-105259318D01*
X91640950Y-105255195D01*
X91624974Y-105249479D01*
X91609636Y-105242224D01*
X91595082Y-105233501D01*
X91581453Y-105223394D01*
X91568881Y-105211999D01*
X91557486Y-105199427D01*
X91547379Y-105185798D01*
X91538656Y-105171244D01*
X91531401Y-105155906D01*
X91525685Y-105139930D01*
X91521562Y-105123471D01*
X91519073Y-105106687D01*
X91518240Y-105089740D01*
X91518240Y-104693940D01*
X91519073Y-104676993D01*
X91521562Y-104660209D01*
X91525685Y-104643750D01*
X91531401Y-104627774D01*
X91538656Y-104612436D01*
X91547379Y-104597882D01*
X91557486Y-104584253D01*
X91568881Y-104571681D01*
X91581453Y-104560286D01*
X91595082Y-104550179D01*
X91609636Y-104541456D01*
X91624974Y-104534201D01*
X91640950Y-104528485D01*
X91657409Y-104524362D01*
X91674193Y-104521873D01*
X91691140Y-104521040D01*
X92036940Y-104521040D01*
X92053887Y-104521873D01*
X92053887Y-104521873D01*
G37*
D12*
X91864040Y-104891840D03*
D11*
G36*
X93178847Y-80277033D02*
G01*
X93195631Y-80279522D01*
X93212090Y-80283645D01*
X93228066Y-80289361D01*
X93243404Y-80296616D01*
X93257958Y-80305339D01*
X93271587Y-80315446D01*
X93284159Y-80326841D01*
X93295554Y-80339413D01*
X93305661Y-80353042D01*
X93314384Y-80367596D01*
X93321639Y-80382934D01*
X93327355Y-80398910D01*
X93331478Y-80415369D01*
X93333967Y-80432153D01*
X93334800Y-80449100D01*
X93334800Y-80794900D01*
X93333967Y-80811847D01*
X93331478Y-80828631D01*
X93327355Y-80845090D01*
X93321639Y-80861066D01*
X93314384Y-80876404D01*
X93305661Y-80890958D01*
X93295554Y-80904587D01*
X93284159Y-80917159D01*
X93271587Y-80928554D01*
X93257958Y-80938661D01*
X93243404Y-80947384D01*
X93228066Y-80954639D01*
X93212090Y-80960355D01*
X93195631Y-80964478D01*
X93178847Y-80966967D01*
X93161900Y-80967800D01*
X92766100Y-80967800D01*
X92749153Y-80966967D01*
X92732369Y-80964478D01*
X92715910Y-80960355D01*
X92699934Y-80954639D01*
X92684596Y-80947384D01*
X92670042Y-80938661D01*
X92656413Y-80928554D01*
X92643841Y-80917159D01*
X92632446Y-80904587D01*
X92622339Y-80890958D01*
X92613616Y-80876404D01*
X92606361Y-80861066D01*
X92600645Y-80845090D01*
X92596522Y-80828631D01*
X92594033Y-80811847D01*
X92593200Y-80794900D01*
X92593200Y-80449100D01*
X92594033Y-80432153D01*
X92596522Y-80415369D01*
X92600645Y-80398910D01*
X92606361Y-80382934D01*
X92613616Y-80367596D01*
X92622339Y-80353042D01*
X92632446Y-80339413D01*
X92643841Y-80326841D01*
X92656413Y-80315446D01*
X92670042Y-80305339D01*
X92684596Y-80296616D01*
X92699934Y-80289361D01*
X92715910Y-80283645D01*
X92732369Y-80279522D01*
X92749153Y-80277033D01*
X92766100Y-80276200D01*
X93161900Y-80276200D01*
X93178847Y-80277033D01*
X93178847Y-80277033D01*
G37*
D12*
X92964000Y-80622000D03*
D11*
G36*
X93178847Y-79307033D02*
G01*
X93195631Y-79309522D01*
X93212090Y-79313645D01*
X93228066Y-79319361D01*
X93243404Y-79326616D01*
X93257958Y-79335339D01*
X93271587Y-79345446D01*
X93284159Y-79356841D01*
X93295554Y-79369413D01*
X93305661Y-79383042D01*
X93314384Y-79397596D01*
X93321639Y-79412934D01*
X93327355Y-79428910D01*
X93331478Y-79445369D01*
X93333967Y-79462153D01*
X93334800Y-79479100D01*
X93334800Y-79824900D01*
X93333967Y-79841847D01*
X93331478Y-79858631D01*
X93327355Y-79875090D01*
X93321639Y-79891066D01*
X93314384Y-79906404D01*
X93305661Y-79920958D01*
X93295554Y-79934587D01*
X93284159Y-79947159D01*
X93271587Y-79958554D01*
X93257958Y-79968661D01*
X93243404Y-79977384D01*
X93228066Y-79984639D01*
X93212090Y-79990355D01*
X93195631Y-79994478D01*
X93178847Y-79996967D01*
X93161900Y-79997800D01*
X92766100Y-79997800D01*
X92749153Y-79996967D01*
X92732369Y-79994478D01*
X92715910Y-79990355D01*
X92699934Y-79984639D01*
X92684596Y-79977384D01*
X92670042Y-79968661D01*
X92656413Y-79958554D01*
X92643841Y-79947159D01*
X92632446Y-79934587D01*
X92622339Y-79920958D01*
X92613616Y-79906404D01*
X92606361Y-79891066D01*
X92600645Y-79875090D01*
X92596522Y-79858631D01*
X92594033Y-79841847D01*
X92593200Y-79824900D01*
X92593200Y-79479100D01*
X92594033Y-79462153D01*
X92596522Y-79445369D01*
X92600645Y-79428910D01*
X92606361Y-79412934D01*
X92613616Y-79397596D01*
X92622339Y-79383042D01*
X92632446Y-79369413D01*
X92643841Y-79356841D01*
X92656413Y-79345446D01*
X92670042Y-79335339D01*
X92684596Y-79326616D01*
X92699934Y-79319361D01*
X92715910Y-79313645D01*
X92732369Y-79309522D01*
X92749153Y-79307033D01*
X92766100Y-79306200D01*
X93161900Y-79306200D01*
X93178847Y-79307033D01*
X93178847Y-79307033D01*
G37*
D12*
X92964000Y-79652000D03*
D11*
G36*
X94296447Y-79309433D02*
G01*
X94313231Y-79311922D01*
X94329690Y-79316045D01*
X94345666Y-79321761D01*
X94361004Y-79329016D01*
X94375558Y-79337739D01*
X94389187Y-79347846D01*
X94401759Y-79359241D01*
X94413154Y-79371813D01*
X94423261Y-79385442D01*
X94431984Y-79399996D01*
X94439239Y-79415334D01*
X94444955Y-79431310D01*
X94449078Y-79447769D01*
X94451567Y-79464553D01*
X94452400Y-79481500D01*
X94452400Y-79827300D01*
X94451567Y-79844247D01*
X94449078Y-79861031D01*
X94444955Y-79877490D01*
X94439239Y-79893466D01*
X94431984Y-79908804D01*
X94423261Y-79923358D01*
X94413154Y-79936987D01*
X94401759Y-79949559D01*
X94389187Y-79960954D01*
X94375558Y-79971061D01*
X94361004Y-79979784D01*
X94345666Y-79987039D01*
X94329690Y-79992755D01*
X94313231Y-79996878D01*
X94296447Y-79999367D01*
X94279500Y-80000200D01*
X93883700Y-80000200D01*
X93866753Y-79999367D01*
X93849969Y-79996878D01*
X93833510Y-79992755D01*
X93817534Y-79987039D01*
X93802196Y-79979784D01*
X93787642Y-79971061D01*
X93774013Y-79960954D01*
X93761441Y-79949559D01*
X93750046Y-79936987D01*
X93739939Y-79923358D01*
X93731216Y-79908804D01*
X93723961Y-79893466D01*
X93718245Y-79877490D01*
X93714122Y-79861031D01*
X93711633Y-79844247D01*
X93710800Y-79827300D01*
X93710800Y-79481500D01*
X93711633Y-79464553D01*
X93714122Y-79447769D01*
X93718245Y-79431310D01*
X93723961Y-79415334D01*
X93731216Y-79399996D01*
X93739939Y-79385442D01*
X93750046Y-79371813D01*
X93761441Y-79359241D01*
X93774013Y-79347846D01*
X93787642Y-79337739D01*
X93802196Y-79329016D01*
X93817534Y-79321761D01*
X93833510Y-79316045D01*
X93849969Y-79311922D01*
X93866753Y-79309433D01*
X93883700Y-79308600D01*
X94279500Y-79308600D01*
X94296447Y-79309433D01*
X94296447Y-79309433D01*
G37*
D12*
X94081600Y-79654400D03*
D11*
G36*
X94296447Y-80279433D02*
G01*
X94313231Y-80281922D01*
X94329690Y-80286045D01*
X94345666Y-80291761D01*
X94361004Y-80299016D01*
X94375558Y-80307739D01*
X94389187Y-80317846D01*
X94401759Y-80329241D01*
X94413154Y-80341813D01*
X94423261Y-80355442D01*
X94431984Y-80369996D01*
X94439239Y-80385334D01*
X94444955Y-80401310D01*
X94449078Y-80417769D01*
X94451567Y-80434553D01*
X94452400Y-80451500D01*
X94452400Y-80797300D01*
X94451567Y-80814247D01*
X94449078Y-80831031D01*
X94444955Y-80847490D01*
X94439239Y-80863466D01*
X94431984Y-80878804D01*
X94423261Y-80893358D01*
X94413154Y-80906987D01*
X94401759Y-80919559D01*
X94389187Y-80930954D01*
X94375558Y-80941061D01*
X94361004Y-80949784D01*
X94345666Y-80957039D01*
X94329690Y-80962755D01*
X94313231Y-80966878D01*
X94296447Y-80969367D01*
X94279500Y-80970200D01*
X93883700Y-80970200D01*
X93866753Y-80969367D01*
X93849969Y-80966878D01*
X93833510Y-80962755D01*
X93817534Y-80957039D01*
X93802196Y-80949784D01*
X93787642Y-80941061D01*
X93774013Y-80930954D01*
X93761441Y-80919559D01*
X93750046Y-80906987D01*
X93739939Y-80893358D01*
X93731216Y-80878804D01*
X93723961Y-80863466D01*
X93718245Y-80847490D01*
X93714122Y-80831031D01*
X93711633Y-80814247D01*
X93710800Y-80797300D01*
X93710800Y-80451500D01*
X93711633Y-80434553D01*
X93714122Y-80417769D01*
X93718245Y-80401310D01*
X93723961Y-80385334D01*
X93731216Y-80369996D01*
X93739939Y-80355442D01*
X93750046Y-80341813D01*
X93761441Y-80329241D01*
X93774013Y-80317846D01*
X93787642Y-80307739D01*
X93802196Y-80299016D01*
X93817534Y-80291761D01*
X93833510Y-80286045D01*
X93849969Y-80281922D01*
X93866753Y-80279433D01*
X93883700Y-80278600D01*
X94279500Y-80278600D01*
X94296447Y-80279433D01*
X94296447Y-80279433D01*
G37*
D12*
X94081600Y-80624400D03*
D11*
G36*
X92061247Y-79307033D02*
G01*
X92078031Y-79309522D01*
X92094490Y-79313645D01*
X92110466Y-79319361D01*
X92125804Y-79326616D01*
X92140358Y-79335339D01*
X92153987Y-79345446D01*
X92166559Y-79356841D01*
X92177954Y-79369413D01*
X92188061Y-79383042D01*
X92196784Y-79397596D01*
X92204039Y-79412934D01*
X92209755Y-79428910D01*
X92213878Y-79445369D01*
X92216367Y-79462153D01*
X92217200Y-79479100D01*
X92217200Y-79824900D01*
X92216367Y-79841847D01*
X92213878Y-79858631D01*
X92209755Y-79875090D01*
X92204039Y-79891066D01*
X92196784Y-79906404D01*
X92188061Y-79920958D01*
X92177954Y-79934587D01*
X92166559Y-79947159D01*
X92153987Y-79958554D01*
X92140358Y-79968661D01*
X92125804Y-79977384D01*
X92110466Y-79984639D01*
X92094490Y-79990355D01*
X92078031Y-79994478D01*
X92061247Y-79996967D01*
X92044300Y-79997800D01*
X91648500Y-79997800D01*
X91631553Y-79996967D01*
X91614769Y-79994478D01*
X91598310Y-79990355D01*
X91582334Y-79984639D01*
X91566996Y-79977384D01*
X91552442Y-79968661D01*
X91538813Y-79958554D01*
X91526241Y-79947159D01*
X91514846Y-79934587D01*
X91504739Y-79920958D01*
X91496016Y-79906404D01*
X91488761Y-79891066D01*
X91483045Y-79875090D01*
X91478922Y-79858631D01*
X91476433Y-79841847D01*
X91475600Y-79824900D01*
X91475600Y-79479100D01*
X91476433Y-79462153D01*
X91478922Y-79445369D01*
X91483045Y-79428910D01*
X91488761Y-79412934D01*
X91496016Y-79397596D01*
X91504739Y-79383042D01*
X91514846Y-79369413D01*
X91526241Y-79356841D01*
X91538813Y-79345446D01*
X91552442Y-79335339D01*
X91566996Y-79326616D01*
X91582334Y-79319361D01*
X91598310Y-79313645D01*
X91614769Y-79309522D01*
X91631553Y-79307033D01*
X91648500Y-79306200D01*
X92044300Y-79306200D01*
X92061247Y-79307033D01*
X92061247Y-79307033D01*
G37*
D12*
X91846400Y-79652000D03*
D11*
G36*
X92061247Y-80277033D02*
G01*
X92078031Y-80279522D01*
X92094490Y-80283645D01*
X92110466Y-80289361D01*
X92125804Y-80296616D01*
X92140358Y-80305339D01*
X92153987Y-80315446D01*
X92166559Y-80326841D01*
X92177954Y-80339413D01*
X92188061Y-80353042D01*
X92196784Y-80367596D01*
X92204039Y-80382934D01*
X92209755Y-80398910D01*
X92213878Y-80415369D01*
X92216367Y-80432153D01*
X92217200Y-80449100D01*
X92217200Y-80794900D01*
X92216367Y-80811847D01*
X92213878Y-80828631D01*
X92209755Y-80845090D01*
X92204039Y-80861066D01*
X92196784Y-80876404D01*
X92188061Y-80890958D01*
X92177954Y-80904587D01*
X92166559Y-80917159D01*
X92153987Y-80928554D01*
X92140358Y-80938661D01*
X92125804Y-80947384D01*
X92110466Y-80954639D01*
X92094490Y-80960355D01*
X92078031Y-80964478D01*
X92061247Y-80966967D01*
X92044300Y-80967800D01*
X91648500Y-80967800D01*
X91631553Y-80966967D01*
X91614769Y-80964478D01*
X91598310Y-80960355D01*
X91582334Y-80954639D01*
X91566996Y-80947384D01*
X91552442Y-80938661D01*
X91538813Y-80928554D01*
X91526241Y-80917159D01*
X91514846Y-80904587D01*
X91504739Y-80890958D01*
X91496016Y-80876404D01*
X91488761Y-80861066D01*
X91483045Y-80845090D01*
X91478922Y-80828631D01*
X91476433Y-80811847D01*
X91475600Y-80794900D01*
X91475600Y-80449100D01*
X91476433Y-80432153D01*
X91478922Y-80415369D01*
X91483045Y-80398910D01*
X91488761Y-80382934D01*
X91496016Y-80367596D01*
X91504739Y-80353042D01*
X91514846Y-80339413D01*
X91526241Y-80326841D01*
X91538813Y-80315446D01*
X91552442Y-80305339D01*
X91566996Y-80296616D01*
X91582334Y-80289361D01*
X91598310Y-80283645D01*
X91614769Y-80279522D01*
X91631553Y-80277033D01*
X91648500Y-80276200D01*
X92044300Y-80276200D01*
X92061247Y-80277033D01*
X92061247Y-80277033D01*
G37*
D12*
X91846400Y-80622000D03*
D11*
G36*
X84695247Y-80200833D02*
G01*
X84712031Y-80203322D01*
X84728490Y-80207445D01*
X84744466Y-80213161D01*
X84759804Y-80220416D01*
X84774358Y-80229139D01*
X84787987Y-80239246D01*
X84800559Y-80250641D01*
X84811954Y-80263213D01*
X84822061Y-80276842D01*
X84830784Y-80291396D01*
X84838039Y-80306734D01*
X84843755Y-80322710D01*
X84847878Y-80339169D01*
X84850367Y-80355953D01*
X84851200Y-80372900D01*
X84851200Y-80718700D01*
X84850367Y-80735647D01*
X84847878Y-80752431D01*
X84843755Y-80768890D01*
X84838039Y-80784866D01*
X84830784Y-80800204D01*
X84822061Y-80814758D01*
X84811954Y-80828387D01*
X84800559Y-80840959D01*
X84787987Y-80852354D01*
X84774358Y-80862461D01*
X84759804Y-80871184D01*
X84744466Y-80878439D01*
X84728490Y-80884155D01*
X84712031Y-80888278D01*
X84695247Y-80890767D01*
X84678300Y-80891600D01*
X84282500Y-80891600D01*
X84265553Y-80890767D01*
X84248769Y-80888278D01*
X84232310Y-80884155D01*
X84216334Y-80878439D01*
X84200996Y-80871184D01*
X84186442Y-80862461D01*
X84172813Y-80852354D01*
X84160241Y-80840959D01*
X84148846Y-80828387D01*
X84138739Y-80814758D01*
X84130016Y-80800204D01*
X84122761Y-80784866D01*
X84117045Y-80768890D01*
X84112922Y-80752431D01*
X84110433Y-80735647D01*
X84109600Y-80718700D01*
X84109600Y-80372900D01*
X84110433Y-80355953D01*
X84112922Y-80339169D01*
X84117045Y-80322710D01*
X84122761Y-80306734D01*
X84130016Y-80291396D01*
X84138739Y-80276842D01*
X84148846Y-80263213D01*
X84160241Y-80250641D01*
X84172813Y-80239246D01*
X84186442Y-80229139D01*
X84200996Y-80220416D01*
X84216334Y-80213161D01*
X84232310Y-80207445D01*
X84248769Y-80203322D01*
X84265553Y-80200833D01*
X84282500Y-80200000D01*
X84678300Y-80200000D01*
X84695247Y-80200833D01*
X84695247Y-80200833D01*
G37*
D12*
X84480400Y-80545800D03*
D11*
G36*
X84695247Y-79230833D02*
G01*
X84712031Y-79233322D01*
X84728490Y-79237445D01*
X84744466Y-79243161D01*
X84759804Y-79250416D01*
X84774358Y-79259139D01*
X84787987Y-79269246D01*
X84800559Y-79280641D01*
X84811954Y-79293213D01*
X84822061Y-79306842D01*
X84830784Y-79321396D01*
X84838039Y-79336734D01*
X84843755Y-79352710D01*
X84847878Y-79369169D01*
X84850367Y-79385953D01*
X84851200Y-79402900D01*
X84851200Y-79748700D01*
X84850367Y-79765647D01*
X84847878Y-79782431D01*
X84843755Y-79798890D01*
X84838039Y-79814866D01*
X84830784Y-79830204D01*
X84822061Y-79844758D01*
X84811954Y-79858387D01*
X84800559Y-79870959D01*
X84787987Y-79882354D01*
X84774358Y-79892461D01*
X84759804Y-79901184D01*
X84744466Y-79908439D01*
X84728490Y-79914155D01*
X84712031Y-79918278D01*
X84695247Y-79920767D01*
X84678300Y-79921600D01*
X84282500Y-79921600D01*
X84265553Y-79920767D01*
X84248769Y-79918278D01*
X84232310Y-79914155D01*
X84216334Y-79908439D01*
X84200996Y-79901184D01*
X84186442Y-79892461D01*
X84172813Y-79882354D01*
X84160241Y-79870959D01*
X84148846Y-79858387D01*
X84138739Y-79844758D01*
X84130016Y-79830204D01*
X84122761Y-79814866D01*
X84117045Y-79798890D01*
X84112922Y-79782431D01*
X84110433Y-79765647D01*
X84109600Y-79748700D01*
X84109600Y-79402900D01*
X84110433Y-79385953D01*
X84112922Y-79369169D01*
X84117045Y-79352710D01*
X84122761Y-79336734D01*
X84130016Y-79321396D01*
X84138739Y-79306842D01*
X84148846Y-79293213D01*
X84160241Y-79280641D01*
X84172813Y-79269246D01*
X84186442Y-79259139D01*
X84200996Y-79250416D01*
X84216334Y-79243161D01*
X84232310Y-79237445D01*
X84248769Y-79233322D01*
X84265553Y-79230833D01*
X84282500Y-79230000D01*
X84678300Y-79230000D01*
X84695247Y-79230833D01*
X84695247Y-79230833D01*
G37*
D12*
X84480400Y-79575800D03*
D11*
G36*
X81952047Y-79230833D02*
G01*
X81968831Y-79233322D01*
X81985290Y-79237445D01*
X82001266Y-79243161D01*
X82016604Y-79250416D01*
X82031158Y-79259139D01*
X82044787Y-79269246D01*
X82057359Y-79280641D01*
X82068754Y-79293213D01*
X82078861Y-79306842D01*
X82087584Y-79321396D01*
X82094839Y-79336734D01*
X82100555Y-79352710D01*
X82104678Y-79369169D01*
X82107167Y-79385953D01*
X82108000Y-79402900D01*
X82108000Y-79748700D01*
X82107167Y-79765647D01*
X82104678Y-79782431D01*
X82100555Y-79798890D01*
X82094839Y-79814866D01*
X82087584Y-79830204D01*
X82078861Y-79844758D01*
X82068754Y-79858387D01*
X82057359Y-79870959D01*
X82044787Y-79882354D01*
X82031158Y-79892461D01*
X82016604Y-79901184D01*
X82001266Y-79908439D01*
X81985290Y-79914155D01*
X81968831Y-79918278D01*
X81952047Y-79920767D01*
X81935100Y-79921600D01*
X81539300Y-79921600D01*
X81522353Y-79920767D01*
X81505569Y-79918278D01*
X81489110Y-79914155D01*
X81473134Y-79908439D01*
X81457796Y-79901184D01*
X81443242Y-79892461D01*
X81429613Y-79882354D01*
X81417041Y-79870959D01*
X81405646Y-79858387D01*
X81395539Y-79844758D01*
X81386816Y-79830204D01*
X81379561Y-79814866D01*
X81373845Y-79798890D01*
X81369722Y-79782431D01*
X81367233Y-79765647D01*
X81366400Y-79748700D01*
X81366400Y-79402900D01*
X81367233Y-79385953D01*
X81369722Y-79369169D01*
X81373845Y-79352710D01*
X81379561Y-79336734D01*
X81386816Y-79321396D01*
X81395539Y-79306842D01*
X81405646Y-79293213D01*
X81417041Y-79280641D01*
X81429613Y-79269246D01*
X81443242Y-79259139D01*
X81457796Y-79250416D01*
X81473134Y-79243161D01*
X81489110Y-79237445D01*
X81505569Y-79233322D01*
X81522353Y-79230833D01*
X81539300Y-79230000D01*
X81935100Y-79230000D01*
X81952047Y-79230833D01*
X81952047Y-79230833D01*
G37*
D12*
X81737200Y-79575800D03*
D11*
G36*
X81952047Y-80200833D02*
G01*
X81968831Y-80203322D01*
X81985290Y-80207445D01*
X82001266Y-80213161D01*
X82016604Y-80220416D01*
X82031158Y-80229139D01*
X82044787Y-80239246D01*
X82057359Y-80250641D01*
X82068754Y-80263213D01*
X82078861Y-80276842D01*
X82087584Y-80291396D01*
X82094839Y-80306734D01*
X82100555Y-80322710D01*
X82104678Y-80339169D01*
X82107167Y-80355953D01*
X82108000Y-80372900D01*
X82108000Y-80718700D01*
X82107167Y-80735647D01*
X82104678Y-80752431D01*
X82100555Y-80768890D01*
X82094839Y-80784866D01*
X82087584Y-80800204D01*
X82078861Y-80814758D01*
X82068754Y-80828387D01*
X82057359Y-80840959D01*
X82044787Y-80852354D01*
X82031158Y-80862461D01*
X82016604Y-80871184D01*
X82001266Y-80878439D01*
X81985290Y-80884155D01*
X81968831Y-80888278D01*
X81952047Y-80890767D01*
X81935100Y-80891600D01*
X81539300Y-80891600D01*
X81522353Y-80890767D01*
X81505569Y-80888278D01*
X81489110Y-80884155D01*
X81473134Y-80878439D01*
X81457796Y-80871184D01*
X81443242Y-80862461D01*
X81429613Y-80852354D01*
X81417041Y-80840959D01*
X81405646Y-80828387D01*
X81395539Y-80814758D01*
X81386816Y-80800204D01*
X81379561Y-80784866D01*
X81373845Y-80768890D01*
X81369722Y-80752431D01*
X81367233Y-80735647D01*
X81366400Y-80718700D01*
X81366400Y-80372900D01*
X81367233Y-80355953D01*
X81369722Y-80339169D01*
X81373845Y-80322710D01*
X81379561Y-80306734D01*
X81386816Y-80291396D01*
X81395539Y-80276842D01*
X81405646Y-80263213D01*
X81417041Y-80250641D01*
X81429613Y-80239246D01*
X81443242Y-80229139D01*
X81457796Y-80220416D01*
X81473134Y-80213161D01*
X81489110Y-80207445D01*
X81505569Y-80203322D01*
X81522353Y-80200833D01*
X81539300Y-80200000D01*
X81935100Y-80200000D01*
X81952047Y-80200833D01*
X81952047Y-80200833D01*
G37*
D12*
X81737200Y-80545800D03*
M02*
