%TF.GenerationSoftware,KiCad,Pcbnew,5.0.2-bee76a0~70~ubuntu18.04.1*%
%TF.CreationDate,2020-02-29T17:46:36-08:00*%
%TF.ProjectId,mainboard,6d61696e-626f-4617-9264-2e6b69636164,rev?*%
%TF.SameCoordinates,Original*%
%TF.FileFunction,Paste,Bot*%
%TF.FilePolarity,Positive*%
%FSLAX46Y46*%
G04 Gerber Fmt 4.6, Leading zero omitted, Abs format (unit mm)*
G04 Created by KiCad (PCBNEW 5.0.2-bee76a0~70~ubuntu18.04.1) date Sat 29 Feb 2020 05:46:36 PM PST*
%MOMM*%
%LPD*%
G01*
G04 APERTURE LIST*
%ADD10C,0.150000*%
%ADD11R,1.500000X1.700000*%
%ADD12R,1.100000X0.250000*%
%ADD13C,0.100000*%
%ADD14C,0.590000*%
%ADD15R,1.500000X1.000000*%
%ADD16R,1.050000X1.050000*%
%ADD17R,2.250000X1.050000*%
%ADD18R,1.800000X1.000000*%
%ADD19C,0.600000*%
%ADD20R,1.150000X1.500000*%
%ADD21R,2.200000X1.150000*%
%ADD22R,1.200000X1.160000*%
%ADD23R,1.250000X1.160000*%
%ADD24R,2.500000X0.950000*%
%ADD25R,1.240000X0.800000*%
%ADD26C,0.975000*%
%ADD27R,0.650000X1.060000*%
G04 APERTURE END LIST*
D10*
X120902460Y-74415942D02*
X120102459Y-74415941D01*
X85102460Y-74415941D02*
G75*
G02X84602460Y-73915941I0J500000D01*
G01*
X113602459Y-73915941D02*
G75*
G02X113102459Y-74415941I-500000J0D01*
G01*
X113102459Y-107215941D02*
G75*
G02X113602459Y-107715941I0J-500000D01*
G01*
X84602460Y-107715941D02*
G75*
G02X85102460Y-107215941I500000J0D01*
G01*
X77340460Y-91475941D02*
X76502460Y-92313941D01*
X77340460Y-98555940D02*
X76502460Y-97790000D01*
X120102460Y-72915941D02*
X113602460Y-72915941D01*
X113602459Y-107715941D02*
X113602460Y-108715941D01*
X85102460Y-107215941D02*
X113102459Y-107215941D01*
X84602460Y-108715941D02*
X84602460Y-107715941D01*
X113602460Y-108715941D02*
X120102459Y-108715940D01*
X113102459Y-74415941D02*
X93872460Y-74415941D01*
X113602460Y-72915941D02*
X113602459Y-73915941D01*
X78102460Y-72915941D02*
X78102460Y-74415941D01*
X93872460Y-74415941D02*
X93872460Y-75565000D01*
X93872460Y-75565000D02*
X89872460Y-75565000D01*
X78102460Y-74415941D02*
X77340460Y-74415941D01*
X77340460Y-74415941D02*
X77340460Y-91475941D01*
X120102460Y-107215940D02*
X120902460Y-107215940D01*
X120102459Y-74415941D02*
X120102460Y-72915941D01*
X89872460Y-75565000D02*
X89872460Y-74415941D01*
X84602460Y-72915941D02*
X78102460Y-72915941D01*
X84602460Y-73915941D02*
X84602460Y-72915941D01*
X89872460Y-74415941D02*
X85102460Y-74415941D01*
X76502460Y-92313941D02*
X76502460Y-97790000D01*
X120902460Y-107215940D02*
X120902460Y-74415942D01*
X78102460Y-107215940D02*
X78102460Y-108715940D01*
X120102459Y-108715940D02*
X120102460Y-107215940D01*
X77340460Y-98555940D02*
X77340460Y-107215940D01*
X78102460Y-108715940D02*
X84602460Y-108715941D01*
X77340460Y-107215940D02*
X78102460Y-107215940D01*
D11*
X79810780Y-77611260D03*
X79810780Y-92411260D03*
D12*
X83710780Y-79261260D03*
X83710780Y-79761260D03*
X83710780Y-80261260D03*
X83710780Y-80761260D03*
X83710780Y-81261260D03*
X83710780Y-81761260D03*
X83710780Y-82261260D03*
X83710780Y-82761260D03*
X83710780Y-83261260D03*
X83710780Y-83761260D03*
X83710780Y-84261260D03*
X83710780Y-84761260D03*
X83710780Y-85261260D03*
X83710780Y-85761260D03*
X83710780Y-86261260D03*
X83710780Y-86761260D03*
X83710780Y-87261260D03*
X83710780Y-87761260D03*
X83710780Y-88261260D03*
X83710780Y-88761260D03*
X83710780Y-89261260D03*
X83710780Y-89761260D03*
X83710780Y-90261260D03*
X83710780Y-90761260D03*
D13*
G36*
X87186958Y-81235710D02*
X87201276Y-81237834D01*
X87215317Y-81241351D01*
X87228946Y-81246228D01*
X87242031Y-81252417D01*
X87254447Y-81259858D01*
X87266073Y-81268481D01*
X87276798Y-81278202D01*
X87286519Y-81288927D01*
X87295142Y-81300553D01*
X87302583Y-81312969D01*
X87308772Y-81326054D01*
X87313649Y-81339683D01*
X87317166Y-81353724D01*
X87319290Y-81368042D01*
X87320000Y-81382500D01*
X87320000Y-81677500D01*
X87319290Y-81691958D01*
X87317166Y-81706276D01*
X87313649Y-81720317D01*
X87308772Y-81733946D01*
X87302583Y-81747031D01*
X87295142Y-81759447D01*
X87286519Y-81771073D01*
X87276798Y-81781798D01*
X87266073Y-81791519D01*
X87254447Y-81800142D01*
X87242031Y-81807583D01*
X87228946Y-81813772D01*
X87215317Y-81818649D01*
X87201276Y-81822166D01*
X87186958Y-81824290D01*
X87172500Y-81825000D01*
X86827500Y-81825000D01*
X86813042Y-81824290D01*
X86798724Y-81822166D01*
X86784683Y-81818649D01*
X86771054Y-81813772D01*
X86757969Y-81807583D01*
X86745553Y-81800142D01*
X86733927Y-81791519D01*
X86723202Y-81781798D01*
X86713481Y-81771073D01*
X86704858Y-81759447D01*
X86697417Y-81747031D01*
X86691228Y-81733946D01*
X86686351Y-81720317D01*
X86682834Y-81706276D01*
X86680710Y-81691958D01*
X86680000Y-81677500D01*
X86680000Y-81382500D01*
X86680710Y-81368042D01*
X86682834Y-81353724D01*
X86686351Y-81339683D01*
X86691228Y-81326054D01*
X86697417Y-81312969D01*
X86704858Y-81300553D01*
X86713481Y-81288927D01*
X86723202Y-81278202D01*
X86733927Y-81268481D01*
X86745553Y-81259858D01*
X86757969Y-81252417D01*
X86771054Y-81246228D01*
X86784683Y-81241351D01*
X86798724Y-81237834D01*
X86813042Y-81235710D01*
X86827500Y-81235000D01*
X87172500Y-81235000D01*
X87186958Y-81235710D01*
X87186958Y-81235710D01*
G37*
D14*
X87000000Y-81530000D03*
D13*
G36*
X87186958Y-82205710D02*
X87201276Y-82207834D01*
X87215317Y-82211351D01*
X87228946Y-82216228D01*
X87242031Y-82222417D01*
X87254447Y-82229858D01*
X87266073Y-82238481D01*
X87276798Y-82248202D01*
X87286519Y-82258927D01*
X87295142Y-82270553D01*
X87302583Y-82282969D01*
X87308772Y-82296054D01*
X87313649Y-82309683D01*
X87317166Y-82323724D01*
X87319290Y-82338042D01*
X87320000Y-82352500D01*
X87320000Y-82647500D01*
X87319290Y-82661958D01*
X87317166Y-82676276D01*
X87313649Y-82690317D01*
X87308772Y-82703946D01*
X87302583Y-82717031D01*
X87295142Y-82729447D01*
X87286519Y-82741073D01*
X87276798Y-82751798D01*
X87266073Y-82761519D01*
X87254447Y-82770142D01*
X87242031Y-82777583D01*
X87228946Y-82783772D01*
X87215317Y-82788649D01*
X87201276Y-82792166D01*
X87186958Y-82794290D01*
X87172500Y-82795000D01*
X86827500Y-82795000D01*
X86813042Y-82794290D01*
X86798724Y-82792166D01*
X86784683Y-82788649D01*
X86771054Y-82783772D01*
X86757969Y-82777583D01*
X86745553Y-82770142D01*
X86733927Y-82761519D01*
X86723202Y-82751798D01*
X86713481Y-82741073D01*
X86704858Y-82729447D01*
X86697417Y-82717031D01*
X86691228Y-82703946D01*
X86686351Y-82690317D01*
X86682834Y-82676276D01*
X86680710Y-82661958D01*
X86680000Y-82647500D01*
X86680000Y-82352500D01*
X86680710Y-82338042D01*
X86682834Y-82323724D01*
X86686351Y-82309683D01*
X86691228Y-82296054D01*
X86697417Y-82282969D01*
X86704858Y-82270553D01*
X86713481Y-82258927D01*
X86723202Y-82248202D01*
X86733927Y-82238481D01*
X86745553Y-82229858D01*
X86757969Y-82222417D01*
X86771054Y-82216228D01*
X86784683Y-82211351D01*
X86798724Y-82207834D01*
X86813042Y-82205710D01*
X86827500Y-82205000D01*
X87172500Y-82205000D01*
X87186958Y-82205710D01*
X87186958Y-82205710D01*
G37*
D14*
X87000000Y-82500000D03*
D13*
G36*
X87186958Y-85470710D02*
X87201276Y-85472834D01*
X87215317Y-85476351D01*
X87228946Y-85481228D01*
X87242031Y-85487417D01*
X87254447Y-85494858D01*
X87266073Y-85503481D01*
X87276798Y-85513202D01*
X87286519Y-85523927D01*
X87295142Y-85535553D01*
X87302583Y-85547969D01*
X87308772Y-85561054D01*
X87313649Y-85574683D01*
X87317166Y-85588724D01*
X87319290Y-85603042D01*
X87320000Y-85617500D01*
X87320000Y-85912500D01*
X87319290Y-85926958D01*
X87317166Y-85941276D01*
X87313649Y-85955317D01*
X87308772Y-85968946D01*
X87302583Y-85982031D01*
X87295142Y-85994447D01*
X87286519Y-86006073D01*
X87276798Y-86016798D01*
X87266073Y-86026519D01*
X87254447Y-86035142D01*
X87242031Y-86042583D01*
X87228946Y-86048772D01*
X87215317Y-86053649D01*
X87201276Y-86057166D01*
X87186958Y-86059290D01*
X87172500Y-86060000D01*
X86827500Y-86060000D01*
X86813042Y-86059290D01*
X86798724Y-86057166D01*
X86784683Y-86053649D01*
X86771054Y-86048772D01*
X86757969Y-86042583D01*
X86745553Y-86035142D01*
X86733927Y-86026519D01*
X86723202Y-86016798D01*
X86713481Y-86006073D01*
X86704858Y-85994447D01*
X86697417Y-85982031D01*
X86691228Y-85968946D01*
X86686351Y-85955317D01*
X86682834Y-85941276D01*
X86680710Y-85926958D01*
X86680000Y-85912500D01*
X86680000Y-85617500D01*
X86680710Y-85603042D01*
X86682834Y-85588724D01*
X86686351Y-85574683D01*
X86691228Y-85561054D01*
X86697417Y-85547969D01*
X86704858Y-85535553D01*
X86713481Y-85523927D01*
X86723202Y-85513202D01*
X86733927Y-85503481D01*
X86745553Y-85494858D01*
X86757969Y-85487417D01*
X86771054Y-85481228D01*
X86784683Y-85476351D01*
X86798724Y-85472834D01*
X86813042Y-85470710D01*
X86827500Y-85470000D01*
X87172500Y-85470000D01*
X87186958Y-85470710D01*
X87186958Y-85470710D01*
G37*
D14*
X87000000Y-85765000D03*
D13*
G36*
X87186958Y-86440710D02*
X87201276Y-86442834D01*
X87215317Y-86446351D01*
X87228946Y-86451228D01*
X87242031Y-86457417D01*
X87254447Y-86464858D01*
X87266073Y-86473481D01*
X87276798Y-86483202D01*
X87286519Y-86493927D01*
X87295142Y-86505553D01*
X87302583Y-86517969D01*
X87308772Y-86531054D01*
X87313649Y-86544683D01*
X87317166Y-86558724D01*
X87319290Y-86573042D01*
X87320000Y-86587500D01*
X87320000Y-86882500D01*
X87319290Y-86896958D01*
X87317166Y-86911276D01*
X87313649Y-86925317D01*
X87308772Y-86938946D01*
X87302583Y-86952031D01*
X87295142Y-86964447D01*
X87286519Y-86976073D01*
X87276798Y-86986798D01*
X87266073Y-86996519D01*
X87254447Y-87005142D01*
X87242031Y-87012583D01*
X87228946Y-87018772D01*
X87215317Y-87023649D01*
X87201276Y-87027166D01*
X87186958Y-87029290D01*
X87172500Y-87030000D01*
X86827500Y-87030000D01*
X86813042Y-87029290D01*
X86798724Y-87027166D01*
X86784683Y-87023649D01*
X86771054Y-87018772D01*
X86757969Y-87012583D01*
X86745553Y-87005142D01*
X86733927Y-86996519D01*
X86723202Y-86986798D01*
X86713481Y-86976073D01*
X86704858Y-86964447D01*
X86697417Y-86952031D01*
X86691228Y-86938946D01*
X86686351Y-86925317D01*
X86682834Y-86911276D01*
X86680710Y-86896958D01*
X86680000Y-86882500D01*
X86680000Y-86587500D01*
X86680710Y-86573042D01*
X86682834Y-86558724D01*
X86686351Y-86544683D01*
X86691228Y-86531054D01*
X86697417Y-86517969D01*
X86704858Y-86505553D01*
X86713481Y-86493927D01*
X86723202Y-86483202D01*
X86733927Y-86473481D01*
X86745553Y-86464858D01*
X86757969Y-86457417D01*
X86771054Y-86451228D01*
X86784683Y-86446351D01*
X86798724Y-86442834D01*
X86813042Y-86440710D01*
X86827500Y-86440000D01*
X87172500Y-86440000D01*
X87186958Y-86440710D01*
X87186958Y-86440710D01*
G37*
D14*
X87000000Y-86735000D03*
D15*
X79020500Y-104216000D03*
X79020500Y-101016000D03*
X83920500Y-104216000D03*
X83920500Y-101016000D03*
D13*
G36*
X88513458Y-98105710D02*
X88527776Y-98107834D01*
X88541817Y-98111351D01*
X88555446Y-98116228D01*
X88568531Y-98122417D01*
X88580947Y-98129858D01*
X88592573Y-98138481D01*
X88603298Y-98148202D01*
X88613019Y-98158927D01*
X88621642Y-98170553D01*
X88629083Y-98182969D01*
X88635272Y-98196054D01*
X88640149Y-98209683D01*
X88643666Y-98223724D01*
X88645790Y-98238042D01*
X88646500Y-98252500D01*
X88646500Y-98597500D01*
X88645790Y-98611958D01*
X88643666Y-98626276D01*
X88640149Y-98640317D01*
X88635272Y-98653946D01*
X88629083Y-98667031D01*
X88621642Y-98679447D01*
X88613019Y-98691073D01*
X88603298Y-98701798D01*
X88592573Y-98711519D01*
X88580947Y-98720142D01*
X88568531Y-98727583D01*
X88555446Y-98733772D01*
X88541817Y-98738649D01*
X88527776Y-98742166D01*
X88513458Y-98744290D01*
X88499000Y-98745000D01*
X88204000Y-98745000D01*
X88189542Y-98744290D01*
X88175224Y-98742166D01*
X88161183Y-98738649D01*
X88147554Y-98733772D01*
X88134469Y-98727583D01*
X88122053Y-98720142D01*
X88110427Y-98711519D01*
X88099702Y-98701798D01*
X88089981Y-98691073D01*
X88081358Y-98679447D01*
X88073917Y-98667031D01*
X88067728Y-98653946D01*
X88062851Y-98640317D01*
X88059334Y-98626276D01*
X88057210Y-98611958D01*
X88056500Y-98597500D01*
X88056500Y-98252500D01*
X88057210Y-98238042D01*
X88059334Y-98223724D01*
X88062851Y-98209683D01*
X88067728Y-98196054D01*
X88073917Y-98182969D01*
X88081358Y-98170553D01*
X88089981Y-98158927D01*
X88099702Y-98148202D01*
X88110427Y-98138481D01*
X88122053Y-98129858D01*
X88134469Y-98122417D01*
X88147554Y-98116228D01*
X88161183Y-98111351D01*
X88175224Y-98107834D01*
X88189542Y-98105710D01*
X88204000Y-98105000D01*
X88499000Y-98105000D01*
X88513458Y-98105710D01*
X88513458Y-98105710D01*
G37*
D14*
X88351500Y-98425000D03*
D13*
G36*
X89483458Y-98105710D02*
X89497776Y-98107834D01*
X89511817Y-98111351D01*
X89525446Y-98116228D01*
X89538531Y-98122417D01*
X89550947Y-98129858D01*
X89562573Y-98138481D01*
X89573298Y-98148202D01*
X89583019Y-98158927D01*
X89591642Y-98170553D01*
X89599083Y-98182969D01*
X89605272Y-98196054D01*
X89610149Y-98209683D01*
X89613666Y-98223724D01*
X89615790Y-98238042D01*
X89616500Y-98252500D01*
X89616500Y-98597500D01*
X89615790Y-98611958D01*
X89613666Y-98626276D01*
X89610149Y-98640317D01*
X89605272Y-98653946D01*
X89599083Y-98667031D01*
X89591642Y-98679447D01*
X89583019Y-98691073D01*
X89573298Y-98701798D01*
X89562573Y-98711519D01*
X89550947Y-98720142D01*
X89538531Y-98727583D01*
X89525446Y-98733772D01*
X89511817Y-98738649D01*
X89497776Y-98742166D01*
X89483458Y-98744290D01*
X89469000Y-98745000D01*
X89174000Y-98745000D01*
X89159542Y-98744290D01*
X89145224Y-98742166D01*
X89131183Y-98738649D01*
X89117554Y-98733772D01*
X89104469Y-98727583D01*
X89092053Y-98720142D01*
X89080427Y-98711519D01*
X89069702Y-98701798D01*
X89059981Y-98691073D01*
X89051358Y-98679447D01*
X89043917Y-98667031D01*
X89037728Y-98653946D01*
X89032851Y-98640317D01*
X89029334Y-98626276D01*
X89027210Y-98611958D01*
X89026500Y-98597500D01*
X89026500Y-98252500D01*
X89027210Y-98238042D01*
X89029334Y-98223724D01*
X89032851Y-98209683D01*
X89037728Y-98196054D01*
X89043917Y-98182969D01*
X89051358Y-98170553D01*
X89059981Y-98158927D01*
X89069702Y-98148202D01*
X89080427Y-98138481D01*
X89092053Y-98129858D01*
X89104469Y-98122417D01*
X89117554Y-98116228D01*
X89131183Y-98111351D01*
X89145224Y-98107834D01*
X89159542Y-98105710D01*
X89174000Y-98105000D01*
X89469000Y-98105000D01*
X89483458Y-98105710D01*
X89483458Y-98105710D01*
G37*
D14*
X89321500Y-98425000D03*
D16*
X101905800Y-89484200D03*
D17*
X100380800Y-90959200D03*
X100380800Y-88009200D03*
D13*
G36*
X94547958Y-99172250D02*
X94562276Y-99174374D01*
X94576317Y-99177891D01*
X94589946Y-99182768D01*
X94603031Y-99188957D01*
X94615447Y-99196398D01*
X94627073Y-99205021D01*
X94637798Y-99214742D01*
X94647519Y-99225467D01*
X94656142Y-99237093D01*
X94663583Y-99249509D01*
X94669772Y-99262594D01*
X94674649Y-99276223D01*
X94678166Y-99290264D01*
X94680290Y-99304582D01*
X94681000Y-99319040D01*
X94681000Y-99614040D01*
X94680290Y-99628498D01*
X94678166Y-99642816D01*
X94674649Y-99656857D01*
X94669772Y-99670486D01*
X94663583Y-99683571D01*
X94656142Y-99695987D01*
X94647519Y-99707613D01*
X94637798Y-99718338D01*
X94627073Y-99728059D01*
X94615447Y-99736682D01*
X94603031Y-99744123D01*
X94589946Y-99750312D01*
X94576317Y-99755189D01*
X94562276Y-99758706D01*
X94547958Y-99760830D01*
X94533500Y-99761540D01*
X94188500Y-99761540D01*
X94174042Y-99760830D01*
X94159724Y-99758706D01*
X94145683Y-99755189D01*
X94132054Y-99750312D01*
X94118969Y-99744123D01*
X94106553Y-99736682D01*
X94094927Y-99728059D01*
X94084202Y-99718338D01*
X94074481Y-99707613D01*
X94065858Y-99695987D01*
X94058417Y-99683571D01*
X94052228Y-99670486D01*
X94047351Y-99656857D01*
X94043834Y-99642816D01*
X94041710Y-99628498D01*
X94041000Y-99614040D01*
X94041000Y-99319040D01*
X94041710Y-99304582D01*
X94043834Y-99290264D01*
X94047351Y-99276223D01*
X94052228Y-99262594D01*
X94058417Y-99249509D01*
X94065858Y-99237093D01*
X94074481Y-99225467D01*
X94084202Y-99214742D01*
X94094927Y-99205021D01*
X94106553Y-99196398D01*
X94118969Y-99188957D01*
X94132054Y-99182768D01*
X94145683Y-99177891D01*
X94159724Y-99174374D01*
X94174042Y-99172250D01*
X94188500Y-99171540D01*
X94533500Y-99171540D01*
X94547958Y-99172250D01*
X94547958Y-99172250D01*
G37*
D14*
X94361000Y-99466540D03*
D13*
G36*
X94547958Y-100142250D02*
X94562276Y-100144374D01*
X94576317Y-100147891D01*
X94589946Y-100152768D01*
X94603031Y-100158957D01*
X94615447Y-100166398D01*
X94627073Y-100175021D01*
X94637798Y-100184742D01*
X94647519Y-100195467D01*
X94656142Y-100207093D01*
X94663583Y-100219509D01*
X94669772Y-100232594D01*
X94674649Y-100246223D01*
X94678166Y-100260264D01*
X94680290Y-100274582D01*
X94681000Y-100289040D01*
X94681000Y-100584040D01*
X94680290Y-100598498D01*
X94678166Y-100612816D01*
X94674649Y-100626857D01*
X94669772Y-100640486D01*
X94663583Y-100653571D01*
X94656142Y-100665987D01*
X94647519Y-100677613D01*
X94637798Y-100688338D01*
X94627073Y-100698059D01*
X94615447Y-100706682D01*
X94603031Y-100714123D01*
X94589946Y-100720312D01*
X94576317Y-100725189D01*
X94562276Y-100728706D01*
X94547958Y-100730830D01*
X94533500Y-100731540D01*
X94188500Y-100731540D01*
X94174042Y-100730830D01*
X94159724Y-100728706D01*
X94145683Y-100725189D01*
X94132054Y-100720312D01*
X94118969Y-100714123D01*
X94106553Y-100706682D01*
X94094927Y-100698059D01*
X94084202Y-100688338D01*
X94074481Y-100677613D01*
X94065858Y-100665987D01*
X94058417Y-100653571D01*
X94052228Y-100640486D01*
X94047351Y-100626857D01*
X94043834Y-100612816D01*
X94041710Y-100598498D01*
X94041000Y-100584040D01*
X94041000Y-100289040D01*
X94041710Y-100274582D01*
X94043834Y-100260264D01*
X94047351Y-100246223D01*
X94052228Y-100232594D01*
X94058417Y-100219509D01*
X94065858Y-100207093D01*
X94074481Y-100195467D01*
X94084202Y-100184742D01*
X94094927Y-100175021D01*
X94106553Y-100166398D01*
X94118969Y-100158957D01*
X94132054Y-100152768D01*
X94145683Y-100147891D01*
X94159724Y-100144374D01*
X94174042Y-100142250D01*
X94188500Y-100141540D01*
X94533500Y-100141540D01*
X94547958Y-100142250D01*
X94547958Y-100142250D01*
G37*
D14*
X94361000Y-100436540D03*
D13*
G36*
X97278458Y-94361210D02*
X97292776Y-94363334D01*
X97306817Y-94366851D01*
X97320446Y-94371728D01*
X97333531Y-94377917D01*
X97345947Y-94385358D01*
X97357573Y-94393981D01*
X97368298Y-94403702D01*
X97378019Y-94414427D01*
X97386642Y-94426053D01*
X97394083Y-94438469D01*
X97400272Y-94451554D01*
X97405149Y-94465183D01*
X97408666Y-94479224D01*
X97410790Y-94493542D01*
X97411500Y-94508000D01*
X97411500Y-94803000D01*
X97410790Y-94817458D01*
X97408666Y-94831776D01*
X97405149Y-94845817D01*
X97400272Y-94859446D01*
X97394083Y-94872531D01*
X97386642Y-94884947D01*
X97378019Y-94896573D01*
X97368298Y-94907298D01*
X97357573Y-94917019D01*
X97345947Y-94925642D01*
X97333531Y-94933083D01*
X97320446Y-94939272D01*
X97306817Y-94944149D01*
X97292776Y-94947666D01*
X97278458Y-94949790D01*
X97264000Y-94950500D01*
X96919000Y-94950500D01*
X96904542Y-94949790D01*
X96890224Y-94947666D01*
X96876183Y-94944149D01*
X96862554Y-94939272D01*
X96849469Y-94933083D01*
X96837053Y-94925642D01*
X96825427Y-94917019D01*
X96814702Y-94907298D01*
X96804981Y-94896573D01*
X96796358Y-94884947D01*
X96788917Y-94872531D01*
X96782728Y-94859446D01*
X96777851Y-94845817D01*
X96774334Y-94831776D01*
X96772210Y-94817458D01*
X96771500Y-94803000D01*
X96771500Y-94508000D01*
X96772210Y-94493542D01*
X96774334Y-94479224D01*
X96777851Y-94465183D01*
X96782728Y-94451554D01*
X96788917Y-94438469D01*
X96796358Y-94426053D01*
X96804981Y-94414427D01*
X96814702Y-94403702D01*
X96825427Y-94393981D01*
X96837053Y-94385358D01*
X96849469Y-94377917D01*
X96862554Y-94371728D01*
X96876183Y-94366851D01*
X96890224Y-94363334D01*
X96904542Y-94361210D01*
X96919000Y-94360500D01*
X97264000Y-94360500D01*
X97278458Y-94361210D01*
X97278458Y-94361210D01*
G37*
D14*
X97091500Y-94655500D03*
D13*
G36*
X97278458Y-93391210D02*
X97292776Y-93393334D01*
X97306817Y-93396851D01*
X97320446Y-93401728D01*
X97333531Y-93407917D01*
X97345947Y-93415358D01*
X97357573Y-93423981D01*
X97368298Y-93433702D01*
X97378019Y-93444427D01*
X97386642Y-93456053D01*
X97394083Y-93468469D01*
X97400272Y-93481554D01*
X97405149Y-93495183D01*
X97408666Y-93509224D01*
X97410790Y-93523542D01*
X97411500Y-93538000D01*
X97411500Y-93833000D01*
X97410790Y-93847458D01*
X97408666Y-93861776D01*
X97405149Y-93875817D01*
X97400272Y-93889446D01*
X97394083Y-93902531D01*
X97386642Y-93914947D01*
X97378019Y-93926573D01*
X97368298Y-93937298D01*
X97357573Y-93947019D01*
X97345947Y-93955642D01*
X97333531Y-93963083D01*
X97320446Y-93969272D01*
X97306817Y-93974149D01*
X97292776Y-93977666D01*
X97278458Y-93979790D01*
X97264000Y-93980500D01*
X96919000Y-93980500D01*
X96904542Y-93979790D01*
X96890224Y-93977666D01*
X96876183Y-93974149D01*
X96862554Y-93969272D01*
X96849469Y-93963083D01*
X96837053Y-93955642D01*
X96825427Y-93947019D01*
X96814702Y-93937298D01*
X96804981Y-93926573D01*
X96796358Y-93914947D01*
X96788917Y-93902531D01*
X96782728Y-93889446D01*
X96777851Y-93875817D01*
X96774334Y-93861776D01*
X96772210Y-93847458D01*
X96771500Y-93833000D01*
X96771500Y-93538000D01*
X96772210Y-93523542D01*
X96774334Y-93509224D01*
X96777851Y-93495183D01*
X96782728Y-93481554D01*
X96788917Y-93468469D01*
X96796358Y-93456053D01*
X96804981Y-93444427D01*
X96814702Y-93433702D01*
X96825427Y-93423981D01*
X96837053Y-93415358D01*
X96849469Y-93407917D01*
X96862554Y-93401728D01*
X96876183Y-93396851D01*
X96890224Y-93393334D01*
X96904542Y-93391210D01*
X96919000Y-93390500D01*
X97264000Y-93390500D01*
X97278458Y-93391210D01*
X97278458Y-93391210D01*
G37*
D14*
X97091500Y-93685500D03*
D13*
G36*
X88186958Y-89720710D02*
X88201276Y-89722834D01*
X88215317Y-89726351D01*
X88228946Y-89731228D01*
X88242031Y-89737417D01*
X88254447Y-89744858D01*
X88266073Y-89753481D01*
X88276798Y-89763202D01*
X88286519Y-89773927D01*
X88295142Y-89785553D01*
X88302583Y-89797969D01*
X88308772Y-89811054D01*
X88313649Y-89824683D01*
X88317166Y-89838724D01*
X88319290Y-89853042D01*
X88320000Y-89867500D01*
X88320000Y-90162500D01*
X88319290Y-90176958D01*
X88317166Y-90191276D01*
X88313649Y-90205317D01*
X88308772Y-90218946D01*
X88302583Y-90232031D01*
X88295142Y-90244447D01*
X88286519Y-90256073D01*
X88276798Y-90266798D01*
X88266073Y-90276519D01*
X88254447Y-90285142D01*
X88242031Y-90292583D01*
X88228946Y-90298772D01*
X88215317Y-90303649D01*
X88201276Y-90307166D01*
X88186958Y-90309290D01*
X88172500Y-90310000D01*
X87827500Y-90310000D01*
X87813042Y-90309290D01*
X87798724Y-90307166D01*
X87784683Y-90303649D01*
X87771054Y-90298772D01*
X87757969Y-90292583D01*
X87745553Y-90285142D01*
X87733927Y-90276519D01*
X87723202Y-90266798D01*
X87713481Y-90256073D01*
X87704858Y-90244447D01*
X87697417Y-90232031D01*
X87691228Y-90218946D01*
X87686351Y-90205317D01*
X87682834Y-90191276D01*
X87680710Y-90176958D01*
X87680000Y-90162500D01*
X87680000Y-89867500D01*
X87680710Y-89853042D01*
X87682834Y-89838724D01*
X87686351Y-89824683D01*
X87691228Y-89811054D01*
X87697417Y-89797969D01*
X87704858Y-89785553D01*
X87713481Y-89773927D01*
X87723202Y-89763202D01*
X87733927Y-89753481D01*
X87745553Y-89744858D01*
X87757969Y-89737417D01*
X87771054Y-89731228D01*
X87784683Y-89726351D01*
X87798724Y-89722834D01*
X87813042Y-89720710D01*
X87827500Y-89720000D01*
X88172500Y-89720000D01*
X88186958Y-89720710D01*
X88186958Y-89720710D01*
G37*
D14*
X88000000Y-90015000D03*
D13*
G36*
X88186958Y-90690710D02*
X88201276Y-90692834D01*
X88215317Y-90696351D01*
X88228946Y-90701228D01*
X88242031Y-90707417D01*
X88254447Y-90714858D01*
X88266073Y-90723481D01*
X88276798Y-90733202D01*
X88286519Y-90743927D01*
X88295142Y-90755553D01*
X88302583Y-90767969D01*
X88308772Y-90781054D01*
X88313649Y-90794683D01*
X88317166Y-90808724D01*
X88319290Y-90823042D01*
X88320000Y-90837500D01*
X88320000Y-91132500D01*
X88319290Y-91146958D01*
X88317166Y-91161276D01*
X88313649Y-91175317D01*
X88308772Y-91188946D01*
X88302583Y-91202031D01*
X88295142Y-91214447D01*
X88286519Y-91226073D01*
X88276798Y-91236798D01*
X88266073Y-91246519D01*
X88254447Y-91255142D01*
X88242031Y-91262583D01*
X88228946Y-91268772D01*
X88215317Y-91273649D01*
X88201276Y-91277166D01*
X88186958Y-91279290D01*
X88172500Y-91280000D01*
X87827500Y-91280000D01*
X87813042Y-91279290D01*
X87798724Y-91277166D01*
X87784683Y-91273649D01*
X87771054Y-91268772D01*
X87757969Y-91262583D01*
X87745553Y-91255142D01*
X87733927Y-91246519D01*
X87723202Y-91236798D01*
X87713481Y-91226073D01*
X87704858Y-91214447D01*
X87697417Y-91202031D01*
X87691228Y-91188946D01*
X87686351Y-91175317D01*
X87682834Y-91161276D01*
X87680710Y-91146958D01*
X87680000Y-91132500D01*
X87680000Y-90837500D01*
X87680710Y-90823042D01*
X87682834Y-90808724D01*
X87686351Y-90794683D01*
X87691228Y-90781054D01*
X87697417Y-90767969D01*
X87704858Y-90755553D01*
X87713481Y-90743927D01*
X87723202Y-90733202D01*
X87733927Y-90723481D01*
X87745553Y-90714858D01*
X87757969Y-90707417D01*
X87771054Y-90701228D01*
X87784683Y-90696351D01*
X87798724Y-90692834D01*
X87813042Y-90690710D01*
X87827500Y-90690000D01*
X88172500Y-90690000D01*
X88186958Y-90690710D01*
X88186958Y-90690710D01*
G37*
D14*
X88000000Y-90985000D03*
D18*
X103860000Y-76566000D03*
X103860000Y-78566000D03*
X103860000Y-80566000D03*
X103860000Y-82566000D03*
X103860000Y-84566000D03*
X103860000Y-86566000D03*
X103860000Y-88566000D03*
X103860000Y-90566000D03*
X119660000Y-90566000D03*
X119660000Y-88566000D03*
X119660000Y-86566000D03*
X119660000Y-84566000D03*
X119660000Y-82566000D03*
X119660000Y-80566000D03*
X119660000Y-78566000D03*
X119660000Y-76566000D03*
D13*
G36*
X88175703Y-104570722D02*
X88190264Y-104572882D01*
X88204543Y-104576459D01*
X88218403Y-104581418D01*
X88231710Y-104587712D01*
X88244336Y-104595280D01*
X88256159Y-104604048D01*
X88267066Y-104613934D01*
X88276952Y-104624841D01*
X88285720Y-104636664D01*
X88293288Y-104649290D01*
X88299582Y-104662597D01*
X88304541Y-104676457D01*
X88308118Y-104690736D01*
X88310278Y-104705297D01*
X88311000Y-104720000D01*
X88311000Y-106170000D01*
X88310278Y-106184703D01*
X88308118Y-106199264D01*
X88304541Y-106213543D01*
X88299582Y-106227403D01*
X88293288Y-106240710D01*
X88285720Y-106253336D01*
X88276952Y-106265159D01*
X88267066Y-106276066D01*
X88256159Y-106285952D01*
X88244336Y-106294720D01*
X88231710Y-106302288D01*
X88218403Y-106308582D01*
X88204543Y-106313541D01*
X88190264Y-106317118D01*
X88175703Y-106319278D01*
X88161000Y-106320000D01*
X87861000Y-106320000D01*
X87846297Y-106319278D01*
X87831736Y-106317118D01*
X87817457Y-106313541D01*
X87803597Y-106308582D01*
X87790290Y-106302288D01*
X87777664Y-106294720D01*
X87765841Y-106285952D01*
X87754934Y-106276066D01*
X87745048Y-106265159D01*
X87736280Y-106253336D01*
X87728712Y-106240710D01*
X87722418Y-106227403D01*
X87717459Y-106213543D01*
X87713882Y-106199264D01*
X87711722Y-106184703D01*
X87711000Y-106170000D01*
X87711000Y-104720000D01*
X87711722Y-104705297D01*
X87713882Y-104690736D01*
X87717459Y-104676457D01*
X87722418Y-104662597D01*
X87728712Y-104649290D01*
X87736280Y-104636664D01*
X87745048Y-104624841D01*
X87754934Y-104613934D01*
X87765841Y-104604048D01*
X87777664Y-104595280D01*
X87790290Y-104587712D01*
X87803597Y-104581418D01*
X87817457Y-104576459D01*
X87831736Y-104572882D01*
X87846297Y-104570722D01*
X87861000Y-104570000D01*
X88161000Y-104570000D01*
X88175703Y-104570722D01*
X88175703Y-104570722D01*
G37*
D19*
X88011000Y-105445000D03*
D13*
G36*
X89445703Y-104570722D02*
X89460264Y-104572882D01*
X89474543Y-104576459D01*
X89488403Y-104581418D01*
X89501710Y-104587712D01*
X89514336Y-104595280D01*
X89526159Y-104604048D01*
X89537066Y-104613934D01*
X89546952Y-104624841D01*
X89555720Y-104636664D01*
X89563288Y-104649290D01*
X89569582Y-104662597D01*
X89574541Y-104676457D01*
X89578118Y-104690736D01*
X89580278Y-104705297D01*
X89581000Y-104720000D01*
X89581000Y-106170000D01*
X89580278Y-106184703D01*
X89578118Y-106199264D01*
X89574541Y-106213543D01*
X89569582Y-106227403D01*
X89563288Y-106240710D01*
X89555720Y-106253336D01*
X89546952Y-106265159D01*
X89537066Y-106276066D01*
X89526159Y-106285952D01*
X89514336Y-106294720D01*
X89501710Y-106302288D01*
X89488403Y-106308582D01*
X89474543Y-106313541D01*
X89460264Y-106317118D01*
X89445703Y-106319278D01*
X89431000Y-106320000D01*
X89131000Y-106320000D01*
X89116297Y-106319278D01*
X89101736Y-106317118D01*
X89087457Y-106313541D01*
X89073597Y-106308582D01*
X89060290Y-106302288D01*
X89047664Y-106294720D01*
X89035841Y-106285952D01*
X89024934Y-106276066D01*
X89015048Y-106265159D01*
X89006280Y-106253336D01*
X88998712Y-106240710D01*
X88992418Y-106227403D01*
X88987459Y-106213543D01*
X88983882Y-106199264D01*
X88981722Y-106184703D01*
X88981000Y-106170000D01*
X88981000Y-104720000D01*
X88981722Y-104705297D01*
X88983882Y-104690736D01*
X88987459Y-104676457D01*
X88992418Y-104662597D01*
X88998712Y-104649290D01*
X89006280Y-104636664D01*
X89015048Y-104624841D01*
X89024934Y-104613934D01*
X89035841Y-104604048D01*
X89047664Y-104595280D01*
X89060290Y-104587712D01*
X89073597Y-104581418D01*
X89087457Y-104576459D01*
X89101736Y-104572882D01*
X89116297Y-104570722D01*
X89131000Y-104570000D01*
X89431000Y-104570000D01*
X89445703Y-104570722D01*
X89445703Y-104570722D01*
G37*
D19*
X89281000Y-105445000D03*
D13*
G36*
X90715703Y-104570722D02*
X90730264Y-104572882D01*
X90744543Y-104576459D01*
X90758403Y-104581418D01*
X90771710Y-104587712D01*
X90784336Y-104595280D01*
X90796159Y-104604048D01*
X90807066Y-104613934D01*
X90816952Y-104624841D01*
X90825720Y-104636664D01*
X90833288Y-104649290D01*
X90839582Y-104662597D01*
X90844541Y-104676457D01*
X90848118Y-104690736D01*
X90850278Y-104705297D01*
X90851000Y-104720000D01*
X90851000Y-106170000D01*
X90850278Y-106184703D01*
X90848118Y-106199264D01*
X90844541Y-106213543D01*
X90839582Y-106227403D01*
X90833288Y-106240710D01*
X90825720Y-106253336D01*
X90816952Y-106265159D01*
X90807066Y-106276066D01*
X90796159Y-106285952D01*
X90784336Y-106294720D01*
X90771710Y-106302288D01*
X90758403Y-106308582D01*
X90744543Y-106313541D01*
X90730264Y-106317118D01*
X90715703Y-106319278D01*
X90701000Y-106320000D01*
X90401000Y-106320000D01*
X90386297Y-106319278D01*
X90371736Y-106317118D01*
X90357457Y-106313541D01*
X90343597Y-106308582D01*
X90330290Y-106302288D01*
X90317664Y-106294720D01*
X90305841Y-106285952D01*
X90294934Y-106276066D01*
X90285048Y-106265159D01*
X90276280Y-106253336D01*
X90268712Y-106240710D01*
X90262418Y-106227403D01*
X90257459Y-106213543D01*
X90253882Y-106199264D01*
X90251722Y-106184703D01*
X90251000Y-106170000D01*
X90251000Y-104720000D01*
X90251722Y-104705297D01*
X90253882Y-104690736D01*
X90257459Y-104676457D01*
X90262418Y-104662597D01*
X90268712Y-104649290D01*
X90276280Y-104636664D01*
X90285048Y-104624841D01*
X90294934Y-104613934D01*
X90305841Y-104604048D01*
X90317664Y-104595280D01*
X90330290Y-104587712D01*
X90343597Y-104581418D01*
X90357457Y-104576459D01*
X90371736Y-104572882D01*
X90386297Y-104570722D01*
X90401000Y-104570000D01*
X90701000Y-104570000D01*
X90715703Y-104570722D01*
X90715703Y-104570722D01*
G37*
D19*
X90551000Y-105445000D03*
D13*
G36*
X91985703Y-104570722D02*
X92000264Y-104572882D01*
X92014543Y-104576459D01*
X92028403Y-104581418D01*
X92041710Y-104587712D01*
X92054336Y-104595280D01*
X92066159Y-104604048D01*
X92077066Y-104613934D01*
X92086952Y-104624841D01*
X92095720Y-104636664D01*
X92103288Y-104649290D01*
X92109582Y-104662597D01*
X92114541Y-104676457D01*
X92118118Y-104690736D01*
X92120278Y-104705297D01*
X92121000Y-104720000D01*
X92121000Y-106170000D01*
X92120278Y-106184703D01*
X92118118Y-106199264D01*
X92114541Y-106213543D01*
X92109582Y-106227403D01*
X92103288Y-106240710D01*
X92095720Y-106253336D01*
X92086952Y-106265159D01*
X92077066Y-106276066D01*
X92066159Y-106285952D01*
X92054336Y-106294720D01*
X92041710Y-106302288D01*
X92028403Y-106308582D01*
X92014543Y-106313541D01*
X92000264Y-106317118D01*
X91985703Y-106319278D01*
X91971000Y-106320000D01*
X91671000Y-106320000D01*
X91656297Y-106319278D01*
X91641736Y-106317118D01*
X91627457Y-106313541D01*
X91613597Y-106308582D01*
X91600290Y-106302288D01*
X91587664Y-106294720D01*
X91575841Y-106285952D01*
X91564934Y-106276066D01*
X91555048Y-106265159D01*
X91546280Y-106253336D01*
X91538712Y-106240710D01*
X91532418Y-106227403D01*
X91527459Y-106213543D01*
X91523882Y-106199264D01*
X91521722Y-106184703D01*
X91521000Y-106170000D01*
X91521000Y-104720000D01*
X91521722Y-104705297D01*
X91523882Y-104690736D01*
X91527459Y-104676457D01*
X91532418Y-104662597D01*
X91538712Y-104649290D01*
X91546280Y-104636664D01*
X91555048Y-104624841D01*
X91564934Y-104613934D01*
X91575841Y-104604048D01*
X91587664Y-104595280D01*
X91600290Y-104587712D01*
X91613597Y-104581418D01*
X91627457Y-104576459D01*
X91641736Y-104572882D01*
X91656297Y-104570722D01*
X91671000Y-104570000D01*
X91971000Y-104570000D01*
X91985703Y-104570722D01*
X91985703Y-104570722D01*
G37*
D19*
X91821000Y-105445000D03*
D13*
G36*
X91985703Y-99420722D02*
X92000264Y-99422882D01*
X92014543Y-99426459D01*
X92028403Y-99431418D01*
X92041710Y-99437712D01*
X92054336Y-99445280D01*
X92066159Y-99454048D01*
X92077066Y-99463934D01*
X92086952Y-99474841D01*
X92095720Y-99486664D01*
X92103288Y-99499290D01*
X92109582Y-99512597D01*
X92114541Y-99526457D01*
X92118118Y-99540736D01*
X92120278Y-99555297D01*
X92121000Y-99570000D01*
X92121000Y-101020000D01*
X92120278Y-101034703D01*
X92118118Y-101049264D01*
X92114541Y-101063543D01*
X92109582Y-101077403D01*
X92103288Y-101090710D01*
X92095720Y-101103336D01*
X92086952Y-101115159D01*
X92077066Y-101126066D01*
X92066159Y-101135952D01*
X92054336Y-101144720D01*
X92041710Y-101152288D01*
X92028403Y-101158582D01*
X92014543Y-101163541D01*
X92000264Y-101167118D01*
X91985703Y-101169278D01*
X91971000Y-101170000D01*
X91671000Y-101170000D01*
X91656297Y-101169278D01*
X91641736Y-101167118D01*
X91627457Y-101163541D01*
X91613597Y-101158582D01*
X91600290Y-101152288D01*
X91587664Y-101144720D01*
X91575841Y-101135952D01*
X91564934Y-101126066D01*
X91555048Y-101115159D01*
X91546280Y-101103336D01*
X91538712Y-101090710D01*
X91532418Y-101077403D01*
X91527459Y-101063543D01*
X91523882Y-101049264D01*
X91521722Y-101034703D01*
X91521000Y-101020000D01*
X91521000Y-99570000D01*
X91521722Y-99555297D01*
X91523882Y-99540736D01*
X91527459Y-99526457D01*
X91532418Y-99512597D01*
X91538712Y-99499290D01*
X91546280Y-99486664D01*
X91555048Y-99474841D01*
X91564934Y-99463934D01*
X91575841Y-99454048D01*
X91587664Y-99445280D01*
X91600290Y-99437712D01*
X91613597Y-99431418D01*
X91627457Y-99426459D01*
X91641736Y-99422882D01*
X91656297Y-99420722D01*
X91671000Y-99420000D01*
X91971000Y-99420000D01*
X91985703Y-99420722D01*
X91985703Y-99420722D01*
G37*
D19*
X91821000Y-100295000D03*
D13*
G36*
X90715703Y-99420722D02*
X90730264Y-99422882D01*
X90744543Y-99426459D01*
X90758403Y-99431418D01*
X90771710Y-99437712D01*
X90784336Y-99445280D01*
X90796159Y-99454048D01*
X90807066Y-99463934D01*
X90816952Y-99474841D01*
X90825720Y-99486664D01*
X90833288Y-99499290D01*
X90839582Y-99512597D01*
X90844541Y-99526457D01*
X90848118Y-99540736D01*
X90850278Y-99555297D01*
X90851000Y-99570000D01*
X90851000Y-101020000D01*
X90850278Y-101034703D01*
X90848118Y-101049264D01*
X90844541Y-101063543D01*
X90839582Y-101077403D01*
X90833288Y-101090710D01*
X90825720Y-101103336D01*
X90816952Y-101115159D01*
X90807066Y-101126066D01*
X90796159Y-101135952D01*
X90784336Y-101144720D01*
X90771710Y-101152288D01*
X90758403Y-101158582D01*
X90744543Y-101163541D01*
X90730264Y-101167118D01*
X90715703Y-101169278D01*
X90701000Y-101170000D01*
X90401000Y-101170000D01*
X90386297Y-101169278D01*
X90371736Y-101167118D01*
X90357457Y-101163541D01*
X90343597Y-101158582D01*
X90330290Y-101152288D01*
X90317664Y-101144720D01*
X90305841Y-101135952D01*
X90294934Y-101126066D01*
X90285048Y-101115159D01*
X90276280Y-101103336D01*
X90268712Y-101090710D01*
X90262418Y-101077403D01*
X90257459Y-101063543D01*
X90253882Y-101049264D01*
X90251722Y-101034703D01*
X90251000Y-101020000D01*
X90251000Y-99570000D01*
X90251722Y-99555297D01*
X90253882Y-99540736D01*
X90257459Y-99526457D01*
X90262418Y-99512597D01*
X90268712Y-99499290D01*
X90276280Y-99486664D01*
X90285048Y-99474841D01*
X90294934Y-99463934D01*
X90305841Y-99454048D01*
X90317664Y-99445280D01*
X90330290Y-99437712D01*
X90343597Y-99431418D01*
X90357457Y-99426459D01*
X90371736Y-99422882D01*
X90386297Y-99420722D01*
X90401000Y-99420000D01*
X90701000Y-99420000D01*
X90715703Y-99420722D01*
X90715703Y-99420722D01*
G37*
D19*
X90551000Y-100295000D03*
D13*
G36*
X89445703Y-99420722D02*
X89460264Y-99422882D01*
X89474543Y-99426459D01*
X89488403Y-99431418D01*
X89501710Y-99437712D01*
X89514336Y-99445280D01*
X89526159Y-99454048D01*
X89537066Y-99463934D01*
X89546952Y-99474841D01*
X89555720Y-99486664D01*
X89563288Y-99499290D01*
X89569582Y-99512597D01*
X89574541Y-99526457D01*
X89578118Y-99540736D01*
X89580278Y-99555297D01*
X89581000Y-99570000D01*
X89581000Y-101020000D01*
X89580278Y-101034703D01*
X89578118Y-101049264D01*
X89574541Y-101063543D01*
X89569582Y-101077403D01*
X89563288Y-101090710D01*
X89555720Y-101103336D01*
X89546952Y-101115159D01*
X89537066Y-101126066D01*
X89526159Y-101135952D01*
X89514336Y-101144720D01*
X89501710Y-101152288D01*
X89488403Y-101158582D01*
X89474543Y-101163541D01*
X89460264Y-101167118D01*
X89445703Y-101169278D01*
X89431000Y-101170000D01*
X89131000Y-101170000D01*
X89116297Y-101169278D01*
X89101736Y-101167118D01*
X89087457Y-101163541D01*
X89073597Y-101158582D01*
X89060290Y-101152288D01*
X89047664Y-101144720D01*
X89035841Y-101135952D01*
X89024934Y-101126066D01*
X89015048Y-101115159D01*
X89006280Y-101103336D01*
X88998712Y-101090710D01*
X88992418Y-101077403D01*
X88987459Y-101063543D01*
X88983882Y-101049264D01*
X88981722Y-101034703D01*
X88981000Y-101020000D01*
X88981000Y-99570000D01*
X88981722Y-99555297D01*
X88983882Y-99540736D01*
X88987459Y-99526457D01*
X88992418Y-99512597D01*
X88998712Y-99499290D01*
X89006280Y-99486664D01*
X89015048Y-99474841D01*
X89024934Y-99463934D01*
X89035841Y-99454048D01*
X89047664Y-99445280D01*
X89060290Y-99437712D01*
X89073597Y-99431418D01*
X89087457Y-99426459D01*
X89101736Y-99422882D01*
X89116297Y-99420722D01*
X89131000Y-99420000D01*
X89431000Y-99420000D01*
X89445703Y-99420722D01*
X89445703Y-99420722D01*
G37*
D19*
X89281000Y-100295000D03*
D13*
G36*
X88175703Y-99420722D02*
X88190264Y-99422882D01*
X88204543Y-99426459D01*
X88218403Y-99431418D01*
X88231710Y-99437712D01*
X88244336Y-99445280D01*
X88256159Y-99454048D01*
X88267066Y-99463934D01*
X88276952Y-99474841D01*
X88285720Y-99486664D01*
X88293288Y-99499290D01*
X88299582Y-99512597D01*
X88304541Y-99526457D01*
X88308118Y-99540736D01*
X88310278Y-99555297D01*
X88311000Y-99570000D01*
X88311000Y-101020000D01*
X88310278Y-101034703D01*
X88308118Y-101049264D01*
X88304541Y-101063543D01*
X88299582Y-101077403D01*
X88293288Y-101090710D01*
X88285720Y-101103336D01*
X88276952Y-101115159D01*
X88267066Y-101126066D01*
X88256159Y-101135952D01*
X88244336Y-101144720D01*
X88231710Y-101152288D01*
X88218403Y-101158582D01*
X88204543Y-101163541D01*
X88190264Y-101167118D01*
X88175703Y-101169278D01*
X88161000Y-101170000D01*
X87861000Y-101170000D01*
X87846297Y-101169278D01*
X87831736Y-101167118D01*
X87817457Y-101163541D01*
X87803597Y-101158582D01*
X87790290Y-101152288D01*
X87777664Y-101144720D01*
X87765841Y-101135952D01*
X87754934Y-101126066D01*
X87745048Y-101115159D01*
X87736280Y-101103336D01*
X87728712Y-101090710D01*
X87722418Y-101077403D01*
X87717459Y-101063543D01*
X87713882Y-101049264D01*
X87711722Y-101034703D01*
X87711000Y-101020000D01*
X87711000Y-99570000D01*
X87711722Y-99555297D01*
X87713882Y-99540736D01*
X87717459Y-99526457D01*
X87722418Y-99512597D01*
X87728712Y-99499290D01*
X87736280Y-99486664D01*
X87745048Y-99474841D01*
X87754934Y-99463934D01*
X87765841Y-99454048D01*
X87777664Y-99445280D01*
X87790290Y-99437712D01*
X87803597Y-99431418D01*
X87817457Y-99426459D01*
X87831736Y-99422882D01*
X87846297Y-99420722D01*
X87861000Y-99420000D01*
X88161000Y-99420000D01*
X88175703Y-99420722D01*
X88175703Y-99420722D01*
G37*
D19*
X88011000Y-100295000D03*
D13*
G36*
X86737458Y-105156210D02*
X86751776Y-105158334D01*
X86765817Y-105161851D01*
X86779446Y-105166728D01*
X86792531Y-105172917D01*
X86804947Y-105180358D01*
X86816573Y-105188981D01*
X86827298Y-105198702D01*
X86837019Y-105209427D01*
X86845642Y-105221053D01*
X86853083Y-105233469D01*
X86859272Y-105246554D01*
X86864149Y-105260183D01*
X86867666Y-105274224D01*
X86869790Y-105288542D01*
X86870500Y-105303000D01*
X86870500Y-105598000D01*
X86869790Y-105612458D01*
X86867666Y-105626776D01*
X86864149Y-105640817D01*
X86859272Y-105654446D01*
X86853083Y-105667531D01*
X86845642Y-105679947D01*
X86837019Y-105691573D01*
X86827298Y-105702298D01*
X86816573Y-105712019D01*
X86804947Y-105720642D01*
X86792531Y-105728083D01*
X86779446Y-105734272D01*
X86765817Y-105739149D01*
X86751776Y-105742666D01*
X86737458Y-105744790D01*
X86723000Y-105745500D01*
X86378000Y-105745500D01*
X86363542Y-105744790D01*
X86349224Y-105742666D01*
X86335183Y-105739149D01*
X86321554Y-105734272D01*
X86308469Y-105728083D01*
X86296053Y-105720642D01*
X86284427Y-105712019D01*
X86273702Y-105702298D01*
X86263981Y-105691573D01*
X86255358Y-105679947D01*
X86247917Y-105667531D01*
X86241728Y-105654446D01*
X86236851Y-105640817D01*
X86233334Y-105626776D01*
X86231210Y-105612458D01*
X86230500Y-105598000D01*
X86230500Y-105303000D01*
X86231210Y-105288542D01*
X86233334Y-105274224D01*
X86236851Y-105260183D01*
X86241728Y-105246554D01*
X86247917Y-105233469D01*
X86255358Y-105221053D01*
X86263981Y-105209427D01*
X86273702Y-105198702D01*
X86284427Y-105188981D01*
X86296053Y-105180358D01*
X86308469Y-105172917D01*
X86321554Y-105166728D01*
X86335183Y-105161851D01*
X86349224Y-105158334D01*
X86363542Y-105156210D01*
X86378000Y-105155500D01*
X86723000Y-105155500D01*
X86737458Y-105156210D01*
X86737458Y-105156210D01*
G37*
D14*
X86550500Y-105450500D03*
D13*
G36*
X86737458Y-104186210D02*
X86751776Y-104188334D01*
X86765817Y-104191851D01*
X86779446Y-104196728D01*
X86792531Y-104202917D01*
X86804947Y-104210358D01*
X86816573Y-104218981D01*
X86827298Y-104228702D01*
X86837019Y-104239427D01*
X86845642Y-104251053D01*
X86853083Y-104263469D01*
X86859272Y-104276554D01*
X86864149Y-104290183D01*
X86867666Y-104304224D01*
X86869790Y-104318542D01*
X86870500Y-104333000D01*
X86870500Y-104628000D01*
X86869790Y-104642458D01*
X86867666Y-104656776D01*
X86864149Y-104670817D01*
X86859272Y-104684446D01*
X86853083Y-104697531D01*
X86845642Y-104709947D01*
X86837019Y-104721573D01*
X86827298Y-104732298D01*
X86816573Y-104742019D01*
X86804947Y-104750642D01*
X86792531Y-104758083D01*
X86779446Y-104764272D01*
X86765817Y-104769149D01*
X86751776Y-104772666D01*
X86737458Y-104774790D01*
X86723000Y-104775500D01*
X86378000Y-104775500D01*
X86363542Y-104774790D01*
X86349224Y-104772666D01*
X86335183Y-104769149D01*
X86321554Y-104764272D01*
X86308469Y-104758083D01*
X86296053Y-104750642D01*
X86284427Y-104742019D01*
X86273702Y-104732298D01*
X86263981Y-104721573D01*
X86255358Y-104709947D01*
X86247917Y-104697531D01*
X86241728Y-104684446D01*
X86236851Y-104670817D01*
X86233334Y-104656776D01*
X86231210Y-104642458D01*
X86230500Y-104628000D01*
X86230500Y-104333000D01*
X86231210Y-104318542D01*
X86233334Y-104304224D01*
X86236851Y-104290183D01*
X86241728Y-104276554D01*
X86247917Y-104263469D01*
X86255358Y-104251053D01*
X86263981Y-104239427D01*
X86273702Y-104228702D01*
X86284427Y-104218981D01*
X86296053Y-104210358D01*
X86308469Y-104202917D01*
X86321554Y-104196728D01*
X86335183Y-104191851D01*
X86349224Y-104188334D01*
X86363542Y-104186210D01*
X86378000Y-104185500D01*
X86723000Y-104185500D01*
X86737458Y-104186210D01*
X86737458Y-104186210D01*
G37*
D14*
X86550500Y-104480500D03*
D20*
X102832000Y-94374000D03*
X102832000Y-102154000D03*
D21*
X103627000Y-106459000D03*
D22*
X103957000Y-92574000D03*
D23*
X112957000Y-92574000D03*
D21*
X115107000Y-92169000D03*
D24*
X114957000Y-106559000D03*
D25*
X115587000Y-94514000D03*
X115587000Y-95614000D03*
X115587000Y-96714000D03*
X115587000Y-97814000D03*
X115587000Y-98914000D03*
X115587000Y-100014000D03*
X115587000Y-101114000D03*
X115587000Y-102214000D03*
D13*
G36*
X95469142Y-101801174D02*
X95492803Y-101804684D01*
X95516007Y-101810496D01*
X95538529Y-101818554D01*
X95560153Y-101828782D01*
X95580670Y-101841079D01*
X95599883Y-101855329D01*
X95617607Y-101871393D01*
X95633671Y-101889117D01*
X95647921Y-101908330D01*
X95660218Y-101928847D01*
X95670446Y-101950471D01*
X95678504Y-101972993D01*
X95684316Y-101996197D01*
X95687826Y-102019858D01*
X95689000Y-102043750D01*
X95689000Y-102956250D01*
X95687826Y-102980142D01*
X95684316Y-103003803D01*
X95678504Y-103027007D01*
X95670446Y-103049529D01*
X95660218Y-103071153D01*
X95647921Y-103091670D01*
X95633671Y-103110883D01*
X95617607Y-103128607D01*
X95599883Y-103144671D01*
X95580670Y-103158921D01*
X95560153Y-103171218D01*
X95538529Y-103181446D01*
X95516007Y-103189504D01*
X95492803Y-103195316D01*
X95469142Y-103198826D01*
X95445250Y-103200000D01*
X94957750Y-103200000D01*
X94933858Y-103198826D01*
X94910197Y-103195316D01*
X94886993Y-103189504D01*
X94864471Y-103181446D01*
X94842847Y-103171218D01*
X94822330Y-103158921D01*
X94803117Y-103144671D01*
X94785393Y-103128607D01*
X94769329Y-103110883D01*
X94755079Y-103091670D01*
X94742782Y-103071153D01*
X94732554Y-103049529D01*
X94724496Y-103027007D01*
X94718684Y-103003803D01*
X94715174Y-102980142D01*
X94714000Y-102956250D01*
X94714000Y-102043750D01*
X94715174Y-102019858D01*
X94718684Y-101996197D01*
X94724496Y-101972993D01*
X94732554Y-101950471D01*
X94742782Y-101928847D01*
X94755079Y-101908330D01*
X94769329Y-101889117D01*
X94785393Y-101871393D01*
X94803117Y-101855329D01*
X94822330Y-101841079D01*
X94842847Y-101828782D01*
X94864471Y-101818554D01*
X94886993Y-101810496D01*
X94910197Y-101804684D01*
X94933858Y-101801174D01*
X94957750Y-101800000D01*
X95445250Y-101800000D01*
X95469142Y-101801174D01*
X95469142Y-101801174D01*
G37*
D26*
X95201500Y-102500000D03*
D13*
G36*
X97344142Y-101801174D02*
X97367803Y-101804684D01*
X97391007Y-101810496D01*
X97413529Y-101818554D01*
X97435153Y-101828782D01*
X97455670Y-101841079D01*
X97474883Y-101855329D01*
X97492607Y-101871393D01*
X97508671Y-101889117D01*
X97522921Y-101908330D01*
X97535218Y-101928847D01*
X97545446Y-101950471D01*
X97553504Y-101972993D01*
X97559316Y-101996197D01*
X97562826Y-102019858D01*
X97564000Y-102043750D01*
X97564000Y-102956250D01*
X97562826Y-102980142D01*
X97559316Y-103003803D01*
X97553504Y-103027007D01*
X97545446Y-103049529D01*
X97535218Y-103071153D01*
X97522921Y-103091670D01*
X97508671Y-103110883D01*
X97492607Y-103128607D01*
X97474883Y-103144671D01*
X97455670Y-103158921D01*
X97435153Y-103171218D01*
X97413529Y-103181446D01*
X97391007Y-103189504D01*
X97367803Y-103195316D01*
X97344142Y-103198826D01*
X97320250Y-103200000D01*
X96832750Y-103200000D01*
X96808858Y-103198826D01*
X96785197Y-103195316D01*
X96761993Y-103189504D01*
X96739471Y-103181446D01*
X96717847Y-103171218D01*
X96697330Y-103158921D01*
X96678117Y-103144671D01*
X96660393Y-103128607D01*
X96644329Y-103110883D01*
X96630079Y-103091670D01*
X96617782Y-103071153D01*
X96607554Y-103049529D01*
X96599496Y-103027007D01*
X96593684Y-103003803D01*
X96590174Y-102980142D01*
X96589000Y-102956250D01*
X96589000Y-102043750D01*
X96590174Y-102019858D01*
X96593684Y-101996197D01*
X96599496Y-101972993D01*
X96607554Y-101950471D01*
X96617782Y-101928847D01*
X96630079Y-101908330D01*
X96644329Y-101889117D01*
X96660393Y-101871393D01*
X96678117Y-101855329D01*
X96697330Y-101841079D01*
X96717847Y-101828782D01*
X96739471Y-101818554D01*
X96761993Y-101810496D01*
X96785197Y-101804684D01*
X96808858Y-101801174D01*
X96832750Y-101800000D01*
X97320250Y-101800000D01*
X97344142Y-101801174D01*
X97344142Y-101801174D01*
G37*
D26*
X97076500Y-102500000D03*
D13*
G36*
X95881458Y-99169710D02*
X95895776Y-99171834D01*
X95909817Y-99175351D01*
X95923446Y-99180228D01*
X95936531Y-99186417D01*
X95948947Y-99193858D01*
X95960573Y-99202481D01*
X95971298Y-99212202D01*
X95981019Y-99222927D01*
X95989642Y-99234553D01*
X95997083Y-99246969D01*
X96003272Y-99260054D01*
X96008149Y-99273683D01*
X96011666Y-99287724D01*
X96013790Y-99302042D01*
X96014500Y-99316500D01*
X96014500Y-99611500D01*
X96013790Y-99625958D01*
X96011666Y-99640276D01*
X96008149Y-99654317D01*
X96003272Y-99667946D01*
X95997083Y-99681031D01*
X95989642Y-99693447D01*
X95981019Y-99705073D01*
X95971298Y-99715798D01*
X95960573Y-99725519D01*
X95948947Y-99734142D01*
X95936531Y-99741583D01*
X95923446Y-99747772D01*
X95909817Y-99752649D01*
X95895776Y-99756166D01*
X95881458Y-99758290D01*
X95867000Y-99759000D01*
X95522000Y-99759000D01*
X95507542Y-99758290D01*
X95493224Y-99756166D01*
X95479183Y-99752649D01*
X95465554Y-99747772D01*
X95452469Y-99741583D01*
X95440053Y-99734142D01*
X95428427Y-99725519D01*
X95417702Y-99715798D01*
X95407981Y-99705073D01*
X95399358Y-99693447D01*
X95391917Y-99681031D01*
X95385728Y-99667946D01*
X95380851Y-99654317D01*
X95377334Y-99640276D01*
X95375210Y-99625958D01*
X95374500Y-99611500D01*
X95374500Y-99316500D01*
X95375210Y-99302042D01*
X95377334Y-99287724D01*
X95380851Y-99273683D01*
X95385728Y-99260054D01*
X95391917Y-99246969D01*
X95399358Y-99234553D01*
X95407981Y-99222927D01*
X95417702Y-99212202D01*
X95428427Y-99202481D01*
X95440053Y-99193858D01*
X95452469Y-99186417D01*
X95465554Y-99180228D01*
X95479183Y-99175351D01*
X95493224Y-99171834D01*
X95507542Y-99169710D01*
X95522000Y-99169000D01*
X95867000Y-99169000D01*
X95881458Y-99169710D01*
X95881458Y-99169710D01*
G37*
D14*
X95694500Y-99464000D03*
D13*
G36*
X95881458Y-100139710D02*
X95895776Y-100141834D01*
X95909817Y-100145351D01*
X95923446Y-100150228D01*
X95936531Y-100156417D01*
X95948947Y-100163858D01*
X95960573Y-100172481D01*
X95971298Y-100182202D01*
X95981019Y-100192927D01*
X95989642Y-100204553D01*
X95997083Y-100216969D01*
X96003272Y-100230054D01*
X96008149Y-100243683D01*
X96011666Y-100257724D01*
X96013790Y-100272042D01*
X96014500Y-100286500D01*
X96014500Y-100581500D01*
X96013790Y-100595958D01*
X96011666Y-100610276D01*
X96008149Y-100624317D01*
X96003272Y-100637946D01*
X95997083Y-100651031D01*
X95989642Y-100663447D01*
X95981019Y-100675073D01*
X95971298Y-100685798D01*
X95960573Y-100695519D01*
X95948947Y-100704142D01*
X95936531Y-100711583D01*
X95923446Y-100717772D01*
X95909817Y-100722649D01*
X95895776Y-100726166D01*
X95881458Y-100728290D01*
X95867000Y-100729000D01*
X95522000Y-100729000D01*
X95507542Y-100728290D01*
X95493224Y-100726166D01*
X95479183Y-100722649D01*
X95465554Y-100717772D01*
X95452469Y-100711583D01*
X95440053Y-100704142D01*
X95428427Y-100695519D01*
X95417702Y-100685798D01*
X95407981Y-100675073D01*
X95399358Y-100663447D01*
X95391917Y-100651031D01*
X95385728Y-100637946D01*
X95380851Y-100624317D01*
X95377334Y-100610276D01*
X95375210Y-100595958D01*
X95374500Y-100581500D01*
X95374500Y-100286500D01*
X95375210Y-100272042D01*
X95377334Y-100257724D01*
X95380851Y-100243683D01*
X95385728Y-100230054D01*
X95391917Y-100216969D01*
X95399358Y-100204553D01*
X95407981Y-100192927D01*
X95417702Y-100182202D01*
X95428427Y-100172481D01*
X95440053Y-100163858D01*
X95452469Y-100156417D01*
X95465554Y-100150228D01*
X95479183Y-100145351D01*
X95493224Y-100141834D01*
X95507542Y-100139710D01*
X95522000Y-100139000D01*
X95867000Y-100139000D01*
X95881458Y-100139710D01*
X95881458Y-100139710D01*
G37*
D14*
X95694500Y-100434000D03*
D13*
G36*
X97087958Y-99169710D02*
X97102276Y-99171834D01*
X97116317Y-99175351D01*
X97129946Y-99180228D01*
X97143031Y-99186417D01*
X97155447Y-99193858D01*
X97167073Y-99202481D01*
X97177798Y-99212202D01*
X97187519Y-99222927D01*
X97196142Y-99234553D01*
X97203583Y-99246969D01*
X97209772Y-99260054D01*
X97214649Y-99273683D01*
X97218166Y-99287724D01*
X97220290Y-99302042D01*
X97221000Y-99316500D01*
X97221000Y-99611500D01*
X97220290Y-99625958D01*
X97218166Y-99640276D01*
X97214649Y-99654317D01*
X97209772Y-99667946D01*
X97203583Y-99681031D01*
X97196142Y-99693447D01*
X97187519Y-99705073D01*
X97177798Y-99715798D01*
X97167073Y-99725519D01*
X97155447Y-99734142D01*
X97143031Y-99741583D01*
X97129946Y-99747772D01*
X97116317Y-99752649D01*
X97102276Y-99756166D01*
X97087958Y-99758290D01*
X97073500Y-99759000D01*
X96728500Y-99759000D01*
X96714042Y-99758290D01*
X96699724Y-99756166D01*
X96685683Y-99752649D01*
X96672054Y-99747772D01*
X96658969Y-99741583D01*
X96646553Y-99734142D01*
X96634927Y-99725519D01*
X96624202Y-99715798D01*
X96614481Y-99705073D01*
X96605858Y-99693447D01*
X96598417Y-99681031D01*
X96592228Y-99667946D01*
X96587351Y-99654317D01*
X96583834Y-99640276D01*
X96581710Y-99625958D01*
X96581000Y-99611500D01*
X96581000Y-99316500D01*
X96581710Y-99302042D01*
X96583834Y-99287724D01*
X96587351Y-99273683D01*
X96592228Y-99260054D01*
X96598417Y-99246969D01*
X96605858Y-99234553D01*
X96614481Y-99222927D01*
X96624202Y-99212202D01*
X96634927Y-99202481D01*
X96646553Y-99193858D01*
X96658969Y-99186417D01*
X96672054Y-99180228D01*
X96685683Y-99175351D01*
X96699724Y-99171834D01*
X96714042Y-99169710D01*
X96728500Y-99169000D01*
X97073500Y-99169000D01*
X97087958Y-99169710D01*
X97087958Y-99169710D01*
G37*
D14*
X96901000Y-99464000D03*
D13*
G36*
X97087958Y-100139710D02*
X97102276Y-100141834D01*
X97116317Y-100145351D01*
X97129946Y-100150228D01*
X97143031Y-100156417D01*
X97155447Y-100163858D01*
X97167073Y-100172481D01*
X97177798Y-100182202D01*
X97187519Y-100192927D01*
X97196142Y-100204553D01*
X97203583Y-100216969D01*
X97209772Y-100230054D01*
X97214649Y-100243683D01*
X97218166Y-100257724D01*
X97220290Y-100272042D01*
X97221000Y-100286500D01*
X97221000Y-100581500D01*
X97220290Y-100595958D01*
X97218166Y-100610276D01*
X97214649Y-100624317D01*
X97209772Y-100637946D01*
X97203583Y-100651031D01*
X97196142Y-100663447D01*
X97187519Y-100675073D01*
X97177798Y-100685798D01*
X97167073Y-100695519D01*
X97155447Y-100704142D01*
X97143031Y-100711583D01*
X97129946Y-100717772D01*
X97116317Y-100722649D01*
X97102276Y-100726166D01*
X97087958Y-100728290D01*
X97073500Y-100729000D01*
X96728500Y-100729000D01*
X96714042Y-100728290D01*
X96699724Y-100726166D01*
X96685683Y-100722649D01*
X96672054Y-100717772D01*
X96658969Y-100711583D01*
X96646553Y-100704142D01*
X96634927Y-100695519D01*
X96624202Y-100685798D01*
X96614481Y-100675073D01*
X96605858Y-100663447D01*
X96598417Y-100651031D01*
X96592228Y-100637946D01*
X96587351Y-100624317D01*
X96583834Y-100610276D01*
X96581710Y-100595958D01*
X96581000Y-100581500D01*
X96581000Y-100286500D01*
X96581710Y-100272042D01*
X96583834Y-100257724D01*
X96587351Y-100243683D01*
X96592228Y-100230054D01*
X96598417Y-100216969D01*
X96605858Y-100204553D01*
X96614481Y-100192927D01*
X96624202Y-100182202D01*
X96634927Y-100172481D01*
X96646553Y-100163858D01*
X96658969Y-100156417D01*
X96672054Y-100150228D01*
X96685683Y-100145351D01*
X96699724Y-100141834D01*
X96714042Y-100139710D01*
X96728500Y-100139000D01*
X97073500Y-100139000D01*
X97087958Y-100139710D01*
X97087958Y-100139710D01*
G37*
D14*
X96901000Y-100434000D03*
D13*
G36*
X100341958Y-97026210D02*
X100356276Y-97028334D01*
X100370317Y-97031851D01*
X100383946Y-97036728D01*
X100397031Y-97042917D01*
X100409447Y-97050358D01*
X100421073Y-97058981D01*
X100431798Y-97068702D01*
X100441519Y-97079427D01*
X100450142Y-97091053D01*
X100457583Y-97103469D01*
X100463772Y-97116554D01*
X100468649Y-97130183D01*
X100472166Y-97144224D01*
X100474290Y-97158542D01*
X100475000Y-97173000D01*
X100475000Y-97518000D01*
X100474290Y-97532458D01*
X100472166Y-97546776D01*
X100468649Y-97560817D01*
X100463772Y-97574446D01*
X100457583Y-97587531D01*
X100450142Y-97599947D01*
X100441519Y-97611573D01*
X100431798Y-97622298D01*
X100421073Y-97632019D01*
X100409447Y-97640642D01*
X100397031Y-97648083D01*
X100383946Y-97654272D01*
X100370317Y-97659149D01*
X100356276Y-97662666D01*
X100341958Y-97664790D01*
X100327500Y-97665500D01*
X100032500Y-97665500D01*
X100018042Y-97664790D01*
X100003724Y-97662666D01*
X99989683Y-97659149D01*
X99976054Y-97654272D01*
X99962969Y-97648083D01*
X99950553Y-97640642D01*
X99938927Y-97632019D01*
X99928202Y-97622298D01*
X99918481Y-97611573D01*
X99909858Y-97599947D01*
X99902417Y-97587531D01*
X99896228Y-97574446D01*
X99891351Y-97560817D01*
X99887834Y-97546776D01*
X99885710Y-97532458D01*
X99885000Y-97518000D01*
X99885000Y-97173000D01*
X99885710Y-97158542D01*
X99887834Y-97144224D01*
X99891351Y-97130183D01*
X99896228Y-97116554D01*
X99902417Y-97103469D01*
X99909858Y-97091053D01*
X99918481Y-97079427D01*
X99928202Y-97068702D01*
X99938927Y-97058981D01*
X99950553Y-97050358D01*
X99962969Y-97042917D01*
X99976054Y-97036728D01*
X99989683Y-97031851D01*
X100003724Y-97028334D01*
X100018042Y-97026210D01*
X100032500Y-97025500D01*
X100327500Y-97025500D01*
X100341958Y-97026210D01*
X100341958Y-97026210D01*
G37*
D14*
X100180000Y-97345500D03*
D13*
G36*
X99371958Y-97026210D02*
X99386276Y-97028334D01*
X99400317Y-97031851D01*
X99413946Y-97036728D01*
X99427031Y-97042917D01*
X99439447Y-97050358D01*
X99451073Y-97058981D01*
X99461798Y-97068702D01*
X99471519Y-97079427D01*
X99480142Y-97091053D01*
X99487583Y-97103469D01*
X99493772Y-97116554D01*
X99498649Y-97130183D01*
X99502166Y-97144224D01*
X99504290Y-97158542D01*
X99505000Y-97173000D01*
X99505000Y-97518000D01*
X99504290Y-97532458D01*
X99502166Y-97546776D01*
X99498649Y-97560817D01*
X99493772Y-97574446D01*
X99487583Y-97587531D01*
X99480142Y-97599947D01*
X99471519Y-97611573D01*
X99461798Y-97622298D01*
X99451073Y-97632019D01*
X99439447Y-97640642D01*
X99427031Y-97648083D01*
X99413946Y-97654272D01*
X99400317Y-97659149D01*
X99386276Y-97662666D01*
X99371958Y-97664790D01*
X99357500Y-97665500D01*
X99062500Y-97665500D01*
X99048042Y-97664790D01*
X99033724Y-97662666D01*
X99019683Y-97659149D01*
X99006054Y-97654272D01*
X98992969Y-97648083D01*
X98980553Y-97640642D01*
X98968927Y-97632019D01*
X98958202Y-97622298D01*
X98948481Y-97611573D01*
X98939858Y-97599947D01*
X98932417Y-97587531D01*
X98926228Y-97574446D01*
X98921351Y-97560817D01*
X98917834Y-97546776D01*
X98915710Y-97532458D01*
X98915000Y-97518000D01*
X98915000Y-97173000D01*
X98915710Y-97158542D01*
X98917834Y-97144224D01*
X98921351Y-97130183D01*
X98926228Y-97116554D01*
X98932417Y-97103469D01*
X98939858Y-97091053D01*
X98948481Y-97079427D01*
X98958202Y-97068702D01*
X98968927Y-97058981D01*
X98980553Y-97050358D01*
X98992969Y-97042917D01*
X99006054Y-97036728D01*
X99019683Y-97031851D01*
X99033724Y-97028334D01*
X99048042Y-97026210D01*
X99062500Y-97025500D01*
X99357500Y-97025500D01*
X99371958Y-97026210D01*
X99371958Y-97026210D01*
G37*
D14*
X99210000Y-97345500D03*
D13*
G36*
X98294458Y-99169710D02*
X98308776Y-99171834D01*
X98322817Y-99175351D01*
X98336446Y-99180228D01*
X98349531Y-99186417D01*
X98361947Y-99193858D01*
X98373573Y-99202481D01*
X98384298Y-99212202D01*
X98394019Y-99222927D01*
X98402642Y-99234553D01*
X98410083Y-99246969D01*
X98416272Y-99260054D01*
X98421149Y-99273683D01*
X98424666Y-99287724D01*
X98426790Y-99302042D01*
X98427500Y-99316500D01*
X98427500Y-99611500D01*
X98426790Y-99625958D01*
X98424666Y-99640276D01*
X98421149Y-99654317D01*
X98416272Y-99667946D01*
X98410083Y-99681031D01*
X98402642Y-99693447D01*
X98394019Y-99705073D01*
X98384298Y-99715798D01*
X98373573Y-99725519D01*
X98361947Y-99734142D01*
X98349531Y-99741583D01*
X98336446Y-99747772D01*
X98322817Y-99752649D01*
X98308776Y-99756166D01*
X98294458Y-99758290D01*
X98280000Y-99759000D01*
X97935000Y-99759000D01*
X97920542Y-99758290D01*
X97906224Y-99756166D01*
X97892183Y-99752649D01*
X97878554Y-99747772D01*
X97865469Y-99741583D01*
X97853053Y-99734142D01*
X97841427Y-99725519D01*
X97830702Y-99715798D01*
X97820981Y-99705073D01*
X97812358Y-99693447D01*
X97804917Y-99681031D01*
X97798728Y-99667946D01*
X97793851Y-99654317D01*
X97790334Y-99640276D01*
X97788210Y-99625958D01*
X97787500Y-99611500D01*
X97787500Y-99316500D01*
X97788210Y-99302042D01*
X97790334Y-99287724D01*
X97793851Y-99273683D01*
X97798728Y-99260054D01*
X97804917Y-99246969D01*
X97812358Y-99234553D01*
X97820981Y-99222927D01*
X97830702Y-99212202D01*
X97841427Y-99202481D01*
X97853053Y-99193858D01*
X97865469Y-99186417D01*
X97878554Y-99180228D01*
X97892183Y-99175351D01*
X97906224Y-99171834D01*
X97920542Y-99169710D01*
X97935000Y-99169000D01*
X98280000Y-99169000D01*
X98294458Y-99169710D01*
X98294458Y-99169710D01*
G37*
D14*
X98107500Y-99464000D03*
D13*
G36*
X98294458Y-100139710D02*
X98308776Y-100141834D01*
X98322817Y-100145351D01*
X98336446Y-100150228D01*
X98349531Y-100156417D01*
X98361947Y-100163858D01*
X98373573Y-100172481D01*
X98384298Y-100182202D01*
X98394019Y-100192927D01*
X98402642Y-100204553D01*
X98410083Y-100216969D01*
X98416272Y-100230054D01*
X98421149Y-100243683D01*
X98424666Y-100257724D01*
X98426790Y-100272042D01*
X98427500Y-100286500D01*
X98427500Y-100581500D01*
X98426790Y-100595958D01*
X98424666Y-100610276D01*
X98421149Y-100624317D01*
X98416272Y-100637946D01*
X98410083Y-100651031D01*
X98402642Y-100663447D01*
X98394019Y-100675073D01*
X98384298Y-100685798D01*
X98373573Y-100695519D01*
X98361947Y-100704142D01*
X98349531Y-100711583D01*
X98336446Y-100717772D01*
X98322817Y-100722649D01*
X98308776Y-100726166D01*
X98294458Y-100728290D01*
X98280000Y-100729000D01*
X97935000Y-100729000D01*
X97920542Y-100728290D01*
X97906224Y-100726166D01*
X97892183Y-100722649D01*
X97878554Y-100717772D01*
X97865469Y-100711583D01*
X97853053Y-100704142D01*
X97841427Y-100695519D01*
X97830702Y-100685798D01*
X97820981Y-100675073D01*
X97812358Y-100663447D01*
X97804917Y-100651031D01*
X97798728Y-100637946D01*
X97793851Y-100624317D01*
X97790334Y-100610276D01*
X97788210Y-100595958D01*
X97787500Y-100581500D01*
X97787500Y-100286500D01*
X97788210Y-100272042D01*
X97790334Y-100257724D01*
X97793851Y-100243683D01*
X97798728Y-100230054D01*
X97804917Y-100216969D01*
X97812358Y-100204553D01*
X97820981Y-100192927D01*
X97830702Y-100182202D01*
X97841427Y-100172481D01*
X97853053Y-100163858D01*
X97865469Y-100156417D01*
X97878554Y-100150228D01*
X97892183Y-100145351D01*
X97906224Y-100141834D01*
X97920542Y-100139710D01*
X97935000Y-100139000D01*
X98280000Y-100139000D01*
X98294458Y-100139710D01*
X98294458Y-100139710D01*
G37*
D14*
X98107500Y-100434000D03*
D13*
G36*
X88186958Y-85470710D02*
X88201276Y-85472834D01*
X88215317Y-85476351D01*
X88228946Y-85481228D01*
X88242031Y-85487417D01*
X88254447Y-85494858D01*
X88266073Y-85503481D01*
X88276798Y-85513202D01*
X88286519Y-85523927D01*
X88295142Y-85535553D01*
X88302583Y-85547969D01*
X88308772Y-85561054D01*
X88313649Y-85574683D01*
X88317166Y-85588724D01*
X88319290Y-85603042D01*
X88320000Y-85617500D01*
X88320000Y-85912500D01*
X88319290Y-85926958D01*
X88317166Y-85941276D01*
X88313649Y-85955317D01*
X88308772Y-85968946D01*
X88302583Y-85982031D01*
X88295142Y-85994447D01*
X88286519Y-86006073D01*
X88276798Y-86016798D01*
X88266073Y-86026519D01*
X88254447Y-86035142D01*
X88242031Y-86042583D01*
X88228946Y-86048772D01*
X88215317Y-86053649D01*
X88201276Y-86057166D01*
X88186958Y-86059290D01*
X88172500Y-86060000D01*
X87827500Y-86060000D01*
X87813042Y-86059290D01*
X87798724Y-86057166D01*
X87784683Y-86053649D01*
X87771054Y-86048772D01*
X87757969Y-86042583D01*
X87745553Y-86035142D01*
X87733927Y-86026519D01*
X87723202Y-86016798D01*
X87713481Y-86006073D01*
X87704858Y-85994447D01*
X87697417Y-85982031D01*
X87691228Y-85968946D01*
X87686351Y-85955317D01*
X87682834Y-85941276D01*
X87680710Y-85926958D01*
X87680000Y-85912500D01*
X87680000Y-85617500D01*
X87680710Y-85603042D01*
X87682834Y-85588724D01*
X87686351Y-85574683D01*
X87691228Y-85561054D01*
X87697417Y-85547969D01*
X87704858Y-85535553D01*
X87713481Y-85523927D01*
X87723202Y-85513202D01*
X87733927Y-85503481D01*
X87745553Y-85494858D01*
X87757969Y-85487417D01*
X87771054Y-85481228D01*
X87784683Y-85476351D01*
X87798724Y-85472834D01*
X87813042Y-85470710D01*
X87827500Y-85470000D01*
X88172500Y-85470000D01*
X88186958Y-85470710D01*
X88186958Y-85470710D01*
G37*
D14*
X88000000Y-85765000D03*
D13*
G36*
X88186958Y-86440710D02*
X88201276Y-86442834D01*
X88215317Y-86446351D01*
X88228946Y-86451228D01*
X88242031Y-86457417D01*
X88254447Y-86464858D01*
X88266073Y-86473481D01*
X88276798Y-86483202D01*
X88286519Y-86493927D01*
X88295142Y-86505553D01*
X88302583Y-86517969D01*
X88308772Y-86531054D01*
X88313649Y-86544683D01*
X88317166Y-86558724D01*
X88319290Y-86573042D01*
X88320000Y-86587500D01*
X88320000Y-86882500D01*
X88319290Y-86896958D01*
X88317166Y-86911276D01*
X88313649Y-86925317D01*
X88308772Y-86938946D01*
X88302583Y-86952031D01*
X88295142Y-86964447D01*
X88286519Y-86976073D01*
X88276798Y-86986798D01*
X88266073Y-86996519D01*
X88254447Y-87005142D01*
X88242031Y-87012583D01*
X88228946Y-87018772D01*
X88215317Y-87023649D01*
X88201276Y-87027166D01*
X88186958Y-87029290D01*
X88172500Y-87030000D01*
X87827500Y-87030000D01*
X87813042Y-87029290D01*
X87798724Y-87027166D01*
X87784683Y-87023649D01*
X87771054Y-87018772D01*
X87757969Y-87012583D01*
X87745553Y-87005142D01*
X87733927Y-86996519D01*
X87723202Y-86986798D01*
X87713481Y-86976073D01*
X87704858Y-86964447D01*
X87697417Y-86952031D01*
X87691228Y-86938946D01*
X87686351Y-86925317D01*
X87682834Y-86911276D01*
X87680710Y-86896958D01*
X87680000Y-86882500D01*
X87680000Y-86587500D01*
X87680710Y-86573042D01*
X87682834Y-86558724D01*
X87686351Y-86544683D01*
X87691228Y-86531054D01*
X87697417Y-86517969D01*
X87704858Y-86505553D01*
X87713481Y-86493927D01*
X87723202Y-86483202D01*
X87733927Y-86473481D01*
X87745553Y-86464858D01*
X87757969Y-86457417D01*
X87771054Y-86451228D01*
X87784683Y-86446351D01*
X87798724Y-86442834D01*
X87813042Y-86440710D01*
X87827500Y-86440000D01*
X88172500Y-86440000D01*
X88186958Y-86440710D01*
X88186958Y-86440710D01*
G37*
D14*
X88000000Y-86735000D03*
D13*
G36*
X91646958Y-77430710D02*
X91661276Y-77432834D01*
X91675317Y-77436351D01*
X91688946Y-77441228D01*
X91702031Y-77447417D01*
X91714447Y-77454858D01*
X91726073Y-77463481D01*
X91736798Y-77473202D01*
X91746519Y-77483927D01*
X91755142Y-77495553D01*
X91762583Y-77507969D01*
X91768772Y-77521054D01*
X91773649Y-77534683D01*
X91777166Y-77548724D01*
X91779290Y-77563042D01*
X91780000Y-77577500D01*
X91780000Y-77922500D01*
X91779290Y-77936958D01*
X91777166Y-77951276D01*
X91773649Y-77965317D01*
X91768772Y-77978946D01*
X91762583Y-77992031D01*
X91755142Y-78004447D01*
X91746519Y-78016073D01*
X91736798Y-78026798D01*
X91726073Y-78036519D01*
X91714447Y-78045142D01*
X91702031Y-78052583D01*
X91688946Y-78058772D01*
X91675317Y-78063649D01*
X91661276Y-78067166D01*
X91646958Y-78069290D01*
X91632500Y-78070000D01*
X91337500Y-78070000D01*
X91323042Y-78069290D01*
X91308724Y-78067166D01*
X91294683Y-78063649D01*
X91281054Y-78058772D01*
X91267969Y-78052583D01*
X91255553Y-78045142D01*
X91243927Y-78036519D01*
X91233202Y-78026798D01*
X91223481Y-78016073D01*
X91214858Y-78004447D01*
X91207417Y-77992031D01*
X91201228Y-77978946D01*
X91196351Y-77965317D01*
X91192834Y-77951276D01*
X91190710Y-77936958D01*
X91190000Y-77922500D01*
X91190000Y-77577500D01*
X91190710Y-77563042D01*
X91192834Y-77548724D01*
X91196351Y-77534683D01*
X91201228Y-77521054D01*
X91207417Y-77507969D01*
X91214858Y-77495553D01*
X91223481Y-77483927D01*
X91233202Y-77473202D01*
X91243927Y-77463481D01*
X91255553Y-77454858D01*
X91267969Y-77447417D01*
X91281054Y-77441228D01*
X91294683Y-77436351D01*
X91308724Y-77432834D01*
X91323042Y-77430710D01*
X91337500Y-77430000D01*
X91632500Y-77430000D01*
X91646958Y-77430710D01*
X91646958Y-77430710D01*
G37*
D14*
X91485000Y-77750000D03*
D13*
G36*
X90676958Y-77430710D02*
X90691276Y-77432834D01*
X90705317Y-77436351D01*
X90718946Y-77441228D01*
X90732031Y-77447417D01*
X90744447Y-77454858D01*
X90756073Y-77463481D01*
X90766798Y-77473202D01*
X90776519Y-77483927D01*
X90785142Y-77495553D01*
X90792583Y-77507969D01*
X90798772Y-77521054D01*
X90803649Y-77534683D01*
X90807166Y-77548724D01*
X90809290Y-77563042D01*
X90810000Y-77577500D01*
X90810000Y-77922500D01*
X90809290Y-77936958D01*
X90807166Y-77951276D01*
X90803649Y-77965317D01*
X90798772Y-77978946D01*
X90792583Y-77992031D01*
X90785142Y-78004447D01*
X90776519Y-78016073D01*
X90766798Y-78026798D01*
X90756073Y-78036519D01*
X90744447Y-78045142D01*
X90732031Y-78052583D01*
X90718946Y-78058772D01*
X90705317Y-78063649D01*
X90691276Y-78067166D01*
X90676958Y-78069290D01*
X90662500Y-78070000D01*
X90367500Y-78070000D01*
X90353042Y-78069290D01*
X90338724Y-78067166D01*
X90324683Y-78063649D01*
X90311054Y-78058772D01*
X90297969Y-78052583D01*
X90285553Y-78045142D01*
X90273927Y-78036519D01*
X90263202Y-78026798D01*
X90253481Y-78016073D01*
X90244858Y-78004447D01*
X90237417Y-77992031D01*
X90231228Y-77978946D01*
X90226351Y-77965317D01*
X90222834Y-77951276D01*
X90220710Y-77936958D01*
X90220000Y-77922500D01*
X90220000Y-77577500D01*
X90220710Y-77563042D01*
X90222834Y-77548724D01*
X90226351Y-77534683D01*
X90231228Y-77521054D01*
X90237417Y-77507969D01*
X90244858Y-77495553D01*
X90253481Y-77483927D01*
X90263202Y-77473202D01*
X90273927Y-77463481D01*
X90285553Y-77454858D01*
X90297969Y-77447417D01*
X90311054Y-77441228D01*
X90324683Y-77436351D01*
X90338724Y-77432834D01*
X90353042Y-77430710D01*
X90367500Y-77430000D01*
X90662500Y-77430000D01*
X90676958Y-77430710D01*
X90676958Y-77430710D01*
G37*
D14*
X90515000Y-77750000D03*
D13*
G36*
X93686958Y-82470710D02*
X93701276Y-82472834D01*
X93715317Y-82476351D01*
X93728946Y-82481228D01*
X93742031Y-82487417D01*
X93754447Y-82494858D01*
X93766073Y-82503481D01*
X93776798Y-82513202D01*
X93786519Y-82523927D01*
X93795142Y-82535553D01*
X93802583Y-82547969D01*
X93808772Y-82561054D01*
X93813649Y-82574683D01*
X93817166Y-82588724D01*
X93819290Y-82603042D01*
X93820000Y-82617500D01*
X93820000Y-82912500D01*
X93819290Y-82926958D01*
X93817166Y-82941276D01*
X93813649Y-82955317D01*
X93808772Y-82968946D01*
X93802583Y-82982031D01*
X93795142Y-82994447D01*
X93786519Y-83006073D01*
X93776798Y-83016798D01*
X93766073Y-83026519D01*
X93754447Y-83035142D01*
X93742031Y-83042583D01*
X93728946Y-83048772D01*
X93715317Y-83053649D01*
X93701276Y-83057166D01*
X93686958Y-83059290D01*
X93672500Y-83060000D01*
X93327500Y-83060000D01*
X93313042Y-83059290D01*
X93298724Y-83057166D01*
X93284683Y-83053649D01*
X93271054Y-83048772D01*
X93257969Y-83042583D01*
X93245553Y-83035142D01*
X93233927Y-83026519D01*
X93223202Y-83016798D01*
X93213481Y-83006073D01*
X93204858Y-82994447D01*
X93197417Y-82982031D01*
X93191228Y-82968946D01*
X93186351Y-82955317D01*
X93182834Y-82941276D01*
X93180710Y-82926958D01*
X93180000Y-82912500D01*
X93180000Y-82617500D01*
X93180710Y-82603042D01*
X93182834Y-82588724D01*
X93186351Y-82574683D01*
X93191228Y-82561054D01*
X93197417Y-82547969D01*
X93204858Y-82535553D01*
X93213481Y-82523927D01*
X93223202Y-82513202D01*
X93233927Y-82503481D01*
X93245553Y-82494858D01*
X93257969Y-82487417D01*
X93271054Y-82481228D01*
X93284683Y-82476351D01*
X93298724Y-82472834D01*
X93313042Y-82470710D01*
X93327500Y-82470000D01*
X93672500Y-82470000D01*
X93686958Y-82470710D01*
X93686958Y-82470710D01*
G37*
D14*
X93500000Y-82765000D03*
D13*
G36*
X93686958Y-83440710D02*
X93701276Y-83442834D01*
X93715317Y-83446351D01*
X93728946Y-83451228D01*
X93742031Y-83457417D01*
X93754447Y-83464858D01*
X93766073Y-83473481D01*
X93776798Y-83483202D01*
X93786519Y-83493927D01*
X93795142Y-83505553D01*
X93802583Y-83517969D01*
X93808772Y-83531054D01*
X93813649Y-83544683D01*
X93817166Y-83558724D01*
X93819290Y-83573042D01*
X93820000Y-83587500D01*
X93820000Y-83882500D01*
X93819290Y-83896958D01*
X93817166Y-83911276D01*
X93813649Y-83925317D01*
X93808772Y-83938946D01*
X93802583Y-83952031D01*
X93795142Y-83964447D01*
X93786519Y-83976073D01*
X93776798Y-83986798D01*
X93766073Y-83996519D01*
X93754447Y-84005142D01*
X93742031Y-84012583D01*
X93728946Y-84018772D01*
X93715317Y-84023649D01*
X93701276Y-84027166D01*
X93686958Y-84029290D01*
X93672500Y-84030000D01*
X93327500Y-84030000D01*
X93313042Y-84029290D01*
X93298724Y-84027166D01*
X93284683Y-84023649D01*
X93271054Y-84018772D01*
X93257969Y-84012583D01*
X93245553Y-84005142D01*
X93233927Y-83996519D01*
X93223202Y-83986798D01*
X93213481Y-83976073D01*
X93204858Y-83964447D01*
X93197417Y-83952031D01*
X93191228Y-83938946D01*
X93186351Y-83925317D01*
X93182834Y-83911276D01*
X93180710Y-83896958D01*
X93180000Y-83882500D01*
X93180000Y-83587500D01*
X93180710Y-83573042D01*
X93182834Y-83558724D01*
X93186351Y-83544683D01*
X93191228Y-83531054D01*
X93197417Y-83517969D01*
X93204858Y-83505553D01*
X93213481Y-83493927D01*
X93223202Y-83483202D01*
X93233927Y-83473481D01*
X93245553Y-83464858D01*
X93257969Y-83457417D01*
X93271054Y-83451228D01*
X93284683Y-83446351D01*
X93298724Y-83442834D01*
X93313042Y-83440710D01*
X93327500Y-83440000D01*
X93672500Y-83440000D01*
X93686958Y-83440710D01*
X93686958Y-83440710D01*
G37*
D14*
X93500000Y-83735000D03*
D13*
G36*
X92455142Y-82551174D02*
X92478803Y-82554684D01*
X92502007Y-82560496D01*
X92524529Y-82568554D01*
X92546153Y-82578782D01*
X92566670Y-82591079D01*
X92585883Y-82605329D01*
X92603607Y-82621393D01*
X92619671Y-82639117D01*
X92633921Y-82658330D01*
X92646218Y-82678847D01*
X92656446Y-82700471D01*
X92664504Y-82722993D01*
X92670316Y-82746197D01*
X92673826Y-82769858D01*
X92675000Y-82793750D01*
X92675000Y-83706250D01*
X92673826Y-83730142D01*
X92670316Y-83753803D01*
X92664504Y-83777007D01*
X92656446Y-83799529D01*
X92646218Y-83821153D01*
X92633921Y-83841670D01*
X92619671Y-83860883D01*
X92603607Y-83878607D01*
X92585883Y-83894671D01*
X92566670Y-83908921D01*
X92546153Y-83921218D01*
X92524529Y-83931446D01*
X92502007Y-83939504D01*
X92478803Y-83945316D01*
X92455142Y-83948826D01*
X92431250Y-83950000D01*
X91943750Y-83950000D01*
X91919858Y-83948826D01*
X91896197Y-83945316D01*
X91872993Y-83939504D01*
X91850471Y-83931446D01*
X91828847Y-83921218D01*
X91808330Y-83908921D01*
X91789117Y-83894671D01*
X91771393Y-83878607D01*
X91755329Y-83860883D01*
X91741079Y-83841670D01*
X91728782Y-83821153D01*
X91718554Y-83799529D01*
X91710496Y-83777007D01*
X91704684Y-83753803D01*
X91701174Y-83730142D01*
X91700000Y-83706250D01*
X91700000Y-82793750D01*
X91701174Y-82769858D01*
X91704684Y-82746197D01*
X91710496Y-82722993D01*
X91718554Y-82700471D01*
X91728782Y-82678847D01*
X91741079Y-82658330D01*
X91755329Y-82639117D01*
X91771393Y-82621393D01*
X91789117Y-82605329D01*
X91808330Y-82591079D01*
X91828847Y-82578782D01*
X91850471Y-82568554D01*
X91872993Y-82560496D01*
X91896197Y-82554684D01*
X91919858Y-82551174D01*
X91943750Y-82550000D01*
X92431250Y-82550000D01*
X92455142Y-82551174D01*
X92455142Y-82551174D01*
G37*
D26*
X92187500Y-83250000D03*
D13*
G36*
X90580142Y-82551174D02*
X90603803Y-82554684D01*
X90627007Y-82560496D01*
X90649529Y-82568554D01*
X90671153Y-82578782D01*
X90691670Y-82591079D01*
X90710883Y-82605329D01*
X90728607Y-82621393D01*
X90744671Y-82639117D01*
X90758921Y-82658330D01*
X90771218Y-82678847D01*
X90781446Y-82700471D01*
X90789504Y-82722993D01*
X90795316Y-82746197D01*
X90798826Y-82769858D01*
X90800000Y-82793750D01*
X90800000Y-83706250D01*
X90798826Y-83730142D01*
X90795316Y-83753803D01*
X90789504Y-83777007D01*
X90781446Y-83799529D01*
X90771218Y-83821153D01*
X90758921Y-83841670D01*
X90744671Y-83860883D01*
X90728607Y-83878607D01*
X90710883Y-83894671D01*
X90691670Y-83908921D01*
X90671153Y-83921218D01*
X90649529Y-83931446D01*
X90627007Y-83939504D01*
X90603803Y-83945316D01*
X90580142Y-83948826D01*
X90556250Y-83950000D01*
X90068750Y-83950000D01*
X90044858Y-83948826D01*
X90021197Y-83945316D01*
X89997993Y-83939504D01*
X89975471Y-83931446D01*
X89953847Y-83921218D01*
X89933330Y-83908921D01*
X89914117Y-83894671D01*
X89896393Y-83878607D01*
X89880329Y-83860883D01*
X89866079Y-83841670D01*
X89853782Y-83821153D01*
X89843554Y-83799529D01*
X89835496Y-83777007D01*
X89829684Y-83753803D01*
X89826174Y-83730142D01*
X89825000Y-83706250D01*
X89825000Y-82793750D01*
X89826174Y-82769858D01*
X89829684Y-82746197D01*
X89835496Y-82722993D01*
X89843554Y-82700471D01*
X89853782Y-82678847D01*
X89866079Y-82658330D01*
X89880329Y-82639117D01*
X89896393Y-82621393D01*
X89914117Y-82605329D01*
X89933330Y-82591079D01*
X89953847Y-82578782D01*
X89975471Y-82568554D01*
X89997993Y-82560496D01*
X90021197Y-82554684D01*
X90044858Y-82551174D01*
X90068750Y-82550000D01*
X90556250Y-82550000D01*
X90580142Y-82551174D01*
X90580142Y-82551174D01*
G37*
D26*
X90312500Y-83250000D03*
D13*
G36*
X88186958Y-81220710D02*
X88201276Y-81222834D01*
X88215317Y-81226351D01*
X88228946Y-81231228D01*
X88242031Y-81237417D01*
X88254447Y-81244858D01*
X88266073Y-81253481D01*
X88276798Y-81263202D01*
X88286519Y-81273927D01*
X88295142Y-81285553D01*
X88302583Y-81297969D01*
X88308772Y-81311054D01*
X88313649Y-81324683D01*
X88317166Y-81338724D01*
X88319290Y-81353042D01*
X88320000Y-81367500D01*
X88320000Y-81662500D01*
X88319290Y-81676958D01*
X88317166Y-81691276D01*
X88313649Y-81705317D01*
X88308772Y-81718946D01*
X88302583Y-81732031D01*
X88295142Y-81744447D01*
X88286519Y-81756073D01*
X88276798Y-81766798D01*
X88266073Y-81776519D01*
X88254447Y-81785142D01*
X88242031Y-81792583D01*
X88228946Y-81798772D01*
X88215317Y-81803649D01*
X88201276Y-81807166D01*
X88186958Y-81809290D01*
X88172500Y-81810000D01*
X87827500Y-81810000D01*
X87813042Y-81809290D01*
X87798724Y-81807166D01*
X87784683Y-81803649D01*
X87771054Y-81798772D01*
X87757969Y-81792583D01*
X87745553Y-81785142D01*
X87733927Y-81776519D01*
X87723202Y-81766798D01*
X87713481Y-81756073D01*
X87704858Y-81744447D01*
X87697417Y-81732031D01*
X87691228Y-81718946D01*
X87686351Y-81705317D01*
X87682834Y-81691276D01*
X87680710Y-81676958D01*
X87680000Y-81662500D01*
X87680000Y-81367500D01*
X87680710Y-81353042D01*
X87682834Y-81338724D01*
X87686351Y-81324683D01*
X87691228Y-81311054D01*
X87697417Y-81297969D01*
X87704858Y-81285553D01*
X87713481Y-81273927D01*
X87723202Y-81263202D01*
X87733927Y-81253481D01*
X87745553Y-81244858D01*
X87757969Y-81237417D01*
X87771054Y-81231228D01*
X87784683Y-81226351D01*
X87798724Y-81222834D01*
X87813042Y-81220710D01*
X87827500Y-81220000D01*
X88172500Y-81220000D01*
X88186958Y-81220710D01*
X88186958Y-81220710D01*
G37*
D14*
X88000000Y-81515000D03*
D13*
G36*
X88186958Y-82190710D02*
X88201276Y-82192834D01*
X88215317Y-82196351D01*
X88228946Y-82201228D01*
X88242031Y-82207417D01*
X88254447Y-82214858D01*
X88266073Y-82223481D01*
X88276798Y-82233202D01*
X88286519Y-82243927D01*
X88295142Y-82255553D01*
X88302583Y-82267969D01*
X88308772Y-82281054D01*
X88313649Y-82294683D01*
X88317166Y-82308724D01*
X88319290Y-82323042D01*
X88320000Y-82337500D01*
X88320000Y-82632500D01*
X88319290Y-82646958D01*
X88317166Y-82661276D01*
X88313649Y-82675317D01*
X88308772Y-82688946D01*
X88302583Y-82702031D01*
X88295142Y-82714447D01*
X88286519Y-82726073D01*
X88276798Y-82736798D01*
X88266073Y-82746519D01*
X88254447Y-82755142D01*
X88242031Y-82762583D01*
X88228946Y-82768772D01*
X88215317Y-82773649D01*
X88201276Y-82777166D01*
X88186958Y-82779290D01*
X88172500Y-82780000D01*
X87827500Y-82780000D01*
X87813042Y-82779290D01*
X87798724Y-82777166D01*
X87784683Y-82773649D01*
X87771054Y-82768772D01*
X87757969Y-82762583D01*
X87745553Y-82755142D01*
X87733927Y-82746519D01*
X87723202Y-82736798D01*
X87713481Y-82726073D01*
X87704858Y-82714447D01*
X87697417Y-82702031D01*
X87691228Y-82688946D01*
X87686351Y-82675317D01*
X87682834Y-82661276D01*
X87680710Y-82646958D01*
X87680000Y-82632500D01*
X87680000Y-82337500D01*
X87680710Y-82323042D01*
X87682834Y-82308724D01*
X87686351Y-82294683D01*
X87691228Y-82281054D01*
X87697417Y-82267969D01*
X87704858Y-82255553D01*
X87713481Y-82243927D01*
X87723202Y-82233202D01*
X87733927Y-82223481D01*
X87745553Y-82214858D01*
X87757969Y-82207417D01*
X87771054Y-82201228D01*
X87784683Y-82196351D01*
X87798724Y-82192834D01*
X87813042Y-82190710D01*
X87827500Y-82190000D01*
X88172500Y-82190000D01*
X88186958Y-82190710D01*
X88186958Y-82190710D01*
G37*
D14*
X88000000Y-82485000D03*
D13*
G36*
X87186958Y-90690710D02*
X87201276Y-90692834D01*
X87215317Y-90696351D01*
X87228946Y-90701228D01*
X87242031Y-90707417D01*
X87254447Y-90714858D01*
X87266073Y-90723481D01*
X87276798Y-90733202D01*
X87286519Y-90743927D01*
X87295142Y-90755553D01*
X87302583Y-90767969D01*
X87308772Y-90781054D01*
X87313649Y-90794683D01*
X87317166Y-90808724D01*
X87319290Y-90823042D01*
X87320000Y-90837500D01*
X87320000Y-91132500D01*
X87319290Y-91146958D01*
X87317166Y-91161276D01*
X87313649Y-91175317D01*
X87308772Y-91188946D01*
X87302583Y-91202031D01*
X87295142Y-91214447D01*
X87286519Y-91226073D01*
X87276798Y-91236798D01*
X87266073Y-91246519D01*
X87254447Y-91255142D01*
X87242031Y-91262583D01*
X87228946Y-91268772D01*
X87215317Y-91273649D01*
X87201276Y-91277166D01*
X87186958Y-91279290D01*
X87172500Y-91280000D01*
X86827500Y-91280000D01*
X86813042Y-91279290D01*
X86798724Y-91277166D01*
X86784683Y-91273649D01*
X86771054Y-91268772D01*
X86757969Y-91262583D01*
X86745553Y-91255142D01*
X86733927Y-91246519D01*
X86723202Y-91236798D01*
X86713481Y-91226073D01*
X86704858Y-91214447D01*
X86697417Y-91202031D01*
X86691228Y-91188946D01*
X86686351Y-91175317D01*
X86682834Y-91161276D01*
X86680710Y-91146958D01*
X86680000Y-91132500D01*
X86680000Y-90837500D01*
X86680710Y-90823042D01*
X86682834Y-90808724D01*
X86686351Y-90794683D01*
X86691228Y-90781054D01*
X86697417Y-90767969D01*
X86704858Y-90755553D01*
X86713481Y-90743927D01*
X86723202Y-90733202D01*
X86733927Y-90723481D01*
X86745553Y-90714858D01*
X86757969Y-90707417D01*
X86771054Y-90701228D01*
X86784683Y-90696351D01*
X86798724Y-90692834D01*
X86813042Y-90690710D01*
X86827500Y-90690000D01*
X87172500Y-90690000D01*
X87186958Y-90690710D01*
X87186958Y-90690710D01*
G37*
D14*
X87000000Y-90985000D03*
D13*
G36*
X87186958Y-89720710D02*
X87201276Y-89722834D01*
X87215317Y-89726351D01*
X87228946Y-89731228D01*
X87242031Y-89737417D01*
X87254447Y-89744858D01*
X87266073Y-89753481D01*
X87276798Y-89763202D01*
X87286519Y-89773927D01*
X87295142Y-89785553D01*
X87302583Y-89797969D01*
X87308772Y-89811054D01*
X87313649Y-89824683D01*
X87317166Y-89838724D01*
X87319290Y-89853042D01*
X87320000Y-89867500D01*
X87320000Y-90162500D01*
X87319290Y-90176958D01*
X87317166Y-90191276D01*
X87313649Y-90205317D01*
X87308772Y-90218946D01*
X87302583Y-90232031D01*
X87295142Y-90244447D01*
X87286519Y-90256073D01*
X87276798Y-90266798D01*
X87266073Y-90276519D01*
X87254447Y-90285142D01*
X87242031Y-90292583D01*
X87228946Y-90298772D01*
X87215317Y-90303649D01*
X87201276Y-90307166D01*
X87186958Y-90309290D01*
X87172500Y-90310000D01*
X86827500Y-90310000D01*
X86813042Y-90309290D01*
X86798724Y-90307166D01*
X86784683Y-90303649D01*
X86771054Y-90298772D01*
X86757969Y-90292583D01*
X86745553Y-90285142D01*
X86733927Y-90276519D01*
X86723202Y-90266798D01*
X86713481Y-90256073D01*
X86704858Y-90244447D01*
X86697417Y-90232031D01*
X86691228Y-90218946D01*
X86686351Y-90205317D01*
X86682834Y-90191276D01*
X86680710Y-90176958D01*
X86680000Y-90162500D01*
X86680000Y-89867500D01*
X86680710Y-89853042D01*
X86682834Y-89838724D01*
X86686351Y-89824683D01*
X86691228Y-89811054D01*
X86697417Y-89797969D01*
X86704858Y-89785553D01*
X86713481Y-89773927D01*
X86723202Y-89763202D01*
X86733927Y-89753481D01*
X86745553Y-89744858D01*
X86757969Y-89737417D01*
X86771054Y-89731228D01*
X86784683Y-89726351D01*
X86798724Y-89722834D01*
X86813042Y-89720710D01*
X86827500Y-89720000D01*
X87172500Y-89720000D01*
X87186958Y-89720710D01*
X87186958Y-89720710D01*
G37*
D14*
X87000000Y-90015000D03*
D27*
X90550000Y-79150000D03*
X91500000Y-79150000D03*
X92450000Y-79150000D03*
X92450000Y-81350000D03*
X90550000Y-81350000D03*
X91500000Y-81350000D03*
M02*
