%TF.GenerationSoftware,KiCad,Pcbnew,(5.1.4)-1*%
%TF.CreationDate,2019-12-19T18:18:08-07:00*%
%TF.ProjectId,mainboard,6d61696e-626f-4617-9264-2e6b69636164,rev?*%
%TF.SameCoordinates,Original*%
%TF.FileFunction,Legend,Bot*%
%TF.FilePolarity,Positive*%
%FSLAX46Y46*%
G04 Gerber Fmt 4.6, Leading zero omitted, Abs format (unit mm)*
G04 Created by KiCad (PCBNEW (5.1.4)-1) date 2019-12-19 18:18:08*
%MOMM*%
%LPD*%
G04 APERTURE LIST*
%ADD10C,0.076200*%
%ADD11C,0.150000*%
%ADD12C,0.010000*%
%ADD13C,0.250000*%
%ADD14C,0.120000*%
%ADD15C,0.100000*%
%ADD16C,0.200000*%
%ADD17C,0.127000*%
G04 APERTURE END LIST*
D10*
X85123261Y-103311476D02*
X85758261Y-103462666D01*
X85304690Y-103583619D01*
X85758261Y-103704571D01*
X85123261Y-103855761D01*
X85758261Y-104097666D02*
X85123261Y-104097666D01*
X85123261Y-104248857D01*
X85153500Y-104339571D01*
X85213976Y-104400047D01*
X85274452Y-104430285D01*
X85395404Y-104460523D01*
X85486119Y-104460523D01*
X85607071Y-104430285D01*
X85667547Y-104400047D01*
X85728023Y-104339571D01*
X85758261Y-104248857D01*
X85758261Y-104097666D01*
X85123261Y-104641952D02*
X85123261Y-105004809D01*
X85758261Y-104823380D02*
X85123261Y-104823380D01*
X85516357Y-105216476D02*
X85516357Y-105700285D01*
X85425642Y-106002666D02*
X85425642Y-106214333D01*
X85758261Y-106305047D02*
X85758261Y-106002666D01*
X85123261Y-106002666D01*
X85123261Y-106305047D01*
X85758261Y-106577190D02*
X85123261Y-106577190D01*
X85758261Y-106940047D01*
X85123261Y-106940047D01*
D11*
X87058500Y-104013000D02*
X86042500Y-104013000D01*
X87058500Y-105918000D02*
X87058500Y-104013000D01*
X86042500Y-105918000D02*
X87058500Y-105918000D01*
X86042500Y-104013000D02*
X86042500Y-105918000D01*
D10*
X102522261Y-83287809D02*
X102219880Y-83076142D01*
X102522261Y-82924952D02*
X101887261Y-82924952D01*
X101887261Y-83166857D01*
X101917500Y-83227333D01*
X101947738Y-83257571D01*
X102008214Y-83287809D01*
X102098928Y-83287809D01*
X102159404Y-83257571D01*
X102189642Y-83227333D01*
X102219880Y-83166857D01*
X102219880Y-82924952D01*
X102340833Y-83529714D02*
X102340833Y-83832095D01*
X102522261Y-83469238D02*
X101887261Y-83680904D01*
X102522261Y-83892571D01*
X102522261Y-84104238D02*
X101887261Y-84104238D01*
X101887261Y-84255428D01*
X101917500Y-84346142D01*
X101977976Y-84406619D01*
X102038452Y-84436857D01*
X102159404Y-84467095D01*
X102250119Y-84467095D01*
X102371071Y-84436857D01*
X102431547Y-84406619D01*
X102492023Y-84346142D01*
X102522261Y-84255428D01*
X102522261Y-84104238D01*
X102522261Y-84739238D02*
X101887261Y-84739238D01*
X101887261Y-85162571D02*
X101887261Y-85283523D01*
X101917500Y-85344000D01*
X101977976Y-85404476D01*
X102098928Y-85434714D01*
X102310595Y-85434714D01*
X102431547Y-85404476D01*
X102492023Y-85344000D01*
X102522261Y-85283523D01*
X102522261Y-85162571D01*
X102492023Y-85102095D01*
X102431547Y-85041619D01*
X102310595Y-85011380D01*
X102098928Y-85011380D01*
X101977976Y-85041619D01*
X101917500Y-85102095D01*
X101887261Y-85162571D01*
X102098928Y-86160428D02*
X102098928Y-86614000D01*
X101826785Y-86341857D02*
X102643214Y-86160428D01*
X102371071Y-86553523D02*
X102371071Y-86099952D01*
X102643214Y-86372095D02*
X101826785Y-86553523D01*
X102522261Y-87158285D02*
X102522261Y-86795428D01*
X102522261Y-86976857D02*
X101887261Y-86976857D01*
X101977976Y-86916380D01*
X102038452Y-86855904D01*
X102068690Y-86795428D01*
D11*
X120902460Y-74415942D02*
X120102459Y-74415941D01*
X85102460Y-74415941D02*
G75*
G02X84602460Y-73915941I0J500000D01*
G01*
X113602459Y-73915941D02*
G75*
G02X113102459Y-74415941I-500000J0D01*
G01*
X113102459Y-107215941D02*
G75*
G02X113602459Y-107715941I0J-500000D01*
G01*
X84602460Y-107715941D02*
G75*
G02X85102460Y-107215941I500000J0D01*
G01*
X77340460Y-91475941D02*
X76502460Y-92313941D01*
X77340460Y-98555940D02*
X76502460Y-97790000D01*
X120102460Y-72915941D02*
X113602460Y-72915941D01*
X113602459Y-107715941D02*
X113602460Y-108715941D01*
X85102460Y-107215941D02*
X113102459Y-107215941D01*
X84602460Y-108715941D02*
X84602460Y-107715941D01*
X113602460Y-108715941D02*
X120102459Y-108715940D01*
X113102459Y-74415941D02*
X93872460Y-74415941D01*
X113602460Y-72915941D02*
X113602459Y-73915941D01*
X78102460Y-72915941D02*
X78102460Y-74415941D01*
X93872460Y-74415941D02*
X93872460Y-75565000D01*
X93872460Y-75565000D02*
X89872460Y-75565000D01*
X78102460Y-74415941D02*
X77340460Y-74415941D01*
X77340460Y-74415941D02*
X77340460Y-91475941D01*
X120102460Y-107215940D02*
X120902460Y-107215940D01*
X120102459Y-74415941D02*
X120102460Y-72915941D01*
X89872460Y-75565000D02*
X89872460Y-74415941D01*
X84602460Y-72915941D02*
X78102460Y-72915941D01*
X84602460Y-73915941D02*
X84602460Y-72915941D01*
X89872460Y-74415941D02*
X85102460Y-74415941D01*
X76502460Y-92313941D02*
X76502460Y-97790000D01*
X120902460Y-107215940D02*
X120902460Y-74415942D01*
X78102460Y-107215940D02*
X78102460Y-108715940D01*
X120102459Y-108715940D02*
X120102460Y-107215940D01*
X77340460Y-98555940D02*
X77340460Y-107215940D01*
X78102460Y-108715940D02*
X84602460Y-108715941D01*
X77340460Y-107215940D02*
X78102460Y-107215940D01*
D10*
X118578690Y-75217261D02*
X118790357Y-74914880D01*
X118941547Y-75217261D02*
X118941547Y-74582261D01*
X118699642Y-74582261D01*
X118639166Y-74612500D01*
X118608928Y-74642738D01*
X118578690Y-74703214D01*
X118578690Y-74793928D01*
X118608928Y-74854404D01*
X118639166Y-74884642D01*
X118699642Y-74914880D01*
X118941547Y-74914880D01*
X118336785Y-75035833D02*
X118034404Y-75035833D01*
X118397261Y-75217261D02*
X118185595Y-74582261D01*
X117973928Y-75217261D01*
X117762261Y-75217261D02*
X117762261Y-74582261D01*
X117611071Y-74582261D01*
X117520357Y-74612500D01*
X117459880Y-74672976D01*
X117429642Y-74733452D01*
X117399404Y-74854404D01*
X117399404Y-74945119D01*
X117429642Y-75066071D01*
X117459880Y-75126547D01*
X117520357Y-75187023D01*
X117611071Y-75217261D01*
X117762261Y-75217261D01*
X117127261Y-75217261D02*
X117127261Y-74582261D01*
X116703928Y-74582261D02*
X116582976Y-74582261D01*
X116522500Y-74612500D01*
X116462023Y-74672976D01*
X116431785Y-74793928D01*
X116431785Y-75005595D01*
X116462023Y-75126547D01*
X116522500Y-75187023D01*
X116582976Y-75217261D01*
X116703928Y-75217261D01*
X116764404Y-75187023D01*
X116824880Y-75126547D01*
X116855119Y-75005595D01*
X116855119Y-74793928D01*
X116824880Y-74672976D01*
X116764404Y-74612500D01*
X116703928Y-74582261D01*
X115706071Y-74793928D02*
X115252500Y-74793928D01*
X115524642Y-74521785D02*
X115706071Y-75338214D01*
X115312976Y-75066071D02*
X115766547Y-75066071D01*
X115494404Y-75338214D02*
X115312976Y-74521785D01*
X114708214Y-75217261D02*
X115071071Y-75217261D01*
X114889642Y-75217261D02*
X114889642Y-74582261D01*
X114950119Y-74672976D01*
X115010595Y-74733452D01*
X115071071Y-74763690D01*
D12*
G36*
X95080350Y-106500527D02*
G01*
X95043863Y-106530323D01*
X95022652Y-106573959D01*
X95019782Y-106626505D01*
X95026237Y-106654742D01*
X95052020Y-106698249D01*
X95091925Y-106723492D01*
X95140554Y-106728464D01*
X95186500Y-106714366D01*
X95224105Y-106683523D01*
X95243222Y-106642718D01*
X95245323Y-106597699D01*
X95231877Y-106554218D01*
X95204353Y-106518025D01*
X95164219Y-106494870D01*
X95129045Y-106489500D01*
X95080350Y-106500527D01*
X95080350Y-106500527D01*
G37*
X95080350Y-106500527D02*
X95043863Y-106530323D01*
X95022652Y-106573959D01*
X95019782Y-106626505D01*
X95026237Y-106654742D01*
X95052020Y-106698249D01*
X95091925Y-106723492D01*
X95140554Y-106728464D01*
X95186500Y-106714366D01*
X95224105Y-106683523D01*
X95243222Y-106642718D01*
X95245323Y-106597699D01*
X95231877Y-106554218D01*
X95204353Y-106518025D01*
X95164219Y-106494870D01*
X95129045Y-106489500D01*
X95080350Y-106500527D01*
G36*
X93920128Y-105899860D02*
G01*
X93848948Y-105921747D01*
X93784954Y-105963382D01*
X93745015Y-106006911D01*
X93711215Y-106069825D01*
X93687171Y-106150231D01*
X93673516Y-106241918D01*
X93670882Y-106338674D01*
X93679900Y-106434288D01*
X93694696Y-106501533D01*
X93729620Y-106584484D01*
X93780479Y-106650365D01*
X93844215Y-106697487D01*
X93917768Y-106724160D01*
X93998082Y-106728692D01*
X94075250Y-106711876D01*
X94114926Y-106690833D01*
X94157910Y-106657187D01*
X94178100Y-106637132D01*
X94223682Y-106570096D01*
X94255948Y-106486481D01*
X94274395Y-106391637D01*
X94278448Y-106292650D01*
X94074367Y-106292650D01*
X94073421Y-106375705D01*
X94068662Y-106438124D01*
X94059186Y-106484506D01*
X94044090Y-106519446D01*
X94024772Y-106545103D01*
X93991882Y-106572029D01*
X93961907Y-106575061D01*
X93929645Y-106554376D01*
X93923561Y-106548514D01*
X93900393Y-106511216D01*
X93883002Y-106455295D01*
X93871803Y-106386957D01*
X93867213Y-106312405D01*
X93869645Y-106237845D01*
X93879515Y-106169481D01*
X93894821Y-106119047D01*
X93922752Y-106072916D01*
X93955762Y-106050942D01*
X93990797Y-106053255D01*
X94024804Y-106079984D01*
X94046004Y-106112598D01*
X94059508Y-106143448D01*
X94067977Y-106177431D01*
X94072530Y-106221653D01*
X94074287Y-106283219D01*
X94074367Y-106292650D01*
X94278448Y-106292650D01*
X94278520Y-106290916D01*
X94267820Y-106189669D01*
X94241792Y-106093247D01*
X94231603Y-106067640D01*
X94189729Y-105998931D01*
X94133295Y-105947256D01*
X94066651Y-105913157D01*
X93994145Y-105897177D01*
X93920128Y-105899860D01*
X93920128Y-105899860D01*
G37*
X93920128Y-105899860D02*
X93848948Y-105921747D01*
X93784954Y-105963382D01*
X93745015Y-106006911D01*
X93711215Y-106069825D01*
X93687171Y-106150231D01*
X93673516Y-106241918D01*
X93670882Y-106338674D01*
X93679900Y-106434288D01*
X93694696Y-106501533D01*
X93729620Y-106584484D01*
X93780479Y-106650365D01*
X93844215Y-106697487D01*
X93917768Y-106724160D01*
X93998082Y-106728692D01*
X94075250Y-106711876D01*
X94114926Y-106690833D01*
X94157910Y-106657187D01*
X94178100Y-106637132D01*
X94223682Y-106570096D01*
X94255948Y-106486481D01*
X94274395Y-106391637D01*
X94278448Y-106292650D01*
X94074367Y-106292650D01*
X94073421Y-106375705D01*
X94068662Y-106438124D01*
X94059186Y-106484506D01*
X94044090Y-106519446D01*
X94024772Y-106545103D01*
X93991882Y-106572029D01*
X93961907Y-106575061D01*
X93929645Y-106554376D01*
X93923561Y-106548514D01*
X93900393Y-106511216D01*
X93883002Y-106455295D01*
X93871803Y-106386957D01*
X93867213Y-106312405D01*
X93869645Y-106237845D01*
X93879515Y-106169481D01*
X93894821Y-106119047D01*
X93922752Y-106072916D01*
X93955762Y-106050942D01*
X93990797Y-106053255D01*
X94024804Y-106079984D01*
X94046004Y-106112598D01*
X94059508Y-106143448D01*
X94067977Y-106177431D01*
X94072530Y-106221653D01*
X94074287Y-106283219D01*
X94074367Y-106292650D01*
X94278448Y-106292650D01*
X94278520Y-106290916D01*
X94267820Y-106189669D01*
X94241792Y-106093247D01*
X94231603Y-106067640D01*
X94189729Y-105998931D01*
X94133295Y-105947256D01*
X94066651Y-105913157D01*
X93994145Y-105897177D01*
X93920128Y-105899860D01*
G36*
X96872217Y-106111860D02*
G01*
X96850008Y-106124375D01*
X96819418Y-106147897D01*
X96796007Y-106174032D01*
X96778751Y-106206504D01*
X96766626Y-106249041D01*
X96758609Y-106305368D01*
X96753675Y-106379213D01*
X96750801Y-106474301D01*
X96750564Y-106486325D01*
X96746178Y-106718100D01*
X96951800Y-106718100D01*
X96951800Y-106517725D01*
X96952285Y-106437498D01*
X96953966Y-106378746D01*
X96957179Y-106337558D01*
X96962265Y-106310022D01*
X96969560Y-106292228D01*
X96971571Y-106289125D01*
X97001283Y-106266126D01*
X97038887Y-106262228D01*
X97075396Y-106277552D01*
X97086357Y-106287594D01*
X97095657Y-106300498D01*
X97102443Y-106318305D01*
X97107229Y-106345161D01*
X97110526Y-106385216D01*
X97112847Y-106442619D01*
X97114599Y-106516194D01*
X97118648Y-106718100D01*
X97307400Y-106718100D01*
X97307400Y-106528426D01*
X97308221Y-106458904D01*
X97310476Y-106396143D01*
X97313858Y-106345619D01*
X97318060Y-106312810D01*
X97319916Y-106305835D01*
X97343510Y-106272546D01*
X97377426Y-106258820D01*
X97415355Y-106265025D01*
X97450985Y-106291528D01*
X97456222Y-106297899D01*
X97463121Y-106318740D01*
X97468009Y-106361383D01*
X97470972Y-106427002D01*
X97472094Y-106516772D01*
X97472097Y-106518075D01*
X97472500Y-106718100D01*
X97663000Y-106718100D01*
X97663091Y-106499025D01*
X97663607Y-106419371D01*
X97664973Y-106341541D01*
X97667013Y-106272065D01*
X97669554Y-106217469D01*
X97671277Y-106194225D01*
X97679373Y-106108500D01*
X97588637Y-106108500D01*
X97541623Y-106108887D01*
X97514524Y-106111417D01*
X97501854Y-106118143D01*
X97498126Y-106131119D01*
X97497900Y-106142463D01*
X97497900Y-106176427D01*
X97469325Y-106150400D01*
X97425324Y-106117451D01*
X97378968Y-106100565D01*
X97319422Y-106095800D01*
X97319259Y-106095800D01*
X97263062Y-106102574D01*
X97212982Y-106120713D01*
X97176151Y-106146942D01*
X97162235Y-106167923D01*
X97154488Y-106179176D01*
X97141393Y-106174805D01*
X97119700Y-106155774D01*
X97064650Y-106118350D01*
X97000148Y-106097986D01*
X96933552Y-106095537D01*
X96872217Y-106111860D01*
X96872217Y-106111860D01*
G37*
X96872217Y-106111860D02*
X96850008Y-106124375D01*
X96819418Y-106147897D01*
X96796007Y-106174032D01*
X96778751Y-106206504D01*
X96766626Y-106249041D01*
X96758609Y-106305368D01*
X96753675Y-106379213D01*
X96750801Y-106474301D01*
X96750564Y-106486325D01*
X96746178Y-106718100D01*
X96951800Y-106718100D01*
X96951800Y-106517725D01*
X96952285Y-106437498D01*
X96953966Y-106378746D01*
X96957179Y-106337558D01*
X96962265Y-106310022D01*
X96969560Y-106292228D01*
X96971571Y-106289125D01*
X97001283Y-106266126D01*
X97038887Y-106262228D01*
X97075396Y-106277552D01*
X97086357Y-106287594D01*
X97095657Y-106300498D01*
X97102443Y-106318305D01*
X97107229Y-106345161D01*
X97110526Y-106385216D01*
X97112847Y-106442619D01*
X97114599Y-106516194D01*
X97118648Y-106718100D01*
X97307400Y-106718100D01*
X97307400Y-106528426D01*
X97308221Y-106458904D01*
X97310476Y-106396143D01*
X97313858Y-106345619D01*
X97318060Y-106312810D01*
X97319916Y-106305835D01*
X97343510Y-106272546D01*
X97377426Y-106258820D01*
X97415355Y-106265025D01*
X97450985Y-106291528D01*
X97456222Y-106297899D01*
X97463121Y-106318740D01*
X97468009Y-106361383D01*
X97470972Y-106427002D01*
X97472094Y-106516772D01*
X97472097Y-106518075D01*
X97472500Y-106718100D01*
X97663000Y-106718100D01*
X97663091Y-106499025D01*
X97663607Y-106419371D01*
X97664973Y-106341541D01*
X97667013Y-106272065D01*
X97669554Y-106217469D01*
X97671277Y-106194225D01*
X97679373Y-106108500D01*
X97588637Y-106108500D01*
X97541623Y-106108887D01*
X97514524Y-106111417D01*
X97501854Y-106118143D01*
X97498126Y-106131119D01*
X97497900Y-106142463D01*
X97497900Y-106176427D01*
X97469325Y-106150400D01*
X97425324Y-106117451D01*
X97378968Y-106100565D01*
X97319422Y-106095800D01*
X97319259Y-106095800D01*
X97263062Y-106102574D01*
X97212982Y-106120713D01*
X97176151Y-106146942D01*
X97162235Y-106167923D01*
X97154488Y-106179176D01*
X97141393Y-106174805D01*
X97119700Y-106155774D01*
X97064650Y-106118350D01*
X97000148Y-106097986D01*
X96933552Y-106095537D01*
X96872217Y-106111860D01*
G36*
X96418400Y-106718100D02*
G01*
X96621600Y-106718100D01*
X96621600Y-106108500D01*
X96418400Y-106108500D01*
X96418400Y-106718100D01*
X96418400Y-106718100D01*
G37*
X96418400Y-106718100D02*
X96621600Y-106718100D01*
X96621600Y-106108500D01*
X96418400Y-106108500D01*
X96418400Y-106718100D01*
G36*
X95835813Y-106109706D02*
G01*
X95807504Y-106124477D01*
X95775041Y-106153978D01*
X95744647Y-106194096D01*
X95735775Y-106209718D01*
X95725439Y-106231911D01*
X95717937Y-106254326D01*
X95712820Y-106281407D01*
X95709639Y-106317600D01*
X95707944Y-106367350D01*
X95707286Y-106435103D01*
X95707200Y-106492190D01*
X95707200Y-106718100D01*
X95895469Y-106718100D01*
X95899760Y-106516206D01*
X95902375Y-106429108D01*
X95906797Y-106364208D01*
X95914219Y-106318314D01*
X95925833Y-106288230D01*
X95942833Y-106270764D01*
X95966410Y-106262722D01*
X95995106Y-106260900D01*
X96027990Y-106265798D01*
X96051315Y-106284976D01*
X96062940Y-106302175D01*
X96072930Y-106321348D01*
X96079906Y-106343743D01*
X96084392Y-106374104D01*
X96086909Y-106417173D01*
X96087982Y-106477692D01*
X96088153Y-106530775D01*
X96088200Y-106718100D01*
X96278700Y-106718100D01*
X96278811Y-106479975D01*
X96279278Y-106399472D01*
X96280505Y-106322938D01*
X96282346Y-106255909D01*
X96284653Y-106203917D01*
X96286930Y-106175175D01*
X96294938Y-106108500D01*
X96204269Y-106108500D01*
X96157276Y-106108893D01*
X96130196Y-106111436D01*
X96117541Y-106118167D01*
X96113823Y-106131128D01*
X96113600Y-106142218D01*
X96111961Y-106165128D01*
X96103442Y-106166141D01*
X96091375Y-106156449D01*
X96033809Y-106119879D01*
X95967105Y-106099344D01*
X95898646Y-106095676D01*
X95835813Y-106109706D01*
X95835813Y-106109706D01*
G37*
X95835813Y-106109706D02*
X95807504Y-106124477D01*
X95775041Y-106153978D01*
X95744647Y-106194096D01*
X95735775Y-106209718D01*
X95725439Y-106231911D01*
X95717937Y-106254326D01*
X95712820Y-106281407D01*
X95709639Y-106317600D01*
X95707944Y-106367350D01*
X95707286Y-106435103D01*
X95707200Y-106492190D01*
X95707200Y-106718100D01*
X95895469Y-106718100D01*
X95899760Y-106516206D01*
X95902375Y-106429108D01*
X95906797Y-106364208D01*
X95914219Y-106318314D01*
X95925833Y-106288230D01*
X95942833Y-106270764D01*
X95966410Y-106262722D01*
X95995106Y-106260900D01*
X96027990Y-106265798D01*
X96051315Y-106284976D01*
X96062940Y-106302175D01*
X96072930Y-106321348D01*
X96079906Y-106343743D01*
X96084392Y-106374104D01*
X96086909Y-106417173D01*
X96087982Y-106477692D01*
X96088153Y-106530775D01*
X96088200Y-106718100D01*
X96278700Y-106718100D01*
X96278811Y-106479975D01*
X96279278Y-106399472D01*
X96280505Y-106322938D01*
X96282346Y-106255909D01*
X96284653Y-106203917D01*
X96286930Y-106175175D01*
X96294938Y-106108500D01*
X96204269Y-106108500D01*
X96157276Y-106108893D01*
X96130196Y-106111436D01*
X96117541Y-106118167D01*
X96113823Y-106131128D01*
X96113600Y-106142218D01*
X96111961Y-106165128D01*
X96103442Y-106166141D01*
X96091375Y-106156449D01*
X96033809Y-106119879D01*
X95967105Y-106099344D01*
X95898646Y-106095676D01*
X95835813Y-106109706D01*
G36*
X95364300Y-106718100D02*
G01*
X95567500Y-106718100D01*
X95567500Y-106108500D01*
X95364300Y-106108500D01*
X95364300Y-106718100D01*
X95364300Y-106718100D01*
G37*
X95364300Y-106718100D02*
X95567500Y-106718100D01*
X95567500Y-106108500D01*
X95364300Y-106108500D01*
X95364300Y-106718100D01*
G36*
X94847582Y-106111181D02*
G01*
X94737363Y-106114850D01*
X94689518Y-106279950D01*
X94671752Y-106342841D01*
X94656875Y-106398515D01*
X94646251Y-106441637D01*
X94641246Y-106466873D01*
X94641037Y-106469391D01*
X94639237Y-106485565D01*
X94634618Y-106485448D01*
X94626490Y-106467243D01*
X94614166Y-106429155D01*
X94596955Y-106369387D01*
X94582433Y-106316638D01*
X94565339Y-106254030D01*
X94550207Y-106198946D01*
X94538510Y-106156728D01*
X94531721Y-106132715D01*
X94531130Y-106130725D01*
X94523910Y-106119374D01*
X94507228Y-106112614D01*
X94475801Y-106109353D01*
X94424348Y-106108500D01*
X94423645Y-106108500D01*
X94375019Y-106109954D01*
X94339811Y-106113870D01*
X94323438Y-106119580D01*
X94322900Y-106120928D01*
X94327091Y-106134894D01*
X94338689Y-106168659D01*
X94356234Y-106218218D01*
X94378265Y-106279568D01*
X94403323Y-106348705D01*
X94429947Y-106421626D01*
X94456677Y-106494326D01*
X94482052Y-106562803D01*
X94504611Y-106623052D01*
X94522896Y-106671070D01*
X94532615Y-106695875D01*
X94541408Y-106707452D01*
X94559933Y-106714253D01*
X94593650Y-106717417D01*
X94639021Y-106718100D01*
X94736524Y-106718100D01*
X94802173Y-106537125D01*
X94830016Y-106460349D01*
X94859374Y-106379358D01*
X94887031Y-106303028D01*
X94909769Y-106240238D01*
X94912812Y-106231831D01*
X94957802Y-106107512D01*
X94847582Y-106111181D01*
X94847582Y-106111181D01*
G37*
X94847582Y-106111181D02*
X94737363Y-106114850D01*
X94689518Y-106279950D01*
X94671752Y-106342841D01*
X94656875Y-106398515D01*
X94646251Y-106441637D01*
X94641246Y-106466873D01*
X94641037Y-106469391D01*
X94639237Y-106485565D01*
X94634618Y-106485448D01*
X94626490Y-106467243D01*
X94614166Y-106429155D01*
X94596955Y-106369387D01*
X94582433Y-106316638D01*
X94565339Y-106254030D01*
X94550207Y-106198946D01*
X94538510Y-106156728D01*
X94531721Y-106132715D01*
X94531130Y-106130725D01*
X94523910Y-106119374D01*
X94507228Y-106112614D01*
X94475801Y-106109353D01*
X94424348Y-106108500D01*
X94423645Y-106108500D01*
X94375019Y-106109954D01*
X94339811Y-106113870D01*
X94323438Y-106119580D01*
X94322900Y-106120928D01*
X94327091Y-106134894D01*
X94338689Y-106168659D01*
X94356234Y-106218218D01*
X94378265Y-106279568D01*
X94403323Y-106348705D01*
X94429947Y-106421626D01*
X94456677Y-106494326D01*
X94482052Y-106562803D01*
X94504611Y-106623052D01*
X94522896Y-106671070D01*
X94532615Y-106695875D01*
X94541408Y-106707452D01*
X94559933Y-106714253D01*
X94593650Y-106717417D01*
X94639021Y-106718100D01*
X94736524Y-106718100D01*
X94802173Y-106537125D01*
X94830016Y-106460349D01*
X94859374Y-106379358D01*
X94887031Y-106303028D01*
X94909769Y-106240238D01*
X94912812Y-106231831D01*
X94957802Y-106107512D01*
X94847582Y-106111181D01*
G36*
X93154500Y-106718100D02*
G01*
X93357257Y-106718100D01*
X93360654Y-106407217D01*
X93364050Y-106096335D01*
X93432571Y-106128088D01*
X93469305Y-106144396D01*
X93495195Y-106154539D01*
X93503723Y-106156395D01*
X93508627Y-106141927D01*
X93516427Y-106111895D01*
X93524946Y-106075625D01*
X93532007Y-106042443D01*
X93535434Y-106021674D01*
X93535500Y-106020219D01*
X93524700Y-106009392D01*
X93495684Y-105991414D01*
X93453535Y-105969260D01*
X93425774Y-105955993D01*
X93367319Y-105930408D01*
X93322226Y-105914984D01*
X93281744Y-105907392D01*
X93237118Y-105905302D01*
X93235274Y-105905300D01*
X93154500Y-105905300D01*
X93154500Y-106718100D01*
X93154500Y-106718100D01*
G37*
X93154500Y-106718100D02*
X93357257Y-106718100D01*
X93360654Y-106407217D01*
X93364050Y-106096335D01*
X93432571Y-106128088D01*
X93469305Y-106144396D01*
X93495195Y-106154539D01*
X93503723Y-106156395D01*
X93508627Y-106141927D01*
X93516427Y-106111895D01*
X93524946Y-106075625D01*
X93532007Y-106042443D01*
X93535434Y-106021674D01*
X93535500Y-106020219D01*
X93524700Y-106009392D01*
X93495684Y-105991414D01*
X93453535Y-105969260D01*
X93425774Y-105955993D01*
X93367319Y-105930408D01*
X93322226Y-105914984D01*
X93281744Y-105907392D01*
X93237118Y-105905302D01*
X93235274Y-105905300D01*
X93154500Y-105905300D01*
X93154500Y-106718100D01*
G36*
X96475951Y-105854822D02*
G01*
X96444815Y-105872631D01*
X96426748Y-105902633D01*
X96418171Y-105943927D01*
X96420713Y-105983908D01*
X96428120Y-106001823D01*
X96461097Y-106030395D01*
X96505518Y-106042452D01*
X96552790Y-106037088D01*
X96588138Y-106018678D01*
X96614672Y-105983194D01*
X96621537Y-105939018D01*
X96608197Y-105894170D01*
X96597556Y-105878420D01*
X96564653Y-105855876D01*
X96520756Y-105847882D01*
X96475951Y-105854822D01*
X96475951Y-105854822D01*
G37*
X96475951Y-105854822D02*
X96444815Y-105872631D01*
X96426748Y-105902633D01*
X96418171Y-105943927D01*
X96420713Y-105983908D01*
X96428120Y-106001823D01*
X96461097Y-106030395D01*
X96505518Y-106042452D01*
X96552790Y-106037088D01*
X96588138Y-106018678D01*
X96614672Y-105983194D01*
X96621537Y-105939018D01*
X96608197Y-105894170D01*
X96597556Y-105878420D01*
X96564653Y-105855876D01*
X96520756Y-105847882D01*
X96475951Y-105854822D01*
G36*
X95414038Y-105859016D02*
G01*
X95380511Y-105888425D01*
X95365085Y-105934768D01*
X95364300Y-105950235D01*
X95375285Y-105991810D01*
X95403809Y-106023012D01*
X95443227Y-106041231D01*
X95486896Y-106043857D01*
X95528170Y-106028283D01*
X95539706Y-106019105D01*
X95562339Y-105983323D01*
X95567500Y-105944873D01*
X95557991Y-105896037D01*
X95529672Y-105864207D01*
X95482858Y-105849676D01*
X95463530Y-105848727D01*
X95414038Y-105859016D01*
X95414038Y-105859016D01*
G37*
X95414038Y-105859016D02*
X95380511Y-105888425D01*
X95365085Y-105934768D01*
X95364300Y-105950235D01*
X95375285Y-105991810D01*
X95403809Y-106023012D01*
X95443227Y-106041231D01*
X95486896Y-106043857D01*
X95528170Y-106028283D01*
X95539706Y-106019105D01*
X95562339Y-105983323D01*
X95567500Y-105944873D01*
X95557991Y-105896037D01*
X95529672Y-105864207D01*
X95482858Y-105849676D01*
X95463530Y-105848727D01*
X95414038Y-105859016D01*
G36*
X95735775Y-89472779D02*
G01*
X95650029Y-89446998D01*
X95559386Y-89420025D01*
X95471920Y-89394244D01*
X95395707Y-89372039D01*
X95357950Y-89361201D01*
X95297923Y-89344019D01*
X95245777Y-89328909D01*
X95206950Y-89317459D01*
X95186880Y-89311257D01*
X95186500Y-89311125D01*
X95193622Y-89306581D01*
X95222687Y-89296816D01*
X95270957Y-89282594D01*
X95335692Y-89264682D01*
X95414152Y-89243845D01*
X95503598Y-89220849D01*
X95561150Y-89206396D01*
X95954850Y-89108373D01*
X95958356Y-88915287D01*
X95959000Y-88848526D01*
X95958465Y-88791766D01*
X95956878Y-88749363D01*
X95954366Y-88725676D01*
X95952700Y-88722200D01*
X95938194Y-88726327D01*
X95902855Y-88737988D01*
X95849744Y-88756105D01*
X95781924Y-88779603D01*
X95702456Y-88807403D01*
X95614402Y-88838427D01*
X95520824Y-88871599D01*
X95424784Y-88905842D01*
X95329345Y-88940077D01*
X95237567Y-88973227D01*
X95186500Y-88991795D01*
X95029593Y-89050798D01*
X94894990Y-89105472D01*
X94780214Y-89157065D01*
X94682791Y-89206825D01*
X94600243Y-89256000D01*
X94530095Y-89305839D01*
X94480642Y-89347572D01*
X94391400Y-89445406D01*
X94323984Y-89555551D01*
X94279259Y-89676530D01*
X94273491Y-89700203D01*
X94267369Y-89732589D01*
X94271736Y-89748986D01*
X94291497Y-89758184D01*
X94308402Y-89762757D01*
X94368277Y-89778234D01*
X94428632Y-89793526D01*
X94484205Y-89807337D01*
X94529737Y-89818372D01*
X94559967Y-89825332D01*
X94569491Y-89827100D01*
X94576003Y-89816700D01*
X94576900Y-89807264D01*
X94583601Y-89778702D01*
X94601166Y-89736833D01*
X94625790Y-89689082D01*
X94653666Y-89642878D01*
X94679002Y-89608013D01*
X94715579Y-89571394D01*
X94759803Y-89536879D01*
X94774483Y-89527550D01*
X94830496Y-89494724D01*
X95389846Y-89718062D01*
X95502423Y-89762963D01*
X95607676Y-89804848D01*
X95703281Y-89842800D01*
X95786912Y-89875898D01*
X95856244Y-89903226D01*
X95908954Y-89923864D01*
X95942716Y-89936895D01*
X95955198Y-89941400D01*
X95957239Y-89929414D01*
X95958982Y-89896311D01*
X95960299Y-89846373D01*
X95961062Y-89783882D01*
X95961200Y-89741194D01*
X95961200Y-89540987D01*
X95735775Y-89472779D01*
X95735775Y-89472779D01*
G37*
X95735775Y-89472779D02*
X95650029Y-89446998D01*
X95559386Y-89420025D01*
X95471920Y-89394244D01*
X95395707Y-89372039D01*
X95357950Y-89361201D01*
X95297923Y-89344019D01*
X95245777Y-89328909D01*
X95206950Y-89317459D01*
X95186880Y-89311257D01*
X95186500Y-89311125D01*
X95193622Y-89306581D01*
X95222687Y-89296816D01*
X95270957Y-89282594D01*
X95335692Y-89264682D01*
X95414152Y-89243845D01*
X95503598Y-89220849D01*
X95561150Y-89206396D01*
X95954850Y-89108373D01*
X95958356Y-88915287D01*
X95959000Y-88848526D01*
X95958465Y-88791766D01*
X95956878Y-88749363D01*
X95954366Y-88725676D01*
X95952700Y-88722200D01*
X95938194Y-88726327D01*
X95902855Y-88737988D01*
X95849744Y-88756105D01*
X95781924Y-88779603D01*
X95702456Y-88807403D01*
X95614402Y-88838427D01*
X95520824Y-88871599D01*
X95424784Y-88905842D01*
X95329345Y-88940077D01*
X95237567Y-88973227D01*
X95186500Y-88991795D01*
X95029593Y-89050798D01*
X94894990Y-89105472D01*
X94780214Y-89157065D01*
X94682791Y-89206825D01*
X94600243Y-89256000D01*
X94530095Y-89305839D01*
X94480642Y-89347572D01*
X94391400Y-89445406D01*
X94323984Y-89555551D01*
X94279259Y-89676530D01*
X94273491Y-89700203D01*
X94267369Y-89732589D01*
X94271736Y-89748986D01*
X94291497Y-89758184D01*
X94308402Y-89762757D01*
X94368277Y-89778234D01*
X94428632Y-89793526D01*
X94484205Y-89807337D01*
X94529737Y-89818372D01*
X94559967Y-89825332D01*
X94569491Y-89827100D01*
X94576003Y-89816700D01*
X94576900Y-89807264D01*
X94583601Y-89778702D01*
X94601166Y-89736833D01*
X94625790Y-89689082D01*
X94653666Y-89642878D01*
X94679002Y-89608013D01*
X94715579Y-89571394D01*
X94759803Y-89536879D01*
X94774483Y-89527550D01*
X94830496Y-89494724D01*
X95389846Y-89718062D01*
X95502423Y-89762963D01*
X95607676Y-89804848D01*
X95703281Y-89842800D01*
X95786912Y-89875898D01*
X95856244Y-89903226D01*
X95908954Y-89923864D01*
X95942716Y-89936895D01*
X95955198Y-89941400D01*
X95957239Y-89929414D01*
X95958982Y-89896311D01*
X95960299Y-89846373D01*
X95961062Y-89783882D01*
X95961200Y-89741194D01*
X95961200Y-89540987D01*
X95735775Y-89472779D01*
G36*
X95982598Y-78180225D02*
G01*
X95957857Y-78095399D01*
X95916177Y-78023180D01*
X95899108Y-78003348D01*
X95872944Y-77974777D01*
X95862947Y-77959018D01*
X95867233Y-77951016D01*
X95878179Y-77947198D01*
X95913208Y-77941262D01*
X95932625Y-77940074D01*
X95944354Y-77939117D01*
X95952335Y-77933679D01*
X95957288Y-77919656D01*
X95959935Y-77892943D01*
X95960999Y-77849437D01*
X95961200Y-77785032D01*
X95961200Y-77615154D01*
X95596075Y-77618855D01*
X95427777Y-77620601D01*
X95282875Y-77622234D01*
X95159371Y-77623841D01*
X95055262Y-77625509D01*
X94968546Y-77627324D01*
X94897224Y-77629373D01*
X94839292Y-77631742D01*
X94792751Y-77634518D01*
X94755598Y-77637788D01*
X94725833Y-77641639D01*
X94701454Y-77646157D01*
X94680459Y-77651429D01*
X94660848Y-77657541D01*
X94654747Y-77659616D01*
X94548976Y-77706694D01*
X94462564Y-77768919D01*
X94394473Y-77847562D01*
X94343668Y-77943890D01*
X94309109Y-78059172D01*
X94303157Y-78089575D01*
X94290976Y-78190373D01*
X94287329Y-78300264D01*
X94292355Y-78406461D01*
X94299179Y-78460600D01*
X94310856Y-78518119D01*
X94326446Y-78575980D01*
X94343951Y-78628444D01*
X94361371Y-78669769D01*
X94376709Y-78694217D01*
X94381837Y-78697993D01*
X94398861Y-78697375D01*
X94433187Y-78691598D01*
X94478803Y-78682109D01*
X94529695Y-78670358D01*
X94579853Y-78657790D01*
X94623263Y-78645856D01*
X94653915Y-78636002D01*
X94665796Y-78629678D01*
X94665800Y-78629598D01*
X94660557Y-78616344D01*
X94647344Y-78588701D01*
X94640346Y-78574794D01*
X94615500Y-78512976D01*
X94594900Y-78437516D01*
X94581258Y-78360125D01*
X94577159Y-78301850D01*
X94586531Y-78207314D01*
X94614853Y-78129615D01*
X94661868Y-78069040D01*
X94727319Y-78025876D01*
X94810948Y-78000412D01*
X94852092Y-77995005D01*
X94938850Y-77987372D01*
X94898226Y-78030311D01*
X94844465Y-78104756D01*
X94810613Y-78190389D01*
X94796357Y-78283033D01*
X94801378Y-78378512D01*
X94825363Y-78472650D01*
X94867994Y-78561270D01*
X94928957Y-78640195D01*
X94945581Y-78656578D01*
X95025175Y-78718816D01*
X95113227Y-78763009D01*
X95213605Y-78790475D01*
X95330172Y-78802529D01*
X95376494Y-78803350D01*
X95391279Y-78802227D01*
X95391279Y-78422430D01*
X95293546Y-78414975D01*
X95214960Y-78392236D01*
X95153778Y-78353375D01*
X95108255Y-78297556D01*
X95100057Y-78282698D01*
X95079028Y-78218143D01*
X95080806Y-78154634D01*
X95105163Y-78097476D01*
X95108263Y-78093085D01*
X95147455Y-78050945D01*
X95196015Y-78022716D01*
X95260996Y-78004556D01*
X95275546Y-78001965D01*
X95338696Y-77995307D01*
X95408604Y-77994060D01*
X95477740Y-77997756D01*
X95538578Y-78005926D01*
X95583590Y-78018105D01*
X95591225Y-78021584D01*
X95648669Y-78063771D01*
X95686031Y-78118374D01*
X95701672Y-78181300D01*
X95693954Y-78248458D01*
X95688533Y-78264517D01*
X95652085Y-78325575D01*
X95595862Y-78372782D01*
X95522110Y-78404945D01*
X95433074Y-78420870D01*
X95391279Y-78422430D01*
X95391279Y-78802227D01*
X95511862Y-78793068D01*
X95633269Y-78762881D01*
X95739753Y-78713250D01*
X95830354Y-78644632D01*
X95904109Y-78557489D01*
X95910198Y-78548274D01*
X95954200Y-78461681D01*
X95980869Y-78368232D01*
X95990302Y-78272791D01*
X95982598Y-78180225D01*
X95982598Y-78180225D01*
G37*
X95982598Y-78180225D02*
X95957857Y-78095399D01*
X95916177Y-78023180D01*
X95899108Y-78003348D01*
X95872944Y-77974777D01*
X95862947Y-77959018D01*
X95867233Y-77951016D01*
X95878179Y-77947198D01*
X95913208Y-77941262D01*
X95932625Y-77940074D01*
X95944354Y-77939117D01*
X95952335Y-77933679D01*
X95957288Y-77919656D01*
X95959935Y-77892943D01*
X95960999Y-77849437D01*
X95961200Y-77785032D01*
X95961200Y-77615154D01*
X95596075Y-77618855D01*
X95427777Y-77620601D01*
X95282875Y-77622234D01*
X95159371Y-77623841D01*
X95055262Y-77625509D01*
X94968546Y-77627324D01*
X94897224Y-77629373D01*
X94839292Y-77631742D01*
X94792751Y-77634518D01*
X94755598Y-77637788D01*
X94725833Y-77641639D01*
X94701454Y-77646157D01*
X94680459Y-77651429D01*
X94660848Y-77657541D01*
X94654747Y-77659616D01*
X94548976Y-77706694D01*
X94462564Y-77768919D01*
X94394473Y-77847562D01*
X94343668Y-77943890D01*
X94309109Y-78059172D01*
X94303157Y-78089575D01*
X94290976Y-78190373D01*
X94287329Y-78300264D01*
X94292355Y-78406461D01*
X94299179Y-78460600D01*
X94310856Y-78518119D01*
X94326446Y-78575980D01*
X94343951Y-78628444D01*
X94361371Y-78669769D01*
X94376709Y-78694217D01*
X94381837Y-78697993D01*
X94398861Y-78697375D01*
X94433187Y-78691598D01*
X94478803Y-78682109D01*
X94529695Y-78670358D01*
X94579853Y-78657790D01*
X94623263Y-78645856D01*
X94653915Y-78636002D01*
X94665796Y-78629678D01*
X94665800Y-78629598D01*
X94660557Y-78616344D01*
X94647344Y-78588701D01*
X94640346Y-78574794D01*
X94615500Y-78512976D01*
X94594900Y-78437516D01*
X94581258Y-78360125D01*
X94577159Y-78301850D01*
X94586531Y-78207314D01*
X94614853Y-78129615D01*
X94661868Y-78069040D01*
X94727319Y-78025876D01*
X94810948Y-78000412D01*
X94852092Y-77995005D01*
X94938850Y-77987372D01*
X94898226Y-78030311D01*
X94844465Y-78104756D01*
X94810613Y-78190389D01*
X94796357Y-78283033D01*
X94801378Y-78378512D01*
X94825363Y-78472650D01*
X94867994Y-78561270D01*
X94928957Y-78640195D01*
X94945581Y-78656578D01*
X95025175Y-78718816D01*
X95113227Y-78763009D01*
X95213605Y-78790475D01*
X95330172Y-78802529D01*
X95376494Y-78803350D01*
X95391279Y-78802227D01*
X95391279Y-78422430D01*
X95293546Y-78414975D01*
X95214960Y-78392236D01*
X95153778Y-78353375D01*
X95108255Y-78297556D01*
X95100057Y-78282698D01*
X95079028Y-78218143D01*
X95080806Y-78154634D01*
X95105163Y-78097476D01*
X95108263Y-78093085D01*
X95147455Y-78050945D01*
X95196015Y-78022716D01*
X95260996Y-78004556D01*
X95275546Y-78001965D01*
X95338696Y-77995307D01*
X95408604Y-77994060D01*
X95477740Y-77997756D01*
X95538578Y-78005926D01*
X95583590Y-78018105D01*
X95591225Y-78021584D01*
X95648669Y-78063771D01*
X95686031Y-78118374D01*
X95701672Y-78181300D01*
X95693954Y-78248458D01*
X95688533Y-78264517D01*
X95652085Y-78325575D01*
X95595862Y-78372782D01*
X95522110Y-78404945D01*
X95433074Y-78420870D01*
X95391279Y-78422430D01*
X95391279Y-78802227D01*
X95511862Y-78793068D01*
X95633269Y-78762881D01*
X95739753Y-78713250D01*
X95830354Y-78644632D01*
X95904109Y-78557489D01*
X95910198Y-78548274D01*
X95954200Y-78461681D01*
X95980869Y-78368232D01*
X95990302Y-78272791D01*
X95982598Y-78180225D01*
G36*
X96423598Y-87602969D02*
G01*
X96411544Y-87499481D01*
X96393077Y-87414100D01*
X96382863Y-87380443D01*
X96372264Y-87358643D01*
X96356662Y-87347642D01*
X96331438Y-87346382D01*
X96291972Y-87353804D01*
X96233647Y-87368851D01*
X96216061Y-87373551D01*
X96159621Y-87388926D01*
X96112878Y-87402221D01*
X96080897Y-87411960D01*
X96068824Y-87416544D01*
X96069670Y-87430291D01*
X96076846Y-87461137D01*
X96087234Y-87497196D01*
X96115641Y-87627115D01*
X96120256Y-87754635D01*
X96108224Y-87845660D01*
X96074214Y-87953840D01*
X96021508Y-88045207D01*
X95951057Y-88119050D01*
X95863810Y-88174655D01*
X95760718Y-88211312D01*
X95642729Y-88228307D01*
X95596326Y-88229474D01*
X95471768Y-88219494D01*
X95363947Y-88190494D01*
X95272538Y-88142272D01*
X95197216Y-88074622D01*
X95137653Y-87987341D01*
X95108753Y-87923940D01*
X95091338Y-87858385D01*
X95081637Y-87776893D01*
X95079747Y-87687759D01*
X95085768Y-87599279D01*
X95099798Y-87519747D01*
X95103762Y-87504990D01*
X95115824Y-87458351D01*
X95119018Y-87430489D01*
X95113768Y-87416541D01*
X95111618Y-87414915D01*
X95093159Y-87408699D01*
X95055821Y-87399612D01*
X95005762Y-87389072D01*
X94969562Y-87382160D01*
X94904686Y-87371382D01*
X94861282Y-87367033D01*
X94836301Y-87368908D01*
X94829052Y-87372769D01*
X94813470Y-87400608D01*
X94798971Y-87449027D01*
X94786097Y-87513208D01*
X94775385Y-87588336D01*
X94767374Y-87669596D01*
X94762604Y-87752172D01*
X94761613Y-87831248D01*
X94764940Y-87902008D01*
X94767298Y-87924511D01*
X94795069Y-88065920D01*
X94840951Y-88194080D01*
X94903736Y-88307098D01*
X94982216Y-88403081D01*
X95075184Y-88480136D01*
X95148400Y-88521878D01*
X95232957Y-88559554D01*
X95307433Y-88585683D01*
X95381287Y-88602586D01*
X95463978Y-88612583D01*
X95535750Y-88616869D01*
X95669971Y-88615801D01*
X95790943Y-88599135D01*
X95906648Y-88565216D01*
X96014812Y-88517599D01*
X96124670Y-88448389D01*
X96220352Y-88359142D01*
X96300318Y-88251860D01*
X96363026Y-88128541D01*
X96400357Y-88017350D01*
X96417082Y-87929910D01*
X96426466Y-87826293D01*
X96428605Y-87714610D01*
X96423598Y-87602969D01*
X96423598Y-87602969D01*
G37*
X96423598Y-87602969D02*
X96411544Y-87499481D01*
X96393077Y-87414100D01*
X96382863Y-87380443D01*
X96372264Y-87358643D01*
X96356662Y-87347642D01*
X96331438Y-87346382D01*
X96291972Y-87353804D01*
X96233647Y-87368851D01*
X96216061Y-87373551D01*
X96159621Y-87388926D01*
X96112878Y-87402221D01*
X96080897Y-87411960D01*
X96068824Y-87416544D01*
X96069670Y-87430291D01*
X96076846Y-87461137D01*
X96087234Y-87497196D01*
X96115641Y-87627115D01*
X96120256Y-87754635D01*
X96108224Y-87845660D01*
X96074214Y-87953840D01*
X96021508Y-88045207D01*
X95951057Y-88119050D01*
X95863810Y-88174655D01*
X95760718Y-88211312D01*
X95642729Y-88228307D01*
X95596326Y-88229474D01*
X95471768Y-88219494D01*
X95363947Y-88190494D01*
X95272538Y-88142272D01*
X95197216Y-88074622D01*
X95137653Y-87987341D01*
X95108753Y-87923940D01*
X95091338Y-87858385D01*
X95081637Y-87776893D01*
X95079747Y-87687759D01*
X95085768Y-87599279D01*
X95099798Y-87519747D01*
X95103762Y-87504990D01*
X95115824Y-87458351D01*
X95119018Y-87430489D01*
X95113768Y-87416541D01*
X95111618Y-87414915D01*
X95093159Y-87408699D01*
X95055821Y-87399612D01*
X95005762Y-87389072D01*
X94969562Y-87382160D01*
X94904686Y-87371382D01*
X94861282Y-87367033D01*
X94836301Y-87368908D01*
X94829052Y-87372769D01*
X94813470Y-87400608D01*
X94798971Y-87449027D01*
X94786097Y-87513208D01*
X94775385Y-87588336D01*
X94767374Y-87669596D01*
X94762604Y-87752172D01*
X94761613Y-87831248D01*
X94764940Y-87902008D01*
X94767298Y-87924511D01*
X94795069Y-88065920D01*
X94840951Y-88194080D01*
X94903736Y-88307098D01*
X94982216Y-88403081D01*
X95075184Y-88480136D01*
X95148400Y-88521878D01*
X95232957Y-88559554D01*
X95307433Y-88585683D01*
X95381287Y-88602586D01*
X95463978Y-88612583D01*
X95535750Y-88616869D01*
X95669971Y-88615801D01*
X95790943Y-88599135D01*
X95906648Y-88565216D01*
X96014812Y-88517599D01*
X96124670Y-88448389D01*
X96220352Y-88359142D01*
X96300318Y-88251860D01*
X96363026Y-88128541D01*
X96400357Y-88017350D01*
X96417082Y-87929910D01*
X96426466Y-87826293D01*
X96428605Y-87714610D01*
X96423598Y-87602969D01*
G36*
X95589725Y-86814795D02*
G01*
X95478291Y-86813262D01*
X95389347Y-86811486D01*
X95319982Y-86809295D01*
X95267288Y-86806515D01*
X95228355Y-86802973D01*
X95200272Y-86798494D01*
X95180129Y-86792906D01*
X95172758Y-86789928D01*
X95117174Y-86753640D01*
X95083563Y-86704811D01*
X95072201Y-86643842D01*
X95072200Y-86643407D01*
X95082529Y-86574311D01*
X95114181Y-86518446D01*
X95151384Y-86484827D01*
X95163752Y-86476444D01*
X95176691Y-86469783D01*
X95193161Y-86464611D01*
X95216120Y-86460697D01*
X95248530Y-86457808D01*
X95293350Y-86455711D01*
X95353539Y-86454173D01*
X95432058Y-86452963D01*
X95531866Y-86451847D01*
X95577025Y-86451389D01*
X95961200Y-86447527D01*
X95961200Y-86067900D01*
X94779342Y-86067900D01*
X94786450Y-86391750D01*
X94843600Y-86395333D01*
X94891445Y-86399482D01*
X94916077Y-86405997D01*
X94919684Y-86417294D01*
X94904453Y-86435789D01*
X94891168Y-86447867D01*
X94841019Y-86505804D01*
X94800022Y-86580615D01*
X94772369Y-86664260D01*
X94768500Y-86683008D01*
X94759107Y-86743853D01*
X94756885Y-86792805D01*
X94761799Y-86842325D01*
X94767926Y-86876335D01*
X94797637Y-86967055D01*
X94847708Y-87042805D01*
X94917783Y-87103309D01*
X95007506Y-87148292D01*
X95116521Y-87177477D01*
X95167524Y-87184907D01*
X95212005Y-87188505D01*
X95276950Y-87191733D01*
X95357424Y-87194447D01*
X95448491Y-87196505D01*
X95545217Y-87197763D01*
X95621475Y-87198096D01*
X95961200Y-87198200D01*
X95961200Y-86819213D01*
X95589725Y-86814795D01*
X95589725Y-86814795D01*
G37*
X95589725Y-86814795D02*
X95478291Y-86813262D01*
X95389347Y-86811486D01*
X95319982Y-86809295D01*
X95267288Y-86806515D01*
X95228355Y-86802973D01*
X95200272Y-86798494D01*
X95180129Y-86792906D01*
X95172758Y-86789928D01*
X95117174Y-86753640D01*
X95083563Y-86704811D01*
X95072201Y-86643842D01*
X95072200Y-86643407D01*
X95082529Y-86574311D01*
X95114181Y-86518446D01*
X95151384Y-86484827D01*
X95163752Y-86476444D01*
X95176691Y-86469783D01*
X95193161Y-86464611D01*
X95216120Y-86460697D01*
X95248530Y-86457808D01*
X95293350Y-86455711D01*
X95353539Y-86454173D01*
X95432058Y-86452963D01*
X95531866Y-86451847D01*
X95577025Y-86451389D01*
X95961200Y-86447527D01*
X95961200Y-86067900D01*
X94779342Y-86067900D01*
X94786450Y-86391750D01*
X94843600Y-86395333D01*
X94891445Y-86399482D01*
X94916077Y-86405997D01*
X94919684Y-86417294D01*
X94904453Y-86435789D01*
X94891168Y-86447867D01*
X94841019Y-86505804D01*
X94800022Y-86580615D01*
X94772369Y-86664260D01*
X94768500Y-86683008D01*
X94759107Y-86743853D01*
X94756885Y-86792805D01*
X94761799Y-86842325D01*
X94767926Y-86876335D01*
X94797637Y-86967055D01*
X94847708Y-87042805D01*
X94917783Y-87103309D01*
X95007506Y-87148292D01*
X95116521Y-87177477D01*
X95167524Y-87184907D01*
X95212005Y-87188505D01*
X95276950Y-87191733D01*
X95357424Y-87194447D01*
X95448491Y-87196505D01*
X95545217Y-87197763D01*
X95621475Y-87198096D01*
X95961200Y-87198200D01*
X95961200Y-86819213D01*
X95589725Y-86814795D01*
G36*
X95849825Y-85407500D02*
G01*
X95892840Y-85360539D01*
X95941354Y-85291382D01*
X95972667Y-85207617D01*
X95987517Y-85106936D01*
X95989021Y-85059536D01*
X95988429Y-85002913D01*
X95984682Y-84961805D01*
X95975488Y-84926341D01*
X95958552Y-84886651D01*
X95940371Y-84850099D01*
X95909442Y-84794217D01*
X95878880Y-84752876D01*
X95840875Y-84716567D01*
X95811879Y-84693719D01*
X95716604Y-84636920D01*
X95606830Y-84597332D01*
X95487109Y-84575365D01*
X95361996Y-84571430D01*
X95236042Y-84585940D01*
X95113800Y-84619304D01*
X95089704Y-84628473D01*
X94994165Y-84679935D01*
X94910766Y-84751117D01*
X94842753Y-84837950D01*
X94793371Y-84936363D01*
X94767311Y-85032850D01*
X94759741Y-85081919D01*
X94756781Y-85116811D01*
X94758727Y-85148383D01*
X94765873Y-85187489D01*
X94772318Y-85217000D01*
X94795395Y-85294785D01*
X94828978Y-85357655D01*
X94878513Y-85415588D01*
X94883222Y-85420205D01*
X94934205Y-85469682D01*
X94860328Y-85473516D01*
X94786450Y-85477350D01*
X94782882Y-85641149D01*
X94779314Y-85804947D01*
X94865432Y-85796814D01*
X94893601Y-85795346D01*
X94944652Y-85793961D01*
X95016067Y-85792682D01*
X95105328Y-85791533D01*
X95209916Y-85790539D01*
X95327314Y-85789723D01*
X95375447Y-85789493D01*
X95375447Y-85407500D01*
X95308906Y-85407114D01*
X95261829Y-85405339D01*
X95228286Y-85401248D01*
X95202345Y-85393917D01*
X95178075Y-85382419D01*
X95164225Y-85374531D01*
X95110641Y-85329413D01*
X95075563Y-85270727D01*
X95060866Y-85204110D01*
X95068426Y-85135194D01*
X95076659Y-85111619D01*
X95106631Y-85064831D01*
X95152919Y-85020261D01*
X95206993Y-84985397D01*
X95233036Y-84974369D01*
X95269835Y-84966238D01*
X95321493Y-84960369D01*
X95377495Y-84957914D01*
X95383350Y-84957902D01*
X95481449Y-84966785D01*
X95563424Y-84992454D01*
X95627657Y-85034233D01*
X95662541Y-85074706D01*
X95690935Y-85138729D01*
X95696857Y-85206045D01*
X95681725Y-85271326D01*
X95646958Y-85329244D01*
X95593978Y-85374473D01*
X95580692Y-85381850D01*
X95554607Y-85393161D01*
X95525256Y-85400654D01*
X95486837Y-85405056D01*
X95433546Y-85407090D01*
X95375447Y-85407500D01*
X95375447Y-85789493D01*
X95455003Y-85789111D01*
X95590466Y-85788725D01*
X95723075Y-85788591D01*
X96494600Y-85788500D01*
X96494600Y-85407500D01*
X95849825Y-85407500D01*
X95849825Y-85407500D01*
G37*
X95849825Y-85407500D02*
X95892840Y-85360539D01*
X95941354Y-85291382D01*
X95972667Y-85207617D01*
X95987517Y-85106936D01*
X95989021Y-85059536D01*
X95988429Y-85002913D01*
X95984682Y-84961805D01*
X95975488Y-84926341D01*
X95958552Y-84886651D01*
X95940371Y-84850099D01*
X95909442Y-84794217D01*
X95878880Y-84752876D01*
X95840875Y-84716567D01*
X95811879Y-84693719D01*
X95716604Y-84636920D01*
X95606830Y-84597332D01*
X95487109Y-84575365D01*
X95361996Y-84571430D01*
X95236042Y-84585940D01*
X95113800Y-84619304D01*
X95089704Y-84628473D01*
X94994165Y-84679935D01*
X94910766Y-84751117D01*
X94842753Y-84837950D01*
X94793371Y-84936363D01*
X94767311Y-85032850D01*
X94759741Y-85081919D01*
X94756781Y-85116811D01*
X94758727Y-85148383D01*
X94765873Y-85187489D01*
X94772318Y-85217000D01*
X94795395Y-85294785D01*
X94828978Y-85357655D01*
X94878513Y-85415588D01*
X94883222Y-85420205D01*
X94934205Y-85469682D01*
X94860328Y-85473516D01*
X94786450Y-85477350D01*
X94782882Y-85641149D01*
X94779314Y-85804947D01*
X94865432Y-85796814D01*
X94893601Y-85795346D01*
X94944652Y-85793961D01*
X95016067Y-85792682D01*
X95105328Y-85791533D01*
X95209916Y-85790539D01*
X95327314Y-85789723D01*
X95375447Y-85789493D01*
X95375447Y-85407500D01*
X95308906Y-85407114D01*
X95261829Y-85405339D01*
X95228286Y-85401248D01*
X95202345Y-85393917D01*
X95178075Y-85382419D01*
X95164225Y-85374531D01*
X95110641Y-85329413D01*
X95075563Y-85270727D01*
X95060866Y-85204110D01*
X95068426Y-85135194D01*
X95076659Y-85111619D01*
X95106631Y-85064831D01*
X95152919Y-85020261D01*
X95206993Y-84985397D01*
X95233036Y-84974369D01*
X95269835Y-84966238D01*
X95321493Y-84960369D01*
X95377495Y-84957914D01*
X95383350Y-84957902D01*
X95481449Y-84966785D01*
X95563424Y-84992454D01*
X95627657Y-85034233D01*
X95662541Y-85074706D01*
X95690935Y-85138729D01*
X95696857Y-85206045D01*
X95681725Y-85271326D01*
X95646958Y-85329244D01*
X95593978Y-85374473D01*
X95580692Y-85381850D01*
X95554607Y-85393161D01*
X95525256Y-85400654D01*
X95486837Y-85405056D01*
X95433546Y-85407090D01*
X95375447Y-85407500D01*
X95375447Y-85789493D01*
X95455003Y-85789111D01*
X95590466Y-85788725D01*
X95723075Y-85788591D01*
X96494600Y-85788500D01*
X96494600Y-85407500D01*
X95849825Y-85407500D01*
G36*
X95984666Y-83724016D02*
G01*
X95959576Y-83622731D01*
X95916264Y-83530913D01*
X95861919Y-83460183D01*
X95781441Y-83393894D01*
X95683951Y-83342720D01*
X95573815Y-83308066D01*
X95455404Y-83291337D01*
X95342075Y-83293059D01*
X95250000Y-83301468D01*
X95250000Y-83675034D01*
X95249945Y-83782137D01*
X95249657Y-83866541D01*
X95248957Y-83930945D01*
X95247665Y-83978050D01*
X95245599Y-84010555D01*
X95242580Y-84031163D01*
X95238428Y-84042571D01*
X95232961Y-84047482D01*
X95225999Y-84048594D01*
X95225042Y-84048600D01*
X95195837Y-84038601D01*
X95159678Y-84012281D01*
X95122581Y-83975160D01*
X95090562Y-83932758D01*
X95081002Y-83916453D01*
X95069105Y-83891318D01*
X95061163Y-83864912D01*
X95056428Y-83831477D01*
X95054151Y-83785257D01*
X95053585Y-83720496D01*
X95053609Y-83705700D01*
X95056685Y-83599377D01*
X95065280Y-83517174D01*
X95074219Y-83475400D01*
X95094419Y-83403849D01*
X94965835Y-83378202D01*
X94902575Y-83366542D01*
X94860566Y-83361297D01*
X94836553Y-83362206D01*
X94828103Y-83367203D01*
X94821223Y-83385653D01*
X94810768Y-83422219D01*
X94798602Y-83470207D01*
X94793974Y-83489800D01*
X94775436Y-83591457D01*
X94764261Y-83699702D01*
X94761056Y-83804864D01*
X94766429Y-83897270D01*
X94767750Y-83907560D01*
X94791113Y-84021436D01*
X94828606Y-84117890D01*
X94882832Y-84202133D01*
X94951138Y-84274613D01*
X95037274Y-84336801D01*
X95136805Y-84380820D01*
X95245614Y-84406899D01*
X95359586Y-84415269D01*
X95474604Y-84406162D01*
X95516700Y-84396253D01*
X95516700Y-84059527D01*
X95516700Y-83850864D01*
X95516789Y-83773798D01*
X95517383Y-83718520D01*
X95518979Y-83681415D01*
X95522073Y-83658872D01*
X95527159Y-83647277D01*
X95534734Y-83643017D01*
X95545275Y-83642479D01*
X95586788Y-83650703D01*
X95633921Y-83671025D01*
X95676094Y-83697952D01*
X95701133Y-83723400D01*
X95731102Y-83788986D01*
X95737345Y-83854368D01*
X95721354Y-83916282D01*
X95684618Y-83971463D01*
X95628628Y-84016647D01*
X95554874Y-84048569D01*
X95552367Y-84049298D01*
X95516700Y-84059527D01*
X95516700Y-84396253D01*
X95586554Y-84379808D01*
X95691319Y-84336437D01*
X95784783Y-84276279D01*
X95840852Y-84224764D01*
X95905130Y-84139436D01*
X95951766Y-84042478D01*
X95980645Y-83938109D01*
X95991651Y-83830548D01*
X95984666Y-83724016D01*
X95984666Y-83724016D01*
G37*
X95984666Y-83724016D02*
X95959576Y-83622731D01*
X95916264Y-83530913D01*
X95861919Y-83460183D01*
X95781441Y-83393894D01*
X95683951Y-83342720D01*
X95573815Y-83308066D01*
X95455404Y-83291337D01*
X95342075Y-83293059D01*
X95250000Y-83301468D01*
X95250000Y-83675034D01*
X95249945Y-83782137D01*
X95249657Y-83866541D01*
X95248957Y-83930945D01*
X95247665Y-83978050D01*
X95245599Y-84010555D01*
X95242580Y-84031163D01*
X95238428Y-84042571D01*
X95232961Y-84047482D01*
X95225999Y-84048594D01*
X95225042Y-84048600D01*
X95195837Y-84038601D01*
X95159678Y-84012281D01*
X95122581Y-83975160D01*
X95090562Y-83932758D01*
X95081002Y-83916453D01*
X95069105Y-83891318D01*
X95061163Y-83864912D01*
X95056428Y-83831477D01*
X95054151Y-83785257D01*
X95053585Y-83720496D01*
X95053609Y-83705700D01*
X95056685Y-83599377D01*
X95065280Y-83517174D01*
X95074219Y-83475400D01*
X95094419Y-83403849D01*
X94965835Y-83378202D01*
X94902575Y-83366542D01*
X94860566Y-83361297D01*
X94836553Y-83362206D01*
X94828103Y-83367203D01*
X94821223Y-83385653D01*
X94810768Y-83422219D01*
X94798602Y-83470207D01*
X94793974Y-83489800D01*
X94775436Y-83591457D01*
X94764261Y-83699702D01*
X94761056Y-83804864D01*
X94766429Y-83897270D01*
X94767750Y-83907560D01*
X94791113Y-84021436D01*
X94828606Y-84117890D01*
X94882832Y-84202133D01*
X94951138Y-84274613D01*
X95037274Y-84336801D01*
X95136805Y-84380820D01*
X95245614Y-84406899D01*
X95359586Y-84415269D01*
X95474604Y-84406162D01*
X95516700Y-84396253D01*
X95516700Y-84059527D01*
X95516700Y-83850864D01*
X95516789Y-83773798D01*
X95517383Y-83718520D01*
X95518979Y-83681415D01*
X95522073Y-83658872D01*
X95527159Y-83647277D01*
X95534734Y-83643017D01*
X95545275Y-83642479D01*
X95586788Y-83650703D01*
X95633921Y-83671025D01*
X95676094Y-83697952D01*
X95701133Y-83723400D01*
X95731102Y-83788986D01*
X95737345Y-83854368D01*
X95721354Y-83916282D01*
X95684618Y-83971463D01*
X95628628Y-84016647D01*
X95554874Y-84048569D01*
X95552367Y-84049298D01*
X95516700Y-84059527D01*
X95516700Y-84396253D01*
X95586554Y-84379808D01*
X95691319Y-84336437D01*
X95784783Y-84276279D01*
X95840852Y-84224764D01*
X95905130Y-84139436D01*
X95951766Y-84042478D01*
X95980645Y-83938109D01*
X95991651Y-83830548D01*
X95984666Y-83724016D01*
G36*
X95734517Y-81940400D02*
G01*
X95594633Y-81940263D01*
X95459805Y-81939869D01*
X95332620Y-81939241D01*
X95215669Y-81938405D01*
X95111538Y-81937386D01*
X95022815Y-81936208D01*
X94952090Y-81934897D01*
X94901951Y-81933477D01*
X94877267Y-81932187D01*
X94780100Y-81923973D01*
X94780100Y-82270600D01*
X94836212Y-82270600D01*
X94885476Y-82272169D01*
X94910964Y-82278750D01*
X94914203Y-82293157D01*
X94896721Y-82318203D01*
X94874818Y-82341676D01*
X94823448Y-82411106D01*
X94786102Y-82495918D01*
X94764630Y-82589199D01*
X94760884Y-82684037D01*
X94768140Y-82739925D01*
X94800618Y-82837665D01*
X94854957Y-82926908D01*
X94928277Y-83004893D01*
X95017696Y-83068857D01*
X95120330Y-83116037D01*
X95178351Y-83133114D01*
X95237356Y-83142305D01*
X95312368Y-83146853D01*
X95384263Y-83146881D01*
X95384263Y-82765830D01*
X95285993Y-82758941D01*
X95207337Y-82737808D01*
X95146261Y-82701475D01*
X95100734Y-82648987D01*
X95088075Y-82626582D01*
X95064617Y-82563794D01*
X95062978Y-82506248D01*
X95083185Y-82446136D01*
X95088745Y-82435193D01*
X95115639Y-82393219D01*
X95148151Y-82362524D01*
X95190385Y-82341556D01*
X95246442Y-82328766D01*
X95320425Y-82322605D01*
X95389926Y-82321400D01*
X95457323Y-82321694D01*
X95504806Y-82323155D01*
X95537857Y-82326653D01*
X95561961Y-82333057D01*
X95582600Y-82343237D01*
X95600446Y-82354782D01*
X95643630Y-82387258D01*
X95670592Y-82417877D01*
X95688148Y-82455476D01*
X95694835Y-82477164D01*
X95702549Y-82544362D01*
X95685984Y-82607367D01*
X95644599Y-82668149D01*
X95641105Y-82671995D01*
X95585437Y-82719130D01*
X95519121Y-82749202D01*
X95437785Y-82763809D01*
X95384263Y-82765830D01*
X95384263Y-83146881D01*
X95394447Y-83146886D01*
X95474650Y-83142527D01*
X95544038Y-83133904D01*
X95573729Y-83127554D01*
X95686764Y-83086577D01*
X95784931Y-83028090D01*
X95866230Y-82954172D01*
X95928662Y-82866902D01*
X95970228Y-82768361D01*
X95985063Y-82699587D01*
X95990557Y-82601076D01*
X95979952Y-82508117D01*
X95954420Y-82425938D01*
X95915134Y-82359772D01*
X95906701Y-82349975D01*
X95880573Y-82321400D01*
X96494600Y-82321400D01*
X96494600Y-81940400D01*
X95734517Y-81940400D01*
X95734517Y-81940400D01*
G37*
X95734517Y-81940400D02*
X95594633Y-81940263D01*
X95459805Y-81939869D01*
X95332620Y-81939241D01*
X95215669Y-81938405D01*
X95111538Y-81937386D01*
X95022815Y-81936208D01*
X94952090Y-81934897D01*
X94901951Y-81933477D01*
X94877267Y-81932187D01*
X94780100Y-81923973D01*
X94780100Y-82270600D01*
X94836212Y-82270600D01*
X94885476Y-82272169D01*
X94910964Y-82278750D01*
X94914203Y-82293157D01*
X94896721Y-82318203D01*
X94874818Y-82341676D01*
X94823448Y-82411106D01*
X94786102Y-82495918D01*
X94764630Y-82589199D01*
X94760884Y-82684037D01*
X94768140Y-82739925D01*
X94800618Y-82837665D01*
X94854957Y-82926908D01*
X94928277Y-83004893D01*
X95017696Y-83068857D01*
X95120330Y-83116037D01*
X95178351Y-83133114D01*
X95237356Y-83142305D01*
X95312368Y-83146853D01*
X95384263Y-83146881D01*
X95384263Y-82765830D01*
X95285993Y-82758941D01*
X95207337Y-82737808D01*
X95146261Y-82701475D01*
X95100734Y-82648987D01*
X95088075Y-82626582D01*
X95064617Y-82563794D01*
X95062978Y-82506248D01*
X95083185Y-82446136D01*
X95088745Y-82435193D01*
X95115639Y-82393219D01*
X95148151Y-82362524D01*
X95190385Y-82341556D01*
X95246442Y-82328766D01*
X95320425Y-82322605D01*
X95389926Y-82321400D01*
X95457323Y-82321694D01*
X95504806Y-82323155D01*
X95537857Y-82326653D01*
X95561961Y-82333057D01*
X95582600Y-82343237D01*
X95600446Y-82354782D01*
X95643630Y-82387258D01*
X95670592Y-82417877D01*
X95688148Y-82455476D01*
X95694835Y-82477164D01*
X95702549Y-82544362D01*
X95685984Y-82607367D01*
X95644599Y-82668149D01*
X95641105Y-82671995D01*
X95585437Y-82719130D01*
X95519121Y-82749202D01*
X95437785Y-82763809D01*
X95384263Y-82765830D01*
X95384263Y-83146881D01*
X95394447Y-83146886D01*
X95474650Y-83142527D01*
X95544038Y-83133904D01*
X95573729Y-83127554D01*
X95686764Y-83086577D01*
X95784931Y-83028090D01*
X95866230Y-82954172D01*
X95928662Y-82866902D01*
X95970228Y-82768361D01*
X95985063Y-82699587D01*
X95990557Y-82601076D01*
X95979952Y-82508117D01*
X95954420Y-82425938D01*
X95915134Y-82359772D01*
X95906701Y-82349975D01*
X95880573Y-82321400D01*
X96494600Y-82321400D01*
X96494600Y-81940400D01*
X95734517Y-81940400D01*
G36*
X95207651Y-81442965D02*
G01*
X95187301Y-81381251D01*
X95149722Y-81329371D01*
X95124756Y-81309138D01*
X95059277Y-81278363D01*
X94990424Y-81268094D01*
X94922976Y-81276767D01*
X94861713Y-81302822D01*
X94811414Y-81344694D01*
X94776857Y-81400824D01*
X94768870Y-81425474D01*
X94758941Y-81468904D01*
X94756437Y-81499577D01*
X94761725Y-81529135D01*
X94773225Y-81563780D01*
X94806277Y-81626297D01*
X94856063Y-81671275D01*
X94902666Y-81694157D01*
X94973669Y-81708521D01*
X95047851Y-81701477D01*
X95116246Y-81673928D01*
X95118694Y-81672438D01*
X95166294Y-81629250D01*
X95197051Y-81572751D01*
X95210869Y-81508727D01*
X95207651Y-81442965D01*
X95207651Y-81442965D01*
G37*
X95207651Y-81442965D02*
X95187301Y-81381251D01*
X95149722Y-81329371D01*
X95124756Y-81309138D01*
X95059277Y-81278363D01*
X94990424Y-81268094D01*
X94922976Y-81276767D01*
X94861713Y-81302822D01*
X94811414Y-81344694D01*
X94776857Y-81400824D01*
X94768870Y-81425474D01*
X94758941Y-81468904D01*
X94756437Y-81499577D01*
X94761725Y-81529135D01*
X94773225Y-81563780D01*
X94806277Y-81626297D01*
X94856063Y-81671275D01*
X94902666Y-81694157D01*
X94973669Y-81708521D01*
X95047851Y-81701477D01*
X95116246Y-81673928D01*
X95118694Y-81672438D01*
X95166294Y-81629250D01*
X95197051Y-81572751D01*
X95210869Y-81508727D01*
X95207651Y-81442965D01*
G36*
X95973438Y-80284821D02*
G01*
X95937063Y-80172662D01*
X95881109Y-80074652D01*
X95806294Y-79992027D01*
X95713332Y-79926019D01*
X95602940Y-79877862D01*
X95594774Y-79875253D01*
X95531116Y-79861016D01*
X95452620Y-79851714D01*
X95369467Y-79847902D01*
X95291839Y-79850138D01*
X95243650Y-79856066D01*
X95134487Y-79887829D01*
X95033303Y-79939748D01*
X94944470Y-80008663D01*
X94872362Y-80091413D01*
X94837266Y-80149670D01*
X94798319Y-80246896D01*
X94772283Y-80355189D01*
X94760594Y-80465425D01*
X94764690Y-80568478D01*
X94767944Y-80589798D01*
X94801049Y-80711972D01*
X94853546Y-80818349D01*
X94924151Y-80907885D01*
X95011580Y-80979540D01*
X95114550Y-81032269D01*
X95231777Y-81065030D01*
X95361978Y-81076782D01*
X95367539Y-81076800D01*
X95377000Y-81076241D01*
X95377000Y-80688547D01*
X95282452Y-80682391D01*
X95200678Y-80664662D01*
X95136219Y-80636526D01*
X95114473Y-80621117D01*
X95069557Y-80569899D01*
X95042604Y-80509551D01*
X95035227Y-80446398D01*
X95049042Y-80386765D01*
X95052694Y-80379183D01*
X95095895Y-80322859D01*
X95159335Y-80280374D01*
X95241557Y-80252357D01*
X95341104Y-80239441D01*
X95377000Y-80238600D01*
X95478595Y-80246137D01*
X95564672Y-80268001D01*
X95633510Y-80303075D01*
X95683389Y-80350239D01*
X95712587Y-80408375D01*
X95719900Y-80461475D01*
X95708471Y-80529822D01*
X95675126Y-80587188D01*
X95621276Y-80632638D01*
X95548336Y-80665236D01*
X95457718Y-80684047D01*
X95377000Y-80688547D01*
X95377000Y-81076241D01*
X95491101Y-81069496D01*
X95597583Y-81046504D01*
X95691048Y-81006211D01*
X95775562Y-80947001D01*
X95833045Y-80891865D01*
X95901921Y-80802332D01*
X95950115Y-80701924D01*
X95979089Y-80587310D01*
X95984588Y-80546656D01*
X95989519Y-80409897D01*
X95973438Y-80284821D01*
X95973438Y-80284821D01*
G37*
X95973438Y-80284821D02*
X95937063Y-80172662D01*
X95881109Y-80074652D01*
X95806294Y-79992027D01*
X95713332Y-79926019D01*
X95602940Y-79877862D01*
X95594774Y-79875253D01*
X95531116Y-79861016D01*
X95452620Y-79851714D01*
X95369467Y-79847902D01*
X95291839Y-79850138D01*
X95243650Y-79856066D01*
X95134487Y-79887829D01*
X95033303Y-79939748D01*
X94944470Y-80008663D01*
X94872362Y-80091413D01*
X94837266Y-80149670D01*
X94798319Y-80246896D01*
X94772283Y-80355189D01*
X94760594Y-80465425D01*
X94764690Y-80568478D01*
X94767944Y-80589798D01*
X94801049Y-80711972D01*
X94853546Y-80818349D01*
X94924151Y-80907885D01*
X95011580Y-80979540D01*
X95114550Y-81032269D01*
X95231777Y-81065030D01*
X95361978Y-81076782D01*
X95367539Y-81076800D01*
X95377000Y-81076241D01*
X95377000Y-80688547D01*
X95282452Y-80682391D01*
X95200678Y-80664662D01*
X95136219Y-80636526D01*
X95114473Y-80621117D01*
X95069557Y-80569899D01*
X95042604Y-80509551D01*
X95035227Y-80446398D01*
X95049042Y-80386765D01*
X95052694Y-80379183D01*
X95095895Y-80322859D01*
X95159335Y-80280374D01*
X95241557Y-80252357D01*
X95341104Y-80239441D01*
X95377000Y-80238600D01*
X95478595Y-80246137D01*
X95564672Y-80268001D01*
X95633510Y-80303075D01*
X95683389Y-80350239D01*
X95712587Y-80408375D01*
X95719900Y-80461475D01*
X95708471Y-80529822D01*
X95675126Y-80587188D01*
X95621276Y-80632638D01*
X95548336Y-80665236D01*
X95457718Y-80684047D01*
X95377000Y-80688547D01*
X95377000Y-81076241D01*
X95491101Y-81069496D01*
X95597583Y-81046504D01*
X95691048Y-81006211D01*
X95775562Y-80947001D01*
X95833045Y-80891865D01*
X95901921Y-80802332D01*
X95950115Y-80701924D01*
X95979089Y-80587310D01*
X95984588Y-80546656D01*
X95989519Y-80409897D01*
X95973438Y-80284821D01*
G36*
X95987498Y-78925051D02*
G01*
X95967200Y-78913125D01*
X95931523Y-78907254D01*
X95877023Y-78905293D01*
X95808237Y-78905100D01*
X95632836Y-78905100D01*
X95640034Y-78974845D01*
X95637270Y-79054035D01*
X95613828Y-79125501D01*
X95572276Y-79185144D01*
X95515181Y-79228867D01*
X95469423Y-79247237D01*
X95442311Y-79251189D01*
X95393401Y-79254619D01*
X95326292Y-79257397D01*
X95244583Y-79259392D01*
X95151873Y-79260472D01*
X95100775Y-79260630D01*
X94780100Y-79260700D01*
X94780100Y-79629000D01*
X95113475Y-79629034D01*
X95222106Y-79629408D01*
X95339778Y-79630438D01*
X95458697Y-79632012D01*
X95571069Y-79634021D01*
X95669100Y-79636353D01*
X95704025Y-79637400D01*
X95961200Y-79645732D01*
X95961200Y-79311500D01*
X95856425Y-79311003D01*
X95806068Y-79310498D01*
X95778040Y-79309031D01*
X95769274Y-79305783D01*
X95776699Y-79299935D01*
X95790738Y-79293486D01*
X95859196Y-79250771D01*
X95917832Y-79189259D01*
X95962275Y-79114960D01*
X95988156Y-79033887D01*
X95990564Y-79018599D01*
X95995735Y-78975644D01*
X95995861Y-78945176D01*
X95987498Y-78925051D01*
X95987498Y-78925051D01*
G37*
X95987498Y-78925051D02*
X95967200Y-78913125D01*
X95931523Y-78907254D01*
X95877023Y-78905293D01*
X95808237Y-78905100D01*
X95632836Y-78905100D01*
X95640034Y-78974845D01*
X95637270Y-79054035D01*
X95613828Y-79125501D01*
X95572276Y-79185144D01*
X95515181Y-79228867D01*
X95469423Y-79247237D01*
X95442311Y-79251189D01*
X95393401Y-79254619D01*
X95326292Y-79257397D01*
X95244583Y-79259392D01*
X95151873Y-79260472D01*
X95100775Y-79260630D01*
X94780100Y-79260700D01*
X94780100Y-79629000D01*
X95113475Y-79629034D01*
X95222106Y-79629408D01*
X95339778Y-79630438D01*
X95458697Y-79632012D01*
X95571069Y-79634021D01*
X95669100Y-79636353D01*
X95704025Y-79637400D01*
X95961200Y-79645732D01*
X95961200Y-79311500D01*
X95856425Y-79311003D01*
X95806068Y-79310498D01*
X95778040Y-79309031D01*
X95769274Y-79305783D01*
X95776699Y-79299935D01*
X95790738Y-79293486D01*
X95859196Y-79250771D01*
X95917832Y-79189259D01*
X95962275Y-79114960D01*
X95988156Y-79033887D01*
X95990564Y-79018599D01*
X95995735Y-78975644D01*
X95995861Y-78945176D01*
X95987498Y-78925051D01*
G36*
X96411062Y-90620595D02*
G01*
X96395601Y-90493223D01*
X96368240Y-90384359D01*
X96328555Y-90292482D01*
X96276124Y-90216072D01*
X96210522Y-90153608D01*
X96184677Y-90134965D01*
X96104468Y-90091173D01*
X96018964Y-90065853D01*
X95921850Y-90057456D01*
X95873549Y-90058738D01*
X95758652Y-90074075D01*
X95659918Y-90107399D01*
X95575840Y-90159902D01*
X95504912Y-90232777D01*
X95445628Y-90327214D01*
X95400497Y-90432983D01*
X95387401Y-90477953D01*
X95377990Y-90531717D01*
X95371473Y-90600070D01*
X95367588Y-90674825D01*
X95360987Y-90843100D01*
X94792800Y-90843100D01*
X94792800Y-91211400D01*
X96125817Y-91211400D01*
X96125817Y-90843100D01*
X95643700Y-90843100D01*
X95643700Y-90743763D01*
X95646925Y-90678075D01*
X95655591Y-90617575D01*
X95664223Y-90584194D01*
X95697747Y-90518907D01*
X95745859Y-90468831D01*
X95804198Y-90434503D01*
X95868404Y-90416461D01*
X95934115Y-90415243D01*
X95996971Y-90431386D01*
X96052610Y-90465428D01*
X96096671Y-90517906D01*
X96103399Y-90530055D01*
X96118909Y-90574036D01*
X96130822Y-90633597D01*
X96138081Y-90699044D01*
X96139627Y-90760686D01*
X96134404Y-90808829D01*
X96133993Y-90810525D01*
X96125817Y-90843100D01*
X96125817Y-91211400D01*
X96377338Y-91211400D01*
X96385148Y-91182825D01*
X96388590Y-91161012D01*
X96393177Y-91118697D01*
X96398461Y-91060728D01*
X96403990Y-90991953D01*
X96407976Y-90936942D01*
X96415046Y-90767994D01*
X96411062Y-90620595D01*
X96411062Y-90620595D01*
G37*
X96411062Y-90620595D02*
X96395601Y-90493223D01*
X96368240Y-90384359D01*
X96328555Y-90292482D01*
X96276124Y-90216072D01*
X96210522Y-90153608D01*
X96184677Y-90134965D01*
X96104468Y-90091173D01*
X96018964Y-90065853D01*
X95921850Y-90057456D01*
X95873549Y-90058738D01*
X95758652Y-90074075D01*
X95659918Y-90107399D01*
X95575840Y-90159902D01*
X95504912Y-90232777D01*
X95445628Y-90327214D01*
X95400497Y-90432983D01*
X95387401Y-90477953D01*
X95377990Y-90531717D01*
X95371473Y-90600070D01*
X95367588Y-90674825D01*
X95360987Y-90843100D01*
X94792800Y-90843100D01*
X94792800Y-91211400D01*
X96125817Y-91211400D01*
X96125817Y-90843100D01*
X95643700Y-90843100D01*
X95643700Y-90743763D01*
X95646925Y-90678075D01*
X95655591Y-90617575D01*
X95664223Y-90584194D01*
X95697747Y-90518907D01*
X95745859Y-90468831D01*
X95804198Y-90434503D01*
X95868404Y-90416461D01*
X95934115Y-90415243D01*
X95996971Y-90431386D01*
X96052610Y-90465428D01*
X96096671Y-90517906D01*
X96103399Y-90530055D01*
X96118909Y-90574036D01*
X96130822Y-90633597D01*
X96138081Y-90699044D01*
X96139627Y-90760686D01*
X96134404Y-90808829D01*
X96133993Y-90810525D01*
X96125817Y-90843100D01*
X96125817Y-91211400D01*
X96377338Y-91211400D01*
X96385148Y-91182825D01*
X96388590Y-91161012D01*
X96393177Y-91118697D01*
X96398461Y-91060728D01*
X96403990Y-90991953D01*
X96407976Y-90936942D01*
X96415046Y-90767994D01*
X96411062Y-90620595D01*
G36*
X99768014Y-78204025D02*
G01*
X99754519Y-78172493D01*
X99729511Y-78133395D01*
X99691656Y-78084618D01*
X99639625Y-78024048D01*
X99572085Y-77949570D01*
X99498014Y-77870050D01*
X99433675Y-77801479D01*
X99373611Y-77737429D01*
X99320445Y-77680702D01*
X99276802Y-77634101D01*
X99245308Y-77600425D01*
X99228622Y-77582515D01*
X99197611Y-77548980D01*
X99361473Y-77341215D01*
X99430055Y-77254125D01*
X99484468Y-77184482D01*
X99526344Y-77129846D01*
X99557315Y-77087778D01*
X99579012Y-77055838D01*
X99593067Y-77031585D01*
X99601111Y-77012579D01*
X99604775Y-76996380D01*
X99605691Y-76980548D01*
X99605678Y-76975970D01*
X99603841Y-76950343D01*
X99597162Y-76928072D01*
X99583116Y-76907502D01*
X99559176Y-76886980D01*
X99522817Y-76864851D01*
X99471514Y-76839462D01*
X99402742Y-76809159D01*
X99313975Y-76772287D01*
X99263059Y-76751582D01*
X99182204Y-76718742D01*
X99109069Y-76688866D01*
X99046983Y-76663327D01*
X98999271Y-76643498D01*
X98969261Y-76630753D01*
X98960341Y-76626650D01*
X98960467Y-76613085D01*
X98966141Y-76578019D01*
X98976705Y-76524581D01*
X98991502Y-76455902D01*
X99009875Y-76375110D01*
X99031168Y-76285337D01*
X99037143Y-76260739D01*
X99068442Y-76130176D01*
X99092813Y-76022004D01*
X99110276Y-75934182D01*
X99120851Y-75864668D01*
X99124558Y-75811423D01*
X99121417Y-75772405D01*
X99111448Y-75745574D01*
X99094671Y-75728888D01*
X99071105Y-75720307D01*
X99042449Y-75717804D01*
X99019156Y-75720533D01*
X98975580Y-75728379D01*
X98916117Y-75740444D01*
X98845162Y-75755831D01*
X98767110Y-75773641D01*
X98753654Y-75776798D01*
X98677240Y-75794396D01*
X98609454Y-75809248D01*
X98554086Y-75820585D01*
X98514924Y-75827639D01*
X98495758Y-75829644D01*
X98494562Y-75829296D01*
X98492077Y-75815454D01*
X98488106Y-75779200D01*
X98482904Y-75723462D01*
X98476721Y-75651170D01*
X98469808Y-75565251D01*
X98462419Y-75468635D01*
X98455885Y-75379374D01*
X98446232Y-75247915D01*
X98437603Y-75139604D01*
X98429554Y-75052230D01*
X98421643Y-74983583D01*
X98413425Y-74931452D01*
X98404458Y-74893627D01*
X98394298Y-74867898D01*
X98382502Y-74852054D01*
X98368626Y-74843886D01*
X98352228Y-74841182D01*
X98347931Y-74841100D01*
X98309363Y-74852941D01*
X98289535Y-74871256D01*
X98274504Y-74889546D01*
X98245584Y-74923711D01*
X98205577Y-74970478D01*
X98157286Y-75026575D01*
X98103513Y-75088733D01*
X98082696Y-75112718D01*
X98015561Y-75188849D01*
X97962249Y-75246802D01*
X97923229Y-75286100D01*
X97898972Y-75306265D01*
X97890304Y-75307988D01*
X97883876Y-75292049D01*
X97870358Y-75255481D01*
X97850958Y-75201660D01*
X97826885Y-75133964D01*
X97799349Y-75055769D01*
X97773158Y-74980800D01*
X97728967Y-74854027D01*
X97692173Y-74749044D01*
X97661905Y-74663625D01*
X97637291Y-74595545D01*
X97617460Y-74542578D01*
X97601542Y-74502498D01*
X97588664Y-74473078D01*
X97577956Y-74452093D01*
X97568546Y-74437316D01*
X97559564Y-74426521D01*
X97554131Y-74421136D01*
X97522673Y-74391583D01*
X97496786Y-74417471D01*
X97490561Y-74425094D01*
X97483820Y-74436927D01*
X97475987Y-74454894D01*
X97466486Y-74480916D01*
X97454741Y-74516918D01*
X97440175Y-74564822D01*
X97422212Y-74626551D01*
X97400276Y-74704029D01*
X97373790Y-74799178D01*
X97342178Y-74913922D01*
X97304864Y-75050184D01*
X97281064Y-75137335D01*
X97267805Y-75185919D01*
X97045144Y-74870635D01*
X96966563Y-74760157D01*
X96900755Y-74669637D01*
X96846521Y-74597819D01*
X96802664Y-74543447D01*
X96767987Y-74505267D01*
X96741293Y-74482020D01*
X96721385Y-74472453D01*
X96707064Y-74475309D01*
X96697135Y-74489332D01*
X96693105Y-74501375D01*
X96688695Y-74534419D01*
X96686482Y-74591646D01*
X96686449Y-74671939D01*
X96688576Y-74774179D01*
X96692846Y-74897247D01*
X96699241Y-75040023D01*
X96703004Y-75114150D01*
X96707488Y-75201052D01*
X96711367Y-75279083D01*
X96714481Y-75344816D01*
X96716673Y-75394818D01*
X96717785Y-75425661D01*
X96717785Y-75434241D01*
X96707167Y-75428194D01*
X96678171Y-75409827D01*
X96633543Y-75380928D01*
X96576025Y-75343285D01*
X96508364Y-75298687D01*
X96433303Y-75248922D01*
X96430626Y-75247142D01*
X96338758Y-75186535D01*
X96265372Y-75139301D01*
X96208224Y-75104134D01*
X96165068Y-75079729D01*
X96133658Y-75064779D01*
X96111749Y-75057979D01*
X96104075Y-75057226D01*
X96079465Y-75058289D01*
X96067313Y-75066230D01*
X96063223Y-75087653D01*
X96062800Y-75119193D01*
X96066229Y-75147840D01*
X96076659Y-75195020D01*
X96094311Y-75261458D01*
X96119402Y-75347879D01*
X96152153Y-75455010D01*
X96192781Y-75583576D01*
X96241506Y-75734302D01*
X96298547Y-75907915D01*
X96322919Y-75981457D01*
X96341021Y-76035963D01*
X96035189Y-76032257D01*
X95937982Y-76031250D01*
X95863138Y-76030987D01*
X95807627Y-76031622D01*
X95768418Y-76033313D01*
X95742481Y-76036215D01*
X95726787Y-76040486D01*
X95718304Y-76046281D01*
X95716476Y-76048702D01*
X95708999Y-76065684D01*
X95707506Y-76086420D01*
X95713086Y-76113028D01*
X95726829Y-76147627D01*
X95749826Y-76192334D01*
X95783166Y-76249267D01*
X95827939Y-76320546D01*
X95885235Y-76408287D01*
X95956144Y-76514608D01*
X95956505Y-76515146D01*
X96012750Y-76599091D01*
X96064306Y-76676346D01*
X96109500Y-76744378D01*
X96146658Y-76800653D01*
X96174105Y-76842641D01*
X96190167Y-76867807D01*
X96193730Y-76874012D01*
X96184523Y-76883621D01*
X96157373Y-76905686D01*
X96115119Y-76938059D01*
X96060597Y-76978588D01*
X95996645Y-77025123D01*
X95953029Y-77056388D01*
X95867443Y-77117963D01*
X95801134Y-77167650D01*
X95752329Y-77207777D01*
X95719256Y-77240673D01*
X95700142Y-77268666D01*
X95693216Y-77294084D01*
X95696703Y-77319256D01*
X95708833Y-77346509D01*
X95718944Y-77363882D01*
X95737075Y-77383711D01*
X95774234Y-77416098D01*
X95828370Y-77459429D01*
X95897435Y-77512089D01*
X95979378Y-77572463D01*
X96030047Y-77608982D01*
X96104731Y-77662769D01*
X96172169Y-77712012D01*
X96229721Y-77754729D01*
X96274749Y-77788938D01*
X96304613Y-77812658D01*
X96316674Y-77823907D01*
X96316800Y-77824300D01*
X96311718Y-77838070D01*
X96297371Y-77871863D01*
X96275113Y-77922626D01*
X96246294Y-77987305D01*
X96212266Y-78062849D01*
X96174382Y-78146205D01*
X96170122Y-78155533D01*
X96126092Y-78252406D01*
X96091795Y-78329292D01*
X96066109Y-78389167D01*
X96047909Y-78435006D01*
X96036073Y-78469786D01*
X96029478Y-78496483D01*
X96026999Y-78518071D01*
X96027247Y-78534007D01*
X96030164Y-78562775D01*
X96036542Y-78585665D01*
X96049195Y-78603700D01*
X96070939Y-78617902D01*
X96104586Y-78629295D01*
X96152952Y-78638901D01*
X96218850Y-78647743D01*
X96305095Y-78656844D01*
X96386650Y-78664626D01*
X96469852Y-78672551D01*
X96544173Y-78679889D01*
X96606026Y-78686266D01*
X96651823Y-78691304D01*
X96677977Y-78694630D01*
X96682726Y-78695621D01*
X96682877Y-78708724D01*
X96681321Y-78743904D01*
X96678255Y-78797908D01*
X96673877Y-78867483D01*
X96668384Y-78949377D01*
X96661973Y-79040338D01*
X96661057Y-79053010D01*
X96651169Y-79191097D01*
X96643369Y-79306048D01*
X96637748Y-79400048D01*
X96634397Y-79475283D01*
X96633409Y-79533937D01*
X96634873Y-79578197D01*
X96638880Y-79610247D01*
X96645523Y-79632273D01*
X96654892Y-79646460D01*
X96667078Y-79654993D01*
X96682172Y-79660058D01*
X96686409Y-79661038D01*
X96698119Y-79663630D01*
X96708779Y-79664696D01*
X96721068Y-79662821D01*
X96737665Y-79656592D01*
X96761251Y-79644593D01*
X96794505Y-79625412D01*
X96840108Y-79597633D01*
X96900738Y-79559842D01*
X96979075Y-79510625D01*
X97019091Y-79485458D01*
X97082329Y-79446060D01*
X97137809Y-79412190D01*
X97182130Y-79385869D01*
X97211888Y-79369116D01*
X97223681Y-79363950D01*
X97223707Y-79363975D01*
X97227235Y-79377167D01*
X97235123Y-79411918D01*
X97246656Y-79464899D01*
X97261117Y-79532781D01*
X97277789Y-79612235D01*
X97294425Y-79692500D01*
X97322823Y-79829800D01*
X97346794Y-79944396D01*
X97366863Y-80038497D01*
X97383555Y-80114310D01*
X97397397Y-80174045D01*
X97408914Y-80219910D01*
X97418630Y-80254114D01*
X97427073Y-80278864D01*
X97434766Y-80296370D01*
X97440476Y-80306249D01*
X97456035Y-80327112D01*
X97471102Y-80338928D01*
X97487064Y-80340011D01*
X97505307Y-80328680D01*
X97527219Y-80303249D01*
X97554186Y-80262038D01*
X97587594Y-80203360D01*
X97628831Y-80125534D01*
X97679282Y-80026877D01*
X97693077Y-79999593D01*
X97848611Y-79691522D01*
X98044262Y-80075253D01*
X98104335Y-80192462D01*
X98154431Y-80288674D01*
X98195657Y-80365748D01*
X98229117Y-80425541D01*
X98255917Y-80469913D01*
X98272438Y-80493871D01*
X98272438Y-80251300D01*
X98266869Y-80245139D01*
X98251210Y-80218801D01*
X98226812Y-80174788D01*
X98195024Y-80115602D01*
X98157196Y-80043744D01*
X98114680Y-79961715D01*
X98087350Y-79908400D01*
X98040821Y-79818279D01*
X97996374Y-79734093D01*
X97955700Y-79658902D01*
X97920488Y-79595763D01*
X97892432Y-79547737D01*
X97873220Y-79517882D01*
X97867578Y-79510844D01*
X97844172Y-79488605D01*
X97828918Y-79482912D01*
X97812489Y-79491880D01*
X97804724Y-79498144D01*
X97791425Y-79515508D01*
X97768731Y-79552253D01*
X97738536Y-79605006D01*
X97702733Y-79670396D01*
X97663215Y-79745049D01*
X97631408Y-79806800D01*
X97591922Y-79884025D01*
X97556480Y-79952662D01*
X97526609Y-80009810D01*
X97503836Y-80052568D01*
X97489688Y-80078033D01*
X97485583Y-80083907D01*
X97482325Y-80060623D01*
X97474135Y-80016556D01*
X97461845Y-79955447D01*
X97446285Y-79881034D01*
X97428286Y-79797058D01*
X97408679Y-79707256D01*
X97388296Y-79615369D01*
X97367965Y-79525136D01*
X97348520Y-79440296D01*
X97330789Y-79364589D01*
X97315605Y-79301753D01*
X97303798Y-79255529D01*
X97296199Y-79229655D01*
X97295232Y-79227194D01*
X97284175Y-79203203D01*
X97273144Y-79185481D01*
X97259719Y-79174863D01*
X97241482Y-79172185D01*
X97216012Y-79178282D01*
X97180891Y-79193990D01*
X97133699Y-79220145D01*
X97072018Y-79257581D01*
X96993428Y-79307133D01*
X96910525Y-79360043D01*
X96854641Y-79394780D01*
X96807073Y-79422484D01*
X96771457Y-79441188D01*
X96751428Y-79448923D01*
X96748374Y-79447838D01*
X96749202Y-79431637D01*
X96751657Y-79393365D01*
X96755514Y-79336285D01*
X96760547Y-79263659D01*
X96766533Y-79178747D01*
X96773247Y-79084813D01*
X96775704Y-79050733D01*
X96782396Y-78952545D01*
X96787906Y-78860533D01*
X96792077Y-78778318D01*
X96794751Y-78709518D01*
X96795770Y-78657752D01*
X96794977Y-78626641D01*
X96794388Y-78622012D01*
X96779599Y-78581840D01*
X96757225Y-78556173D01*
X96732508Y-78547655D01*
X96683356Y-78538167D01*
X96610712Y-78527849D01*
X96515517Y-78516844D01*
X96456211Y-78510778D01*
X96375909Y-78502694D01*
X96304561Y-78495177D01*
X96245888Y-78488645D01*
X96203616Y-78483519D01*
X96181465Y-78480219D01*
X96179089Y-78479522D01*
X96182971Y-78467284D01*
X96196150Y-78435014D01*
X96217303Y-78385751D01*
X96245107Y-78322535D01*
X96278239Y-78248407D01*
X96315374Y-78166408D01*
X96315596Y-78165921D01*
X96353268Y-78081944D01*
X96387141Y-78003926D01*
X96415807Y-77935314D01*
X96437858Y-77879556D01*
X96451886Y-77840098D01*
X96456500Y-77820893D01*
X96449826Y-77783090D01*
X96436214Y-77750727D01*
X96420619Y-77734221D01*
X96387209Y-77705520D01*
X96338990Y-77666979D01*
X96278967Y-77620950D01*
X96210145Y-77569789D01*
X96144114Y-77521977D01*
X96071517Y-77469748D01*
X96006252Y-77422210D01*
X95951024Y-77381379D01*
X95908539Y-77349274D01*
X95881501Y-77327914D01*
X95872588Y-77319409D01*
X95882602Y-77310014D01*
X95910427Y-77288393D01*
X95953008Y-77256804D01*
X96007288Y-77217501D01*
X96070213Y-77172743D01*
X96091663Y-77157644D01*
X96158341Y-77109903D01*
X96218663Y-77064959D01*
X96269190Y-77025517D01*
X96306481Y-76994282D01*
X96327095Y-76973959D01*
X96329264Y-76970857D01*
X96339911Y-76947312D01*
X96340553Y-76924468D01*
X96330956Y-76891638D01*
X96327304Y-76881626D01*
X96315063Y-76856992D01*
X96290519Y-76814512D01*
X96255644Y-76757346D01*
X96212408Y-76688657D01*
X96162783Y-76611606D01*
X96108742Y-76529356D01*
X96091377Y-76503263D01*
X95876224Y-76180950D01*
X96153629Y-76192058D01*
X96252264Y-76195895D01*
X96328316Y-76197992D01*
X96384585Y-76197551D01*
X96423871Y-76193770D01*
X96448974Y-76185848D01*
X96462694Y-76172986D01*
X96467831Y-76154382D01*
X96467185Y-76129236D01*
X96464309Y-76103231D01*
X96458464Y-76074614D01*
X96445670Y-76025520D01*
X96426991Y-75959575D01*
X96403488Y-75880406D01*
X96376224Y-75791639D01*
X96346260Y-75696901D01*
X96335883Y-75664704D01*
X96305980Y-75572091D01*
X96278775Y-75487294D01*
X96255219Y-75413317D01*
X96236260Y-75353164D01*
X96222850Y-75309841D01*
X96215938Y-75286352D01*
X96215200Y-75283081D01*
X96225313Y-75287288D01*
X96253781Y-75303798D01*
X96297799Y-75330862D01*
X96354563Y-75366733D01*
X96421269Y-75409661D01*
X96485066Y-75451297D01*
X96559868Y-75499719D01*
X96628908Y-75543097D01*
X96689002Y-75579535D01*
X96736966Y-75607137D01*
X96769615Y-75624006D01*
X96782660Y-75628500D01*
X96795803Y-75627492D01*
X96806500Y-75623004D01*
X96814860Y-75612847D01*
X96820993Y-75594830D01*
X96825011Y-75566760D01*
X96827022Y-75526449D01*
X96827137Y-75471703D01*
X96825466Y-75400332D01*
X96822120Y-75310146D01*
X96817208Y-75198953D01*
X96810919Y-75066216D01*
X96806956Y-74979552D01*
X96803784Y-74901617D01*
X96801513Y-74835896D01*
X96800254Y-74785869D01*
X96800115Y-74755021D01*
X96800850Y-74746518D01*
X96809160Y-74755180D01*
X96830242Y-74782134D01*
X96862260Y-74824892D01*
X96903380Y-74880964D01*
X96951766Y-74947863D01*
X97005584Y-75023099D01*
X97026281Y-75052234D01*
X97083008Y-75131486D01*
X97136369Y-75204622D01*
X97184259Y-75268864D01*
X97224572Y-75321435D01*
X97255202Y-75359559D01*
X97274043Y-75380460D01*
X97277087Y-75382960D01*
X97292445Y-75392250D01*
X97305773Y-75396901D01*
X97317958Y-75394845D01*
X97329884Y-75384012D01*
X97342438Y-75362336D01*
X97356505Y-75327748D01*
X97372970Y-75278180D01*
X97392720Y-75211563D01*
X97416639Y-75125830D01*
X97445613Y-75018912D01*
X97466845Y-74939810D01*
X97488254Y-74860749D01*
X97507593Y-74790892D01*
X97523885Y-74733638D01*
X97536155Y-74692387D01*
X97543425Y-74670538D01*
X97544902Y-74667969D01*
X97549946Y-74680529D01*
X97562270Y-74714138D01*
X97580825Y-74765847D01*
X97604562Y-74832711D01*
X97632432Y-74911780D01*
X97663386Y-75000109D01*
X97677020Y-75039160D01*
X97710449Y-75133937D01*
X97742813Y-75223686D01*
X97772765Y-75304821D01*
X97798958Y-75373759D01*
X97820046Y-75426914D01*
X97834681Y-75460703D01*
X97837637Y-75466575D01*
X97852857Y-75493713D01*
X97866909Y-75513367D01*
X97881739Y-75524221D01*
X97899290Y-75524962D01*
X97921508Y-75514276D01*
X97950337Y-75490848D01*
X97987721Y-75453364D01*
X98035606Y-75400509D01*
X98095934Y-75330970D01*
X98170652Y-75243432D01*
X98174547Y-75238857D01*
X98220987Y-75184977D01*
X98261459Y-75139300D01*
X98293273Y-75104758D01*
X98313741Y-75084280D01*
X98320203Y-75080107D01*
X98321906Y-75094430D01*
X98325261Y-75131003D01*
X98330013Y-75186747D01*
X98335908Y-75258585D01*
X98342692Y-75343437D01*
X98350111Y-75438225D01*
X98354497Y-75495150D01*
X98362617Y-75596421D01*
X98370915Y-75691448D01*
X98379037Y-75776758D01*
X98386627Y-75848875D01*
X98393329Y-75904325D01*
X98398788Y-75939633D01*
X98400923Y-75948595D01*
X98410249Y-75971910D01*
X98422946Y-75988582D01*
X98442061Y-75998642D01*
X98470643Y-76002120D01*
X98511737Y-75999047D01*
X98568392Y-75989453D01*
X98643655Y-75973368D01*
X98735940Y-75951920D01*
X98811769Y-75934227D01*
X98878755Y-75919081D01*
X98933139Y-75907292D01*
X98971162Y-75899670D01*
X98989065Y-75897025D01*
X98989924Y-75897185D01*
X98988169Y-75910169D01*
X98981065Y-75944599D01*
X98969343Y-75997261D01*
X98953735Y-76064941D01*
X98934971Y-76144422D01*
X98913782Y-76232492D01*
X98912420Y-76238100D01*
X98884121Y-76356227D01*
X98862208Y-76452470D01*
X98846435Y-76529463D01*
X98836554Y-76589841D01*
X98832318Y-76636239D01*
X98833482Y-76671291D01*
X98839799Y-76697633D01*
X98851021Y-76717898D01*
X98865994Y-76733914D01*
X98888186Y-76748059D01*
X98930059Y-76769539D01*
X98987615Y-76796505D01*
X99056852Y-76827108D01*
X99133772Y-76859497D01*
X99165696Y-76872498D01*
X99242146Y-76903622D01*
X99310394Y-76931967D01*
X99367002Y-76956060D01*
X99408530Y-76974426D01*
X99431539Y-76985591D01*
X99434993Y-76987955D01*
X99429069Y-77000076D01*
X99409389Y-77029143D01*
X99378070Y-77072277D01*
X99337231Y-77126596D01*
X99288991Y-77189219D01*
X99256752Y-77230371D01*
X99191720Y-77313653D01*
X99141592Y-77380266D01*
X99104957Y-77433006D01*
X99080403Y-77474673D01*
X99066518Y-77508064D01*
X99061892Y-77535976D01*
X99065112Y-77561208D01*
X99074768Y-77586557D01*
X99075880Y-77588888D01*
X99089429Y-77608307D01*
X99118114Y-77643299D01*
X99159495Y-77691101D01*
X99211135Y-77748949D01*
X99270593Y-77814079D01*
X99335431Y-77883725D01*
X99344883Y-77893768D01*
X99408661Y-77961778D01*
X99466091Y-78023669D01*
X99515036Y-78077085D01*
X99553361Y-78119674D01*
X99578931Y-78149081D01*
X99589610Y-78162952D01*
X99589748Y-78163687D01*
X99576293Y-78169060D01*
X99543648Y-78179824D01*
X99497021Y-78194308D01*
X99452598Y-78207617D01*
X99341050Y-78240553D01*
X99251559Y-78267432D01*
X99181869Y-78289551D01*
X99129724Y-78308205D01*
X99092870Y-78324693D01*
X99069050Y-78340310D01*
X99056009Y-78356354D01*
X99051492Y-78374119D01*
X99053242Y-78394904D01*
X99059005Y-78420005D01*
X99062071Y-78432111D01*
X99071317Y-78458613D01*
X99090197Y-78504535D01*
X99117194Y-78566477D01*
X99150788Y-78641038D01*
X99189463Y-78724817D01*
X99231701Y-78814414D01*
X99246952Y-78846323D01*
X99288769Y-78933907D01*
X99326579Y-79013873D01*
X99359088Y-79083427D01*
X99385006Y-79139774D01*
X99403039Y-79180120D01*
X99411897Y-79201669D01*
X99412538Y-79204496D01*
X99399890Y-79201683D01*
X99366742Y-79191492D01*
X99316524Y-79175056D01*
X99252666Y-79153509D01*
X99178599Y-79127986D01*
X99136504Y-79113278D01*
X99034336Y-79078243D01*
X98951873Y-79051743D01*
X98890134Y-79034075D01*
X98850139Y-79025538D01*
X98835336Y-79025222D01*
X98818653Y-79031993D01*
X98809928Y-79046009D01*
X98806747Y-79073981D01*
X98806526Y-79105367D01*
X98809001Y-79136039D01*
X98815756Y-79187876D01*
X98826189Y-79257117D01*
X98839700Y-79340001D01*
X98855688Y-79432766D01*
X98873554Y-79531652D01*
X98880635Y-79569649D01*
X98954220Y-79961147D01*
X98692785Y-79701064D01*
X98624905Y-79634157D01*
X98561756Y-79573089D01*
X98505854Y-79520203D01*
X98459718Y-79477842D01*
X98425867Y-79448349D01*
X98406818Y-79434067D01*
X98404897Y-79433209D01*
X98382551Y-79433334D01*
X98366035Y-79453083D01*
X98362688Y-79460017D01*
X98358550Y-79478480D01*
X98352329Y-79518341D01*
X98344466Y-79575726D01*
X98335404Y-79646758D01*
X98325585Y-79727562D01*
X98315451Y-79814262D01*
X98305443Y-79902984D01*
X98296004Y-79989851D01*
X98287575Y-80070987D01*
X98280600Y-80142518D01*
X98275519Y-80200568D01*
X98272775Y-80241261D01*
X98272438Y-80251300D01*
X98272438Y-80493871D01*
X98277161Y-80500721D01*
X98293956Y-80519825D01*
X98307405Y-80529082D01*
X98315125Y-80530700D01*
X98327122Y-80527746D01*
X98337672Y-80517368D01*
X98347219Y-80497293D01*
X98356209Y-80465249D01*
X98365086Y-80418962D01*
X98374295Y-80356159D01*
X98384282Y-80274569D01*
X98395491Y-80171917D01*
X98406615Y-80063397D01*
X98416734Y-79964101D01*
X98426259Y-79873147D01*
X98434854Y-79793550D01*
X98442183Y-79728327D01*
X98447910Y-79680495D01*
X98451699Y-79653071D01*
X98452921Y-79647647D01*
X98462779Y-79655021D01*
X98488295Y-79678293D01*
X98527248Y-79715319D01*
X98577414Y-79763955D01*
X98636574Y-79822057D01*
X98702504Y-79887483D01*
X98730274Y-79915224D01*
X98810528Y-79995165D01*
X98875117Y-80058527D01*
X98925988Y-80107036D01*
X98965085Y-80142418D01*
X98994354Y-80166399D01*
X99015738Y-80180705D01*
X99031184Y-80187063D01*
X99037423Y-80187800D01*
X99065542Y-80179375D01*
X99081066Y-80152884D01*
X99084626Y-80106506D01*
X99080588Y-80063075D01*
X99076777Y-80039214D01*
X99069056Y-79994258D01*
X99058130Y-79932090D01*
X99044700Y-79856594D01*
X99029473Y-79771651D01*
X99013149Y-79681144D01*
X98996435Y-79588958D01*
X98980032Y-79498973D01*
X98964645Y-79415074D01*
X98950978Y-79341143D01*
X98939733Y-79281062D01*
X98931615Y-79238715D01*
X98927876Y-79220358D01*
X98930492Y-79214136D01*
X98944042Y-79213646D01*
X98971200Y-79219584D01*
X99014643Y-79232646D01*
X99077047Y-79253530D01*
X99140808Y-79275767D01*
X99244648Y-79312297D01*
X99327322Y-79341129D01*
X99391594Y-79363081D01*
X99440228Y-79378969D01*
X99475988Y-79389609D01*
X99501638Y-79395819D01*
X99519943Y-79398414D01*
X99533667Y-79398212D01*
X99545575Y-79396028D01*
X99546846Y-79395714D01*
X99568419Y-79387255D01*
X99578108Y-79370937D01*
X99580347Y-79338518D01*
X99580328Y-79333484D01*
X99578094Y-79314096D01*
X99570980Y-79287371D01*
X99558026Y-79251046D01*
X99538270Y-79202855D01*
X99510752Y-79140536D01*
X99474513Y-79061825D01*
X99428590Y-78964458D01*
X99385068Y-78873350D01*
X99340123Y-78779266D01*
X99299064Y-78692623D01*
X99263103Y-78616027D01*
X99233448Y-78552087D01*
X99211310Y-78503411D01*
X99197899Y-78472605D01*
X99194307Y-78462292D01*
X99207147Y-78457467D01*
X99240802Y-78446553D01*
X99291725Y-78430649D01*
X99356371Y-78410858D01*
X99431192Y-78388281D01*
X99466749Y-78377652D01*
X99569755Y-78346073D01*
X99650696Y-78319352D01*
X99708837Y-78297756D01*
X99743442Y-78281550D01*
X99752728Y-78274361D01*
X99765786Y-78252845D01*
X99771326Y-78230104D01*
X99768014Y-78204025D01*
X99768014Y-78204025D01*
G37*
X99768014Y-78204025D02*
X99754519Y-78172493D01*
X99729511Y-78133395D01*
X99691656Y-78084618D01*
X99639625Y-78024048D01*
X99572085Y-77949570D01*
X99498014Y-77870050D01*
X99433675Y-77801479D01*
X99373611Y-77737429D01*
X99320445Y-77680702D01*
X99276802Y-77634101D01*
X99245308Y-77600425D01*
X99228622Y-77582515D01*
X99197611Y-77548980D01*
X99361473Y-77341215D01*
X99430055Y-77254125D01*
X99484468Y-77184482D01*
X99526344Y-77129846D01*
X99557315Y-77087778D01*
X99579012Y-77055838D01*
X99593067Y-77031585D01*
X99601111Y-77012579D01*
X99604775Y-76996380D01*
X99605691Y-76980548D01*
X99605678Y-76975970D01*
X99603841Y-76950343D01*
X99597162Y-76928072D01*
X99583116Y-76907502D01*
X99559176Y-76886980D01*
X99522817Y-76864851D01*
X99471514Y-76839462D01*
X99402742Y-76809159D01*
X99313975Y-76772287D01*
X99263059Y-76751582D01*
X99182204Y-76718742D01*
X99109069Y-76688866D01*
X99046983Y-76663327D01*
X98999271Y-76643498D01*
X98969261Y-76630753D01*
X98960341Y-76626650D01*
X98960467Y-76613085D01*
X98966141Y-76578019D01*
X98976705Y-76524581D01*
X98991502Y-76455902D01*
X99009875Y-76375110D01*
X99031168Y-76285337D01*
X99037143Y-76260739D01*
X99068442Y-76130176D01*
X99092813Y-76022004D01*
X99110276Y-75934182D01*
X99120851Y-75864668D01*
X99124558Y-75811423D01*
X99121417Y-75772405D01*
X99111448Y-75745574D01*
X99094671Y-75728888D01*
X99071105Y-75720307D01*
X99042449Y-75717804D01*
X99019156Y-75720533D01*
X98975580Y-75728379D01*
X98916117Y-75740444D01*
X98845162Y-75755831D01*
X98767110Y-75773641D01*
X98753654Y-75776798D01*
X98677240Y-75794396D01*
X98609454Y-75809248D01*
X98554086Y-75820585D01*
X98514924Y-75827639D01*
X98495758Y-75829644D01*
X98494562Y-75829296D01*
X98492077Y-75815454D01*
X98488106Y-75779200D01*
X98482904Y-75723462D01*
X98476721Y-75651170D01*
X98469808Y-75565251D01*
X98462419Y-75468635D01*
X98455885Y-75379374D01*
X98446232Y-75247915D01*
X98437603Y-75139604D01*
X98429554Y-75052230D01*
X98421643Y-74983583D01*
X98413425Y-74931452D01*
X98404458Y-74893627D01*
X98394298Y-74867898D01*
X98382502Y-74852054D01*
X98368626Y-74843886D01*
X98352228Y-74841182D01*
X98347931Y-74841100D01*
X98309363Y-74852941D01*
X98289535Y-74871256D01*
X98274504Y-74889546D01*
X98245584Y-74923711D01*
X98205577Y-74970478D01*
X98157286Y-75026575D01*
X98103513Y-75088733D01*
X98082696Y-75112718D01*
X98015561Y-75188849D01*
X97962249Y-75246802D01*
X97923229Y-75286100D01*
X97898972Y-75306265D01*
X97890304Y-75307988D01*
X97883876Y-75292049D01*
X97870358Y-75255481D01*
X97850958Y-75201660D01*
X97826885Y-75133964D01*
X97799349Y-75055769D01*
X97773158Y-74980800D01*
X97728967Y-74854027D01*
X97692173Y-74749044D01*
X97661905Y-74663625D01*
X97637291Y-74595545D01*
X97617460Y-74542578D01*
X97601542Y-74502498D01*
X97588664Y-74473078D01*
X97577956Y-74452093D01*
X97568546Y-74437316D01*
X97559564Y-74426521D01*
X97554131Y-74421136D01*
X97522673Y-74391583D01*
X97496786Y-74417471D01*
X97490561Y-74425094D01*
X97483820Y-74436927D01*
X97475987Y-74454894D01*
X97466486Y-74480916D01*
X97454741Y-74516918D01*
X97440175Y-74564822D01*
X97422212Y-74626551D01*
X97400276Y-74704029D01*
X97373790Y-74799178D01*
X97342178Y-74913922D01*
X97304864Y-75050184D01*
X97281064Y-75137335D01*
X97267805Y-75185919D01*
X97045144Y-74870635D01*
X96966563Y-74760157D01*
X96900755Y-74669637D01*
X96846521Y-74597819D01*
X96802664Y-74543447D01*
X96767987Y-74505267D01*
X96741293Y-74482020D01*
X96721385Y-74472453D01*
X96707064Y-74475309D01*
X96697135Y-74489332D01*
X96693105Y-74501375D01*
X96688695Y-74534419D01*
X96686482Y-74591646D01*
X96686449Y-74671939D01*
X96688576Y-74774179D01*
X96692846Y-74897247D01*
X96699241Y-75040023D01*
X96703004Y-75114150D01*
X96707488Y-75201052D01*
X96711367Y-75279083D01*
X96714481Y-75344816D01*
X96716673Y-75394818D01*
X96717785Y-75425661D01*
X96717785Y-75434241D01*
X96707167Y-75428194D01*
X96678171Y-75409827D01*
X96633543Y-75380928D01*
X96576025Y-75343285D01*
X96508364Y-75298687D01*
X96433303Y-75248922D01*
X96430626Y-75247142D01*
X96338758Y-75186535D01*
X96265372Y-75139301D01*
X96208224Y-75104134D01*
X96165068Y-75079729D01*
X96133658Y-75064779D01*
X96111749Y-75057979D01*
X96104075Y-75057226D01*
X96079465Y-75058289D01*
X96067313Y-75066230D01*
X96063223Y-75087653D01*
X96062800Y-75119193D01*
X96066229Y-75147840D01*
X96076659Y-75195020D01*
X96094311Y-75261458D01*
X96119402Y-75347879D01*
X96152153Y-75455010D01*
X96192781Y-75583576D01*
X96241506Y-75734302D01*
X96298547Y-75907915D01*
X96322919Y-75981457D01*
X96341021Y-76035963D01*
X96035189Y-76032257D01*
X95937982Y-76031250D01*
X95863138Y-76030987D01*
X95807627Y-76031622D01*
X95768418Y-76033313D01*
X95742481Y-76036215D01*
X95726787Y-76040486D01*
X95718304Y-76046281D01*
X95716476Y-76048702D01*
X95708999Y-76065684D01*
X95707506Y-76086420D01*
X95713086Y-76113028D01*
X95726829Y-76147627D01*
X95749826Y-76192334D01*
X95783166Y-76249267D01*
X95827939Y-76320546D01*
X95885235Y-76408287D01*
X95956144Y-76514608D01*
X95956505Y-76515146D01*
X96012750Y-76599091D01*
X96064306Y-76676346D01*
X96109500Y-76744378D01*
X96146658Y-76800653D01*
X96174105Y-76842641D01*
X96190167Y-76867807D01*
X96193730Y-76874012D01*
X96184523Y-76883621D01*
X96157373Y-76905686D01*
X96115119Y-76938059D01*
X96060597Y-76978588D01*
X95996645Y-77025123D01*
X95953029Y-77056388D01*
X95867443Y-77117963D01*
X95801134Y-77167650D01*
X95752329Y-77207777D01*
X95719256Y-77240673D01*
X95700142Y-77268666D01*
X95693216Y-77294084D01*
X95696703Y-77319256D01*
X95708833Y-77346509D01*
X95718944Y-77363882D01*
X95737075Y-77383711D01*
X95774234Y-77416098D01*
X95828370Y-77459429D01*
X95897435Y-77512089D01*
X95979378Y-77572463D01*
X96030047Y-77608982D01*
X96104731Y-77662769D01*
X96172169Y-77712012D01*
X96229721Y-77754729D01*
X96274749Y-77788938D01*
X96304613Y-77812658D01*
X96316674Y-77823907D01*
X96316800Y-77824300D01*
X96311718Y-77838070D01*
X96297371Y-77871863D01*
X96275113Y-77922626D01*
X96246294Y-77987305D01*
X96212266Y-78062849D01*
X96174382Y-78146205D01*
X96170122Y-78155533D01*
X96126092Y-78252406D01*
X96091795Y-78329292D01*
X96066109Y-78389167D01*
X96047909Y-78435006D01*
X96036073Y-78469786D01*
X96029478Y-78496483D01*
X96026999Y-78518071D01*
X96027247Y-78534007D01*
X96030164Y-78562775D01*
X96036542Y-78585665D01*
X96049195Y-78603700D01*
X96070939Y-78617902D01*
X96104586Y-78629295D01*
X96152952Y-78638901D01*
X96218850Y-78647743D01*
X96305095Y-78656844D01*
X96386650Y-78664626D01*
X96469852Y-78672551D01*
X96544173Y-78679889D01*
X96606026Y-78686266D01*
X96651823Y-78691304D01*
X96677977Y-78694630D01*
X96682726Y-78695621D01*
X96682877Y-78708724D01*
X96681321Y-78743904D01*
X96678255Y-78797908D01*
X96673877Y-78867483D01*
X96668384Y-78949377D01*
X96661973Y-79040338D01*
X96661057Y-79053010D01*
X96651169Y-79191097D01*
X96643369Y-79306048D01*
X96637748Y-79400048D01*
X96634397Y-79475283D01*
X96633409Y-79533937D01*
X96634873Y-79578197D01*
X96638880Y-79610247D01*
X96645523Y-79632273D01*
X96654892Y-79646460D01*
X96667078Y-79654993D01*
X96682172Y-79660058D01*
X96686409Y-79661038D01*
X96698119Y-79663630D01*
X96708779Y-79664696D01*
X96721068Y-79662821D01*
X96737665Y-79656592D01*
X96761251Y-79644593D01*
X96794505Y-79625412D01*
X96840108Y-79597633D01*
X96900738Y-79559842D01*
X96979075Y-79510625D01*
X97019091Y-79485458D01*
X97082329Y-79446060D01*
X97137809Y-79412190D01*
X97182130Y-79385869D01*
X97211888Y-79369116D01*
X97223681Y-79363950D01*
X97223707Y-79363975D01*
X97227235Y-79377167D01*
X97235123Y-79411918D01*
X97246656Y-79464899D01*
X97261117Y-79532781D01*
X97277789Y-79612235D01*
X97294425Y-79692500D01*
X97322823Y-79829800D01*
X97346794Y-79944396D01*
X97366863Y-80038497D01*
X97383555Y-80114310D01*
X97397397Y-80174045D01*
X97408914Y-80219910D01*
X97418630Y-80254114D01*
X97427073Y-80278864D01*
X97434766Y-80296370D01*
X97440476Y-80306249D01*
X97456035Y-80327112D01*
X97471102Y-80338928D01*
X97487064Y-80340011D01*
X97505307Y-80328680D01*
X97527219Y-80303249D01*
X97554186Y-80262038D01*
X97587594Y-80203360D01*
X97628831Y-80125534D01*
X97679282Y-80026877D01*
X97693077Y-79999593D01*
X97848611Y-79691522D01*
X98044262Y-80075253D01*
X98104335Y-80192462D01*
X98154431Y-80288674D01*
X98195657Y-80365748D01*
X98229117Y-80425541D01*
X98255917Y-80469913D01*
X98272438Y-80493871D01*
X98272438Y-80251300D01*
X98266869Y-80245139D01*
X98251210Y-80218801D01*
X98226812Y-80174788D01*
X98195024Y-80115602D01*
X98157196Y-80043744D01*
X98114680Y-79961715D01*
X98087350Y-79908400D01*
X98040821Y-79818279D01*
X97996374Y-79734093D01*
X97955700Y-79658902D01*
X97920488Y-79595763D01*
X97892432Y-79547737D01*
X97873220Y-79517882D01*
X97867578Y-79510844D01*
X97844172Y-79488605D01*
X97828918Y-79482912D01*
X97812489Y-79491880D01*
X97804724Y-79498144D01*
X97791425Y-79515508D01*
X97768731Y-79552253D01*
X97738536Y-79605006D01*
X97702733Y-79670396D01*
X97663215Y-79745049D01*
X97631408Y-79806800D01*
X97591922Y-79884025D01*
X97556480Y-79952662D01*
X97526609Y-80009810D01*
X97503836Y-80052568D01*
X97489688Y-80078033D01*
X97485583Y-80083907D01*
X97482325Y-80060623D01*
X97474135Y-80016556D01*
X97461845Y-79955447D01*
X97446285Y-79881034D01*
X97428286Y-79797058D01*
X97408679Y-79707256D01*
X97388296Y-79615369D01*
X97367965Y-79525136D01*
X97348520Y-79440296D01*
X97330789Y-79364589D01*
X97315605Y-79301753D01*
X97303798Y-79255529D01*
X97296199Y-79229655D01*
X97295232Y-79227194D01*
X97284175Y-79203203D01*
X97273144Y-79185481D01*
X97259719Y-79174863D01*
X97241482Y-79172185D01*
X97216012Y-79178282D01*
X97180891Y-79193990D01*
X97133699Y-79220145D01*
X97072018Y-79257581D01*
X96993428Y-79307133D01*
X96910525Y-79360043D01*
X96854641Y-79394780D01*
X96807073Y-79422484D01*
X96771457Y-79441188D01*
X96751428Y-79448923D01*
X96748374Y-79447838D01*
X96749202Y-79431637D01*
X96751657Y-79393365D01*
X96755514Y-79336285D01*
X96760547Y-79263659D01*
X96766533Y-79178747D01*
X96773247Y-79084813D01*
X96775704Y-79050733D01*
X96782396Y-78952545D01*
X96787906Y-78860533D01*
X96792077Y-78778318D01*
X96794751Y-78709518D01*
X96795770Y-78657752D01*
X96794977Y-78626641D01*
X96794388Y-78622012D01*
X96779599Y-78581840D01*
X96757225Y-78556173D01*
X96732508Y-78547655D01*
X96683356Y-78538167D01*
X96610712Y-78527849D01*
X96515517Y-78516844D01*
X96456211Y-78510778D01*
X96375909Y-78502694D01*
X96304561Y-78495177D01*
X96245888Y-78488645D01*
X96203616Y-78483519D01*
X96181465Y-78480219D01*
X96179089Y-78479522D01*
X96182971Y-78467284D01*
X96196150Y-78435014D01*
X96217303Y-78385751D01*
X96245107Y-78322535D01*
X96278239Y-78248407D01*
X96315374Y-78166408D01*
X96315596Y-78165921D01*
X96353268Y-78081944D01*
X96387141Y-78003926D01*
X96415807Y-77935314D01*
X96437858Y-77879556D01*
X96451886Y-77840098D01*
X96456500Y-77820893D01*
X96449826Y-77783090D01*
X96436214Y-77750727D01*
X96420619Y-77734221D01*
X96387209Y-77705520D01*
X96338990Y-77666979D01*
X96278967Y-77620950D01*
X96210145Y-77569789D01*
X96144114Y-77521977D01*
X96071517Y-77469748D01*
X96006252Y-77422210D01*
X95951024Y-77381379D01*
X95908539Y-77349274D01*
X95881501Y-77327914D01*
X95872588Y-77319409D01*
X95882602Y-77310014D01*
X95910427Y-77288393D01*
X95953008Y-77256804D01*
X96007288Y-77217501D01*
X96070213Y-77172743D01*
X96091663Y-77157644D01*
X96158341Y-77109903D01*
X96218663Y-77064959D01*
X96269190Y-77025517D01*
X96306481Y-76994282D01*
X96327095Y-76973959D01*
X96329264Y-76970857D01*
X96339911Y-76947312D01*
X96340553Y-76924468D01*
X96330956Y-76891638D01*
X96327304Y-76881626D01*
X96315063Y-76856992D01*
X96290519Y-76814512D01*
X96255644Y-76757346D01*
X96212408Y-76688657D01*
X96162783Y-76611606D01*
X96108742Y-76529356D01*
X96091377Y-76503263D01*
X95876224Y-76180950D01*
X96153629Y-76192058D01*
X96252264Y-76195895D01*
X96328316Y-76197992D01*
X96384585Y-76197551D01*
X96423871Y-76193770D01*
X96448974Y-76185848D01*
X96462694Y-76172986D01*
X96467831Y-76154382D01*
X96467185Y-76129236D01*
X96464309Y-76103231D01*
X96458464Y-76074614D01*
X96445670Y-76025520D01*
X96426991Y-75959575D01*
X96403488Y-75880406D01*
X96376224Y-75791639D01*
X96346260Y-75696901D01*
X96335883Y-75664704D01*
X96305980Y-75572091D01*
X96278775Y-75487294D01*
X96255219Y-75413317D01*
X96236260Y-75353164D01*
X96222850Y-75309841D01*
X96215938Y-75286352D01*
X96215200Y-75283081D01*
X96225313Y-75287288D01*
X96253781Y-75303798D01*
X96297799Y-75330862D01*
X96354563Y-75366733D01*
X96421269Y-75409661D01*
X96485066Y-75451297D01*
X96559868Y-75499719D01*
X96628908Y-75543097D01*
X96689002Y-75579535D01*
X96736966Y-75607137D01*
X96769615Y-75624006D01*
X96782660Y-75628500D01*
X96795803Y-75627492D01*
X96806500Y-75623004D01*
X96814860Y-75612847D01*
X96820993Y-75594830D01*
X96825011Y-75566760D01*
X96827022Y-75526449D01*
X96827137Y-75471703D01*
X96825466Y-75400332D01*
X96822120Y-75310146D01*
X96817208Y-75198953D01*
X96810919Y-75066216D01*
X96806956Y-74979552D01*
X96803784Y-74901617D01*
X96801513Y-74835896D01*
X96800254Y-74785869D01*
X96800115Y-74755021D01*
X96800850Y-74746518D01*
X96809160Y-74755180D01*
X96830242Y-74782134D01*
X96862260Y-74824892D01*
X96903380Y-74880964D01*
X96951766Y-74947863D01*
X97005584Y-75023099D01*
X97026281Y-75052234D01*
X97083008Y-75131486D01*
X97136369Y-75204622D01*
X97184259Y-75268864D01*
X97224572Y-75321435D01*
X97255202Y-75359559D01*
X97274043Y-75380460D01*
X97277087Y-75382960D01*
X97292445Y-75392250D01*
X97305773Y-75396901D01*
X97317958Y-75394845D01*
X97329884Y-75384012D01*
X97342438Y-75362336D01*
X97356505Y-75327748D01*
X97372970Y-75278180D01*
X97392720Y-75211563D01*
X97416639Y-75125830D01*
X97445613Y-75018912D01*
X97466845Y-74939810D01*
X97488254Y-74860749D01*
X97507593Y-74790892D01*
X97523885Y-74733638D01*
X97536155Y-74692387D01*
X97543425Y-74670538D01*
X97544902Y-74667969D01*
X97549946Y-74680529D01*
X97562270Y-74714138D01*
X97580825Y-74765847D01*
X97604562Y-74832711D01*
X97632432Y-74911780D01*
X97663386Y-75000109D01*
X97677020Y-75039160D01*
X97710449Y-75133937D01*
X97742813Y-75223686D01*
X97772765Y-75304821D01*
X97798958Y-75373759D01*
X97820046Y-75426914D01*
X97834681Y-75460703D01*
X97837637Y-75466575D01*
X97852857Y-75493713D01*
X97866909Y-75513367D01*
X97881739Y-75524221D01*
X97899290Y-75524962D01*
X97921508Y-75514276D01*
X97950337Y-75490848D01*
X97987721Y-75453364D01*
X98035606Y-75400509D01*
X98095934Y-75330970D01*
X98170652Y-75243432D01*
X98174547Y-75238857D01*
X98220987Y-75184977D01*
X98261459Y-75139300D01*
X98293273Y-75104758D01*
X98313741Y-75084280D01*
X98320203Y-75080107D01*
X98321906Y-75094430D01*
X98325261Y-75131003D01*
X98330013Y-75186747D01*
X98335908Y-75258585D01*
X98342692Y-75343437D01*
X98350111Y-75438225D01*
X98354497Y-75495150D01*
X98362617Y-75596421D01*
X98370915Y-75691448D01*
X98379037Y-75776758D01*
X98386627Y-75848875D01*
X98393329Y-75904325D01*
X98398788Y-75939633D01*
X98400923Y-75948595D01*
X98410249Y-75971910D01*
X98422946Y-75988582D01*
X98442061Y-75998642D01*
X98470643Y-76002120D01*
X98511737Y-75999047D01*
X98568392Y-75989453D01*
X98643655Y-75973368D01*
X98735940Y-75951920D01*
X98811769Y-75934227D01*
X98878755Y-75919081D01*
X98933139Y-75907292D01*
X98971162Y-75899670D01*
X98989065Y-75897025D01*
X98989924Y-75897185D01*
X98988169Y-75910169D01*
X98981065Y-75944599D01*
X98969343Y-75997261D01*
X98953735Y-76064941D01*
X98934971Y-76144422D01*
X98913782Y-76232492D01*
X98912420Y-76238100D01*
X98884121Y-76356227D01*
X98862208Y-76452470D01*
X98846435Y-76529463D01*
X98836554Y-76589841D01*
X98832318Y-76636239D01*
X98833482Y-76671291D01*
X98839799Y-76697633D01*
X98851021Y-76717898D01*
X98865994Y-76733914D01*
X98888186Y-76748059D01*
X98930059Y-76769539D01*
X98987615Y-76796505D01*
X99056852Y-76827108D01*
X99133772Y-76859497D01*
X99165696Y-76872498D01*
X99242146Y-76903622D01*
X99310394Y-76931967D01*
X99367002Y-76956060D01*
X99408530Y-76974426D01*
X99431539Y-76985591D01*
X99434993Y-76987955D01*
X99429069Y-77000076D01*
X99409389Y-77029143D01*
X99378070Y-77072277D01*
X99337231Y-77126596D01*
X99288991Y-77189219D01*
X99256752Y-77230371D01*
X99191720Y-77313653D01*
X99141592Y-77380266D01*
X99104957Y-77433006D01*
X99080403Y-77474673D01*
X99066518Y-77508064D01*
X99061892Y-77535976D01*
X99065112Y-77561208D01*
X99074768Y-77586557D01*
X99075880Y-77588888D01*
X99089429Y-77608307D01*
X99118114Y-77643299D01*
X99159495Y-77691101D01*
X99211135Y-77748949D01*
X99270593Y-77814079D01*
X99335431Y-77883725D01*
X99344883Y-77893768D01*
X99408661Y-77961778D01*
X99466091Y-78023669D01*
X99515036Y-78077085D01*
X99553361Y-78119674D01*
X99578931Y-78149081D01*
X99589610Y-78162952D01*
X99589748Y-78163687D01*
X99576293Y-78169060D01*
X99543648Y-78179824D01*
X99497021Y-78194308D01*
X99452598Y-78207617D01*
X99341050Y-78240553D01*
X99251559Y-78267432D01*
X99181869Y-78289551D01*
X99129724Y-78308205D01*
X99092870Y-78324693D01*
X99069050Y-78340310D01*
X99056009Y-78356354D01*
X99051492Y-78374119D01*
X99053242Y-78394904D01*
X99059005Y-78420005D01*
X99062071Y-78432111D01*
X99071317Y-78458613D01*
X99090197Y-78504535D01*
X99117194Y-78566477D01*
X99150788Y-78641038D01*
X99189463Y-78724817D01*
X99231701Y-78814414D01*
X99246952Y-78846323D01*
X99288769Y-78933907D01*
X99326579Y-79013873D01*
X99359088Y-79083427D01*
X99385006Y-79139774D01*
X99403039Y-79180120D01*
X99411897Y-79201669D01*
X99412538Y-79204496D01*
X99399890Y-79201683D01*
X99366742Y-79191492D01*
X99316524Y-79175056D01*
X99252666Y-79153509D01*
X99178599Y-79127986D01*
X99136504Y-79113278D01*
X99034336Y-79078243D01*
X98951873Y-79051743D01*
X98890134Y-79034075D01*
X98850139Y-79025538D01*
X98835336Y-79025222D01*
X98818653Y-79031993D01*
X98809928Y-79046009D01*
X98806747Y-79073981D01*
X98806526Y-79105367D01*
X98809001Y-79136039D01*
X98815756Y-79187876D01*
X98826189Y-79257117D01*
X98839700Y-79340001D01*
X98855688Y-79432766D01*
X98873554Y-79531652D01*
X98880635Y-79569649D01*
X98954220Y-79961147D01*
X98692785Y-79701064D01*
X98624905Y-79634157D01*
X98561756Y-79573089D01*
X98505854Y-79520203D01*
X98459718Y-79477842D01*
X98425867Y-79448349D01*
X98406818Y-79434067D01*
X98404897Y-79433209D01*
X98382551Y-79433334D01*
X98366035Y-79453083D01*
X98362688Y-79460017D01*
X98358550Y-79478480D01*
X98352329Y-79518341D01*
X98344466Y-79575726D01*
X98335404Y-79646758D01*
X98325585Y-79727562D01*
X98315451Y-79814262D01*
X98305443Y-79902984D01*
X98296004Y-79989851D01*
X98287575Y-80070987D01*
X98280600Y-80142518D01*
X98275519Y-80200568D01*
X98272775Y-80241261D01*
X98272438Y-80251300D01*
X98272438Y-80493871D01*
X98277161Y-80500721D01*
X98293956Y-80519825D01*
X98307405Y-80529082D01*
X98315125Y-80530700D01*
X98327122Y-80527746D01*
X98337672Y-80517368D01*
X98347219Y-80497293D01*
X98356209Y-80465249D01*
X98365086Y-80418962D01*
X98374295Y-80356159D01*
X98384282Y-80274569D01*
X98395491Y-80171917D01*
X98406615Y-80063397D01*
X98416734Y-79964101D01*
X98426259Y-79873147D01*
X98434854Y-79793550D01*
X98442183Y-79728327D01*
X98447910Y-79680495D01*
X98451699Y-79653071D01*
X98452921Y-79647647D01*
X98462779Y-79655021D01*
X98488295Y-79678293D01*
X98527248Y-79715319D01*
X98577414Y-79763955D01*
X98636574Y-79822057D01*
X98702504Y-79887483D01*
X98730274Y-79915224D01*
X98810528Y-79995165D01*
X98875117Y-80058527D01*
X98925988Y-80107036D01*
X98965085Y-80142418D01*
X98994354Y-80166399D01*
X99015738Y-80180705D01*
X99031184Y-80187063D01*
X99037423Y-80187800D01*
X99065542Y-80179375D01*
X99081066Y-80152884D01*
X99084626Y-80106506D01*
X99080588Y-80063075D01*
X99076777Y-80039214D01*
X99069056Y-79994258D01*
X99058130Y-79932090D01*
X99044700Y-79856594D01*
X99029473Y-79771651D01*
X99013149Y-79681144D01*
X98996435Y-79588958D01*
X98980032Y-79498973D01*
X98964645Y-79415074D01*
X98950978Y-79341143D01*
X98939733Y-79281062D01*
X98931615Y-79238715D01*
X98927876Y-79220358D01*
X98930492Y-79214136D01*
X98944042Y-79213646D01*
X98971200Y-79219584D01*
X99014643Y-79232646D01*
X99077047Y-79253530D01*
X99140808Y-79275767D01*
X99244648Y-79312297D01*
X99327322Y-79341129D01*
X99391594Y-79363081D01*
X99440228Y-79378969D01*
X99475988Y-79389609D01*
X99501638Y-79395819D01*
X99519943Y-79398414D01*
X99533667Y-79398212D01*
X99545575Y-79396028D01*
X99546846Y-79395714D01*
X99568419Y-79387255D01*
X99578108Y-79370937D01*
X99580347Y-79338518D01*
X99580328Y-79333484D01*
X99578094Y-79314096D01*
X99570980Y-79287371D01*
X99558026Y-79251046D01*
X99538270Y-79202855D01*
X99510752Y-79140536D01*
X99474513Y-79061825D01*
X99428590Y-78964458D01*
X99385068Y-78873350D01*
X99340123Y-78779266D01*
X99299064Y-78692623D01*
X99263103Y-78616027D01*
X99233448Y-78552087D01*
X99211310Y-78503411D01*
X99197899Y-78472605D01*
X99194307Y-78462292D01*
X99207147Y-78457467D01*
X99240802Y-78446553D01*
X99291725Y-78430649D01*
X99356371Y-78410858D01*
X99431192Y-78388281D01*
X99466749Y-78377652D01*
X99569755Y-78346073D01*
X99650696Y-78319352D01*
X99708837Y-78297756D01*
X99743442Y-78281550D01*
X99752728Y-78274361D01*
X99765786Y-78252845D01*
X99771326Y-78230104D01*
X99768014Y-78204025D01*
G36*
X97636348Y-75898679D02*
G01*
X97626515Y-75853484D01*
X97613667Y-75802860D01*
X97599465Y-75753033D01*
X97585567Y-75710232D01*
X97573635Y-75680682D01*
X97566437Y-75670689D01*
X97551137Y-75672577D01*
X97514254Y-75680476D01*
X97458692Y-75693665D01*
X97387360Y-75711422D01*
X97303165Y-75733025D01*
X97209013Y-75757754D01*
X97125393Y-75780135D01*
X97025545Y-75807027D01*
X96933607Y-75831689D01*
X96852423Y-75853366D01*
X96784836Y-75871301D01*
X96733690Y-75884742D01*
X96701829Y-75892931D01*
X96692047Y-75895200D01*
X96686094Y-75906949D01*
X96689302Y-75941867D01*
X96701592Y-75999464D01*
X96719334Y-76066650D01*
X96733638Y-76116791D01*
X96745565Y-76156734D01*
X96753405Y-76180838D01*
X96755326Y-76185270D01*
X96768170Y-76183278D01*
X96802136Y-76175405D01*
X96853868Y-76162552D01*
X96920010Y-76145619D01*
X96997205Y-76125506D01*
X97082098Y-76103114D01*
X97171333Y-76079343D01*
X97261553Y-76055093D01*
X97349402Y-76031265D01*
X97431524Y-76008758D01*
X97504563Y-75988473D01*
X97565163Y-75971310D01*
X97609967Y-75958169D01*
X97635620Y-75949951D01*
X97640330Y-75947876D01*
X97641506Y-75932219D01*
X97636348Y-75898679D01*
X97636348Y-75898679D01*
G37*
X97636348Y-75898679D02*
X97626515Y-75853484D01*
X97613667Y-75802860D01*
X97599465Y-75753033D01*
X97585567Y-75710232D01*
X97573635Y-75680682D01*
X97566437Y-75670689D01*
X97551137Y-75672577D01*
X97514254Y-75680476D01*
X97458692Y-75693665D01*
X97387360Y-75711422D01*
X97303165Y-75733025D01*
X97209013Y-75757754D01*
X97125393Y-75780135D01*
X97025545Y-75807027D01*
X96933607Y-75831689D01*
X96852423Y-75853366D01*
X96784836Y-75871301D01*
X96733690Y-75884742D01*
X96701829Y-75892931D01*
X96692047Y-75895200D01*
X96686094Y-75906949D01*
X96689302Y-75941867D01*
X96701592Y-75999464D01*
X96719334Y-76066650D01*
X96733638Y-76116791D01*
X96745565Y-76156734D01*
X96753405Y-76180838D01*
X96755326Y-76185270D01*
X96768170Y-76183278D01*
X96802136Y-76175405D01*
X96853868Y-76162552D01*
X96920010Y-76145619D01*
X96997205Y-76125506D01*
X97082098Y-76103114D01*
X97171333Y-76079343D01*
X97261553Y-76055093D01*
X97349402Y-76031265D01*
X97431524Y-76008758D01*
X97504563Y-75988473D01*
X97565163Y-75971310D01*
X97609967Y-75958169D01*
X97635620Y-75949951D01*
X97640330Y-75947876D01*
X97641506Y-75932219D01*
X97636348Y-75898679D01*
G36*
X97906261Y-76895818D02*
G01*
X97873423Y-76769438D01*
X97817625Y-76777805D01*
X97785553Y-76780706D01*
X97768153Y-76778480D01*
X97767058Y-76775662D01*
X97808530Y-76671740D01*
X97825773Y-76575328D01*
X97818792Y-76486464D01*
X97787588Y-76405188D01*
X97732167Y-76331540D01*
X97727250Y-76326540D01*
X97688160Y-76291789D01*
X97647277Y-76265784D01*
X97601788Y-76248504D01*
X97548875Y-76239922D01*
X97485724Y-76240017D01*
X97409519Y-76248764D01*
X97317444Y-76266140D01*
X97206683Y-76292120D01*
X97094764Y-76321213D01*
X97014428Y-76343260D01*
X96943052Y-76363876D01*
X96884056Y-76381988D01*
X96840863Y-76396523D01*
X96816893Y-76406407D01*
X96813143Y-76409550D01*
X96816673Y-76426505D01*
X96825505Y-76462124D01*
X96838165Y-76510593D01*
X96848312Y-76548303D01*
X96863844Y-76601267D01*
X96878543Y-76644192D01*
X96890435Y-76671673D01*
X96896041Y-76678831D01*
X96911802Y-76676994D01*
X96948258Y-76669320D01*
X97001616Y-76656718D01*
X97068083Y-76640094D01*
X97143863Y-76620353D01*
X97171037Y-76613103D01*
X97251587Y-76592045D01*
X97326470Y-76573512D01*
X97391283Y-76558512D01*
X97441622Y-76548053D01*
X97473084Y-76543144D01*
X97477754Y-76542900D01*
X97523400Y-76552192D01*
X97564375Y-76579959D01*
X97591602Y-76608760D01*
X97603495Y-76638099D01*
X97605850Y-76674186D01*
X97600925Y-76720272D01*
X97583320Y-76754583D01*
X97574100Y-76765293D01*
X97559477Y-76780574D01*
X97545380Y-76793038D01*
X97528461Y-76803945D01*
X97505367Y-76814552D01*
X97472748Y-76826119D01*
X97427252Y-76839904D01*
X97365529Y-76857165D01*
X97284228Y-76879161D01*
X97237528Y-76891701D01*
X97159423Y-76912813D01*
X97089981Y-76931870D01*
X97032816Y-76947857D01*
X96991545Y-76959756D01*
X96969785Y-76966552D01*
X96967362Y-76967605D01*
X96968323Y-76981101D01*
X96974784Y-77012869D01*
X96985151Y-77056792D01*
X96997833Y-77106754D01*
X97011236Y-77156638D01*
X97023768Y-77200327D01*
X97033837Y-77231702D01*
X97039400Y-77244278D01*
X97053286Y-77243426D01*
X97088617Y-77236601D01*
X97142337Y-77224525D01*
X97211392Y-77207921D01*
X97292725Y-77187512D01*
X97383280Y-77164021D01*
X97422038Y-77153753D01*
X97519334Y-77127927D01*
X97612045Y-77103509D01*
X97696394Y-77081480D01*
X97768604Y-77062821D01*
X97824898Y-77048511D01*
X97861500Y-77039530D01*
X97867725Y-77038099D01*
X97939099Y-77022197D01*
X97906261Y-76895818D01*
X97906261Y-76895818D01*
G37*
X97906261Y-76895818D02*
X97873423Y-76769438D01*
X97817625Y-76777805D01*
X97785553Y-76780706D01*
X97768153Y-76778480D01*
X97767058Y-76775662D01*
X97808530Y-76671740D01*
X97825773Y-76575328D01*
X97818792Y-76486464D01*
X97787588Y-76405188D01*
X97732167Y-76331540D01*
X97727250Y-76326540D01*
X97688160Y-76291789D01*
X97647277Y-76265784D01*
X97601788Y-76248504D01*
X97548875Y-76239922D01*
X97485724Y-76240017D01*
X97409519Y-76248764D01*
X97317444Y-76266140D01*
X97206683Y-76292120D01*
X97094764Y-76321213D01*
X97014428Y-76343260D01*
X96943052Y-76363876D01*
X96884056Y-76381988D01*
X96840863Y-76396523D01*
X96816893Y-76406407D01*
X96813143Y-76409550D01*
X96816673Y-76426505D01*
X96825505Y-76462124D01*
X96838165Y-76510593D01*
X96848312Y-76548303D01*
X96863844Y-76601267D01*
X96878543Y-76644192D01*
X96890435Y-76671673D01*
X96896041Y-76678831D01*
X96911802Y-76676994D01*
X96948258Y-76669320D01*
X97001616Y-76656718D01*
X97068083Y-76640094D01*
X97143863Y-76620353D01*
X97171037Y-76613103D01*
X97251587Y-76592045D01*
X97326470Y-76573512D01*
X97391283Y-76558512D01*
X97441622Y-76548053D01*
X97473084Y-76543144D01*
X97477754Y-76542900D01*
X97523400Y-76552192D01*
X97564375Y-76579959D01*
X97591602Y-76608760D01*
X97603495Y-76638099D01*
X97605850Y-76674186D01*
X97600925Y-76720272D01*
X97583320Y-76754583D01*
X97574100Y-76765293D01*
X97559477Y-76780574D01*
X97545380Y-76793038D01*
X97528461Y-76803945D01*
X97505367Y-76814552D01*
X97472748Y-76826119D01*
X97427252Y-76839904D01*
X97365529Y-76857165D01*
X97284228Y-76879161D01*
X97237528Y-76891701D01*
X97159423Y-76912813D01*
X97089981Y-76931870D01*
X97032816Y-76947857D01*
X96991545Y-76959756D01*
X96969785Y-76966552D01*
X96967362Y-76967605D01*
X96968323Y-76981101D01*
X96974784Y-77012869D01*
X96985151Y-77056792D01*
X96997833Y-77106754D01*
X97011236Y-77156638D01*
X97023768Y-77200327D01*
X97033837Y-77231702D01*
X97039400Y-77244278D01*
X97053286Y-77243426D01*
X97088617Y-77236601D01*
X97142337Y-77224525D01*
X97211392Y-77207921D01*
X97292725Y-77187512D01*
X97383280Y-77164021D01*
X97422038Y-77153753D01*
X97519334Y-77127927D01*
X97612045Y-77103509D01*
X97696394Y-77081480D01*
X97768604Y-77062821D01*
X97824898Y-77048511D01*
X97861500Y-77039530D01*
X97867725Y-77038099D01*
X97939099Y-77022197D01*
X97906261Y-76895818D01*
G36*
X98054040Y-77462822D02*
G01*
X98044446Y-77418240D01*
X98032257Y-77367919D01*
X98019027Y-77318059D01*
X98006310Y-77274859D01*
X97995663Y-77244521D01*
X97990014Y-77233980D01*
X97976471Y-77235267D01*
X97941918Y-77242403D01*
X97889678Y-77254516D01*
X97823077Y-77270731D01*
X97745439Y-77290176D01*
X97660090Y-77311976D01*
X97570354Y-77335260D01*
X97479555Y-77359154D01*
X97391018Y-77382783D01*
X97308069Y-77405276D01*
X97234032Y-77425759D01*
X97172232Y-77443358D01*
X97125994Y-77457201D01*
X97098641Y-77466413D01*
X97092511Y-77469718D01*
X97096200Y-77483915D01*
X97105410Y-77517245D01*
X97118668Y-77564427D01*
X97131456Y-77609487D01*
X97147213Y-77663820D01*
X97160641Y-77708317D01*
X97170139Y-77737790D01*
X97173872Y-77747106D01*
X97186779Y-77745096D01*
X97220809Y-77737215D01*
X97272604Y-77724361D01*
X97338807Y-77707434D01*
X97416060Y-77687334D01*
X97501005Y-77664959D01*
X97590284Y-77641210D01*
X97680541Y-77616985D01*
X97768416Y-77593184D01*
X97850553Y-77570706D01*
X97923593Y-77550451D01*
X97984179Y-77533318D01*
X98028953Y-77520206D01*
X98054558Y-77512015D01*
X98059220Y-77509965D01*
X98059483Y-77495464D01*
X98054040Y-77462822D01*
X98054040Y-77462822D01*
G37*
X98054040Y-77462822D02*
X98044446Y-77418240D01*
X98032257Y-77367919D01*
X98019027Y-77318059D01*
X98006310Y-77274859D01*
X97995663Y-77244521D01*
X97990014Y-77233980D01*
X97976471Y-77235267D01*
X97941918Y-77242403D01*
X97889678Y-77254516D01*
X97823077Y-77270731D01*
X97745439Y-77290176D01*
X97660090Y-77311976D01*
X97570354Y-77335260D01*
X97479555Y-77359154D01*
X97391018Y-77382783D01*
X97308069Y-77405276D01*
X97234032Y-77425759D01*
X97172232Y-77443358D01*
X97125994Y-77457201D01*
X97098641Y-77466413D01*
X97092511Y-77469718D01*
X97096200Y-77483915D01*
X97105410Y-77517245D01*
X97118668Y-77564427D01*
X97131456Y-77609487D01*
X97147213Y-77663820D01*
X97160641Y-77708317D01*
X97170139Y-77737790D01*
X97173872Y-77747106D01*
X97186779Y-77745096D01*
X97220809Y-77737215D01*
X97272604Y-77724361D01*
X97338807Y-77707434D01*
X97416060Y-77687334D01*
X97501005Y-77664959D01*
X97590284Y-77641210D01*
X97680541Y-77616985D01*
X97768416Y-77593184D01*
X97850553Y-77570706D01*
X97923593Y-77550451D01*
X97984179Y-77533318D01*
X98028953Y-77520206D01*
X98054558Y-77512015D01*
X98059220Y-77509965D01*
X98059483Y-77495464D01*
X98054040Y-77462822D01*
G36*
X98484101Y-79066090D02*
G01*
X98476832Y-79033984D01*
X98462791Y-78980300D01*
X98442476Y-78906662D01*
X98423353Y-78838374D01*
X98315125Y-78853208D01*
X98345775Y-78791276D01*
X98370155Y-78719181D01*
X98376863Y-78642455D01*
X98367515Y-78565819D01*
X98343730Y-78493992D01*
X98307123Y-78431695D01*
X98259312Y-78383647D01*
X98201914Y-78354568D01*
X98195585Y-78352855D01*
X98163020Y-78344732D01*
X98199863Y-78272491D01*
X98218452Y-78233473D01*
X98228958Y-78201064D01*
X98233091Y-78165758D01*
X98232562Y-78118051D01*
X98231572Y-78096269D01*
X98220506Y-78008123D01*
X98195672Y-77938855D01*
X98154973Y-77884784D01*
X98096315Y-77842228D01*
X98082936Y-77835125D01*
X98040284Y-77816367D01*
X97996412Y-77803985D01*
X97948068Y-77798233D01*
X97892001Y-77799362D01*
X97824960Y-77807624D01*
X97743693Y-77823271D01*
X97644948Y-77846555D01*
X97525474Y-77877728D01*
X97522343Y-77878571D01*
X97426188Y-77904820D01*
X97352355Y-77925903D01*
X97298475Y-77942626D01*
X97262180Y-77955792D01*
X97241102Y-77966206D01*
X97232875Y-77974671D01*
X97232561Y-77976996D01*
X97236324Y-77997292D01*
X97245357Y-78035744D01*
X97258131Y-78086037D01*
X97267433Y-78121036D01*
X97286161Y-78184604D01*
X97301432Y-78223702D01*
X97313520Y-78238985D01*
X97316731Y-78238964D01*
X97333197Y-78234038D01*
X97370427Y-78223649D01*
X97424629Y-78208831D01*
X97492013Y-78190617D01*
X97568788Y-78170040D01*
X97601573Y-78161301D01*
X97702360Y-78135015D01*
X97781987Y-78115861D01*
X97843613Y-78103644D01*
X97890397Y-78098165D01*
X97925499Y-78099228D01*
X97952078Y-78106633D01*
X97973293Y-78120186D01*
X97990025Y-78137030D01*
X98013848Y-78181639D01*
X98015937Y-78230653D01*
X97997910Y-78278480D01*
X97961385Y-78319532D01*
X97931754Y-78338341D01*
X97909449Y-78346673D01*
X97866843Y-78360089D01*
X97808229Y-78377333D01*
X97737901Y-78397146D01*
X97660154Y-78418273D01*
X97643950Y-78422583D01*
X97567217Y-78443172D01*
X97498887Y-78461989D01*
X97442757Y-78477950D01*
X97402625Y-78489969D01*
X97382288Y-78496961D01*
X97380710Y-78497822D01*
X97380396Y-78512059D01*
X97385619Y-78544439D01*
X97394862Y-78588705D01*
X97406606Y-78638600D01*
X97419334Y-78687868D01*
X97431527Y-78730250D01*
X97441669Y-78759490D01*
X97446332Y-78768359D01*
X97460401Y-78767942D01*
X97495227Y-78761499D01*
X97547114Y-78749876D01*
X97612365Y-78733914D01*
X97687283Y-78714458D01*
X97714219Y-78707219D01*
X97817473Y-78679712D01*
X97899528Y-78659213D01*
X97963487Y-78645344D01*
X98012454Y-78637726D01*
X98049530Y-78635983D01*
X98077820Y-78639736D01*
X98100427Y-78648607D01*
X98115448Y-78658339D01*
X98148617Y-78697107D01*
X98161708Y-78744305D01*
X98155145Y-78793371D01*
X98129351Y-78837739D01*
X98102360Y-78861026D01*
X98080784Y-78871113D01*
X98039863Y-78885550D01*
X97978649Y-78904612D01*
X97896200Y-78928578D01*
X97791569Y-78957725D01*
X97663811Y-78992330D01*
X97565514Y-79018519D01*
X97512478Y-79032574D01*
X97548433Y-79166598D01*
X97563556Y-79221480D01*
X97576774Y-79266713D01*
X97586490Y-79296997D01*
X97590715Y-79306948D01*
X97604200Y-79305532D01*
X97638835Y-79298241D01*
X97691264Y-79285884D01*
X97758132Y-79269274D01*
X97836085Y-79249220D01*
X97906246Y-79230689D01*
X98000142Y-79205693D01*
X98094262Y-79180788D01*
X98183162Y-79157402D01*
X98261399Y-79136966D01*
X98323529Y-79120908D01*
X98348758Y-79114486D01*
X98403112Y-79100593D01*
X98447335Y-79088938D01*
X98476262Y-79080903D01*
X98484938Y-79077996D01*
X98484101Y-79066090D01*
X98484101Y-79066090D01*
G37*
X98484101Y-79066090D02*
X98476832Y-79033984D01*
X98462791Y-78980300D01*
X98442476Y-78906662D01*
X98423353Y-78838374D01*
X98315125Y-78853208D01*
X98345775Y-78791276D01*
X98370155Y-78719181D01*
X98376863Y-78642455D01*
X98367515Y-78565819D01*
X98343730Y-78493992D01*
X98307123Y-78431695D01*
X98259312Y-78383647D01*
X98201914Y-78354568D01*
X98195585Y-78352855D01*
X98163020Y-78344732D01*
X98199863Y-78272491D01*
X98218452Y-78233473D01*
X98228958Y-78201064D01*
X98233091Y-78165758D01*
X98232562Y-78118051D01*
X98231572Y-78096269D01*
X98220506Y-78008123D01*
X98195672Y-77938855D01*
X98154973Y-77884784D01*
X98096315Y-77842228D01*
X98082936Y-77835125D01*
X98040284Y-77816367D01*
X97996412Y-77803985D01*
X97948068Y-77798233D01*
X97892001Y-77799362D01*
X97824960Y-77807624D01*
X97743693Y-77823271D01*
X97644948Y-77846555D01*
X97525474Y-77877728D01*
X97522343Y-77878571D01*
X97426188Y-77904820D01*
X97352355Y-77925903D01*
X97298475Y-77942626D01*
X97262180Y-77955792D01*
X97241102Y-77966206D01*
X97232875Y-77974671D01*
X97232561Y-77976996D01*
X97236324Y-77997292D01*
X97245357Y-78035744D01*
X97258131Y-78086037D01*
X97267433Y-78121036D01*
X97286161Y-78184604D01*
X97301432Y-78223702D01*
X97313520Y-78238985D01*
X97316731Y-78238964D01*
X97333197Y-78234038D01*
X97370427Y-78223649D01*
X97424629Y-78208831D01*
X97492013Y-78190617D01*
X97568788Y-78170040D01*
X97601573Y-78161301D01*
X97702360Y-78135015D01*
X97781987Y-78115861D01*
X97843613Y-78103644D01*
X97890397Y-78098165D01*
X97925499Y-78099228D01*
X97952078Y-78106633D01*
X97973293Y-78120186D01*
X97990025Y-78137030D01*
X98013848Y-78181639D01*
X98015937Y-78230653D01*
X97997910Y-78278480D01*
X97961385Y-78319532D01*
X97931754Y-78338341D01*
X97909449Y-78346673D01*
X97866843Y-78360089D01*
X97808229Y-78377333D01*
X97737901Y-78397146D01*
X97660154Y-78418273D01*
X97643950Y-78422583D01*
X97567217Y-78443172D01*
X97498887Y-78461989D01*
X97442757Y-78477950D01*
X97402625Y-78489969D01*
X97382288Y-78496961D01*
X97380710Y-78497822D01*
X97380396Y-78512059D01*
X97385619Y-78544439D01*
X97394862Y-78588705D01*
X97406606Y-78638600D01*
X97419334Y-78687868D01*
X97431527Y-78730250D01*
X97441669Y-78759490D01*
X97446332Y-78768359D01*
X97460401Y-78767942D01*
X97495227Y-78761499D01*
X97547114Y-78749876D01*
X97612365Y-78733914D01*
X97687283Y-78714458D01*
X97714219Y-78707219D01*
X97817473Y-78679712D01*
X97899528Y-78659213D01*
X97963487Y-78645344D01*
X98012454Y-78637726D01*
X98049530Y-78635983D01*
X98077820Y-78639736D01*
X98100427Y-78648607D01*
X98115448Y-78658339D01*
X98148617Y-78697107D01*
X98161708Y-78744305D01*
X98155145Y-78793371D01*
X98129351Y-78837739D01*
X98102360Y-78861026D01*
X98080784Y-78871113D01*
X98039863Y-78885550D01*
X97978649Y-78904612D01*
X97896200Y-78928578D01*
X97791569Y-78957725D01*
X97663811Y-78992330D01*
X97565514Y-79018519D01*
X97512478Y-79032574D01*
X97548433Y-79166598D01*
X97563556Y-79221480D01*
X97576774Y-79266713D01*
X97586490Y-79296997D01*
X97590715Y-79306948D01*
X97604200Y-79305532D01*
X97638835Y-79298241D01*
X97691264Y-79285884D01*
X97758132Y-79269274D01*
X97836085Y-79249220D01*
X97906246Y-79230689D01*
X98000142Y-79205693D01*
X98094262Y-79180788D01*
X98183162Y-79157402D01*
X98261399Y-79136966D01*
X98323529Y-79120908D01*
X98348758Y-79114486D01*
X98403112Y-79100593D01*
X98447335Y-79088938D01*
X98476262Y-79080903D01*
X98484938Y-79077996D01*
X98484101Y-79066090D01*
G36*
X97989219Y-75676659D02*
G01*
X97955864Y-75625678D01*
X97907448Y-75594968D01*
X97845139Y-75585262D01*
X97843531Y-75585292D01*
X97787156Y-75597442D01*
X97743813Y-75628129D01*
X97715789Y-75672877D01*
X97705365Y-75727210D01*
X97714827Y-75786653D01*
X97726535Y-75814579D01*
X97761761Y-75862469D01*
X97808469Y-75888244D01*
X97868509Y-75892822D01*
X97881078Y-75891439D01*
X97936246Y-75872878D01*
X97976488Y-75836765D01*
X97999561Y-75787557D01*
X98003220Y-75729709D01*
X97989219Y-75676659D01*
X97989219Y-75676659D01*
G37*
X97989219Y-75676659D02*
X97955864Y-75625678D01*
X97907448Y-75594968D01*
X97845139Y-75585262D01*
X97843531Y-75585292D01*
X97787156Y-75597442D01*
X97743813Y-75628129D01*
X97715789Y-75672877D01*
X97705365Y-75727210D01*
X97714827Y-75786653D01*
X97726535Y-75814579D01*
X97761761Y-75862469D01*
X97808469Y-75888244D01*
X97868509Y-75892822D01*
X97881078Y-75891439D01*
X97936246Y-75872878D01*
X97976488Y-75836765D01*
X97999561Y-75787557D01*
X98003220Y-75729709D01*
X97989219Y-75676659D01*
G36*
X98413273Y-77251395D02*
G01*
X98387839Y-77203474D01*
X98346704Y-77166727D01*
X98328094Y-77157340D01*
X98269938Y-77144357D01*
X98217268Y-77152930D01*
X98173235Y-77179321D01*
X98140995Y-77219791D01*
X98123698Y-77270605D01*
X98124499Y-77328023D01*
X98141445Y-77378585D01*
X98176235Y-77422895D01*
X98224785Y-77449505D01*
X98281121Y-77456705D01*
X98339268Y-77442786D01*
X98349216Y-77438036D01*
X98390978Y-77403811D01*
X98415282Y-77357404D01*
X98422567Y-77304652D01*
X98413273Y-77251395D01*
X98413273Y-77251395D01*
G37*
X98413273Y-77251395D02*
X98387839Y-77203474D01*
X98346704Y-77166727D01*
X98328094Y-77157340D01*
X98269938Y-77144357D01*
X98217268Y-77152930D01*
X98173235Y-77179321D01*
X98140995Y-77219791D01*
X98123698Y-77270605D01*
X98124499Y-77328023D01*
X98141445Y-77378585D01*
X98176235Y-77422895D01*
X98224785Y-77449505D01*
X98281121Y-77456705D01*
X98339268Y-77442786D01*
X98349216Y-77438036D01*
X98390978Y-77403811D01*
X98415282Y-77357404D01*
X98422567Y-77304652D01*
X98413273Y-77251395D01*
D13*
X84322580Y-91261260D02*
G75*
G03X84322580Y-91261260I-111800J0D01*
G01*
D11*
X79210780Y-90511260D02*
X79210780Y-91011260D01*
X79710780Y-90761260D02*
X79210780Y-90511260D01*
X79210780Y-91011260D02*
X79710780Y-90761260D01*
X78860780Y-91261260D02*
X78860780Y-78761260D01*
X83760780Y-77561260D02*
X83760780Y-78761260D01*
X83460780Y-77261260D02*
X83760780Y-77561260D01*
X80960780Y-77261260D02*
X83460780Y-77261260D01*
X83760780Y-92461260D02*
X83760780Y-91261260D01*
X83460780Y-92761260D02*
X83760780Y-92461260D01*
X80960780Y-92761260D02*
X83460780Y-92761260D01*
D14*
X85120500Y-99866000D02*
X85120500Y-101016000D01*
X83700500Y-99866000D02*
X85120500Y-99866000D01*
D15*
G36*
X84420500Y-99876000D02*
G01*
X85110500Y-100536000D01*
X85110500Y-99876000D01*
X84420500Y-99876000D01*
G37*
X84420500Y-99876000D02*
X85110500Y-100536000D01*
X85110500Y-99876000D01*
X84420500Y-99876000D01*
X101680800Y-90784200D02*
X101680800Y-90165530D01*
X101680800Y-88184200D02*
X101680800Y-88802870D01*
X99080800Y-88184200D02*
X99080800Y-90784200D01*
D16*
X86202900Y-91292800D02*
X87677900Y-91292800D01*
X86253700Y-85298400D02*
X87728700Y-85298400D01*
D14*
X119860000Y-75466000D02*
X119860000Y-75816000D01*
X103660000Y-91666000D02*
X103660000Y-91266000D01*
X119860000Y-91666000D02*
X103660000Y-91666000D01*
X119860000Y-91266000D02*
X119860000Y-91666000D01*
X103660000Y-75466000D02*
X103660000Y-75866000D01*
X119860000Y-75466000D02*
X103660000Y-75466000D01*
X87356000Y-102870000D02*
X87356000Y-99420000D01*
X87356000Y-102870000D02*
X87356000Y-104820000D01*
X92476000Y-102870000D02*
X92476000Y-100920000D01*
X92476000Y-102870000D02*
X92476000Y-104820000D01*
D17*
X102507000Y-100874000D02*
X102507000Y-95664000D01*
X102507000Y-105314000D02*
X102507000Y-103424000D01*
X113262000Y-106914000D02*
X105132000Y-106914000D01*
X102507000Y-91714000D02*
X102507000Y-93084000D01*
X111932000Y-91714000D02*
X102507000Y-91714000D01*
X117457000Y-91714000D02*
X116532000Y-91714000D01*
X117457000Y-106914000D02*
X117457000Y-91714000D01*
X116532000Y-106914000D02*
X117457000Y-106914000D01*
D14*
X96397578Y-103072000D02*
X95880422Y-103072000D01*
X96397578Y-101652000D02*
X95880422Y-101652000D01*
D10*
X83151738Y-78316666D02*
X82698166Y-78316666D01*
X82607452Y-78346904D01*
X82546976Y-78407380D01*
X82516738Y-78498095D01*
X82516738Y-78558571D01*
X82940071Y-77742142D02*
X82516738Y-77742142D01*
X83181976Y-77893333D02*
X82728404Y-78044523D01*
X82728404Y-77651428D01*
X84415690Y-105887761D02*
X84415690Y-105252761D01*
X84264500Y-105252761D01*
X84173785Y-105283000D01*
X84113309Y-105343476D01*
X84083071Y-105403952D01*
X84052833Y-105524904D01*
X84052833Y-105615619D01*
X84083071Y-105736571D01*
X84113309Y-105797047D01*
X84173785Y-105857523D01*
X84264500Y-105887761D01*
X84415690Y-105887761D01*
X83841166Y-105252761D02*
X83448071Y-105252761D01*
X83659738Y-105494666D01*
X83569023Y-105494666D01*
X83508547Y-105524904D01*
X83478309Y-105555142D01*
X83448071Y-105615619D01*
X83448071Y-105766809D01*
X83478309Y-105827285D01*
X83508547Y-105857523D01*
X83569023Y-105887761D01*
X83750452Y-105887761D01*
X83810928Y-105857523D01*
X83841166Y-105827285D01*
X89244714Y-97481785D02*
X89274952Y-97512023D01*
X89365666Y-97542261D01*
X89426142Y-97542261D01*
X89516857Y-97512023D01*
X89577333Y-97451547D01*
X89607571Y-97391071D01*
X89637809Y-97270119D01*
X89637809Y-97179404D01*
X89607571Y-97058452D01*
X89577333Y-96997976D01*
X89516857Y-96937500D01*
X89426142Y-96907261D01*
X89365666Y-96907261D01*
X89274952Y-96937500D01*
X89244714Y-96967738D01*
X88639952Y-97542261D02*
X89002809Y-97542261D01*
X88821380Y-97542261D02*
X88821380Y-96907261D01*
X88881857Y-96997976D01*
X88942333Y-97058452D01*
X89002809Y-97088690D01*
X88095666Y-96907261D02*
X88216619Y-96907261D01*
X88277095Y-96937500D01*
X88307333Y-96967738D01*
X88367809Y-97058452D01*
X88398047Y-97179404D01*
X88398047Y-97421309D01*
X88367809Y-97481785D01*
X88337571Y-97512023D01*
X88277095Y-97542261D01*
X88156142Y-97542261D01*
X88095666Y-97512023D01*
X88065428Y-97481785D01*
X88035190Y-97421309D01*
X88035190Y-97270119D01*
X88065428Y-97209642D01*
X88095666Y-97179404D01*
X88156142Y-97149166D01*
X88277095Y-97149166D01*
X88337571Y-97179404D01*
X88367809Y-97209642D01*
X88398047Y-97270119D01*
X98128061Y-89272533D02*
X98581633Y-89272533D01*
X98672347Y-89242295D01*
X98732823Y-89181819D01*
X98763061Y-89091104D01*
X98763061Y-89030628D01*
X98128061Y-89847057D02*
X98128061Y-89726104D01*
X98158300Y-89665628D01*
X98188538Y-89635390D01*
X98279252Y-89574914D01*
X98400204Y-89544676D01*
X98642109Y-89544676D01*
X98702585Y-89574914D01*
X98732823Y-89605152D01*
X98763061Y-89665628D01*
X98763061Y-89786580D01*
X98732823Y-89847057D01*
X98702585Y-89877295D01*
X98642109Y-89907533D01*
X98490919Y-89907533D01*
X98430442Y-89877295D01*
X98400204Y-89847057D01*
X98369966Y-89786580D01*
X98369966Y-89665628D01*
X98400204Y-89605152D01*
X98430442Y-89574914D01*
X98490919Y-89544676D01*
X94587785Y-97000785D02*
X94618023Y-96970547D01*
X94648261Y-96879833D01*
X94648261Y-96819357D01*
X94618023Y-96728642D01*
X94557547Y-96668166D01*
X94497071Y-96637928D01*
X94376119Y-96607690D01*
X94285404Y-96607690D01*
X94164452Y-96637928D01*
X94103976Y-96668166D01*
X94043500Y-96728642D01*
X94013261Y-96819357D01*
X94013261Y-96879833D01*
X94043500Y-96970547D01*
X94073738Y-97000785D01*
X94648261Y-97605547D02*
X94648261Y-97242690D01*
X94648261Y-97424119D02*
X94013261Y-97424119D01*
X94103976Y-97363642D01*
X94164452Y-97303166D01*
X94194690Y-97242690D01*
X94013261Y-98180071D02*
X94013261Y-97877690D01*
X94315642Y-97847452D01*
X94285404Y-97877690D01*
X94255166Y-97938166D01*
X94255166Y-98089357D01*
X94285404Y-98149833D01*
X94315642Y-98180071D01*
X94376119Y-98210309D01*
X94527309Y-98210309D01*
X94587785Y-98180071D01*
X94618023Y-98149833D01*
X94648261Y-98089357D01*
X94648261Y-97938166D01*
X94618023Y-97877690D01*
X94587785Y-97847452D01*
X97318285Y-95652166D02*
X97348523Y-95621928D01*
X97378761Y-95531214D01*
X97378761Y-95470738D01*
X97348523Y-95380023D01*
X97288047Y-95319547D01*
X97227571Y-95289309D01*
X97106619Y-95259071D01*
X97015904Y-95259071D01*
X96894952Y-95289309D01*
X96834476Y-95319547D01*
X96774000Y-95380023D01*
X96743761Y-95470738D01*
X96743761Y-95531214D01*
X96774000Y-95621928D01*
X96804238Y-95652166D01*
X96743761Y-95863833D02*
X96743761Y-96256928D01*
X96985666Y-96045261D01*
X96985666Y-96135976D01*
X97015904Y-96196452D01*
X97046142Y-96226690D01*
X97106619Y-96256928D01*
X97257809Y-96256928D01*
X97318285Y-96226690D01*
X97348523Y-96196452D01*
X97378761Y-96135976D01*
X97378761Y-95954547D01*
X97348523Y-95894071D01*
X97318285Y-95863833D01*
X90361709Y-88095061D02*
X90361709Y-88609109D01*
X90331471Y-88669585D01*
X90301233Y-88699823D01*
X90240757Y-88730061D01*
X90119804Y-88730061D01*
X90059328Y-88699823D01*
X90029090Y-88669585D01*
X89998852Y-88609109D01*
X89998852Y-88095061D01*
X89394090Y-88095061D02*
X89696471Y-88095061D01*
X89726709Y-88397442D01*
X89696471Y-88367204D01*
X89635995Y-88336966D01*
X89484804Y-88336966D01*
X89424328Y-88367204D01*
X89394090Y-88397442D01*
X89363852Y-88457919D01*
X89363852Y-88609109D01*
X89394090Y-88669585D01*
X89424328Y-88699823D01*
X89484804Y-88730061D01*
X89635995Y-88730061D01*
X89696471Y-88699823D01*
X89726709Y-88669585D01*
X90412509Y-82100661D02*
X90412509Y-82614709D01*
X90382271Y-82675185D01*
X90352033Y-82705423D01*
X90291557Y-82735661D01*
X90170604Y-82735661D01*
X90110128Y-82705423D01*
X90079890Y-82675185D01*
X90049652Y-82614709D01*
X90049652Y-82100661D01*
X89807747Y-82100661D02*
X89414652Y-82100661D01*
X89626319Y-82342566D01*
X89535604Y-82342566D01*
X89475128Y-82372804D01*
X89444890Y-82403042D01*
X89414652Y-82463519D01*
X89414652Y-82614709D01*
X89444890Y-82675185D01*
X89475128Y-82705423D01*
X89535604Y-82735661D01*
X89717033Y-82735661D01*
X89777509Y-82705423D01*
X89807747Y-82675185D01*
X112370809Y-83154761D02*
X112370809Y-83668809D01*
X112340571Y-83729285D01*
X112310333Y-83759523D01*
X112249857Y-83789761D01*
X112128904Y-83789761D01*
X112068428Y-83759523D01*
X112038190Y-83729285D01*
X112007952Y-83668809D01*
X112007952Y-83154761D01*
X111614857Y-83426904D02*
X111675333Y-83396666D01*
X111705571Y-83366428D01*
X111735809Y-83305952D01*
X111735809Y-83275714D01*
X111705571Y-83215238D01*
X111675333Y-83185000D01*
X111614857Y-83154761D01*
X111493904Y-83154761D01*
X111433428Y-83185000D01*
X111403190Y-83215238D01*
X111372952Y-83275714D01*
X111372952Y-83305952D01*
X111403190Y-83366428D01*
X111433428Y-83396666D01*
X111493904Y-83426904D01*
X111614857Y-83426904D01*
X111675333Y-83457142D01*
X111705571Y-83487380D01*
X111735809Y-83547857D01*
X111735809Y-83668809D01*
X111705571Y-83729285D01*
X111675333Y-83759523D01*
X111614857Y-83789761D01*
X111493904Y-83789761D01*
X111433428Y-83759523D01*
X111403190Y-83729285D01*
X111372952Y-83668809D01*
X111372952Y-83547857D01*
X111403190Y-83487380D01*
X111433428Y-83457142D01*
X111493904Y-83426904D01*
X86329761Y-101560690D02*
X86843809Y-101560690D01*
X86904285Y-101590928D01*
X86934523Y-101621166D01*
X86964761Y-101681642D01*
X86964761Y-101802595D01*
X86934523Y-101863071D01*
X86904285Y-101893309D01*
X86843809Y-101923547D01*
X86329761Y-101923547D01*
X86329761Y-102498071D02*
X86329761Y-102377119D01*
X86360000Y-102316642D01*
X86390238Y-102286404D01*
X86480952Y-102225928D01*
X86601904Y-102195690D01*
X86843809Y-102195690D01*
X86904285Y-102225928D01*
X86934523Y-102256166D01*
X86964761Y-102316642D01*
X86964761Y-102437595D01*
X86934523Y-102498071D01*
X86904285Y-102528309D01*
X86843809Y-102558547D01*
X86692619Y-102558547D01*
X86632142Y-102528309D01*
X86601904Y-102498071D01*
X86571666Y-102437595D01*
X86571666Y-102316642D01*
X86601904Y-102256166D01*
X86632142Y-102225928D01*
X86692619Y-102195690D01*
X86656333Y-106840261D02*
X86868000Y-106537880D01*
X87019190Y-106840261D02*
X87019190Y-106205261D01*
X86777285Y-106205261D01*
X86716809Y-106235500D01*
X86686571Y-106265738D01*
X86656333Y-106326214D01*
X86656333Y-106416928D01*
X86686571Y-106477404D01*
X86716809Y-106507642D01*
X86777285Y-106537880D01*
X87019190Y-106537880D01*
X86444666Y-106205261D02*
X86051571Y-106205261D01*
X86263238Y-106447166D01*
X86172523Y-106447166D01*
X86112047Y-106477404D01*
X86081809Y-106507642D01*
X86051571Y-106568119D01*
X86051571Y-106719309D01*
X86081809Y-106779785D01*
X86112047Y-106810023D01*
X86172523Y-106840261D01*
X86353952Y-106840261D01*
X86414428Y-106810023D01*
X86444666Y-106779785D01*
X96244833Y-103982761D02*
X96547214Y-103982761D01*
X96547214Y-103347761D01*
X95700547Y-103982761D02*
X96063404Y-103982761D01*
X95881976Y-103982761D02*
X95881976Y-103347761D01*
X95942452Y-103438476D01*
X96002928Y-103498952D01*
X96063404Y-103529190D01*
X95922885Y-97734966D02*
X95953123Y-97704728D01*
X95983361Y-97614014D01*
X95983361Y-97553538D01*
X95953123Y-97462823D01*
X95892647Y-97402347D01*
X95832171Y-97372109D01*
X95711219Y-97341871D01*
X95620504Y-97341871D01*
X95499552Y-97372109D01*
X95439076Y-97402347D01*
X95378600Y-97462823D01*
X95348361Y-97553538D01*
X95348361Y-97614014D01*
X95378600Y-97704728D01*
X95408838Y-97734966D01*
X95348361Y-98309490D02*
X95348361Y-98007109D01*
X95650742Y-97976871D01*
X95620504Y-98007109D01*
X95590266Y-98067585D01*
X95590266Y-98218776D01*
X95620504Y-98279252D01*
X95650742Y-98309490D01*
X95711219Y-98339728D01*
X95862409Y-98339728D01*
X95922885Y-98309490D01*
X95953123Y-98279252D01*
X95983361Y-98218776D01*
X95983361Y-98067585D01*
X95953123Y-98007109D01*
X95922885Y-97976871D01*
X97129385Y-97734966D02*
X97159623Y-97704728D01*
X97189861Y-97614014D01*
X97189861Y-97553538D01*
X97159623Y-97462823D01*
X97099147Y-97402347D01*
X97038671Y-97372109D01*
X96917719Y-97341871D01*
X96827004Y-97341871D01*
X96706052Y-97372109D01*
X96645576Y-97402347D01*
X96585100Y-97462823D01*
X96554861Y-97553538D01*
X96554861Y-97614014D01*
X96585100Y-97704728D01*
X96615338Y-97734966D01*
X96615338Y-97976871D02*
X96585100Y-98007109D01*
X96554861Y-98067585D01*
X96554861Y-98218776D01*
X96585100Y-98279252D01*
X96615338Y-98309490D01*
X96675814Y-98339728D01*
X96736290Y-98339728D01*
X96827004Y-98309490D01*
X97189861Y-97946633D01*
X97189861Y-98339728D01*
X99737333Y-96556285D02*
X99767571Y-96586523D01*
X99858285Y-96616761D01*
X99918761Y-96616761D01*
X100009476Y-96586523D01*
X100069952Y-96526047D01*
X100100190Y-96465571D01*
X100130428Y-96344619D01*
X100130428Y-96253904D01*
X100100190Y-96132952D01*
X100069952Y-96072476D01*
X100009476Y-96012000D01*
X99918761Y-95981761D01*
X99858285Y-95981761D01*
X99767571Y-96012000D01*
X99737333Y-96042238D01*
X99525666Y-95981761D02*
X99102333Y-95981761D01*
X99374476Y-96616761D01*
X98334285Y-98192166D02*
X98364523Y-98161928D01*
X98394761Y-98071214D01*
X98394761Y-98010738D01*
X98364523Y-97920023D01*
X98304047Y-97859547D01*
X98243571Y-97829309D01*
X98122619Y-97799071D01*
X98031904Y-97799071D01*
X97910952Y-97829309D01*
X97850476Y-97859547D01*
X97790000Y-97920023D01*
X97759761Y-98010738D01*
X97759761Y-98071214D01*
X97790000Y-98161928D01*
X97820238Y-98192166D01*
X98394761Y-98796928D02*
X98394761Y-98434071D01*
X98394761Y-98615500D02*
X97759761Y-98615500D01*
X97850476Y-98555023D01*
X97910952Y-98494547D01*
X97941190Y-98434071D01*
M02*
