%TF.GenerationSoftware,KiCad,Pcbnew,5.0.2-bee76a0~70~ubuntu18.04.1*%
%TF.CreationDate,2020-02-29T17:46:36-08:00*%
%TF.ProjectId,mainboard,6d61696e-626f-4617-9264-2e6b69636164,rev?*%
%TF.SameCoordinates,Original*%
%TF.FileFunction,Copper,L2,Inr*%
%TF.FilePolarity,Positive*%
%FSLAX46Y46*%
G04 Gerber Fmt 4.6, Leading zero omitted, Abs format (unit mm)*
G04 Created by KiCad (PCBNEW 5.0.2-bee76a0~70~ubuntu18.04.1) date Sat 29 Feb 2020 05:46:36 PM PST*
%MOMM*%
%LPD*%
G01*
G04 APERTURE LIST*
%ADD10C,0.150000*%
%ADD11O,1.700000X1.700000*%
%ADD12C,1.408000*%
%ADD13C,1.800000*%
%ADD14C,0.600000*%
%ADD15C,0.160000*%
%ADD16C,0.152400*%
%ADD17C,0.508000*%
%ADD18C,0.240000*%
%ADD19C,0.480000*%
G04 APERTURE END LIST*
D10*
X120902460Y-74415942D02*
X120102459Y-74415941D01*
X85102460Y-74415941D02*
G75*
G02X84602460Y-73915941I0J500000D01*
G01*
X113602459Y-73915941D02*
G75*
G02X113102459Y-74415941I-500000J0D01*
G01*
X113102459Y-107215941D02*
G75*
G02X113602459Y-107715941I0J-500000D01*
G01*
X84602460Y-107715941D02*
G75*
G02X85102460Y-107215941I500000J0D01*
G01*
X77340460Y-91475941D02*
X76502460Y-92313941D01*
X77340460Y-98555940D02*
X76502460Y-97790000D01*
X120102460Y-72915941D02*
X113602460Y-72915941D01*
X113602459Y-107715941D02*
X113602460Y-108715941D01*
X85102460Y-107215941D02*
X113102459Y-107215941D01*
X84602460Y-108715941D02*
X84602460Y-107715941D01*
X113602460Y-108715941D02*
X120102459Y-108715940D01*
X113102459Y-74415941D02*
X93872460Y-74415941D01*
X113602460Y-72915941D02*
X113602459Y-73915941D01*
X78102460Y-72915941D02*
X78102460Y-74415941D01*
X93872460Y-74415941D02*
X93872460Y-75565000D01*
X93872460Y-75565000D02*
X89872460Y-75565000D01*
X78102460Y-74415941D02*
X77340460Y-74415941D01*
X77340460Y-74415941D02*
X77340460Y-91475941D01*
X120102460Y-107215940D02*
X120902460Y-107215940D01*
X120102459Y-74415941D02*
X120102460Y-72915941D01*
X89872460Y-75565000D02*
X89872460Y-74415941D01*
X84602460Y-72915941D02*
X78102460Y-72915941D01*
X84602460Y-73915941D02*
X84602460Y-72915941D01*
X89872460Y-74415941D02*
X85102460Y-74415941D01*
X76502460Y-92313941D02*
X76502460Y-97790000D01*
X120902460Y-107215940D02*
X120902460Y-74415942D01*
X78102460Y-107215940D02*
X78102460Y-108715940D01*
X120102459Y-108715940D02*
X120102460Y-107215940D01*
X77340460Y-98555940D02*
X77340460Y-107215940D01*
X78102460Y-108715940D02*
X84602460Y-108715941D01*
X77340460Y-107215940D02*
X78102460Y-107215940D01*
D11*
X87503000Y-76962000D03*
X84963000Y-76962000D03*
D12*
X81687300Y-100088700D03*
X81687300Y-105088700D03*
D13*
X78987300Y-99088700D03*
X78987300Y-106088700D03*
D14*
X98552000Y-97345500D03*
X90551000Y-101600000D03*
X91821000Y-101600000D03*
X113157000Y-106375200D03*
X82550000Y-95440500D03*
X103822500Y-87757000D03*
X97726500Y-94678500D03*
X97155000Y-96647000D03*
X119697500Y-89725500D03*
X118237000Y-76581000D03*
X84658200Y-100126800D03*
X102260400Y-91465400D03*
X105486200Y-90297000D03*
X105486200Y-91313000D03*
X88950000Y-82900000D03*
X88950000Y-87100000D03*
X89000000Y-91300000D03*
X82600000Y-79750000D03*
X84700000Y-84250000D03*
X92200000Y-77750000D03*
X94200000Y-81500000D03*
X93750000Y-90350000D03*
X114300000Y-97300000D03*
X100455799Y-90000000D03*
X100455799Y-88850000D03*
X88237052Y-97712948D03*
X91250000Y-83600000D03*
X98742500Y-99377500D03*
X96901000Y-98806000D03*
X95694500Y-98806000D03*
X94361000Y-98806000D03*
X95250000Y-94869000D03*
X92263227Y-98768500D03*
X83050000Y-102850000D03*
X91694000Y-98298000D03*
X83000000Y-101981000D03*
X86487000Y-94170500D03*
X99387685Y-102095308D03*
X86487000Y-95440500D03*
X98587411Y-102112589D03*
X118173500Y-78549500D03*
X116649500Y-95377000D03*
X99060000Y-79755984D03*
X118237000Y-103886000D03*
X109600000Y-79350000D03*
X98425000Y-91400000D03*
X98933000Y-92011500D03*
X118173500Y-82550000D03*
X117157500Y-97536000D03*
X118237000Y-99885496D03*
X99400000Y-82450000D03*
X110150000Y-80506810D03*
X116649500Y-99758500D03*
X100076000Y-81915000D03*
X117983000Y-80200500D03*
X118173500Y-101853990D03*
X99700000Y-92550000D03*
X110938014Y-79950000D03*
X97151777Y-101399819D03*
X101282500Y-105918000D03*
X93238320Y-100304600D03*
X97028000Y-104267000D03*
X93472000Y-104965488D03*
X82550000Y-94170500D03*
X87249000Y-98171000D03*
X80899000Y-89979500D03*
X100203000Y-103568500D03*
X80899006Y-87693500D03*
X80899000Y-85344000D03*
X87884000Y-101600000D03*
X112903000Y-89535000D03*
X101473000Y-102616000D03*
X114236500Y-87376000D03*
X80645000Y-82550000D03*
X104775000Y-81724500D03*
X107061000Y-81216500D03*
X108204000Y-86741000D03*
X82600000Y-85000000D03*
X81150000Y-92800000D03*
X93800000Y-86250000D03*
X94350000Y-82350000D03*
X105250000Y-99850000D03*
X91173808Y-97789870D03*
X97393000Y-91450000D03*
X98034211Y-102584290D03*
X98300000Y-106500000D03*
X108100000Y-80500000D03*
X101073140Y-98264537D03*
X100961830Y-97162180D03*
X95951000Y-101350000D03*
X114490500Y-101155500D03*
X99600000Y-101400000D03*
X82350000Y-81900000D03*
X85150000Y-82900000D03*
X103860600Y-98729800D03*
X94944600Y-101350000D03*
X101727008Y-96774000D03*
X118173500Y-96583500D03*
X94170500Y-103251000D03*
X86804506Y-103314500D03*
X82550000Y-96647000D03*
X94107000Y-102235000D03*
X90950000Y-103378000D03*
X84836000Y-78930506D03*
X99949000Y-83629500D03*
X89750000Y-77750000D03*
X102044504Y-78930500D03*
X82550000Y-90678000D03*
X92042990Y-94438434D03*
X82804000Y-86868000D03*
X98781498Y-103354010D03*
X101199973Y-99600028D03*
X92092990Y-93701678D03*
X84048600Y-91414600D03*
X99492000Y-103200000D03*
X101711467Y-99082597D03*
X82600000Y-86169500D03*
X91694000Y-96266000D03*
X84769013Y-87272792D03*
X91694000Y-97282000D03*
X82650000Y-87750000D03*
X97917000Y-92011500D03*
X97900000Y-82400000D03*
X96456500Y-92773500D03*
X98100000Y-79950000D03*
X82650000Y-88750000D03*
X118173500Y-98170998D03*
X100250000Y-100850000D03*
X104114600Y-103073200D03*
X102321399Y-98686959D03*
X100965000Y-94234000D03*
X105092500Y-78549500D03*
X101727000Y-94742000D03*
X103886000Y-83692999D03*
X119634000Y-87439500D03*
X102350000Y-96266000D03*
X101727000Y-95758000D03*
X119634000Y-85407500D03*
X115474750Y-89566750D03*
X92456000Y-96774000D03*
X93650000Y-87000000D03*
X94350000Y-83100000D03*
X93600000Y-91150000D03*
X92250000Y-95750000D03*
X93000000Y-77900000D03*
X93345000Y-101346010D03*
X84074000Y-103271320D03*
X82650000Y-89700000D03*
X85850000Y-79950000D03*
X85054656Y-81460088D03*
X85825000Y-82425000D03*
X85050000Y-85400000D03*
X85088740Y-88261260D03*
X85039520Y-89800000D03*
X84750000Y-80800000D03*
X82600000Y-83750000D03*
X99949000Y-86042500D03*
X100400000Y-93500000D03*
X88800000Y-85000000D03*
X88900000Y-81000000D03*
X111823500Y-81089500D03*
X111823504Y-98171000D03*
X111823500Y-87376000D03*
X91600000Y-95150000D03*
X88950000Y-82147000D03*
X88950000Y-86250000D03*
X88950000Y-90500000D03*
X93650000Y-80000000D03*
X94200000Y-84350000D03*
X93850000Y-88350000D03*
X95750000Y-92300000D03*
X95550000Y-90500000D03*
X94150000Y-80650000D03*
X94200000Y-85250000D03*
X93850000Y-89450000D03*
X94940804Y-92599960D03*
X95500000Y-89500000D03*
X88700000Y-89250000D03*
D15*
X88631727Y-102400000D02*
X92263227Y-98768500D01*
X88520000Y-102400000D02*
X88631727Y-102400000D01*
X83496201Y-102403799D02*
X84000000Y-102403799D01*
X83050000Y-102850000D02*
X83496201Y-102403799D01*
D16*
X84000000Y-102403799D02*
X88520000Y-102400000D01*
X83122198Y-101981000D02*
X83261787Y-102120589D01*
X83261787Y-102120589D02*
X88189609Y-102120589D01*
X88189609Y-102120589D02*
X91694000Y-98616198D01*
X91694000Y-98616198D02*
X91694000Y-98298000D01*
X82804000Y-101981000D02*
X83000000Y-101981000D01*
X83000000Y-101981000D02*
X83122198Y-101981000D01*
X99076306Y-79772290D02*
X99060000Y-79755984D01*
D15*
X109600000Y-79350000D02*
X111100000Y-79350000D01*
X111100000Y-79350000D02*
X111500000Y-79750000D01*
X116973000Y-79750000D02*
X117323000Y-79400000D01*
X111500000Y-79750000D02*
X116973000Y-79750000D01*
D16*
X118173500Y-78549500D02*
X117323000Y-79400000D01*
X117323000Y-79400000D02*
X117293621Y-79429379D01*
D15*
X99060000Y-79755984D02*
X99484264Y-79755984D01*
X99484264Y-79755984D02*
X99740248Y-79500000D01*
X99740248Y-79500000D02*
X107559596Y-79500000D01*
X107559596Y-79500000D02*
X107709596Y-79350000D01*
X109175736Y-79350000D02*
X109600000Y-79350000D01*
X107709596Y-79350000D02*
X109175736Y-79350000D01*
D16*
X116205000Y-80581500D02*
X118173500Y-82550000D01*
X110224690Y-80581500D02*
X116205000Y-80581500D01*
D15*
X100493500Y-82450000D02*
X100650000Y-82293500D01*
X99400000Y-82450000D02*
X100493500Y-82450000D01*
D16*
X110224690Y-80581500D02*
X110150000Y-80506810D01*
X110150000Y-80506810D02*
X108851548Y-80506810D01*
X107858463Y-79996799D02*
X107718262Y-80137000D01*
X108851548Y-80506810D02*
X108341537Y-79996799D01*
X108341537Y-79996799D02*
X107858463Y-79996799D01*
X102806500Y-80137000D02*
X100650000Y-82293500D01*
X107718262Y-80137000D02*
X102806500Y-80137000D01*
X107602527Y-79857589D02*
X102133410Y-79857590D01*
X108597474Y-79857590D02*
X108457272Y-79717388D01*
X100375999Y-81615001D02*
X100076000Y-81915000D01*
X117983000Y-80200500D02*
X111188514Y-80200500D01*
X102133410Y-79857590D02*
X100375999Y-81615001D01*
X107742727Y-79717389D02*
X107602527Y-79857589D01*
X108457272Y-79717388D02*
X107742727Y-79717389D01*
X110845604Y-79857590D02*
X108597474Y-79857590D01*
X111188514Y-80200500D02*
X110938014Y-79950000D01*
X110938014Y-79950000D02*
X110845604Y-79857590D01*
D15*
X114246000Y-101400000D02*
X114490500Y-101155500D01*
X99600000Y-101400000D02*
X114246000Y-101400000D01*
D16*
X103560601Y-99029799D02*
X103860600Y-98729800D01*
X102207787Y-100382613D02*
X103560601Y-99029799D01*
D15*
X100728666Y-100386411D02*
X100735614Y-100386411D01*
X94944600Y-101350000D02*
X96066189Y-100228411D01*
D16*
X100735614Y-100382613D02*
X100735614Y-100386411D01*
D15*
X100570666Y-100228411D02*
X100728666Y-100386411D01*
D16*
X100735614Y-100386411D02*
X102207787Y-100382613D01*
D15*
X96066189Y-100228411D02*
X100570666Y-100228411D01*
D16*
X102920800Y-96774000D02*
X101727008Y-96774000D01*
X118173500Y-96583500D02*
X117983000Y-96774000D01*
X117983000Y-96774000D02*
X102920800Y-96774000D01*
X93535500Y-103886000D02*
X94170500Y-103251000D01*
X89845000Y-103886000D02*
X93535500Y-103886000D01*
X86804506Y-103314500D02*
X89273500Y-103314500D01*
X89273500Y-103314500D02*
X89845000Y-103886000D01*
X94107000Y-102235000D02*
X94043500Y-102235000D01*
X94107000Y-102235000D02*
X92964000Y-103378000D01*
X92964000Y-103378000D02*
X90950000Y-103378000D01*
D17*
X87376000Y-78930500D02*
X87376000Y-76962000D01*
X84836000Y-78930506D02*
X89154000Y-78930500D01*
X89154000Y-78930500D02*
X89852500Y-78930500D01*
D18*
X89750000Y-77750000D02*
X89750000Y-78174264D01*
X89750000Y-78174264D02*
X89750000Y-78930503D01*
D17*
X89852500Y-78930500D02*
X90250000Y-78930503D01*
X89750000Y-78930503D02*
X90368506Y-78930506D01*
D19*
X90368506Y-78930506D02*
X93749994Y-78930506D01*
X93749994Y-78930506D02*
X93750000Y-78930500D01*
D17*
X93472012Y-78930500D02*
X93750000Y-78930500D01*
X93750000Y-78930500D02*
X102044500Y-78930500D01*
D15*
X84201000Y-92329000D02*
X84600000Y-92329000D01*
X83950000Y-92078000D02*
X84201000Y-92329000D01*
D16*
X87503000Y-92329000D02*
X84600000Y-92329000D01*
D15*
X83950000Y-92078000D02*
X82550000Y-90678000D01*
X84048600Y-92176600D02*
X83950000Y-92078000D01*
X89933556Y-92329000D02*
X92042990Y-94438434D01*
X87503000Y-92329000D02*
X89933556Y-92329000D01*
D16*
X89813113Y-90666735D02*
X97952378Y-98806000D01*
X89813113Y-89559113D02*
X89813113Y-90666735D01*
X87249000Y-86995000D02*
X89813113Y-89559113D01*
X85202854Y-86995000D02*
X87249000Y-86995000D01*
X82981800Y-86690200D02*
X84898054Y-86690200D01*
X97952378Y-98806000D02*
X100187885Y-98806000D01*
X82804000Y-86868000D02*
X82981800Y-86690200D01*
X84898054Y-86690200D02*
X85202854Y-86995000D01*
D15*
X101199973Y-99599973D02*
X101199973Y-99600028D01*
X101184812Y-99584812D02*
X101199973Y-99599973D01*
X100187885Y-98806000D02*
X100405945Y-98806000D01*
X100405945Y-98806000D02*
X100899974Y-99300029D01*
X100899974Y-99300029D02*
X101199973Y-99600028D01*
D16*
X84632800Y-91998800D02*
X84048600Y-91414600D01*
D15*
X90390112Y-91998800D02*
X92092990Y-93701678D01*
X87750000Y-91998800D02*
X90390112Y-91998800D01*
D16*
X87966550Y-91998800D02*
X87750000Y-91998800D01*
X87750000Y-91998800D02*
X84632800Y-91998800D01*
X82804000Y-86169500D02*
X83045289Y-86410789D01*
X98142047Y-98381901D02*
X100382421Y-98381901D01*
X100382421Y-98381901D02*
X101083117Y-99082597D01*
X95132347Y-95372201D02*
X98142047Y-98381901D01*
X83045289Y-86410789D02*
X85013790Y-86410790D01*
X85013790Y-86410790D02*
X85318589Y-86715589D01*
X85318589Y-86715589D02*
X87364736Y-86715590D01*
X87364736Y-86715590D02*
X90092524Y-89443378D01*
X90092524Y-90332378D02*
X94746799Y-94986653D01*
X94746799Y-94986653D02*
X94746799Y-95110537D01*
X94746799Y-95110537D02*
X95008463Y-95372201D01*
X101287203Y-99082597D02*
X101711467Y-99082597D01*
X101083117Y-99082597D02*
X101287203Y-99082597D01*
X90092524Y-89443378D02*
X90092524Y-90332378D01*
X95008463Y-95372201D02*
X95132347Y-95372201D01*
D15*
X113320998Y-100850000D02*
X116000000Y-98170998D01*
X100250000Y-100850000D02*
X113320998Y-100850000D01*
D16*
X116000000Y-98170998D02*
X118173500Y-98170998D01*
X119634000Y-87439500D02*
X110807500Y-96266000D01*
X110807500Y-96266000D02*
X102350000Y-96266000D01*
X119634000Y-85407500D02*
X115474750Y-89566750D01*
X109283500Y-95758000D02*
X101727000Y-95758000D01*
X115474750Y-89566750D02*
X109283500Y-95758000D01*
X84298999Y-103046321D02*
X84074000Y-103271320D01*
X84538820Y-102806500D02*
X84298999Y-103046321D01*
X93345000Y-101346010D02*
X91884510Y-102806500D01*
X91884510Y-102806500D02*
X84538820Y-102806500D01*
X100847550Y-100099403D02*
X100851349Y-100103202D01*
D15*
X97141400Y-99941400D02*
X100689547Y-99941400D01*
X100689547Y-99941400D02*
X100847550Y-100099403D01*
X96300000Y-99100000D02*
X97141400Y-99941400D01*
X93650000Y-95150000D02*
X96300000Y-97800000D01*
X91600000Y-95150000D02*
X93650000Y-95150000D01*
X96300000Y-97800000D02*
X96300000Y-99100000D01*
D16*
X103632000Y-98171000D02*
X101699771Y-100103229D01*
X101699771Y-100103229D02*
X100851376Y-100103229D01*
X111823504Y-98171000D02*
X103632000Y-98171000D01*
X100851376Y-100103229D02*
X100847550Y-100099403D01*
D15*
X95450000Y-89450000D02*
X95500000Y-89500000D01*
M02*
