M48
; DRILL file {KiCad (5.1.4)-1} date 10/25/2019 8:41:03 PM
; FORMAT={-:-/ absolute / inch / decimal}
; #@! TF.CreationDate,2019-10-25T20:41:03-07:00
; #@! TF.GenerationSoftware,Kicad,Pcbnew,(5.1.4)-1
FMAT,2
INCH
T1C0.0118
T2C0.0354
T3C0.0472
T4C0.0866
%
G90
G05
T1
X3.08Y-3.36
X3.1Y-3.385
X3.105Y-3.205
X3.105Y-3.3
X3.107Y-3.335
X3.108Y-3.259
X3.185Y-3.171
X3.218Y-3.102
X3.2707Y-3.8704
X3.271Y-3.102
X3.2721Y-3.8441
X3.325Y-4.072
X3.327Y-3.103
X3.334Y-4.264
X3.407Y-4.07
X3.422Y-3.575
X3.434Y-3.311
X3.44Y-3.932
X3.45Y-3.255
X3.45Y-3.335
X3.45Y-3.36
X3.45Y-3.385
X3.48Y-3.23
X3.48Y-3.305
X3.48Y-3.33
X3.48Y-3.36
X3.48Y-3.385
X3.485Y-3.2
X3.485Y-3.255
X3.493Y-3.28
X3.499Y-3.577
X3.546Y-3.807
X3.547Y-3.845
X3.548Y-4.129
X3.579Y-3.692
X3.58Y-2.952
X3.616Y-3.104
X3.616Y-4.209
X3.646Y-4.112
X3.6558Y-3.714
X3.656Y-3.072
X3.6593Y-3.4989
X3.66Y-3.106
X3.6675Y-3.9025
X3.6693Y-4.0025
X3.67Y-4.0373
X3.6701Y-3.8667
X3.6702Y-3.8435
X3.6714Y-3.8192
X3.6725Y-3.98
X3.688Y-3.507
X3.704Y-3.104
X3.7057Y-3.765
X3.706Y-4.079
X3.718Y-4.14
X3.736Y-3.712
X3.7361Y-4.0991
X3.737Y-3.174
X3.7503Y-3.7622
X3.7597Y-4.0996
X3.774Y-3.762
X3.799Y-4.274
X3.8067Y-3.761
X3.82Y-3.2
X3.82Y-3.256
X3.82Y-3.332
X3.825Y-3.3
X3.83Y-3.38
X3.833Y-3.761
X3.84Y-3.225
X3.84Y-3.355
X3.845Y-3.275
X3.8666Y-4.0956
X3.87Y-3.765
X3.873Y-4.207
X3.8911Y-4.1014
X3.909Y-3.533
X3.9093Y-3.7621
X3.9137Y-4.104
X3.916Y-3.7061
X3.926Y-4.218
X3.932Y-3.761
X3.9363Y-4.1016
X3.937Y-3.534
X3.9714Y-3.7746
X3.997Y-4.262
X4.0088Y-4.0026
X4.0137Y-4.047
X4.015Y-3.94
X4.0153Y-4.0243
X4.055Y-3.4859
X4.0777Y-3.5022
X4.116Y-3.501
X4.133Y-4.096
X4.134Y-3.56
X4.141Y-3.791
X4.151Y-3.945
X4.155Y-3.502
X4.177Y-3.908
X4.181Y-3.7685
X4.193Y-3.501
X4.206Y-4.012
X4.208Y-4.0547
X4.2089Y-3.754
X4.2157Y-3.5023
X4.2384Y-3.5026
X4.2485Y-3.7485
X4.2609Y-3.5055
X4.283Y-3.5001
X4.304Y-4.012
X4.307Y-4.051
X4.315Y-3.505
X4.33Y-3.8834
X4.3485Y-3.5045
X4.3682Y-3.501
X4.425Y-3.194
X4.448Y-3.253
X4.4639Y-3.8844
X4.4655Y-3.8191
X4.4687Y-3.7759
X4.47Y-3.502
X4.4723Y-3.9499
X4.4724Y-3.8633
X4.4728Y-3.8406
X4.474Y-3.798
X4.4927Y-3.5007
X4.5154Y-3.5015
X4.755Y-3.64
T2
X3.2273Y-3.7721
X3.2273Y-3.9689
T3
X3.121Y-3.7327
X3.121Y-4.0083
T4
X4.7203Y-3.12
X4.7203Y-3.3543
X4.486Y-3.12
X4.486Y-3.3543
T0
M30
