%TF.GenerationSoftware,KiCad,Pcbnew,(5.1.4)-1*%
%TF.CreationDate,2019-12-19T18:18:08-07:00*%
%TF.ProjectId,mainboard,6d61696e-626f-4617-9264-2e6b69636164,rev?*%
%TF.SameCoordinates,Original*%
%TF.FileFunction,Profile,NP*%
%FSLAX46Y46*%
G04 Gerber Fmt 4.6, Leading zero omitted, Abs format (unit mm)*
G04 Created by KiCad (PCBNEW (5.1.4)-1) date 2019-12-19 18:18:08*
%MOMM*%
%LPD*%
G04 APERTURE LIST*
%ADD10C,0.150000*%
G04 APERTURE END LIST*
D10*
X120902460Y-74415942D02*
X120102459Y-74415941D01*
X85102460Y-74415941D02*
G75*
G02X84602460Y-73915941I0J500000D01*
G01*
X113602459Y-73915941D02*
G75*
G02X113102459Y-74415941I-500000J0D01*
G01*
X113102459Y-107215941D02*
G75*
G02X113602459Y-107715941I0J-500000D01*
G01*
X84602460Y-107715941D02*
G75*
G02X85102460Y-107215941I500000J0D01*
G01*
X77340460Y-91475941D02*
X76502460Y-92313941D01*
X77340460Y-98555940D02*
X76502460Y-97790000D01*
X120102460Y-72915941D02*
X113602460Y-72915941D01*
X113602459Y-107715941D02*
X113602460Y-108715941D01*
X85102460Y-107215941D02*
X113102459Y-107215941D01*
X84602460Y-108715941D02*
X84602460Y-107715941D01*
X113602460Y-108715941D02*
X120102459Y-108715940D01*
X113102459Y-74415941D02*
X93872460Y-74415941D01*
X113602460Y-72915941D02*
X113602459Y-73915941D01*
X78102460Y-72915941D02*
X78102460Y-74415941D01*
X93872460Y-74415941D02*
X93872460Y-75565000D01*
X93872460Y-75565000D02*
X89872460Y-75565000D01*
X78102460Y-74415941D02*
X77340460Y-74415941D01*
X77340460Y-74415941D02*
X77340460Y-91475941D01*
X120102460Y-107215940D02*
X120902460Y-107215940D01*
X120102459Y-74415941D02*
X120102460Y-72915941D01*
X89872460Y-75565000D02*
X89872460Y-74415941D01*
X84602460Y-72915941D02*
X78102460Y-72915941D01*
X84602460Y-73915941D02*
X84602460Y-72915941D01*
X89872460Y-74415941D02*
X85102460Y-74415941D01*
X76502460Y-92313941D02*
X76502460Y-97790000D01*
X120902460Y-107215940D02*
X120902460Y-74415942D01*
X78102460Y-107215940D02*
X78102460Y-108715940D01*
X120102459Y-108715940D02*
X120102460Y-107215940D01*
X77340460Y-98555940D02*
X77340460Y-107215940D01*
X78102460Y-108715940D02*
X84602460Y-108715941D01*
X77340460Y-107215940D02*
X78102460Y-107215940D01*
M02*
