%TF.GenerationSoftware,KiCad,Pcbnew,5.0.2-bee76a0~70~ubuntu18.04.1*%
%TF.CreationDate,2020-02-29T17:46:36-08:00*%
%TF.ProjectId,mainboard,6d61696e-626f-4617-9264-2e6b69636164,rev?*%
%TF.SameCoordinates,Original*%
%TF.FileFunction,Legend,Bot*%
%TF.FilePolarity,Positive*%
%FSLAX46Y46*%
G04 Gerber Fmt 4.6, Leading zero omitted, Abs format (unit mm)*
G04 Created by KiCad (PCBNEW 5.0.2-bee76a0~70~ubuntu18.04.1) date Sat 29 Feb 2020 05:46:36 PM PST*
%MOMM*%
%LPD*%
G01*
G04 APERTURE LIST*
%ADD10C,0.076200*%
%ADD11C,0.150000*%
%ADD12C,0.250000*%
%ADD13C,0.120000*%
%ADD14C,0.100000*%
%ADD15C,0.127000*%
%ADD16C,0.070000*%
G04 APERTURE END LIST*
D10*
X85123261Y-103311476D02*
X85758261Y-103462666D01*
X85304690Y-103583619D01*
X85758261Y-103704571D01*
X85123261Y-103855761D01*
X85758261Y-104097666D02*
X85123261Y-104097666D01*
X85123261Y-104248857D01*
X85153500Y-104339571D01*
X85213976Y-104400047D01*
X85274452Y-104430285D01*
X85395404Y-104460523D01*
X85486119Y-104460523D01*
X85607071Y-104430285D01*
X85667547Y-104400047D01*
X85728023Y-104339571D01*
X85758261Y-104248857D01*
X85758261Y-104097666D01*
X85123261Y-104641952D02*
X85123261Y-105004809D01*
X85758261Y-104823380D02*
X85123261Y-104823380D01*
X85516357Y-105216476D02*
X85516357Y-105700285D01*
X85425642Y-106002666D02*
X85425642Y-106214333D01*
X85758261Y-106305047D02*
X85758261Y-106002666D01*
X85123261Y-106002666D01*
X85123261Y-106305047D01*
X85758261Y-106577190D02*
X85123261Y-106577190D01*
X85758261Y-106940047D01*
X85123261Y-106940047D01*
D11*
X87058500Y-104013000D02*
X86042500Y-104013000D01*
X87058500Y-105918000D02*
X87058500Y-104013000D01*
X86042500Y-105918000D02*
X87058500Y-105918000D01*
X86042500Y-104013000D02*
X86042500Y-105918000D01*
D10*
X102522261Y-83287809D02*
X102219880Y-83076142D01*
X102522261Y-82924952D02*
X101887261Y-82924952D01*
X101887261Y-83166857D01*
X101917500Y-83227333D01*
X101947738Y-83257571D01*
X102008214Y-83287809D01*
X102098928Y-83287809D01*
X102159404Y-83257571D01*
X102189642Y-83227333D01*
X102219880Y-83166857D01*
X102219880Y-82924952D01*
X102340833Y-83529714D02*
X102340833Y-83832095D01*
X102522261Y-83469238D02*
X101887261Y-83680904D01*
X102522261Y-83892571D01*
X102522261Y-84104238D02*
X101887261Y-84104238D01*
X101887261Y-84255428D01*
X101917500Y-84346142D01*
X101977976Y-84406619D01*
X102038452Y-84436857D01*
X102159404Y-84467095D01*
X102250119Y-84467095D01*
X102371071Y-84436857D01*
X102431547Y-84406619D01*
X102492023Y-84346142D01*
X102522261Y-84255428D01*
X102522261Y-84104238D01*
X102522261Y-84739238D02*
X101887261Y-84739238D01*
X101887261Y-85162571D02*
X101887261Y-85283523D01*
X101917500Y-85344000D01*
X101977976Y-85404476D01*
X102098928Y-85434714D01*
X102310595Y-85434714D01*
X102431547Y-85404476D01*
X102492023Y-85344000D01*
X102522261Y-85283523D01*
X102522261Y-85162571D01*
X102492023Y-85102095D01*
X102431547Y-85041619D01*
X102310595Y-85011380D01*
X102098928Y-85011380D01*
X101977976Y-85041619D01*
X101917500Y-85102095D01*
X101887261Y-85162571D01*
X102098928Y-86160428D02*
X102098928Y-86614000D01*
X101826785Y-86341857D02*
X102643214Y-86160428D01*
X102371071Y-86553523D02*
X102371071Y-86099952D01*
X102643214Y-86372095D02*
X101826785Y-86553523D01*
X102522261Y-87158285D02*
X102522261Y-86795428D01*
X102522261Y-86976857D02*
X101887261Y-86976857D01*
X101977976Y-86916380D01*
X102038452Y-86855904D01*
X102068690Y-86795428D01*
D11*
X120902460Y-74415942D02*
X120102459Y-74415941D01*
X85102460Y-74415941D02*
G75*
G02X84602460Y-73915941I0J500000D01*
G01*
X113602459Y-73915941D02*
G75*
G02X113102459Y-74415941I-500000J0D01*
G01*
X113102459Y-107215941D02*
G75*
G02X113602459Y-107715941I0J-500000D01*
G01*
X84602460Y-107715941D02*
G75*
G02X85102460Y-107215941I500000J0D01*
G01*
X77340460Y-91475941D02*
X76502460Y-92313941D01*
X77340460Y-98555940D02*
X76502460Y-97790000D01*
X120102460Y-72915941D02*
X113602460Y-72915941D01*
X113602459Y-107715941D02*
X113602460Y-108715941D01*
X85102460Y-107215941D02*
X113102459Y-107215941D01*
X84602460Y-108715941D02*
X84602460Y-107715941D01*
X113602460Y-108715941D02*
X120102459Y-108715940D01*
X113102459Y-74415941D02*
X93872460Y-74415941D01*
X113602460Y-72915941D02*
X113602459Y-73915941D01*
X78102460Y-72915941D02*
X78102460Y-74415941D01*
X93872460Y-74415941D02*
X93872460Y-75565000D01*
X93872460Y-75565000D02*
X89872460Y-75565000D01*
X78102460Y-74415941D02*
X77340460Y-74415941D01*
X77340460Y-74415941D02*
X77340460Y-91475941D01*
X120102460Y-107215940D02*
X120902460Y-107215940D01*
X120102459Y-74415941D02*
X120102460Y-72915941D01*
X89872460Y-75565000D02*
X89872460Y-74415941D01*
X84602460Y-72915941D02*
X78102460Y-72915941D01*
X84602460Y-73915941D02*
X84602460Y-72915941D01*
X89872460Y-74415941D02*
X85102460Y-74415941D01*
X76502460Y-92313941D02*
X76502460Y-97790000D01*
X120902460Y-107215940D02*
X120902460Y-74415942D01*
X78102460Y-107215940D02*
X78102460Y-108715940D01*
X120102459Y-108715940D02*
X120102460Y-107215940D01*
X77340460Y-98555940D02*
X77340460Y-107215940D01*
X78102460Y-108715940D02*
X84602460Y-108715941D01*
X77340460Y-107215940D02*
X78102460Y-107215940D01*
D10*
X118578690Y-75217261D02*
X118790357Y-74914880D01*
X118941547Y-75217261D02*
X118941547Y-74582261D01*
X118699642Y-74582261D01*
X118639166Y-74612500D01*
X118608928Y-74642738D01*
X118578690Y-74703214D01*
X118578690Y-74793928D01*
X118608928Y-74854404D01*
X118639166Y-74884642D01*
X118699642Y-74914880D01*
X118941547Y-74914880D01*
X118336785Y-75035833D02*
X118034404Y-75035833D01*
X118397261Y-75217261D02*
X118185595Y-74582261D01*
X117973928Y-75217261D01*
X117762261Y-75217261D02*
X117762261Y-74582261D01*
X117611071Y-74582261D01*
X117520357Y-74612500D01*
X117459880Y-74672976D01*
X117429642Y-74733452D01*
X117399404Y-74854404D01*
X117399404Y-74945119D01*
X117429642Y-75066071D01*
X117459880Y-75126547D01*
X117520357Y-75187023D01*
X117611071Y-75217261D01*
X117762261Y-75217261D01*
X117127261Y-75217261D02*
X117127261Y-74582261D01*
X116703928Y-74582261D02*
X116582976Y-74582261D01*
X116522500Y-74612500D01*
X116462023Y-74672976D01*
X116431785Y-74793928D01*
X116431785Y-75005595D01*
X116462023Y-75126547D01*
X116522500Y-75187023D01*
X116582976Y-75217261D01*
X116703928Y-75217261D01*
X116764404Y-75187023D01*
X116824880Y-75126547D01*
X116855119Y-75005595D01*
X116855119Y-74793928D01*
X116824880Y-74672976D01*
X116764404Y-74612500D01*
X116703928Y-74582261D01*
X115706071Y-74793928D02*
X115252500Y-74793928D01*
X115524642Y-74521785D02*
X115706071Y-75338214D01*
X115312976Y-75066071D02*
X115766547Y-75066071D01*
X115494404Y-75338214D02*
X115312976Y-74521785D01*
X114708214Y-75217261D02*
X115071071Y-75217261D01*
X114889642Y-75217261D02*
X114889642Y-74582261D01*
X114950119Y-74672976D01*
X115010595Y-74733452D01*
X115071071Y-74763690D01*
D12*
X84322580Y-91261260D02*
G75*
G03X84322580Y-91261260I-111800J0D01*
G01*
D11*
X79210780Y-90511260D02*
X79210780Y-91011260D01*
X79710780Y-90761260D02*
X79210780Y-90511260D01*
X79210780Y-91011260D02*
X79710780Y-90761260D01*
X78860780Y-91261260D02*
X78860780Y-78761260D01*
X83760780Y-77561260D02*
X83760780Y-78761260D01*
X83460780Y-77261260D02*
X83760780Y-77561260D01*
X80960780Y-77261260D02*
X83460780Y-77261260D01*
X83760780Y-92461260D02*
X83760780Y-91261260D01*
X83460780Y-92761260D02*
X83760780Y-92461260D01*
X80960780Y-92761260D02*
X83460780Y-92761260D01*
D13*
X85120500Y-99866000D02*
X85120500Y-101016000D01*
X83700500Y-99866000D02*
X85120500Y-99866000D01*
D14*
G36*
X84420500Y-99876000D02*
X85110500Y-100536000D01*
X85110500Y-99876000D01*
X84420500Y-99876000D01*
G37*
X84420500Y-99876000D02*
X85110500Y-100536000D01*
X85110500Y-99876000D01*
X84420500Y-99876000D01*
X101680800Y-90784200D02*
X101680800Y-90165530D01*
X101680800Y-88184200D02*
X101680800Y-88802870D01*
X99080800Y-88184200D02*
X99080800Y-90784200D01*
D13*
X119860000Y-75466000D02*
X119860000Y-75816000D01*
X103660000Y-91666000D02*
X103660000Y-91266000D01*
X119860000Y-91666000D02*
X103660000Y-91666000D01*
X119860000Y-91266000D02*
X119860000Y-91666000D01*
X103660000Y-75466000D02*
X103660000Y-75866000D01*
X119860000Y-75466000D02*
X103660000Y-75466000D01*
X87356000Y-102870000D02*
X87356000Y-99420000D01*
X87356000Y-102870000D02*
X87356000Y-104820000D01*
X92476000Y-102870000D02*
X92476000Y-100920000D01*
X92476000Y-102870000D02*
X92476000Y-104820000D01*
D15*
X102507000Y-100874000D02*
X102507000Y-95664000D01*
X102507000Y-105314000D02*
X102507000Y-103424000D01*
X113262000Y-106914000D02*
X105132000Y-106914000D01*
X102507000Y-91714000D02*
X102507000Y-93084000D01*
X111932000Y-91714000D02*
X102507000Y-91714000D01*
X117457000Y-91714000D02*
X116532000Y-91714000D01*
X117457000Y-106914000D02*
X117457000Y-91714000D01*
X116532000Y-106914000D02*
X117457000Y-106914000D01*
D13*
X96397578Y-103210000D02*
X95880422Y-103210000D01*
X96397578Y-101790000D02*
X95880422Y-101790000D01*
X90991422Y-82540000D02*
X91508578Y-82540000D01*
X90991422Y-83960000D02*
X91508578Y-83960000D01*
X93110000Y-79350000D02*
X93110000Y-81150000D01*
X89890000Y-81150000D02*
X89890000Y-78700000D01*
D10*
X83151738Y-78316666D02*
X82698166Y-78316666D01*
X82607452Y-78346904D01*
X82546976Y-78407380D01*
X82516738Y-78498095D01*
X82516738Y-78558571D01*
X82940071Y-77742142D02*
X82516738Y-77742142D01*
X83181976Y-77893333D02*
X82728404Y-78044523D01*
X82728404Y-77651428D01*
X86461761Y-81606785D02*
X86159380Y-81395119D01*
X86461761Y-81243928D02*
X85826761Y-81243928D01*
X85826761Y-81485833D01*
X85857000Y-81546309D01*
X85887238Y-81576547D01*
X85947714Y-81606785D01*
X86038428Y-81606785D01*
X86098904Y-81576547D01*
X86129142Y-81546309D01*
X86159380Y-81485833D01*
X86159380Y-81243928D01*
X85887238Y-81848690D02*
X85857000Y-81878928D01*
X85826761Y-81939404D01*
X85826761Y-82090595D01*
X85857000Y-82151071D01*
X85887238Y-82181309D01*
X85947714Y-82211547D01*
X86008190Y-82211547D01*
X86098904Y-82181309D01*
X86461761Y-81818452D01*
X86461761Y-82211547D01*
X86461761Y-82816309D02*
X86461761Y-82453452D01*
X86461761Y-82634880D02*
X85826761Y-82634880D01*
X85917476Y-82574404D01*
X85977952Y-82513928D01*
X86008190Y-82453452D01*
X88307261Y-85841785D02*
X88004880Y-85630119D01*
X88307261Y-85478928D02*
X87672261Y-85478928D01*
X87672261Y-85720833D01*
X87702500Y-85781309D01*
X87732738Y-85811547D01*
X87793214Y-85841785D01*
X87883928Y-85841785D01*
X87944404Y-85811547D01*
X87974642Y-85781309D01*
X88004880Y-85720833D01*
X88004880Y-85478928D01*
X87732738Y-86083690D02*
X87702500Y-86113928D01*
X87672261Y-86174404D01*
X87672261Y-86325595D01*
X87702500Y-86386071D01*
X87732738Y-86416309D01*
X87793214Y-86446547D01*
X87853690Y-86446547D01*
X87944404Y-86416309D01*
X88307261Y-86053452D01*
X88307261Y-86446547D01*
X87672261Y-86839642D02*
X87672261Y-86900119D01*
X87702500Y-86960595D01*
X87732738Y-86990833D01*
X87793214Y-87021071D01*
X87914166Y-87051309D01*
X88065357Y-87051309D01*
X88186309Y-87021071D01*
X88246785Y-86990833D01*
X88277023Y-86960595D01*
X88307261Y-86900119D01*
X88307261Y-86839642D01*
X88277023Y-86779166D01*
X88246785Y-86748928D01*
X88186309Y-86718690D01*
X88065357Y-86688452D01*
X87914166Y-86688452D01*
X87793214Y-86718690D01*
X87732738Y-86748928D01*
X87702500Y-86779166D01*
X87672261Y-86839642D01*
X84415690Y-105887761D02*
X84415690Y-105252761D01*
X84264500Y-105252761D01*
X84173785Y-105283000D01*
X84113309Y-105343476D01*
X84083071Y-105403952D01*
X84052833Y-105524904D01*
X84052833Y-105615619D01*
X84083071Y-105736571D01*
X84113309Y-105797047D01*
X84173785Y-105857523D01*
X84264500Y-105887761D01*
X84415690Y-105887761D01*
X83841166Y-105252761D02*
X83448071Y-105252761D01*
X83659738Y-105494666D01*
X83569023Y-105494666D01*
X83508547Y-105524904D01*
X83478309Y-105555142D01*
X83448071Y-105615619D01*
X83448071Y-105766809D01*
X83478309Y-105827285D01*
X83508547Y-105857523D01*
X83569023Y-105887761D01*
X83750452Y-105887761D01*
X83810928Y-105857523D01*
X83841166Y-105827285D01*
X89244714Y-97481785D02*
X89274952Y-97512023D01*
X89365666Y-97542261D01*
X89426142Y-97542261D01*
X89516857Y-97512023D01*
X89577333Y-97451547D01*
X89607571Y-97391071D01*
X89637809Y-97270119D01*
X89637809Y-97179404D01*
X89607571Y-97058452D01*
X89577333Y-96997976D01*
X89516857Y-96937500D01*
X89426142Y-96907261D01*
X89365666Y-96907261D01*
X89274952Y-96937500D01*
X89244714Y-96967738D01*
X88639952Y-97542261D02*
X89002809Y-97542261D01*
X88821380Y-97542261D02*
X88821380Y-96907261D01*
X88881857Y-96997976D01*
X88942333Y-97058452D01*
X89002809Y-97088690D01*
X88095666Y-96907261D02*
X88216619Y-96907261D01*
X88277095Y-96937500D01*
X88307333Y-96967738D01*
X88367809Y-97058452D01*
X88398047Y-97179404D01*
X88398047Y-97421309D01*
X88367809Y-97481785D01*
X88337571Y-97512023D01*
X88277095Y-97542261D01*
X88156142Y-97542261D01*
X88095666Y-97512023D01*
X88065428Y-97481785D01*
X88035190Y-97421309D01*
X88035190Y-97270119D01*
X88065428Y-97209642D01*
X88095666Y-97179404D01*
X88156142Y-97149166D01*
X88277095Y-97149166D01*
X88337571Y-97179404D01*
X88367809Y-97209642D01*
X88398047Y-97270119D01*
X98128061Y-89272533D02*
X98581633Y-89272533D01*
X98672347Y-89242295D01*
X98732823Y-89181819D01*
X98763061Y-89091104D01*
X98763061Y-89030628D01*
X98128061Y-89847057D02*
X98128061Y-89726104D01*
X98158300Y-89665628D01*
X98188538Y-89635390D01*
X98279252Y-89574914D01*
X98400204Y-89544676D01*
X98642109Y-89544676D01*
X98702585Y-89574914D01*
X98732823Y-89605152D01*
X98763061Y-89665628D01*
X98763061Y-89786580D01*
X98732823Y-89847057D01*
X98702585Y-89877295D01*
X98642109Y-89907533D01*
X98490919Y-89907533D01*
X98430442Y-89877295D01*
X98400204Y-89847057D01*
X98369966Y-89786580D01*
X98369966Y-89665628D01*
X98400204Y-89605152D01*
X98430442Y-89574914D01*
X98490919Y-89544676D01*
X94587785Y-97000785D02*
X94618023Y-96970547D01*
X94648261Y-96879833D01*
X94648261Y-96819357D01*
X94618023Y-96728642D01*
X94557547Y-96668166D01*
X94497071Y-96637928D01*
X94376119Y-96607690D01*
X94285404Y-96607690D01*
X94164452Y-96637928D01*
X94103976Y-96668166D01*
X94043500Y-96728642D01*
X94013261Y-96819357D01*
X94013261Y-96879833D01*
X94043500Y-96970547D01*
X94073738Y-97000785D01*
X94648261Y-97605547D02*
X94648261Y-97242690D01*
X94648261Y-97424119D02*
X94013261Y-97424119D01*
X94103976Y-97363642D01*
X94164452Y-97303166D01*
X94194690Y-97242690D01*
X94013261Y-98180071D02*
X94013261Y-97877690D01*
X94315642Y-97847452D01*
X94285404Y-97877690D01*
X94255166Y-97938166D01*
X94255166Y-98089357D01*
X94285404Y-98149833D01*
X94315642Y-98180071D01*
X94376119Y-98210309D01*
X94527309Y-98210309D01*
X94587785Y-98180071D01*
X94618023Y-98149833D01*
X94648261Y-98089357D01*
X94648261Y-97938166D01*
X94618023Y-97877690D01*
X94587785Y-97847452D01*
X97318285Y-95652166D02*
X97348523Y-95621928D01*
X97378761Y-95531214D01*
X97378761Y-95470738D01*
X97348523Y-95380023D01*
X97288047Y-95319547D01*
X97227571Y-95289309D01*
X97106619Y-95259071D01*
X97015904Y-95259071D01*
X96894952Y-95289309D01*
X96834476Y-95319547D01*
X96774000Y-95380023D01*
X96743761Y-95470738D01*
X96743761Y-95531214D01*
X96774000Y-95621928D01*
X96804238Y-95652166D01*
X96743761Y-95863833D02*
X96743761Y-96256928D01*
X96985666Y-96045261D01*
X96985666Y-96135976D01*
X97015904Y-96196452D01*
X97046142Y-96226690D01*
X97106619Y-96256928D01*
X97257809Y-96256928D01*
X97318285Y-96226690D01*
X97348523Y-96196452D01*
X97378761Y-96135976D01*
X97378761Y-95954547D01*
X97348523Y-95894071D01*
X97318285Y-95863833D01*
X88099785Y-91996785D02*
X88130023Y-91966547D01*
X88160261Y-91875833D01*
X88160261Y-91815357D01*
X88130023Y-91724642D01*
X88069547Y-91664166D01*
X88009071Y-91633928D01*
X87888119Y-91603690D01*
X87797404Y-91603690D01*
X87676452Y-91633928D01*
X87615976Y-91664166D01*
X87555500Y-91724642D01*
X87525261Y-91815357D01*
X87525261Y-91875833D01*
X87555500Y-91966547D01*
X87585738Y-91996785D01*
X88160261Y-92601547D02*
X88160261Y-92238690D01*
X88160261Y-92420119D02*
X87525261Y-92420119D01*
X87615976Y-92359642D01*
X87676452Y-92299166D01*
X87706690Y-92238690D01*
X87585738Y-92843452D02*
X87555500Y-92873690D01*
X87525261Y-92934166D01*
X87525261Y-93085357D01*
X87555500Y-93145833D01*
X87585738Y-93176071D01*
X87646214Y-93206309D01*
X87706690Y-93206309D01*
X87797404Y-93176071D01*
X88160261Y-92813214D01*
X88160261Y-93206309D01*
X112370809Y-83154761D02*
X112370809Y-83668809D01*
X112340571Y-83729285D01*
X112310333Y-83759523D01*
X112249857Y-83789761D01*
X112128904Y-83789761D01*
X112068428Y-83759523D01*
X112038190Y-83729285D01*
X112007952Y-83668809D01*
X112007952Y-83154761D01*
X111614857Y-83426904D02*
X111675333Y-83396666D01*
X111705571Y-83366428D01*
X111735809Y-83305952D01*
X111735809Y-83275714D01*
X111705571Y-83215238D01*
X111675333Y-83185000D01*
X111614857Y-83154761D01*
X111493904Y-83154761D01*
X111433428Y-83185000D01*
X111403190Y-83215238D01*
X111372952Y-83275714D01*
X111372952Y-83305952D01*
X111403190Y-83366428D01*
X111433428Y-83396666D01*
X111493904Y-83426904D01*
X111614857Y-83426904D01*
X111675333Y-83457142D01*
X111705571Y-83487380D01*
X111735809Y-83547857D01*
X111735809Y-83668809D01*
X111705571Y-83729285D01*
X111675333Y-83759523D01*
X111614857Y-83789761D01*
X111493904Y-83789761D01*
X111433428Y-83759523D01*
X111403190Y-83729285D01*
X111372952Y-83668809D01*
X111372952Y-83547857D01*
X111403190Y-83487380D01*
X111433428Y-83457142D01*
X111493904Y-83426904D01*
X86329761Y-101560690D02*
X86843809Y-101560690D01*
X86904285Y-101590928D01*
X86934523Y-101621166D01*
X86964761Y-101681642D01*
X86964761Y-101802595D01*
X86934523Y-101863071D01*
X86904285Y-101893309D01*
X86843809Y-101923547D01*
X86329761Y-101923547D01*
X86329761Y-102498071D02*
X86329761Y-102377119D01*
X86360000Y-102316642D01*
X86390238Y-102286404D01*
X86480952Y-102225928D01*
X86601904Y-102195690D01*
X86843809Y-102195690D01*
X86904285Y-102225928D01*
X86934523Y-102256166D01*
X86964761Y-102316642D01*
X86964761Y-102437595D01*
X86934523Y-102498071D01*
X86904285Y-102528309D01*
X86843809Y-102558547D01*
X86692619Y-102558547D01*
X86632142Y-102528309D01*
X86601904Y-102498071D01*
X86571666Y-102437595D01*
X86571666Y-102316642D01*
X86601904Y-102256166D01*
X86632142Y-102225928D01*
X86692619Y-102195690D01*
X86656333Y-106840261D02*
X86868000Y-106537880D01*
X87019190Y-106840261D02*
X87019190Y-106205261D01*
X86777285Y-106205261D01*
X86716809Y-106235500D01*
X86686571Y-106265738D01*
X86656333Y-106326214D01*
X86656333Y-106416928D01*
X86686571Y-106477404D01*
X86716809Y-106507642D01*
X86777285Y-106537880D01*
X87019190Y-106537880D01*
X86444666Y-106205261D02*
X86051571Y-106205261D01*
X86263238Y-106447166D01*
X86172523Y-106447166D01*
X86112047Y-106477404D01*
X86081809Y-106507642D01*
X86051571Y-106568119D01*
X86051571Y-106719309D01*
X86081809Y-106779785D01*
X86112047Y-106810023D01*
X86172523Y-106840261D01*
X86353952Y-106840261D01*
X86414428Y-106810023D01*
X86444666Y-106779785D01*
X96244833Y-104120761D02*
X96547214Y-104120761D01*
X96547214Y-103485761D01*
X95700547Y-104120761D02*
X96063404Y-104120761D01*
X95881976Y-104120761D02*
X95881976Y-103485761D01*
X95942452Y-103576476D01*
X96002928Y-103636952D01*
X96063404Y-103667190D01*
X95922885Y-97734966D02*
X95953123Y-97704728D01*
X95983361Y-97614014D01*
X95983361Y-97553538D01*
X95953123Y-97462823D01*
X95892647Y-97402347D01*
X95832171Y-97372109D01*
X95711219Y-97341871D01*
X95620504Y-97341871D01*
X95499552Y-97372109D01*
X95439076Y-97402347D01*
X95378600Y-97462823D01*
X95348361Y-97553538D01*
X95348361Y-97614014D01*
X95378600Y-97704728D01*
X95408838Y-97734966D01*
X95348361Y-98309490D02*
X95348361Y-98007109D01*
X95650742Y-97976871D01*
X95620504Y-98007109D01*
X95590266Y-98067585D01*
X95590266Y-98218776D01*
X95620504Y-98279252D01*
X95650742Y-98309490D01*
X95711219Y-98339728D01*
X95862409Y-98339728D01*
X95922885Y-98309490D01*
X95953123Y-98279252D01*
X95983361Y-98218776D01*
X95983361Y-98067585D01*
X95953123Y-98007109D01*
X95922885Y-97976871D01*
X97129385Y-97734966D02*
X97159623Y-97704728D01*
X97189861Y-97614014D01*
X97189861Y-97553538D01*
X97159623Y-97462823D01*
X97099147Y-97402347D01*
X97038671Y-97372109D01*
X96917719Y-97341871D01*
X96827004Y-97341871D01*
X96706052Y-97372109D01*
X96645576Y-97402347D01*
X96585100Y-97462823D01*
X96554861Y-97553538D01*
X96554861Y-97614014D01*
X96585100Y-97704728D01*
X96615338Y-97734966D01*
X96615338Y-97976871D02*
X96585100Y-98007109D01*
X96554861Y-98067585D01*
X96554861Y-98218776D01*
X96585100Y-98279252D01*
X96615338Y-98309490D01*
X96675814Y-98339728D01*
X96736290Y-98339728D01*
X96827004Y-98309490D01*
X97189861Y-97946633D01*
X97189861Y-98339728D01*
X99737333Y-96556285D02*
X99767571Y-96586523D01*
X99858285Y-96616761D01*
X99918761Y-96616761D01*
X100009476Y-96586523D01*
X100069952Y-96526047D01*
X100100190Y-96465571D01*
X100130428Y-96344619D01*
X100130428Y-96253904D01*
X100100190Y-96132952D01*
X100069952Y-96072476D01*
X100009476Y-96012000D01*
X99918761Y-95981761D01*
X99858285Y-95981761D01*
X99767571Y-96012000D01*
X99737333Y-96042238D01*
X99525666Y-95981761D02*
X99102333Y-95981761D01*
X99374476Y-96616761D01*
X98334285Y-98192166D02*
X98364523Y-98161928D01*
X98394761Y-98071214D01*
X98394761Y-98010738D01*
X98364523Y-97920023D01*
X98304047Y-97859547D01*
X98243571Y-97829309D01*
X98122619Y-97799071D01*
X98031904Y-97799071D01*
X97910952Y-97829309D01*
X97850476Y-97859547D01*
X97790000Y-97920023D01*
X97759761Y-98010738D01*
X97759761Y-98071214D01*
X97790000Y-98161928D01*
X97820238Y-98192166D01*
X98394761Y-98796928D02*
X98394761Y-98434071D01*
X98394761Y-98615500D02*
X97759761Y-98615500D01*
X97850476Y-98555023D01*
X97910952Y-98494547D01*
X97941190Y-98434071D01*
X88226785Y-84000285D02*
X88257023Y-83970047D01*
X88287261Y-83879333D01*
X88287261Y-83818857D01*
X88257023Y-83728142D01*
X88196547Y-83667666D01*
X88136071Y-83637428D01*
X88015119Y-83607190D01*
X87924404Y-83607190D01*
X87803452Y-83637428D01*
X87742976Y-83667666D01*
X87682500Y-83728142D01*
X87652261Y-83818857D01*
X87652261Y-83879333D01*
X87682500Y-83970047D01*
X87712738Y-84000285D01*
X88287261Y-84605047D02*
X88287261Y-84242190D01*
X88287261Y-84423619D02*
X87652261Y-84423619D01*
X87742976Y-84363142D01*
X87803452Y-84302666D01*
X87833690Y-84242190D01*
X88287261Y-85209809D02*
X88287261Y-84846952D01*
X88287261Y-85028380D02*
X87652261Y-85028380D01*
X87742976Y-84967904D01*
X87803452Y-84907428D01*
X87833690Y-84846952D01*
X89566714Y-77913285D02*
X89596952Y-77943523D01*
X89687666Y-77973761D01*
X89748142Y-77973761D01*
X89838857Y-77943523D01*
X89899333Y-77883047D01*
X89929571Y-77822571D01*
X89959809Y-77701619D01*
X89959809Y-77610904D01*
X89929571Y-77489952D01*
X89899333Y-77429476D01*
X89838857Y-77369000D01*
X89748142Y-77338761D01*
X89687666Y-77338761D01*
X89596952Y-77369000D01*
X89566714Y-77399238D01*
X88961952Y-77973761D02*
X89324809Y-77973761D01*
X89143380Y-77973761D02*
X89143380Y-77338761D01*
X89203857Y-77429476D01*
X89264333Y-77489952D01*
X89324809Y-77520190D01*
X88750285Y-77338761D02*
X88357190Y-77338761D01*
X88568857Y-77580666D01*
X88478142Y-77580666D01*
X88417666Y-77610904D01*
X88387428Y-77641142D01*
X88357190Y-77701619D01*
X88357190Y-77852809D01*
X88387428Y-77913285D01*
X88417666Y-77943523D01*
X88478142Y-77973761D01*
X88659571Y-77973761D01*
X88720047Y-77943523D01*
X88750285Y-77913285D01*
X93763285Y-84746785D02*
X93793523Y-84716547D01*
X93823761Y-84625833D01*
X93823761Y-84565357D01*
X93793523Y-84474642D01*
X93733047Y-84414166D01*
X93672571Y-84383928D01*
X93551619Y-84353690D01*
X93460904Y-84353690D01*
X93339952Y-84383928D01*
X93279476Y-84414166D01*
X93219000Y-84474642D01*
X93188761Y-84565357D01*
X93188761Y-84625833D01*
X93219000Y-84716547D01*
X93249238Y-84746785D01*
X93823761Y-85351547D02*
X93823761Y-84988690D01*
X93823761Y-85170119D02*
X93188761Y-85170119D01*
X93279476Y-85109642D01*
X93339952Y-85049166D01*
X93370190Y-84988690D01*
X93400428Y-85895833D02*
X93823761Y-85895833D01*
X93158523Y-85744642D02*
X93612095Y-85593452D01*
X93612095Y-85986547D01*
D11*
X91892857Y-85257142D02*
X91940476Y-85304761D01*
X92083333Y-85352380D01*
X92178571Y-85352380D01*
X92321428Y-85304761D01*
X92416666Y-85209523D01*
X92464285Y-85114285D01*
X92511904Y-84923809D01*
X92511904Y-84780952D01*
X92464285Y-84590476D01*
X92416666Y-84495238D01*
X92321428Y-84400000D01*
X92178571Y-84352380D01*
X92083333Y-84352380D01*
X91940476Y-84400000D01*
X91892857Y-84447619D01*
X90940476Y-85352380D02*
X91511904Y-85352380D01*
X91226190Y-85352380D02*
X91226190Y-84352380D01*
X91321428Y-84495238D01*
X91416666Y-84590476D01*
X91511904Y-84638095D01*
X90464285Y-85352380D02*
X90273809Y-85352380D01*
X90178571Y-85304761D01*
X90130952Y-85257142D01*
X90035714Y-85114285D01*
X89988095Y-84923809D01*
X89988095Y-84542857D01*
X90035714Y-84447619D01*
X90083333Y-84400000D01*
X90178571Y-84352380D01*
X90369047Y-84352380D01*
X90464285Y-84400000D01*
X90511904Y-84447619D01*
X90559523Y-84542857D01*
X90559523Y-84780952D01*
X90511904Y-84876190D01*
X90464285Y-84923809D01*
X90369047Y-84971428D01*
X90178571Y-84971428D01*
X90083333Y-84923809D01*
X90035714Y-84876190D01*
X89988095Y-84780952D01*
X87187142Y-81357142D02*
X87234761Y-81309523D01*
X87282380Y-81166666D01*
X87282380Y-81071428D01*
X87234761Y-80928571D01*
X87139523Y-80833333D01*
X87044285Y-80785714D01*
X86853809Y-80738095D01*
X86710952Y-80738095D01*
X86520476Y-80785714D01*
X86425238Y-80833333D01*
X86330000Y-80928571D01*
X86282380Y-81071428D01*
X86282380Y-81166666D01*
X86330000Y-81309523D01*
X86377619Y-81357142D01*
X86377619Y-81738095D02*
X86330000Y-81785714D01*
X86282380Y-81880952D01*
X86282380Y-82119047D01*
X86330000Y-82214285D01*
X86377619Y-82261904D01*
X86472857Y-82309523D01*
X86568095Y-82309523D01*
X86710952Y-82261904D01*
X87282380Y-81690476D01*
X87282380Y-82309523D01*
X86282380Y-82928571D02*
X86282380Y-83023809D01*
X86330000Y-83119047D01*
X86377619Y-83166666D01*
X86472857Y-83214285D01*
X86663333Y-83261904D01*
X86901428Y-83261904D01*
X87091904Y-83214285D01*
X87187142Y-83166666D01*
X87234761Y-83119047D01*
X87282380Y-83023809D01*
X87282380Y-82928571D01*
X87234761Y-82833333D01*
X87187142Y-82785714D01*
X87091904Y-82738095D01*
X86901428Y-82690476D01*
X86663333Y-82690476D01*
X86472857Y-82738095D01*
X86377619Y-82785714D01*
X86330000Y-82833333D01*
X86282380Y-82928571D01*
X88622380Y-89857142D02*
X88146190Y-89523809D01*
X88622380Y-89285714D02*
X87622380Y-89285714D01*
X87622380Y-89666666D01*
X87670000Y-89761904D01*
X87717619Y-89809523D01*
X87812857Y-89857142D01*
X87955714Y-89857142D01*
X88050952Y-89809523D01*
X88098571Y-89761904D01*
X88146190Y-89666666D01*
X88146190Y-89285714D01*
X87717619Y-90238095D02*
X87670000Y-90285714D01*
X87622380Y-90380952D01*
X87622380Y-90619047D01*
X87670000Y-90714285D01*
X87717619Y-90761904D01*
X87812857Y-90809523D01*
X87908095Y-90809523D01*
X88050952Y-90761904D01*
X88622380Y-90190476D01*
X88622380Y-90809523D01*
X87622380Y-91714285D02*
X87622380Y-91238095D01*
X88098571Y-91190476D01*
X88050952Y-91238095D01*
X88003333Y-91333333D01*
X88003333Y-91571428D01*
X88050952Y-91666666D01*
X88098571Y-91714285D01*
X88193809Y-91761904D01*
X88431904Y-91761904D01*
X88527142Y-91714285D01*
X88574761Y-91666666D01*
X88622380Y-91571428D01*
X88622380Y-91333333D01*
X88574761Y-91238095D01*
X88527142Y-91190476D01*
D16*
X88271428Y-79507142D02*
X88757142Y-79507142D01*
X88814285Y-79535714D01*
X88842857Y-79564285D01*
X88871428Y-79621428D01*
X88871428Y-79735714D01*
X88842857Y-79792857D01*
X88814285Y-79821428D01*
X88757142Y-79850000D01*
X88271428Y-79850000D01*
X88871428Y-80450000D02*
X88871428Y-80107142D01*
X88871428Y-80278571D02*
X88271428Y-80278571D01*
X88357142Y-80221428D01*
X88414285Y-80164285D01*
X88442857Y-80107142D01*
X88271428Y-80821428D02*
X88271428Y-80878571D01*
X88300000Y-80935714D01*
X88328571Y-80964285D01*
X88385714Y-80992857D01*
X88500000Y-81021428D01*
X88642857Y-81021428D01*
X88757142Y-80992857D01*
X88814285Y-80964285D01*
X88842857Y-80935714D01*
X88871428Y-80878571D01*
X88871428Y-80821428D01*
X88842857Y-80764285D01*
X88814285Y-80735714D01*
X88757142Y-80707142D01*
X88642857Y-80678571D01*
X88500000Y-80678571D01*
X88385714Y-80707142D01*
X88328571Y-80735714D01*
X88300000Y-80764285D01*
X88271428Y-80821428D01*
M02*
