%TF.GenerationSoftware,KiCad,Pcbnew,(5.1.4)-1*%
%TF.CreationDate,2019-10-25T20:40:59-07:00*%
%TF.ProjectId,mainboard,6d61696e-626f-4617-9264-2e6b69636164,rev?*%
%TF.SameCoordinates,Original*%
%TF.FileFunction,Soldermask,Top*%
%TF.FilePolarity,Negative*%
%FSLAX46Y46*%
G04 Gerber Fmt 4.6, Leading zero omitted, Abs format (unit mm)*
G04 Created by KiCad (PCBNEW (5.1.4)-1) date 2019-10-25 20:40:59*
%MOMM*%
%LPD*%
G04 APERTURE LIST*
%ADD10C,0.150000*%
%ADD11C,1.000000*%
%ADD12C,0.100000*%
%ADD13R,0.951600X0.401600*%
%ADD14R,0.401600X0.951600*%
%ADD15R,5.351600X5.351600*%
%ADD16C,2.301600*%
%ADD17R,1.101600X1.901600*%
%ADD18R,0.351600X0.776600*%
%ADD19R,0.776600X0.351600*%
%ADD20C,0.701600*%
%ADD21C,0.691600*%
%ADD22R,1.101600X1.101600*%
%ADD23R,1.151600X2.301600*%
%ADD24R,2.301600X1.151600*%
%ADD25R,1.601600X1.801600*%
%ADD26R,1.201600X0.351600*%
%ADD27R,1.801600X1.601600*%
%ADD28R,0.351600X1.201600*%
%ADD29C,0.976600*%
%ADD30R,0.551600X0.701600*%
%ADD31C,1.076600*%
%ADD32R,1.451600X0.551600*%
%ADD33C,1.509600*%
%ADD34C,1.901600*%
%ADD35R,1.651600X1.601600*%
%ADD36C,0.401599*%
%ADD37R,1.001600X1.001600*%
G04 APERTURE END LIST*
D10*
X116700300Y-106041600D02*
X116700300Y-109041600D01*
X116700300Y-74041600D02*
X116700300Y-77041600D01*
X121710300Y-106041600D02*
X116700300Y-106041600D01*
X121710300Y-77041600D02*
X116700300Y-77041600D01*
X81725100Y-77041600D02*
X81725100Y-74041600D01*
X76715100Y-106041600D02*
X76721300Y-102057200D01*
X81725100Y-106041600D02*
X76715100Y-106041600D01*
X81725100Y-77041600D02*
X76715100Y-77041600D01*
X77532900Y-95021400D02*
X76708000Y-94513400D01*
X121710300Y-106041600D02*
X121710300Y-77041600D01*
X77546200Y-101549200D02*
X76721300Y-102057200D01*
X81725100Y-106041600D02*
X81725100Y-109041600D01*
X77532900Y-95021400D02*
X77546200Y-101549200D01*
X81725100Y-109041600D02*
X116700300Y-109041600D01*
X116700300Y-74041600D02*
X81725100Y-74041600D01*
X76715100Y-77041600D02*
X76708000Y-94513400D01*
D11*
X102582980Y-108419900D03*
D12*
G36*
X103132804Y-109054811D02*
G01*
X103129913Y-109064340D01*
X103125219Y-109073123D01*
X103118901Y-109080821D01*
X103111203Y-109087139D01*
X103102420Y-109091833D01*
X103092891Y-109094724D01*
X103082980Y-109095700D01*
X102082980Y-109095700D01*
X102073069Y-109094724D01*
X102063540Y-109091833D01*
X102054757Y-109087139D01*
X102047059Y-109080821D01*
X102040741Y-109073123D01*
X102036047Y-109064340D01*
X102033156Y-109054811D01*
X102032180Y-109044900D01*
X102032180Y-107794900D01*
X102032782Y-107788787D01*
X102032782Y-107770366D01*
X102033027Y-107765386D01*
X102037837Y-107716555D01*
X102038568Y-107711625D01*
X102048140Y-107663500D01*
X102049352Y-107658663D01*
X102063596Y-107611708D01*
X102065275Y-107607015D01*
X102084052Y-107561682D01*
X102086184Y-107557174D01*
X102109315Y-107513901D01*
X102111877Y-107509627D01*
X102139137Y-107468828D01*
X102142107Y-107464823D01*
X102173235Y-107426894D01*
X102176583Y-107423200D01*
X102211280Y-107388503D01*
X102214974Y-107385155D01*
X102252903Y-107354027D01*
X102256908Y-107351057D01*
X102297707Y-107323797D01*
X102301981Y-107321235D01*
X102345254Y-107298104D01*
X102349762Y-107295972D01*
X102395095Y-107277195D01*
X102399788Y-107275516D01*
X102446743Y-107261272D01*
X102451580Y-107260060D01*
X102499705Y-107250488D01*
X102504635Y-107249757D01*
X102553466Y-107244947D01*
X102558446Y-107244702D01*
X102607514Y-107244702D01*
X102612494Y-107244947D01*
X102661325Y-107249757D01*
X102666255Y-107250488D01*
X102714380Y-107260060D01*
X102719217Y-107261272D01*
X102766172Y-107275516D01*
X102770865Y-107277195D01*
X102816198Y-107295972D01*
X102820706Y-107298104D01*
X102863979Y-107321235D01*
X102868253Y-107323797D01*
X102909052Y-107351057D01*
X102913057Y-107354027D01*
X102950986Y-107385155D01*
X102954680Y-107388503D01*
X102989377Y-107423200D01*
X102992725Y-107426894D01*
X103023853Y-107464823D01*
X103026823Y-107468828D01*
X103054083Y-107509627D01*
X103056645Y-107513901D01*
X103079776Y-107557174D01*
X103081908Y-107561682D01*
X103100685Y-107607015D01*
X103102364Y-107611708D01*
X103116608Y-107658663D01*
X103117820Y-107663500D01*
X103127392Y-107711625D01*
X103128123Y-107716555D01*
X103132933Y-107765386D01*
X103133178Y-107770366D01*
X103133178Y-107788787D01*
X103133780Y-107794900D01*
X103133780Y-109044900D01*
X103132804Y-109054811D01*
X103132804Y-109054811D01*
G37*
D11*
X97510600Y-108407200D03*
D12*
G36*
X98060424Y-109042111D02*
G01*
X98057533Y-109051640D01*
X98052839Y-109060423D01*
X98046521Y-109068121D01*
X98038823Y-109074439D01*
X98030040Y-109079133D01*
X98020511Y-109082024D01*
X98010600Y-109083000D01*
X97010600Y-109083000D01*
X97000689Y-109082024D01*
X96991160Y-109079133D01*
X96982377Y-109074439D01*
X96974679Y-109068121D01*
X96968361Y-109060423D01*
X96963667Y-109051640D01*
X96960776Y-109042111D01*
X96959800Y-109032200D01*
X96959800Y-107782200D01*
X96960402Y-107776087D01*
X96960402Y-107757666D01*
X96960647Y-107752686D01*
X96965457Y-107703855D01*
X96966188Y-107698925D01*
X96975760Y-107650800D01*
X96976972Y-107645963D01*
X96991216Y-107599008D01*
X96992895Y-107594315D01*
X97011672Y-107548982D01*
X97013804Y-107544474D01*
X97036935Y-107501201D01*
X97039497Y-107496927D01*
X97066757Y-107456128D01*
X97069727Y-107452123D01*
X97100855Y-107414194D01*
X97104203Y-107410500D01*
X97138900Y-107375803D01*
X97142594Y-107372455D01*
X97180523Y-107341327D01*
X97184528Y-107338357D01*
X97225327Y-107311097D01*
X97229601Y-107308535D01*
X97272874Y-107285404D01*
X97277382Y-107283272D01*
X97322715Y-107264495D01*
X97327408Y-107262816D01*
X97374363Y-107248572D01*
X97379200Y-107247360D01*
X97427325Y-107237788D01*
X97432255Y-107237057D01*
X97481086Y-107232247D01*
X97486066Y-107232002D01*
X97535134Y-107232002D01*
X97540114Y-107232247D01*
X97588945Y-107237057D01*
X97593875Y-107237788D01*
X97642000Y-107247360D01*
X97646837Y-107248572D01*
X97693792Y-107262816D01*
X97698485Y-107264495D01*
X97743818Y-107283272D01*
X97748326Y-107285404D01*
X97791599Y-107308535D01*
X97795873Y-107311097D01*
X97836672Y-107338357D01*
X97840677Y-107341327D01*
X97878606Y-107372455D01*
X97882300Y-107375803D01*
X97916997Y-107410500D01*
X97920345Y-107414194D01*
X97951473Y-107452123D01*
X97954443Y-107456128D01*
X97981703Y-107496927D01*
X97984265Y-107501201D01*
X98007396Y-107544474D01*
X98009528Y-107548982D01*
X98028305Y-107594315D01*
X98029984Y-107599008D01*
X98044228Y-107645963D01*
X98045440Y-107650800D01*
X98055012Y-107698925D01*
X98055743Y-107703855D01*
X98060553Y-107752686D01*
X98060798Y-107757666D01*
X98060798Y-107776087D01*
X98061400Y-107782200D01*
X98061400Y-109032200D01*
X98060424Y-109042111D01*
X98060424Y-109042111D01*
G37*
D11*
X105122980Y-108419900D03*
D12*
G36*
X105672804Y-109054811D02*
G01*
X105669913Y-109064340D01*
X105665219Y-109073123D01*
X105658901Y-109080821D01*
X105651203Y-109087139D01*
X105642420Y-109091833D01*
X105632891Y-109094724D01*
X105622980Y-109095700D01*
X104622980Y-109095700D01*
X104613069Y-109094724D01*
X104603540Y-109091833D01*
X104594757Y-109087139D01*
X104587059Y-109080821D01*
X104580741Y-109073123D01*
X104576047Y-109064340D01*
X104573156Y-109054811D01*
X104572180Y-109044900D01*
X104572180Y-107794900D01*
X104572782Y-107788787D01*
X104572782Y-107770366D01*
X104573027Y-107765386D01*
X104577837Y-107716555D01*
X104578568Y-107711625D01*
X104588140Y-107663500D01*
X104589352Y-107658663D01*
X104603596Y-107611708D01*
X104605275Y-107607015D01*
X104624052Y-107561682D01*
X104626184Y-107557174D01*
X104649315Y-107513901D01*
X104651877Y-107509627D01*
X104679137Y-107468828D01*
X104682107Y-107464823D01*
X104713235Y-107426894D01*
X104716583Y-107423200D01*
X104751280Y-107388503D01*
X104754974Y-107385155D01*
X104792903Y-107354027D01*
X104796908Y-107351057D01*
X104837707Y-107323797D01*
X104841981Y-107321235D01*
X104885254Y-107298104D01*
X104889762Y-107295972D01*
X104935095Y-107277195D01*
X104939788Y-107275516D01*
X104986743Y-107261272D01*
X104991580Y-107260060D01*
X105039705Y-107250488D01*
X105044635Y-107249757D01*
X105093466Y-107244947D01*
X105098446Y-107244702D01*
X105147514Y-107244702D01*
X105152494Y-107244947D01*
X105201325Y-107249757D01*
X105206255Y-107250488D01*
X105254380Y-107260060D01*
X105259217Y-107261272D01*
X105306172Y-107275516D01*
X105310865Y-107277195D01*
X105356198Y-107295972D01*
X105360706Y-107298104D01*
X105403979Y-107321235D01*
X105408253Y-107323797D01*
X105449052Y-107351057D01*
X105453057Y-107354027D01*
X105490986Y-107385155D01*
X105494680Y-107388503D01*
X105529377Y-107423200D01*
X105532725Y-107426894D01*
X105563853Y-107464823D01*
X105566823Y-107468828D01*
X105594083Y-107509627D01*
X105596645Y-107513901D01*
X105619776Y-107557174D01*
X105621908Y-107561682D01*
X105640685Y-107607015D01*
X105642364Y-107611708D01*
X105656608Y-107658663D01*
X105657820Y-107663500D01*
X105667392Y-107711625D01*
X105668123Y-107716555D01*
X105672933Y-107765386D01*
X105673178Y-107770366D01*
X105673178Y-107788787D01*
X105673780Y-107794900D01*
X105673780Y-109044900D01*
X105672804Y-109054811D01*
X105672804Y-109054811D01*
G37*
D11*
X100330000Y-108419900D03*
D12*
G36*
X100879824Y-109054811D02*
G01*
X100876933Y-109064340D01*
X100872239Y-109073123D01*
X100865921Y-109080821D01*
X100858223Y-109087139D01*
X100849440Y-109091833D01*
X100839911Y-109094724D01*
X100830000Y-109095700D01*
X99830000Y-109095700D01*
X99820089Y-109094724D01*
X99810560Y-109091833D01*
X99801777Y-109087139D01*
X99794079Y-109080821D01*
X99787761Y-109073123D01*
X99783067Y-109064340D01*
X99780176Y-109054811D01*
X99779200Y-109044900D01*
X99779200Y-107794900D01*
X99779802Y-107788787D01*
X99779802Y-107770366D01*
X99780047Y-107765386D01*
X99784857Y-107716555D01*
X99785588Y-107711625D01*
X99795160Y-107663500D01*
X99796372Y-107658663D01*
X99810616Y-107611708D01*
X99812295Y-107607015D01*
X99831072Y-107561682D01*
X99833204Y-107557174D01*
X99856335Y-107513901D01*
X99858897Y-107509627D01*
X99886157Y-107468828D01*
X99889127Y-107464823D01*
X99920255Y-107426894D01*
X99923603Y-107423200D01*
X99958300Y-107388503D01*
X99961994Y-107385155D01*
X99999923Y-107354027D01*
X100003928Y-107351057D01*
X100044727Y-107323797D01*
X100049001Y-107321235D01*
X100092274Y-107298104D01*
X100096782Y-107295972D01*
X100142115Y-107277195D01*
X100146808Y-107275516D01*
X100193763Y-107261272D01*
X100198600Y-107260060D01*
X100246725Y-107250488D01*
X100251655Y-107249757D01*
X100300486Y-107244947D01*
X100305466Y-107244702D01*
X100354534Y-107244702D01*
X100359514Y-107244947D01*
X100408345Y-107249757D01*
X100413275Y-107250488D01*
X100461400Y-107260060D01*
X100466237Y-107261272D01*
X100513192Y-107275516D01*
X100517885Y-107277195D01*
X100563218Y-107295972D01*
X100567726Y-107298104D01*
X100610999Y-107321235D01*
X100615273Y-107323797D01*
X100656072Y-107351057D01*
X100660077Y-107354027D01*
X100698006Y-107385155D01*
X100701700Y-107388503D01*
X100736397Y-107423200D01*
X100739745Y-107426894D01*
X100770873Y-107464823D01*
X100773843Y-107468828D01*
X100801103Y-107509627D01*
X100803665Y-107513901D01*
X100826796Y-107557174D01*
X100828928Y-107561682D01*
X100847705Y-107607015D01*
X100849384Y-107611708D01*
X100863628Y-107658663D01*
X100864840Y-107663500D01*
X100874412Y-107711625D01*
X100875143Y-107716555D01*
X100879953Y-107765386D01*
X100880198Y-107770366D01*
X100880198Y-107788787D01*
X100880800Y-107794900D01*
X100880800Y-109044900D01*
X100879824Y-109054811D01*
X100879824Y-109054811D01*
G37*
D13*
X101036800Y-102622800D03*
X101036800Y-102122800D03*
X101036800Y-101622800D03*
X101036800Y-101122800D03*
X101036800Y-100622800D03*
X101036800Y-100122800D03*
X101036800Y-99622800D03*
X101036800Y-99122800D03*
X101036800Y-98622800D03*
X101036800Y-98122800D03*
X101036800Y-97622800D03*
X101036800Y-97122800D03*
D14*
X100336800Y-96422800D03*
X99836800Y-96422800D03*
X99336800Y-96422800D03*
X98836800Y-96422800D03*
X98336800Y-96422800D03*
X97836800Y-96422800D03*
X97336800Y-96422800D03*
X96836800Y-96422800D03*
X96336800Y-96422800D03*
X95836800Y-96422800D03*
X95336800Y-96422800D03*
X94836800Y-96422800D03*
D13*
X94136800Y-97122800D03*
X94136800Y-97622800D03*
X94136800Y-98122800D03*
X94136800Y-98622800D03*
X94136800Y-99122800D03*
X94136800Y-99622800D03*
X94136800Y-100122800D03*
X94136800Y-100622800D03*
X94136800Y-101122800D03*
X94136800Y-101622800D03*
X94136800Y-102122800D03*
X94136800Y-102622800D03*
D14*
X94836800Y-103322800D03*
X95336800Y-103322800D03*
X95836800Y-103322800D03*
X96336800Y-103322800D03*
X96836800Y-103322800D03*
X97336800Y-103322800D03*
X97836800Y-103322800D03*
X98336800Y-103322800D03*
X98836800Y-103322800D03*
X99336800Y-103322800D03*
X99836800Y-103322800D03*
X100336800Y-103322800D03*
D15*
X97586800Y-99872800D03*
D16*
X113944400Y-79248000D03*
D17*
X84900000Y-92279400D03*
X86900000Y-92279400D03*
X88900000Y-92279400D03*
X90900000Y-92279400D03*
X92900000Y-92279400D03*
X94900000Y-92279400D03*
X96900000Y-92279400D03*
X98900000Y-92279400D03*
X98900000Y-76479400D03*
X96900000Y-76479400D03*
X94900000Y-76479400D03*
X92900000Y-76479400D03*
X90900000Y-76479400D03*
X88900000Y-76479400D03*
X86900000Y-76479400D03*
X84900000Y-76479400D03*
D16*
X119894400Y-85198000D03*
X119894400Y-79248000D03*
X113944400Y-85198000D03*
D18*
X106865800Y-96041400D03*
X107365800Y-96041400D03*
X107865800Y-96041400D03*
D19*
X108627800Y-96303400D03*
X108627800Y-96803400D03*
X108627800Y-97303400D03*
X108627800Y-97803400D03*
D18*
X107865800Y-98065400D03*
X107365800Y-98065400D03*
X106865800Y-98065400D03*
D19*
X106103800Y-97803400D03*
X106103800Y-97303400D03*
X106103800Y-96803400D03*
X106103800Y-96303400D03*
D12*
G36*
X84164992Y-101021045D02*
G01*
X84182019Y-101023570D01*
X84198716Y-101027753D01*
X84214923Y-101033552D01*
X84230483Y-101040911D01*
X84245247Y-101049760D01*
X84259073Y-101060014D01*
X84271827Y-101071573D01*
X84283386Y-101084327D01*
X84293640Y-101098153D01*
X84302489Y-101112917D01*
X84309848Y-101128477D01*
X84315647Y-101144684D01*
X84319830Y-101161381D01*
X84322355Y-101178408D01*
X84323200Y-101195600D01*
X84323200Y-102696400D01*
X84322355Y-102713592D01*
X84319830Y-102730619D01*
X84315647Y-102747316D01*
X84309848Y-102763523D01*
X84302489Y-102779083D01*
X84293640Y-102793847D01*
X84283386Y-102807673D01*
X84271827Y-102820427D01*
X84259073Y-102831986D01*
X84245247Y-102842240D01*
X84230483Y-102851089D01*
X84214923Y-102858448D01*
X84198716Y-102864247D01*
X84182019Y-102868430D01*
X84164992Y-102870955D01*
X84147800Y-102871800D01*
X83797000Y-102871800D01*
X83779808Y-102870955D01*
X83762781Y-102868430D01*
X83746084Y-102864247D01*
X83729877Y-102858448D01*
X83714317Y-102851089D01*
X83699553Y-102842240D01*
X83685727Y-102831986D01*
X83672973Y-102820427D01*
X83661414Y-102807673D01*
X83651160Y-102793847D01*
X83642311Y-102779083D01*
X83634952Y-102763523D01*
X83629153Y-102747316D01*
X83624970Y-102730619D01*
X83622445Y-102713592D01*
X83621600Y-102696400D01*
X83621600Y-101195600D01*
X83622445Y-101178408D01*
X83624970Y-101161381D01*
X83629153Y-101144684D01*
X83634952Y-101128477D01*
X83642311Y-101112917D01*
X83651160Y-101098153D01*
X83661414Y-101084327D01*
X83672973Y-101071573D01*
X83685727Y-101060014D01*
X83699553Y-101049760D01*
X83714317Y-101040911D01*
X83729877Y-101033552D01*
X83746084Y-101027753D01*
X83762781Y-101023570D01*
X83779808Y-101021045D01*
X83797000Y-101020200D01*
X84147800Y-101020200D01*
X84164992Y-101021045D01*
X84164992Y-101021045D01*
G37*
D20*
X83972400Y-101946000D03*
D12*
G36*
X85434992Y-101021045D02*
G01*
X85452019Y-101023570D01*
X85468716Y-101027753D01*
X85484923Y-101033552D01*
X85500483Y-101040911D01*
X85515247Y-101049760D01*
X85529073Y-101060014D01*
X85541827Y-101071573D01*
X85553386Y-101084327D01*
X85563640Y-101098153D01*
X85572489Y-101112917D01*
X85579848Y-101128477D01*
X85585647Y-101144684D01*
X85589830Y-101161381D01*
X85592355Y-101178408D01*
X85593200Y-101195600D01*
X85593200Y-102696400D01*
X85592355Y-102713592D01*
X85589830Y-102730619D01*
X85585647Y-102747316D01*
X85579848Y-102763523D01*
X85572489Y-102779083D01*
X85563640Y-102793847D01*
X85553386Y-102807673D01*
X85541827Y-102820427D01*
X85529073Y-102831986D01*
X85515247Y-102842240D01*
X85500483Y-102851089D01*
X85484923Y-102858448D01*
X85468716Y-102864247D01*
X85452019Y-102868430D01*
X85434992Y-102870955D01*
X85417800Y-102871800D01*
X85067000Y-102871800D01*
X85049808Y-102870955D01*
X85032781Y-102868430D01*
X85016084Y-102864247D01*
X84999877Y-102858448D01*
X84984317Y-102851089D01*
X84969553Y-102842240D01*
X84955727Y-102831986D01*
X84942973Y-102820427D01*
X84931414Y-102807673D01*
X84921160Y-102793847D01*
X84912311Y-102779083D01*
X84904952Y-102763523D01*
X84899153Y-102747316D01*
X84894970Y-102730619D01*
X84892445Y-102713592D01*
X84891600Y-102696400D01*
X84891600Y-101195600D01*
X84892445Y-101178408D01*
X84894970Y-101161381D01*
X84899153Y-101144684D01*
X84904952Y-101128477D01*
X84912311Y-101112917D01*
X84921160Y-101098153D01*
X84931414Y-101084327D01*
X84942973Y-101071573D01*
X84955727Y-101060014D01*
X84969553Y-101049760D01*
X84984317Y-101040911D01*
X84999877Y-101033552D01*
X85016084Y-101027753D01*
X85032781Y-101023570D01*
X85049808Y-101021045D01*
X85067000Y-101020200D01*
X85417800Y-101020200D01*
X85434992Y-101021045D01*
X85434992Y-101021045D01*
G37*
D20*
X85242400Y-101946000D03*
D12*
G36*
X86704992Y-101021045D02*
G01*
X86722019Y-101023570D01*
X86738716Y-101027753D01*
X86754923Y-101033552D01*
X86770483Y-101040911D01*
X86785247Y-101049760D01*
X86799073Y-101060014D01*
X86811827Y-101071573D01*
X86823386Y-101084327D01*
X86833640Y-101098153D01*
X86842489Y-101112917D01*
X86849848Y-101128477D01*
X86855647Y-101144684D01*
X86859830Y-101161381D01*
X86862355Y-101178408D01*
X86863200Y-101195600D01*
X86863200Y-102696400D01*
X86862355Y-102713592D01*
X86859830Y-102730619D01*
X86855647Y-102747316D01*
X86849848Y-102763523D01*
X86842489Y-102779083D01*
X86833640Y-102793847D01*
X86823386Y-102807673D01*
X86811827Y-102820427D01*
X86799073Y-102831986D01*
X86785247Y-102842240D01*
X86770483Y-102851089D01*
X86754923Y-102858448D01*
X86738716Y-102864247D01*
X86722019Y-102868430D01*
X86704992Y-102870955D01*
X86687800Y-102871800D01*
X86337000Y-102871800D01*
X86319808Y-102870955D01*
X86302781Y-102868430D01*
X86286084Y-102864247D01*
X86269877Y-102858448D01*
X86254317Y-102851089D01*
X86239553Y-102842240D01*
X86225727Y-102831986D01*
X86212973Y-102820427D01*
X86201414Y-102807673D01*
X86191160Y-102793847D01*
X86182311Y-102779083D01*
X86174952Y-102763523D01*
X86169153Y-102747316D01*
X86164970Y-102730619D01*
X86162445Y-102713592D01*
X86161600Y-102696400D01*
X86161600Y-101195600D01*
X86162445Y-101178408D01*
X86164970Y-101161381D01*
X86169153Y-101144684D01*
X86174952Y-101128477D01*
X86182311Y-101112917D01*
X86191160Y-101098153D01*
X86201414Y-101084327D01*
X86212973Y-101071573D01*
X86225727Y-101060014D01*
X86239553Y-101049760D01*
X86254317Y-101040911D01*
X86269877Y-101033552D01*
X86286084Y-101027753D01*
X86302781Y-101023570D01*
X86319808Y-101021045D01*
X86337000Y-101020200D01*
X86687800Y-101020200D01*
X86704992Y-101021045D01*
X86704992Y-101021045D01*
G37*
D20*
X86512400Y-101946000D03*
D12*
G36*
X87974992Y-101021045D02*
G01*
X87992019Y-101023570D01*
X88008716Y-101027753D01*
X88024923Y-101033552D01*
X88040483Y-101040911D01*
X88055247Y-101049760D01*
X88069073Y-101060014D01*
X88081827Y-101071573D01*
X88093386Y-101084327D01*
X88103640Y-101098153D01*
X88112489Y-101112917D01*
X88119848Y-101128477D01*
X88125647Y-101144684D01*
X88129830Y-101161381D01*
X88132355Y-101178408D01*
X88133200Y-101195600D01*
X88133200Y-102696400D01*
X88132355Y-102713592D01*
X88129830Y-102730619D01*
X88125647Y-102747316D01*
X88119848Y-102763523D01*
X88112489Y-102779083D01*
X88103640Y-102793847D01*
X88093386Y-102807673D01*
X88081827Y-102820427D01*
X88069073Y-102831986D01*
X88055247Y-102842240D01*
X88040483Y-102851089D01*
X88024923Y-102858448D01*
X88008716Y-102864247D01*
X87992019Y-102868430D01*
X87974992Y-102870955D01*
X87957800Y-102871800D01*
X87607000Y-102871800D01*
X87589808Y-102870955D01*
X87572781Y-102868430D01*
X87556084Y-102864247D01*
X87539877Y-102858448D01*
X87524317Y-102851089D01*
X87509553Y-102842240D01*
X87495727Y-102831986D01*
X87482973Y-102820427D01*
X87471414Y-102807673D01*
X87461160Y-102793847D01*
X87452311Y-102779083D01*
X87444952Y-102763523D01*
X87439153Y-102747316D01*
X87434970Y-102730619D01*
X87432445Y-102713592D01*
X87431600Y-102696400D01*
X87431600Y-101195600D01*
X87432445Y-101178408D01*
X87434970Y-101161381D01*
X87439153Y-101144684D01*
X87444952Y-101128477D01*
X87452311Y-101112917D01*
X87461160Y-101098153D01*
X87471414Y-101084327D01*
X87482973Y-101071573D01*
X87495727Y-101060014D01*
X87509553Y-101049760D01*
X87524317Y-101040911D01*
X87539877Y-101033552D01*
X87556084Y-101027753D01*
X87572781Y-101023570D01*
X87589808Y-101021045D01*
X87607000Y-101020200D01*
X87957800Y-101020200D01*
X87974992Y-101021045D01*
X87974992Y-101021045D01*
G37*
D20*
X87782400Y-101946000D03*
D12*
G36*
X87974992Y-106171045D02*
G01*
X87992019Y-106173570D01*
X88008716Y-106177753D01*
X88024923Y-106183552D01*
X88040483Y-106190911D01*
X88055247Y-106199760D01*
X88069073Y-106210014D01*
X88081827Y-106221573D01*
X88093386Y-106234327D01*
X88103640Y-106248153D01*
X88112489Y-106262917D01*
X88119848Y-106278477D01*
X88125647Y-106294684D01*
X88129830Y-106311381D01*
X88132355Y-106328408D01*
X88133200Y-106345600D01*
X88133200Y-107846400D01*
X88132355Y-107863592D01*
X88129830Y-107880619D01*
X88125647Y-107897316D01*
X88119848Y-107913523D01*
X88112489Y-107929083D01*
X88103640Y-107943847D01*
X88093386Y-107957673D01*
X88081827Y-107970427D01*
X88069073Y-107981986D01*
X88055247Y-107992240D01*
X88040483Y-108001089D01*
X88024923Y-108008448D01*
X88008716Y-108014247D01*
X87992019Y-108018430D01*
X87974992Y-108020955D01*
X87957800Y-108021800D01*
X87607000Y-108021800D01*
X87589808Y-108020955D01*
X87572781Y-108018430D01*
X87556084Y-108014247D01*
X87539877Y-108008448D01*
X87524317Y-108001089D01*
X87509553Y-107992240D01*
X87495727Y-107981986D01*
X87482973Y-107970427D01*
X87471414Y-107957673D01*
X87461160Y-107943847D01*
X87452311Y-107929083D01*
X87444952Y-107913523D01*
X87439153Y-107897316D01*
X87434970Y-107880619D01*
X87432445Y-107863592D01*
X87431600Y-107846400D01*
X87431600Y-106345600D01*
X87432445Y-106328408D01*
X87434970Y-106311381D01*
X87439153Y-106294684D01*
X87444952Y-106278477D01*
X87452311Y-106262917D01*
X87461160Y-106248153D01*
X87471414Y-106234327D01*
X87482973Y-106221573D01*
X87495727Y-106210014D01*
X87509553Y-106199760D01*
X87524317Y-106190911D01*
X87539877Y-106183552D01*
X87556084Y-106177753D01*
X87572781Y-106173570D01*
X87589808Y-106171045D01*
X87607000Y-106170200D01*
X87957800Y-106170200D01*
X87974992Y-106171045D01*
X87974992Y-106171045D01*
G37*
D20*
X87782400Y-107096000D03*
D12*
G36*
X86704992Y-106171045D02*
G01*
X86722019Y-106173570D01*
X86738716Y-106177753D01*
X86754923Y-106183552D01*
X86770483Y-106190911D01*
X86785247Y-106199760D01*
X86799073Y-106210014D01*
X86811827Y-106221573D01*
X86823386Y-106234327D01*
X86833640Y-106248153D01*
X86842489Y-106262917D01*
X86849848Y-106278477D01*
X86855647Y-106294684D01*
X86859830Y-106311381D01*
X86862355Y-106328408D01*
X86863200Y-106345600D01*
X86863200Y-107846400D01*
X86862355Y-107863592D01*
X86859830Y-107880619D01*
X86855647Y-107897316D01*
X86849848Y-107913523D01*
X86842489Y-107929083D01*
X86833640Y-107943847D01*
X86823386Y-107957673D01*
X86811827Y-107970427D01*
X86799073Y-107981986D01*
X86785247Y-107992240D01*
X86770483Y-108001089D01*
X86754923Y-108008448D01*
X86738716Y-108014247D01*
X86722019Y-108018430D01*
X86704992Y-108020955D01*
X86687800Y-108021800D01*
X86337000Y-108021800D01*
X86319808Y-108020955D01*
X86302781Y-108018430D01*
X86286084Y-108014247D01*
X86269877Y-108008448D01*
X86254317Y-108001089D01*
X86239553Y-107992240D01*
X86225727Y-107981986D01*
X86212973Y-107970427D01*
X86201414Y-107957673D01*
X86191160Y-107943847D01*
X86182311Y-107929083D01*
X86174952Y-107913523D01*
X86169153Y-107897316D01*
X86164970Y-107880619D01*
X86162445Y-107863592D01*
X86161600Y-107846400D01*
X86161600Y-106345600D01*
X86162445Y-106328408D01*
X86164970Y-106311381D01*
X86169153Y-106294684D01*
X86174952Y-106278477D01*
X86182311Y-106262917D01*
X86191160Y-106248153D01*
X86201414Y-106234327D01*
X86212973Y-106221573D01*
X86225727Y-106210014D01*
X86239553Y-106199760D01*
X86254317Y-106190911D01*
X86269877Y-106183552D01*
X86286084Y-106177753D01*
X86302781Y-106173570D01*
X86319808Y-106171045D01*
X86337000Y-106170200D01*
X86687800Y-106170200D01*
X86704992Y-106171045D01*
X86704992Y-106171045D01*
G37*
D20*
X86512400Y-107096000D03*
D12*
G36*
X85434992Y-106171045D02*
G01*
X85452019Y-106173570D01*
X85468716Y-106177753D01*
X85484923Y-106183552D01*
X85500483Y-106190911D01*
X85515247Y-106199760D01*
X85529073Y-106210014D01*
X85541827Y-106221573D01*
X85553386Y-106234327D01*
X85563640Y-106248153D01*
X85572489Y-106262917D01*
X85579848Y-106278477D01*
X85585647Y-106294684D01*
X85589830Y-106311381D01*
X85592355Y-106328408D01*
X85593200Y-106345600D01*
X85593200Y-107846400D01*
X85592355Y-107863592D01*
X85589830Y-107880619D01*
X85585647Y-107897316D01*
X85579848Y-107913523D01*
X85572489Y-107929083D01*
X85563640Y-107943847D01*
X85553386Y-107957673D01*
X85541827Y-107970427D01*
X85529073Y-107981986D01*
X85515247Y-107992240D01*
X85500483Y-108001089D01*
X85484923Y-108008448D01*
X85468716Y-108014247D01*
X85452019Y-108018430D01*
X85434992Y-108020955D01*
X85417800Y-108021800D01*
X85067000Y-108021800D01*
X85049808Y-108020955D01*
X85032781Y-108018430D01*
X85016084Y-108014247D01*
X84999877Y-108008448D01*
X84984317Y-108001089D01*
X84969553Y-107992240D01*
X84955727Y-107981986D01*
X84942973Y-107970427D01*
X84931414Y-107957673D01*
X84921160Y-107943847D01*
X84912311Y-107929083D01*
X84904952Y-107913523D01*
X84899153Y-107897316D01*
X84894970Y-107880619D01*
X84892445Y-107863592D01*
X84891600Y-107846400D01*
X84891600Y-106345600D01*
X84892445Y-106328408D01*
X84894970Y-106311381D01*
X84899153Y-106294684D01*
X84904952Y-106278477D01*
X84912311Y-106262917D01*
X84921160Y-106248153D01*
X84931414Y-106234327D01*
X84942973Y-106221573D01*
X84955727Y-106210014D01*
X84969553Y-106199760D01*
X84984317Y-106190911D01*
X84999877Y-106183552D01*
X85016084Y-106177753D01*
X85032781Y-106173570D01*
X85049808Y-106171045D01*
X85067000Y-106170200D01*
X85417800Y-106170200D01*
X85434992Y-106171045D01*
X85434992Y-106171045D01*
G37*
D20*
X85242400Y-107096000D03*
D12*
G36*
X84164992Y-106171045D02*
G01*
X84182019Y-106173570D01*
X84198716Y-106177753D01*
X84214923Y-106183552D01*
X84230483Y-106190911D01*
X84245247Y-106199760D01*
X84259073Y-106210014D01*
X84271827Y-106221573D01*
X84283386Y-106234327D01*
X84293640Y-106248153D01*
X84302489Y-106262917D01*
X84309848Y-106278477D01*
X84315647Y-106294684D01*
X84319830Y-106311381D01*
X84322355Y-106328408D01*
X84323200Y-106345600D01*
X84323200Y-107846400D01*
X84322355Y-107863592D01*
X84319830Y-107880619D01*
X84315647Y-107897316D01*
X84309848Y-107913523D01*
X84302489Y-107929083D01*
X84293640Y-107943847D01*
X84283386Y-107957673D01*
X84271827Y-107970427D01*
X84259073Y-107981986D01*
X84245247Y-107992240D01*
X84230483Y-108001089D01*
X84214923Y-108008448D01*
X84198716Y-108014247D01*
X84182019Y-108018430D01*
X84164992Y-108020955D01*
X84147800Y-108021800D01*
X83797000Y-108021800D01*
X83779808Y-108020955D01*
X83762781Y-108018430D01*
X83746084Y-108014247D01*
X83729877Y-108008448D01*
X83714317Y-108001089D01*
X83699553Y-107992240D01*
X83685727Y-107981986D01*
X83672973Y-107970427D01*
X83661414Y-107957673D01*
X83651160Y-107943847D01*
X83642311Y-107929083D01*
X83634952Y-107913523D01*
X83629153Y-107897316D01*
X83624970Y-107880619D01*
X83622445Y-107863592D01*
X83621600Y-107846400D01*
X83621600Y-106345600D01*
X83622445Y-106328408D01*
X83624970Y-106311381D01*
X83629153Y-106294684D01*
X83634952Y-106278477D01*
X83642311Y-106262917D01*
X83651160Y-106248153D01*
X83661414Y-106234327D01*
X83672973Y-106221573D01*
X83685727Y-106210014D01*
X83699553Y-106199760D01*
X83714317Y-106190911D01*
X83729877Y-106183552D01*
X83746084Y-106177753D01*
X83762781Y-106173570D01*
X83779808Y-106171045D01*
X83797000Y-106170200D01*
X84147800Y-106170200D01*
X84164992Y-106171045D01*
X84164992Y-106171045D01*
G37*
D20*
X83972400Y-107096000D03*
D12*
G36*
X92795847Y-104760633D02*
G01*
X92812631Y-104763122D01*
X92829090Y-104767245D01*
X92845066Y-104772961D01*
X92860404Y-104780216D01*
X92874958Y-104788939D01*
X92888587Y-104799046D01*
X92901159Y-104810441D01*
X92912554Y-104823013D01*
X92922661Y-104836642D01*
X92931384Y-104851196D01*
X92938639Y-104866534D01*
X92944355Y-104882510D01*
X92948478Y-104898969D01*
X92950967Y-104915753D01*
X92951800Y-104932700D01*
X92951800Y-105328500D01*
X92950967Y-105345447D01*
X92948478Y-105362231D01*
X92944355Y-105378690D01*
X92938639Y-105394666D01*
X92931384Y-105410004D01*
X92922661Y-105424558D01*
X92912554Y-105438187D01*
X92901159Y-105450759D01*
X92888587Y-105462154D01*
X92874958Y-105472261D01*
X92860404Y-105480984D01*
X92845066Y-105488239D01*
X92829090Y-105493955D01*
X92812631Y-105498078D01*
X92795847Y-105500567D01*
X92778900Y-105501400D01*
X92433100Y-105501400D01*
X92416153Y-105500567D01*
X92399369Y-105498078D01*
X92382910Y-105493955D01*
X92366934Y-105488239D01*
X92351596Y-105480984D01*
X92337042Y-105472261D01*
X92323413Y-105462154D01*
X92310841Y-105450759D01*
X92299446Y-105438187D01*
X92289339Y-105424558D01*
X92280616Y-105410004D01*
X92273361Y-105394666D01*
X92267645Y-105378690D01*
X92263522Y-105362231D01*
X92261033Y-105345447D01*
X92260200Y-105328500D01*
X92260200Y-104932700D01*
X92261033Y-104915753D01*
X92263522Y-104898969D01*
X92267645Y-104882510D01*
X92273361Y-104866534D01*
X92280616Y-104851196D01*
X92289339Y-104836642D01*
X92299446Y-104823013D01*
X92310841Y-104810441D01*
X92323413Y-104799046D01*
X92337042Y-104788939D01*
X92351596Y-104780216D01*
X92366934Y-104772961D01*
X92382910Y-104767245D01*
X92399369Y-104763122D01*
X92416153Y-104760633D01*
X92433100Y-104759800D01*
X92778900Y-104759800D01*
X92795847Y-104760633D01*
X92795847Y-104760633D01*
G37*
D21*
X92606000Y-105130600D03*
D12*
G36*
X93765847Y-104760633D02*
G01*
X93782631Y-104763122D01*
X93799090Y-104767245D01*
X93815066Y-104772961D01*
X93830404Y-104780216D01*
X93844958Y-104788939D01*
X93858587Y-104799046D01*
X93871159Y-104810441D01*
X93882554Y-104823013D01*
X93892661Y-104836642D01*
X93901384Y-104851196D01*
X93908639Y-104866534D01*
X93914355Y-104882510D01*
X93918478Y-104898969D01*
X93920967Y-104915753D01*
X93921800Y-104932700D01*
X93921800Y-105328500D01*
X93920967Y-105345447D01*
X93918478Y-105362231D01*
X93914355Y-105378690D01*
X93908639Y-105394666D01*
X93901384Y-105410004D01*
X93892661Y-105424558D01*
X93882554Y-105438187D01*
X93871159Y-105450759D01*
X93858587Y-105462154D01*
X93844958Y-105472261D01*
X93830404Y-105480984D01*
X93815066Y-105488239D01*
X93799090Y-105493955D01*
X93782631Y-105498078D01*
X93765847Y-105500567D01*
X93748900Y-105501400D01*
X93403100Y-105501400D01*
X93386153Y-105500567D01*
X93369369Y-105498078D01*
X93352910Y-105493955D01*
X93336934Y-105488239D01*
X93321596Y-105480984D01*
X93307042Y-105472261D01*
X93293413Y-105462154D01*
X93280841Y-105450759D01*
X93269446Y-105438187D01*
X93259339Y-105424558D01*
X93250616Y-105410004D01*
X93243361Y-105394666D01*
X93237645Y-105378690D01*
X93233522Y-105362231D01*
X93231033Y-105345447D01*
X93230200Y-105328500D01*
X93230200Y-104932700D01*
X93231033Y-104915753D01*
X93233522Y-104898969D01*
X93237645Y-104882510D01*
X93243361Y-104866534D01*
X93250616Y-104851196D01*
X93259339Y-104836642D01*
X93269446Y-104823013D01*
X93280841Y-104810441D01*
X93293413Y-104799046D01*
X93307042Y-104788939D01*
X93321596Y-104780216D01*
X93336934Y-104772961D01*
X93352910Y-104767245D01*
X93369369Y-104763122D01*
X93386153Y-104760633D01*
X93403100Y-104759800D01*
X93748900Y-104759800D01*
X93765847Y-104760633D01*
X93765847Y-104760633D01*
G37*
D21*
X93576000Y-105130600D03*
D12*
G36*
X103794047Y-100849033D02*
G01*
X103810831Y-100851522D01*
X103827290Y-100855645D01*
X103843266Y-100861361D01*
X103858604Y-100868616D01*
X103873158Y-100877339D01*
X103886787Y-100887446D01*
X103899359Y-100898841D01*
X103910754Y-100911413D01*
X103920861Y-100925042D01*
X103929584Y-100939596D01*
X103936839Y-100954934D01*
X103942555Y-100970910D01*
X103946678Y-100987369D01*
X103949167Y-101004153D01*
X103950000Y-101021100D01*
X103950000Y-101416900D01*
X103949167Y-101433847D01*
X103946678Y-101450631D01*
X103942555Y-101467090D01*
X103936839Y-101483066D01*
X103929584Y-101498404D01*
X103920861Y-101512958D01*
X103910754Y-101526587D01*
X103899359Y-101539159D01*
X103886787Y-101550554D01*
X103873158Y-101560661D01*
X103858604Y-101569384D01*
X103843266Y-101576639D01*
X103827290Y-101582355D01*
X103810831Y-101586478D01*
X103794047Y-101588967D01*
X103777100Y-101589800D01*
X103431300Y-101589800D01*
X103414353Y-101588967D01*
X103397569Y-101586478D01*
X103381110Y-101582355D01*
X103365134Y-101576639D01*
X103349796Y-101569384D01*
X103335242Y-101560661D01*
X103321613Y-101550554D01*
X103309041Y-101539159D01*
X103297646Y-101526587D01*
X103287539Y-101512958D01*
X103278816Y-101498404D01*
X103271561Y-101483066D01*
X103265845Y-101467090D01*
X103261722Y-101450631D01*
X103259233Y-101433847D01*
X103258400Y-101416900D01*
X103258400Y-101021100D01*
X103259233Y-101004153D01*
X103261722Y-100987369D01*
X103265845Y-100970910D01*
X103271561Y-100954934D01*
X103278816Y-100939596D01*
X103287539Y-100925042D01*
X103297646Y-100911413D01*
X103309041Y-100898841D01*
X103321613Y-100887446D01*
X103335242Y-100877339D01*
X103349796Y-100868616D01*
X103365134Y-100861361D01*
X103381110Y-100855645D01*
X103397569Y-100851522D01*
X103414353Y-100849033D01*
X103431300Y-100848200D01*
X103777100Y-100848200D01*
X103794047Y-100849033D01*
X103794047Y-100849033D01*
G37*
D21*
X103604200Y-101219000D03*
D12*
G36*
X104764047Y-100849033D02*
G01*
X104780831Y-100851522D01*
X104797290Y-100855645D01*
X104813266Y-100861361D01*
X104828604Y-100868616D01*
X104843158Y-100877339D01*
X104856787Y-100887446D01*
X104869359Y-100898841D01*
X104880754Y-100911413D01*
X104890861Y-100925042D01*
X104899584Y-100939596D01*
X104906839Y-100954934D01*
X104912555Y-100970910D01*
X104916678Y-100987369D01*
X104919167Y-101004153D01*
X104920000Y-101021100D01*
X104920000Y-101416900D01*
X104919167Y-101433847D01*
X104916678Y-101450631D01*
X104912555Y-101467090D01*
X104906839Y-101483066D01*
X104899584Y-101498404D01*
X104890861Y-101512958D01*
X104880754Y-101526587D01*
X104869359Y-101539159D01*
X104856787Y-101550554D01*
X104843158Y-101560661D01*
X104828604Y-101569384D01*
X104813266Y-101576639D01*
X104797290Y-101582355D01*
X104780831Y-101586478D01*
X104764047Y-101588967D01*
X104747100Y-101589800D01*
X104401300Y-101589800D01*
X104384353Y-101588967D01*
X104367569Y-101586478D01*
X104351110Y-101582355D01*
X104335134Y-101576639D01*
X104319796Y-101569384D01*
X104305242Y-101560661D01*
X104291613Y-101550554D01*
X104279041Y-101539159D01*
X104267646Y-101526587D01*
X104257539Y-101512958D01*
X104248816Y-101498404D01*
X104241561Y-101483066D01*
X104235845Y-101467090D01*
X104231722Y-101450631D01*
X104229233Y-101433847D01*
X104228400Y-101416900D01*
X104228400Y-101021100D01*
X104229233Y-101004153D01*
X104231722Y-100987369D01*
X104235845Y-100970910D01*
X104241561Y-100954934D01*
X104248816Y-100939596D01*
X104257539Y-100925042D01*
X104267646Y-100911413D01*
X104279041Y-100898841D01*
X104291613Y-100887446D01*
X104305242Y-100877339D01*
X104319796Y-100868616D01*
X104335134Y-100861361D01*
X104351110Y-100855645D01*
X104367569Y-100851522D01*
X104384353Y-100849033D01*
X104401300Y-100848200D01*
X104747100Y-100848200D01*
X104764047Y-100849033D01*
X104764047Y-100849033D01*
G37*
D21*
X104574200Y-101219000D03*
D12*
G36*
X107781847Y-101534833D02*
G01*
X107798631Y-101537322D01*
X107815090Y-101541445D01*
X107831066Y-101547161D01*
X107846404Y-101554416D01*
X107860958Y-101563139D01*
X107874587Y-101573246D01*
X107887159Y-101584641D01*
X107898554Y-101597213D01*
X107908661Y-101610842D01*
X107917384Y-101625396D01*
X107924639Y-101640734D01*
X107930355Y-101656710D01*
X107934478Y-101673169D01*
X107936967Y-101689953D01*
X107937800Y-101706900D01*
X107937800Y-102102700D01*
X107936967Y-102119647D01*
X107934478Y-102136431D01*
X107930355Y-102152890D01*
X107924639Y-102168866D01*
X107917384Y-102184204D01*
X107908661Y-102198758D01*
X107898554Y-102212387D01*
X107887159Y-102224959D01*
X107874587Y-102236354D01*
X107860958Y-102246461D01*
X107846404Y-102255184D01*
X107831066Y-102262439D01*
X107815090Y-102268155D01*
X107798631Y-102272278D01*
X107781847Y-102274767D01*
X107764900Y-102275600D01*
X107419100Y-102275600D01*
X107402153Y-102274767D01*
X107385369Y-102272278D01*
X107368910Y-102268155D01*
X107352934Y-102262439D01*
X107337596Y-102255184D01*
X107323042Y-102246461D01*
X107309413Y-102236354D01*
X107296841Y-102224959D01*
X107285446Y-102212387D01*
X107275339Y-102198758D01*
X107266616Y-102184204D01*
X107259361Y-102168866D01*
X107253645Y-102152890D01*
X107249522Y-102136431D01*
X107247033Y-102119647D01*
X107246200Y-102102700D01*
X107246200Y-101706900D01*
X107247033Y-101689953D01*
X107249522Y-101673169D01*
X107253645Y-101656710D01*
X107259361Y-101640734D01*
X107266616Y-101625396D01*
X107275339Y-101610842D01*
X107285446Y-101597213D01*
X107296841Y-101584641D01*
X107309413Y-101573246D01*
X107323042Y-101563139D01*
X107337596Y-101554416D01*
X107352934Y-101547161D01*
X107368910Y-101541445D01*
X107385369Y-101537322D01*
X107402153Y-101534833D01*
X107419100Y-101534000D01*
X107764900Y-101534000D01*
X107781847Y-101534833D01*
X107781847Y-101534833D01*
G37*
D21*
X107592000Y-101904800D03*
D12*
G36*
X108751847Y-101534833D02*
G01*
X108768631Y-101537322D01*
X108785090Y-101541445D01*
X108801066Y-101547161D01*
X108816404Y-101554416D01*
X108830958Y-101563139D01*
X108844587Y-101573246D01*
X108857159Y-101584641D01*
X108868554Y-101597213D01*
X108878661Y-101610842D01*
X108887384Y-101625396D01*
X108894639Y-101640734D01*
X108900355Y-101656710D01*
X108904478Y-101673169D01*
X108906967Y-101689953D01*
X108907800Y-101706900D01*
X108907800Y-102102700D01*
X108906967Y-102119647D01*
X108904478Y-102136431D01*
X108900355Y-102152890D01*
X108894639Y-102168866D01*
X108887384Y-102184204D01*
X108878661Y-102198758D01*
X108868554Y-102212387D01*
X108857159Y-102224959D01*
X108844587Y-102236354D01*
X108830958Y-102246461D01*
X108816404Y-102255184D01*
X108801066Y-102262439D01*
X108785090Y-102268155D01*
X108768631Y-102272278D01*
X108751847Y-102274767D01*
X108734900Y-102275600D01*
X108389100Y-102275600D01*
X108372153Y-102274767D01*
X108355369Y-102272278D01*
X108338910Y-102268155D01*
X108322934Y-102262439D01*
X108307596Y-102255184D01*
X108293042Y-102246461D01*
X108279413Y-102236354D01*
X108266841Y-102224959D01*
X108255446Y-102212387D01*
X108245339Y-102198758D01*
X108236616Y-102184204D01*
X108229361Y-102168866D01*
X108223645Y-102152890D01*
X108219522Y-102136431D01*
X108217033Y-102119647D01*
X108216200Y-102102700D01*
X108216200Y-101706900D01*
X108217033Y-101689953D01*
X108219522Y-101673169D01*
X108223645Y-101656710D01*
X108229361Y-101640734D01*
X108236616Y-101625396D01*
X108245339Y-101610842D01*
X108255446Y-101597213D01*
X108266841Y-101584641D01*
X108279413Y-101573246D01*
X108293042Y-101563139D01*
X108307596Y-101554416D01*
X108322934Y-101547161D01*
X108338910Y-101541445D01*
X108355369Y-101537322D01*
X108372153Y-101534833D01*
X108389100Y-101534000D01*
X108734900Y-101534000D01*
X108751847Y-101534833D01*
X108751847Y-101534833D01*
G37*
D21*
X108562000Y-101904800D03*
D12*
G36*
X110196847Y-96388533D02*
G01*
X110213631Y-96391022D01*
X110230090Y-96395145D01*
X110246066Y-96400861D01*
X110261404Y-96408116D01*
X110275958Y-96416839D01*
X110289587Y-96426946D01*
X110302159Y-96438341D01*
X110313554Y-96450913D01*
X110323661Y-96464542D01*
X110332384Y-96479096D01*
X110339639Y-96494434D01*
X110345355Y-96510410D01*
X110349478Y-96526869D01*
X110351967Y-96543653D01*
X110352800Y-96560600D01*
X110352800Y-96906400D01*
X110351967Y-96923347D01*
X110349478Y-96940131D01*
X110345355Y-96956590D01*
X110339639Y-96972566D01*
X110332384Y-96987904D01*
X110323661Y-97002458D01*
X110313554Y-97016087D01*
X110302159Y-97028659D01*
X110289587Y-97040054D01*
X110275958Y-97050161D01*
X110261404Y-97058884D01*
X110246066Y-97066139D01*
X110230090Y-97071855D01*
X110213631Y-97075978D01*
X110196847Y-97078467D01*
X110179900Y-97079300D01*
X109784100Y-97079300D01*
X109767153Y-97078467D01*
X109750369Y-97075978D01*
X109733910Y-97071855D01*
X109717934Y-97066139D01*
X109702596Y-97058884D01*
X109688042Y-97050161D01*
X109674413Y-97040054D01*
X109661841Y-97028659D01*
X109650446Y-97016087D01*
X109640339Y-97002458D01*
X109631616Y-96987904D01*
X109624361Y-96972566D01*
X109618645Y-96956590D01*
X109614522Y-96940131D01*
X109612033Y-96923347D01*
X109611200Y-96906400D01*
X109611200Y-96560600D01*
X109612033Y-96543653D01*
X109614522Y-96526869D01*
X109618645Y-96510410D01*
X109624361Y-96494434D01*
X109631616Y-96479096D01*
X109640339Y-96464542D01*
X109650446Y-96450913D01*
X109661841Y-96438341D01*
X109674413Y-96426946D01*
X109688042Y-96416839D01*
X109702596Y-96408116D01*
X109717934Y-96400861D01*
X109733910Y-96395145D01*
X109750369Y-96391022D01*
X109767153Y-96388533D01*
X109784100Y-96387700D01*
X110179900Y-96387700D01*
X110196847Y-96388533D01*
X110196847Y-96388533D01*
G37*
D21*
X109982000Y-96733500D03*
D12*
G36*
X110196847Y-97358533D02*
G01*
X110213631Y-97361022D01*
X110230090Y-97365145D01*
X110246066Y-97370861D01*
X110261404Y-97378116D01*
X110275958Y-97386839D01*
X110289587Y-97396946D01*
X110302159Y-97408341D01*
X110313554Y-97420913D01*
X110323661Y-97434542D01*
X110332384Y-97449096D01*
X110339639Y-97464434D01*
X110345355Y-97480410D01*
X110349478Y-97496869D01*
X110351967Y-97513653D01*
X110352800Y-97530600D01*
X110352800Y-97876400D01*
X110351967Y-97893347D01*
X110349478Y-97910131D01*
X110345355Y-97926590D01*
X110339639Y-97942566D01*
X110332384Y-97957904D01*
X110323661Y-97972458D01*
X110313554Y-97986087D01*
X110302159Y-97998659D01*
X110289587Y-98010054D01*
X110275958Y-98020161D01*
X110261404Y-98028884D01*
X110246066Y-98036139D01*
X110230090Y-98041855D01*
X110213631Y-98045978D01*
X110196847Y-98048467D01*
X110179900Y-98049300D01*
X109784100Y-98049300D01*
X109767153Y-98048467D01*
X109750369Y-98045978D01*
X109733910Y-98041855D01*
X109717934Y-98036139D01*
X109702596Y-98028884D01*
X109688042Y-98020161D01*
X109674413Y-98010054D01*
X109661841Y-97998659D01*
X109650446Y-97986087D01*
X109640339Y-97972458D01*
X109631616Y-97957904D01*
X109624361Y-97942566D01*
X109618645Y-97926590D01*
X109614522Y-97910131D01*
X109612033Y-97893347D01*
X109611200Y-97876400D01*
X109611200Y-97530600D01*
X109612033Y-97513653D01*
X109614522Y-97496869D01*
X109618645Y-97480410D01*
X109624361Y-97464434D01*
X109631616Y-97449096D01*
X109640339Y-97434542D01*
X109650446Y-97420913D01*
X109661841Y-97408341D01*
X109674413Y-97396946D01*
X109688042Y-97386839D01*
X109702596Y-97378116D01*
X109717934Y-97370861D01*
X109733910Y-97365145D01*
X109750369Y-97361022D01*
X109767153Y-97358533D01*
X109784100Y-97357700D01*
X110179900Y-97357700D01*
X110196847Y-97358533D01*
X110196847Y-97358533D01*
G37*
D21*
X109982000Y-97703500D03*
D12*
G36*
X108040647Y-98893233D02*
G01*
X108057431Y-98895722D01*
X108073890Y-98899845D01*
X108089866Y-98905561D01*
X108105204Y-98912816D01*
X108119758Y-98921539D01*
X108133387Y-98931646D01*
X108145959Y-98943041D01*
X108157354Y-98955613D01*
X108167461Y-98969242D01*
X108176184Y-98983796D01*
X108183439Y-98999134D01*
X108189155Y-99015110D01*
X108193278Y-99031569D01*
X108195767Y-99048353D01*
X108196600Y-99065300D01*
X108196600Y-99461100D01*
X108195767Y-99478047D01*
X108193278Y-99494831D01*
X108189155Y-99511290D01*
X108183439Y-99527266D01*
X108176184Y-99542604D01*
X108167461Y-99557158D01*
X108157354Y-99570787D01*
X108145959Y-99583359D01*
X108133387Y-99594754D01*
X108119758Y-99604861D01*
X108105204Y-99613584D01*
X108089866Y-99620839D01*
X108073890Y-99626555D01*
X108057431Y-99630678D01*
X108040647Y-99633167D01*
X108023700Y-99634000D01*
X107677900Y-99634000D01*
X107660953Y-99633167D01*
X107644169Y-99630678D01*
X107627710Y-99626555D01*
X107611734Y-99620839D01*
X107596396Y-99613584D01*
X107581842Y-99604861D01*
X107568213Y-99594754D01*
X107555641Y-99583359D01*
X107544246Y-99570787D01*
X107534139Y-99557158D01*
X107525416Y-99542604D01*
X107518161Y-99527266D01*
X107512445Y-99511290D01*
X107508322Y-99494831D01*
X107505833Y-99478047D01*
X107505000Y-99461100D01*
X107505000Y-99065300D01*
X107505833Y-99048353D01*
X107508322Y-99031569D01*
X107512445Y-99015110D01*
X107518161Y-98999134D01*
X107525416Y-98983796D01*
X107534139Y-98969242D01*
X107544246Y-98955613D01*
X107555641Y-98943041D01*
X107568213Y-98931646D01*
X107581842Y-98921539D01*
X107596396Y-98912816D01*
X107611734Y-98905561D01*
X107627710Y-98899845D01*
X107644169Y-98895722D01*
X107660953Y-98893233D01*
X107677900Y-98892400D01*
X108023700Y-98892400D01*
X108040647Y-98893233D01*
X108040647Y-98893233D01*
G37*
D21*
X107850800Y-99263200D03*
D12*
G36*
X107070647Y-98893233D02*
G01*
X107087431Y-98895722D01*
X107103890Y-98899845D01*
X107119866Y-98905561D01*
X107135204Y-98912816D01*
X107149758Y-98921539D01*
X107163387Y-98931646D01*
X107175959Y-98943041D01*
X107187354Y-98955613D01*
X107197461Y-98969242D01*
X107206184Y-98983796D01*
X107213439Y-98999134D01*
X107219155Y-99015110D01*
X107223278Y-99031569D01*
X107225767Y-99048353D01*
X107226600Y-99065300D01*
X107226600Y-99461100D01*
X107225767Y-99478047D01*
X107223278Y-99494831D01*
X107219155Y-99511290D01*
X107213439Y-99527266D01*
X107206184Y-99542604D01*
X107197461Y-99557158D01*
X107187354Y-99570787D01*
X107175959Y-99583359D01*
X107163387Y-99594754D01*
X107149758Y-99604861D01*
X107135204Y-99613584D01*
X107119866Y-99620839D01*
X107103890Y-99626555D01*
X107087431Y-99630678D01*
X107070647Y-99633167D01*
X107053700Y-99634000D01*
X106707900Y-99634000D01*
X106690953Y-99633167D01*
X106674169Y-99630678D01*
X106657710Y-99626555D01*
X106641734Y-99620839D01*
X106626396Y-99613584D01*
X106611842Y-99604861D01*
X106598213Y-99594754D01*
X106585641Y-99583359D01*
X106574246Y-99570787D01*
X106564139Y-99557158D01*
X106555416Y-99542604D01*
X106548161Y-99527266D01*
X106542445Y-99511290D01*
X106538322Y-99494831D01*
X106535833Y-99478047D01*
X106535000Y-99461100D01*
X106535000Y-99065300D01*
X106535833Y-99048353D01*
X106538322Y-99031569D01*
X106542445Y-99015110D01*
X106548161Y-98999134D01*
X106555416Y-98983796D01*
X106564139Y-98969242D01*
X106574246Y-98955613D01*
X106585641Y-98943041D01*
X106598213Y-98931646D01*
X106611842Y-98921539D01*
X106626396Y-98912816D01*
X106641734Y-98905561D01*
X106657710Y-98899845D01*
X106674169Y-98895722D01*
X106690953Y-98893233D01*
X106707900Y-98892400D01*
X107053700Y-98892400D01*
X107070647Y-98893233D01*
X107070647Y-98893233D01*
G37*
D21*
X106880800Y-99263200D03*
D22*
X109232700Y-107849800D03*
X109232700Y-104849800D03*
D23*
X110707700Y-106349800D03*
X107757700Y-106349800D03*
D22*
X108837600Y-82194400D03*
X111837600Y-82194400D03*
D24*
X110337600Y-83669400D03*
X110337600Y-80719400D03*
D25*
X116447400Y-94042400D03*
X116447400Y-101842400D03*
D26*
X112547400Y-95692400D03*
X112547400Y-96192400D03*
X112547400Y-96692400D03*
X112547400Y-97192400D03*
X112547400Y-97692400D03*
X112547400Y-98192400D03*
X112547400Y-98692400D03*
X112547400Y-99192400D03*
X112547400Y-99692400D03*
X112547400Y-100192400D03*
D27*
X116188200Y-91834800D03*
X101388200Y-91834800D03*
D28*
X114538200Y-87934800D03*
X114038200Y-87934800D03*
X113538200Y-87934800D03*
X113038200Y-87934800D03*
X112538200Y-87934800D03*
X112038200Y-87934800D03*
X111538200Y-87934800D03*
X111038200Y-87934800D03*
X110538200Y-87934800D03*
X110038200Y-87934800D03*
X109538200Y-87934800D03*
X109038200Y-87934800D03*
X108538200Y-87934800D03*
X108038200Y-87934800D03*
X107538200Y-87934800D03*
X107038200Y-87934800D03*
X106538200Y-87934800D03*
X106038200Y-87934800D03*
X105538200Y-87934800D03*
X105038200Y-87934800D03*
X104538200Y-87934800D03*
X104038200Y-87934800D03*
X103538200Y-87934800D03*
X103038200Y-87934800D03*
D12*
G36*
X102960181Y-104504376D02*
G01*
X102983881Y-104507891D01*
X103007123Y-104513713D01*
X103029682Y-104521785D01*
X103051342Y-104532029D01*
X103071892Y-104544347D01*
X103091137Y-104558619D01*
X103108890Y-104574710D01*
X103124981Y-104592463D01*
X103139253Y-104611708D01*
X103151571Y-104632258D01*
X103161815Y-104653918D01*
X103169887Y-104676477D01*
X103175709Y-104699719D01*
X103179224Y-104723419D01*
X103180400Y-104747350D01*
X103180400Y-105310650D01*
X103179224Y-105334581D01*
X103175709Y-105358281D01*
X103169887Y-105381523D01*
X103161815Y-105404082D01*
X103151571Y-105425742D01*
X103139253Y-105446292D01*
X103124981Y-105465537D01*
X103108890Y-105483290D01*
X103091137Y-105499381D01*
X103071892Y-105513653D01*
X103051342Y-105525971D01*
X103029682Y-105536215D01*
X103007123Y-105544287D01*
X102983881Y-105550109D01*
X102960181Y-105553624D01*
X102936250Y-105554800D01*
X102447950Y-105554800D01*
X102424019Y-105553624D01*
X102400319Y-105550109D01*
X102377077Y-105544287D01*
X102354518Y-105536215D01*
X102332858Y-105525971D01*
X102312308Y-105513653D01*
X102293063Y-105499381D01*
X102275310Y-105483290D01*
X102259219Y-105465537D01*
X102244947Y-105446292D01*
X102232629Y-105425742D01*
X102222385Y-105404082D01*
X102214313Y-105381523D01*
X102208491Y-105358281D01*
X102204976Y-105334581D01*
X102203800Y-105310650D01*
X102203800Y-104747350D01*
X102204976Y-104723419D01*
X102208491Y-104699719D01*
X102214313Y-104676477D01*
X102222385Y-104653918D01*
X102232629Y-104632258D01*
X102244947Y-104611708D01*
X102259219Y-104592463D01*
X102275310Y-104574710D01*
X102293063Y-104558619D01*
X102312308Y-104544347D01*
X102332858Y-104532029D01*
X102354518Y-104521785D01*
X102377077Y-104513713D01*
X102400319Y-104507891D01*
X102424019Y-104504376D01*
X102447950Y-104503200D01*
X102936250Y-104503200D01*
X102960181Y-104504376D01*
X102960181Y-104504376D01*
G37*
D29*
X102692100Y-105029000D03*
D12*
G36*
X104535181Y-104504376D02*
G01*
X104558881Y-104507891D01*
X104582123Y-104513713D01*
X104604682Y-104521785D01*
X104626342Y-104532029D01*
X104646892Y-104544347D01*
X104666137Y-104558619D01*
X104683890Y-104574710D01*
X104699981Y-104592463D01*
X104714253Y-104611708D01*
X104726571Y-104632258D01*
X104736815Y-104653918D01*
X104744887Y-104676477D01*
X104750709Y-104699719D01*
X104754224Y-104723419D01*
X104755400Y-104747350D01*
X104755400Y-105310650D01*
X104754224Y-105334581D01*
X104750709Y-105358281D01*
X104744887Y-105381523D01*
X104736815Y-105404082D01*
X104726571Y-105425742D01*
X104714253Y-105446292D01*
X104699981Y-105465537D01*
X104683890Y-105483290D01*
X104666137Y-105499381D01*
X104646892Y-105513653D01*
X104626342Y-105525971D01*
X104604682Y-105536215D01*
X104582123Y-105544287D01*
X104558881Y-105550109D01*
X104535181Y-105553624D01*
X104511250Y-105554800D01*
X104022950Y-105554800D01*
X103999019Y-105553624D01*
X103975319Y-105550109D01*
X103952077Y-105544287D01*
X103929518Y-105536215D01*
X103907858Y-105525971D01*
X103887308Y-105513653D01*
X103868063Y-105499381D01*
X103850310Y-105483290D01*
X103834219Y-105465537D01*
X103819947Y-105446292D01*
X103807629Y-105425742D01*
X103797385Y-105404082D01*
X103789313Y-105381523D01*
X103783491Y-105358281D01*
X103779976Y-105334581D01*
X103778800Y-105310650D01*
X103778800Y-104747350D01*
X103779976Y-104723419D01*
X103783491Y-104699719D01*
X103789313Y-104676477D01*
X103797385Y-104653918D01*
X103807629Y-104632258D01*
X103819947Y-104611708D01*
X103834219Y-104592463D01*
X103850310Y-104574710D01*
X103868063Y-104558619D01*
X103887308Y-104544347D01*
X103907858Y-104532029D01*
X103929518Y-104521785D01*
X103952077Y-104513713D01*
X103975319Y-104507891D01*
X103999019Y-104504376D01*
X104022950Y-104503200D01*
X104511250Y-104503200D01*
X104535181Y-104504376D01*
X104535181Y-104504376D01*
G37*
D29*
X104267100Y-105029000D03*
D30*
X83705700Y-99170200D03*
X83705700Y-97070200D03*
D12*
G36*
X95903431Y-105168496D02*
G01*
X95929559Y-105172372D01*
X95955180Y-105178790D01*
X95980049Y-105187688D01*
X96003926Y-105198981D01*
X96026582Y-105212560D01*
X96047797Y-105228294D01*
X96067368Y-105246032D01*
X96085106Y-105265603D01*
X96100840Y-105286818D01*
X96114419Y-105309474D01*
X96125712Y-105333351D01*
X96134610Y-105358220D01*
X96141028Y-105383841D01*
X96144904Y-105409969D01*
X96146200Y-105436350D01*
X96146200Y-106399650D01*
X96144904Y-106426031D01*
X96141028Y-106452159D01*
X96134610Y-106477780D01*
X96125712Y-106502649D01*
X96114419Y-106526526D01*
X96100840Y-106549182D01*
X96085106Y-106570397D01*
X96067368Y-106589968D01*
X96047797Y-106607706D01*
X96026582Y-106623440D01*
X96003926Y-106637019D01*
X95980049Y-106648312D01*
X95955180Y-106657210D01*
X95929559Y-106663628D01*
X95903431Y-106667504D01*
X95877050Y-106668800D01*
X95338750Y-106668800D01*
X95312369Y-106667504D01*
X95286241Y-106663628D01*
X95260620Y-106657210D01*
X95235751Y-106648312D01*
X95211874Y-106637019D01*
X95189218Y-106623440D01*
X95168003Y-106607706D01*
X95148432Y-106589968D01*
X95130694Y-106570397D01*
X95114960Y-106549182D01*
X95101381Y-106526526D01*
X95090088Y-106502649D01*
X95081190Y-106477780D01*
X95074772Y-106452159D01*
X95070896Y-106426031D01*
X95069600Y-106399650D01*
X95069600Y-105436350D01*
X95070896Y-105409969D01*
X95074772Y-105383841D01*
X95081190Y-105358220D01*
X95090088Y-105333351D01*
X95101381Y-105309474D01*
X95114960Y-105286818D01*
X95130694Y-105265603D01*
X95148432Y-105246032D01*
X95168003Y-105228294D01*
X95189218Y-105212560D01*
X95211874Y-105198981D01*
X95235751Y-105187688D01*
X95260620Y-105178790D01*
X95286241Y-105172372D01*
X95312369Y-105168496D01*
X95338750Y-105167200D01*
X95877050Y-105167200D01*
X95903431Y-105168496D01*
X95903431Y-105168496D01*
G37*
D31*
X95607900Y-105918000D03*
D12*
G36*
X97778431Y-105168496D02*
G01*
X97804559Y-105172372D01*
X97830180Y-105178790D01*
X97855049Y-105187688D01*
X97878926Y-105198981D01*
X97901582Y-105212560D01*
X97922797Y-105228294D01*
X97942368Y-105246032D01*
X97960106Y-105265603D01*
X97975840Y-105286818D01*
X97989419Y-105309474D01*
X98000712Y-105333351D01*
X98009610Y-105358220D01*
X98016028Y-105383841D01*
X98019904Y-105409969D01*
X98021200Y-105436350D01*
X98021200Y-106399650D01*
X98019904Y-106426031D01*
X98016028Y-106452159D01*
X98009610Y-106477780D01*
X98000712Y-106502649D01*
X97989419Y-106526526D01*
X97975840Y-106549182D01*
X97960106Y-106570397D01*
X97942368Y-106589968D01*
X97922797Y-106607706D01*
X97901582Y-106623440D01*
X97878926Y-106637019D01*
X97855049Y-106648312D01*
X97830180Y-106657210D01*
X97804559Y-106663628D01*
X97778431Y-106667504D01*
X97752050Y-106668800D01*
X97213750Y-106668800D01*
X97187369Y-106667504D01*
X97161241Y-106663628D01*
X97135620Y-106657210D01*
X97110751Y-106648312D01*
X97086874Y-106637019D01*
X97064218Y-106623440D01*
X97043003Y-106607706D01*
X97023432Y-106589968D01*
X97005694Y-106570397D01*
X96989960Y-106549182D01*
X96976381Y-106526526D01*
X96965088Y-106502649D01*
X96956190Y-106477780D01*
X96949772Y-106452159D01*
X96945896Y-106426031D01*
X96944600Y-106399650D01*
X96944600Y-105436350D01*
X96945896Y-105409969D01*
X96949772Y-105383841D01*
X96956190Y-105358220D01*
X96965088Y-105333351D01*
X96976381Y-105309474D01*
X96989960Y-105286818D01*
X97005694Y-105265603D01*
X97023432Y-105246032D01*
X97043003Y-105228294D01*
X97064218Y-105212560D01*
X97086874Y-105198981D01*
X97110751Y-105187688D01*
X97135620Y-105178790D01*
X97161241Y-105172372D01*
X97187369Y-105168496D01*
X97213750Y-105167200D01*
X97752050Y-105167200D01*
X97778431Y-105168496D01*
X97778431Y-105168496D01*
G37*
D31*
X97482900Y-105918000D03*
D12*
G36*
X94906047Y-108039233D02*
G01*
X94922831Y-108041722D01*
X94939290Y-108045845D01*
X94955266Y-108051561D01*
X94970604Y-108058816D01*
X94985158Y-108067539D01*
X94998787Y-108077646D01*
X95011359Y-108089041D01*
X95022754Y-108101613D01*
X95032861Y-108115242D01*
X95041584Y-108129796D01*
X95048839Y-108145134D01*
X95054555Y-108161110D01*
X95058678Y-108177569D01*
X95061167Y-108194353D01*
X95062000Y-108211300D01*
X95062000Y-108557100D01*
X95061167Y-108574047D01*
X95058678Y-108590831D01*
X95054555Y-108607290D01*
X95048839Y-108623266D01*
X95041584Y-108638604D01*
X95032861Y-108653158D01*
X95022754Y-108666787D01*
X95011359Y-108679359D01*
X94998787Y-108690754D01*
X94985158Y-108700861D01*
X94970604Y-108709584D01*
X94955266Y-108716839D01*
X94939290Y-108722555D01*
X94922831Y-108726678D01*
X94906047Y-108729167D01*
X94889100Y-108730000D01*
X94493300Y-108730000D01*
X94476353Y-108729167D01*
X94459569Y-108726678D01*
X94443110Y-108722555D01*
X94427134Y-108716839D01*
X94411796Y-108709584D01*
X94397242Y-108700861D01*
X94383613Y-108690754D01*
X94371041Y-108679359D01*
X94359646Y-108666787D01*
X94349539Y-108653158D01*
X94340816Y-108638604D01*
X94333561Y-108623266D01*
X94327845Y-108607290D01*
X94323722Y-108590831D01*
X94321233Y-108574047D01*
X94320400Y-108557100D01*
X94320400Y-108211300D01*
X94321233Y-108194353D01*
X94323722Y-108177569D01*
X94327845Y-108161110D01*
X94333561Y-108145134D01*
X94340816Y-108129796D01*
X94349539Y-108115242D01*
X94359646Y-108101613D01*
X94371041Y-108089041D01*
X94383613Y-108077646D01*
X94397242Y-108067539D01*
X94411796Y-108058816D01*
X94427134Y-108051561D01*
X94443110Y-108045845D01*
X94459569Y-108041722D01*
X94476353Y-108039233D01*
X94493300Y-108038400D01*
X94889100Y-108038400D01*
X94906047Y-108039233D01*
X94906047Y-108039233D01*
G37*
D21*
X94691200Y-108384200D03*
D12*
G36*
X94906047Y-107069233D02*
G01*
X94922831Y-107071722D01*
X94939290Y-107075845D01*
X94955266Y-107081561D01*
X94970604Y-107088816D01*
X94985158Y-107097539D01*
X94998787Y-107107646D01*
X95011359Y-107119041D01*
X95022754Y-107131613D01*
X95032861Y-107145242D01*
X95041584Y-107159796D01*
X95048839Y-107175134D01*
X95054555Y-107191110D01*
X95058678Y-107207569D01*
X95061167Y-107224353D01*
X95062000Y-107241300D01*
X95062000Y-107587100D01*
X95061167Y-107604047D01*
X95058678Y-107620831D01*
X95054555Y-107637290D01*
X95048839Y-107653266D01*
X95041584Y-107668604D01*
X95032861Y-107683158D01*
X95022754Y-107696787D01*
X95011359Y-107709359D01*
X94998787Y-107720754D01*
X94985158Y-107730861D01*
X94970604Y-107739584D01*
X94955266Y-107746839D01*
X94939290Y-107752555D01*
X94922831Y-107756678D01*
X94906047Y-107759167D01*
X94889100Y-107760000D01*
X94493300Y-107760000D01*
X94476353Y-107759167D01*
X94459569Y-107756678D01*
X94443110Y-107752555D01*
X94427134Y-107746839D01*
X94411796Y-107739584D01*
X94397242Y-107730861D01*
X94383613Y-107720754D01*
X94371041Y-107709359D01*
X94359646Y-107696787D01*
X94349539Y-107683158D01*
X94340816Y-107668604D01*
X94333561Y-107653266D01*
X94327845Y-107637290D01*
X94323722Y-107620831D01*
X94321233Y-107604047D01*
X94320400Y-107587100D01*
X94320400Y-107241300D01*
X94321233Y-107224353D01*
X94323722Y-107207569D01*
X94327845Y-107191110D01*
X94333561Y-107175134D01*
X94340816Y-107159796D01*
X94349539Y-107145242D01*
X94359646Y-107131613D01*
X94371041Y-107119041D01*
X94383613Y-107107646D01*
X94397242Y-107097539D01*
X94411796Y-107088816D01*
X94427134Y-107081561D01*
X94443110Y-107075845D01*
X94459569Y-107071722D01*
X94476353Y-107069233D01*
X94493300Y-107068400D01*
X94889100Y-107068400D01*
X94906047Y-107069233D01*
X94906047Y-107069233D01*
G37*
D21*
X94691200Y-107414200D03*
D12*
G36*
X95891567Y-108039233D02*
G01*
X95908351Y-108041722D01*
X95924810Y-108045845D01*
X95940786Y-108051561D01*
X95956124Y-108058816D01*
X95970678Y-108067539D01*
X95984307Y-108077646D01*
X95996879Y-108089041D01*
X96008274Y-108101613D01*
X96018381Y-108115242D01*
X96027104Y-108129796D01*
X96034359Y-108145134D01*
X96040075Y-108161110D01*
X96044198Y-108177569D01*
X96046687Y-108194353D01*
X96047520Y-108211300D01*
X96047520Y-108557100D01*
X96046687Y-108574047D01*
X96044198Y-108590831D01*
X96040075Y-108607290D01*
X96034359Y-108623266D01*
X96027104Y-108638604D01*
X96018381Y-108653158D01*
X96008274Y-108666787D01*
X95996879Y-108679359D01*
X95984307Y-108690754D01*
X95970678Y-108700861D01*
X95956124Y-108709584D01*
X95940786Y-108716839D01*
X95924810Y-108722555D01*
X95908351Y-108726678D01*
X95891567Y-108729167D01*
X95874620Y-108730000D01*
X95478820Y-108730000D01*
X95461873Y-108729167D01*
X95445089Y-108726678D01*
X95428630Y-108722555D01*
X95412654Y-108716839D01*
X95397316Y-108709584D01*
X95382762Y-108700861D01*
X95369133Y-108690754D01*
X95356561Y-108679359D01*
X95345166Y-108666787D01*
X95335059Y-108653158D01*
X95326336Y-108638604D01*
X95319081Y-108623266D01*
X95313365Y-108607290D01*
X95309242Y-108590831D01*
X95306753Y-108574047D01*
X95305920Y-108557100D01*
X95305920Y-108211300D01*
X95306753Y-108194353D01*
X95309242Y-108177569D01*
X95313365Y-108161110D01*
X95319081Y-108145134D01*
X95326336Y-108129796D01*
X95335059Y-108115242D01*
X95345166Y-108101613D01*
X95356561Y-108089041D01*
X95369133Y-108077646D01*
X95382762Y-108067539D01*
X95397316Y-108058816D01*
X95412654Y-108051561D01*
X95428630Y-108045845D01*
X95445089Y-108041722D01*
X95461873Y-108039233D01*
X95478820Y-108038400D01*
X95874620Y-108038400D01*
X95891567Y-108039233D01*
X95891567Y-108039233D01*
G37*
D21*
X95676720Y-108384200D03*
D12*
G36*
X95891567Y-107069233D02*
G01*
X95908351Y-107071722D01*
X95924810Y-107075845D01*
X95940786Y-107081561D01*
X95956124Y-107088816D01*
X95970678Y-107097539D01*
X95984307Y-107107646D01*
X95996879Y-107119041D01*
X96008274Y-107131613D01*
X96018381Y-107145242D01*
X96027104Y-107159796D01*
X96034359Y-107175134D01*
X96040075Y-107191110D01*
X96044198Y-107207569D01*
X96046687Y-107224353D01*
X96047520Y-107241300D01*
X96047520Y-107587100D01*
X96046687Y-107604047D01*
X96044198Y-107620831D01*
X96040075Y-107637290D01*
X96034359Y-107653266D01*
X96027104Y-107668604D01*
X96018381Y-107683158D01*
X96008274Y-107696787D01*
X95996879Y-107709359D01*
X95984307Y-107720754D01*
X95970678Y-107730861D01*
X95956124Y-107739584D01*
X95940786Y-107746839D01*
X95924810Y-107752555D01*
X95908351Y-107756678D01*
X95891567Y-107759167D01*
X95874620Y-107760000D01*
X95478820Y-107760000D01*
X95461873Y-107759167D01*
X95445089Y-107756678D01*
X95428630Y-107752555D01*
X95412654Y-107746839D01*
X95397316Y-107739584D01*
X95382762Y-107730861D01*
X95369133Y-107720754D01*
X95356561Y-107709359D01*
X95345166Y-107696787D01*
X95335059Y-107683158D01*
X95326336Y-107668604D01*
X95319081Y-107653266D01*
X95313365Y-107637290D01*
X95309242Y-107620831D01*
X95306753Y-107604047D01*
X95305920Y-107587100D01*
X95305920Y-107241300D01*
X95306753Y-107224353D01*
X95309242Y-107207569D01*
X95313365Y-107191110D01*
X95319081Y-107175134D01*
X95326336Y-107159796D01*
X95335059Y-107145242D01*
X95345166Y-107131613D01*
X95356561Y-107119041D01*
X95369133Y-107107646D01*
X95382762Y-107097539D01*
X95397316Y-107088816D01*
X95412654Y-107081561D01*
X95428630Y-107075845D01*
X95445089Y-107071722D01*
X95461873Y-107069233D01*
X95478820Y-107068400D01*
X95874620Y-107068400D01*
X95891567Y-107069233D01*
X95891567Y-107069233D01*
G37*
D21*
X95676720Y-107414200D03*
D12*
G36*
X104738647Y-98893233D02*
G01*
X104755431Y-98895722D01*
X104771890Y-98899845D01*
X104787866Y-98905561D01*
X104803204Y-98912816D01*
X104817758Y-98921539D01*
X104831387Y-98931646D01*
X104843959Y-98943041D01*
X104855354Y-98955613D01*
X104865461Y-98969242D01*
X104874184Y-98983796D01*
X104881439Y-98999134D01*
X104887155Y-99015110D01*
X104891278Y-99031569D01*
X104893767Y-99048353D01*
X104894600Y-99065300D01*
X104894600Y-99461100D01*
X104893767Y-99478047D01*
X104891278Y-99494831D01*
X104887155Y-99511290D01*
X104881439Y-99527266D01*
X104874184Y-99542604D01*
X104865461Y-99557158D01*
X104855354Y-99570787D01*
X104843959Y-99583359D01*
X104831387Y-99594754D01*
X104817758Y-99604861D01*
X104803204Y-99613584D01*
X104787866Y-99620839D01*
X104771890Y-99626555D01*
X104755431Y-99630678D01*
X104738647Y-99633167D01*
X104721700Y-99634000D01*
X104375900Y-99634000D01*
X104358953Y-99633167D01*
X104342169Y-99630678D01*
X104325710Y-99626555D01*
X104309734Y-99620839D01*
X104294396Y-99613584D01*
X104279842Y-99604861D01*
X104266213Y-99594754D01*
X104253641Y-99583359D01*
X104242246Y-99570787D01*
X104232139Y-99557158D01*
X104223416Y-99542604D01*
X104216161Y-99527266D01*
X104210445Y-99511290D01*
X104206322Y-99494831D01*
X104203833Y-99478047D01*
X104203000Y-99461100D01*
X104203000Y-99065300D01*
X104203833Y-99048353D01*
X104206322Y-99031569D01*
X104210445Y-99015110D01*
X104216161Y-98999134D01*
X104223416Y-98983796D01*
X104232139Y-98969242D01*
X104242246Y-98955613D01*
X104253641Y-98943041D01*
X104266213Y-98931646D01*
X104279842Y-98921539D01*
X104294396Y-98912816D01*
X104309734Y-98905561D01*
X104325710Y-98899845D01*
X104342169Y-98895722D01*
X104358953Y-98893233D01*
X104375900Y-98892400D01*
X104721700Y-98892400D01*
X104738647Y-98893233D01*
X104738647Y-98893233D01*
G37*
D21*
X104548800Y-99263200D03*
D12*
G36*
X103768647Y-98893233D02*
G01*
X103785431Y-98895722D01*
X103801890Y-98899845D01*
X103817866Y-98905561D01*
X103833204Y-98912816D01*
X103847758Y-98921539D01*
X103861387Y-98931646D01*
X103873959Y-98943041D01*
X103885354Y-98955613D01*
X103895461Y-98969242D01*
X103904184Y-98983796D01*
X103911439Y-98999134D01*
X103917155Y-99015110D01*
X103921278Y-99031569D01*
X103923767Y-99048353D01*
X103924600Y-99065300D01*
X103924600Y-99461100D01*
X103923767Y-99478047D01*
X103921278Y-99494831D01*
X103917155Y-99511290D01*
X103911439Y-99527266D01*
X103904184Y-99542604D01*
X103895461Y-99557158D01*
X103885354Y-99570787D01*
X103873959Y-99583359D01*
X103861387Y-99594754D01*
X103847758Y-99604861D01*
X103833204Y-99613584D01*
X103817866Y-99620839D01*
X103801890Y-99626555D01*
X103785431Y-99630678D01*
X103768647Y-99633167D01*
X103751700Y-99634000D01*
X103405900Y-99634000D01*
X103388953Y-99633167D01*
X103372169Y-99630678D01*
X103355710Y-99626555D01*
X103339734Y-99620839D01*
X103324396Y-99613584D01*
X103309842Y-99604861D01*
X103296213Y-99594754D01*
X103283641Y-99583359D01*
X103272246Y-99570787D01*
X103262139Y-99557158D01*
X103253416Y-99542604D01*
X103246161Y-99527266D01*
X103240445Y-99511290D01*
X103236322Y-99494831D01*
X103233833Y-99478047D01*
X103233000Y-99461100D01*
X103233000Y-99065300D01*
X103233833Y-99048353D01*
X103236322Y-99031569D01*
X103240445Y-99015110D01*
X103246161Y-98999134D01*
X103253416Y-98983796D01*
X103262139Y-98969242D01*
X103272246Y-98955613D01*
X103283641Y-98943041D01*
X103296213Y-98931646D01*
X103309842Y-98921539D01*
X103324396Y-98912816D01*
X103339734Y-98905561D01*
X103355710Y-98899845D01*
X103372169Y-98895722D01*
X103388953Y-98893233D01*
X103405900Y-98892400D01*
X103751700Y-98892400D01*
X103768647Y-98893233D01*
X103768647Y-98893233D01*
G37*
D21*
X103578800Y-99263200D03*
D12*
G36*
X103794047Y-99833033D02*
G01*
X103810831Y-99835522D01*
X103827290Y-99839645D01*
X103843266Y-99845361D01*
X103858604Y-99852616D01*
X103873158Y-99861339D01*
X103886787Y-99871446D01*
X103899359Y-99882841D01*
X103910754Y-99895413D01*
X103920861Y-99909042D01*
X103929584Y-99923596D01*
X103936839Y-99938934D01*
X103942555Y-99954910D01*
X103946678Y-99971369D01*
X103949167Y-99988153D01*
X103950000Y-100005100D01*
X103950000Y-100400900D01*
X103949167Y-100417847D01*
X103946678Y-100434631D01*
X103942555Y-100451090D01*
X103936839Y-100467066D01*
X103929584Y-100482404D01*
X103920861Y-100496958D01*
X103910754Y-100510587D01*
X103899359Y-100523159D01*
X103886787Y-100534554D01*
X103873158Y-100544661D01*
X103858604Y-100553384D01*
X103843266Y-100560639D01*
X103827290Y-100566355D01*
X103810831Y-100570478D01*
X103794047Y-100572967D01*
X103777100Y-100573800D01*
X103431300Y-100573800D01*
X103414353Y-100572967D01*
X103397569Y-100570478D01*
X103381110Y-100566355D01*
X103365134Y-100560639D01*
X103349796Y-100553384D01*
X103335242Y-100544661D01*
X103321613Y-100534554D01*
X103309041Y-100523159D01*
X103297646Y-100510587D01*
X103287539Y-100496958D01*
X103278816Y-100482404D01*
X103271561Y-100467066D01*
X103265845Y-100451090D01*
X103261722Y-100434631D01*
X103259233Y-100417847D01*
X103258400Y-100400900D01*
X103258400Y-100005100D01*
X103259233Y-99988153D01*
X103261722Y-99971369D01*
X103265845Y-99954910D01*
X103271561Y-99938934D01*
X103278816Y-99923596D01*
X103287539Y-99909042D01*
X103297646Y-99895413D01*
X103309041Y-99882841D01*
X103321613Y-99871446D01*
X103335242Y-99861339D01*
X103349796Y-99852616D01*
X103365134Y-99845361D01*
X103381110Y-99839645D01*
X103397569Y-99835522D01*
X103414353Y-99833033D01*
X103431300Y-99832200D01*
X103777100Y-99832200D01*
X103794047Y-99833033D01*
X103794047Y-99833033D01*
G37*
D21*
X103604200Y-100203000D03*
D12*
G36*
X104764047Y-99833033D02*
G01*
X104780831Y-99835522D01*
X104797290Y-99839645D01*
X104813266Y-99845361D01*
X104828604Y-99852616D01*
X104843158Y-99861339D01*
X104856787Y-99871446D01*
X104869359Y-99882841D01*
X104880754Y-99895413D01*
X104890861Y-99909042D01*
X104899584Y-99923596D01*
X104906839Y-99938934D01*
X104912555Y-99954910D01*
X104916678Y-99971369D01*
X104919167Y-99988153D01*
X104920000Y-100005100D01*
X104920000Y-100400900D01*
X104919167Y-100417847D01*
X104916678Y-100434631D01*
X104912555Y-100451090D01*
X104906839Y-100467066D01*
X104899584Y-100482404D01*
X104890861Y-100496958D01*
X104880754Y-100510587D01*
X104869359Y-100523159D01*
X104856787Y-100534554D01*
X104843158Y-100544661D01*
X104828604Y-100553384D01*
X104813266Y-100560639D01*
X104797290Y-100566355D01*
X104780831Y-100570478D01*
X104764047Y-100572967D01*
X104747100Y-100573800D01*
X104401300Y-100573800D01*
X104384353Y-100572967D01*
X104367569Y-100570478D01*
X104351110Y-100566355D01*
X104335134Y-100560639D01*
X104319796Y-100553384D01*
X104305242Y-100544661D01*
X104291613Y-100534554D01*
X104279041Y-100523159D01*
X104267646Y-100510587D01*
X104257539Y-100496958D01*
X104248816Y-100482404D01*
X104241561Y-100467066D01*
X104235845Y-100451090D01*
X104231722Y-100434631D01*
X104229233Y-100417847D01*
X104228400Y-100400900D01*
X104228400Y-100005100D01*
X104229233Y-99988153D01*
X104231722Y-99971369D01*
X104235845Y-99954910D01*
X104241561Y-99938934D01*
X104248816Y-99923596D01*
X104257539Y-99909042D01*
X104267646Y-99895413D01*
X104279041Y-99882841D01*
X104291613Y-99871446D01*
X104305242Y-99861339D01*
X104319796Y-99852616D01*
X104335134Y-99845361D01*
X104351110Y-99839645D01*
X104367569Y-99835522D01*
X104384353Y-99833033D01*
X104401300Y-99832200D01*
X104747100Y-99832200D01*
X104764047Y-99833033D01*
X104764047Y-99833033D01*
G37*
D21*
X104574200Y-100203000D03*
D32*
X81948400Y-97010700D03*
X81948400Y-97660700D03*
X81948400Y-98310700D03*
X81948400Y-98960700D03*
X81948400Y-99610700D03*
D33*
X81973400Y-95810700D03*
X81973400Y-100810700D03*
D34*
X79273400Y-94810700D03*
X79273400Y-101810700D03*
D35*
X79273400Y-97310700D03*
X79273400Y-99310700D03*
X79273400Y-95260700D03*
X79273400Y-101360700D03*
D36*
X85382199Y-99450398D03*
X85382199Y-98450400D03*
X85382199Y-97450399D03*
X86182197Y-99450398D03*
X86182200Y-98450400D03*
X86182197Y-97450399D03*
X86982198Y-99450398D03*
X86982198Y-98450400D03*
X86982198Y-97450399D03*
D12*
G36*
X99224047Y-108059553D02*
G01*
X99240831Y-108062042D01*
X99257290Y-108066165D01*
X99273266Y-108071881D01*
X99288604Y-108079136D01*
X99303158Y-108087859D01*
X99316787Y-108097966D01*
X99329359Y-108109361D01*
X99340754Y-108121933D01*
X99350861Y-108135562D01*
X99359584Y-108150116D01*
X99366839Y-108165454D01*
X99372555Y-108181430D01*
X99376678Y-108197889D01*
X99379167Y-108214673D01*
X99380000Y-108231620D01*
X99380000Y-108577420D01*
X99379167Y-108594367D01*
X99376678Y-108611151D01*
X99372555Y-108627610D01*
X99366839Y-108643586D01*
X99359584Y-108658924D01*
X99350861Y-108673478D01*
X99340754Y-108687107D01*
X99329359Y-108699679D01*
X99316787Y-108711074D01*
X99303158Y-108721181D01*
X99288604Y-108729904D01*
X99273266Y-108737159D01*
X99257290Y-108742875D01*
X99240831Y-108746998D01*
X99224047Y-108749487D01*
X99207100Y-108750320D01*
X98811300Y-108750320D01*
X98794353Y-108749487D01*
X98777569Y-108746998D01*
X98761110Y-108742875D01*
X98745134Y-108737159D01*
X98729796Y-108729904D01*
X98715242Y-108721181D01*
X98701613Y-108711074D01*
X98689041Y-108699679D01*
X98677646Y-108687107D01*
X98667539Y-108673478D01*
X98658816Y-108658924D01*
X98651561Y-108643586D01*
X98645845Y-108627610D01*
X98641722Y-108611151D01*
X98639233Y-108594367D01*
X98638400Y-108577420D01*
X98638400Y-108231620D01*
X98639233Y-108214673D01*
X98641722Y-108197889D01*
X98645845Y-108181430D01*
X98651561Y-108165454D01*
X98658816Y-108150116D01*
X98667539Y-108135562D01*
X98677646Y-108121933D01*
X98689041Y-108109361D01*
X98701613Y-108097966D01*
X98715242Y-108087859D01*
X98729796Y-108079136D01*
X98745134Y-108071881D01*
X98761110Y-108066165D01*
X98777569Y-108062042D01*
X98794353Y-108059553D01*
X98811300Y-108058720D01*
X99207100Y-108058720D01*
X99224047Y-108059553D01*
X99224047Y-108059553D01*
G37*
D21*
X99009200Y-108404520D03*
D12*
G36*
X99224047Y-107089553D02*
G01*
X99240831Y-107092042D01*
X99257290Y-107096165D01*
X99273266Y-107101881D01*
X99288604Y-107109136D01*
X99303158Y-107117859D01*
X99316787Y-107127966D01*
X99329359Y-107139361D01*
X99340754Y-107151933D01*
X99350861Y-107165562D01*
X99359584Y-107180116D01*
X99366839Y-107195454D01*
X99372555Y-107211430D01*
X99376678Y-107227889D01*
X99379167Y-107244673D01*
X99380000Y-107261620D01*
X99380000Y-107607420D01*
X99379167Y-107624367D01*
X99376678Y-107641151D01*
X99372555Y-107657610D01*
X99366839Y-107673586D01*
X99359584Y-107688924D01*
X99350861Y-107703478D01*
X99340754Y-107717107D01*
X99329359Y-107729679D01*
X99316787Y-107741074D01*
X99303158Y-107751181D01*
X99288604Y-107759904D01*
X99273266Y-107767159D01*
X99257290Y-107772875D01*
X99240831Y-107776998D01*
X99224047Y-107779487D01*
X99207100Y-107780320D01*
X98811300Y-107780320D01*
X98794353Y-107779487D01*
X98777569Y-107776998D01*
X98761110Y-107772875D01*
X98745134Y-107767159D01*
X98729796Y-107759904D01*
X98715242Y-107751181D01*
X98701613Y-107741074D01*
X98689041Y-107729679D01*
X98677646Y-107717107D01*
X98667539Y-107703478D01*
X98658816Y-107688924D01*
X98651561Y-107673586D01*
X98645845Y-107657610D01*
X98641722Y-107641151D01*
X98639233Y-107624367D01*
X98638400Y-107607420D01*
X98638400Y-107261620D01*
X98639233Y-107244673D01*
X98641722Y-107227889D01*
X98645845Y-107211430D01*
X98651561Y-107195454D01*
X98658816Y-107180116D01*
X98667539Y-107165562D01*
X98677646Y-107151933D01*
X98689041Y-107139361D01*
X98701613Y-107127966D01*
X98715242Y-107117859D01*
X98729796Y-107109136D01*
X98745134Y-107101881D01*
X98761110Y-107096165D01*
X98777569Y-107092042D01*
X98794353Y-107089553D01*
X98811300Y-107088720D01*
X99207100Y-107088720D01*
X99224047Y-107089553D01*
X99224047Y-107089553D01*
G37*
D21*
X99009200Y-107434520D03*
D37*
X89478900Y-106286400D03*
X89478900Y-107886400D03*
X93578900Y-107886400D03*
X93578900Y-106286400D03*
D12*
G36*
X101586247Y-103741833D02*
G01*
X101603031Y-103744322D01*
X101619490Y-103748445D01*
X101635466Y-103754161D01*
X101650804Y-103761416D01*
X101665358Y-103770139D01*
X101678987Y-103780246D01*
X101691559Y-103791641D01*
X101702954Y-103804213D01*
X101713061Y-103817842D01*
X101721784Y-103832396D01*
X101729039Y-103847734D01*
X101734755Y-103863710D01*
X101738878Y-103880169D01*
X101741367Y-103896953D01*
X101742200Y-103913900D01*
X101742200Y-104259700D01*
X101741367Y-104276647D01*
X101738878Y-104293431D01*
X101734755Y-104309890D01*
X101729039Y-104325866D01*
X101721784Y-104341204D01*
X101713061Y-104355758D01*
X101702954Y-104369387D01*
X101691559Y-104381959D01*
X101678987Y-104393354D01*
X101665358Y-104403461D01*
X101650804Y-104412184D01*
X101635466Y-104419439D01*
X101619490Y-104425155D01*
X101603031Y-104429278D01*
X101586247Y-104431767D01*
X101569300Y-104432600D01*
X101173500Y-104432600D01*
X101156553Y-104431767D01*
X101139769Y-104429278D01*
X101123310Y-104425155D01*
X101107334Y-104419439D01*
X101091996Y-104412184D01*
X101077442Y-104403461D01*
X101063813Y-104393354D01*
X101051241Y-104381959D01*
X101039846Y-104369387D01*
X101029739Y-104355758D01*
X101021016Y-104341204D01*
X101013761Y-104325866D01*
X101008045Y-104309890D01*
X101003922Y-104293431D01*
X101001433Y-104276647D01*
X101000600Y-104259700D01*
X101000600Y-103913900D01*
X101001433Y-103896953D01*
X101003922Y-103880169D01*
X101008045Y-103863710D01*
X101013761Y-103847734D01*
X101021016Y-103832396D01*
X101029739Y-103817842D01*
X101039846Y-103804213D01*
X101051241Y-103791641D01*
X101063813Y-103780246D01*
X101077442Y-103770139D01*
X101091996Y-103761416D01*
X101107334Y-103754161D01*
X101123310Y-103748445D01*
X101139769Y-103744322D01*
X101156553Y-103741833D01*
X101173500Y-103741000D01*
X101569300Y-103741000D01*
X101586247Y-103741833D01*
X101586247Y-103741833D01*
G37*
D21*
X101371400Y-104086800D03*
D12*
G36*
X101586247Y-104711833D02*
G01*
X101603031Y-104714322D01*
X101619490Y-104718445D01*
X101635466Y-104724161D01*
X101650804Y-104731416D01*
X101665358Y-104740139D01*
X101678987Y-104750246D01*
X101691559Y-104761641D01*
X101702954Y-104774213D01*
X101713061Y-104787842D01*
X101721784Y-104802396D01*
X101729039Y-104817734D01*
X101734755Y-104833710D01*
X101738878Y-104850169D01*
X101741367Y-104866953D01*
X101742200Y-104883900D01*
X101742200Y-105229700D01*
X101741367Y-105246647D01*
X101738878Y-105263431D01*
X101734755Y-105279890D01*
X101729039Y-105295866D01*
X101721784Y-105311204D01*
X101713061Y-105325758D01*
X101702954Y-105339387D01*
X101691559Y-105351959D01*
X101678987Y-105363354D01*
X101665358Y-105373461D01*
X101650804Y-105382184D01*
X101635466Y-105389439D01*
X101619490Y-105395155D01*
X101603031Y-105399278D01*
X101586247Y-105401767D01*
X101569300Y-105402600D01*
X101173500Y-105402600D01*
X101156553Y-105401767D01*
X101139769Y-105399278D01*
X101123310Y-105395155D01*
X101107334Y-105389439D01*
X101091996Y-105382184D01*
X101077442Y-105373461D01*
X101063813Y-105363354D01*
X101051241Y-105351959D01*
X101039846Y-105339387D01*
X101029739Y-105325758D01*
X101021016Y-105311204D01*
X101013761Y-105295866D01*
X101008045Y-105279890D01*
X101003922Y-105263431D01*
X101001433Y-105246647D01*
X101000600Y-105229700D01*
X101000600Y-104883900D01*
X101001433Y-104866953D01*
X101003922Y-104850169D01*
X101008045Y-104833710D01*
X101013761Y-104817734D01*
X101021016Y-104802396D01*
X101029739Y-104787842D01*
X101039846Y-104774213D01*
X101051241Y-104761641D01*
X101063813Y-104750246D01*
X101077442Y-104740139D01*
X101091996Y-104731416D01*
X101107334Y-104724161D01*
X101123310Y-104718445D01*
X101139769Y-104714322D01*
X101156553Y-104711833D01*
X101173500Y-104711000D01*
X101569300Y-104711000D01*
X101586247Y-104711833D01*
X101586247Y-104711833D01*
G37*
D21*
X101371400Y-105056800D03*
D12*
G36*
X108802647Y-102525433D02*
G01*
X108819431Y-102527922D01*
X108835890Y-102532045D01*
X108851866Y-102537761D01*
X108867204Y-102545016D01*
X108881758Y-102553739D01*
X108895387Y-102563846D01*
X108907959Y-102575241D01*
X108919354Y-102587813D01*
X108929461Y-102601442D01*
X108938184Y-102615996D01*
X108945439Y-102631334D01*
X108951155Y-102647310D01*
X108955278Y-102663769D01*
X108957767Y-102680553D01*
X108958600Y-102697500D01*
X108958600Y-103093300D01*
X108957767Y-103110247D01*
X108955278Y-103127031D01*
X108951155Y-103143490D01*
X108945439Y-103159466D01*
X108938184Y-103174804D01*
X108929461Y-103189358D01*
X108919354Y-103202987D01*
X108907959Y-103215559D01*
X108895387Y-103226954D01*
X108881758Y-103237061D01*
X108867204Y-103245784D01*
X108851866Y-103253039D01*
X108835890Y-103258755D01*
X108819431Y-103262878D01*
X108802647Y-103265367D01*
X108785700Y-103266200D01*
X108439900Y-103266200D01*
X108422953Y-103265367D01*
X108406169Y-103262878D01*
X108389710Y-103258755D01*
X108373734Y-103253039D01*
X108358396Y-103245784D01*
X108343842Y-103237061D01*
X108330213Y-103226954D01*
X108317641Y-103215559D01*
X108306246Y-103202987D01*
X108296139Y-103189358D01*
X108287416Y-103174804D01*
X108280161Y-103159466D01*
X108274445Y-103143490D01*
X108270322Y-103127031D01*
X108267833Y-103110247D01*
X108267000Y-103093300D01*
X108267000Y-102697500D01*
X108267833Y-102680553D01*
X108270322Y-102663769D01*
X108274445Y-102647310D01*
X108280161Y-102631334D01*
X108287416Y-102615996D01*
X108296139Y-102601442D01*
X108306246Y-102587813D01*
X108317641Y-102575241D01*
X108330213Y-102563846D01*
X108343842Y-102553739D01*
X108358396Y-102545016D01*
X108373734Y-102537761D01*
X108389710Y-102532045D01*
X108406169Y-102527922D01*
X108422953Y-102525433D01*
X108439900Y-102524600D01*
X108785700Y-102524600D01*
X108802647Y-102525433D01*
X108802647Y-102525433D01*
G37*
D21*
X108612800Y-102895400D03*
D12*
G36*
X107832647Y-102525433D02*
G01*
X107849431Y-102527922D01*
X107865890Y-102532045D01*
X107881866Y-102537761D01*
X107897204Y-102545016D01*
X107911758Y-102553739D01*
X107925387Y-102563846D01*
X107937959Y-102575241D01*
X107949354Y-102587813D01*
X107959461Y-102601442D01*
X107968184Y-102615996D01*
X107975439Y-102631334D01*
X107981155Y-102647310D01*
X107985278Y-102663769D01*
X107987767Y-102680553D01*
X107988600Y-102697500D01*
X107988600Y-103093300D01*
X107987767Y-103110247D01*
X107985278Y-103127031D01*
X107981155Y-103143490D01*
X107975439Y-103159466D01*
X107968184Y-103174804D01*
X107959461Y-103189358D01*
X107949354Y-103202987D01*
X107937959Y-103215559D01*
X107925387Y-103226954D01*
X107911758Y-103237061D01*
X107897204Y-103245784D01*
X107881866Y-103253039D01*
X107865890Y-103258755D01*
X107849431Y-103262878D01*
X107832647Y-103265367D01*
X107815700Y-103266200D01*
X107469900Y-103266200D01*
X107452953Y-103265367D01*
X107436169Y-103262878D01*
X107419710Y-103258755D01*
X107403734Y-103253039D01*
X107388396Y-103245784D01*
X107373842Y-103237061D01*
X107360213Y-103226954D01*
X107347641Y-103215559D01*
X107336246Y-103202987D01*
X107326139Y-103189358D01*
X107317416Y-103174804D01*
X107310161Y-103159466D01*
X107304445Y-103143490D01*
X107300322Y-103127031D01*
X107297833Y-103110247D01*
X107297000Y-103093300D01*
X107297000Y-102697500D01*
X107297833Y-102680553D01*
X107300322Y-102663769D01*
X107304445Y-102647310D01*
X107310161Y-102631334D01*
X107317416Y-102615996D01*
X107326139Y-102601442D01*
X107336246Y-102587813D01*
X107347641Y-102575241D01*
X107360213Y-102563846D01*
X107373842Y-102553739D01*
X107388396Y-102545016D01*
X107403734Y-102537761D01*
X107419710Y-102532045D01*
X107436169Y-102527922D01*
X107452953Y-102525433D01*
X107469900Y-102524600D01*
X107815700Y-102524600D01*
X107832647Y-102525433D01*
X107832647Y-102525433D01*
G37*
D21*
X107642800Y-102895400D03*
D12*
G36*
X91020247Y-97293033D02*
G01*
X91037031Y-97295522D01*
X91053490Y-97299645D01*
X91069466Y-97305361D01*
X91084804Y-97312616D01*
X91099358Y-97321339D01*
X91112987Y-97331446D01*
X91125559Y-97342841D01*
X91136954Y-97355413D01*
X91147061Y-97369042D01*
X91155784Y-97383596D01*
X91163039Y-97398934D01*
X91168755Y-97414910D01*
X91172878Y-97431369D01*
X91175367Y-97448153D01*
X91176200Y-97465100D01*
X91176200Y-97860900D01*
X91175367Y-97877847D01*
X91172878Y-97894631D01*
X91168755Y-97911090D01*
X91163039Y-97927066D01*
X91155784Y-97942404D01*
X91147061Y-97956958D01*
X91136954Y-97970587D01*
X91125559Y-97983159D01*
X91112987Y-97994554D01*
X91099358Y-98004661D01*
X91084804Y-98013384D01*
X91069466Y-98020639D01*
X91053490Y-98026355D01*
X91037031Y-98030478D01*
X91020247Y-98032967D01*
X91003300Y-98033800D01*
X90657500Y-98033800D01*
X90640553Y-98032967D01*
X90623769Y-98030478D01*
X90607310Y-98026355D01*
X90591334Y-98020639D01*
X90575996Y-98013384D01*
X90561442Y-98004661D01*
X90547813Y-97994554D01*
X90535241Y-97983159D01*
X90523846Y-97970587D01*
X90513739Y-97956958D01*
X90505016Y-97942404D01*
X90497761Y-97927066D01*
X90492045Y-97911090D01*
X90487922Y-97894631D01*
X90485433Y-97877847D01*
X90484600Y-97860900D01*
X90484600Y-97465100D01*
X90485433Y-97448153D01*
X90487922Y-97431369D01*
X90492045Y-97414910D01*
X90497761Y-97398934D01*
X90505016Y-97383596D01*
X90513739Y-97369042D01*
X90523846Y-97355413D01*
X90535241Y-97342841D01*
X90547813Y-97331446D01*
X90561442Y-97321339D01*
X90575996Y-97312616D01*
X90591334Y-97305361D01*
X90607310Y-97299645D01*
X90623769Y-97295522D01*
X90640553Y-97293033D01*
X90657500Y-97292200D01*
X91003300Y-97292200D01*
X91020247Y-97293033D01*
X91020247Y-97293033D01*
G37*
D21*
X90830400Y-97663000D03*
D12*
G36*
X91990247Y-97293033D02*
G01*
X92007031Y-97295522D01*
X92023490Y-97299645D01*
X92039466Y-97305361D01*
X92054804Y-97312616D01*
X92069358Y-97321339D01*
X92082987Y-97331446D01*
X92095559Y-97342841D01*
X92106954Y-97355413D01*
X92117061Y-97369042D01*
X92125784Y-97383596D01*
X92133039Y-97398934D01*
X92138755Y-97414910D01*
X92142878Y-97431369D01*
X92145367Y-97448153D01*
X92146200Y-97465100D01*
X92146200Y-97860900D01*
X92145367Y-97877847D01*
X92142878Y-97894631D01*
X92138755Y-97911090D01*
X92133039Y-97927066D01*
X92125784Y-97942404D01*
X92117061Y-97956958D01*
X92106954Y-97970587D01*
X92095559Y-97983159D01*
X92082987Y-97994554D01*
X92069358Y-98004661D01*
X92054804Y-98013384D01*
X92039466Y-98020639D01*
X92023490Y-98026355D01*
X92007031Y-98030478D01*
X91990247Y-98032967D01*
X91973300Y-98033800D01*
X91627500Y-98033800D01*
X91610553Y-98032967D01*
X91593769Y-98030478D01*
X91577310Y-98026355D01*
X91561334Y-98020639D01*
X91545996Y-98013384D01*
X91531442Y-98004661D01*
X91517813Y-97994554D01*
X91505241Y-97983159D01*
X91493846Y-97970587D01*
X91483739Y-97956958D01*
X91475016Y-97942404D01*
X91467761Y-97927066D01*
X91462045Y-97911090D01*
X91457922Y-97894631D01*
X91455433Y-97877847D01*
X91454600Y-97860900D01*
X91454600Y-97465100D01*
X91455433Y-97448153D01*
X91457922Y-97431369D01*
X91462045Y-97414910D01*
X91467761Y-97398934D01*
X91475016Y-97383596D01*
X91483739Y-97369042D01*
X91493846Y-97355413D01*
X91505241Y-97342841D01*
X91517813Y-97331446D01*
X91531442Y-97321339D01*
X91545996Y-97312616D01*
X91561334Y-97305361D01*
X91577310Y-97299645D01*
X91593769Y-97295522D01*
X91610553Y-97293033D01*
X91627500Y-97292200D01*
X91973300Y-97292200D01*
X91990247Y-97293033D01*
X91990247Y-97293033D01*
G37*
D21*
X91800400Y-97663000D03*
D12*
G36*
X91987847Y-96327833D02*
G01*
X92004631Y-96330322D01*
X92021090Y-96334445D01*
X92037066Y-96340161D01*
X92052404Y-96347416D01*
X92066958Y-96356139D01*
X92080587Y-96366246D01*
X92093159Y-96377641D01*
X92104554Y-96390213D01*
X92114661Y-96403842D01*
X92123384Y-96418396D01*
X92130639Y-96433734D01*
X92136355Y-96449710D01*
X92140478Y-96466169D01*
X92142967Y-96482953D01*
X92143800Y-96499900D01*
X92143800Y-96895700D01*
X92142967Y-96912647D01*
X92140478Y-96929431D01*
X92136355Y-96945890D01*
X92130639Y-96961866D01*
X92123384Y-96977204D01*
X92114661Y-96991758D01*
X92104554Y-97005387D01*
X92093159Y-97017959D01*
X92080587Y-97029354D01*
X92066958Y-97039461D01*
X92052404Y-97048184D01*
X92037066Y-97055439D01*
X92021090Y-97061155D01*
X92004631Y-97065278D01*
X91987847Y-97067767D01*
X91970900Y-97068600D01*
X91625100Y-97068600D01*
X91608153Y-97067767D01*
X91591369Y-97065278D01*
X91574910Y-97061155D01*
X91558934Y-97055439D01*
X91543596Y-97048184D01*
X91529042Y-97039461D01*
X91515413Y-97029354D01*
X91502841Y-97017959D01*
X91491446Y-97005387D01*
X91481339Y-96991758D01*
X91472616Y-96977204D01*
X91465361Y-96961866D01*
X91459645Y-96945890D01*
X91455522Y-96929431D01*
X91453033Y-96912647D01*
X91452200Y-96895700D01*
X91452200Y-96499900D01*
X91453033Y-96482953D01*
X91455522Y-96466169D01*
X91459645Y-96449710D01*
X91465361Y-96433734D01*
X91472616Y-96418396D01*
X91481339Y-96403842D01*
X91491446Y-96390213D01*
X91502841Y-96377641D01*
X91515413Y-96366246D01*
X91529042Y-96356139D01*
X91543596Y-96347416D01*
X91558934Y-96340161D01*
X91574910Y-96334445D01*
X91591369Y-96330322D01*
X91608153Y-96327833D01*
X91625100Y-96327000D01*
X91970900Y-96327000D01*
X91987847Y-96327833D01*
X91987847Y-96327833D01*
G37*
D21*
X91798000Y-96697800D03*
D12*
G36*
X91017847Y-96327833D02*
G01*
X91034631Y-96330322D01*
X91051090Y-96334445D01*
X91067066Y-96340161D01*
X91082404Y-96347416D01*
X91096958Y-96356139D01*
X91110587Y-96366246D01*
X91123159Y-96377641D01*
X91134554Y-96390213D01*
X91144661Y-96403842D01*
X91153384Y-96418396D01*
X91160639Y-96433734D01*
X91166355Y-96449710D01*
X91170478Y-96466169D01*
X91172967Y-96482953D01*
X91173800Y-96499900D01*
X91173800Y-96895700D01*
X91172967Y-96912647D01*
X91170478Y-96929431D01*
X91166355Y-96945890D01*
X91160639Y-96961866D01*
X91153384Y-96977204D01*
X91144661Y-96991758D01*
X91134554Y-97005387D01*
X91123159Y-97017959D01*
X91110587Y-97029354D01*
X91096958Y-97039461D01*
X91082404Y-97048184D01*
X91067066Y-97055439D01*
X91051090Y-97061155D01*
X91034631Y-97065278D01*
X91017847Y-97067767D01*
X91000900Y-97068600D01*
X90655100Y-97068600D01*
X90638153Y-97067767D01*
X90621369Y-97065278D01*
X90604910Y-97061155D01*
X90588934Y-97055439D01*
X90573596Y-97048184D01*
X90559042Y-97039461D01*
X90545413Y-97029354D01*
X90532841Y-97017959D01*
X90521446Y-97005387D01*
X90511339Y-96991758D01*
X90502616Y-96977204D01*
X90495361Y-96961866D01*
X90489645Y-96945890D01*
X90485522Y-96929431D01*
X90483033Y-96912647D01*
X90482200Y-96895700D01*
X90482200Y-96499900D01*
X90483033Y-96482953D01*
X90485522Y-96466169D01*
X90489645Y-96449710D01*
X90495361Y-96433734D01*
X90502616Y-96418396D01*
X90511339Y-96403842D01*
X90521446Y-96390213D01*
X90532841Y-96377641D01*
X90545413Y-96366246D01*
X90559042Y-96356139D01*
X90573596Y-96347416D01*
X90588934Y-96340161D01*
X90604910Y-96334445D01*
X90621369Y-96330322D01*
X90638153Y-96327833D01*
X90655100Y-96327000D01*
X91000900Y-96327000D01*
X91017847Y-96327833D01*
X91017847Y-96327833D01*
G37*
D21*
X90828000Y-96697800D03*
M02*
