%TF.GenerationSoftware,KiCad,Pcbnew,5.0.2-bee76a0~70~ubuntu18.04.1*%
%TF.CreationDate,2020-02-29T17:46:36-08:00*%
%TF.ProjectId,mainboard,6d61696e-626f-4617-9264-2e6b69636164,rev?*%
%TF.SameCoordinates,Original*%
%TF.FileFunction,Legend,Top*%
%TF.FilePolarity,Positive*%
%FSLAX46Y46*%
G04 Gerber Fmt 4.6, Leading zero omitted, Abs format (unit mm)*
G04 Created by KiCad (PCBNEW 5.0.2-bee76a0~70~ubuntu18.04.1) date Sat 29 Feb 2020 05:46:36 PM PST*
%MOMM*%
%LPD*%
G01*
G04 APERTURE LIST*
%ADD10C,0.300000*%
%ADD11C,0.076200*%
%ADD12C,0.150000*%
%ADD13C,0.127000*%
%ADD14C,0.203200*%
%ADD15C,0.120000*%
%ADD16C,0.100000*%
%ADD17C,0.254000*%
%ADD18C,0.200000*%
%ADD19C,0.152400*%
%ADD20C,0.070000*%
%ADD21C,0.060000*%
G04 APERTURE END LIST*
D10*
X109185714Y-76328571D02*
X109685714Y-77828571D01*
X110185714Y-76328571D01*
X110614285Y-76471428D02*
X110685714Y-76400000D01*
X110828571Y-76328571D01*
X111185714Y-76328571D01*
X111328571Y-76400000D01*
X111400000Y-76471428D01*
X111471428Y-76614285D01*
X111471428Y-76757142D01*
X111400000Y-76971428D01*
X110542857Y-77828571D01*
X111471428Y-77828571D01*
D11*
X78930500Y-76668690D02*
X78960738Y-76608214D01*
X78960738Y-76517500D01*
X78930500Y-76426785D01*
X78870023Y-76366309D01*
X78809547Y-76336071D01*
X78688595Y-76305833D01*
X78597880Y-76305833D01*
X78476928Y-76336071D01*
X78416452Y-76366309D01*
X78355976Y-76426785D01*
X78325738Y-76517500D01*
X78325738Y-76577976D01*
X78355976Y-76668690D01*
X78386214Y-76698928D01*
X78597880Y-76698928D01*
X78597880Y-76577976D01*
X78325738Y-76971071D02*
X78960738Y-76971071D01*
X78325738Y-77333928D01*
X78960738Y-77333928D01*
X78325738Y-77636309D02*
X78960738Y-77636309D01*
X78960738Y-77787500D01*
X78930500Y-77878214D01*
X78870023Y-77938690D01*
X78809547Y-77968928D01*
X78688595Y-77999166D01*
X78597880Y-77999166D01*
X78476928Y-77968928D01*
X78416452Y-77938690D01*
X78355976Y-77878214D01*
X78325738Y-77787500D01*
X78325738Y-77636309D01*
X78960738Y-81700309D02*
X78960738Y-82093404D01*
X78718833Y-81881738D01*
X78718833Y-81972452D01*
X78688595Y-82032928D01*
X78658357Y-82063166D01*
X78597880Y-82093404D01*
X78446690Y-82093404D01*
X78386214Y-82063166D01*
X78355976Y-82032928D01*
X78325738Y-81972452D01*
X78325738Y-81791023D01*
X78355976Y-81730547D01*
X78386214Y-81700309D01*
X78960738Y-82274833D02*
X78325738Y-82486500D01*
X78960738Y-82698166D01*
X78960738Y-82849357D02*
X78960738Y-83242452D01*
X78718833Y-83030785D01*
X78718833Y-83121500D01*
X78688595Y-83181976D01*
X78658357Y-83212214D01*
X78597880Y-83242452D01*
X78446690Y-83242452D01*
X78386214Y-83212214D01*
X78355976Y-83181976D01*
X78325738Y-83121500D01*
X78325738Y-82940071D01*
X78355976Y-82879595D01*
X78386214Y-82849357D01*
D12*
X120902460Y-74415942D02*
X120102459Y-74415941D01*
X85102460Y-74415941D02*
G75*
G02X84602460Y-73915941I0J500000D01*
G01*
X113602459Y-73915941D02*
G75*
G02X113102459Y-74415941I-500000J0D01*
G01*
X113102459Y-107215941D02*
G75*
G02X113602459Y-107715941I0J-500000D01*
G01*
X84602460Y-107715941D02*
G75*
G02X85102460Y-107215941I500000J0D01*
G01*
X77340460Y-91475941D02*
X76502460Y-92313941D01*
X77340460Y-98555940D02*
X76502460Y-97790000D01*
X120102460Y-72915941D02*
X113602460Y-72915941D01*
X113602459Y-107715941D02*
X113602460Y-108715941D01*
X85102460Y-107215941D02*
X113102459Y-107215941D01*
X84602460Y-108715941D02*
X84602460Y-107715941D01*
X113602460Y-108715941D02*
X120102459Y-108715940D01*
X113102459Y-74415941D02*
X93872460Y-74415941D01*
X113602460Y-72915941D02*
X113602459Y-73915941D01*
X78102460Y-72915941D02*
X78102460Y-74415941D01*
X93872460Y-74415941D02*
X93872460Y-75565000D01*
X93872460Y-75565000D02*
X89872460Y-75565000D01*
X78102460Y-74415941D02*
X77340460Y-74415941D01*
X77340460Y-74415941D02*
X77340460Y-91475941D01*
X120102460Y-107215940D02*
X120902460Y-107215940D01*
X120102459Y-74415941D02*
X120102460Y-72915941D01*
X89872460Y-75565000D02*
X89872460Y-74415941D01*
X84602460Y-72915941D02*
X78102460Y-72915941D01*
X84602460Y-73915941D02*
X84602460Y-72915941D01*
X89872460Y-74415941D02*
X85102460Y-74415941D01*
X76502460Y-92313941D02*
X76502460Y-97790000D01*
X120902460Y-107215940D02*
X120902460Y-74415942D01*
X78102460Y-107215940D02*
X78102460Y-108715940D01*
X120102459Y-108715940D02*
X120102460Y-107215940D01*
X77340460Y-98555940D02*
X77340460Y-107215940D01*
X78102460Y-108715940D02*
X84602460Y-108715941D01*
X77340460Y-107215940D02*
X78102460Y-107215940D01*
D13*
X88452476Y-102670428D02*
X88428285Y-102694619D01*
X88355714Y-102718809D01*
X88307333Y-102718809D01*
X88234761Y-102694619D01*
X88186380Y-102646238D01*
X88162190Y-102597857D01*
X88138000Y-102501095D01*
X88138000Y-102428523D01*
X88162190Y-102331761D01*
X88186380Y-102283380D01*
X88234761Y-102235000D01*
X88307333Y-102210809D01*
X88355714Y-102210809D01*
X88428285Y-102235000D01*
X88452476Y-102259190D01*
X88670190Y-102525285D02*
X89057238Y-102525285D01*
X88863714Y-102718809D02*
X88863714Y-102331761D01*
X89299142Y-102718809D02*
X89299142Y-102210809D01*
X89468476Y-102573666D01*
X89637809Y-102210809D01*
X89637809Y-102718809D01*
D11*
X108409014Y-90457261D02*
X108197347Y-90154880D01*
X108046157Y-90457261D02*
X108046157Y-89822261D01*
X108288061Y-89822261D01*
X108348538Y-89852500D01*
X108378776Y-89882738D01*
X108409014Y-89943214D01*
X108409014Y-90033928D01*
X108378776Y-90094404D01*
X108348538Y-90124642D01*
X108288061Y-90154880D01*
X108046157Y-90154880D01*
X108650919Y-90275833D02*
X108953300Y-90275833D01*
X108590442Y-90457261D02*
X108802109Y-89822261D01*
X109013776Y-90457261D01*
X109225442Y-90457261D02*
X109225442Y-89822261D01*
X109376633Y-89822261D01*
X109467347Y-89852500D01*
X109527823Y-89912976D01*
X109558061Y-89973452D01*
X109588300Y-90094404D01*
X109588300Y-90185119D01*
X109558061Y-90306071D01*
X109527823Y-90366547D01*
X109467347Y-90427023D01*
X109376633Y-90457261D01*
X109225442Y-90457261D01*
X109860442Y-90457261D02*
X109860442Y-89822261D01*
X110283776Y-89822261D02*
X110404728Y-89822261D01*
X110465204Y-89852500D01*
X110525680Y-89912976D01*
X110555919Y-90033928D01*
X110555919Y-90245595D01*
X110525680Y-90366547D01*
X110465204Y-90427023D01*
X110404728Y-90457261D01*
X110283776Y-90457261D01*
X110223300Y-90427023D01*
X110162823Y-90366547D01*
X110132585Y-90245595D01*
X110132585Y-90033928D01*
X110162823Y-89912976D01*
X110223300Y-89852500D01*
X110283776Y-89822261D01*
X110797823Y-90033928D02*
X111251395Y-90033928D01*
X110979252Y-89761785D02*
X110797823Y-90578214D01*
X111190919Y-90306071D02*
X110737347Y-90306071D01*
X111009490Y-90578214D02*
X111190919Y-89761785D01*
X111432823Y-89882738D02*
X111463061Y-89852500D01*
X111523538Y-89822261D01*
X111674728Y-89822261D01*
X111735204Y-89852500D01*
X111765442Y-89882738D01*
X111795680Y-89943214D01*
X111795680Y-90003690D01*
X111765442Y-90094404D01*
X111402585Y-90457261D01*
X111795680Y-90457261D01*
X90528140Y-106541509D02*
X90528140Y-105906509D01*
X91371661Y-106027461D02*
X91069280Y-106239128D01*
X91371661Y-106390319D02*
X90736661Y-106390319D01*
X90736661Y-106148414D01*
X90766900Y-106087938D01*
X90797138Y-106057700D01*
X90857614Y-106027461D01*
X90948328Y-106027461D01*
X91008804Y-106057700D01*
X91039042Y-106087938D01*
X91069280Y-106148414D01*
X91069280Y-106390319D01*
X90528140Y-105906509D02*
X90528140Y-105331985D01*
X91039042Y-105755319D02*
X91039042Y-105543652D01*
X91371661Y-105452938D02*
X91371661Y-105755319D01*
X90736661Y-105755319D01*
X90736661Y-105452938D01*
X90528140Y-105331985D02*
X90528140Y-104727223D01*
X91341423Y-105211033D02*
X91371661Y-105120319D01*
X91371661Y-104969128D01*
X91341423Y-104908652D01*
X91311185Y-104878414D01*
X91250709Y-104848176D01*
X91190233Y-104848176D01*
X91129757Y-104878414D01*
X91099519Y-104908652D01*
X91069280Y-104969128D01*
X91039042Y-105090080D01*
X91008804Y-105150557D01*
X90978566Y-105180795D01*
X90918090Y-105211033D01*
X90857614Y-105211033D01*
X90797138Y-105180795D01*
X90766900Y-105150557D01*
X90736661Y-105090080D01*
X90736661Y-104938890D01*
X90766900Y-104848176D01*
X90528140Y-104727223D02*
X90528140Y-104152700D01*
X91039042Y-104576033D02*
X91039042Y-104364366D01*
X91371661Y-104273652D02*
X91371661Y-104576033D01*
X90736661Y-104576033D01*
X90736661Y-104273652D01*
X90528140Y-104152700D02*
X90528140Y-103668890D01*
X90736661Y-104092223D02*
X90736661Y-103729366D01*
X91371661Y-103910795D02*
X90736661Y-103910795D01*
X84479190Y-75057000D02*
X84418714Y-75026761D01*
X84328000Y-75026761D01*
X84237285Y-75057000D01*
X84176809Y-75117476D01*
X84146571Y-75177952D01*
X84116333Y-75298904D01*
X84116333Y-75389619D01*
X84146571Y-75510571D01*
X84176809Y-75571047D01*
X84237285Y-75631523D01*
X84328000Y-75661761D01*
X84388476Y-75661761D01*
X84479190Y-75631523D01*
X84509428Y-75601285D01*
X84509428Y-75389619D01*
X84388476Y-75389619D01*
X84781571Y-75661761D02*
X84781571Y-75026761D01*
X85144428Y-75661761D01*
X85144428Y-75026761D01*
X85446809Y-75661761D02*
X85446809Y-75026761D01*
X85598000Y-75026761D01*
X85688714Y-75057000D01*
X85749190Y-75117476D01*
X85779428Y-75177952D01*
X85809666Y-75298904D01*
X85809666Y-75389619D01*
X85779428Y-75510571D01*
X85749190Y-75571047D01*
X85688714Y-75631523D01*
X85598000Y-75661761D01*
X85446809Y-75661761D01*
X86459785Y-75026761D02*
X86671452Y-75661761D01*
X86883119Y-75026761D01*
X87306452Y-75329142D02*
X87397166Y-75359380D01*
X87427404Y-75389619D01*
X87457642Y-75450095D01*
X87457642Y-75540809D01*
X87427404Y-75601285D01*
X87397166Y-75631523D01*
X87336690Y-75661761D01*
X87094785Y-75661761D01*
X87094785Y-75026761D01*
X87306452Y-75026761D01*
X87366928Y-75057000D01*
X87397166Y-75087238D01*
X87427404Y-75147714D01*
X87427404Y-75208190D01*
X87397166Y-75268666D01*
X87366928Y-75298904D01*
X87306452Y-75329142D01*
X87094785Y-75329142D01*
X87699547Y-75480333D02*
X88001928Y-75480333D01*
X87639071Y-75661761D02*
X87850738Y-75026761D01*
X88062404Y-75661761D01*
X88183357Y-75026761D02*
X88546214Y-75026761D01*
X88364785Y-75661761D02*
X88364785Y-75026761D01*
X78265261Y-96997761D02*
X78053595Y-96695380D01*
X77902404Y-96997761D02*
X77902404Y-96362761D01*
X78144309Y-96362761D01*
X78204785Y-96393000D01*
X78235023Y-96423238D01*
X78265261Y-96483714D01*
X78265261Y-96574428D01*
X78235023Y-96634904D01*
X78204785Y-96665142D01*
X78144309Y-96695380D01*
X77902404Y-96695380D01*
X78507166Y-96967523D02*
X78597880Y-96997761D01*
X78749071Y-96997761D01*
X78809547Y-96967523D01*
X78839785Y-96937285D01*
X78870023Y-96876809D01*
X78870023Y-96816333D01*
X78839785Y-96755857D01*
X78809547Y-96725619D01*
X78749071Y-96695380D01*
X78628119Y-96665142D01*
X78567642Y-96634904D01*
X78537404Y-96604666D01*
X78507166Y-96544190D01*
X78507166Y-96483714D01*
X78537404Y-96423238D01*
X78567642Y-96393000D01*
X78628119Y-96362761D01*
X78779309Y-96362761D01*
X78870023Y-96393000D01*
X79051452Y-96362761D02*
X79414309Y-96362761D01*
X79232880Y-96997761D02*
X79232880Y-96362761D01*
D14*
X85090000Y-102489000D02*
G75*
G03X85090000Y-102489000I-63500J0D01*
G01*
D11*
X78129190Y-95123000D02*
X78068714Y-95092761D01*
X77978000Y-95092761D01*
X77887285Y-95123000D01*
X77826809Y-95183476D01*
X77796571Y-95243952D01*
X77766333Y-95364904D01*
X77766333Y-95455619D01*
X77796571Y-95576571D01*
X77826809Y-95637047D01*
X77887285Y-95697523D01*
X77978000Y-95727761D01*
X78038476Y-95727761D01*
X78129190Y-95697523D01*
X78159428Y-95667285D01*
X78159428Y-95455619D01*
X78038476Y-95455619D01*
X78431571Y-95727761D02*
X78431571Y-95092761D01*
X78794428Y-95727761D01*
X78794428Y-95092761D01*
X79096809Y-95727761D02*
X79096809Y-95092761D01*
X79248000Y-95092761D01*
X79338714Y-95123000D01*
X79399190Y-95183476D01*
X79429428Y-95243952D01*
X79459666Y-95364904D01*
X79459666Y-95455619D01*
X79429428Y-95576571D01*
X79399190Y-95637047D01*
X79338714Y-95697523D01*
X79248000Y-95727761D01*
X79096809Y-95727761D01*
D14*
X83809840Y-100647500D02*
X83809840Y-100203000D01*
D12*
X83555840Y-100203000D02*
X83809840Y-99999800D01*
X83809840Y-99999800D02*
X84063840Y-100203000D01*
X84063840Y-100203000D02*
X83860640Y-100203000D01*
X83809840Y-100203000D02*
X83555840Y-100203000D01*
D11*
X77826809Y-93822761D02*
X78219904Y-93822761D01*
X78008238Y-94064666D01*
X78098952Y-94064666D01*
X78159428Y-94094904D01*
X78189666Y-94125142D01*
X78219904Y-94185619D01*
X78219904Y-94336809D01*
X78189666Y-94397285D01*
X78159428Y-94427523D01*
X78098952Y-94457761D01*
X77917523Y-94457761D01*
X77857047Y-94427523D01*
X77826809Y-94397285D01*
X78401333Y-93822761D02*
X78613000Y-94457761D01*
X78824666Y-93822761D01*
X78975857Y-93822761D02*
X79368952Y-93822761D01*
X79157285Y-94064666D01*
X79248000Y-94064666D01*
X79308476Y-94094904D01*
X79338714Y-94125142D01*
X79368952Y-94185619D01*
X79368952Y-94336809D01*
X79338714Y-94397285D01*
X79308476Y-94427523D01*
X79248000Y-94457761D01*
X79066571Y-94457761D01*
X79006095Y-94427523D01*
X78975857Y-94397285D01*
X87315523Y-95667285D02*
X87285285Y-95697523D01*
X87194571Y-95727761D01*
X87134095Y-95727761D01*
X87043380Y-95697523D01*
X86982904Y-95637047D01*
X86952666Y-95576571D01*
X86922428Y-95455619D01*
X86922428Y-95364904D01*
X86952666Y-95243952D01*
X86982904Y-95183476D01*
X87043380Y-95123000D01*
X87134095Y-95092761D01*
X87194571Y-95092761D01*
X87285285Y-95123000D01*
X87315523Y-95153238D01*
X87890047Y-95727761D02*
X87587666Y-95727761D01*
X87587666Y-95092761D01*
X88101714Y-95727761D02*
X88101714Y-95092761D01*
X88464571Y-95727761D02*
X88192428Y-95364904D01*
X88464571Y-95092761D02*
X88101714Y-95455619D01*
X86979880Y-94457761D02*
X86979880Y-93822761D01*
X87131071Y-93822761D01*
X87221785Y-93853000D01*
X87282261Y-93913476D01*
X87312500Y-93973952D01*
X87342738Y-94094904D01*
X87342738Y-94185619D01*
X87312500Y-94306571D01*
X87282261Y-94367047D01*
X87221785Y-94427523D01*
X87131071Y-94457761D01*
X86979880Y-94457761D01*
X87614880Y-94457761D02*
X87614880Y-93822761D01*
X88038214Y-93822761D02*
X88159166Y-93822761D01*
X88219642Y-93853000D01*
X88280119Y-93913476D01*
X88310357Y-94034428D01*
X88310357Y-94246095D01*
X88280119Y-94367047D01*
X88219642Y-94427523D01*
X88159166Y-94457761D01*
X88038214Y-94457761D01*
X87977738Y-94427523D01*
X87917261Y-94367047D01*
X87887023Y-94246095D01*
X87887023Y-94034428D01*
X87917261Y-93913476D01*
X87977738Y-93853000D01*
X88038214Y-93822761D01*
D12*
X81745000Y-79100000D02*
X79545000Y-79100000D01*
X81745000Y-75300000D02*
X81745000Y-79100000D01*
X79545000Y-75300000D02*
X81745000Y-75300000D01*
X79545000Y-79100000D02*
X79545000Y-75300000D01*
X81745000Y-84450000D02*
X79545000Y-84450000D01*
X81745000Y-80650000D02*
X81745000Y-84450000D01*
X79545000Y-80650000D02*
X81745000Y-80650000D01*
X79545000Y-84450000D02*
X79545000Y-80650000D01*
D14*
X112117500Y-86330000D02*
X111558700Y-86330000D01*
X112117500Y-85771200D02*
X112117500Y-86330000D01*
X106986700Y-86330000D02*
X106783500Y-86330000D01*
X106783500Y-86126800D02*
X106783500Y-86330000D01*
X106783500Y-80996000D02*
X106783500Y-81199200D01*
X106986700Y-80996000D02*
X106783500Y-80996000D01*
X112117500Y-80996000D02*
X112117500Y-81199200D01*
X112117500Y-80996000D02*
X111914300Y-80996000D01*
D15*
X112880500Y-81777000D02*
X112880500Y-84227000D01*
X116100500Y-83577000D02*
X116100500Y-81777000D01*
X84632500Y-97340500D02*
X84632500Y-97405500D01*
X81102500Y-97340500D02*
X81102500Y-97405500D01*
X84632500Y-93475500D02*
X84632500Y-93540500D01*
X81102500Y-93475500D02*
X81102500Y-93540500D01*
X79777500Y-93540500D02*
X81102500Y-93540500D01*
X81102500Y-97405500D02*
X84632500Y-97405500D01*
X81102500Y-93475500D02*
X84632500Y-93475500D01*
D16*
X105186000Y-89768200D02*
X104567330Y-89768200D01*
X102586000Y-89768200D02*
X103204670Y-89768200D01*
X102586000Y-87168200D02*
X105186000Y-87168200D01*
D17*
X100697800Y-100515300D02*
G75*
G03X100697800Y-100515300I-125000J0D01*
G01*
D15*
X119860000Y-106982200D02*
X103660000Y-106982200D01*
X103660000Y-106982200D02*
X103660000Y-106582200D01*
X119860000Y-91182200D02*
X119860000Y-90782200D01*
X119860000Y-90782200D02*
X103660000Y-90782200D01*
X103660000Y-90782200D02*
X103660000Y-91182200D01*
X119860000Y-106982200D02*
X119860000Y-106632200D01*
X119860000Y-106632200D02*
X120760000Y-106632200D01*
D16*
X97514000Y-104406000D02*
G75*
G02X97414000Y-104406000I-50000J0D01*
G01*
X97414000Y-104406000D02*
G75*
G02X97514000Y-104406000I50000J0D01*
G01*
X97414000Y-104406000D02*
X97414000Y-104406000D01*
X97514000Y-104406000D02*
X97514000Y-104406000D01*
X98514000Y-103906000D02*
X97814000Y-103906000D01*
X100814000Y-103906000D02*
X100114000Y-103906000D01*
X100114000Y-106406000D02*
X100814000Y-106406000D01*
X98514000Y-106406000D02*
X97814000Y-106406000D01*
D18*
X104072000Y-76082500D02*
X95572000Y-76082500D01*
X104072000Y-80962500D02*
X104072000Y-78112500D01*
X95572000Y-80962500D02*
X95572000Y-78112500D01*
X104072000Y-80962500D02*
X102522000Y-80962500D01*
X95572000Y-80962500D02*
X97122000Y-80962500D01*
D13*
X76887300Y-99088700D02*
X76837300Y-99088700D01*
X77537300Y-99159700D02*
X77537300Y-106017700D01*
X76887300Y-99088700D02*
G75*
G02X76387300Y-98588700I0J500000D01*
G01*
X76087300Y-98688700D02*
G75*
G03X76887300Y-99488700I800000J0D01*
G01*
X76887300Y-99488700D02*
X77187300Y-99488700D01*
X77187300Y-99488700D02*
X77187300Y-99788700D01*
X77187300Y-99788700D02*
G75*
G03X76787300Y-100188700I0J-400000D01*
G01*
X76887300Y-106088700D02*
X76837300Y-106088700D01*
X76887300Y-106088700D02*
G75*
G03X76387300Y-106588700I0J-500000D01*
G01*
X76087300Y-106488700D02*
G75*
G02X76887300Y-105688700I800000J0D01*
G01*
X76887300Y-105688700D02*
X77187300Y-105688700D01*
X77187300Y-105688700D02*
X77187300Y-105388700D01*
X77187300Y-105388700D02*
G75*
G02X76787300Y-104988700I0J400000D01*
G01*
X76787300Y-100188700D02*
X76787300Y-104888700D01*
D19*
X87711999Y-102109001D02*
X87711999Y-101784000D01*
X87711999Y-102109001D02*
X87386998Y-102109001D01*
X87711999Y-99058999D02*
X87386998Y-99058999D01*
X87711999Y-99384000D02*
X87711999Y-99058999D01*
X85587002Y-99058999D02*
X85262001Y-99058999D01*
X85262001Y-99384000D02*
X85262001Y-99058999D01*
X85887001Y-102109001D02*
X85262001Y-102109001D01*
X85262001Y-102109001D02*
X85262001Y-101484001D01*
D14*
X89857000Y-106173400D02*
X85657000Y-106173400D01*
X85657000Y-103122600D02*
X89857000Y-103122600D01*
D12*
X88000000Y-85750000D02*
X85500000Y-85750000D01*
X85500000Y-84250000D02*
X88000000Y-84250000D01*
X85500000Y-85100000D02*
X85500000Y-84900000D01*
X88000000Y-85100000D02*
X88000000Y-84900000D01*
X88000000Y-81750000D02*
X85500000Y-81750000D01*
X85500000Y-80250000D02*
X88000000Y-80250000D01*
X85500000Y-81100000D02*
X85500000Y-80900000D01*
X88000000Y-81100000D02*
X88000000Y-80900000D01*
X88000000Y-89350000D02*
X88000000Y-89150000D01*
X85500000Y-89350000D02*
X85500000Y-89150000D01*
X85500000Y-88500000D02*
X88000000Y-88500000D01*
X88000000Y-90000000D02*
X85500000Y-90000000D01*
X89591421Y-83950000D02*
G75*
G03X89591421Y-83950000I-141421J0D01*
G01*
X89591421Y-79700000D02*
G75*
G03X89591421Y-79700000I-141421J0D01*
G01*
X89591421Y-88200000D02*
G75*
G03X89591421Y-88200000I-141421J0D01*
G01*
D11*
X108976220Y-86901261D02*
X108976220Y-87415309D01*
X109006458Y-87475785D01*
X109036696Y-87506023D01*
X109097172Y-87536261D01*
X109218125Y-87536261D01*
X109278601Y-87506023D01*
X109308839Y-87475785D01*
X109339077Y-87415309D01*
X109339077Y-86901261D01*
X109671696Y-87536261D02*
X109792649Y-87536261D01*
X109853125Y-87506023D01*
X109883363Y-87475785D01*
X109943839Y-87385071D01*
X109974077Y-87264119D01*
X109974077Y-87022214D01*
X109943839Y-86961738D01*
X109913601Y-86931500D01*
X109853125Y-86901261D01*
X109732172Y-86901261D01*
X109671696Y-86931500D01*
X109641458Y-86961738D01*
X109611220Y-87022214D01*
X109611220Y-87173404D01*
X109641458Y-87233880D01*
X109671696Y-87264119D01*
X109732172Y-87294357D01*
X109853125Y-87294357D01*
X109913601Y-87264119D01*
X109943839Y-87233880D01*
X109974077Y-87173404D01*
X104825785Y-81540261D02*
X104614119Y-81237880D01*
X104462928Y-81540261D02*
X104462928Y-80905261D01*
X104704833Y-80905261D01*
X104765309Y-80935500D01*
X104795547Y-80965738D01*
X104825785Y-81026214D01*
X104825785Y-81116928D01*
X104795547Y-81177404D01*
X104765309Y-81207642D01*
X104704833Y-81237880D01*
X104462928Y-81237880D01*
X105067690Y-80965738D02*
X105097928Y-80935500D01*
X105158404Y-80905261D01*
X105309595Y-80905261D01*
X105370071Y-80935500D01*
X105400309Y-80965738D01*
X105430547Y-81026214D01*
X105430547Y-81086690D01*
X105400309Y-81177404D01*
X105037452Y-81540261D01*
X105430547Y-81540261D01*
X105642214Y-80905261D02*
X106035309Y-80905261D01*
X105823642Y-81147166D01*
X105914357Y-81147166D01*
X105974833Y-81177404D01*
X106005071Y-81207642D01*
X106035309Y-81268119D01*
X106035309Y-81419309D01*
X106005071Y-81479785D01*
X105974833Y-81510023D01*
X105914357Y-81540261D01*
X105732928Y-81540261D01*
X105672452Y-81510023D01*
X105642214Y-81479785D01*
X112748785Y-86774261D02*
X112537119Y-86471880D01*
X112385928Y-86774261D02*
X112385928Y-86139261D01*
X112627833Y-86139261D01*
X112688309Y-86169500D01*
X112718547Y-86199738D01*
X112748785Y-86260214D01*
X112748785Y-86350928D01*
X112718547Y-86411404D01*
X112688309Y-86441642D01*
X112627833Y-86471880D01*
X112385928Y-86471880D01*
X112990690Y-86199738D02*
X113020928Y-86169500D01*
X113081404Y-86139261D01*
X113232595Y-86139261D01*
X113293071Y-86169500D01*
X113323309Y-86199738D01*
X113353547Y-86260214D01*
X113353547Y-86320690D01*
X113323309Y-86411404D01*
X112960452Y-86774261D01*
X113353547Y-86774261D01*
X113595452Y-86199738D02*
X113625690Y-86169500D01*
X113686166Y-86139261D01*
X113837357Y-86139261D01*
X113897833Y-86169500D01*
X113928071Y-86199738D01*
X113958309Y-86260214D01*
X113958309Y-86320690D01*
X113928071Y-86411404D01*
X113565214Y-86774261D01*
X113958309Y-86774261D01*
X117314738Y-82546976D02*
X117284500Y-82607452D01*
X117224023Y-82667928D01*
X117133309Y-82758642D01*
X117103071Y-82819119D01*
X117103071Y-82879595D01*
X117254261Y-82849357D02*
X117224023Y-82909833D01*
X117163547Y-82970309D01*
X117042595Y-83000547D01*
X116830928Y-83000547D01*
X116709976Y-82970309D01*
X116649500Y-82909833D01*
X116619261Y-82849357D01*
X116619261Y-82728404D01*
X116649500Y-82667928D01*
X116709976Y-82607452D01*
X116830928Y-82577214D01*
X117042595Y-82577214D01*
X117163547Y-82607452D01*
X117224023Y-82667928D01*
X117254261Y-82728404D01*
X117254261Y-82849357D01*
X117254261Y-81972452D02*
X117254261Y-82335309D01*
X117254261Y-82153880D02*
X116619261Y-82153880D01*
X116709976Y-82214357D01*
X116770452Y-82274833D01*
X116800690Y-82335309D01*
X107160785Y-78960785D02*
X107130547Y-78991023D01*
X107039833Y-79021261D01*
X106979357Y-79021261D01*
X106888642Y-78991023D01*
X106828166Y-78930547D01*
X106797928Y-78870071D01*
X106767690Y-78749119D01*
X106767690Y-78658404D01*
X106797928Y-78537452D01*
X106828166Y-78476976D01*
X106888642Y-78416500D01*
X106979357Y-78386261D01*
X107039833Y-78386261D01*
X107130547Y-78416500D01*
X107160785Y-78446738D01*
X107765547Y-79021261D02*
X107402690Y-79021261D01*
X107584119Y-79021261D02*
X107584119Y-78386261D01*
X107523642Y-78476976D01*
X107463166Y-78537452D01*
X107402690Y-78567690D01*
X107977214Y-78386261D02*
X108400547Y-78386261D01*
X108128404Y-79021261D01*
X104825785Y-86319785D02*
X104795547Y-86350023D01*
X104704833Y-86380261D01*
X104644357Y-86380261D01*
X104553642Y-86350023D01*
X104493166Y-86289547D01*
X104462928Y-86229071D01*
X104432690Y-86108119D01*
X104432690Y-86017404D01*
X104462928Y-85896452D01*
X104493166Y-85835976D01*
X104553642Y-85775500D01*
X104644357Y-85745261D01*
X104704833Y-85745261D01*
X104795547Y-85775500D01*
X104825785Y-85805738D01*
X105430547Y-86380261D02*
X105067690Y-86380261D01*
X105249119Y-86380261D02*
X105249119Y-85745261D01*
X105188642Y-85835976D01*
X105128166Y-85896452D01*
X105067690Y-85926690D01*
X105793404Y-86017404D02*
X105732928Y-85987166D01*
X105702690Y-85956928D01*
X105672452Y-85896452D01*
X105672452Y-85866214D01*
X105702690Y-85805738D01*
X105732928Y-85775500D01*
X105793404Y-85745261D01*
X105914357Y-85745261D01*
X105974833Y-85775500D01*
X106005071Y-85805738D01*
X106035309Y-85866214D01*
X106035309Y-85896452D01*
X106005071Y-85956928D01*
X105974833Y-85987166D01*
X105914357Y-86017404D01*
X105793404Y-86017404D01*
X105732928Y-86047642D01*
X105702690Y-86077880D01*
X105672452Y-86138357D01*
X105672452Y-86259309D01*
X105702690Y-86319785D01*
X105732928Y-86350023D01*
X105793404Y-86380261D01*
X105914357Y-86380261D01*
X105974833Y-86350023D01*
X106005071Y-86319785D01*
X106035309Y-86259309D01*
X106035309Y-86138357D01*
X106005071Y-86077880D01*
X105974833Y-86047642D01*
X105914357Y-86017404D01*
X102649261Y-101718214D02*
X102346880Y-101929880D01*
X102649261Y-102081071D02*
X102014261Y-102081071D01*
X102014261Y-101839166D01*
X102044500Y-101778690D01*
X102074738Y-101748452D01*
X102135214Y-101718214D01*
X102225928Y-101718214D01*
X102286404Y-101748452D01*
X102316642Y-101778690D01*
X102346880Y-101839166D01*
X102346880Y-102081071D01*
X102649261Y-101113452D02*
X102649261Y-101476309D01*
X102649261Y-101294880D02*
X102014261Y-101294880D01*
X102104976Y-101355357D01*
X102165452Y-101415833D01*
X102195690Y-101476309D01*
X102014261Y-100901785D02*
X102014261Y-100478452D01*
X102649261Y-100750595D01*
X113764785Y-88869761D02*
X113553119Y-88567380D01*
X113401928Y-88869761D02*
X113401928Y-88234761D01*
X113643833Y-88234761D01*
X113704309Y-88265000D01*
X113734547Y-88295238D01*
X113764785Y-88355714D01*
X113764785Y-88446428D01*
X113734547Y-88506904D01*
X113704309Y-88537142D01*
X113643833Y-88567380D01*
X113401928Y-88567380D01*
X114369547Y-88869761D02*
X114006690Y-88869761D01*
X114188119Y-88869761D02*
X114188119Y-88234761D01*
X114127642Y-88325476D01*
X114067166Y-88385952D01*
X114006690Y-88416190D01*
X114913833Y-88234761D02*
X114792880Y-88234761D01*
X114732404Y-88265000D01*
X114702166Y-88295238D01*
X114641690Y-88385952D01*
X114611452Y-88506904D01*
X114611452Y-88748809D01*
X114641690Y-88809285D01*
X114671928Y-88839523D01*
X114732404Y-88869761D01*
X114853357Y-88869761D01*
X114913833Y-88839523D01*
X114944071Y-88809285D01*
X114974309Y-88748809D01*
X114974309Y-88597619D01*
X114944071Y-88537142D01*
X114913833Y-88506904D01*
X114853357Y-88476666D01*
X114732404Y-88476666D01*
X114671928Y-88506904D01*
X114641690Y-88537142D01*
X114611452Y-88597619D01*
X101191785Y-103665261D02*
X100980119Y-103362880D01*
X100828928Y-103665261D02*
X100828928Y-103030261D01*
X101070833Y-103030261D01*
X101131309Y-103060500D01*
X101161547Y-103090738D01*
X101191785Y-103151214D01*
X101191785Y-103241928D01*
X101161547Y-103302404D01*
X101131309Y-103332642D01*
X101070833Y-103362880D01*
X100828928Y-103362880D01*
X101796547Y-103665261D02*
X101433690Y-103665261D01*
X101615119Y-103665261D02*
X101615119Y-103030261D01*
X101554642Y-103120976D01*
X101494166Y-103181452D01*
X101433690Y-103211690D01*
X102371071Y-103030261D02*
X102068690Y-103030261D01*
X102038452Y-103332642D01*
X102068690Y-103302404D01*
X102129166Y-103272166D01*
X102280357Y-103272166D01*
X102340833Y-103302404D01*
X102371071Y-103332642D01*
X102401309Y-103393119D01*
X102401309Y-103544309D01*
X102371071Y-103604785D01*
X102340833Y-103635023D01*
X102280357Y-103665261D01*
X102129166Y-103665261D01*
X102068690Y-103635023D01*
X102038452Y-103604785D01*
X96341785Y-90626761D02*
X96130119Y-90324380D01*
X95978928Y-90626761D02*
X95978928Y-89991761D01*
X96220833Y-89991761D01*
X96281309Y-90022000D01*
X96311547Y-90052238D01*
X96341785Y-90112714D01*
X96341785Y-90203428D01*
X96311547Y-90263904D01*
X96281309Y-90294142D01*
X96220833Y-90324380D01*
X95978928Y-90324380D01*
X96946547Y-90626761D02*
X96583690Y-90626761D01*
X96765119Y-90626761D02*
X96765119Y-89991761D01*
X96704642Y-90082476D01*
X96644166Y-90142952D01*
X96583690Y-90173190D01*
X97490833Y-90203428D02*
X97490833Y-90626761D01*
X97339642Y-89961523D02*
X97188452Y-90415095D01*
X97581547Y-90415095D01*
X96377285Y-91689761D02*
X96165619Y-91387380D01*
X96014428Y-91689761D02*
X96014428Y-91054761D01*
X96256333Y-91054761D01*
X96316809Y-91085000D01*
X96347047Y-91115238D01*
X96377285Y-91175714D01*
X96377285Y-91266428D01*
X96347047Y-91326904D01*
X96316809Y-91357142D01*
X96256333Y-91387380D01*
X96014428Y-91387380D01*
X96982047Y-91689761D02*
X96619190Y-91689761D01*
X96800619Y-91689761D02*
X96800619Y-91054761D01*
X96740142Y-91145476D01*
X96679666Y-91205952D01*
X96619190Y-91236190D01*
X97193714Y-91054761D02*
X97586809Y-91054761D01*
X97375142Y-91296666D01*
X97465857Y-91296666D01*
X97526333Y-91326904D01*
X97556571Y-91357142D01*
X97586809Y-91417619D01*
X97586809Y-91568809D01*
X97556571Y-91629285D01*
X97526333Y-91659523D01*
X97465857Y-91689761D01*
X97284428Y-91689761D01*
X97223952Y-91659523D01*
X97193714Y-91629285D01*
X83980261Y-90783833D02*
X83677880Y-90995500D01*
X83980261Y-91146690D02*
X83345261Y-91146690D01*
X83345261Y-90904785D01*
X83375500Y-90844309D01*
X83405738Y-90814071D01*
X83466214Y-90783833D01*
X83556928Y-90783833D01*
X83617404Y-90814071D01*
X83647642Y-90844309D01*
X83677880Y-90904785D01*
X83677880Y-91146690D01*
X83980261Y-90179071D02*
X83980261Y-90541928D01*
X83980261Y-90360500D02*
X83345261Y-90360500D01*
X83435976Y-90420976D01*
X83496452Y-90481452D01*
X83526690Y-90541928D01*
X83980261Y-85371214D02*
X83677880Y-85582880D01*
X83980261Y-85734071D02*
X83345261Y-85734071D01*
X83345261Y-85492166D01*
X83375500Y-85431690D01*
X83405738Y-85401452D01*
X83466214Y-85371214D01*
X83556928Y-85371214D01*
X83617404Y-85401452D01*
X83647642Y-85431690D01*
X83677880Y-85492166D01*
X83677880Y-85734071D01*
X83980261Y-84766452D02*
X83980261Y-85129309D01*
X83980261Y-84947880D02*
X83345261Y-84947880D01*
X83435976Y-85008357D01*
X83496452Y-85068833D01*
X83526690Y-85129309D01*
X83980261Y-84161690D02*
X83980261Y-84524547D01*
X83980261Y-84343119D02*
X83345261Y-84343119D01*
X83435976Y-84403595D01*
X83496452Y-84464071D01*
X83526690Y-84524547D01*
X83287261Y-79439714D02*
X82984880Y-79651380D01*
X83287261Y-79802571D02*
X82652261Y-79802571D01*
X82652261Y-79560666D01*
X82682500Y-79500190D01*
X82712738Y-79469952D01*
X82773214Y-79439714D01*
X82863928Y-79439714D01*
X82924404Y-79469952D01*
X82954642Y-79500190D01*
X82984880Y-79560666D01*
X82984880Y-79802571D01*
X83287261Y-78834952D02*
X83287261Y-79197809D01*
X83287261Y-79016380D02*
X82652261Y-79016380D01*
X82742976Y-79076857D01*
X82803452Y-79137333D01*
X82833690Y-79197809D01*
X82712738Y-78593047D02*
X82682500Y-78562809D01*
X82652261Y-78502333D01*
X82652261Y-78351142D01*
X82682500Y-78290666D01*
X82712738Y-78260428D01*
X82773214Y-78230190D01*
X82833690Y-78230190D01*
X82924404Y-78260428D01*
X83287261Y-78623285D01*
X83287261Y-78230190D01*
X99066261Y-87593714D02*
X98763880Y-87805380D01*
X99066261Y-87956571D02*
X98431261Y-87956571D01*
X98431261Y-87714666D01*
X98461500Y-87654190D01*
X98491738Y-87623952D01*
X98552214Y-87593714D01*
X98642928Y-87593714D01*
X98703404Y-87623952D01*
X98733642Y-87654190D01*
X98763880Y-87714666D01*
X98763880Y-87956571D01*
X99066261Y-86988952D02*
X99066261Y-87351809D01*
X99066261Y-87170380D02*
X98431261Y-87170380D01*
X98521976Y-87230857D01*
X98582452Y-87291333D01*
X98612690Y-87351809D01*
X98431261Y-86595857D02*
X98431261Y-86535380D01*
X98461500Y-86474904D01*
X98491738Y-86444666D01*
X98552214Y-86414428D01*
X98673166Y-86384190D01*
X98824357Y-86384190D01*
X98945309Y-86414428D01*
X99005785Y-86444666D01*
X99036023Y-86474904D01*
X99066261Y-86535380D01*
X99066261Y-86595857D01*
X99036023Y-86656333D01*
X99005785Y-86686571D01*
X98945309Y-86716809D01*
X98824357Y-86747047D01*
X98673166Y-86747047D01*
X98552214Y-86716809D01*
X98491738Y-86686571D01*
X98461500Y-86656333D01*
X98431261Y-86595857D01*
X99066261Y-84941833D02*
X98763880Y-85153500D01*
X99066261Y-85304690D02*
X98431261Y-85304690D01*
X98431261Y-85062785D01*
X98461500Y-85002309D01*
X98491738Y-84972071D01*
X98552214Y-84941833D01*
X98642928Y-84941833D01*
X98703404Y-84972071D01*
X98733642Y-85002309D01*
X98763880Y-85062785D01*
X98763880Y-85304690D01*
X99066261Y-84639452D02*
X99066261Y-84518500D01*
X99036023Y-84458023D01*
X99005785Y-84427785D01*
X98915071Y-84367309D01*
X98794119Y-84337071D01*
X98552214Y-84337071D01*
X98491738Y-84367309D01*
X98461500Y-84397547D01*
X98431261Y-84458023D01*
X98431261Y-84578976D01*
X98461500Y-84639452D01*
X98491738Y-84669690D01*
X98552214Y-84699928D01*
X98703404Y-84699928D01*
X98763880Y-84669690D01*
X98794119Y-84639452D01*
X98824357Y-84578976D01*
X98824357Y-84458023D01*
X98794119Y-84397547D01*
X98763880Y-84367309D01*
X98703404Y-84337071D01*
X103538261Y-88679866D02*
X103991833Y-88679866D01*
X104082547Y-88710104D01*
X104143023Y-88770580D01*
X104173261Y-88861295D01*
X104173261Y-88921771D01*
X103538261Y-88437961D02*
X103538261Y-88014628D01*
X104173261Y-88286771D01*
X92806761Y-103864833D02*
X92504380Y-104076500D01*
X92806761Y-104227690D02*
X92171761Y-104227690D01*
X92171761Y-103985785D01*
X92202000Y-103925309D01*
X92232238Y-103895071D01*
X92292714Y-103864833D01*
X92383428Y-103864833D01*
X92443904Y-103895071D01*
X92474142Y-103925309D01*
X92504380Y-103985785D01*
X92504380Y-104227690D01*
X92232238Y-103622928D02*
X92202000Y-103592690D01*
X92171761Y-103532214D01*
X92171761Y-103381023D01*
X92202000Y-103320547D01*
X92232238Y-103290309D01*
X92292714Y-103260071D01*
X92353190Y-103260071D01*
X92443904Y-103290309D01*
X92806761Y-103653166D01*
X92806761Y-103260071D01*
X91845190Y-92806761D02*
X91845190Y-93320809D01*
X91875428Y-93381285D01*
X91905666Y-93411523D01*
X91966142Y-93441761D01*
X92087095Y-93441761D01*
X92147571Y-93411523D01*
X92177809Y-93381285D01*
X92208047Y-93320809D01*
X92208047Y-92806761D01*
X92480190Y-92867238D02*
X92510428Y-92837000D01*
X92570904Y-92806761D01*
X92722095Y-92806761D01*
X92782571Y-92837000D01*
X92812809Y-92867238D01*
X92843047Y-92927714D01*
X92843047Y-92988190D01*
X92812809Y-93078904D01*
X92449952Y-93441761D01*
X92843047Y-93441761D01*
X111276190Y-98470961D02*
X111276190Y-98985009D01*
X111306428Y-99045485D01*
X111336666Y-99075723D01*
X111397142Y-99105961D01*
X111518095Y-99105961D01*
X111578571Y-99075723D01*
X111608809Y-99045485D01*
X111639047Y-98985009D01*
X111639047Y-98470961D01*
X112274047Y-99105961D02*
X111911190Y-99105961D01*
X112092619Y-99105961D02*
X112092619Y-98470961D01*
X112032142Y-98561676D01*
X111971666Y-98622152D01*
X111911190Y-98652390D01*
X97687190Y-102839761D02*
X97687190Y-103353809D01*
X97717428Y-103414285D01*
X97747666Y-103444523D01*
X97808142Y-103474761D01*
X97929095Y-103474761D01*
X97989571Y-103444523D01*
X98019809Y-103414285D01*
X98050047Y-103353809D01*
X98050047Y-102839761D01*
X98291952Y-102839761D02*
X98715285Y-102839761D01*
X98443142Y-103474761D01*
X81745666Y-85467761D02*
X81534000Y-85165380D01*
X81382809Y-85467761D02*
X81382809Y-84832761D01*
X81624714Y-84832761D01*
X81685190Y-84863000D01*
X81715428Y-84893238D01*
X81745666Y-84953714D01*
X81745666Y-85044428D01*
X81715428Y-85104904D01*
X81685190Y-85135142D01*
X81624714Y-85165380D01*
X81382809Y-85165380D01*
X82289952Y-85044428D02*
X82289952Y-85467761D01*
X82138761Y-84802523D02*
X81987571Y-85256095D01*
X82380666Y-85256095D01*
X101714166Y-106956785D02*
X101683928Y-106987023D01*
X101593214Y-107017261D01*
X101532738Y-107017261D01*
X101442023Y-106987023D01*
X101381547Y-106926547D01*
X101351309Y-106866071D01*
X101321071Y-106745119D01*
X101321071Y-106654404D01*
X101351309Y-106533452D01*
X101381547Y-106472976D01*
X101442023Y-106412500D01*
X101532738Y-106382261D01*
X101593214Y-106382261D01*
X101683928Y-106412500D01*
X101714166Y-106442738D01*
X102077023Y-106654404D02*
X102016547Y-106624166D01*
X101986309Y-106593928D01*
X101956071Y-106533452D01*
X101956071Y-106503214D01*
X101986309Y-106442738D01*
X102016547Y-106412500D01*
X102077023Y-106382261D01*
X102197976Y-106382261D01*
X102258452Y-106412500D01*
X102288690Y-106442738D01*
X102318928Y-106503214D01*
X102318928Y-106533452D01*
X102288690Y-106593928D01*
X102258452Y-106624166D01*
X102197976Y-106654404D01*
X102077023Y-106654404D01*
X102016547Y-106684642D01*
X101986309Y-106714880D01*
X101956071Y-106775357D01*
X101956071Y-106896309D01*
X101986309Y-106956785D01*
X102016547Y-106987023D01*
X102077023Y-107017261D01*
X102197976Y-107017261D01*
X102258452Y-106987023D01*
X102288690Y-106956785D01*
X102318928Y-106896309D01*
X102318928Y-106775357D01*
X102288690Y-106714880D01*
X102258452Y-106684642D01*
X102197976Y-106654404D01*
X96492785Y-105579333D02*
X96523023Y-105609571D01*
X96553261Y-105700285D01*
X96553261Y-105760761D01*
X96523023Y-105851476D01*
X96462547Y-105911952D01*
X96402071Y-105942190D01*
X96281119Y-105972428D01*
X96190404Y-105972428D01*
X96069452Y-105942190D01*
X96008976Y-105911952D01*
X95948500Y-105851476D01*
X95918261Y-105760761D01*
X95918261Y-105700285D01*
X95948500Y-105609571D01*
X95978738Y-105579333D01*
X96129928Y-105035047D02*
X96553261Y-105035047D01*
X95888023Y-105186238D02*
X96341595Y-105337428D01*
X96341595Y-104944333D01*
X99610333Y-77820761D02*
X99610333Y-78274333D01*
X99580095Y-78365047D01*
X99519619Y-78425523D01*
X99428904Y-78455761D01*
X99368428Y-78455761D01*
X100215095Y-77820761D02*
X99912714Y-77820761D01*
X99882476Y-78123142D01*
X99912714Y-78092904D01*
X99973190Y-78062666D01*
X100124380Y-78062666D01*
X100184857Y-78092904D01*
X100215095Y-78123142D01*
X100245333Y-78183619D01*
X100245333Y-78334809D01*
X100215095Y-78395285D01*
X100184857Y-78425523D01*
X100124380Y-78455761D01*
X99973190Y-78455761D01*
X99912714Y-78425523D01*
X99882476Y-78395285D01*
X84107261Y-102957690D02*
X83472261Y-102957690D01*
X83472261Y-102806500D01*
X83502500Y-102715785D01*
X83562976Y-102655309D01*
X83623452Y-102625071D01*
X83744404Y-102594833D01*
X83835119Y-102594833D01*
X83956071Y-102625071D01*
X84016547Y-102655309D01*
X84077023Y-102715785D01*
X84107261Y-102806500D01*
X84107261Y-102957690D01*
X83532738Y-102352928D02*
X83502500Y-102322690D01*
X83472261Y-102262214D01*
X83472261Y-102111023D01*
X83502500Y-102050547D01*
X83532738Y-102020309D01*
X83593214Y-101990071D01*
X83653690Y-101990071D01*
X83744404Y-102020309D01*
X84107261Y-102383166D01*
X84107261Y-101990071D01*
X88171261Y-101067809D02*
X88685309Y-101067809D01*
X88745785Y-101037571D01*
X88776023Y-101007333D01*
X88806261Y-100946857D01*
X88806261Y-100825904D01*
X88776023Y-100765428D01*
X88745785Y-100735190D01*
X88685309Y-100704952D01*
X88171261Y-100704952D01*
X88382928Y-100130428D02*
X88806261Y-100130428D01*
X88141023Y-100281619D02*
X88594595Y-100432809D01*
X88594595Y-100039714D01*
X95159285Y-105579333D02*
X95189523Y-105609571D01*
X95219761Y-105700285D01*
X95219761Y-105760761D01*
X95189523Y-105851476D01*
X95129047Y-105911952D01*
X95068571Y-105942190D01*
X94947619Y-105972428D01*
X94856904Y-105972428D01*
X94735952Y-105942190D01*
X94675476Y-105911952D01*
X94615000Y-105851476D01*
X94584761Y-105760761D01*
X94584761Y-105700285D01*
X94615000Y-105609571D01*
X94645238Y-105579333D01*
X94584761Y-105035047D02*
X94584761Y-105156000D01*
X94615000Y-105216476D01*
X94645238Y-105246714D01*
X94735952Y-105307190D01*
X94856904Y-105337428D01*
X95098809Y-105337428D01*
X95159285Y-105307190D01*
X95189523Y-105276952D01*
X95219761Y-105216476D01*
X95219761Y-105095523D01*
X95189523Y-105035047D01*
X95159285Y-105004809D01*
X95098809Y-104974571D01*
X94947619Y-104974571D01*
X94887142Y-105004809D01*
X94856904Y-105035047D01*
X94826666Y-105095523D01*
X94826666Y-105216476D01*
X94856904Y-105276952D01*
X94887142Y-105307190D01*
X94947619Y-105337428D01*
X88552261Y-97006833D02*
X88249880Y-97218500D01*
X88552261Y-97369690D02*
X87917261Y-97369690D01*
X87917261Y-97127785D01*
X87947500Y-97067309D01*
X87977738Y-97037071D01*
X88038214Y-97006833D01*
X88128928Y-97006833D01*
X88189404Y-97037071D01*
X88219642Y-97067309D01*
X88249880Y-97127785D01*
X88249880Y-97369690D01*
X87917261Y-96432309D02*
X87917261Y-96734690D01*
X88219642Y-96764928D01*
X88189404Y-96734690D01*
X88159166Y-96674214D01*
X88159166Y-96523023D01*
X88189404Y-96462547D01*
X88219642Y-96432309D01*
X88280119Y-96402071D01*
X88431309Y-96402071D01*
X88491785Y-96432309D01*
X88522023Y-96462547D01*
X88552261Y-96523023D01*
X88552261Y-96674214D01*
X88522023Y-96734690D01*
X88491785Y-96764928D01*
X81745666Y-88361761D02*
X81534000Y-88059380D01*
X81382809Y-88361761D02*
X81382809Y-87726761D01*
X81624714Y-87726761D01*
X81685190Y-87757000D01*
X81715428Y-87787238D01*
X81745666Y-87847714D01*
X81745666Y-87938428D01*
X81715428Y-87998904D01*
X81685190Y-88029142D01*
X81624714Y-88059380D01*
X81382809Y-88059380D01*
X82289952Y-87726761D02*
X82169000Y-87726761D01*
X82108523Y-87757000D01*
X82078285Y-87787238D01*
X82017809Y-87877952D01*
X81987571Y-87998904D01*
X81987571Y-88240809D01*
X82017809Y-88301285D01*
X82048047Y-88331523D01*
X82108523Y-88361761D01*
X82229476Y-88361761D01*
X82289952Y-88331523D01*
X82320190Y-88301285D01*
X82350428Y-88240809D01*
X82350428Y-88089619D01*
X82320190Y-88029142D01*
X82289952Y-87998904D01*
X82229476Y-87968666D01*
X82108523Y-87968666D01*
X82048047Y-87998904D01*
X82017809Y-88029142D01*
X81987571Y-88089619D01*
X79586666Y-90992261D02*
X79375000Y-90689880D01*
X79223809Y-90992261D02*
X79223809Y-90357261D01*
X79465714Y-90357261D01*
X79526190Y-90387500D01*
X79556428Y-90417738D01*
X79586666Y-90478214D01*
X79586666Y-90568928D01*
X79556428Y-90629404D01*
X79526190Y-90659642D01*
X79465714Y-90689880D01*
X79223809Y-90689880D01*
X79798333Y-90357261D02*
X80221666Y-90357261D01*
X79949523Y-90992261D01*
X79586666Y-92198761D02*
X79375000Y-91896380D01*
X79223809Y-92198761D02*
X79223809Y-91563761D01*
X79465714Y-91563761D01*
X79526190Y-91594000D01*
X79556428Y-91624238D01*
X79586666Y-91684714D01*
X79586666Y-91775428D01*
X79556428Y-91835904D01*
X79526190Y-91866142D01*
X79465714Y-91896380D01*
X79223809Y-91896380D01*
X79949523Y-91835904D02*
X79889047Y-91805666D01*
X79858809Y-91775428D01*
X79828571Y-91714952D01*
X79828571Y-91684714D01*
X79858809Y-91624238D01*
X79889047Y-91594000D01*
X79949523Y-91563761D01*
X80070476Y-91563761D01*
X80130952Y-91594000D01*
X80161190Y-91624238D01*
X80191428Y-91684714D01*
X80191428Y-91714952D01*
X80161190Y-91775428D01*
X80130952Y-91805666D01*
X80070476Y-91835904D01*
X79949523Y-91835904D01*
X79889047Y-91866142D01*
X79858809Y-91896380D01*
X79828571Y-91956857D01*
X79828571Y-92077809D01*
X79858809Y-92138285D01*
X79889047Y-92168523D01*
X79949523Y-92198761D01*
X80070476Y-92198761D01*
X80130952Y-92168523D01*
X80161190Y-92138285D01*
X80191428Y-92077809D01*
X80191428Y-91956857D01*
X80161190Y-91896380D01*
X80130952Y-91866142D01*
X80070476Y-91835904D01*
D20*
X85757142Y-83207142D02*
X85557142Y-83207142D01*
X85557142Y-83521428D02*
X85557142Y-82921428D01*
X85842857Y-82921428D01*
X86357142Y-83521428D02*
X86071428Y-83521428D01*
X86071428Y-82921428D01*
X86871428Y-83521428D02*
X86528571Y-83521428D01*
X86700000Y-83521428D02*
X86700000Y-82921428D01*
X86642857Y-83007142D01*
X86585714Y-83064285D01*
X86528571Y-83092857D01*
X85757142Y-79207142D02*
X85557142Y-79207142D01*
X85557142Y-79521428D02*
X85557142Y-78921428D01*
X85842857Y-78921428D01*
X86357142Y-79521428D02*
X86071428Y-79521428D01*
X86071428Y-78921428D01*
X86528571Y-78978571D02*
X86557142Y-78950000D01*
X86614285Y-78921428D01*
X86757142Y-78921428D01*
X86814285Y-78950000D01*
X86842857Y-78978571D01*
X86871428Y-79035714D01*
X86871428Y-79092857D01*
X86842857Y-79178571D01*
X86500000Y-79521428D01*
X86871428Y-79521428D01*
X85757142Y-87457142D02*
X85557142Y-87457142D01*
X85557142Y-87771428D02*
X85557142Y-87171428D01*
X85842857Y-87171428D01*
X86357142Y-87771428D02*
X86071428Y-87771428D01*
X86071428Y-87171428D01*
X86500000Y-87171428D02*
X86871428Y-87171428D01*
X86671428Y-87400000D01*
X86757142Y-87400000D01*
X86814285Y-87428571D01*
X86842857Y-87457142D01*
X86871428Y-87514285D01*
X86871428Y-87657142D01*
X86842857Y-87714285D01*
X86814285Y-87742857D01*
X86757142Y-87771428D01*
X86585714Y-87771428D01*
X86528571Y-87742857D01*
X86500000Y-87714285D01*
X89601428Y-97650714D02*
X89315714Y-97850714D01*
X89601428Y-97993571D02*
X89001428Y-97993571D01*
X89001428Y-97765000D01*
X89030000Y-97707857D01*
X89058571Y-97679285D01*
X89115714Y-97650714D01*
X89201428Y-97650714D01*
X89258571Y-97679285D01*
X89287142Y-97707857D01*
X89315714Y-97765000D01*
X89315714Y-97993571D01*
X89058571Y-97422142D02*
X89030000Y-97393571D01*
X89001428Y-97336428D01*
X89001428Y-97193571D01*
X89030000Y-97136428D01*
X89058571Y-97107857D01*
X89115714Y-97079285D01*
X89172857Y-97079285D01*
X89258571Y-97107857D01*
X89601428Y-97450714D01*
X89601428Y-97079285D01*
X89201428Y-96565000D02*
X89601428Y-96565000D01*
X88972857Y-96707857D02*
X89401428Y-96850714D01*
X89401428Y-96479285D01*
D21*
X93866666Y-85466666D02*
X93866666Y-86033333D01*
X93900000Y-86100000D01*
X93933333Y-86133333D01*
X94000000Y-86166666D01*
X94133333Y-86166666D01*
X94200000Y-86133333D01*
X94233333Y-86100000D01*
X94266666Y-86033333D01*
X94266666Y-85466666D01*
X94533333Y-85466666D02*
X94966666Y-85466666D01*
X94733333Y-85733333D01*
X94833333Y-85733333D01*
X94900000Y-85766666D01*
X94933333Y-85800000D01*
X94966666Y-85866666D01*
X94966666Y-86033333D01*
X94933333Y-86100000D01*
X94900000Y-86133333D01*
X94833333Y-86166666D01*
X94633333Y-86166666D01*
X94566666Y-86133333D01*
X94533333Y-86100000D01*
X94116666Y-81116666D02*
X94116666Y-81683333D01*
X94150000Y-81750000D01*
X94183333Y-81783333D01*
X94250000Y-81816666D01*
X94383333Y-81816666D01*
X94450000Y-81783333D01*
X94483333Y-81750000D01*
X94516666Y-81683333D01*
X94516666Y-81116666D01*
X95183333Y-81116666D02*
X94850000Y-81116666D01*
X94816666Y-81450000D01*
X94850000Y-81416666D01*
X94916666Y-81383333D01*
X95083333Y-81383333D01*
X95150000Y-81416666D01*
X95183333Y-81450000D01*
X95216666Y-81516666D01*
X95216666Y-81683333D01*
X95183333Y-81750000D01*
X95150000Y-81783333D01*
X95083333Y-81816666D01*
X94916666Y-81816666D01*
X94850000Y-81783333D01*
X94816666Y-81750000D01*
D20*
X93507142Y-89671428D02*
X93507142Y-90157142D01*
X93535714Y-90214285D01*
X93564285Y-90242857D01*
X93621428Y-90271428D01*
X93735714Y-90271428D01*
X93792857Y-90242857D01*
X93821428Y-90214285D01*
X93850000Y-90157142D01*
X93850000Y-89671428D01*
X94450000Y-90271428D02*
X94107142Y-90271428D01*
X94278571Y-90271428D02*
X94278571Y-89671428D01*
X94221428Y-89757142D01*
X94164285Y-89814285D01*
X94107142Y-89842857D01*
X95021428Y-90271428D02*
X94678571Y-90271428D01*
X94850000Y-90271428D02*
X94850000Y-89671428D01*
X94792857Y-89757142D01*
X94735714Y-89814285D01*
X94678571Y-89842857D01*
M02*
