M48
;DRILL file {KiCad 5.0.2-bee76a0~70~ubuntu18.04.1} date Sat 29 Feb 2020 05:46:39 PM PST
;FORMAT={-:-/ absolute / inch / decimal}
FMAT,2
INCH,TZ
T1C0.0118
T2C0.0354
T3C0.0394
T4C0.0472
%
G90
G05
T1
X3.175Y-3.25
X3.185Y-3.36
X3.185Y-3.5425
X3.185Y-3.4525
X3.1949Y-3.6535
X3.2421Y-3.2244
X3.25Y-3.57
X3.25Y-3.7075
X3.25Y-3.7575
X3.25Y-3.805
X3.252Y-3.1398
X3.252Y-3.2972
X3.252Y-3.3465
X3.252Y-3.3925
X3.2539Y-3.4547
X3.2539Y-3.4941
X3.2539Y-3.5315
X3.26Y-3.42
X3.2677Y-4.015
X3.2697Y-4.0492
X3.309Y-3.599
X3.31Y-4.0658
X3.333Y-3.942
X3.3346Y-3.3169
X3.3366Y-3.1811
X3.3374Y-3.4359
X3.34Y-3.1075
X3.348Y-3.5354
X3.3484Y-3.3622
X3.3486Y-3.2071
X3.35Y-3.4749
X3.3524Y-3.2638
X3.3789Y-3.2451
X3.3799Y-3.1476
X3.405Y-3.7075
X3.405Y-3.7575
X3.4175Y-4.0675
X3.435Y-3.865
X3.46Y-4.
X3.4739Y-3.847
X3.4921Y-3.5138
X3.4961Y-3.3465
X3.5Y-3.189
X3.502Y-3.2341
X3.502Y-3.2638
X3.502Y-3.3957
X3.502Y-3.4291
X3.502Y-3.563
X3.5039Y-3.5945
X3.5335Y-3.061
X3.565Y-4.
X3.5807Y-4.07
X3.5895Y-3.85
X3.5925Y-3.2913
X3.6063Y-3.7461
X3.61Y-3.79
X3.61Y-3.83
X3.61Y-3.87
X3.615Y-4.
X3.6237Y-3.718
X3.6257Y-3.689
X3.6299Y-3.061
X3.6319Y-3.7697
X3.6324Y-3.8885
X3.64Y-3.81
X3.6614Y-3.0669
X3.6708Y-3.949
X3.675Y-3.99
X3.68Y-4.1325
X3.685Y-3.5886
X3.687Y-3.1496
X3.687Y-3.4252
X3.6909Y-3.5571
X3.6929Y-3.3957
X3.6949Y-3.4783
X3.6949Y-3.5217
X3.705Y-4.025
X3.7067Y-3.1752
X3.7075Y-4.065
X3.7087Y-3.2087
X3.7087Y-3.3209
X3.7087Y-3.3563
X3.7146Y-3.2421
X3.7146Y-3.2717
X3.715Y-3.89
X3.7378Y-3.6457
X3.738Y-3.9902
X3.75Y-3.735
X3.7598Y-3.5236
X3.7618Y-3.563
X3.7675Y-3.89
X3.7697Y-3.6339
X3.7776Y-3.9902
X3.7975Y-3.6525
X3.815Y-3.89
X3.82Y-4.105
X3.8249Y-3.9921
X3.825Y-3.805
X3.8344Y-3.6004
X3.8475Y-3.7275
X3.8543Y-3.2441
X3.855Y-3.6225
X3.8596Y-4.0388
X3.8622Y-3.1476
X3.8701Y-4.1929
X3.875Y-3.5984
X3.88Y-3.8325
X3.8814Y-4.0202
X3.8875Y-3.9125
X3.889Y-4.0691
X3.895Y-3.6225
X3.9Y-3.14
X3.9129Y-4.0195
X3.9134Y-3.2461
X3.917Y-4.063
X3.9213Y-3.9921
X3.9252Y-3.6437
X3.935Y-3.2925
X3.935Y-3.3875
X3.94Y-3.225
X3.945Y-4.0775
X3.9469Y-3.9705
X3.9528Y-3.6811
X3.955Y-3.498
X3.955Y-3.5433
X3.9749Y-3.8253
X3.975Y-3.71
X3.9793Y-3.8687
X3.9843Y-3.9213
X3.9875Y-4.17
X3.995Y-4.04
X4.0044Y-3.9009
X4.005Y-3.73
X4.005Y-3.77
X4.005Y-3.81
X4.0175Y-3.1075
X4.026Y-3.601
X4.0284Y-3.8853
X4.0295Y-3.79
X4.0875Y-3.455
X4.089Y-3.887
X4.09Y-3.295
X4.099Y-4.058
X4.125Y-3.2175
X4.1375Y-3.0925
X4.1437Y-3.9311
X4.153Y-3.555
X4.153Y-3.595
X4.215Y-3.1975
X4.2559Y-3.1693
X4.26Y-3.415
X4.315Y-3.124
X4.3366Y-3.1696
X4.3676Y-3.1476
X4.4025Y-3.1925
X4.4025Y-3.44
X4.4025Y-3.865
X4.445Y-3.525
X4.455Y-4.188
X4.4975Y-3.44
X4.5Y-3.8307
X4.5075Y-3.9825
X4.5462Y-3.5263
X4.5925Y-3.755
X4.5925Y-3.9275
X4.6125Y-3.84
X4.645Y-3.1575
X4.6525Y-3.0925
X4.6525Y-3.25
X4.6525Y-3.8025
X4.6525Y-3.865
X4.6525Y-4.01
X4.655Y-3.015
X4.655Y-3.9325
X4.655Y-4.09
X4.71Y-3.3625
X4.71Y-3.4425
X4.7125Y-3.5325
T2
X3.216Y-3.9405
X3.216Y-4.1374
T3
X3.345Y-3.03
X3.445Y-3.03
T4
X3.1097Y-3.9011
X3.1097Y-4.1767
T0
M30
