%TF.GenerationSoftware,KiCad,Pcbnew,(5.1.4)-1*%
%TF.CreationDate,2019-12-19T18:18:08-07:00*%
%TF.ProjectId,mainboard,6d61696e-626f-4617-9264-2e6b69636164,rev?*%
%TF.SameCoordinates,Original*%
%TF.FileFunction,Copper,L3,Inr*%
%TF.FilePolarity,Positive*%
%FSLAX46Y46*%
G04 Gerber Fmt 4.6, Leading zero omitted, Abs format (unit mm)*
G04 Created by KiCad (PCBNEW (5.1.4)-1) date 2019-12-19 18:18:08*
%MOMM*%
%LPD*%
G04 APERTURE LIST*
%ADD10C,0.150000*%
%ADD11O,1.700000X1.700000*%
%ADD12C,1.408000*%
%ADD13C,1.800000*%
%ADD14C,0.450000*%
%ADD15C,0.152400*%
G04 APERTURE END LIST*
D10*
X120902460Y-74415942D02*
X120102459Y-74415941D01*
X85102460Y-74415941D02*
G75*
G02X84602460Y-73915941I0J500000D01*
G01*
X113602459Y-73915941D02*
G75*
G02X113102459Y-74415941I-500000J0D01*
G01*
X113102459Y-107215941D02*
G75*
G02X113602459Y-107715941I0J-500000D01*
G01*
X84602460Y-107715941D02*
G75*
G02X85102460Y-107215941I500000J0D01*
G01*
X77340460Y-91475941D02*
X76502460Y-92313941D01*
X77340460Y-98555940D02*
X76502460Y-97790000D01*
X120102460Y-72915941D02*
X113602460Y-72915941D01*
X113602459Y-107715941D02*
X113602460Y-108715941D01*
X85102460Y-107215941D02*
X113102459Y-107215941D01*
X84602460Y-108715941D02*
X84602460Y-107715941D01*
X113602460Y-108715941D02*
X120102459Y-108715940D01*
X113102459Y-74415941D02*
X93872460Y-74415941D01*
X113602460Y-72915941D02*
X113602459Y-73915941D01*
X78102460Y-72915941D02*
X78102460Y-74415941D01*
X93872460Y-74415941D02*
X93872460Y-75565000D01*
X93872460Y-75565000D02*
X89872460Y-75565000D01*
X78102460Y-74415941D02*
X77340460Y-74415941D01*
X77340460Y-74415941D02*
X77340460Y-91475941D01*
X120102460Y-107215940D02*
X120902460Y-107215940D01*
X120102459Y-74415941D02*
X120102460Y-72915941D01*
X89872460Y-75565000D02*
X89872460Y-74415941D01*
X84602460Y-72915941D02*
X78102460Y-72915941D01*
X84602460Y-73915941D02*
X84602460Y-72915941D01*
X89872460Y-74415941D02*
X85102460Y-74415941D01*
X76502460Y-92313941D02*
X76502460Y-97790000D01*
X120902460Y-107215940D02*
X120902460Y-74415942D01*
X78102460Y-107215940D02*
X78102460Y-108715940D01*
X120102459Y-108715940D02*
X120102460Y-107215940D01*
X77340460Y-98555940D02*
X77340460Y-107215940D01*
X78102460Y-108715940D02*
X84602460Y-108715941D01*
X77340460Y-107215940D02*
X78102460Y-107215940D01*
D11*
X87503000Y-76962000D03*
X84963000Y-76962000D03*
D12*
X81687300Y-100088700D03*
X81687300Y-105088700D03*
D13*
X78987300Y-99088700D03*
X78987300Y-106088700D03*
D14*
X98552000Y-97345500D03*
X98742500Y-99377500D03*
X96901000Y-98806000D03*
X95694500Y-98806000D03*
X94361000Y-98806000D03*
X90043000Y-87503000D03*
X90805000Y-89027000D03*
X89852500Y-88455500D03*
X90551000Y-101600000D03*
X91821000Y-101600000D03*
X88925400Y-89331800D03*
X88963500Y-87630000D03*
X90868500Y-83312000D03*
X89090500Y-82359500D03*
X89090500Y-81597500D03*
X89090500Y-83248500D03*
X90741500Y-81915000D03*
X84582000Y-79756000D03*
X93980000Y-82740500D03*
X84582000Y-84264500D03*
X113157000Y-106375200D03*
X82550000Y-95440500D03*
X103822500Y-87757000D03*
X97726500Y-94678500D03*
X97155000Y-96647000D03*
X95250000Y-94869000D03*
X119697500Y-89725500D03*
X118237000Y-76581000D03*
X88328500Y-97726500D03*
X84658200Y-100126800D03*
X93878400Y-88773000D03*
X114554000Y-97202210D03*
X100380800Y-88849200D03*
X100380800Y-90119200D03*
X102260400Y-91465400D03*
X105486200Y-90297000D03*
X105486200Y-91313000D03*
X92456010Y-98806000D03*
X82804014Y-102621513D03*
X91694000Y-98298000D03*
X82804000Y-101981000D03*
X98425000Y-101282506D03*
X86487000Y-94170500D03*
X98422460Y-102207060D03*
X86487000Y-95440500D03*
X98425000Y-92773500D03*
X118173500Y-78549500D03*
X116649500Y-95377000D03*
X99060000Y-79755984D03*
X118237000Y-103886000D03*
X109676362Y-79429379D03*
X98933000Y-92011500D03*
X118173500Y-82550000D03*
X117157500Y-97536000D03*
X110224690Y-80581500D03*
X99441000Y-82613500D03*
X118237000Y-99885496D03*
X99441000Y-92710000D03*
X116649500Y-99758500D03*
X111125000Y-80136986D03*
X100076000Y-81915000D03*
X117983000Y-80200500D03*
X118173500Y-101853990D03*
X96901000Y-101282500D03*
X97472500Y-92773500D03*
X100965000Y-97282000D03*
X101282500Y-105918000D03*
X93238320Y-100304600D03*
X97028000Y-104267000D03*
X93472000Y-104965488D03*
X91757500Y-89408000D03*
X86029456Y-79676658D03*
X82550000Y-94170500D03*
X87249000Y-98171000D03*
X105283000Y-100203000D03*
X80962500Y-92583000D03*
X80899000Y-89979500D03*
X100203000Y-103568500D03*
X80899006Y-87693500D03*
X80899000Y-85344000D03*
X87884000Y-101600000D03*
X97519590Y-101282500D03*
X112903000Y-89535000D03*
X101473000Y-102616000D03*
X98298000Y-106426000D03*
X100965000Y-98297998D03*
X114236500Y-87376000D03*
X80645000Y-82550000D03*
X104775000Y-81724500D03*
X107061000Y-81216500D03*
X108204000Y-80708500D03*
X108204000Y-86741000D03*
X91757500Y-83375500D03*
X95885000Y-101282500D03*
X99363750Y-101489357D03*
X114490500Y-101155500D03*
X82804000Y-81661000D03*
X84582000Y-82740500D03*
X94932500Y-101282500D03*
X103860600Y-98729800D03*
X101727008Y-96774000D03*
X118173500Y-96583500D03*
X94170500Y-103251000D03*
X86804506Y-103314500D03*
X82550000Y-96647000D03*
X94107000Y-102235000D03*
X90678000Y-103378000D03*
X84836000Y-78930506D03*
X99949000Y-83629500D03*
X102044504Y-78930500D03*
X89789000Y-84899500D03*
X89154000Y-78930500D03*
X92432267Y-94742000D03*
X82804000Y-90678000D03*
X99314000Y-102742990D03*
X82804000Y-86868000D03*
X100966697Y-99584812D03*
X91694000Y-94234000D03*
X84048600Y-91414600D03*
X99314000Y-103378000D03*
X82804000Y-86169500D03*
X101599996Y-99170710D03*
X91694000Y-96266000D03*
X84585924Y-87501373D03*
X91694000Y-97282000D03*
X82804000Y-87757000D03*
X97917000Y-92011500D03*
X97980500Y-82042000D03*
X96456500Y-92773500D03*
X97734479Y-80062489D03*
X94429956Y-92773893D03*
X93980000Y-84963000D03*
X94932500Y-92075000D03*
X93980000Y-84074000D03*
X95440500Y-92773500D03*
X94107000Y-81216500D03*
X95948500Y-92075000D03*
X94107000Y-80390996D03*
X84582000Y-88613490D03*
X93378020Y-92661740D03*
X92811592Y-91363800D03*
X92468946Y-97738216D03*
X93980000Y-90068400D03*
X100076000Y-100656621D03*
X118173500Y-98170998D03*
X104114600Y-103073200D03*
X102234994Y-98742500D03*
X100965000Y-94234000D03*
X105092500Y-78549500D03*
X101727000Y-94742000D03*
X103886000Y-83692999D03*
X100965000Y-96266000D03*
X119634000Y-87439500D03*
X101727000Y-95758000D03*
X119634000Y-85407500D03*
X115474750Y-89566750D03*
X92456000Y-96774000D03*
X88080216Y-80645000D03*
X88455500Y-86169500D03*
X92455988Y-95758000D03*
X85800000Y-84690000D03*
X85790000Y-90730000D03*
X93345000Y-101346010D03*
X84074000Y-103271320D03*
X82804000Y-89731013D03*
X85914447Y-81152697D03*
X82799602Y-80449005D03*
X82804000Y-81026000D03*
X85911406Y-81782581D03*
X85915500Y-83058000D03*
X82804000Y-82550000D03*
X85915500Y-83756500D03*
X82812548Y-83126949D03*
X85852000Y-89154000D03*
X82804000Y-88449987D03*
X85864170Y-89740335D03*
X82804000Y-89027000D03*
X85863655Y-86122290D03*
X84582000Y-80772000D03*
X82804000Y-83756500D03*
X100965000Y-95250000D03*
X99949000Y-86042500D03*
X88027290Y-83438998D03*
X88027290Y-81470500D03*
X88011000Y-89408000D03*
X85788500Y-87693496D03*
X91675689Y-95268311D03*
X111823500Y-81089500D03*
X111823504Y-98171000D03*
X111823500Y-87376000D03*
X93916500Y-81978500D03*
X93916500Y-87947500D03*
D15*
X91567000Y-99250500D02*
X86487000Y-94170500D01*
X96901000Y-99250500D02*
X91567000Y-99250500D01*
X98425000Y-101282506D02*
X98425000Y-100774500D01*
X98425000Y-100774500D02*
X96901000Y-99250500D01*
X86711999Y-95665499D02*
X86487000Y-95440500D01*
X97980500Y-101765100D02*
X97980500Y-101030500D01*
X98422460Y-102207060D02*
X97980500Y-101765100D01*
X96750000Y-99800000D02*
X91035738Y-99800000D01*
X91035738Y-99800000D02*
X86901237Y-95665499D01*
X97980500Y-101030500D02*
X96750000Y-99800000D01*
X86901237Y-95665499D02*
X86711999Y-95665499D01*
X116649500Y-95377000D02*
X117157500Y-94869000D01*
X117157500Y-79565500D02*
X118173500Y-78549500D01*
X117157500Y-94869000D02*
X117157500Y-79565500D01*
X99123500Y-79819484D02*
X99060000Y-79755984D01*
X98996500Y-79819484D02*
X99123500Y-79819484D01*
X98425000Y-92773500D02*
X98425000Y-80390984D01*
X98425000Y-80390984D02*
X98996500Y-79819484D01*
X115951000Y-101600000D02*
X118237000Y-103886000D01*
X116649500Y-95377000D02*
X115951000Y-96075500D01*
X115951000Y-96075500D02*
X115951000Y-101600000D01*
X118173500Y-95631000D02*
X118173500Y-82550000D01*
X117157500Y-97536000D02*
X117157500Y-96647000D01*
X117157500Y-96647000D02*
X118173500Y-95631000D01*
X98933000Y-92011500D02*
X98933000Y-83121500D01*
X98933000Y-83121500D02*
X99441000Y-82613500D01*
X117157500Y-98805996D02*
X118237000Y-99885496D01*
X117157500Y-97536000D02*
X117157500Y-98805996D01*
X99441000Y-92710000D02*
X99441000Y-83247240D01*
X100076000Y-82612240D02*
X100076000Y-81915000D01*
X99441000Y-83247240D02*
X100076000Y-82612240D01*
X116649500Y-96417677D02*
X117602000Y-95465177D01*
X116649500Y-99758500D02*
X116649500Y-96417677D01*
X117602000Y-95465177D02*
X117602000Y-80581500D01*
X117602000Y-80581500D02*
X117983000Y-80200500D01*
X116649500Y-99758500D02*
X116649500Y-100329990D01*
X116649500Y-100329990D02*
X118173500Y-101853990D01*
X84963000Y-96647000D02*
X82550000Y-96647000D01*
X86804506Y-103314500D02*
X86804506Y-98488506D01*
X86804506Y-98488506D02*
X84963000Y-96647000D01*
X102044504Y-81533996D02*
X102044504Y-78930500D01*
X99949000Y-83629500D02*
X102044504Y-81533996D01*
X99314000Y-102742990D02*
X100966697Y-101090293D01*
X100966697Y-101090293D02*
X100966697Y-99584812D01*
X99314000Y-103378000D02*
X101599996Y-101092004D01*
X101599996Y-101092004D02*
X101599996Y-99170710D01*
X84360925Y-87726372D02*
X84585924Y-87501373D01*
X84124811Y-87962486D02*
X84360925Y-87726372D01*
X84124811Y-90279254D02*
X84124811Y-87962486D01*
X91694000Y-96266000D02*
X90111557Y-96266000D01*
X90111557Y-96266000D02*
X84124811Y-90279254D01*
X83566000Y-88519000D02*
X82804000Y-87757000D01*
X83566000Y-90297000D02*
X83566000Y-88519000D01*
X91694000Y-97282000D02*
X90551000Y-97282000D01*
X90551000Y-97282000D02*
X83566000Y-90297000D01*
X97980500Y-82816700D02*
X97980500Y-82042000D01*
X97917000Y-92011500D02*
X97980500Y-91948000D01*
X97980500Y-91948000D02*
X97980500Y-82816700D01*
X96456500Y-92773500D02*
X96456500Y-81340468D01*
X96456500Y-81340468D02*
X97734479Y-80062489D01*
X94429956Y-92773893D02*
X94429956Y-85412956D01*
X94429956Y-85412956D02*
X94204999Y-85187999D01*
X94204999Y-85187999D02*
X93980000Y-84963000D01*
X94932500Y-92075000D02*
X94932500Y-85026500D01*
X94932500Y-85026500D02*
X93980000Y-84074000D01*
X95440500Y-82550000D02*
X94107000Y-81216500D01*
X95440500Y-92773500D02*
X95440500Y-82550000D01*
X95948500Y-92075000D02*
X95948500Y-82232496D01*
X95199200Y-81483196D02*
X94107000Y-80390996D01*
X95948500Y-82232496D02*
X95199200Y-81483196D01*
X92811606Y-91363814D02*
X92811592Y-91363800D01*
X93378020Y-91930228D02*
X92811606Y-91363814D01*
X93378020Y-92661740D02*
X93378020Y-91930228D01*
X93980000Y-93200220D02*
X93980000Y-90068400D01*
X92468946Y-97738216D02*
X93980000Y-96227162D01*
X93980000Y-96227162D02*
X93980000Y-93200220D01*
X104114600Y-103073200D02*
X104114600Y-101193600D01*
X102234994Y-99313994D02*
X102234994Y-98742500D01*
X104114600Y-101193600D02*
X102234994Y-99313994D01*
X105092500Y-80010000D02*
X105092500Y-78549500D01*
X100965000Y-94234000D02*
X100965000Y-84137500D01*
X100965000Y-84137500D02*
X105092500Y-80010000D01*
X101727000Y-85851999D02*
X103661001Y-83917998D01*
X101727000Y-94742000D02*
X101727000Y-85851999D01*
X103661001Y-83917998D02*
X103886000Y-83692999D01*
X93139888Y-94620708D02*
X93139888Y-96090112D01*
X92128340Y-93609160D02*
X93139888Y-94620708D01*
X87566500Y-81158716D02*
X87566500Y-84899500D01*
X88080216Y-80645000D02*
X87566500Y-81158716D01*
X93139888Y-96090112D02*
X92456000Y-96774000D01*
X87566500Y-84899500D02*
X87566506Y-84899506D01*
X87566506Y-91147906D02*
X90027760Y-93609160D01*
X90027760Y-93609160D02*
X92128340Y-93609160D01*
X87566506Y-84899506D02*
X87566506Y-86398106D01*
X87566506Y-86398106D02*
X87566506Y-91147906D01*
X87566506Y-87058494D02*
X87566506Y-87147400D01*
X88455500Y-86169500D02*
X87566506Y-87058494D01*
X92455988Y-95439802D02*
X92286506Y-95270320D01*
X92286506Y-95270320D02*
X92283280Y-95270320D01*
X92283280Y-95270320D02*
X91719400Y-94706440D01*
X92455988Y-95758000D02*
X92455988Y-95439802D01*
X91719400Y-94706440D02*
X90261440Y-94706440D01*
X90261440Y-94706440D02*
X86868000Y-91313000D01*
X86868000Y-91313000D02*
X86868000Y-90682000D01*
X86868000Y-90682000D02*
X86868000Y-85758000D01*
X86868000Y-85758000D02*
X86024999Y-84914999D01*
X86024999Y-84914999D02*
X85800000Y-84690000D01*
X86820000Y-90730000D02*
X86108198Y-90730000D01*
X86108198Y-90730000D02*
X85790000Y-90730000D01*
X86868000Y-90682000D02*
X86820000Y-90730000D01*
X99949000Y-94231460D02*
X99949000Y-86042500D01*
X100740001Y-95022461D02*
X99949000Y-94231460D01*
X100965000Y-95250000D02*
X100740001Y-95025001D01*
X100740001Y-95025001D02*
X100740001Y-95022461D01*
X111823500Y-98170996D02*
X111823504Y-98171000D01*
X111823500Y-81089500D02*
X111823500Y-87376000D01*
X111823500Y-87376000D02*
X111823500Y-98170996D01*
M02*
