%TF.GenerationSoftware,KiCad,Pcbnew,(5.1.4)-1*%
%TF.CreationDate,2019-10-25T20:40:59-07:00*%
%TF.ProjectId,mainboard,6d61696e-626f-4617-9264-2e6b69636164,rev?*%
%TF.SameCoordinates,Original*%
%TF.FileFunction,Legend,Bot*%
%TF.FilePolarity,Positive*%
%FSLAX46Y46*%
G04 Gerber Fmt 4.6, Leading zero omitted, Abs format (unit mm)*
G04 Created by KiCad (PCBNEW (5.1.4)-1) date 2019-10-25 20:40:59*
%MOMM*%
%LPD*%
G04 APERTURE LIST*
%ADD10C,0.150000*%
%ADD11C,0.200000*%
%ADD12C,0.120000*%
%ADD13C,0.127000*%
%ADD14C,0.254000*%
G04 APERTURE END LIST*
D10*
X116700300Y-106041600D02*
X116700300Y-109041600D01*
X116700300Y-74041600D02*
X116700300Y-77041600D01*
X121710300Y-106041600D02*
X116700300Y-106041600D01*
X121710300Y-77041600D02*
X116700300Y-77041600D01*
X81725100Y-77041600D02*
X81725100Y-74041600D01*
X76715100Y-106041600D02*
X76721300Y-102057200D01*
X81725100Y-106041600D02*
X76715100Y-106041600D01*
X81725100Y-77041600D02*
X76715100Y-77041600D01*
X77532900Y-95021400D02*
X76708000Y-94513400D01*
X121710300Y-106041600D02*
X121710300Y-77041600D01*
X77546200Y-101549200D02*
X76721300Y-102057200D01*
X81725100Y-106041600D02*
X81725100Y-109041600D01*
X77532900Y-95021400D02*
X77546200Y-101549200D01*
X81725100Y-109041600D02*
X116700300Y-109041600D01*
X116700300Y-74041600D02*
X81725100Y-74041600D01*
X76715100Y-77041600D02*
X76708000Y-94513400D01*
D11*
X79408400Y-86593800D02*
X80883400Y-86593800D01*
X96562800Y-80817600D02*
X95087800Y-80817600D01*
D12*
X103355200Y-105509000D02*
X103355200Y-105159000D01*
X119555200Y-89309000D02*
X119555200Y-89709000D01*
X103355200Y-89309000D02*
X119555200Y-89309000D01*
X103355200Y-89709000D02*
X103355200Y-89309000D01*
X119555200Y-105509000D02*
X119555200Y-105109000D01*
X103355200Y-105509000D02*
X119555200Y-105509000D01*
D13*
X98138200Y-85634000D02*
X98138200Y-80424000D01*
X98138200Y-90074000D02*
X98138200Y-88184000D01*
X108893200Y-91674000D02*
X100763200Y-91674000D01*
X98138200Y-76474000D02*
X98138200Y-77844000D01*
X107563200Y-76474000D02*
X98138200Y-76474000D01*
X113088200Y-76474000D02*
X112163200Y-76474000D01*
X113088200Y-91674000D02*
X113088200Y-76474000D01*
X112163200Y-91674000D02*
X113088200Y-91674000D01*
X91484873Y-107211101D02*
X91696540Y-106908720D01*
X91847730Y-107211101D02*
X91847730Y-106576101D01*
X91605825Y-106576101D01*
X91545349Y-106606340D01*
X91515111Y-106636578D01*
X91484873Y-106697054D01*
X91484873Y-106787768D01*
X91515111Y-106848244D01*
X91545349Y-106878482D01*
X91605825Y-106908720D01*
X91847730Y-106908720D01*
X91242968Y-106636578D02*
X91212730Y-106606340D01*
X91152254Y-106576101D01*
X91001063Y-106576101D01*
X90940587Y-106606340D01*
X90910349Y-106636578D01*
X90880111Y-106697054D01*
X90880111Y-106757530D01*
X90910349Y-106848244D01*
X91273206Y-107211101D01*
X90880111Y-107211101D01*
D10*
X84610542Y-79417942D02*
X84658161Y-79370323D01*
X84705780Y-79227466D01*
X84705780Y-79132228D01*
X84658161Y-78989371D01*
X84562923Y-78894133D01*
X84467685Y-78846514D01*
X84277209Y-78798895D01*
X84134352Y-78798895D01*
X83943876Y-78846514D01*
X83848638Y-78894133D01*
X83753400Y-78989371D01*
X83705780Y-79132228D01*
X83705780Y-79227466D01*
X83753400Y-79370323D01*
X83801019Y-79417942D01*
X84705780Y-80370323D02*
X84705780Y-79798895D01*
X84705780Y-80084609D02*
X83705780Y-80084609D01*
X83848638Y-79989371D01*
X83943876Y-79894133D01*
X83991495Y-79798895D01*
X83801019Y-80751276D02*
X83753400Y-80798895D01*
X83705780Y-80894133D01*
X83705780Y-81132228D01*
X83753400Y-81227466D01*
X83801019Y-81275085D01*
X83896257Y-81322704D01*
X83991495Y-81322704D01*
X84134352Y-81275085D01*
X84705780Y-80703657D01*
X84705780Y-81322704D01*
D14*
X84051019Y-83048323D02*
X84051019Y-84076419D01*
X83990542Y-84197371D01*
X83930066Y-84257847D01*
X83809114Y-84318323D01*
X83567209Y-84318323D01*
X83446257Y-84257847D01*
X83385780Y-84197371D01*
X83325304Y-84076419D01*
X83325304Y-83048323D01*
X82115780Y-83048323D02*
X82720542Y-83048323D01*
X82781019Y-83653085D01*
X82720542Y-83592609D01*
X82599590Y-83532133D01*
X82297209Y-83532133D01*
X82176257Y-83592609D01*
X82115780Y-83653085D01*
X82055304Y-83774038D01*
X82055304Y-84076419D01*
X82115780Y-84197371D01*
X82176257Y-84257847D01*
X82297209Y-84318323D01*
X82599590Y-84318323D01*
X82720542Y-84257847D01*
X82781019Y-84197371D01*
X93855419Y-82972123D02*
X93855419Y-84000219D01*
X93794942Y-84121171D01*
X93734466Y-84181647D01*
X93613514Y-84242123D01*
X93371609Y-84242123D01*
X93250657Y-84181647D01*
X93190180Y-84121171D01*
X93129704Y-84000219D01*
X93129704Y-82972123D01*
X92645895Y-82972123D02*
X91859704Y-82972123D01*
X92283038Y-83455933D01*
X92101609Y-83455933D01*
X91980657Y-83516409D01*
X91920180Y-83576885D01*
X91859704Y-83697838D01*
X91859704Y-84000219D01*
X91920180Y-84121171D01*
X91980657Y-84181647D01*
X92101609Y-84242123D01*
X92464466Y-84242123D01*
X92585419Y-84181647D01*
X92645895Y-84121171D01*
D13*
X111244138Y-97816609D02*
X110730090Y-97816609D01*
X110669614Y-97786371D01*
X110639376Y-97756133D01*
X110609138Y-97695657D01*
X110609138Y-97574704D01*
X110639376Y-97514228D01*
X110669614Y-97483990D01*
X110730090Y-97453752D01*
X111244138Y-97453752D01*
X110971995Y-97060657D02*
X111002233Y-97121133D01*
X111032471Y-97151371D01*
X111092947Y-97181609D01*
X111123185Y-97181609D01*
X111183661Y-97151371D01*
X111213900Y-97121133D01*
X111244138Y-97060657D01*
X111244138Y-96939704D01*
X111213900Y-96879228D01*
X111183661Y-96848990D01*
X111123185Y-96818752D01*
X111092947Y-96818752D01*
X111032471Y-96848990D01*
X111002233Y-96879228D01*
X110971995Y-96939704D01*
X110971995Y-97060657D01*
X110941757Y-97121133D01*
X110911519Y-97151371D01*
X110851042Y-97181609D01*
X110730090Y-97181609D01*
X110669614Y-97151371D01*
X110639376Y-97121133D01*
X110609138Y-97060657D01*
X110609138Y-96939704D01*
X110639376Y-96879228D01*
X110669614Y-96848990D01*
X110730090Y-96818752D01*
X110851042Y-96818752D01*
X110911519Y-96848990D01*
X110941757Y-96879228D01*
X110971995Y-96939704D01*
X91484873Y-104305825D02*
X91515111Y-104336063D01*
X91605825Y-104366301D01*
X91666301Y-104366301D01*
X91757016Y-104336063D01*
X91817492Y-104275587D01*
X91847730Y-104215111D01*
X91877968Y-104094159D01*
X91877968Y-104003444D01*
X91847730Y-103882492D01*
X91817492Y-103822016D01*
X91757016Y-103761540D01*
X91666301Y-103731301D01*
X91605825Y-103731301D01*
X91515111Y-103761540D01*
X91484873Y-103791778D01*
X90940587Y-103731301D02*
X91061540Y-103731301D01*
X91122016Y-103761540D01*
X91152254Y-103791778D01*
X91212730Y-103882492D01*
X91242968Y-104003444D01*
X91242968Y-104245349D01*
X91212730Y-104305825D01*
X91182492Y-104336063D01*
X91122016Y-104366301D01*
X91001063Y-104366301D01*
X90940587Y-104336063D01*
X90910349Y-104305825D01*
X90880111Y-104245349D01*
X90880111Y-104094159D01*
X90910349Y-104033682D01*
X90940587Y-104003444D01*
X91001063Y-103973206D01*
X91122016Y-103973206D01*
X91182492Y-104003444D01*
X91212730Y-104033682D01*
X91242968Y-104094159D01*
D10*
X94491142Y-79970333D02*
X94538761Y-79922714D01*
X94586380Y-79779857D01*
X94586380Y-79684619D01*
X94538761Y-79541761D01*
X94443523Y-79446523D01*
X94348285Y-79398904D01*
X94157809Y-79351285D01*
X94014952Y-79351285D01*
X93824476Y-79398904D01*
X93729238Y-79446523D01*
X93634000Y-79541761D01*
X93586380Y-79684619D01*
X93586380Y-79779857D01*
X93634000Y-79922714D01*
X93681619Y-79970333D01*
X94586380Y-80446523D02*
X94586380Y-80637000D01*
X94538761Y-80732238D01*
X94491142Y-80779857D01*
X94348285Y-80875095D01*
X94157809Y-80922714D01*
X93776857Y-80922714D01*
X93681619Y-80875095D01*
X93634000Y-80827476D01*
X93586380Y-80732238D01*
X93586380Y-80541761D01*
X93634000Y-80446523D01*
X93681619Y-80398904D01*
X93776857Y-80351285D01*
X94014952Y-80351285D01*
X94110190Y-80398904D01*
X94157809Y-80446523D01*
X94205428Y-80541761D01*
X94205428Y-80732238D01*
X94157809Y-80827476D01*
X94110190Y-80875095D01*
X94014952Y-80922714D01*
X95608742Y-79496542D02*
X95656361Y-79448923D01*
X95703980Y-79306066D01*
X95703980Y-79210828D01*
X95656361Y-79067971D01*
X95561123Y-78972733D01*
X95465885Y-78925114D01*
X95275409Y-78877495D01*
X95132552Y-78877495D01*
X94942076Y-78925114D01*
X94846838Y-78972733D01*
X94751600Y-79067971D01*
X94703980Y-79210828D01*
X94703980Y-79306066D01*
X94751600Y-79448923D01*
X94799219Y-79496542D01*
X95703980Y-80448923D02*
X95703980Y-79877495D01*
X95703980Y-80163209D02*
X94703980Y-80163209D01*
X94846838Y-80067971D01*
X94942076Y-79972733D01*
X94989695Y-79877495D01*
X94703980Y-81067971D02*
X94703980Y-81163209D01*
X94751600Y-81258447D01*
X94799219Y-81306066D01*
X94894457Y-81353685D01*
X95084933Y-81401304D01*
X95323028Y-81401304D01*
X95513504Y-81353685D01*
X95608742Y-81306066D01*
X95656361Y-81258447D01*
X95703980Y-81163209D01*
X95703980Y-81067971D01*
X95656361Y-80972733D01*
X95608742Y-80925114D01*
X95513504Y-80877495D01*
X95323028Y-80829876D01*
X95084933Y-80829876D01*
X94894457Y-80877495D01*
X94799219Y-80925114D01*
X94751600Y-80972733D01*
X94703980Y-81067971D01*
X91033542Y-79494142D02*
X91081161Y-79446523D01*
X91128780Y-79303666D01*
X91128780Y-79208428D01*
X91081161Y-79065571D01*
X90985923Y-78970333D01*
X90890685Y-78922714D01*
X90700209Y-78875095D01*
X90557352Y-78875095D01*
X90366876Y-78922714D01*
X90271638Y-78970333D01*
X90176400Y-79065571D01*
X90128780Y-79208428D01*
X90128780Y-79303666D01*
X90176400Y-79446523D01*
X90224019Y-79494142D01*
X91128780Y-80446523D02*
X91128780Y-79875095D01*
X91128780Y-80160809D02*
X90128780Y-80160809D01*
X90271638Y-80065571D01*
X90366876Y-79970333D01*
X90414495Y-79875095D01*
X91128780Y-81398904D02*
X91128780Y-80827476D01*
X91128780Y-81113190D02*
X90128780Y-81113190D01*
X90271638Y-81017952D01*
X90366876Y-80922714D01*
X90414495Y-80827476D01*
X83667542Y-79417942D02*
X83715161Y-79370323D01*
X83762780Y-79227466D01*
X83762780Y-79132228D01*
X83715161Y-78989371D01*
X83619923Y-78894133D01*
X83524685Y-78846514D01*
X83334209Y-78798895D01*
X83191352Y-78798895D01*
X83000876Y-78846514D01*
X82905638Y-78894133D01*
X82810400Y-78989371D01*
X82762780Y-79132228D01*
X82762780Y-79227466D01*
X82810400Y-79370323D01*
X82858019Y-79417942D01*
X83762780Y-80370323D02*
X83762780Y-79798895D01*
X83762780Y-80084609D02*
X82762780Y-80084609D01*
X82905638Y-79989371D01*
X83000876Y-79894133D01*
X83048495Y-79798895D01*
X82762780Y-80703657D02*
X82762780Y-81322704D01*
X83143733Y-80989371D01*
X83143733Y-81132228D01*
X83191352Y-81227466D01*
X83238971Y-81275085D01*
X83334209Y-81322704D01*
X83572304Y-81322704D01*
X83667542Y-81275085D01*
X83715161Y-81227466D01*
X83762780Y-81132228D01*
X83762780Y-80846514D01*
X83715161Y-80751276D01*
X83667542Y-80703657D01*
X83264342Y-79417942D02*
X83311961Y-79370323D01*
X83359580Y-79227466D01*
X83359580Y-79132228D01*
X83311961Y-78989371D01*
X83216723Y-78894133D01*
X83121485Y-78846514D01*
X82931009Y-78798895D01*
X82788152Y-78798895D01*
X82597676Y-78846514D01*
X82502438Y-78894133D01*
X82407200Y-78989371D01*
X82359580Y-79132228D01*
X82359580Y-79227466D01*
X82407200Y-79370323D01*
X82454819Y-79417942D01*
X83359580Y-80370323D02*
X83359580Y-79798895D01*
X83359580Y-80084609D02*
X82359580Y-80084609D01*
X82502438Y-79989371D01*
X82597676Y-79894133D01*
X82645295Y-79798895D01*
X82692914Y-81227466D02*
X83359580Y-81227466D01*
X82311961Y-80989371D02*
X83026247Y-80751276D01*
X83026247Y-81370323D01*
M02*
