%TF.GenerationSoftware,KiCad,Pcbnew,(5.1.4)-1*%
%TF.CreationDate,2019-12-19T18:18:08-07:00*%
%TF.ProjectId,mainboard,6d61696e-626f-4617-9264-2e6b69636164,rev?*%
%TF.SameCoordinates,Original*%
%TF.FileFunction,Legend,Top*%
%TF.FilePolarity,Positive*%
%FSLAX46Y46*%
G04 Gerber Fmt 4.6, Leading zero omitted, Abs format (unit mm)*
G04 Created by KiCad (PCBNEW (5.1.4)-1) date 2019-12-19 18:18:08*
%MOMM*%
%LPD*%
G04 APERTURE LIST*
%ADD10C,0.076200*%
%ADD11C,0.150000*%
%ADD12C,0.127000*%
%ADD13C,0.203200*%
%ADD14C,0.200000*%
%ADD15C,0.120000*%
%ADD16C,0.010000*%
%ADD17C,0.100000*%
%ADD18C,0.254000*%
%ADD19C,0.152400*%
G04 APERTURE END LIST*
D10*
X78930500Y-76668690D02*
X78960738Y-76608214D01*
X78960738Y-76517500D01*
X78930500Y-76426785D01*
X78870023Y-76366309D01*
X78809547Y-76336071D01*
X78688595Y-76305833D01*
X78597880Y-76305833D01*
X78476928Y-76336071D01*
X78416452Y-76366309D01*
X78355976Y-76426785D01*
X78325738Y-76517500D01*
X78325738Y-76577976D01*
X78355976Y-76668690D01*
X78386214Y-76698928D01*
X78597880Y-76698928D01*
X78597880Y-76577976D01*
X78325738Y-76971071D02*
X78960738Y-76971071D01*
X78325738Y-77333928D01*
X78960738Y-77333928D01*
X78325738Y-77636309D02*
X78960738Y-77636309D01*
X78960738Y-77787500D01*
X78930500Y-77878214D01*
X78870023Y-77938690D01*
X78809547Y-77968928D01*
X78688595Y-77999166D01*
X78597880Y-77999166D01*
X78476928Y-77968928D01*
X78416452Y-77938690D01*
X78355976Y-77878214D01*
X78325738Y-77787500D01*
X78325738Y-77636309D01*
X78960738Y-81700309D02*
X78960738Y-82093404D01*
X78718833Y-81881738D01*
X78718833Y-81972452D01*
X78688595Y-82032928D01*
X78658357Y-82063166D01*
X78597880Y-82093404D01*
X78446690Y-82093404D01*
X78386214Y-82063166D01*
X78355976Y-82032928D01*
X78325738Y-81972452D01*
X78325738Y-81791023D01*
X78355976Y-81730547D01*
X78386214Y-81700309D01*
X78960738Y-82274833D02*
X78325738Y-82486500D01*
X78960738Y-82698166D01*
X78960738Y-82849357D02*
X78960738Y-83242452D01*
X78718833Y-83030785D01*
X78718833Y-83121500D01*
X78688595Y-83181976D01*
X78658357Y-83212214D01*
X78597880Y-83242452D01*
X78446690Y-83242452D01*
X78386214Y-83212214D01*
X78355976Y-83181976D01*
X78325738Y-83121500D01*
X78325738Y-82940071D01*
X78355976Y-82879595D01*
X78386214Y-82849357D01*
D11*
X120902460Y-74415942D02*
X120102459Y-74415941D01*
X85102460Y-74415941D02*
G75*
G02X84602460Y-73915941I0J500000D01*
G01*
X113602459Y-73915941D02*
G75*
G02X113102459Y-74415941I-500000J0D01*
G01*
X113102459Y-107215941D02*
G75*
G02X113602459Y-107715941I0J-500000D01*
G01*
X84602460Y-107715941D02*
G75*
G02X85102460Y-107215941I500000J0D01*
G01*
X77340460Y-91475941D02*
X76502460Y-92313941D01*
X77340460Y-98555940D02*
X76502460Y-97790000D01*
X120102460Y-72915941D02*
X113602460Y-72915941D01*
X113602459Y-107715941D02*
X113602460Y-108715941D01*
X85102460Y-107215941D02*
X113102459Y-107215941D01*
X84602460Y-108715941D02*
X84602460Y-107715941D01*
X113602460Y-108715941D02*
X120102459Y-108715940D01*
X113102459Y-74415941D02*
X93872460Y-74415941D01*
X113602460Y-72915941D02*
X113602459Y-73915941D01*
X78102460Y-72915941D02*
X78102460Y-74415941D01*
X93872460Y-74415941D02*
X93872460Y-75565000D01*
X93872460Y-75565000D02*
X89872460Y-75565000D01*
X78102460Y-74415941D02*
X77340460Y-74415941D01*
X77340460Y-74415941D02*
X77340460Y-91475941D01*
X120102460Y-107215940D02*
X120902460Y-107215940D01*
X120102459Y-74415941D02*
X120102460Y-72915941D01*
X89872460Y-75565000D02*
X89872460Y-74415941D01*
X84602460Y-72915941D02*
X78102460Y-72915941D01*
X84602460Y-73915941D02*
X84602460Y-72915941D01*
X89872460Y-74415941D02*
X85102460Y-74415941D01*
X76502460Y-92313941D02*
X76502460Y-97790000D01*
X120902460Y-107215940D02*
X120902460Y-74415942D01*
X78102460Y-107215940D02*
X78102460Y-108715940D01*
X120102459Y-108715940D02*
X120102460Y-107215940D01*
X77340460Y-98555940D02*
X77340460Y-107215940D01*
X78102460Y-108715940D02*
X84602460Y-108715941D01*
X77340460Y-107215940D02*
X78102460Y-107215940D01*
D12*
X88452476Y-102670428D02*
X88428285Y-102694619D01*
X88355714Y-102718809D01*
X88307333Y-102718809D01*
X88234761Y-102694619D01*
X88186380Y-102646238D01*
X88162190Y-102597857D01*
X88138000Y-102501095D01*
X88138000Y-102428523D01*
X88162190Y-102331761D01*
X88186380Y-102283380D01*
X88234761Y-102235000D01*
X88307333Y-102210809D01*
X88355714Y-102210809D01*
X88428285Y-102235000D01*
X88452476Y-102259190D01*
X88670190Y-102525285D02*
X89057238Y-102525285D01*
X88863714Y-102718809D02*
X88863714Y-102331761D01*
X89299142Y-102718809D02*
X89299142Y-102210809D01*
X89468476Y-102573666D01*
X89637809Y-102210809D01*
X89637809Y-102718809D01*
D10*
X108409014Y-90457261D02*
X108197347Y-90154880D01*
X108046157Y-90457261D02*
X108046157Y-89822261D01*
X108288061Y-89822261D01*
X108348538Y-89852500D01*
X108378776Y-89882738D01*
X108409014Y-89943214D01*
X108409014Y-90033928D01*
X108378776Y-90094404D01*
X108348538Y-90124642D01*
X108288061Y-90154880D01*
X108046157Y-90154880D01*
X108650919Y-90275833D02*
X108953300Y-90275833D01*
X108590442Y-90457261D02*
X108802109Y-89822261D01*
X109013776Y-90457261D01*
X109225442Y-90457261D02*
X109225442Y-89822261D01*
X109376633Y-89822261D01*
X109467347Y-89852500D01*
X109527823Y-89912976D01*
X109558061Y-89973452D01*
X109588300Y-90094404D01*
X109588300Y-90185119D01*
X109558061Y-90306071D01*
X109527823Y-90366547D01*
X109467347Y-90427023D01*
X109376633Y-90457261D01*
X109225442Y-90457261D01*
X109860442Y-90457261D02*
X109860442Y-89822261D01*
X110283776Y-89822261D02*
X110404728Y-89822261D01*
X110465204Y-89852500D01*
X110525680Y-89912976D01*
X110555919Y-90033928D01*
X110555919Y-90245595D01*
X110525680Y-90366547D01*
X110465204Y-90427023D01*
X110404728Y-90457261D01*
X110283776Y-90457261D01*
X110223300Y-90427023D01*
X110162823Y-90366547D01*
X110132585Y-90245595D01*
X110132585Y-90033928D01*
X110162823Y-89912976D01*
X110223300Y-89852500D01*
X110283776Y-89822261D01*
X110797823Y-90033928D02*
X111251395Y-90033928D01*
X110979252Y-89761785D02*
X110797823Y-90578214D01*
X111190919Y-90306071D02*
X110737347Y-90306071D01*
X111009490Y-90578214D02*
X111190919Y-89761785D01*
X111432823Y-89882738D02*
X111463061Y-89852500D01*
X111523538Y-89822261D01*
X111674728Y-89822261D01*
X111735204Y-89852500D01*
X111765442Y-89882738D01*
X111795680Y-89943214D01*
X111795680Y-90003690D01*
X111765442Y-90094404D01*
X111402585Y-90457261D01*
X111795680Y-90457261D01*
X90528140Y-106541509D02*
X90528140Y-105906509D01*
X91371661Y-106027461D02*
X91069280Y-106239128D01*
X91371661Y-106390319D02*
X90736661Y-106390319D01*
X90736661Y-106148414D01*
X90766900Y-106087938D01*
X90797138Y-106057700D01*
X90857614Y-106027461D01*
X90948328Y-106027461D01*
X91008804Y-106057700D01*
X91039042Y-106087938D01*
X91069280Y-106148414D01*
X91069280Y-106390319D01*
X90528140Y-105906509D02*
X90528140Y-105331985D01*
X91039042Y-105755319D02*
X91039042Y-105543652D01*
X91371661Y-105452938D02*
X91371661Y-105755319D01*
X90736661Y-105755319D01*
X90736661Y-105452938D01*
X90528140Y-105331985D02*
X90528140Y-104727223D01*
X91341423Y-105211033D02*
X91371661Y-105120319D01*
X91371661Y-104969128D01*
X91341423Y-104908652D01*
X91311185Y-104878414D01*
X91250709Y-104848176D01*
X91190233Y-104848176D01*
X91129757Y-104878414D01*
X91099519Y-104908652D01*
X91069280Y-104969128D01*
X91039042Y-105090080D01*
X91008804Y-105150557D01*
X90978566Y-105180795D01*
X90918090Y-105211033D01*
X90857614Y-105211033D01*
X90797138Y-105180795D01*
X90766900Y-105150557D01*
X90736661Y-105090080D01*
X90736661Y-104938890D01*
X90766900Y-104848176D01*
X90528140Y-104727223D02*
X90528140Y-104152700D01*
X91039042Y-104576033D02*
X91039042Y-104364366D01*
X91371661Y-104273652D02*
X91371661Y-104576033D01*
X90736661Y-104576033D01*
X90736661Y-104273652D01*
X90528140Y-104152700D02*
X90528140Y-103668890D01*
X90736661Y-104092223D02*
X90736661Y-103729366D01*
X91371661Y-103910795D02*
X90736661Y-103910795D01*
X84479190Y-75057000D02*
X84418714Y-75026761D01*
X84328000Y-75026761D01*
X84237285Y-75057000D01*
X84176809Y-75117476D01*
X84146571Y-75177952D01*
X84116333Y-75298904D01*
X84116333Y-75389619D01*
X84146571Y-75510571D01*
X84176809Y-75571047D01*
X84237285Y-75631523D01*
X84328000Y-75661761D01*
X84388476Y-75661761D01*
X84479190Y-75631523D01*
X84509428Y-75601285D01*
X84509428Y-75389619D01*
X84388476Y-75389619D01*
X84781571Y-75661761D02*
X84781571Y-75026761D01*
X85144428Y-75661761D01*
X85144428Y-75026761D01*
X85446809Y-75661761D02*
X85446809Y-75026761D01*
X85598000Y-75026761D01*
X85688714Y-75057000D01*
X85749190Y-75117476D01*
X85779428Y-75177952D01*
X85809666Y-75298904D01*
X85809666Y-75389619D01*
X85779428Y-75510571D01*
X85749190Y-75571047D01*
X85688714Y-75631523D01*
X85598000Y-75661761D01*
X85446809Y-75661761D01*
X86459785Y-75026761D02*
X86671452Y-75661761D01*
X86883119Y-75026761D01*
X87306452Y-75329142D02*
X87397166Y-75359380D01*
X87427404Y-75389619D01*
X87457642Y-75450095D01*
X87457642Y-75540809D01*
X87427404Y-75601285D01*
X87397166Y-75631523D01*
X87336690Y-75661761D01*
X87094785Y-75661761D01*
X87094785Y-75026761D01*
X87306452Y-75026761D01*
X87366928Y-75057000D01*
X87397166Y-75087238D01*
X87427404Y-75147714D01*
X87427404Y-75208190D01*
X87397166Y-75268666D01*
X87366928Y-75298904D01*
X87306452Y-75329142D01*
X87094785Y-75329142D01*
X87699547Y-75480333D02*
X88001928Y-75480333D01*
X87639071Y-75661761D02*
X87850738Y-75026761D01*
X88062404Y-75661761D01*
X88183357Y-75026761D02*
X88546214Y-75026761D01*
X88364785Y-75661761D02*
X88364785Y-75026761D01*
X78265261Y-96997761D02*
X78053595Y-96695380D01*
X77902404Y-96997761D02*
X77902404Y-96362761D01*
X78144309Y-96362761D01*
X78204785Y-96393000D01*
X78235023Y-96423238D01*
X78265261Y-96483714D01*
X78265261Y-96574428D01*
X78235023Y-96634904D01*
X78204785Y-96665142D01*
X78144309Y-96695380D01*
X77902404Y-96695380D01*
X78507166Y-96967523D02*
X78597880Y-96997761D01*
X78749071Y-96997761D01*
X78809547Y-96967523D01*
X78839785Y-96937285D01*
X78870023Y-96876809D01*
X78870023Y-96816333D01*
X78839785Y-96755857D01*
X78809547Y-96725619D01*
X78749071Y-96695380D01*
X78628119Y-96665142D01*
X78567642Y-96634904D01*
X78537404Y-96604666D01*
X78507166Y-96544190D01*
X78507166Y-96483714D01*
X78537404Y-96423238D01*
X78567642Y-96393000D01*
X78628119Y-96362761D01*
X78779309Y-96362761D01*
X78870023Y-96393000D01*
X79051452Y-96362761D02*
X79414309Y-96362761D01*
X79232880Y-96997761D02*
X79232880Y-96362761D01*
D13*
X85090000Y-102489000D02*
G75*
G03X85090000Y-102489000I-63500J0D01*
G01*
D10*
X78129190Y-95123000D02*
X78068714Y-95092761D01*
X77978000Y-95092761D01*
X77887285Y-95123000D01*
X77826809Y-95183476D01*
X77796571Y-95243952D01*
X77766333Y-95364904D01*
X77766333Y-95455619D01*
X77796571Y-95576571D01*
X77826809Y-95637047D01*
X77887285Y-95697523D01*
X77978000Y-95727761D01*
X78038476Y-95727761D01*
X78129190Y-95697523D01*
X78159428Y-95667285D01*
X78159428Y-95455619D01*
X78038476Y-95455619D01*
X78431571Y-95727761D02*
X78431571Y-95092761D01*
X78794428Y-95727761D01*
X78794428Y-95092761D01*
X79096809Y-95727761D02*
X79096809Y-95092761D01*
X79248000Y-95092761D01*
X79338714Y-95123000D01*
X79399190Y-95183476D01*
X79429428Y-95243952D01*
X79459666Y-95364904D01*
X79459666Y-95455619D01*
X79429428Y-95576571D01*
X79399190Y-95637047D01*
X79338714Y-95697523D01*
X79248000Y-95727761D01*
X79096809Y-95727761D01*
D13*
X83809840Y-100647500D02*
X83809840Y-100203000D01*
D11*
X83555840Y-100203000D02*
X83809840Y-99999800D01*
X83809840Y-99999800D02*
X84063840Y-100203000D01*
X84063840Y-100203000D02*
X83860640Y-100203000D01*
X83809840Y-100203000D02*
X83555840Y-100203000D01*
D10*
X77826809Y-93822761D02*
X78219904Y-93822761D01*
X78008238Y-94064666D01*
X78098952Y-94064666D01*
X78159428Y-94094904D01*
X78189666Y-94125142D01*
X78219904Y-94185619D01*
X78219904Y-94336809D01*
X78189666Y-94397285D01*
X78159428Y-94427523D01*
X78098952Y-94457761D01*
X77917523Y-94457761D01*
X77857047Y-94427523D01*
X77826809Y-94397285D01*
X78401333Y-93822761D02*
X78613000Y-94457761D01*
X78824666Y-93822761D01*
X78975857Y-93822761D02*
X79368952Y-93822761D01*
X79157285Y-94064666D01*
X79248000Y-94064666D01*
X79308476Y-94094904D01*
X79338714Y-94125142D01*
X79368952Y-94185619D01*
X79368952Y-94336809D01*
X79338714Y-94397285D01*
X79308476Y-94427523D01*
X79248000Y-94457761D01*
X79066571Y-94457761D01*
X79006095Y-94427523D01*
X78975857Y-94397285D01*
X87315523Y-95667285D02*
X87285285Y-95697523D01*
X87194571Y-95727761D01*
X87134095Y-95727761D01*
X87043380Y-95697523D01*
X86982904Y-95637047D01*
X86952666Y-95576571D01*
X86922428Y-95455619D01*
X86922428Y-95364904D01*
X86952666Y-95243952D01*
X86982904Y-95183476D01*
X87043380Y-95123000D01*
X87134095Y-95092761D01*
X87194571Y-95092761D01*
X87285285Y-95123000D01*
X87315523Y-95153238D01*
X87890047Y-95727761D02*
X87587666Y-95727761D01*
X87587666Y-95092761D01*
X88101714Y-95727761D02*
X88101714Y-95092761D01*
X88464571Y-95727761D02*
X88192428Y-95364904D01*
X88464571Y-95092761D02*
X88101714Y-95455619D01*
X86979880Y-94457761D02*
X86979880Y-93822761D01*
X87131071Y-93822761D01*
X87221785Y-93853000D01*
X87282261Y-93913476D01*
X87312500Y-93973952D01*
X87342738Y-94094904D01*
X87342738Y-94185619D01*
X87312500Y-94306571D01*
X87282261Y-94367047D01*
X87221785Y-94427523D01*
X87131071Y-94457761D01*
X86979880Y-94457761D01*
X87614880Y-94457761D02*
X87614880Y-93822761D01*
X88038214Y-93822761D02*
X88159166Y-93822761D01*
X88219642Y-93853000D01*
X88280119Y-93913476D01*
X88310357Y-94034428D01*
X88310357Y-94246095D01*
X88280119Y-94367047D01*
X88219642Y-94427523D01*
X88159166Y-94457761D01*
X88038214Y-94457761D01*
X87977738Y-94427523D01*
X87917261Y-94367047D01*
X87887023Y-94246095D01*
X87887023Y-94034428D01*
X87917261Y-93913476D01*
X87977738Y-93853000D01*
X88038214Y-93822761D01*
D14*
X93099500Y-78766000D02*
G75*
G03X93099500Y-78766000I-19000J0D01*
G01*
X92909000Y-85687500D02*
G75*
G03X92909000Y-85687500I-19000J0D01*
G01*
D15*
X93410500Y-81061779D02*
X93410500Y-80736221D01*
X92390500Y-81061779D02*
X92390500Y-80736221D01*
X93410500Y-88165721D02*
X93410500Y-88491279D01*
X92390500Y-88165721D02*
X92390500Y-88491279D01*
D16*
G36*
X78925984Y-87592962D02*
G01*
X78896575Y-87626489D01*
X78850232Y-87641915D01*
X78834765Y-87642700D01*
X78793190Y-87631715D01*
X78761988Y-87603191D01*
X78743769Y-87563773D01*
X78741143Y-87520104D01*
X78756717Y-87478830D01*
X78765895Y-87467294D01*
X78801677Y-87444661D01*
X78840127Y-87439500D01*
X78888963Y-87449009D01*
X78920793Y-87477328D01*
X78935324Y-87524142D01*
X78936273Y-87543470D01*
X78925984Y-87592962D01*
X78925984Y-87592962D01*
G37*
X78925984Y-87592962D02*
X78896575Y-87626489D01*
X78850232Y-87641915D01*
X78834765Y-87642700D01*
X78793190Y-87631715D01*
X78761988Y-87603191D01*
X78743769Y-87563773D01*
X78741143Y-87520104D01*
X78756717Y-87478830D01*
X78765895Y-87467294D01*
X78801677Y-87444661D01*
X78840127Y-87439500D01*
X78888963Y-87449009D01*
X78920793Y-87477328D01*
X78935324Y-87524142D01*
X78936273Y-87543470D01*
X78925984Y-87592962D01*
G36*
X78930178Y-86531049D02*
G01*
X78912369Y-86562185D01*
X78882367Y-86580252D01*
X78841073Y-86588829D01*
X78801092Y-86586287D01*
X78783177Y-86578880D01*
X78754605Y-86545903D01*
X78742548Y-86501482D01*
X78747912Y-86454210D01*
X78766322Y-86418862D01*
X78801806Y-86392328D01*
X78845982Y-86385463D01*
X78890830Y-86398803D01*
X78906580Y-86409444D01*
X78929124Y-86442347D01*
X78937118Y-86486244D01*
X78930178Y-86531049D01*
X78930178Y-86531049D01*
G37*
X78930178Y-86531049D02*
X78912369Y-86562185D01*
X78882367Y-86580252D01*
X78841073Y-86588829D01*
X78801092Y-86586287D01*
X78783177Y-86578880D01*
X78754605Y-86545903D01*
X78742548Y-86501482D01*
X78747912Y-86454210D01*
X78766322Y-86418862D01*
X78801806Y-86392328D01*
X78845982Y-86385463D01*
X78890830Y-86398803D01*
X78906580Y-86409444D01*
X78929124Y-86442347D01*
X78937118Y-86486244D01*
X78930178Y-86531049D01*
G36*
X78066900Y-89852500D02*
G01*
X78066900Y-89649743D01*
X78377783Y-89646346D01*
X78688665Y-89642950D01*
X78656912Y-89574429D01*
X78640604Y-89537695D01*
X78630461Y-89511805D01*
X78628605Y-89503277D01*
X78643073Y-89498373D01*
X78673105Y-89490573D01*
X78709375Y-89482054D01*
X78742557Y-89474993D01*
X78763326Y-89471566D01*
X78764781Y-89471500D01*
X78775608Y-89482300D01*
X78793586Y-89511316D01*
X78815740Y-89553465D01*
X78829007Y-89581226D01*
X78854592Y-89639681D01*
X78870016Y-89684774D01*
X78877608Y-89725256D01*
X78879698Y-89769882D01*
X78879700Y-89771726D01*
X78879700Y-89852500D01*
X78066900Y-89852500D01*
X78066900Y-89852500D01*
G37*
X78066900Y-89852500D02*
X78066900Y-89649743D01*
X78377783Y-89646346D01*
X78688665Y-89642950D01*
X78656912Y-89574429D01*
X78640604Y-89537695D01*
X78630461Y-89511805D01*
X78628605Y-89503277D01*
X78643073Y-89498373D01*
X78673105Y-89490573D01*
X78709375Y-89482054D01*
X78742557Y-89474993D01*
X78763326Y-89471566D01*
X78764781Y-89471500D01*
X78775608Y-89482300D01*
X78793586Y-89511316D01*
X78815740Y-89553465D01*
X78829007Y-89581226D01*
X78854592Y-89639681D01*
X78870016Y-89684774D01*
X78877608Y-89725256D01*
X78879698Y-89769882D01*
X78879700Y-89771726D01*
X78879700Y-89852500D01*
X78066900Y-89852500D01*
G36*
X78673819Y-88159418D02*
G01*
X78670150Y-88269637D01*
X78505050Y-88317482D01*
X78442159Y-88335248D01*
X78386485Y-88350125D01*
X78343363Y-88360749D01*
X78318127Y-88365754D01*
X78315609Y-88365963D01*
X78299435Y-88367763D01*
X78299552Y-88372382D01*
X78317757Y-88380510D01*
X78355845Y-88392834D01*
X78415613Y-88410045D01*
X78468362Y-88424567D01*
X78530970Y-88441661D01*
X78586054Y-88456793D01*
X78628272Y-88468490D01*
X78652285Y-88475279D01*
X78654275Y-88475870D01*
X78665626Y-88483090D01*
X78672386Y-88499772D01*
X78675647Y-88531199D01*
X78676500Y-88582652D01*
X78676500Y-88583355D01*
X78675046Y-88631981D01*
X78671130Y-88667189D01*
X78665420Y-88683562D01*
X78664072Y-88684100D01*
X78650106Y-88679909D01*
X78616341Y-88668311D01*
X78566782Y-88650766D01*
X78505432Y-88628735D01*
X78436295Y-88603677D01*
X78363374Y-88577053D01*
X78290674Y-88550323D01*
X78222197Y-88524948D01*
X78161948Y-88502389D01*
X78113930Y-88484104D01*
X78089125Y-88474385D01*
X78077548Y-88465592D01*
X78070747Y-88447067D01*
X78067583Y-88413350D01*
X78066900Y-88367979D01*
X78066900Y-88270476D01*
X78247875Y-88204827D01*
X78324651Y-88176984D01*
X78405642Y-88147626D01*
X78481972Y-88119969D01*
X78544762Y-88097231D01*
X78553169Y-88094188D01*
X78677488Y-88049198D01*
X78673819Y-88159418D01*
X78673819Y-88159418D01*
G37*
X78673819Y-88159418D02*
X78670150Y-88269637D01*
X78505050Y-88317482D01*
X78442159Y-88335248D01*
X78386485Y-88350125D01*
X78343363Y-88360749D01*
X78318127Y-88365754D01*
X78315609Y-88365963D01*
X78299435Y-88367763D01*
X78299552Y-88372382D01*
X78317757Y-88380510D01*
X78355845Y-88392834D01*
X78415613Y-88410045D01*
X78468362Y-88424567D01*
X78530970Y-88441661D01*
X78586054Y-88456793D01*
X78628272Y-88468490D01*
X78652285Y-88475279D01*
X78654275Y-88475870D01*
X78665626Y-88483090D01*
X78672386Y-88499772D01*
X78675647Y-88531199D01*
X78676500Y-88582652D01*
X78676500Y-88583355D01*
X78675046Y-88631981D01*
X78671130Y-88667189D01*
X78665420Y-88683562D01*
X78664072Y-88684100D01*
X78650106Y-88679909D01*
X78616341Y-88668311D01*
X78566782Y-88650766D01*
X78505432Y-88628735D01*
X78436295Y-88603677D01*
X78363374Y-88577053D01*
X78290674Y-88550323D01*
X78222197Y-88524948D01*
X78161948Y-88502389D01*
X78113930Y-88484104D01*
X78089125Y-88474385D01*
X78077548Y-88465592D01*
X78070747Y-88447067D01*
X78067583Y-88413350D01*
X78066900Y-88367979D01*
X78066900Y-88270476D01*
X78247875Y-88204827D01*
X78324651Y-88176984D01*
X78405642Y-88147626D01*
X78481972Y-88119969D01*
X78544762Y-88097231D01*
X78553169Y-88094188D01*
X78677488Y-88049198D01*
X78673819Y-88159418D01*
G36*
X78066900Y-87642700D02*
G01*
X78066900Y-87439500D01*
X78676500Y-87439500D01*
X78676500Y-87642700D01*
X78066900Y-87642700D01*
X78066900Y-87642700D01*
G37*
X78066900Y-87642700D02*
X78066900Y-87439500D01*
X78676500Y-87439500D01*
X78676500Y-87642700D01*
X78066900Y-87642700D01*
G36*
X78675294Y-87171187D02*
G01*
X78660523Y-87199496D01*
X78631022Y-87231959D01*
X78590904Y-87262353D01*
X78575282Y-87271225D01*
X78553089Y-87281561D01*
X78530674Y-87289063D01*
X78503593Y-87294180D01*
X78467400Y-87297361D01*
X78417650Y-87299056D01*
X78349897Y-87299714D01*
X78292810Y-87299800D01*
X78066900Y-87299800D01*
X78066900Y-87111531D01*
X78268794Y-87107240D01*
X78355892Y-87104625D01*
X78420792Y-87100203D01*
X78466686Y-87092781D01*
X78496770Y-87081167D01*
X78514236Y-87064167D01*
X78522278Y-87040590D01*
X78524100Y-87011894D01*
X78519202Y-86979010D01*
X78500024Y-86955685D01*
X78482825Y-86944060D01*
X78463652Y-86934070D01*
X78441257Y-86927094D01*
X78410896Y-86922608D01*
X78367827Y-86920091D01*
X78307308Y-86919018D01*
X78254225Y-86918847D01*
X78066900Y-86918800D01*
X78066900Y-86728300D01*
X78305025Y-86728189D01*
X78385528Y-86727722D01*
X78462062Y-86726495D01*
X78529091Y-86724654D01*
X78581083Y-86722347D01*
X78609825Y-86720070D01*
X78676500Y-86712062D01*
X78676500Y-86802731D01*
X78676107Y-86849724D01*
X78673564Y-86876804D01*
X78666833Y-86889459D01*
X78653872Y-86893177D01*
X78642782Y-86893400D01*
X78619872Y-86895039D01*
X78618859Y-86903558D01*
X78628551Y-86915625D01*
X78665121Y-86973191D01*
X78685656Y-87039895D01*
X78689324Y-87108354D01*
X78675294Y-87171187D01*
X78675294Y-87171187D01*
G37*
X78675294Y-87171187D02*
X78660523Y-87199496D01*
X78631022Y-87231959D01*
X78590904Y-87262353D01*
X78575282Y-87271225D01*
X78553089Y-87281561D01*
X78530674Y-87289063D01*
X78503593Y-87294180D01*
X78467400Y-87297361D01*
X78417650Y-87299056D01*
X78349897Y-87299714D01*
X78292810Y-87299800D01*
X78066900Y-87299800D01*
X78066900Y-87111531D01*
X78268794Y-87107240D01*
X78355892Y-87104625D01*
X78420792Y-87100203D01*
X78466686Y-87092781D01*
X78496770Y-87081167D01*
X78514236Y-87064167D01*
X78522278Y-87040590D01*
X78524100Y-87011894D01*
X78519202Y-86979010D01*
X78500024Y-86955685D01*
X78482825Y-86944060D01*
X78463652Y-86934070D01*
X78441257Y-86927094D01*
X78410896Y-86922608D01*
X78367827Y-86920091D01*
X78307308Y-86919018D01*
X78254225Y-86918847D01*
X78066900Y-86918800D01*
X78066900Y-86728300D01*
X78305025Y-86728189D01*
X78385528Y-86727722D01*
X78462062Y-86726495D01*
X78529091Y-86724654D01*
X78581083Y-86722347D01*
X78609825Y-86720070D01*
X78676500Y-86712062D01*
X78676500Y-86802731D01*
X78676107Y-86849724D01*
X78673564Y-86876804D01*
X78666833Y-86889459D01*
X78653872Y-86893177D01*
X78642782Y-86893400D01*
X78619872Y-86895039D01*
X78618859Y-86903558D01*
X78628551Y-86915625D01*
X78665121Y-86973191D01*
X78685656Y-87039895D01*
X78689324Y-87108354D01*
X78675294Y-87171187D01*
G36*
X78066900Y-86588600D02*
G01*
X78066900Y-86385400D01*
X78676500Y-86385400D01*
X78676500Y-86588600D01*
X78066900Y-86588600D01*
X78066900Y-86588600D01*
G37*
X78066900Y-86588600D02*
X78066900Y-86385400D01*
X78676500Y-86385400D01*
X78676500Y-86588600D01*
X78066900Y-86588600D01*
G36*
X78673140Y-86134783D02*
G01*
X78660625Y-86156992D01*
X78637103Y-86187582D01*
X78610968Y-86210993D01*
X78578496Y-86228249D01*
X78535959Y-86240374D01*
X78479632Y-86248391D01*
X78405787Y-86253325D01*
X78310699Y-86256199D01*
X78298675Y-86256436D01*
X78066900Y-86260822D01*
X78066900Y-86055200D01*
X78267275Y-86055200D01*
X78347502Y-86054715D01*
X78406254Y-86053034D01*
X78447442Y-86049821D01*
X78474978Y-86044735D01*
X78492772Y-86037440D01*
X78495875Y-86035429D01*
X78518874Y-86005717D01*
X78522772Y-85968113D01*
X78507448Y-85931604D01*
X78497406Y-85920643D01*
X78484502Y-85911343D01*
X78466695Y-85904557D01*
X78439839Y-85899771D01*
X78399784Y-85896474D01*
X78342381Y-85894153D01*
X78268806Y-85892401D01*
X78066900Y-85888352D01*
X78066900Y-85699600D01*
X78256574Y-85699600D01*
X78326096Y-85698779D01*
X78388857Y-85696524D01*
X78439381Y-85693142D01*
X78472190Y-85688940D01*
X78479165Y-85687084D01*
X78512454Y-85663490D01*
X78526180Y-85629574D01*
X78519975Y-85591645D01*
X78493472Y-85556015D01*
X78487101Y-85550778D01*
X78466260Y-85543879D01*
X78423617Y-85538991D01*
X78357998Y-85536028D01*
X78268228Y-85534906D01*
X78266925Y-85534903D01*
X78066900Y-85534500D01*
X78066900Y-85344000D01*
X78285975Y-85343909D01*
X78365629Y-85343393D01*
X78443459Y-85342027D01*
X78512935Y-85339987D01*
X78567531Y-85337446D01*
X78590775Y-85335723D01*
X78676500Y-85327627D01*
X78676500Y-85418363D01*
X78676113Y-85465377D01*
X78673583Y-85492476D01*
X78666857Y-85505146D01*
X78653881Y-85508874D01*
X78642537Y-85509100D01*
X78608573Y-85509100D01*
X78634600Y-85537675D01*
X78667549Y-85581676D01*
X78684435Y-85628032D01*
X78689200Y-85687578D01*
X78689200Y-85687741D01*
X78682426Y-85743938D01*
X78664287Y-85794018D01*
X78638058Y-85830849D01*
X78617077Y-85844765D01*
X78605824Y-85852512D01*
X78610195Y-85865607D01*
X78629226Y-85887300D01*
X78666650Y-85942350D01*
X78687014Y-86006852D01*
X78689463Y-86073448D01*
X78673140Y-86134783D01*
X78673140Y-86134783D01*
G37*
X78673140Y-86134783D02*
X78660625Y-86156992D01*
X78637103Y-86187582D01*
X78610968Y-86210993D01*
X78578496Y-86228249D01*
X78535959Y-86240374D01*
X78479632Y-86248391D01*
X78405787Y-86253325D01*
X78310699Y-86256199D01*
X78298675Y-86256436D01*
X78066900Y-86260822D01*
X78066900Y-86055200D01*
X78267275Y-86055200D01*
X78347502Y-86054715D01*
X78406254Y-86053034D01*
X78447442Y-86049821D01*
X78474978Y-86044735D01*
X78492772Y-86037440D01*
X78495875Y-86035429D01*
X78518874Y-86005717D01*
X78522772Y-85968113D01*
X78507448Y-85931604D01*
X78497406Y-85920643D01*
X78484502Y-85911343D01*
X78466695Y-85904557D01*
X78439839Y-85899771D01*
X78399784Y-85896474D01*
X78342381Y-85894153D01*
X78268806Y-85892401D01*
X78066900Y-85888352D01*
X78066900Y-85699600D01*
X78256574Y-85699600D01*
X78326096Y-85698779D01*
X78388857Y-85696524D01*
X78439381Y-85693142D01*
X78472190Y-85688940D01*
X78479165Y-85687084D01*
X78512454Y-85663490D01*
X78526180Y-85629574D01*
X78519975Y-85591645D01*
X78493472Y-85556015D01*
X78487101Y-85550778D01*
X78466260Y-85543879D01*
X78423617Y-85538991D01*
X78357998Y-85536028D01*
X78268228Y-85534906D01*
X78266925Y-85534903D01*
X78066900Y-85534500D01*
X78066900Y-85344000D01*
X78285975Y-85343909D01*
X78365629Y-85343393D01*
X78443459Y-85342027D01*
X78512935Y-85339987D01*
X78567531Y-85337446D01*
X78590775Y-85335723D01*
X78676500Y-85327627D01*
X78676500Y-85418363D01*
X78676113Y-85465377D01*
X78673583Y-85492476D01*
X78666857Y-85505146D01*
X78653881Y-85508874D01*
X78642537Y-85509100D01*
X78608573Y-85509100D01*
X78634600Y-85537675D01*
X78667549Y-85581676D01*
X78684435Y-85628032D01*
X78689200Y-85687578D01*
X78689200Y-85687741D01*
X78682426Y-85743938D01*
X78664287Y-85794018D01*
X78638058Y-85830849D01*
X78617077Y-85844765D01*
X78605824Y-85852512D01*
X78610195Y-85865607D01*
X78629226Y-85887300D01*
X78666650Y-85942350D01*
X78687014Y-86006852D01*
X78689463Y-86073448D01*
X78673140Y-86134783D01*
G36*
X78885140Y-89086872D02*
G01*
X78863253Y-89158052D01*
X78821618Y-89222046D01*
X78778089Y-89261985D01*
X78715175Y-89295785D01*
X78634769Y-89319829D01*
X78543082Y-89333484D01*
X78446326Y-89336118D01*
X78350712Y-89327100D01*
X78283467Y-89312304D01*
X78200516Y-89277380D01*
X78134635Y-89226521D01*
X78087513Y-89162785D01*
X78060840Y-89089232D01*
X78056308Y-89008918D01*
X78073124Y-88931750D01*
X78094167Y-88892074D01*
X78127813Y-88849090D01*
X78147868Y-88828900D01*
X78214904Y-88783318D01*
X78298519Y-88751052D01*
X78393363Y-88732605D01*
X78492350Y-88728552D01*
X78492350Y-88932633D01*
X78409295Y-88933579D01*
X78346876Y-88938338D01*
X78300494Y-88947814D01*
X78265554Y-88962910D01*
X78239897Y-88982228D01*
X78212971Y-89015118D01*
X78209939Y-89045093D01*
X78230624Y-89077355D01*
X78236486Y-89083439D01*
X78273784Y-89106607D01*
X78329705Y-89123998D01*
X78398043Y-89135197D01*
X78472595Y-89139787D01*
X78547155Y-89137355D01*
X78615519Y-89127485D01*
X78665953Y-89112179D01*
X78712084Y-89084248D01*
X78734058Y-89051238D01*
X78731745Y-89016203D01*
X78705016Y-88982196D01*
X78672402Y-88960996D01*
X78641552Y-88947492D01*
X78607569Y-88939023D01*
X78563347Y-88934470D01*
X78501781Y-88932713D01*
X78492350Y-88932633D01*
X78492350Y-88728552D01*
X78494084Y-88728480D01*
X78595331Y-88739180D01*
X78691753Y-88765208D01*
X78717360Y-88775397D01*
X78786069Y-88817271D01*
X78837744Y-88873705D01*
X78871843Y-88940349D01*
X78887823Y-89012855D01*
X78885140Y-89086872D01*
X78885140Y-89086872D01*
G37*
X78885140Y-89086872D02*
X78863253Y-89158052D01*
X78821618Y-89222046D01*
X78778089Y-89261985D01*
X78715175Y-89295785D01*
X78634769Y-89319829D01*
X78543082Y-89333484D01*
X78446326Y-89336118D01*
X78350712Y-89327100D01*
X78283467Y-89312304D01*
X78200516Y-89277380D01*
X78134635Y-89226521D01*
X78087513Y-89162785D01*
X78060840Y-89089232D01*
X78056308Y-89008918D01*
X78073124Y-88931750D01*
X78094167Y-88892074D01*
X78127813Y-88849090D01*
X78147868Y-88828900D01*
X78214904Y-88783318D01*
X78298519Y-88751052D01*
X78393363Y-88732605D01*
X78492350Y-88728552D01*
X78492350Y-88932633D01*
X78409295Y-88933579D01*
X78346876Y-88938338D01*
X78300494Y-88947814D01*
X78265554Y-88962910D01*
X78239897Y-88982228D01*
X78212971Y-89015118D01*
X78209939Y-89045093D01*
X78230624Y-89077355D01*
X78236486Y-89083439D01*
X78273784Y-89106607D01*
X78329705Y-89123998D01*
X78398043Y-89135197D01*
X78472595Y-89139787D01*
X78547155Y-89137355D01*
X78615519Y-89127485D01*
X78665953Y-89112179D01*
X78712084Y-89084248D01*
X78734058Y-89051238D01*
X78731745Y-89016203D01*
X78705016Y-88982196D01*
X78672402Y-88960996D01*
X78641552Y-88947492D01*
X78607569Y-88939023D01*
X78563347Y-88934470D01*
X78501781Y-88932713D01*
X78492350Y-88932633D01*
X78492350Y-88728552D01*
X78494084Y-88728480D01*
X78595331Y-88739180D01*
X78691753Y-88765208D01*
X78717360Y-88775397D01*
X78786069Y-88817271D01*
X78837744Y-88873705D01*
X78871843Y-88940349D01*
X78887823Y-89012855D01*
X78885140Y-89086872D01*
G36*
X78284473Y-87926650D02*
G01*
X78254677Y-87963137D01*
X78211041Y-87984348D01*
X78158495Y-87987218D01*
X78130258Y-87980763D01*
X78086751Y-87954980D01*
X78061508Y-87915075D01*
X78056536Y-87866446D01*
X78070634Y-87820500D01*
X78101477Y-87782895D01*
X78142282Y-87763778D01*
X78187301Y-87761677D01*
X78230782Y-87775123D01*
X78266975Y-87802647D01*
X78290130Y-87842781D01*
X78295500Y-87877955D01*
X78284473Y-87926650D01*
X78284473Y-87926650D01*
G37*
X78284473Y-87926650D02*
X78254677Y-87963137D01*
X78211041Y-87984348D01*
X78158495Y-87987218D01*
X78130258Y-87980763D01*
X78086751Y-87954980D01*
X78061508Y-87915075D01*
X78056536Y-87866446D01*
X78070634Y-87820500D01*
X78101477Y-87782895D01*
X78142282Y-87763778D01*
X78187301Y-87761677D01*
X78230782Y-87775123D01*
X78266975Y-87802647D01*
X78290130Y-87842781D01*
X78295500Y-87877955D01*
X78284473Y-87926650D01*
D11*
X81745000Y-79100000D02*
X79545000Y-79100000D01*
X81745000Y-75300000D02*
X81745000Y-79100000D01*
X79545000Y-75300000D02*
X81745000Y-75300000D01*
X79545000Y-79100000D02*
X79545000Y-75300000D01*
X81745000Y-84450000D02*
X79545000Y-84450000D01*
X81745000Y-80650000D02*
X81745000Y-84450000D01*
X79545000Y-80650000D02*
X81745000Y-80650000D01*
X79545000Y-84450000D02*
X79545000Y-80650000D01*
D13*
X112117500Y-86330000D02*
X111558700Y-86330000D01*
X112117500Y-85771200D02*
X112117500Y-86330000D01*
X106986700Y-86330000D02*
X106783500Y-86330000D01*
X106783500Y-86126800D02*
X106783500Y-86330000D01*
X106783500Y-80996000D02*
X106783500Y-81199200D01*
X106986700Y-80996000D02*
X106783500Y-80996000D01*
X112117500Y-80996000D02*
X112117500Y-81199200D01*
X112117500Y-80996000D02*
X111914300Y-80996000D01*
D15*
X112880500Y-81777000D02*
X112880500Y-84227000D01*
X116100500Y-83577000D02*
X116100500Y-81777000D01*
D16*
G36*
X115581727Y-76108395D02*
G01*
X115607161Y-76060474D01*
X115648296Y-76023727D01*
X115666906Y-76014340D01*
X115725062Y-76001357D01*
X115777732Y-76009930D01*
X115821765Y-76036321D01*
X115854005Y-76076791D01*
X115871302Y-76127605D01*
X115870501Y-76185023D01*
X115853555Y-76235585D01*
X115818765Y-76279895D01*
X115770215Y-76306505D01*
X115713879Y-76313705D01*
X115655732Y-76299786D01*
X115645784Y-76295036D01*
X115604022Y-76260811D01*
X115579718Y-76214404D01*
X115572433Y-76161652D01*
X115581727Y-76108395D01*
X115581727Y-76108395D01*
G37*
X115581727Y-76108395D02*
X115607161Y-76060474D01*
X115648296Y-76023727D01*
X115666906Y-76014340D01*
X115725062Y-76001357D01*
X115777732Y-76009930D01*
X115821765Y-76036321D01*
X115854005Y-76076791D01*
X115871302Y-76127605D01*
X115870501Y-76185023D01*
X115853555Y-76235585D01*
X115818765Y-76279895D01*
X115770215Y-76306505D01*
X115713879Y-76313705D01*
X115655732Y-76299786D01*
X115645784Y-76295036D01*
X115604022Y-76260811D01*
X115579718Y-76214404D01*
X115572433Y-76161652D01*
X115581727Y-76108395D01*
G36*
X116005781Y-74533659D02*
G01*
X116039136Y-74482678D01*
X116087552Y-74451968D01*
X116149861Y-74442262D01*
X116151469Y-74442292D01*
X116207844Y-74454442D01*
X116251187Y-74485129D01*
X116279211Y-74529877D01*
X116289635Y-74584210D01*
X116280173Y-74643653D01*
X116268465Y-74671579D01*
X116233239Y-74719469D01*
X116186531Y-74745244D01*
X116126491Y-74749822D01*
X116113922Y-74748439D01*
X116058754Y-74729878D01*
X116018512Y-74693765D01*
X115995439Y-74644557D01*
X115991780Y-74586709D01*
X116005781Y-74533659D01*
X116005781Y-74533659D01*
G37*
X116005781Y-74533659D02*
X116039136Y-74482678D01*
X116087552Y-74451968D01*
X116149861Y-74442262D01*
X116151469Y-74442292D01*
X116207844Y-74454442D01*
X116251187Y-74485129D01*
X116279211Y-74529877D01*
X116289635Y-74584210D01*
X116280173Y-74643653D01*
X116268465Y-74671579D01*
X116233239Y-74719469D01*
X116186531Y-74745244D01*
X116126491Y-74749822D01*
X116113922Y-74748439D01*
X116058754Y-74729878D01*
X116018512Y-74693765D01*
X115995439Y-74644557D01*
X115991780Y-74586709D01*
X116005781Y-74533659D01*
G36*
X115510899Y-77923090D02*
G01*
X115518168Y-77890984D01*
X115532209Y-77837300D01*
X115552524Y-77763662D01*
X115571647Y-77695374D01*
X115679875Y-77710208D01*
X115649225Y-77648276D01*
X115624845Y-77576181D01*
X115618137Y-77499455D01*
X115627485Y-77422819D01*
X115651270Y-77350992D01*
X115687877Y-77288695D01*
X115735688Y-77240647D01*
X115793086Y-77211568D01*
X115799415Y-77209855D01*
X115831980Y-77201732D01*
X115795137Y-77129491D01*
X115776548Y-77090473D01*
X115766042Y-77058064D01*
X115761909Y-77022758D01*
X115762438Y-76975051D01*
X115763428Y-76953269D01*
X115774494Y-76865123D01*
X115799328Y-76795855D01*
X115840027Y-76741784D01*
X115898685Y-76699228D01*
X115912064Y-76692125D01*
X115954716Y-76673367D01*
X115998588Y-76660985D01*
X116046932Y-76655233D01*
X116102999Y-76656362D01*
X116170040Y-76664624D01*
X116251307Y-76680271D01*
X116350052Y-76703555D01*
X116469526Y-76734728D01*
X116472657Y-76735571D01*
X116568812Y-76761820D01*
X116642645Y-76782903D01*
X116696525Y-76799626D01*
X116732820Y-76812792D01*
X116753898Y-76823206D01*
X116762125Y-76831671D01*
X116762439Y-76833996D01*
X116758676Y-76854292D01*
X116749643Y-76892744D01*
X116736869Y-76943037D01*
X116727567Y-76978036D01*
X116708839Y-77041604D01*
X116693568Y-77080702D01*
X116681480Y-77095985D01*
X116678269Y-77095964D01*
X116661803Y-77091038D01*
X116624573Y-77080649D01*
X116570371Y-77065831D01*
X116502987Y-77047617D01*
X116426212Y-77027040D01*
X116393427Y-77018301D01*
X116292640Y-76992015D01*
X116213013Y-76972861D01*
X116151387Y-76960644D01*
X116104603Y-76955165D01*
X116069501Y-76956228D01*
X116042922Y-76963633D01*
X116021707Y-76977186D01*
X116004975Y-76994030D01*
X115981152Y-77038639D01*
X115979063Y-77087653D01*
X115997090Y-77135480D01*
X116033615Y-77176532D01*
X116063246Y-77195341D01*
X116085551Y-77203673D01*
X116128157Y-77217089D01*
X116186771Y-77234333D01*
X116257099Y-77254146D01*
X116334846Y-77275273D01*
X116351050Y-77279583D01*
X116427783Y-77300172D01*
X116496113Y-77318989D01*
X116552243Y-77334950D01*
X116592375Y-77346969D01*
X116612712Y-77353961D01*
X116614290Y-77354822D01*
X116614604Y-77369059D01*
X116609381Y-77401439D01*
X116600138Y-77445705D01*
X116588394Y-77495600D01*
X116575666Y-77544868D01*
X116563473Y-77587250D01*
X116553331Y-77616490D01*
X116548668Y-77625359D01*
X116534599Y-77624942D01*
X116499773Y-77618499D01*
X116447886Y-77606876D01*
X116382635Y-77590914D01*
X116307717Y-77571458D01*
X116280781Y-77564219D01*
X116177527Y-77536712D01*
X116095472Y-77516213D01*
X116031513Y-77502344D01*
X115982546Y-77494726D01*
X115945470Y-77492983D01*
X115917180Y-77496736D01*
X115894573Y-77505607D01*
X115879552Y-77515339D01*
X115846383Y-77554107D01*
X115833292Y-77601305D01*
X115839855Y-77650371D01*
X115865649Y-77694739D01*
X115892640Y-77718026D01*
X115914216Y-77728113D01*
X115955137Y-77742550D01*
X116016351Y-77761612D01*
X116098800Y-77785578D01*
X116203431Y-77814725D01*
X116331189Y-77849330D01*
X116429486Y-77875519D01*
X116482522Y-77889574D01*
X116446567Y-78023598D01*
X116431444Y-78078480D01*
X116418226Y-78123713D01*
X116408510Y-78153997D01*
X116404285Y-78163948D01*
X116390800Y-78162532D01*
X116356165Y-78155241D01*
X116303736Y-78142884D01*
X116236868Y-78126274D01*
X116158915Y-78106220D01*
X116088754Y-78087689D01*
X115994858Y-78062693D01*
X115900738Y-78037788D01*
X115811838Y-78014402D01*
X115733601Y-77993966D01*
X115671471Y-77977908D01*
X115646242Y-77971486D01*
X115591888Y-77957593D01*
X115547665Y-77945938D01*
X115518738Y-77937903D01*
X115510062Y-77934996D01*
X115510899Y-77923090D01*
X115510899Y-77923090D01*
G37*
X115510899Y-77923090D02*
X115518168Y-77890984D01*
X115532209Y-77837300D01*
X115552524Y-77763662D01*
X115571647Y-77695374D01*
X115679875Y-77710208D01*
X115649225Y-77648276D01*
X115624845Y-77576181D01*
X115618137Y-77499455D01*
X115627485Y-77422819D01*
X115651270Y-77350992D01*
X115687877Y-77288695D01*
X115735688Y-77240647D01*
X115793086Y-77211568D01*
X115799415Y-77209855D01*
X115831980Y-77201732D01*
X115795137Y-77129491D01*
X115776548Y-77090473D01*
X115766042Y-77058064D01*
X115761909Y-77022758D01*
X115762438Y-76975051D01*
X115763428Y-76953269D01*
X115774494Y-76865123D01*
X115799328Y-76795855D01*
X115840027Y-76741784D01*
X115898685Y-76699228D01*
X115912064Y-76692125D01*
X115954716Y-76673367D01*
X115998588Y-76660985D01*
X116046932Y-76655233D01*
X116102999Y-76656362D01*
X116170040Y-76664624D01*
X116251307Y-76680271D01*
X116350052Y-76703555D01*
X116469526Y-76734728D01*
X116472657Y-76735571D01*
X116568812Y-76761820D01*
X116642645Y-76782903D01*
X116696525Y-76799626D01*
X116732820Y-76812792D01*
X116753898Y-76823206D01*
X116762125Y-76831671D01*
X116762439Y-76833996D01*
X116758676Y-76854292D01*
X116749643Y-76892744D01*
X116736869Y-76943037D01*
X116727567Y-76978036D01*
X116708839Y-77041604D01*
X116693568Y-77080702D01*
X116681480Y-77095985D01*
X116678269Y-77095964D01*
X116661803Y-77091038D01*
X116624573Y-77080649D01*
X116570371Y-77065831D01*
X116502987Y-77047617D01*
X116426212Y-77027040D01*
X116393427Y-77018301D01*
X116292640Y-76992015D01*
X116213013Y-76972861D01*
X116151387Y-76960644D01*
X116104603Y-76955165D01*
X116069501Y-76956228D01*
X116042922Y-76963633D01*
X116021707Y-76977186D01*
X116004975Y-76994030D01*
X115981152Y-77038639D01*
X115979063Y-77087653D01*
X115997090Y-77135480D01*
X116033615Y-77176532D01*
X116063246Y-77195341D01*
X116085551Y-77203673D01*
X116128157Y-77217089D01*
X116186771Y-77234333D01*
X116257099Y-77254146D01*
X116334846Y-77275273D01*
X116351050Y-77279583D01*
X116427783Y-77300172D01*
X116496113Y-77318989D01*
X116552243Y-77334950D01*
X116592375Y-77346969D01*
X116612712Y-77353961D01*
X116614290Y-77354822D01*
X116614604Y-77369059D01*
X116609381Y-77401439D01*
X116600138Y-77445705D01*
X116588394Y-77495600D01*
X116575666Y-77544868D01*
X116563473Y-77587250D01*
X116553331Y-77616490D01*
X116548668Y-77625359D01*
X116534599Y-77624942D01*
X116499773Y-77618499D01*
X116447886Y-77606876D01*
X116382635Y-77590914D01*
X116307717Y-77571458D01*
X116280781Y-77564219D01*
X116177527Y-77536712D01*
X116095472Y-77516213D01*
X116031513Y-77502344D01*
X115982546Y-77494726D01*
X115945470Y-77492983D01*
X115917180Y-77496736D01*
X115894573Y-77505607D01*
X115879552Y-77515339D01*
X115846383Y-77554107D01*
X115833292Y-77601305D01*
X115839855Y-77650371D01*
X115865649Y-77694739D01*
X115892640Y-77718026D01*
X115914216Y-77728113D01*
X115955137Y-77742550D01*
X116016351Y-77761612D01*
X116098800Y-77785578D01*
X116203431Y-77814725D01*
X116331189Y-77849330D01*
X116429486Y-77875519D01*
X116482522Y-77889574D01*
X116446567Y-78023598D01*
X116431444Y-78078480D01*
X116418226Y-78123713D01*
X116408510Y-78153997D01*
X116404285Y-78163948D01*
X116390800Y-78162532D01*
X116356165Y-78155241D01*
X116303736Y-78142884D01*
X116236868Y-78126274D01*
X116158915Y-78106220D01*
X116088754Y-78087689D01*
X115994858Y-78062693D01*
X115900738Y-78037788D01*
X115811838Y-78014402D01*
X115733601Y-77993966D01*
X115671471Y-77977908D01*
X115646242Y-77971486D01*
X115591888Y-77957593D01*
X115547665Y-77945938D01*
X115518738Y-77937903D01*
X115510062Y-77934996D01*
X115510899Y-77923090D01*
G36*
X115940960Y-76319822D02*
G01*
X115950554Y-76275240D01*
X115962743Y-76224919D01*
X115975973Y-76175059D01*
X115988690Y-76131859D01*
X115999337Y-76101521D01*
X116004986Y-76090980D01*
X116018529Y-76092267D01*
X116053082Y-76099403D01*
X116105322Y-76111516D01*
X116171923Y-76127731D01*
X116249561Y-76147176D01*
X116334910Y-76168976D01*
X116424646Y-76192260D01*
X116515445Y-76216154D01*
X116603982Y-76239783D01*
X116686931Y-76262276D01*
X116760968Y-76282759D01*
X116822768Y-76300358D01*
X116869006Y-76314201D01*
X116896359Y-76323413D01*
X116902489Y-76326718D01*
X116898800Y-76340915D01*
X116889590Y-76374245D01*
X116876332Y-76421427D01*
X116863544Y-76466487D01*
X116847787Y-76520820D01*
X116834359Y-76565317D01*
X116824861Y-76594790D01*
X116821128Y-76604106D01*
X116808221Y-76602096D01*
X116774191Y-76594215D01*
X116722396Y-76581361D01*
X116656193Y-76564434D01*
X116578940Y-76544334D01*
X116493995Y-76521959D01*
X116404716Y-76498210D01*
X116314459Y-76473985D01*
X116226584Y-76450184D01*
X116144447Y-76427706D01*
X116071407Y-76407451D01*
X116010821Y-76390318D01*
X115966047Y-76377206D01*
X115940442Y-76369015D01*
X115935780Y-76366965D01*
X115935517Y-76352464D01*
X115940960Y-76319822D01*
X115940960Y-76319822D01*
G37*
X115940960Y-76319822D02*
X115950554Y-76275240D01*
X115962743Y-76224919D01*
X115975973Y-76175059D01*
X115988690Y-76131859D01*
X115999337Y-76101521D01*
X116004986Y-76090980D01*
X116018529Y-76092267D01*
X116053082Y-76099403D01*
X116105322Y-76111516D01*
X116171923Y-76127731D01*
X116249561Y-76147176D01*
X116334910Y-76168976D01*
X116424646Y-76192260D01*
X116515445Y-76216154D01*
X116603982Y-76239783D01*
X116686931Y-76262276D01*
X116760968Y-76282759D01*
X116822768Y-76300358D01*
X116869006Y-76314201D01*
X116896359Y-76323413D01*
X116902489Y-76326718D01*
X116898800Y-76340915D01*
X116889590Y-76374245D01*
X116876332Y-76421427D01*
X116863544Y-76466487D01*
X116847787Y-76520820D01*
X116834359Y-76565317D01*
X116824861Y-76594790D01*
X116821128Y-76604106D01*
X116808221Y-76602096D01*
X116774191Y-76594215D01*
X116722396Y-76581361D01*
X116656193Y-76564434D01*
X116578940Y-76544334D01*
X116493995Y-76521959D01*
X116404716Y-76498210D01*
X116314459Y-76473985D01*
X116226584Y-76450184D01*
X116144447Y-76427706D01*
X116071407Y-76407451D01*
X116010821Y-76390318D01*
X115966047Y-76377206D01*
X115940442Y-76369015D01*
X115935780Y-76366965D01*
X115935517Y-76352464D01*
X115940960Y-76319822D01*
G36*
X116088739Y-75752818D02*
G01*
X116121577Y-75626438D01*
X116177375Y-75634805D01*
X116209447Y-75637706D01*
X116226847Y-75635480D01*
X116227942Y-75632662D01*
X116186470Y-75528740D01*
X116169227Y-75432328D01*
X116176208Y-75343464D01*
X116207412Y-75262188D01*
X116262833Y-75188540D01*
X116267750Y-75183540D01*
X116306840Y-75148789D01*
X116347723Y-75122784D01*
X116393212Y-75105504D01*
X116446125Y-75096922D01*
X116509276Y-75097017D01*
X116585481Y-75105764D01*
X116677556Y-75123140D01*
X116788317Y-75149120D01*
X116900236Y-75178213D01*
X116980572Y-75200260D01*
X117051948Y-75220876D01*
X117110944Y-75238988D01*
X117154137Y-75253523D01*
X117178107Y-75263407D01*
X117181857Y-75266550D01*
X117178327Y-75283505D01*
X117169495Y-75319124D01*
X117156835Y-75367593D01*
X117146688Y-75405303D01*
X117131156Y-75458267D01*
X117116457Y-75501192D01*
X117104565Y-75528673D01*
X117098959Y-75535831D01*
X117083198Y-75533994D01*
X117046742Y-75526320D01*
X116993384Y-75513718D01*
X116926917Y-75497094D01*
X116851137Y-75477353D01*
X116823963Y-75470103D01*
X116743413Y-75449045D01*
X116668530Y-75430512D01*
X116603717Y-75415512D01*
X116553378Y-75405053D01*
X116521916Y-75400144D01*
X116517246Y-75399900D01*
X116471600Y-75409192D01*
X116430625Y-75436959D01*
X116403398Y-75465760D01*
X116391505Y-75495099D01*
X116389150Y-75531186D01*
X116394075Y-75577272D01*
X116411680Y-75611583D01*
X116420900Y-75622293D01*
X116435523Y-75637574D01*
X116449620Y-75650038D01*
X116466539Y-75660945D01*
X116489633Y-75671552D01*
X116522252Y-75683119D01*
X116567748Y-75696904D01*
X116629471Y-75714165D01*
X116710772Y-75736161D01*
X116757472Y-75748701D01*
X116835577Y-75769813D01*
X116905019Y-75788870D01*
X116962184Y-75804857D01*
X117003455Y-75816756D01*
X117025215Y-75823552D01*
X117027638Y-75824605D01*
X117026677Y-75838101D01*
X117020216Y-75869869D01*
X117009849Y-75913792D01*
X116997167Y-75963754D01*
X116983764Y-76013638D01*
X116971232Y-76057327D01*
X116961163Y-76088702D01*
X116955600Y-76101278D01*
X116941714Y-76100426D01*
X116906383Y-76093601D01*
X116852663Y-76081525D01*
X116783608Y-76064921D01*
X116702275Y-76044512D01*
X116611720Y-76021021D01*
X116572962Y-76010753D01*
X116475666Y-75984927D01*
X116382955Y-75960509D01*
X116298606Y-75938480D01*
X116226396Y-75919821D01*
X116170102Y-75905511D01*
X116133500Y-75896530D01*
X116127275Y-75895099D01*
X116055901Y-75879197D01*
X116088739Y-75752818D01*
X116088739Y-75752818D01*
G37*
X116088739Y-75752818D02*
X116121577Y-75626438D01*
X116177375Y-75634805D01*
X116209447Y-75637706D01*
X116226847Y-75635480D01*
X116227942Y-75632662D01*
X116186470Y-75528740D01*
X116169227Y-75432328D01*
X116176208Y-75343464D01*
X116207412Y-75262188D01*
X116262833Y-75188540D01*
X116267750Y-75183540D01*
X116306840Y-75148789D01*
X116347723Y-75122784D01*
X116393212Y-75105504D01*
X116446125Y-75096922D01*
X116509276Y-75097017D01*
X116585481Y-75105764D01*
X116677556Y-75123140D01*
X116788317Y-75149120D01*
X116900236Y-75178213D01*
X116980572Y-75200260D01*
X117051948Y-75220876D01*
X117110944Y-75238988D01*
X117154137Y-75253523D01*
X117178107Y-75263407D01*
X117181857Y-75266550D01*
X117178327Y-75283505D01*
X117169495Y-75319124D01*
X117156835Y-75367593D01*
X117146688Y-75405303D01*
X117131156Y-75458267D01*
X117116457Y-75501192D01*
X117104565Y-75528673D01*
X117098959Y-75535831D01*
X117083198Y-75533994D01*
X117046742Y-75526320D01*
X116993384Y-75513718D01*
X116926917Y-75497094D01*
X116851137Y-75477353D01*
X116823963Y-75470103D01*
X116743413Y-75449045D01*
X116668530Y-75430512D01*
X116603717Y-75415512D01*
X116553378Y-75405053D01*
X116521916Y-75400144D01*
X116517246Y-75399900D01*
X116471600Y-75409192D01*
X116430625Y-75436959D01*
X116403398Y-75465760D01*
X116391505Y-75495099D01*
X116389150Y-75531186D01*
X116394075Y-75577272D01*
X116411680Y-75611583D01*
X116420900Y-75622293D01*
X116435523Y-75637574D01*
X116449620Y-75650038D01*
X116466539Y-75660945D01*
X116489633Y-75671552D01*
X116522252Y-75683119D01*
X116567748Y-75696904D01*
X116629471Y-75714165D01*
X116710772Y-75736161D01*
X116757472Y-75748701D01*
X116835577Y-75769813D01*
X116905019Y-75788870D01*
X116962184Y-75804857D01*
X117003455Y-75816756D01*
X117025215Y-75823552D01*
X117027638Y-75824605D01*
X117026677Y-75838101D01*
X117020216Y-75869869D01*
X117009849Y-75913792D01*
X116997167Y-75963754D01*
X116983764Y-76013638D01*
X116971232Y-76057327D01*
X116961163Y-76088702D01*
X116955600Y-76101278D01*
X116941714Y-76100426D01*
X116906383Y-76093601D01*
X116852663Y-76081525D01*
X116783608Y-76064921D01*
X116702275Y-76044512D01*
X116611720Y-76021021D01*
X116572962Y-76010753D01*
X116475666Y-75984927D01*
X116382955Y-75960509D01*
X116298606Y-75938480D01*
X116226396Y-75919821D01*
X116170102Y-75905511D01*
X116133500Y-75896530D01*
X116127275Y-75895099D01*
X116055901Y-75879197D01*
X116088739Y-75752818D01*
G36*
X116358652Y-74755679D02*
G01*
X116368485Y-74710484D01*
X116381333Y-74659860D01*
X116395535Y-74610033D01*
X116409433Y-74567232D01*
X116421365Y-74537682D01*
X116428563Y-74527689D01*
X116443863Y-74529577D01*
X116480746Y-74537476D01*
X116536308Y-74550665D01*
X116607640Y-74568422D01*
X116691835Y-74590025D01*
X116785987Y-74614754D01*
X116869607Y-74637135D01*
X116969455Y-74664027D01*
X117061393Y-74688689D01*
X117142577Y-74710366D01*
X117210164Y-74728301D01*
X117261310Y-74741742D01*
X117293171Y-74749931D01*
X117302953Y-74752200D01*
X117308906Y-74763949D01*
X117305698Y-74798867D01*
X117293408Y-74856464D01*
X117275666Y-74923650D01*
X117261362Y-74973791D01*
X117249435Y-75013734D01*
X117241595Y-75037838D01*
X117239674Y-75042270D01*
X117226830Y-75040278D01*
X117192864Y-75032405D01*
X117141132Y-75019552D01*
X117074990Y-75002619D01*
X116997795Y-74982506D01*
X116912902Y-74960114D01*
X116823667Y-74936343D01*
X116733447Y-74912093D01*
X116645598Y-74888265D01*
X116563476Y-74865758D01*
X116490437Y-74845473D01*
X116429837Y-74828310D01*
X116385033Y-74815169D01*
X116359380Y-74806951D01*
X116354670Y-74804876D01*
X116353494Y-74789219D01*
X116358652Y-74755679D01*
X116358652Y-74755679D01*
G37*
X116358652Y-74755679D02*
X116368485Y-74710484D01*
X116381333Y-74659860D01*
X116395535Y-74610033D01*
X116409433Y-74567232D01*
X116421365Y-74537682D01*
X116428563Y-74527689D01*
X116443863Y-74529577D01*
X116480746Y-74537476D01*
X116536308Y-74550665D01*
X116607640Y-74568422D01*
X116691835Y-74590025D01*
X116785987Y-74614754D01*
X116869607Y-74637135D01*
X116969455Y-74664027D01*
X117061393Y-74688689D01*
X117142577Y-74710366D01*
X117210164Y-74728301D01*
X117261310Y-74741742D01*
X117293171Y-74749931D01*
X117302953Y-74752200D01*
X117308906Y-74763949D01*
X117305698Y-74798867D01*
X117293408Y-74856464D01*
X117275666Y-74923650D01*
X117261362Y-74973791D01*
X117249435Y-75013734D01*
X117241595Y-75037838D01*
X117239674Y-75042270D01*
X117226830Y-75040278D01*
X117192864Y-75032405D01*
X117141132Y-75019552D01*
X117074990Y-75002619D01*
X116997795Y-74982506D01*
X116912902Y-74960114D01*
X116823667Y-74936343D01*
X116733447Y-74912093D01*
X116645598Y-74888265D01*
X116563476Y-74865758D01*
X116490437Y-74845473D01*
X116429837Y-74828310D01*
X116385033Y-74815169D01*
X116359380Y-74806951D01*
X116354670Y-74804876D01*
X116353494Y-74789219D01*
X116358652Y-74755679D01*
G36*
X114226986Y-77061025D02*
G01*
X114240481Y-77029493D01*
X114265489Y-76990395D01*
X114303344Y-76941618D01*
X114355375Y-76881048D01*
X114422915Y-76806570D01*
X114496986Y-76727050D01*
X114561325Y-76658479D01*
X114621389Y-76594429D01*
X114674555Y-76537702D01*
X114718198Y-76491101D01*
X114749692Y-76457425D01*
X114766378Y-76439515D01*
X114797389Y-76405980D01*
X114633527Y-76198215D01*
X114564945Y-76111125D01*
X114510532Y-76041482D01*
X114468656Y-75986846D01*
X114437685Y-75944778D01*
X114415988Y-75912838D01*
X114401933Y-75888585D01*
X114393889Y-75869579D01*
X114390225Y-75853380D01*
X114389309Y-75837548D01*
X114389322Y-75832970D01*
X114391159Y-75807343D01*
X114397838Y-75785072D01*
X114411884Y-75764502D01*
X114435824Y-75743980D01*
X114472183Y-75721851D01*
X114523486Y-75696462D01*
X114592258Y-75666159D01*
X114681025Y-75629287D01*
X114731941Y-75608582D01*
X114812796Y-75575742D01*
X114885931Y-75545866D01*
X114948017Y-75520327D01*
X114995729Y-75500498D01*
X115025739Y-75487753D01*
X115034659Y-75483650D01*
X115034533Y-75470085D01*
X115028859Y-75435019D01*
X115018295Y-75381581D01*
X115003498Y-75312902D01*
X114985125Y-75232110D01*
X114963832Y-75142337D01*
X114957857Y-75117739D01*
X114926558Y-74987176D01*
X114902187Y-74879004D01*
X114884724Y-74791182D01*
X114874149Y-74721668D01*
X114870442Y-74668423D01*
X114873583Y-74629405D01*
X114883552Y-74602574D01*
X114900329Y-74585888D01*
X114923895Y-74577307D01*
X114952551Y-74574804D01*
X114975844Y-74577533D01*
X115019420Y-74585379D01*
X115078883Y-74597444D01*
X115149838Y-74612831D01*
X115227890Y-74630641D01*
X115241346Y-74633798D01*
X115317760Y-74651396D01*
X115385546Y-74666248D01*
X115440914Y-74677585D01*
X115480076Y-74684639D01*
X115499242Y-74686644D01*
X115500438Y-74686296D01*
X115502923Y-74672454D01*
X115506894Y-74636200D01*
X115512096Y-74580462D01*
X115518279Y-74508170D01*
X115525192Y-74422251D01*
X115532581Y-74325635D01*
X115539115Y-74236374D01*
X115548768Y-74104915D01*
X115557397Y-73996604D01*
X115565446Y-73909230D01*
X115573357Y-73840583D01*
X115581575Y-73788452D01*
X115590542Y-73750627D01*
X115600702Y-73724898D01*
X115612498Y-73709054D01*
X115626374Y-73700886D01*
X115642772Y-73698182D01*
X115647069Y-73698100D01*
X115685637Y-73709941D01*
X115705465Y-73728256D01*
X115720496Y-73746546D01*
X115749416Y-73780711D01*
X115789423Y-73827478D01*
X115837714Y-73883575D01*
X115891487Y-73945733D01*
X115912304Y-73969718D01*
X115979439Y-74045849D01*
X116032751Y-74103802D01*
X116071771Y-74143100D01*
X116096028Y-74163265D01*
X116104696Y-74164988D01*
X116111124Y-74149049D01*
X116124642Y-74112481D01*
X116144042Y-74058660D01*
X116168115Y-73990964D01*
X116195651Y-73912769D01*
X116221842Y-73837800D01*
X116266033Y-73711027D01*
X116302827Y-73606044D01*
X116333095Y-73520625D01*
X116357709Y-73452545D01*
X116377540Y-73399578D01*
X116393458Y-73359498D01*
X116406336Y-73330078D01*
X116417044Y-73309093D01*
X116426454Y-73294316D01*
X116435436Y-73283521D01*
X116440869Y-73278136D01*
X116472327Y-73248583D01*
X116498214Y-73274471D01*
X116504439Y-73282094D01*
X116511180Y-73293927D01*
X116519013Y-73311894D01*
X116528514Y-73337916D01*
X116540259Y-73373918D01*
X116554825Y-73421822D01*
X116572788Y-73483551D01*
X116594724Y-73561029D01*
X116621210Y-73656178D01*
X116652822Y-73770922D01*
X116690136Y-73907184D01*
X116713936Y-73994335D01*
X116727195Y-74042919D01*
X116949856Y-73727635D01*
X117028437Y-73617157D01*
X117094245Y-73526637D01*
X117148479Y-73454819D01*
X117192336Y-73400447D01*
X117227013Y-73362267D01*
X117253707Y-73339020D01*
X117273615Y-73329453D01*
X117287936Y-73332309D01*
X117297865Y-73346332D01*
X117301895Y-73358375D01*
X117306305Y-73391419D01*
X117308518Y-73448646D01*
X117308551Y-73528939D01*
X117306424Y-73631179D01*
X117302154Y-73754247D01*
X117295759Y-73897023D01*
X117291996Y-73971150D01*
X117287512Y-74058052D01*
X117283633Y-74136083D01*
X117280519Y-74201816D01*
X117278327Y-74251818D01*
X117277215Y-74282661D01*
X117277215Y-74291241D01*
X117287833Y-74285194D01*
X117316829Y-74266827D01*
X117361457Y-74237928D01*
X117418975Y-74200285D01*
X117486636Y-74155687D01*
X117561697Y-74105922D01*
X117564374Y-74104142D01*
X117656242Y-74043535D01*
X117729628Y-73996301D01*
X117786776Y-73961134D01*
X117829932Y-73936729D01*
X117861342Y-73921779D01*
X117883251Y-73914979D01*
X117890925Y-73914226D01*
X117915535Y-73915289D01*
X117927687Y-73923230D01*
X117931777Y-73944653D01*
X117932200Y-73976193D01*
X117928771Y-74004840D01*
X117918341Y-74052020D01*
X117900689Y-74118458D01*
X117875598Y-74204879D01*
X117842847Y-74312010D01*
X117802219Y-74440576D01*
X117753494Y-74591302D01*
X117696453Y-74764915D01*
X117672081Y-74838457D01*
X117653979Y-74892963D01*
X117959811Y-74889257D01*
X118057018Y-74888250D01*
X118131862Y-74887987D01*
X118187373Y-74888622D01*
X118226582Y-74890313D01*
X118252519Y-74893215D01*
X118268213Y-74897486D01*
X118276696Y-74903281D01*
X118278524Y-74905702D01*
X118286001Y-74922684D01*
X118287494Y-74943420D01*
X118281914Y-74970028D01*
X118268171Y-75004627D01*
X118245174Y-75049334D01*
X118211834Y-75106267D01*
X118167061Y-75177546D01*
X118109765Y-75265287D01*
X118038856Y-75371608D01*
X118038495Y-75372146D01*
X117982250Y-75456091D01*
X117930694Y-75533346D01*
X117885500Y-75601378D01*
X117848342Y-75657653D01*
X117820895Y-75699641D01*
X117804833Y-75724807D01*
X117801270Y-75731012D01*
X117810477Y-75740621D01*
X117837627Y-75762686D01*
X117879881Y-75795059D01*
X117934403Y-75835588D01*
X117998355Y-75882123D01*
X118041971Y-75913388D01*
X118127557Y-75974963D01*
X118193866Y-76024650D01*
X118242671Y-76064777D01*
X118275744Y-76097673D01*
X118294858Y-76125666D01*
X118301784Y-76151084D01*
X118298297Y-76176256D01*
X118286167Y-76203509D01*
X118276056Y-76220882D01*
X118257925Y-76240711D01*
X118220766Y-76273098D01*
X118166630Y-76316429D01*
X118097565Y-76369089D01*
X118015622Y-76429463D01*
X117964953Y-76465982D01*
X117890269Y-76519769D01*
X117822831Y-76569012D01*
X117765279Y-76611729D01*
X117720251Y-76645938D01*
X117690387Y-76669658D01*
X117678326Y-76680907D01*
X117678200Y-76681300D01*
X117683282Y-76695070D01*
X117697629Y-76728863D01*
X117719887Y-76779626D01*
X117748706Y-76844305D01*
X117782734Y-76919849D01*
X117820618Y-77003205D01*
X117824878Y-77012533D01*
X117868908Y-77109406D01*
X117903205Y-77186292D01*
X117928891Y-77246167D01*
X117947091Y-77292006D01*
X117958927Y-77326786D01*
X117965522Y-77353483D01*
X117968001Y-77375071D01*
X117967753Y-77391007D01*
X117964836Y-77419775D01*
X117958458Y-77442665D01*
X117945805Y-77460700D01*
X117924061Y-77474902D01*
X117890414Y-77486295D01*
X117842048Y-77495901D01*
X117776150Y-77504743D01*
X117689905Y-77513844D01*
X117608350Y-77521626D01*
X117525148Y-77529551D01*
X117450827Y-77536889D01*
X117388974Y-77543266D01*
X117343177Y-77548304D01*
X117317023Y-77551630D01*
X117312274Y-77552621D01*
X117312123Y-77565724D01*
X117313679Y-77600904D01*
X117316745Y-77654908D01*
X117321123Y-77724483D01*
X117326616Y-77806377D01*
X117333027Y-77897338D01*
X117333943Y-77910010D01*
X117343831Y-78048097D01*
X117351631Y-78163048D01*
X117357252Y-78257048D01*
X117360603Y-78332283D01*
X117361591Y-78390937D01*
X117360127Y-78435197D01*
X117356120Y-78467247D01*
X117349477Y-78489273D01*
X117340108Y-78503460D01*
X117327922Y-78511993D01*
X117312828Y-78517058D01*
X117308591Y-78518038D01*
X117296881Y-78520630D01*
X117286221Y-78521696D01*
X117273932Y-78519821D01*
X117257335Y-78513592D01*
X117233749Y-78501593D01*
X117200495Y-78482412D01*
X117154892Y-78454633D01*
X117094262Y-78416842D01*
X117015925Y-78367625D01*
X116975909Y-78342458D01*
X116912671Y-78303060D01*
X116857191Y-78269190D01*
X116812870Y-78242869D01*
X116783112Y-78226116D01*
X116771319Y-78220950D01*
X116771293Y-78220975D01*
X116767765Y-78234167D01*
X116759877Y-78268918D01*
X116748344Y-78321899D01*
X116733883Y-78389781D01*
X116717211Y-78469235D01*
X116700575Y-78549500D01*
X116672177Y-78686800D01*
X116648206Y-78801396D01*
X116628137Y-78895497D01*
X116611445Y-78971310D01*
X116597603Y-79031045D01*
X116586086Y-79076910D01*
X116576370Y-79111114D01*
X116567927Y-79135864D01*
X116560234Y-79153370D01*
X116554524Y-79163249D01*
X116538965Y-79184112D01*
X116523898Y-79195928D01*
X116507936Y-79197011D01*
X116489693Y-79185680D01*
X116467781Y-79160249D01*
X116440814Y-79119038D01*
X116407406Y-79060360D01*
X116366169Y-78982534D01*
X116315718Y-78883877D01*
X116301923Y-78856593D01*
X116146389Y-78548522D01*
X115950738Y-78932253D01*
X115890665Y-79049462D01*
X115840569Y-79145674D01*
X115799343Y-79222748D01*
X115765883Y-79282541D01*
X115739083Y-79326913D01*
X115722562Y-79350871D01*
X115722562Y-79108300D01*
X115728131Y-79102139D01*
X115743790Y-79075801D01*
X115768188Y-79031788D01*
X115799976Y-78972602D01*
X115837804Y-78900744D01*
X115880320Y-78818715D01*
X115907650Y-78765400D01*
X115954179Y-78675279D01*
X115998626Y-78591093D01*
X116039300Y-78515902D01*
X116074512Y-78452763D01*
X116102568Y-78404737D01*
X116121780Y-78374882D01*
X116127422Y-78367844D01*
X116150828Y-78345605D01*
X116166082Y-78339912D01*
X116182511Y-78348880D01*
X116190276Y-78355144D01*
X116203575Y-78372508D01*
X116226269Y-78409253D01*
X116256464Y-78462006D01*
X116292267Y-78527396D01*
X116331785Y-78602049D01*
X116363592Y-78663800D01*
X116403078Y-78741025D01*
X116438520Y-78809662D01*
X116468391Y-78866810D01*
X116491164Y-78909568D01*
X116505312Y-78935033D01*
X116509417Y-78940907D01*
X116512675Y-78917623D01*
X116520865Y-78873556D01*
X116533155Y-78812447D01*
X116548715Y-78738034D01*
X116566714Y-78654058D01*
X116586321Y-78564256D01*
X116606704Y-78472369D01*
X116627035Y-78382136D01*
X116646480Y-78297296D01*
X116664211Y-78221589D01*
X116679395Y-78158753D01*
X116691202Y-78112529D01*
X116698801Y-78086655D01*
X116699768Y-78084194D01*
X116710825Y-78060203D01*
X116721856Y-78042481D01*
X116735281Y-78031863D01*
X116753518Y-78029185D01*
X116778988Y-78035282D01*
X116814109Y-78050990D01*
X116861301Y-78077145D01*
X116922982Y-78114581D01*
X117001572Y-78164133D01*
X117084475Y-78217043D01*
X117140359Y-78251780D01*
X117187927Y-78279484D01*
X117223543Y-78298188D01*
X117243572Y-78305923D01*
X117246626Y-78304838D01*
X117245798Y-78288637D01*
X117243343Y-78250365D01*
X117239486Y-78193285D01*
X117234453Y-78120659D01*
X117228467Y-78035747D01*
X117221753Y-77941813D01*
X117219296Y-77907733D01*
X117212604Y-77809545D01*
X117207094Y-77717533D01*
X117202923Y-77635318D01*
X117200249Y-77566518D01*
X117199230Y-77514752D01*
X117200023Y-77483641D01*
X117200612Y-77479012D01*
X117215401Y-77438840D01*
X117237775Y-77413173D01*
X117262492Y-77404655D01*
X117311644Y-77395167D01*
X117384288Y-77384849D01*
X117479483Y-77373844D01*
X117538789Y-77367778D01*
X117619091Y-77359694D01*
X117690439Y-77352177D01*
X117749112Y-77345645D01*
X117791384Y-77340519D01*
X117813535Y-77337219D01*
X117815911Y-77336522D01*
X117812029Y-77324284D01*
X117798850Y-77292014D01*
X117777697Y-77242751D01*
X117749893Y-77179535D01*
X117716761Y-77105407D01*
X117679626Y-77023408D01*
X117679404Y-77022921D01*
X117641732Y-76938944D01*
X117607859Y-76860926D01*
X117579193Y-76792314D01*
X117557142Y-76736556D01*
X117543114Y-76697098D01*
X117538500Y-76677893D01*
X117545174Y-76640090D01*
X117558786Y-76607727D01*
X117574381Y-76591221D01*
X117607791Y-76562520D01*
X117656010Y-76523979D01*
X117716033Y-76477950D01*
X117784855Y-76426789D01*
X117850886Y-76378977D01*
X117923483Y-76326748D01*
X117988748Y-76279210D01*
X118043976Y-76238379D01*
X118086461Y-76206274D01*
X118113499Y-76184914D01*
X118122412Y-76176409D01*
X118112398Y-76167014D01*
X118084573Y-76145393D01*
X118041992Y-76113804D01*
X117987712Y-76074501D01*
X117924787Y-76029743D01*
X117903337Y-76014644D01*
X117836659Y-75966903D01*
X117776337Y-75921959D01*
X117725810Y-75882517D01*
X117688519Y-75851282D01*
X117667905Y-75830959D01*
X117665736Y-75827857D01*
X117655089Y-75804312D01*
X117654447Y-75781468D01*
X117664044Y-75748638D01*
X117667696Y-75738626D01*
X117679937Y-75713992D01*
X117704481Y-75671512D01*
X117739356Y-75614346D01*
X117782592Y-75545657D01*
X117832217Y-75468606D01*
X117886258Y-75386356D01*
X117903623Y-75360263D01*
X118118776Y-75037950D01*
X117841371Y-75049058D01*
X117742736Y-75052895D01*
X117666684Y-75054992D01*
X117610415Y-75054551D01*
X117571129Y-75050770D01*
X117546026Y-75042848D01*
X117532306Y-75029986D01*
X117527169Y-75011382D01*
X117527815Y-74986236D01*
X117530691Y-74960231D01*
X117536536Y-74931614D01*
X117549330Y-74882520D01*
X117568009Y-74816575D01*
X117591512Y-74737406D01*
X117618776Y-74648639D01*
X117648740Y-74553901D01*
X117659117Y-74521704D01*
X117689020Y-74429091D01*
X117716225Y-74344294D01*
X117739781Y-74270317D01*
X117758740Y-74210164D01*
X117772150Y-74166841D01*
X117779062Y-74143352D01*
X117779800Y-74140081D01*
X117769687Y-74144288D01*
X117741219Y-74160798D01*
X117697201Y-74187862D01*
X117640437Y-74223733D01*
X117573731Y-74266661D01*
X117509934Y-74308297D01*
X117435132Y-74356719D01*
X117366092Y-74400097D01*
X117305998Y-74436535D01*
X117258034Y-74464137D01*
X117225385Y-74481006D01*
X117212340Y-74485500D01*
X117199197Y-74484492D01*
X117188500Y-74480004D01*
X117180140Y-74469847D01*
X117174007Y-74451830D01*
X117169989Y-74423760D01*
X117167978Y-74383449D01*
X117167863Y-74328703D01*
X117169534Y-74257332D01*
X117172880Y-74167146D01*
X117177792Y-74055953D01*
X117184081Y-73923216D01*
X117188044Y-73836552D01*
X117191216Y-73758617D01*
X117193487Y-73692896D01*
X117194746Y-73642869D01*
X117194885Y-73612021D01*
X117194150Y-73603518D01*
X117185840Y-73612180D01*
X117164758Y-73639134D01*
X117132740Y-73681892D01*
X117091620Y-73737964D01*
X117043234Y-73804863D01*
X116989416Y-73880099D01*
X116968719Y-73909234D01*
X116911992Y-73988486D01*
X116858631Y-74061622D01*
X116810741Y-74125864D01*
X116770428Y-74178435D01*
X116739798Y-74216559D01*
X116720957Y-74237460D01*
X116717913Y-74239960D01*
X116702555Y-74249250D01*
X116689227Y-74253901D01*
X116677042Y-74251845D01*
X116665116Y-74241012D01*
X116652562Y-74219336D01*
X116638495Y-74184748D01*
X116622030Y-74135180D01*
X116602280Y-74068563D01*
X116578361Y-73982830D01*
X116549387Y-73875912D01*
X116528155Y-73796810D01*
X116506746Y-73717749D01*
X116487407Y-73647892D01*
X116471115Y-73590638D01*
X116458845Y-73549387D01*
X116451575Y-73527538D01*
X116450098Y-73524969D01*
X116445054Y-73537529D01*
X116432730Y-73571138D01*
X116414175Y-73622847D01*
X116390438Y-73689711D01*
X116362568Y-73768780D01*
X116331614Y-73857109D01*
X116317980Y-73896160D01*
X116284551Y-73990937D01*
X116252187Y-74080686D01*
X116222235Y-74161821D01*
X116196042Y-74230759D01*
X116174954Y-74283914D01*
X116160319Y-74317703D01*
X116157363Y-74323575D01*
X116142143Y-74350713D01*
X116128091Y-74370367D01*
X116113261Y-74381221D01*
X116095710Y-74381962D01*
X116073492Y-74371276D01*
X116044663Y-74347848D01*
X116007279Y-74310364D01*
X115959394Y-74257509D01*
X115899066Y-74187970D01*
X115824348Y-74100432D01*
X115820453Y-74095857D01*
X115774013Y-74041977D01*
X115733541Y-73996300D01*
X115701727Y-73961758D01*
X115681259Y-73941280D01*
X115674797Y-73937107D01*
X115673094Y-73951430D01*
X115669739Y-73988003D01*
X115664987Y-74043747D01*
X115659092Y-74115585D01*
X115652308Y-74200437D01*
X115644889Y-74295225D01*
X115640503Y-74352150D01*
X115632383Y-74453421D01*
X115624085Y-74548448D01*
X115615963Y-74633758D01*
X115608373Y-74705875D01*
X115601671Y-74761325D01*
X115596212Y-74796633D01*
X115594077Y-74805595D01*
X115584751Y-74828910D01*
X115572054Y-74845582D01*
X115552939Y-74855642D01*
X115524357Y-74859120D01*
X115483263Y-74856047D01*
X115426608Y-74846453D01*
X115351345Y-74830368D01*
X115259060Y-74808920D01*
X115183231Y-74791227D01*
X115116245Y-74776081D01*
X115061861Y-74764292D01*
X115023838Y-74756670D01*
X115005935Y-74754025D01*
X115005076Y-74754185D01*
X115006831Y-74767169D01*
X115013935Y-74801599D01*
X115025657Y-74854261D01*
X115041265Y-74921941D01*
X115060029Y-75001422D01*
X115081218Y-75089492D01*
X115082580Y-75095100D01*
X115110879Y-75213227D01*
X115132792Y-75309470D01*
X115148565Y-75386463D01*
X115158446Y-75446841D01*
X115162682Y-75493239D01*
X115161518Y-75528291D01*
X115155201Y-75554633D01*
X115143979Y-75574898D01*
X115129006Y-75590914D01*
X115106814Y-75605059D01*
X115064941Y-75626539D01*
X115007385Y-75653505D01*
X114938148Y-75684108D01*
X114861228Y-75716497D01*
X114829304Y-75729498D01*
X114752854Y-75760622D01*
X114684606Y-75788967D01*
X114627998Y-75813060D01*
X114586470Y-75831426D01*
X114563461Y-75842591D01*
X114560007Y-75844955D01*
X114565931Y-75857076D01*
X114585611Y-75886143D01*
X114616930Y-75929277D01*
X114657769Y-75983596D01*
X114706009Y-76046219D01*
X114738248Y-76087371D01*
X114803280Y-76170653D01*
X114853408Y-76237266D01*
X114890043Y-76290006D01*
X114914597Y-76331673D01*
X114928482Y-76365064D01*
X114933108Y-76392976D01*
X114929888Y-76418208D01*
X114920232Y-76443557D01*
X114919120Y-76445888D01*
X114905571Y-76465307D01*
X114876886Y-76500299D01*
X114835505Y-76548101D01*
X114783865Y-76605949D01*
X114724407Y-76671079D01*
X114659569Y-76740725D01*
X114650117Y-76750768D01*
X114586339Y-76818778D01*
X114528909Y-76880669D01*
X114479964Y-76934085D01*
X114441639Y-76976674D01*
X114416069Y-77006081D01*
X114405390Y-77019952D01*
X114405252Y-77020687D01*
X114418707Y-77026060D01*
X114451352Y-77036824D01*
X114497979Y-77051308D01*
X114542402Y-77064617D01*
X114653950Y-77097553D01*
X114743441Y-77124432D01*
X114813131Y-77146551D01*
X114865276Y-77165205D01*
X114902130Y-77181693D01*
X114925950Y-77197310D01*
X114938991Y-77213354D01*
X114943508Y-77231119D01*
X114941758Y-77251904D01*
X114935995Y-77277005D01*
X114932929Y-77289111D01*
X114923683Y-77315613D01*
X114904803Y-77361535D01*
X114877806Y-77423477D01*
X114844212Y-77498038D01*
X114805537Y-77581817D01*
X114763299Y-77671414D01*
X114748048Y-77703323D01*
X114706231Y-77790907D01*
X114668421Y-77870873D01*
X114635912Y-77940427D01*
X114609994Y-77996774D01*
X114591961Y-78037120D01*
X114583103Y-78058669D01*
X114582462Y-78061496D01*
X114595110Y-78058683D01*
X114628258Y-78048492D01*
X114678476Y-78032056D01*
X114742334Y-78010509D01*
X114816401Y-77984986D01*
X114858496Y-77970278D01*
X114960664Y-77935243D01*
X115043127Y-77908743D01*
X115104866Y-77891075D01*
X115144861Y-77882538D01*
X115159664Y-77882222D01*
X115176347Y-77888993D01*
X115185072Y-77903009D01*
X115188253Y-77930981D01*
X115188474Y-77962367D01*
X115185999Y-77993039D01*
X115179244Y-78044876D01*
X115168811Y-78114117D01*
X115155300Y-78197001D01*
X115139312Y-78289766D01*
X115121446Y-78388652D01*
X115114365Y-78426649D01*
X115040780Y-78818147D01*
X115302215Y-78558064D01*
X115370095Y-78491157D01*
X115433244Y-78430089D01*
X115489146Y-78377203D01*
X115535282Y-78334842D01*
X115569133Y-78305349D01*
X115588182Y-78291067D01*
X115590103Y-78290209D01*
X115612449Y-78290334D01*
X115628965Y-78310083D01*
X115632312Y-78317017D01*
X115636450Y-78335480D01*
X115642671Y-78375341D01*
X115650534Y-78432726D01*
X115659596Y-78503758D01*
X115669415Y-78584562D01*
X115679549Y-78671262D01*
X115689557Y-78759984D01*
X115698996Y-78846851D01*
X115707425Y-78927987D01*
X115714400Y-78999518D01*
X115719481Y-79057568D01*
X115722225Y-79098261D01*
X115722562Y-79108300D01*
X115722562Y-79350871D01*
X115717839Y-79357721D01*
X115701044Y-79376825D01*
X115687595Y-79386082D01*
X115679875Y-79387700D01*
X115667878Y-79384746D01*
X115657328Y-79374368D01*
X115647781Y-79354293D01*
X115638791Y-79322249D01*
X115629914Y-79275962D01*
X115620705Y-79213159D01*
X115610718Y-79131569D01*
X115599509Y-79028917D01*
X115588385Y-78920397D01*
X115578266Y-78821101D01*
X115568741Y-78730147D01*
X115560146Y-78650550D01*
X115552817Y-78585327D01*
X115547090Y-78537495D01*
X115543301Y-78510071D01*
X115542079Y-78504647D01*
X115532221Y-78512021D01*
X115506705Y-78535293D01*
X115467752Y-78572319D01*
X115417586Y-78620955D01*
X115358426Y-78679057D01*
X115292496Y-78744483D01*
X115264726Y-78772224D01*
X115184472Y-78852165D01*
X115119883Y-78915527D01*
X115069012Y-78964036D01*
X115029915Y-78999418D01*
X115000646Y-79023399D01*
X114979262Y-79037705D01*
X114963816Y-79044063D01*
X114957577Y-79044800D01*
X114929458Y-79036375D01*
X114913934Y-79009884D01*
X114910374Y-78963506D01*
X114914412Y-78920075D01*
X114918223Y-78896214D01*
X114925944Y-78851258D01*
X114936870Y-78789090D01*
X114950300Y-78713594D01*
X114965527Y-78628651D01*
X114981851Y-78538144D01*
X114998565Y-78445958D01*
X115014968Y-78355973D01*
X115030355Y-78272074D01*
X115044022Y-78198143D01*
X115055267Y-78138062D01*
X115063385Y-78095715D01*
X115067124Y-78077358D01*
X115064508Y-78071136D01*
X115050958Y-78070646D01*
X115023800Y-78076584D01*
X114980357Y-78089646D01*
X114917953Y-78110530D01*
X114854192Y-78132767D01*
X114750352Y-78169297D01*
X114667678Y-78198129D01*
X114603406Y-78220081D01*
X114554772Y-78235969D01*
X114519012Y-78246609D01*
X114493362Y-78252819D01*
X114475057Y-78255414D01*
X114461333Y-78255212D01*
X114449425Y-78253028D01*
X114448154Y-78252714D01*
X114426581Y-78244255D01*
X114416892Y-78227937D01*
X114414653Y-78195518D01*
X114414672Y-78190484D01*
X114416906Y-78171096D01*
X114424020Y-78144371D01*
X114436974Y-78108046D01*
X114456730Y-78059855D01*
X114484248Y-77997536D01*
X114520487Y-77918825D01*
X114566410Y-77821458D01*
X114609932Y-77730350D01*
X114654877Y-77636266D01*
X114695936Y-77549623D01*
X114731897Y-77473027D01*
X114761552Y-77409087D01*
X114783690Y-77360411D01*
X114797101Y-77329605D01*
X114800693Y-77319292D01*
X114787853Y-77314467D01*
X114754198Y-77303553D01*
X114703275Y-77287649D01*
X114638629Y-77267858D01*
X114563808Y-77245281D01*
X114528251Y-77234652D01*
X114425245Y-77203073D01*
X114344304Y-77176352D01*
X114286163Y-77154756D01*
X114251558Y-77138550D01*
X114242272Y-77131361D01*
X114229214Y-77109845D01*
X114223674Y-77087104D01*
X114226986Y-77061025D01*
X114226986Y-77061025D01*
G37*
X114226986Y-77061025D02*
X114240481Y-77029493D01*
X114265489Y-76990395D01*
X114303344Y-76941618D01*
X114355375Y-76881048D01*
X114422915Y-76806570D01*
X114496986Y-76727050D01*
X114561325Y-76658479D01*
X114621389Y-76594429D01*
X114674555Y-76537702D01*
X114718198Y-76491101D01*
X114749692Y-76457425D01*
X114766378Y-76439515D01*
X114797389Y-76405980D01*
X114633527Y-76198215D01*
X114564945Y-76111125D01*
X114510532Y-76041482D01*
X114468656Y-75986846D01*
X114437685Y-75944778D01*
X114415988Y-75912838D01*
X114401933Y-75888585D01*
X114393889Y-75869579D01*
X114390225Y-75853380D01*
X114389309Y-75837548D01*
X114389322Y-75832970D01*
X114391159Y-75807343D01*
X114397838Y-75785072D01*
X114411884Y-75764502D01*
X114435824Y-75743980D01*
X114472183Y-75721851D01*
X114523486Y-75696462D01*
X114592258Y-75666159D01*
X114681025Y-75629287D01*
X114731941Y-75608582D01*
X114812796Y-75575742D01*
X114885931Y-75545866D01*
X114948017Y-75520327D01*
X114995729Y-75500498D01*
X115025739Y-75487753D01*
X115034659Y-75483650D01*
X115034533Y-75470085D01*
X115028859Y-75435019D01*
X115018295Y-75381581D01*
X115003498Y-75312902D01*
X114985125Y-75232110D01*
X114963832Y-75142337D01*
X114957857Y-75117739D01*
X114926558Y-74987176D01*
X114902187Y-74879004D01*
X114884724Y-74791182D01*
X114874149Y-74721668D01*
X114870442Y-74668423D01*
X114873583Y-74629405D01*
X114883552Y-74602574D01*
X114900329Y-74585888D01*
X114923895Y-74577307D01*
X114952551Y-74574804D01*
X114975844Y-74577533D01*
X115019420Y-74585379D01*
X115078883Y-74597444D01*
X115149838Y-74612831D01*
X115227890Y-74630641D01*
X115241346Y-74633798D01*
X115317760Y-74651396D01*
X115385546Y-74666248D01*
X115440914Y-74677585D01*
X115480076Y-74684639D01*
X115499242Y-74686644D01*
X115500438Y-74686296D01*
X115502923Y-74672454D01*
X115506894Y-74636200D01*
X115512096Y-74580462D01*
X115518279Y-74508170D01*
X115525192Y-74422251D01*
X115532581Y-74325635D01*
X115539115Y-74236374D01*
X115548768Y-74104915D01*
X115557397Y-73996604D01*
X115565446Y-73909230D01*
X115573357Y-73840583D01*
X115581575Y-73788452D01*
X115590542Y-73750627D01*
X115600702Y-73724898D01*
X115612498Y-73709054D01*
X115626374Y-73700886D01*
X115642772Y-73698182D01*
X115647069Y-73698100D01*
X115685637Y-73709941D01*
X115705465Y-73728256D01*
X115720496Y-73746546D01*
X115749416Y-73780711D01*
X115789423Y-73827478D01*
X115837714Y-73883575D01*
X115891487Y-73945733D01*
X115912304Y-73969718D01*
X115979439Y-74045849D01*
X116032751Y-74103802D01*
X116071771Y-74143100D01*
X116096028Y-74163265D01*
X116104696Y-74164988D01*
X116111124Y-74149049D01*
X116124642Y-74112481D01*
X116144042Y-74058660D01*
X116168115Y-73990964D01*
X116195651Y-73912769D01*
X116221842Y-73837800D01*
X116266033Y-73711027D01*
X116302827Y-73606044D01*
X116333095Y-73520625D01*
X116357709Y-73452545D01*
X116377540Y-73399578D01*
X116393458Y-73359498D01*
X116406336Y-73330078D01*
X116417044Y-73309093D01*
X116426454Y-73294316D01*
X116435436Y-73283521D01*
X116440869Y-73278136D01*
X116472327Y-73248583D01*
X116498214Y-73274471D01*
X116504439Y-73282094D01*
X116511180Y-73293927D01*
X116519013Y-73311894D01*
X116528514Y-73337916D01*
X116540259Y-73373918D01*
X116554825Y-73421822D01*
X116572788Y-73483551D01*
X116594724Y-73561029D01*
X116621210Y-73656178D01*
X116652822Y-73770922D01*
X116690136Y-73907184D01*
X116713936Y-73994335D01*
X116727195Y-74042919D01*
X116949856Y-73727635D01*
X117028437Y-73617157D01*
X117094245Y-73526637D01*
X117148479Y-73454819D01*
X117192336Y-73400447D01*
X117227013Y-73362267D01*
X117253707Y-73339020D01*
X117273615Y-73329453D01*
X117287936Y-73332309D01*
X117297865Y-73346332D01*
X117301895Y-73358375D01*
X117306305Y-73391419D01*
X117308518Y-73448646D01*
X117308551Y-73528939D01*
X117306424Y-73631179D01*
X117302154Y-73754247D01*
X117295759Y-73897023D01*
X117291996Y-73971150D01*
X117287512Y-74058052D01*
X117283633Y-74136083D01*
X117280519Y-74201816D01*
X117278327Y-74251818D01*
X117277215Y-74282661D01*
X117277215Y-74291241D01*
X117287833Y-74285194D01*
X117316829Y-74266827D01*
X117361457Y-74237928D01*
X117418975Y-74200285D01*
X117486636Y-74155687D01*
X117561697Y-74105922D01*
X117564374Y-74104142D01*
X117656242Y-74043535D01*
X117729628Y-73996301D01*
X117786776Y-73961134D01*
X117829932Y-73936729D01*
X117861342Y-73921779D01*
X117883251Y-73914979D01*
X117890925Y-73914226D01*
X117915535Y-73915289D01*
X117927687Y-73923230D01*
X117931777Y-73944653D01*
X117932200Y-73976193D01*
X117928771Y-74004840D01*
X117918341Y-74052020D01*
X117900689Y-74118458D01*
X117875598Y-74204879D01*
X117842847Y-74312010D01*
X117802219Y-74440576D01*
X117753494Y-74591302D01*
X117696453Y-74764915D01*
X117672081Y-74838457D01*
X117653979Y-74892963D01*
X117959811Y-74889257D01*
X118057018Y-74888250D01*
X118131862Y-74887987D01*
X118187373Y-74888622D01*
X118226582Y-74890313D01*
X118252519Y-74893215D01*
X118268213Y-74897486D01*
X118276696Y-74903281D01*
X118278524Y-74905702D01*
X118286001Y-74922684D01*
X118287494Y-74943420D01*
X118281914Y-74970028D01*
X118268171Y-75004627D01*
X118245174Y-75049334D01*
X118211834Y-75106267D01*
X118167061Y-75177546D01*
X118109765Y-75265287D01*
X118038856Y-75371608D01*
X118038495Y-75372146D01*
X117982250Y-75456091D01*
X117930694Y-75533346D01*
X117885500Y-75601378D01*
X117848342Y-75657653D01*
X117820895Y-75699641D01*
X117804833Y-75724807D01*
X117801270Y-75731012D01*
X117810477Y-75740621D01*
X117837627Y-75762686D01*
X117879881Y-75795059D01*
X117934403Y-75835588D01*
X117998355Y-75882123D01*
X118041971Y-75913388D01*
X118127557Y-75974963D01*
X118193866Y-76024650D01*
X118242671Y-76064777D01*
X118275744Y-76097673D01*
X118294858Y-76125666D01*
X118301784Y-76151084D01*
X118298297Y-76176256D01*
X118286167Y-76203509D01*
X118276056Y-76220882D01*
X118257925Y-76240711D01*
X118220766Y-76273098D01*
X118166630Y-76316429D01*
X118097565Y-76369089D01*
X118015622Y-76429463D01*
X117964953Y-76465982D01*
X117890269Y-76519769D01*
X117822831Y-76569012D01*
X117765279Y-76611729D01*
X117720251Y-76645938D01*
X117690387Y-76669658D01*
X117678326Y-76680907D01*
X117678200Y-76681300D01*
X117683282Y-76695070D01*
X117697629Y-76728863D01*
X117719887Y-76779626D01*
X117748706Y-76844305D01*
X117782734Y-76919849D01*
X117820618Y-77003205D01*
X117824878Y-77012533D01*
X117868908Y-77109406D01*
X117903205Y-77186292D01*
X117928891Y-77246167D01*
X117947091Y-77292006D01*
X117958927Y-77326786D01*
X117965522Y-77353483D01*
X117968001Y-77375071D01*
X117967753Y-77391007D01*
X117964836Y-77419775D01*
X117958458Y-77442665D01*
X117945805Y-77460700D01*
X117924061Y-77474902D01*
X117890414Y-77486295D01*
X117842048Y-77495901D01*
X117776150Y-77504743D01*
X117689905Y-77513844D01*
X117608350Y-77521626D01*
X117525148Y-77529551D01*
X117450827Y-77536889D01*
X117388974Y-77543266D01*
X117343177Y-77548304D01*
X117317023Y-77551630D01*
X117312274Y-77552621D01*
X117312123Y-77565724D01*
X117313679Y-77600904D01*
X117316745Y-77654908D01*
X117321123Y-77724483D01*
X117326616Y-77806377D01*
X117333027Y-77897338D01*
X117333943Y-77910010D01*
X117343831Y-78048097D01*
X117351631Y-78163048D01*
X117357252Y-78257048D01*
X117360603Y-78332283D01*
X117361591Y-78390937D01*
X117360127Y-78435197D01*
X117356120Y-78467247D01*
X117349477Y-78489273D01*
X117340108Y-78503460D01*
X117327922Y-78511993D01*
X117312828Y-78517058D01*
X117308591Y-78518038D01*
X117296881Y-78520630D01*
X117286221Y-78521696D01*
X117273932Y-78519821D01*
X117257335Y-78513592D01*
X117233749Y-78501593D01*
X117200495Y-78482412D01*
X117154892Y-78454633D01*
X117094262Y-78416842D01*
X117015925Y-78367625D01*
X116975909Y-78342458D01*
X116912671Y-78303060D01*
X116857191Y-78269190D01*
X116812870Y-78242869D01*
X116783112Y-78226116D01*
X116771319Y-78220950D01*
X116771293Y-78220975D01*
X116767765Y-78234167D01*
X116759877Y-78268918D01*
X116748344Y-78321899D01*
X116733883Y-78389781D01*
X116717211Y-78469235D01*
X116700575Y-78549500D01*
X116672177Y-78686800D01*
X116648206Y-78801396D01*
X116628137Y-78895497D01*
X116611445Y-78971310D01*
X116597603Y-79031045D01*
X116586086Y-79076910D01*
X116576370Y-79111114D01*
X116567927Y-79135864D01*
X116560234Y-79153370D01*
X116554524Y-79163249D01*
X116538965Y-79184112D01*
X116523898Y-79195928D01*
X116507936Y-79197011D01*
X116489693Y-79185680D01*
X116467781Y-79160249D01*
X116440814Y-79119038D01*
X116407406Y-79060360D01*
X116366169Y-78982534D01*
X116315718Y-78883877D01*
X116301923Y-78856593D01*
X116146389Y-78548522D01*
X115950738Y-78932253D01*
X115890665Y-79049462D01*
X115840569Y-79145674D01*
X115799343Y-79222748D01*
X115765883Y-79282541D01*
X115739083Y-79326913D01*
X115722562Y-79350871D01*
X115722562Y-79108300D01*
X115728131Y-79102139D01*
X115743790Y-79075801D01*
X115768188Y-79031788D01*
X115799976Y-78972602D01*
X115837804Y-78900744D01*
X115880320Y-78818715D01*
X115907650Y-78765400D01*
X115954179Y-78675279D01*
X115998626Y-78591093D01*
X116039300Y-78515902D01*
X116074512Y-78452763D01*
X116102568Y-78404737D01*
X116121780Y-78374882D01*
X116127422Y-78367844D01*
X116150828Y-78345605D01*
X116166082Y-78339912D01*
X116182511Y-78348880D01*
X116190276Y-78355144D01*
X116203575Y-78372508D01*
X116226269Y-78409253D01*
X116256464Y-78462006D01*
X116292267Y-78527396D01*
X116331785Y-78602049D01*
X116363592Y-78663800D01*
X116403078Y-78741025D01*
X116438520Y-78809662D01*
X116468391Y-78866810D01*
X116491164Y-78909568D01*
X116505312Y-78935033D01*
X116509417Y-78940907D01*
X116512675Y-78917623D01*
X116520865Y-78873556D01*
X116533155Y-78812447D01*
X116548715Y-78738034D01*
X116566714Y-78654058D01*
X116586321Y-78564256D01*
X116606704Y-78472369D01*
X116627035Y-78382136D01*
X116646480Y-78297296D01*
X116664211Y-78221589D01*
X116679395Y-78158753D01*
X116691202Y-78112529D01*
X116698801Y-78086655D01*
X116699768Y-78084194D01*
X116710825Y-78060203D01*
X116721856Y-78042481D01*
X116735281Y-78031863D01*
X116753518Y-78029185D01*
X116778988Y-78035282D01*
X116814109Y-78050990D01*
X116861301Y-78077145D01*
X116922982Y-78114581D01*
X117001572Y-78164133D01*
X117084475Y-78217043D01*
X117140359Y-78251780D01*
X117187927Y-78279484D01*
X117223543Y-78298188D01*
X117243572Y-78305923D01*
X117246626Y-78304838D01*
X117245798Y-78288637D01*
X117243343Y-78250365D01*
X117239486Y-78193285D01*
X117234453Y-78120659D01*
X117228467Y-78035747D01*
X117221753Y-77941813D01*
X117219296Y-77907733D01*
X117212604Y-77809545D01*
X117207094Y-77717533D01*
X117202923Y-77635318D01*
X117200249Y-77566518D01*
X117199230Y-77514752D01*
X117200023Y-77483641D01*
X117200612Y-77479012D01*
X117215401Y-77438840D01*
X117237775Y-77413173D01*
X117262492Y-77404655D01*
X117311644Y-77395167D01*
X117384288Y-77384849D01*
X117479483Y-77373844D01*
X117538789Y-77367778D01*
X117619091Y-77359694D01*
X117690439Y-77352177D01*
X117749112Y-77345645D01*
X117791384Y-77340519D01*
X117813535Y-77337219D01*
X117815911Y-77336522D01*
X117812029Y-77324284D01*
X117798850Y-77292014D01*
X117777697Y-77242751D01*
X117749893Y-77179535D01*
X117716761Y-77105407D01*
X117679626Y-77023408D01*
X117679404Y-77022921D01*
X117641732Y-76938944D01*
X117607859Y-76860926D01*
X117579193Y-76792314D01*
X117557142Y-76736556D01*
X117543114Y-76697098D01*
X117538500Y-76677893D01*
X117545174Y-76640090D01*
X117558786Y-76607727D01*
X117574381Y-76591221D01*
X117607791Y-76562520D01*
X117656010Y-76523979D01*
X117716033Y-76477950D01*
X117784855Y-76426789D01*
X117850886Y-76378977D01*
X117923483Y-76326748D01*
X117988748Y-76279210D01*
X118043976Y-76238379D01*
X118086461Y-76206274D01*
X118113499Y-76184914D01*
X118122412Y-76176409D01*
X118112398Y-76167014D01*
X118084573Y-76145393D01*
X118041992Y-76113804D01*
X117987712Y-76074501D01*
X117924787Y-76029743D01*
X117903337Y-76014644D01*
X117836659Y-75966903D01*
X117776337Y-75921959D01*
X117725810Y-75882517D01*
X117688519Y-75851282D01*
X117667905Y-75830959D01*
X117665736Y-75827857D01*
X117655089Y-75804312D01*
X117654447Y-75781468D01*
X117664044Y-75748638D01*
X117667696Y-75738626D01*
X117679937Y-75713992D01*
X117704481Y-75671512D01*
X117739356Y-75614346D01*
X117782592Y-75545657D01*
X117832217Y-75468606D01*
X117886258Y-75386356D01*
X117903623Y-75360263D01*
X118118776Y-75037950D01*
X117841371Y-75049058D01*
X117742736Y-75052895D01*
X117666684Y-75054992D01*
X117610415Y-75054551D01*
X117571129Y-75050770D01*
X117546026Y-75042848D01*
X117532306Y-75029986D01*
X117527169Y-75011382D01*
X117527815Y-74986236D01*
X117530691Y-74960231D01*
X117536536Y-74931614D01*
X117549330Y-74882520D01*
X117568009Y-74816575D01*
X117591512Y-74737406D01*
X117618776Y-74648639D01*
X117648740Y-74553901D01*
X117659117Y-74521704D01*
X117689020Y-74429091D01*
X117716225Y-74344294D01*
X117739781Y-74270317D01*
X117758740Y-74210164D01*
X117772150Y-74166841D01*
X117779062Y-74143352D01*
X117779800Y-74140081D01*
X117769687Y-74144288D01*
X117741219Y-74160798D01*
X117697201Y-74187862D01*
X117640437Y-74223733D01*
X117573731Y-74266661D01*
X117509934Y-74308297D01*
X117435132Y-74356719D01*
X117366092Y-74400097D01*
X117305998Y-74436535D01*
X117258034Y-74464137D01*
X117225385Y-74481006D01*
X117212340Y-74485500D01*
X117199197Y-74484492D01*
X117188500Y-74480004D01*
X117180140Y-74469847D01*
X117174007Y-74451830D01*
X117169989Y-74423760D01*
X117167978Y-74383449D01*
X117167863Y-74328703D01*
X117169534Y-74257332D01*
X117172880Y-74167146D01*
X117177792Y-74055953D01*
X117184081Y-73923216D01*
X117188044Y-73836552D01*
X117191216Y-73758617D01*
X117193487Y-73692896D01*
X117194746Y-73642869D01*
X117194885Y-73612021D01*
X117194150Y-73603518D01*
X117185840Y-73612180D01*
X117164758Y-73639134D01*
X117132740Y-73681892D01*
X117091620Y-73737964D01*
X117043234Y-73804863D01*
X116989416Y-73880099D01*
X116968719Y-73909234D01*
X116911992Y-73988486D01*
X116858631Y-74061622D01*
X116810741Y-74125864D01*
X116770428Y-74178435D01*
X116739798Y-74216559D01*
X116720957Y-74237460D01*
X116717913Y-74239960D01*
X116702555Y-74249250D01*
X116689227Y-74253901D01*
X116677042Y-74251845D01*
X116665116Y-74241012D01*
X116652562Y-74219336D01*
X116638495Y-74184748D01*
X116622030Y-74135180D01*
X116602280Y-74068563D01*
X116578361Y-73982830D01*
X116549387Y-73875912D01*
X116528155Y-73796810D01*
X116506746Y-73717749D01*
X116487407Y-73647892D01*
X116471115Y-73590638D01*
X116458845Y-73549387D01*
X116451575Y-73527538D01*
X116450098Y-73524969D01*
X116445054Y-73537529D01*
X116432730Y-73571138D01*
X116414175Y-73622847D01*
X116390438Y-73689711D01*
X116362568Y-73768780D01*
X116331614Y-73857109D01*
X116317980Y-73896160D01*
X116284551Y-73990937D01*
X116252187Y-74080686D01*
X116222235Y-74161821D01*
X116196042Y-74230759D01*
X116174954Y-74283914D01*
X116160319Y-74317703D01*
X116157363Y-74323575D01*
X116142143Y-74350713D01*
X116128091Y-74370367D01*
X116113261Y-74381221D01*
X116095710Y-74381962D01*
X116073492Y-74371276D01*
X116044663Y-74347848D01*
X116007279Y-74310364D01*
X115959394Y-74257509D01*
X115899066Y-74187970D01*
X115824348Y-74100432D01*
X115820453Y-74095857D01*
X115774013Y-74041977D01*
X115733541Y-73996300D01*
X115701727Y-73961758D01*
X115681259Y-73941280D01*
X115674797Y-73937107D01*
X115673094Y-73951430D01*
X115669739Y-73988003D01*
X115664987Y-74043747D01*
X115659092Y-74115585D01*
X115652308Y-74200437D01*
X115644889Y-74295225D01*
X115640503Y-74352150D01*
X115632383Y-74453421D01*
X115624085Y-74548448D01*
X115615963Y-74633758D01*
X115608373Y-74705875D01*
X115601671Y-74761325D01*
X115596212Y-74796633D01*
X115594077Y-74805595D01*
X115584751Y-74828910D01*
X115572054Y-74845582D01*
X115552939Y-74855642D01*
X115524357Y-74859120D01*
X115483263Y-74856047D01*
X115426608Y-74846453D01*
X115351345Y-74830368D01*
X115259060Y-74808920D01*
X115183231Y-74791227D01*
X115116245Y-74776081D01*
X115061861Y-74764292D01*
X115023838Y-74756670D01*
X115005935Y-74754025D01*
X115005076Y-74754185D01*
X115006831Y-74767169D01*
X115013935Y-74801599D01*
X115025657Y-74854261D01*
X115041265Y-74921941D01*
X115060029Y-75001422D01*
X115081218Y-75089492D01*
X115082580Y-75095100D01*
X115110879Y-75213227D01*
X115132792Y-75309470D01*
X115148565Y-75386463D01*
X115158446Y-75446841D01*
X115162682Y-75493239D01*
X115161518Y-75528291D01*
X115155201Y-75554633D01*
X115143979Y-75574898D01*
X115129006Y-75590914D01*
X115106814Y-75605059D01*
X115064941Y-75626539D01*
X115007385Y-75653505D01*
X114938148Y-75684108D01*
X114861228Y-75716497D01*
X114829304Y-75729498D01*
X114752854Y-75760622D01*
X114684606Y-75788967D01*
X114627998Y-75813060D01*
X114586470Y-75831426D01*
X114563461Y-75842591D01*
X114560007Y-75844955D01*
X114565931Y-75857076D01*
X114585611Y-75886143D01*
X114616930Y-75929277D01*
X114657769Y-75983596D01*
X114706009Y-76046219D01*
X114738248Y-76087371D01*
X114803280Y-76170653D01*
X114853408Y-76237266D01*
X114890043Y-76290006D01*
X114914597Y-76331673D01*
X114928482Y-76365064D01*
X114933108Y-76392976D01*
X114929888Y-76418208D01*
X114920232Y-76443557D01*
X114919120Y-76445888D01*
X114905571Y-76465307D01*
X114876886Y-76500299D01*
X114835505Y-76548101D01*
X114783865Y-76605949D01*
X114724407Y-76671079D01*
X114659569Y-76740725D01*
X114650117Y-76750768D01*
X114586339Y-76818778D01*
X114528909Y-76880669D01*
X114479964Y-76934085D01*
X114441639Y-76976674D01*
X114416069Y-77006081D01*
X114405390Y-77019952D01*
X114405252Y-77020687D01*
X114418707Y-77026060D01*
X114451352Y-77036824D01*
X114497979Y-77051308D01*
X114542402Y-77064617D01*
X114653950Y-77097553D01*
X114743441Y-77124432D01*
X114813131Y-77146551D01*
X114865276Y-77165205D01*
X114902130Y-77181693D01*
X114925950Y-77197310D01*
X114938991Y-77213354D01*
X114943508Y-77231119D01*
X114941758Y-77251904D01*
X114935995Y-77277005D01*
X114932929Y-77289111D01*
X114923683Y-77315613D01*
X114904803Y-77361535D01*
X114877806Y-77423477D01*
X114844212Y-77498038D01*
X114805537Y-77581817D01*
X114763299Y-77671414D01*
X114748048Y-77703323D01*
X114706231Y-77790907D01*
X114668421Y-77870873D01*
X114635912Y-77940427D01*
X114609994Y-77996774D01*
X114591961Y-78037120D01*
X114583103Y-78058669D01*
X114582462Y-78061496D01*
X114595110Y-78058683D01*
X114628258Y-78048492D01*
X114678476Y-78032056D01*
X114742334Y-78010509D01*
X114816401Y-77984986D01*
X114858496Y-77970278D01*
X114960664Y-77935243D01*
X115043127Y-77908743D01*
X115104866Y-77891075D01*
X115144861Y-77882538D01*
X115159664Y-77882222D01*
X115176347Y-77888993D01*
X115185072Y-77903009D01*
X115188253Y-77930981D01*
X115188474Y-77962367D01*
X115185999Y-77993039D01*
X115179244Y-78044876D01*
X115168811Y-78114117D01*
X115155300Y-78197001D01*
X115139312Y-78289766D01*
X115121446Y-78388652D01*
X115114365Y-78426649D01*
X115040780Y-78818147D01*
X115302215Y-78558064D01*
X115370095Y-78491157D01*
X115433244Y-78430089D01*
X115489146Y-78377203D01*
X115535282Y-78334842D01*
X115569133Y-78305349D01*
X115588182Y-78291067D01*
X115590103Y-78290209D01*
X115612449Y-78290334D01*
X115628965Y-78310083D01*
X115632312Y-78317017D01*
X115636450Y-78335480D01*
X115642671Y-78375341D01*
X115650534Y-78432726D01*
X115659596Y-78503758D01*
X115669415Y-78584562D01*
X115679549Y-78671262D01*
X115689557Y-78759984D01*
X115698996Y-78846851D01*
X115707425Y-78927987D01*
X115714400Y-78999518D01*
X115719481Y-79057568D01*
X115722225Y-79098261D01*
X115722562Y-79108300D01*
X115722562Y-79350871D01*
X115717839Y-79357721D01*
X115701044Y-79376825D01*
X115687595Y-79386082D01*
X115679875Y-79387700D01*
X115667878Y-79384746D01*
X115657328Y-79374368D01*
X115647781Y-79354293D01*
X115638791Y-79322249D01*
X115629914Y-79275962D01*
X115620705Y-79213159D01*
X115610718Y-79131569D01*
X115599509Y-79028917D01*
X115588385Y-78920397D01*
X115578266Y-78821101D01*
X115568741Y-78730147D01*
X115560146Y-78650550D01*
X115552817Y-78585327D01*
X115547090Y-78537495D01*
X115543301Y-78510071D01*
X115542079Y-78504647D01*
X115532221Y-78512021D01*
X115506705Y-78535293D01*
X115467752Y-78572319D01*
X115417586Y-78620955D01*
X115358426Y-78679057D01*
X115292496Y-78744483D01*
X115264726Y-78772224D01*
X115184472Y-78852165D01*
X115119883Y-78915527D01*
X115069012Y-78964036D01*
X115029915Y-78999418D01*
X115000646Y-79023399D01*
X114979262Y-79037705D01*
X114963816Y-79044063D01*
X114957577Y-79044800D01*
X114929458Y-79036375D01*
X114913934Y-79009884D01*
X114910374Y-78963506D01*
X114914412Y-78920075D01*
X114918223Y-78896214D01*
X114925944Y-78851258D01*
X114936870Y-78789090D01*
X114950300Y-78713594D01*
X114965527Y-78628651D01*
X114981851Y-78538144D01*
X114998565Y-78445958D01*
X115014968Y-78355973D01*
X115030355Y-78272074D01*
X115044022Y-78198143D01*
X115055267Y-78138062D01*
X115063385Y-78095715D01*
X115067124Y-78077358D01*
X115064508Y-78071136D01*
X115050958Y-78070646D01*
X115023800Y-78076584D01*
X114980357Y-78089646D01*
X114917953Y-78110530D01*
X114854192Y-78132767D01*
X114750352Y-78169297D01*
X114667678Y-78198129D01*
X114603406Y-78220081D01*
X114554772Y-78235969D01*
X114519012Y-78246609D01*
X114493362Y-78252819D01*
X114475057Y-78255414D01*
X114461333Y-78255212D01*
X114449425Y-78253028D01*
X114448154Y-78252714D01*
X114426581Y-78244255D01*
X114416892Y-78227937D01*
X114414653Y-78195518D01*
X114414672Y-78190484D01*
X114416906Y-78171096D01*
X114424020Y-78144371D01*
X114436974Y-78108046D01*
X114456730Y-78059855D01*
X114484248Y-77997536D01*
X114520487Y-77918825D01*
X114566410Y-77821458D01*
X114609932Y-77730350D01*
X114654877Y-77636266D01*
X114695936Y-77549623D01*
X114731897Y-77473027D01*
X114761552Y-77409087D01*
X114783690Y-77360411D01*
X114797101Y-77329605D01*
X114800693Y-77319292D01*
X114787853Y-77314467D01*
X114754198Y-77303553D01*
X114703275Y-77287649D01*
X114638629Y-77267858D01*
X114563808Y-77245281D01*
X114528251Y-77234652D01*
X114425245Y-77203073D01*
X114344304Y-77176352D01*
X114286163Y-77154756D01*
X114251558Y-77138550D01*
X114242272Y-77131361D01*
X114229214Y-77109845D01*
X114223674Y-77087104D01*
X114226986Y-77061025D01*
G36*
X117583938Y-89477595D02*
G01*
X117599399Y-89350223D01*
X117626760Y-89241359D01*
X117666445Y-89149482D01*
X117718876Y-89073072D01*
X117784478Y-89010608D01*
X117810323Y-88991965D01*
X117890532Y-88948173D01*
X117976036Y-88922853D01*
X118073150Y-88914456D01*
X118121451Y-88915738D01*
X118236348Y-88931075D01*
X118335082Y-88964399D01*
X118419160Y-89016902D01*
X118490088Y-89089777D01*
X118549372Y-89184214D01*
X118594503Y-89289983D01*
X118607599Y-89334953D01*
X118617010Y-89388717D01*
X118623527Y-89457070D01*
X118627412Y-89531825D01*
X118634013Y-89700100D01*
X119202200Y-89700100D01*
X119202200Y-90068400D01*
X117869183Y-90068400D01*
X117869183Y-89700100D01*
X118351300Y-89700100D01*
X118351300Y-89600763D01*
X118348075Y-89535075D01*
X118339409Y-89474575D01*
X118330777Y-89441194D01*
X118297253Y-89375907D01*
X118249141Y-89325831D01*
X118190802Y-89291503D01*
X118126596Y-89273461D01*
X118060885Y-89272243D01*
X117998029Y-89288386D01*
X117942390Y-89322428D01*
X117898329Y-89374906D01*
X117891601Y-89387055D01*
X117876091Y-89431036D01*
X117864178Y-89490597D01*
X117856919Y-89556044D01*
X117855373Y-89617686D01*
X117860596Y-89665829D01*
X117861007Y-89667525D01*
X117869183Y-89700100D01*
X117869183Y-90068400D01*
X117617662Y-90068400D01*
X117609852Y-90039825D01*
X117606410Y-90018012D01*
X117601823Y-89975697D01*
X117596539Y-89917728D01*
X117591010Y-89848953D01*
X117587024Y-89793942D01*
X117579954Y-89624994D01*
X117583938Y-89477595D01*
X117583938Y-89477595D01*
G37*
X117583938Y-89477595D02*
X117599399Y-89350223D01*
X117626760Y-89241359D01*
X117666445Y-89149482D01*
X117718876Y-89073072D01*
X117784478Y-89010608D01*
X117810323Y-88991965D01*
X117890532Y-88948173D01*
X117976036Y-88922853D01*
X118073150Y-88914456D01*
X118121451Y-88915738D01*
X118236348Y-88931075D01*
X118335082Y-88964399D01*
X118419160Y-89016902D01*
X118490088Y-89089777D01*
X118549372Y-89184214D01*
X118594503Y-89289983D01*
X118607599Y-89334953D01*
X118617010Y-89388717D01*
X118623527Y-89457070D01*
X118627412Y-89531825D01*
X118634013Y-89700100D01*
X119202200Y-89700100D01*
X119202200Y-90068400D01*
X117869183Y-90068400D01*
X117869183Y-89700100D01*
X118351300Y-89700100D01*
X118351300Y-89600763D01*
X118348075Y-89535075D01*
X118339409Y-89474575D01*
X118330777Y-89441194D01*
X118297253Y-89375907D01*
X118249141Y-89325831D01*
X118190802Y-89291503D01*
X118126596Y-89273461D01*
X118060885Y-89272243D01*
X117998029Y-89288386D01*
X117942390Y-89322428D01*
X117898329Y-89374906D01*
X117891601Y-89387055D01*
X117876091Y-89431036D01*
X117864178Y-89490597D01*
X117856919Y-89556044D01*
X117855373Y-89617686D01*
X117860596Y-89665829D01*
X117861007Y-89667525D01*
X117869183Y-89700100D01*
X117869183Y-90068400D01*
X117617662Y-90068400D01*
X117609852Y-90039825D01*
X117606410Y-90018012D01*
X117601823Y-89975697D01*
X117596539Y-89917728D01*
X117591010Y-89848953D01*
X117587024Y-89793942D01*
X117579954Y-89624994D01*
X117583938Y-89477595D01*
G36*
X118007502Y-77782051D02*
G01*
X118027800Y-77770125D01*
X118063477Y-77764254D01*
X118117977Y-77762293D01*
X118186763Y-77762100D01*
X118362164Y-77762100D01*
X118354966Y-77831845D01*
X118357730Y-77911035D01*
X118381172Y-77982501D01*
X118422724Y-78042144D01*
X118479819Y-78085867D01*
X118525577Y-78104237D01*
X118552689Y-78108189D01*
X118601599Y-78111619D01*
X118668708Y-78114397D01*
X118750417Y-78116392D01*
X118843127Y-78117472D01*
X118894225Y-78117630D01*
X119214900Y-78117700D01*
X119214900Y-78486000D01*
X118881525Y-78486034D01*
X118772894Y-78486408D01*
X118655222Y-78487438D01*
X118536303Y-78489012D01*
X118423931Y-78491021D01*
X118325900Y-78493353D01*
X118290975Y-78494400D01*
X118033800Y-78502732D01*
X118033800Y-78168500D01*
X118138575Y-78168003D01*
X118188932Y-78167498D01*
X118216960Y-78166031D01*
X118225726Y-78162783D01*
X118218301Y-78156935D01*
X118204262Y-78150486D01*
X118135804Y-78107771D01*
X118077168Y-78046259D01*
X118032725Y-77971960D01*
X118006844Y-77890887D01*
X118004436Y-77875599D01*
X117999265Y-77832644D01*
X117999139Y-77802176D01*
X118007502Y-77782051D01*
X118007502Y-77782051D01*
G37*
X118007502Y-77782051D02*
X118027800Y-77770125D01*
X118063477Y-77764254D01*
X118117977Y-77762293D01*
X118186763Y-77762100D01*
X118362164Y-77762100D01*
X118354966Y-77831845D01*
X118357730Y-77911035D01*
X118381172Y-77982501D01*
X118422724Y-78042144D01*
X118479819Y-78085867D01*
X118525577Y-78104237D01*
X118552689Y-78108189D01*
X118601599Y-78111619D01*
X118668708Y-78114397D01*
X118750417Y-78116392D01*
X118843127Y-78117472D01*
X118894225Y-78117630D01*
X119214900Y-78117700D01*
X119214900Y-78486000D01*
X118881525Y-78486034D01*
X118772894Y-78486408D01*
X118655222Y-78487438D01*
X118536303Y-78489012D01*
X118423931Y-78491021D01*
X118325900Y-78493353D01*
X118290975Y-78494400D01*
X118033800Y-78502732D01*
X118033800Y-78168500D01*
X118138575Y-78168003D01*
X118188932Y-78167498D01*
X118216960Y-78166031D01*
X118225726Y-78162783D01*
X118218301Y-78156935D01*
X118204262Y-78150486D01*
X118135804Y-78107771D01*
X118077168Y-78046259D01*
X118032725Y-77971960D01*
X118006844Y-77890887D01*
X118004436Y-77875599D01*
X117999265Y-77832644D01*
X117999139Y-77802176D01*
X118007502Y-77782051D01*
G36*
X118021562Y-79141821D02*
G01*
X118057937Y-79029662D01*
X118113891Y-78931652D01*
X118188706Y-78849027D01*
X118281668Y-78783019D01*
X118392060Y-78734862D01*
X118400226Y-78732253D01*
X118463884Y-78718016D01*
X118542380Y-78708714D01*
X118625533Y-78704902D01*
X118703161Y-78707138D01*
X118751350Y-78713066D01*
X118860513Y-78744829D01*
X118961697Y-78796748D01*
X119050530Y-78865663D01*
X119122638Y-78948413D01*
X119157734Y-79006670D01*
X119196681Y-79103896D01*
X119222717Y-79212189D01*
X119234406Y-79322425D01*
X119230310Y-79425478D01*
X119227056Y-79446798D01*
X119193951Y-79568972D01*
X119141454Y-79675349D01*
X119070849Y-79764885D01*
X118983420Y-79836540D01*
X118880450Y-79889269D01*
X118763223Y-79922030D01*
X118633022Y-79933782D01*
X118627461Y-79933800D01*
X118618000Y-79933241D01*
X118618000Y-79545547D01*
X118712548Y-79539391D01*
X118794322Y-79521662D01*
X118858781Y-79493526D01*
X118880527Y-79478117D01*
X118925443Y-79426899D01*
X118952396Y-79366551D01*
X118959773Y-79303398D01*
X118945958Y-79243765D01*
X118942306Y-79236183D01*
X118899105Y-79179859D01*
X118835665Y-79137374D01*
X118753443Y-79109357D01*
X118653896Y-79096441D01*
X118618000Y-79095600D01*
X118516405Y-79103137D01*
X118430328Y-79125001D01*
X118361490Y-79160075D01*
X118311611Y-79207239D01*
X118282413Y-79265375D01*
X118275100Y-79318475D01*
X118286529Y-79386822D01*
X118319874Y-79444188D01*
X118373724Y-79489638D01*
X118446664Y-79522236D01*
X118537282Y-79541047D01*
X118618000Y-79545547D01*
X118618000Y-79933241D01*
X118503899Y-79926496D01*
X118397417Y-79903504D01*
X118303952Y-79863211D01*
X118219438Y-79804001D01*
X118161955Y-79748865D01*
X118093079Y-79659332D01*
X118044885Y-79558924D01*
X118015911Y-79444310D01*
X118010412Y-79403656D01*
X118005481Y-79266897D01*
X118021562Y-79141821D01*
X118021562Y-79141821D01*
G37*
X118021562Y-79141821D02*
X118057937Y-79029662D01*
X118113891Y-78931652D01*
X118188706Y-78849027D01*
X118281668Y-78783019D01*
X118392060Y-78734862D01*
X118400226Y-78732253D01*
X118463884Y-78718016D01*
X118542380Y-78708714D01*
X118625533Y-78704902D01*
X118703161Y-78707138D01*
X118751350Y-78713066D01*
X118860513Y-78744829D01*
X118961697Y-78796748D01*
X119050530Y-78865663D01*
X119122638Y-78948413D01*
X119157734Y-79006670D01*
X119196681Y-79103896D01*
X119222717Y-79212189D01*
X119234406Y-79322425D01*
X119230310Y-79425478D01*
X119227056Y-79446798D01*
X119193951Y-79568972D01*
X119141454Y-79675349D01*
X119070849Y-79764885D01*
X118983420Y-79836540D01*
X118880450Y-79889269D01*
X118763223Y-79922030D01*
X118633022Y-79933782D01*
X118627461Y-79933800D01*
X118618000Y-79933241D01*
X118618000Y-79545547D01*
X118712548Y-79539391D01*
X118794322Y-79521662D01*
X118858781Y-79493526D01*
X118880527Y-79478117D01*
X118925443Y-79426899D01*
X118952396Y-79366551D01*
X118959773Y-79303398D01*
X118945958Y-79243765D01*
X118942306Y-79236183D01*
X118899105Y-79179859D01*
X118835665Y-79137374D01*
X118753443Y-79109357D01*
X118653896Y-79096441D01*
X118618000Y-79095600D01*
X118516405Y-79103137D01*
X118430328Y-79125001D01*
X118361490Y-79160075D01*
X118311611Y-79207239D01*
X118282413Y-79265375D01*
X118275100Y-79318475D01*
X118286529Y-79386822D01*
X118319874Y-79444188D01*
X118373724Y-79489638D01*
X118446664Y-79522236D01*
X118537282Y-79541047D01*
X118618000Y-79545547D01*
X118618000Y-79933241D01*
X118503899Y-79926496D01*
X118397417Y-79903504D01*
X118303952Y-79863211D01*
X118219438Y-79804001D01*
X118161955Y-79748865D01*
X118093079Y-79659332D01*
X118044885Y-79558924D01*
X118015911Y-79444310D01*
X118010412Y-79403656D01*
X118005481Y-79266897D01*
X118021562Y-79141821D01*
G36*
X118787349Y-80299965D02*
G01*
X118807699Y-80238251D01*
X118845278Y-80186371D01*
X118870244Y-80166138D01*
X118935723Y-80135363D01*
X119004576Y-80125094D01*
X119072024Y-80133767D01*
X119133287Y-80159822D01*
X119183586Y-80201694D01*
X119218143Y-80257824D01*
X119226130Y-80282474D01*
X119236059Y-80325904D01*
X119238563Y-80356577D01*
X119233275Y-80386135D01*
X119221775Y-80420780D01*
X119188723Y-80483297D01*
X119138937Y-80528275D01*
X119092334Y-80551157D01*
X119021331Y-80565521D01*
X118947149Y-80558477D01*
X118878754Y-80530928D01*
X118876306Y-80529438D01*
X118828706Y-80486250D01*
X118797949Y-80429751D01*
X118784131Y-80365727D01*
X118787349Y-80299965D01*
X118787349Y-80299965D01*
G37*
X118787349Y-80299965D02*
X118807699Y-80238251D01*
X118845278Y-80186371D01*
X118870244Y-80166138D01*
X118935723Y-80135363D01*
X119004576Y-80125094D01*
X119072024Y-80133767D01*
X119133287Y-80159822D01*
X119183586Y-80201694D01*
X119218143Y-80257824D01*
X119226130Y-80282474D01*
X119236059Y-80325904D01*
X119238563Y-80356577D01*
X119233275Y-80386135D01*
X119221775Y-80420780D01*
X119188723Y-80483297D01*
X119138937Y-80528275D01*
X119092334Y-80551157D01*
X119021331Y-80565521D01*
X118947149Y-80558477D01*
X118878754Y-80530928D01*
X118876306Y-80529438D01*
X118828706Y-80486250D01*
X118797949Y-80429751D01*
X118784131Y-80365727D01*
X118787349Y-80299965D01*
G36*
X118260483Y-80797400D02*
G01*
X118400367Y-80797263D01*
X118535195Y-80796869D01*
X118662380Y-80796241D01*
X118779331Y-80795405D01*
X118883462Y-80794386D01*
X118972185Y-80793208D01*
X119042910Y-80791897D01*
X119093049Y-80790477D01*
X119117733Y-80789187D01*
X119214900Y-80780973D01*
X119214900Y-81127600D01*
X119158788Y-81127600D01*
X119109524Y-81129169D01*
X119084036Y-81135750D01*
X119080797Y-81150157D01*
X119098279Y-81175203D01*
X119120182Y-81198676D01*
X119171552Y-81268106D01*
X119208898Y-81352918D01*
X119230370Y-81446199D01*
X119234116Y-81541037D01*
X119226860Y-81596925D01*
X119194382Y-81694665D01*
X119140043Y-81783908D01*
X119066723Y-81861893D01*
X118977304Y-81925857D01*
X118874670Y-81973037D01*
X118816649Y-81990114D01*
X118757644Y-81999305D01*
X118682632Y-82003853D01*
X118610737Y-82003881D01*
X118610737Y-81622830D01*
X118709007Y-81615941D01*
X118787663Y-81594808D01*
X118848739Y-81558475D01*
X118894266Y-81505987D01*
X118906925Y-81483582D01*
X118930383Y-81420794D01*
X118932022Y-81363248D01*
X118911815Y-81303136D01*
X118906255Y-81292193D01*
X118879361Y-81250219D01*
X118846849Y-81219524D01*
X118804615Y-81198556D01*
X118748558Y-81185766D01*
X118674575Y-81179605D01*
X118605074Y-81178400D01*
X118537677Y-81178694D01*
X118490194Y-81180155D01*
X118457143Y-81183653D01*
X118433039Y-81190057D01*
X118412400Y-81200237D01*
X118394554Y-81211782D01*
X118351370Y-81244258D01*
X118324408Y-81274877D01*
X118306852Y-81312476D01*
X118300165Y-81334164D01*
X118292451Y-81401362D01*
X118309016Y-81464367D01*
X118350401Y-81525149D01*
X118353895Y-81528995D01*
X118409563Y-81576130D01*
X118475879Y-81606202D01*
X118557215Y-81620809D01*
X118610737Y-81622830D01*
X118610737Y-82003881D01*
X118600553Y-82003886D01*
X118520350Y-81999527D01*
X118450962Y-81990904D01*
X118421271Y-81984554D01*
X118308236Y-81943577D01*
X118210069Y-81885090D01*
X118128770Y-81811172D01*
X118066338Y-81723902D01*
X118024772Y-81625361D01*
X118009937Y-81556587D01*
X118004443Y-81458076D01*
X118015048Y-81365117D01*
X118040580Y-81282938D01*
X118079866Y-81216772D01*
X118088299Y-81206975D01*
X118114427Y-81178400D01*
X117500400Y-81178400D01*
X117500400Y-80797400D01*
X118260483Y-80797400D01*
X118260483Y-80797400D01*
G37*
X118260483Y-80797400D02*
X118400367Y-80797263D01*
X118535195Y-80796869D01*
X118662380Y-80796241D01*
X118779331Y-80795405D01*
X118883462Y-80794386D01*
X118972185Y-80793208D01*
X119042910Y-80791897D01*
X119093049Y-80790477D01*
X119117733Y-80789187D01*
X119214900Y-80780973D01*
X119214900Y-81127600D01*
X119158788Y-81127600D01*
X119109524Y-81129169D01*
X119084036Y-81135750D01*
X119080797Y-81150157D01*
X119098279Y-81175203D01*
X119120182Y-81198676D01*
X119171552Y-81268106D01*
X119208898Y-81352918D01*
X119230370Y-81446199D01*
X119234116Y-81541037D01*
X119226860Y-81596925D01*
X119194382Y-81694665D01*
X119140043Y-81783908D01*
X119066723Y-81861893D01*
X118977304Y-81925857D01*
X118874670Y-81973037D01*
X118816649Y-81990114D01*
X118757644Y-81999305D01*
X118682632Y-82003853D01*
X118610737Y-82003881D01*
X118610737Y-81622830D01*
X118709007Y-81615941D01*
X118787663Y-81594808D01*
X118848739Y-81558475D01*
X118894266Y-81505987D01*
X118906925Y-81483582D01*
X118930383Y-81420794D01*
X118932022Y-81363248D01*
X118911815Y-81303136D01*
X118906255Y-81292193D01*
X118879361Y-81250219D01*
X118846849Y-81219524D01*
X118804615Y-81198556D01*
X118748558Y-81185766D01*
X118674575Y-81179605D01*
X118605074Y-81178400D01*
X118537677Y-81178694D01*
X118490194Y-81180155D01*
X118457143Y-81183653D01*
X118433039Y-81190057D01*
X118412400Y-81200237D01*
X118394554Y-81211782D01*
X118351370Y-81244258D01*
X118324408Y-81274877D01*
X118306852Y-81312476D01*
X118300165Y-81334164D01*
X118292451Y-81401362D01*
X118309016Y-81464367D01*
X118350401Y-81525149D01*
X118353895Y-81528995D01*
X118409563Y-81576130D01*
X118475879Y-81606202D01*
X118557215Y-81620809D01*
X118610737Y-81622830D01*
X118610737Y-82003881D01*
X118600553Y-82003886D01*
X118520350Y-81999527D01*
X118450962Y-81990904D01*
X118421271Y-81984554D01*
X118308236Y-81943577D01*
X118210069Y-81885090D01*
X118128770Y-81811172D01*
X118066338Y-81723902D01*
X118024772Y-81625361D01*
X118009937Y-81556587D01*
X118004443Y-81458076D01*
X118015048Y-81365117D01*
X118040580Y-81282938D01*
X118079866Y-81216772D01*
X118088299Y-81206975D01*
X118114427Y-81178400D01*
X117500400Y-81178400D01*
X117500400Y-80797400D01*
X118260483Y-80797400D01*
G36*
X118010334Y-82581016D02*
G01*
X118035424Y-82479731D01*
X118078736Y-82387913D01*
X118133081Y-82317183D01*
X118213559Y-82250894D01*
X118311049Y-82199720D01*
X118421185Y-82165066D01*
X118539596Y-82148337D01*
X118652925Y-82150059D01*
X118745000Y-82158468D01*
X118745000Y-82532034D01*
X118745055Y-82639137D01*
X118745343Y-82723541D01*
X118746043Y-82787945D01*
X118747335Y-82835050D01*
X118749401Y-82867555D01*
X118752420Y-82888163D01*
X118756572Y-82899571D01*
X118762039Y-82904482D01*
X118769001Y-82905594D01*
X118769958Y-82905600D01*
X118799163Y-82895601D01*
X118835322Y-82869281D01*
X118872419Y-82832160D01*
X118904438Y-82789758D01*
X118913998Y-82773453D01*
X118925895Y-82748318D01*
X118933837Y-82721912D01*
X118938572Y-82688477D01*
X118940849Y-82642257D01*
X118941415Y-82577496D01*
X118941391Y-82562700D01*
X118938315Y-82456377D01*
X118929720Y-82374174D01*
X118920781Y-82332400D01*
X118900581Y-82260849D01*
X119029165Y-82235202D01*
X119092425Y-82223542D01*
X119134434Y-82218297D01*
X119158447Y-82219206D01*
X119166897Y-82224203D01*
X119173777Y-82242653D01*
X119184232Y-82279219D01*
X119196398Y-82327207D01*
X119201026Y-82346800D01*
X119219564Y-82448457D01*
X119230739Y-82556702D01*
X119233944Y-82661864D01*
X119228571Y-82754270D01*
X119227250Y-82764560D01*
X119203887Y-82878436D01*
X119166394Y-82974890D01*
X119112168Y-83059133D01*
X119043862Y-83131613D01*
X118957726Y-83193801D01*
X118858195Y-83237820D01*
X118749386Y-83263899D01*
X118635414Y-83272269D01*
X118520396Y-83263162D01*
X118478300Y-83253253D01*
X118478300Y-82916527D01*
X118478300Y-82707864D01*
X118478211Y-82630798D01*
X118477617Y-82575520D01*
X118476021Y-82538415D01*
X118472927Y-82515872D01*
X118467841Y-82504277D01*
X118460266Y-82500017D01*
X118449725Y-82499479D01*
X118408212Y-82507703D01*
X118361079Y-82528025D01*
X118318906Y-82554952D01*
X118293867Y-82580400D01*
X118263898Y-82645986D01*
X118257655Y-82711368D01*
X118273646Y-82773282D01*
X118310382Y-82828463D01*
X118366372Y-82873647D01*
X118440126Y-82905569D01*
X118442633Y-82906298D01*
X118478300Y-82916527D01*
X118478300Y-83253253D01*
X118408446Y-83236808D01*
X118303681Y-83193437D01*
X118210217Y-83133279D01*
X118154148Y-83081764D01*
X118089870Y-82996436D01*
X118043234Y-82899478D01*
X118014355Y-82795109D01*
X118003349Y-82687548D01*
X118010334Y-82581016D01*
X118010334Y-82581016D01*
G37*
X118010334Y-82581016D02*
X118035424Y-82479731D01*
X118078736Y-82387913D01*
X118133081Y-82317183D01*
X118213559Y-82250894D01*
X118311049Y-82199720D01*
X118421185Y-82165066D01*
X118539596Y-82148337D01*
X118652925Y-82150059D01*
X118745000Y-82158468D01*
X118745000Y-82532034D01*
X118745055Y-82639137D01*
X118745343Y-82723541D01*
X118746043Y-82787945D01*
X118747335Y-82835050D01*
X118749401Y-82867555D01*
X118752420Y-82888163D01*
X118756572Y-82899571D01*
X118762039Y-82904482D01*
X118769001Y-82905594D01*
X118769958Y-82905600D01*
X118799163Y-82895601D01*
X118835322Y-82869281D01*
X118872419Y-82832160D01*
X118904438Y-82789758D01*
X118913998Y-82773453D01*
X118925895Y-82748318D01*
X118933837Y-82721912D01*
X118938572Y-82688477D01*
X118940849Y-82642257D01*
X118941415Y-82577496D01*
X118941391Y-82562700D01*
X118938315Y-82456377D01*
X118929720Y-82374174D01*
X118920781Y-82332400D01*
X118900581Y-82260849D01*
X119029165Y-82235202D01*
X119092425Y-82223542D01*
X119134434Y-82218297D01*
X119158447Y-82219206D01*
X119166897Y-82224203D01*
X119173777Y-82242653D01*
X119184232Y-82279219D01*
X119196398Y-82327207D01*
X119201026Y-82346800D01*
X119219564Y-82448457D01*
X119230739Y-82556702D01*
X119233944Y-82661864D01*
X119228571Y-82754270D01*
X119227250Y-82764560D01*
X119203887Y-82878436D01*
X119166394Y-82974890D01*
X119112168Y-83059133D01*
X119043862Y-83131613D01*
X118957726Y-83193801D01*
X118858195Y-83237820D01*
X118749386Y-83263899D01*
X118635414Y-83272269D01*
X118520396Y-83263162D01*
X118478300Y-83253253D01*
X118478300Y-82916527D01*
X118478300Y-82707864D01*
X118478211Y-82630798D01*
X118477617Y-82575520D01*
X118476021Y-82538415D01*
X118472927Y-82515872D01*
X118467841Y-82504277D01*
X118460266Y-82500017D01*
X118449725Y-82499479D01*
X118408212Y-82507703D01*
X118361079Y-82528025D01*
X118318906Y-82554952D01*
X118293867Y-82580400D01*
X118263898Y-82645986D01*
X118257655Y-82711368D01*
X118273646Y-82773282D01*
X118310382Y-82828463D01*
X118366372Y-82873647D01*
X118440126Y-82905569D01*
X118442633Y-82906298D01*
X118478300Y-82916527D01*
X118478300Y-83253253D01*
X118408446Y-83236808D01*
X118303681Y-83193437D01*
X118210217Y-83133279D01*
X118154148Y-83081764D01*
X118089870Y-82996436D01*
X118043234Y-82899478D01*
X118014355Y-82795109D01*
X118003349Y-82687548D01*
X118010334Y-82581016D01*
G36*
X118145175Y-84264500D02*
G01*
X118102160Y-84217539D01*
X118053646Y-84148382D01*
X118022333Y-84064617D01*
X118007483Y-83963936D01*
X118005979Y-83916536D01*
X118006571Y-83859913D01*
X118010318Y-83818805D01*
X118019512Y-83783341D01*
X118036448Y-83743651D01*
X118054629Y-83707099D01*
X118085558Y-83651217D01*
X118116120Y-83609876D01*
X118154125Y-83573567D01*
X118183121Y-83550719D01*
X118278396Y-83493920D01*
X118388170Y-83454332D01*
X118507891Y-83432365D01*
X118633004Y-83428430D01*
X118758958Y-83442940D01*
X118881200Y-83476304D01*
X118905296Y-83485473D01*
X119000835Y-83536935D01*
X119084234Y-83608117D01*
X119152247Y-83694950D01*
X119201629Y-83793363D01*
X119227689Y-83889850D01*
X119235259Y-83938919D01*
X119238219Y-83973811D01*
X119236273Y-84005383D01*
X119229127Y-84044489D01*
X119222682Y-84074000D01*
X119199605Y-84151785D01*
X119166022Y-84214655D01*
X119116487Y-84272588D01*
X119111778Y-84277205D01*
X119060795Y-84326682D01*
X119134672Y-84330516D01*
X119208550Y-84334350D01*
X119212118Y-84498149D01*
X119215686Y-84661947D01*
X119129568Y-84653814D01*
X119101399Y-84652346D01*
X119050348Y-84650961D01*
X118978933Y-84649682D01*
X118889672Y-84648533D01*
X118785084Y-84647539D01*
X118667686Y-84646723D01*
X118619553Y-84646493D01*
X118619553Y-84264500D01*
X118686094Y-84264114D01*
X118733171Y-84262339D01*
X118766714Y-84258248D01*
X118792655Y-84250917D01*
X118816925Y-84239419D01*
X118830775Y-84231531D01*
X118884359Y-84186413D01*
X118919437Y-84127727D01*
X118934134Y-84061110D01*
X118926574Y-83992194D01*
X118918341Y-83968619D01*
X118888369Y-83921831D01*
X118842081Y-83877261D01*
X118788007Y-83842397D01*
X118761964Y-83831369D01*
X118725165Y-83823238D01*
X118673507Y-83817369D01*
X118617505Y-83814914D01*
X118611650Y-83814902D01*
X118513551Y-83823785D01*
X118431576Y-83849454D01*
X118367343Y-83891233D01*
X118332459Y-83931706D01*
X118304065Y-83995729D01*
X118298143Y-84063045D01*
X118313275Y-84128326D01*
X118348042Y-84186244D01*
X118401022Y-84231473D01*
X118414308Y-84238850D01*
X118440393Y-84250161D01*
X118469744Y-84257654D01*
X118508163Y-84262056D01*
X118561454Y-84264090D01*
X118619553Y-84264500D01*
X118619553Y-84646493D01*
X118539997Y-84646111D01*
X118404534Y-84645725D01*
X118271925Y-84645591D01*
X117500400Y-84645500D01*
X117500400Y-84264500D01*
X118145175Y-84264500D01*
X118145175Y-84264500D01*
G37*
X118145175Y-84264500D02*
X118102160Y-84217539D01*
X118053646Y-84148382D01*
X118022333Y-84064617D01*
X118007483Y-83963936D01*
X118005979Y-83916536D01*
X118006571Y-83859913D01*
X118010318Y-83818805D01*
X118019512Y-83783341D01*
X118036448Y-83743651D01*
X118054629Y-83707099D01*
X118085558Y-83651217D01*
X118116120Y-83609876D01*
X118154125Y-83573567D01*
X118183121Y-83550719D01*
X118278396Y-83493920D01*
X118388170Y-83454332D01*
X118507891Y-83432365D01*
X118633004Y-83428430D01*
X118758958Y-83442940D01*
X118881200Y-83476304D01*
X118905296Y-83485473D01*
X119000835Y-83536935D01*
X119084234Y-83608117D01*
X119152247Y-83694950D01*
X119201629Y-83793363D01*
X119227689Y-83889850D01*
X119235259Y-83938919D01*
X119238219Y-83973811D01*
X119236273Y-84005383D01*
X119229127Y-84044489D01*
X119222682Y-84074000D01*
X119199605Y-84151785D01*
X119166022Y-84214655D01*
X119116487Y-84272588D01*
X119111778Y-84277205D01*
X119060795Y-84326682D01*
X119134672Y-84330516D01*
X119208550Y-84334350D01*
X119212118Y-84498149D01*
X119215686Y-84661947D01*
X119129568Y-84653814D01*
X119101399Y-84652346D01*
X119050348Y-84650961D01*
X118978933Y-84649682D01*
X118889672Y-84648533D01*
X118785084Y-84647539D01*
X118667686Y-84646723D01*
X118619553Y-84646493D01*
X118619553Y-84264500D01*
X118686094Y-84264114D01*
X118733171Y-84262339D01*
X118766714Y-84258248D01*
X118792655Y-84250917D01*
X118816925Y-84239419D01*
X118830775Y-84231531D01*
X118884359Y-84186413D01*
X118919437Y-84127727D01*
X118934134Y-84061110D01*
X118926574Y-83992194D01*
X118918341Y-83968619D01*
X118888369Y-83921831D01*
X118842081Y-83877261D01*
X118788007Y-83842397D01*
X118761964Y-83831369D01*
X118725165Y-83823238D01*
X118673507Y-83817369D01*
X118617505Y-83814914D01*
X118611650Y-83814902D01*
X118513551Y-83823785D01*
X118431576Y-83849454D01*
X118367343Y-83891233D01*
X118332459Y-83931706D01*
X118304065Y-83995729D01*
X118298143Y-84063045D01*
X118313275Y-84128326D01*
X118348042Y-84186244D01*
X118401022Y-84231473D01*
X118414308Y-84238850D01*
X118440393Y-84250161D01*
X118469744Y-84257654D01*
X118508163Y-84262056D01*
X118561454Y-84264090D01*
X118619553Y-84264500D01*
X118619553Y-84646493D01*
X118539997Y-84646111D01*
X118404534Y-84645725D01*
X118271925Y-84645591D01*
X117500400Y-84645500D01*
X117500400Y-84264500D01*
X118145175Y-84264500D01*
G36*
X118405275Y-85671795D02*
G01*
X118516709Y-85670262D01*
X118605653Y-85668486D01*
X118675018Y-85666295D01*
X118727712Y-85663515D01*
X118766645Y-85659973D01*
X118794728Y-85655494D01*
X118814871Y-85649906D01*
X118822242Y-85646928D01*
X118877826Y-85610640D01*
X118911437Y-85561811D01*
X118922799Y-85500842D01*
X118922800Y-85500407D01*
X118912471Y-85431311D01*
X118880819Y-85375446D01*
X118843616Y-85341827D01*
X118831248Y-85333444D01*
X118818309Y-85326783D01*
X118801839Y-85321611D01*
X118778880Y-85317697D01*
X118746470Y-85314808D01*
X118701650Y-85312711D01*
X118641461Y-85311173D01*
X118562942Y-85309963D01*
X118463134Y-85308847D01*
X118417975Y-85308389D01*
X118033800Y-85304527D01*
X118033800Y-84924900D01*
X119215658Y-84924900D01*
X119208550Y-85248750D01*
X119151400Y-85252333D01*
X119103555Y-85256482D01*
X119078923Y-85262997D01*
X119075316Y-85274294D01*
X119090547Y-85292789D01*
X119103832Y-85304867D01*
X119153981Y-85362804D01*
X119194978Y-85437615D01*
X119222631Y-85521260D01*
X119226500Y-85540008D01*
X119235893Y-85600853D01*
X119238115Y-85649805D01*
X119233201Y-85699325D01*
X119227074Y-85733335D01*
X119197363Y-85824055D01*
X119147292Y-85899805D01*
X119077217Y-85960309D01*
X118987494Y-86005292D01*
X118878479Y-86034477D01*
X118827476Y-86041907D01*
X118782995Y-86045505D01*
X118718050Y-86048733D01*
X118637576Y-86051447D01*
X118546509Y-86053505D01*
X118449783Y-86054763D01*
X118373525Y-86055096D01*
X118033800Y-86055200D01*
X118033800Y-85676213D01*
X118405275Y-85671795D01*
X118405275Y-85671795D01*
G37*
X118405275Y-85671795D02*
X118516709Y-85670262D01*
X118605653Y-85668486D01*
X118675018Y-85666295D01*
X118727712Y-85663515D01*
X118766645Y-85659973D01*
X118794728Y-85655494D01*
X118814871Y-85649906D01*
X118822242Y-85646928D01*
X118877826Y-85610640D01*
X118911437Y-85561811D01*
X118922799Y-85500842D01*
X118922800Y-85500407D01*
X118912471Y-85431311D01*
X118880819Y-85375446D01*
X118843616Y-85341827D01*
X118831248Y-85333444D01*
X118818309Y-85326783D01*
X118801839Y-85321611D01*
X118778880Y-85317697D01*
X118746470Y-85314808D01*
X118701650Y-85312711D01*
X118641461Y-85311173D01*
X118562942Y-85309963D01*
X118463134Y-85308847D01*
X118417975Y-85308389D01*
X118033800Y-85304527D01*
X118033800Y-84924900D01*
X119215658Y-84924900D01*
X119208550Y-85248750D01*
X119151400Y-85252333D01*
X119103555Y-85256482D01*
X119078923Y-85262997D01*
X119075316Y-85274294D01*
X119090547Y-85292789D01*
X119103832Y-85304867D01*
X119153981Y-85362804D01*
X119194978Y-85437615D01*
X119222631Y-85521260D01*
X119226500Y-85540008D01*
X119235893Y-85600853D01*
X119238115Y-85649805D01*
X119233201Y-85699325D01*
X119227074Y-85733335D01*
X119197363Y-85824055D01*
X119147292Y-85899805D01*
X119077217Y-85960309D01*
X118987494Y-86005292D01*
X118878479Y-86034477D01*
X118827476Y-86041907D01*
X118782995Y-86045505D01*
X118718050Y-86048733D01*
X118637576Y-86051447D01*
X118546509Y-86053505D01*
X118449783Y-86054763D01*
X118373525Y-86055096D01*
X118033800Y-86055200D01*
X118033800Y-85676213D01*
X118405275Y-85671795D01*
G36*
X117571402Y-86459969D02*
G01*
X117583456Y-86356481D01*
X117601923Y-86271100D01*
X117612137Y-86237443D01*
X117622736Y-86215643D01*
X117638338Y-86204642D01*
X117663562Y-86203382D01*
X117703028Y-86210804D01*
X117761353Y-86225851D01*
X117778939Y-86230551D01*
X117835379Y-86245926D01*
X117882122Y-86259221D01*
X117914103Y-86268960D01*
X117926176Y-86273544D01*
X117925330Y-86287291D01*
X117918154Y-86318137D01*
X117907766Y-86354196D01*
X117879359Y-86484115D01*
X117874744Y-86611635D01*
X117886776Y-86702660D01*
X117920786Y-86810840D01*
X117973492Y-86902207D01*
X118043943Y-86976050D01*
X118131190Y-87031655D01*
X118234282Y-87068312D01*
X118352271Y-87085307D01*
X118398674Y-87086474D01*
X118523232Y-87076494D01*
X118631053Y-87047494D01*
X118722462Y-86999272D01*
X118797784Y-86931622D01*
X118857347Y-86844341D01*
X118886247Y-86780940D01*
X118903662Y-86715385D01*
X118913363Y-86633893D01*
X118915253Y-86544759D01*
X118909232Y-86456279D01*
X118895202Y-86376747D01*
X118891238Y-86361990D01*
X118879176Y-86315351D01*
X118875982Y-86287489D01*
X118881232Y-86273541D01*
X118883382Y-86271915D01*
X118901841Y-86265699D01*
X118939179Y-86256612D01*
X118989238Y-86246072D01*
X119025438Y-86239160D01*
X119090314Y-86228382D01*
X119133718Y-86224033D01*
X119158699Y-86225908D01*
X119165948Y-86229769D01*
X119181530Y-86257608D01*
X119196029Y-86306027D01*
X119208903Y-86370208D01*
X119219615Y-86445336D01*
X119227626Y-86526596D01*
X119232396Y-86609172D01*
X119233387Y-86688248D01*
X119230060Y-86759008D01*
X119227702Y-86781511D01*
X119199931Y-86922920D01*
X119154049Y-87051080D01*
X119091264Y-87164098D01*
X119012784Y-87260081D01*
X118919816Y-87337136D01*
X118846600Y-87378878D01*
X118762043Y-87416554D01*
X118687567Y-87442683D01*
X118613713Y-87459586D01*
X118531022Y-87469583D01*
X118459250Y-87473869D01*
X118325029Y-87472801D01*
X118204057Y-87456135D01*
X118088352Y-87422216D01*
X117980188Y-87374599D01*
X117870330Y-87305389D01*
X117774648Y-87216142D01*
X117694682Y-87108860D01*
X117631974Y-86985541D01*
X117594643Y-86874350D01*
X117577918Y-86786910D01*
X117568534Y-86683293D01*
X117566395Y-86571610D01*
X117571402Y-86459969D01*
X117571402Y-86459969D01*
G37*
X117571402Y-86459969D02*
X117583456Y-86356481D01*
X117601923Y-86271100D01*
X117612137Y-86237443D01*
X117622736Y-86215643D01*
X117638338Y-86204642D01*
X117663562Y-86203382D01*
X117703028Y-86210804D01*
X117761353Y-86225851D01*
X117778939Y-86230551D01*
X117835379Y-86245926D01*
X117882122Y-86259221D01*
X117914103Y-86268960D01*
X117926176Y-86273544D01*
X117925330Y-86287291D01*
X117918154Y-86318137D01*
X117907766Y-86354196D01*
X117879359Y-86484115D01*
X117874744Y-86611635D01*
X117886776Y-86702660D01*
X117920786Y-86810840D01*
X117973492Y-86902207D01*
X118043943Y-86976050D01*
X118131190Y-87031655D01*
X118234282Y-87068312D01*
X118352271Y-87085307D01*
X118398674Y-87086474D01*
X118523232Y-87076494D01*
X118631053Y-87047494D01*
X118722462Y-86999272D01*
X118797784Y-86931622D01*
X118857347Y-86844341D01*
X118886247Y-86780940D01*
X118903662Y-86715385D01*
X118913363Y-86633893D01*
X118915253Y-86544759D01*
X118909232Y-86456279D01*
X118895202Y-86376747D01*
X118891238Y-86361990D01*
X118879176Y-86315351D01*
X118875982Y-86287489D01*
X118881232Y-86273541D01*
X118883382Y-86271915D01*
X118901841Y-86265699D01*
X118939179Y-86256612D01*
X118989238Y-86246072D01*
X119025438Y-86239160D01*
X119090314Y-86228382D01*
X119133718Y-86224033D01*
X119158699Y-86225908D01*
X119165948Y-86229769D01*
X119181530Y-86257608D01*
X119196029Y-86306027D01*
X119208903Y-86370208D01*
X119219615Y-86445336D01*
X119227626Y-86526596D01*
X119232396Y-86609172D01*
X119233387Y-86688248D01*
X119230060Y-86759008D01*
X119227702Y-86781511D01*
X119199931Y-86922920D01*
X119154049Y-87051080D01*
X119091264Y-87164098D01*
X119012784Y-87260081D01*
X118919816Y-87337136D01*
X118846600Y-87378878D01*
X118762043Y-87416554D01*
X118687567Y-87442683D01*
X118613713Y-87459586D01*
X118531022Y-87469583D01*
X118459250Y-87473869D01*
X118325029Y-87472801D01*
X118204057Y-87456135D01*
X118088352Y-87422216D01*
X117980188Y-87374599D01*
X117870330Y-87305389D01*
X117774648Y-87216142D01*
X117694682Y-87108860D01*
X117631974Y-86985541D01*
X117594643Y-86874350D01*
X117577918Y-86786910D01*
X117568534Y-86683293D01*
X117566395Y-86571610D01*
X117571402Y-86459969D01*
G36*
X118012402Y-77037225D02*
G01*
X118037143Y-76952399D01*
X118078823Y-76880180D01*
X118095892Y-76860348D01*
X118122056Y-76831777D01*
X118132053Y-76816018D01*
X118127767Y-76808016D01*
X118116821Y-76804198D01*
X118081792Y-76798262D01*
X118062375Y-76797074D01*
X118050646Y-76796117D01*
X118042665Y-76790679D01*
X118037712Y-76776656D01*
X118035065Y-76749943D01*
X118034001Y-76706437D01*
X118033800Y-76642032D01*
X118033800Y-76472154D01*
X118398925Y-76475855D01*
X118567223Y-76477601D01*
X118712125Y-76479234D01*
X118835629Y-76480841D01*
X118939738Y-76482509D01*
X119026454Y-76484324D01*
X119097776Y-76486373D01*
X119155708Y-76488742D01*
X119202249Y-76491518D01*
X119239402Y-76494788D01*
X119269167Y-76498639D01*
X119293546Y-76503157D01*
X119314541Y-76508429D01*
X119334152Y-76514541D01*
X119340253Y-76516616D01*
X119446024Y-76563694D01*
X119532436Y-76625919D01*
X119600527Y-76704562D01*
X119651332Y-76800890D01*
X119685891Y-76916172D01*
X119691843Y-76946575D01*
X119704024Y-77047373D01*
X119707671Y-77157264D01*
X119702645Y-77263461D01*
X119695821Y-77317600D01*
X119684144Y-77375119D01*
X119668554Y-77432980D01*
X119651049Y-77485444D01*
X119633629Y-77526769D01*
X119618291Y-77551217D01*
X119613163Y-77554993D01*
X119596139Y-77554375D01*
X119561813Y-77548598D01*
X119516197Y-77539109D01*
X119465305Y-77527358D01*
X119415147Y-77514790D01*
X119371737Y-77502856D01*
X119341085Y-77493002D01*
X119329204Y-77486678D01*
X119329200Y-77486598D01*
X119334443Y-77473344D01*
X119347656Y-77445701D01*
X119354654Y-77431794D01*
X119379500Y-77369976D01*
X119400100Y-77294516D01*
X119413742Y-77217125D01*
X119417841Y-77158850D01*
X119408469Y-77064314D01*
X119380147Y-76986615D01*
X119333132Y-76926040D01*
X119267681Y-76882876D01*
X119184052Y-76857412D01*
X119142908Y-76852005D01*
X119056150Y-76844372D01*
X119096774Y-76887311D01*
X119150535Y-76961756D01*
X119184387Y-77047389D01*
X119198643Y-77140033D01*
X119193622Y-77235512D01*
X119169637Y-77329650D01*
X119127006Y-77418270D01*
X119066043Y-77497195D01*
X119049419Y-77513578D01*
X118969825Y-77575816D01*
X118881773Y-77620009D01*
X118781395Y-77647475D01*
X118664828Y-77659529D01*
X118618506Y-77660350D01*
X118603721Y-77659227D01*
X118603721Y-77279430D01*
X118701454Y-77271975D01*
X118780040Y-77249236D01*
X118841222Y-77210375D01*
X118886745Y-77154556D01*
X118894943Y-77139698D01*
X118915972Y-77075143D01*
X118914194Y-77011634D01*
X118889837Y-76954476D01*
X118886737Y-76950085D01*
X118847545Y-76907945D01*
X118798985Y-76879716D01*
X118734004Y-76861556D01*
X118719454Y-76858965D01*
X118656304Y-76852307D01*
X118586396Y-76851060D01*
X118517260Y-76854756D01*
X118456422Y-76862926D01*
X118411410Y-76875105D01*
X118403775Y-76878584D01*
X118346331Y-76920771D01*
X118308969Y-76975374D01*
X118293328Y-77038300D01*
X118301046Y-77105458D01*
X118306467Y-77121517D01*
X118342915Y-77182575D01*
X118399138Y-77229782D01*
X118472890Y-77261945D01*
X118561926Y-77277870D01*
X118603721Y-77279430D01*
X118603721Y-77659227D01*
X118483138Y-77650068D01*
X118361731Y-77619881D01*
X118255247Y-77570250D01*
X118164646Y-77501632D01*
X118090891Y-77414489D01*
X118084802Y-77405274D01*
X118040800Y-77318681D01*
X118014131Y-77225232D01*
X118004698Y-77129791D01*
X118012402Y-77037225D01*
X118012402Y-77037225D01*
G37*
X118012402Y-77037225D02*
X118037143Y-76952399D01*
X118078823Y-76880180D01*
X118095892Y-76860348D01*
X118122056Y-76831777D01*
X118132053Y-76816018D01*
X118127767Y-76808016D01*
X118116821Y-76804198D01*
X118081792Y-76798262D01*
X118062375Y-76797074D01*
X118050646Y-76796117D01*
X118042665Y-76790679D01*
X118037712Y-76776656D01*
X118035065Y-76749943D01*
X118034001Y-76706437D01*
X118033800Y-76642032D01*
X118033800Y-76472154D01*
X118398925Y-76475855D01*
X118567223Y-76477601D01*
X118712125Y-76479234D01*
X118835629Y-76480841D01*
X118939738Y-76482509D01*
X119026454Y-76484324D01*
X119097776Y-76486373D01*
X119155708Y-76488742D01*
X119202249Y-76491518D01*
X119239402Y-76494788D01*
X119269167Y-76498639D01*
X119293546Y-76503157D01*
X119314541Y-76508429D01*
X119334152Y-76514541D01*
X119340253Y-76516616D01*
X119446024Y-76563694D01*
X119532436Y-76625919D01*
X119600527Y-76704562D01*
X119651332Y-76800890D01*
X119685891Y-76916172D01*
X119691843Y-76946575D01*
X119704024Y-77047373D01*
X119707671Y-77157264D01*
X119702645Y-77263461D01*
X119695821Y-77317600D01*
X119684144Y-77375119D01*
X119668554Y-77432980D01*
X119651049Y-77485444D01*
X119633629Y-77526769D01*
X119618291Y-77551217D01*
X119613163Y-77554993D01*
X119596139Y-77554375D01*
X119561813Y-77548598D01*
X119516197Y-77539109D01*
X119465305Y-77527358D01*
X119415147Y-77514790D01*
X119371737Y-77502856D01*
X119341085Y-77493002D01*
X119329204Y-77486678D01*
X119329200Y-77486598D01*
X119334443Y-77473344D01*
X119347656Y-77445701D01*
X119354654Y-77431794D01*
X119379500Y-77369976D01*
X119400100Y-77294516D01*
X119413742Y-77217125D01*
X119417841Y-77158850D01*
X119408469Y-77064314D01*
X119380147Y-76986615D01*
X119333132Y-76926040D01*
X119267681Y-76882876D01*
X119184052Y-76857412D01*
X119142908Y-76852005D01*
X119056150Y-76844372D01*
X119096774Y-76887311D01*
X119150535Y-76961756D01*
X119184387Y-77047389D01*
X119198643Y-77140033D01*
X119193622Y-77235512D01*
X119169637Y-77329650D01*
X119127006Y-77418270D01*
X119066043Y-77497195D01*
X119049419Y-77513578D01*
X118969825Y-77575816D01*
X118881773Y-77620009D01*
X118781395Y-77647475D01*
X118664828Y-77659529D01*
X118618506Y-77660350D01*
X118603721Y-77659227D01*
X118603721Y-77279430D01*
X118701454Y-77271975D01*
X118780040Y-77249236D01*
X118841222Y-77210375D01*
X118886745Y-77154556D01*
X118894943Y-77139698D01*
X118915972Y-77075143D01*
X118914194Y-77011634D01*
X118889837Y-76954476D01*
X118886737Y-76950085D01*
X118847545Y-76907945D01*
X118798985Y-76879716D01*
X118734004Y-76861556D01*
X118719454Y-76858965D01*
X118656304Y-76852307D01*
X118586396Y-76851060D01*
X118517260Y-76854756D01*
X118456422Y-76862926D01*
X118411410Y-76875105D01*
X118403775Y-76878584D01*
X118346331Y-76920771D01*
X118308969Y-76975374D01*
X118293328Y-77038300D01*
X118301046Y-77105458D01*
X118306467Y-77121517D01*
X118342915Y-77182575D01*
X118399138Y-77229782D01*
X118472890Y-77261945D01*
X118561926Y-77277870D01*
X118603721Y-77279430D01*
X118603721Y-77659227D01*
X118483138Y-77650068D01*
X118361731Y-77619881D01*
X118255247Y-77570250D01*
X118164646Y-77501632D01*
X118090891Y-77414489D01*
X118084802Y-77405274D01*
X118040800Y-77318681D01*
X118014131Y-77225232D01*
X118004698Y-77129791D01*
X118012402Y-77037225D01*
G36*
X118259225Y-88329779D02*
G01*
X118344971Y-88303998D01*
X118435614Y-88277025D01*
X118523080Y-88251244D01*
X118599293Y-88229039D01*
X118637050Y-88218201D01*
X118697077Y-88201019D01*
X118749223Y-88185909D01*
X118788050Y-88174459D01*
X118808120Y-88168257D01*
X118808500Y-88168125D01*
X118801378Y-88163581D01*
X118772313Y-88153816D01*
X118724043Y-88139594D01*
X118659308Y-88121682D01*
X118580848Y-88100845D01*
X118491402Y-88077849D01*
X118433850Y-88063396D01*
X118040150Y-87965373D01*
X118036644Y-87772287D01*
X118036000Y-87705526D01*
X118036535Y-87648766D01*
X118038122Y-87606363D01*
X118040634Y-87582676D01*
X118042300Y-87579200D01*
X118056806Y-87583327D01*
X118092145Y-87594988D01*
X118145256Y-87613105D01*
X118213076Y-87636603D01*
X118292544Y-87664403D01*
X118380598Y-87695427D01*
X118474176Y-87728599D01*
X118570216Y-87762842D01*
X118665655Y-87797077D01*
X118757433Y-87830227D01*
X118808500Y-87848795D01*
X118965407Y-87907798D01*
X119100010Y-87962472D01*
X119214786Y-88014065D01*
X119312209Y-88063825D01*
X119394757Y-88113000D01*
X119464905Y-88162839D01*
X119514358Y-88204572D01*
X119603600Y-88302406D01*
X119671016Y-88412551D01*
X119715741Y-88533530D01*
X119721509Y-88557203D01*
X119727631Y-88589589D01*
X119723264Y-88605986D01*
X119703503Y-88615184D01*
X119686598Y-88619757D01*
X119626723Y-88635234D01*
X119566368Y-88650526D01*
X119510795Y-88664337D01*
X119465263Y-88675372D01*
X119435033Y-88682332D01*
X119425509Y-88684100D01*
X119418997Y-88673700D01*
X119418100Y-88664264D01*
X119411399Y-88635702D01*
X119393834Y-88593833D01*
X119369210Y-88546082D01*
X119341334Y-88499878D01*
X119315998Y-88465013D01*
X119279421Y-88428394D01*
X119235197Y-88393879D01*
X119220517Y-88384550D01*
X119164504Y-88351724D01*
X118605154Y-88575062D01*
X118492577Y-88619963D01*
X118387324Y-88661848D01*
X118291719Y-88699800D01*
X118208088Y-88732898D01*
X118138756Y-88760226D01*
X118086046Y-88780864D01*
X118052284Y-88793895D01*
X118039802Y-88798400D01*
X118037761Y-88786414D01*
X118036018Y-88753311D01*
X118034701Y-88703373D01*
X118033938Y-88640882D01*
X118033800Y-88598194D01*
X118033800Y-88397987D01*
X118259225Y-88329779D01*
X118259225Y-88329779D01*
G37*
X118259225Y-88329779D02*
X118344971Y-88303998D01*
X118435614Y-88277025D01*
X118523080Y-88251244D01*
X118599293Y-88229039D01*
X118637050Y-88218201D01*
X118697077Y-88201019D01*
X118749223Y-88185909D01*
X118788050Y-88174459D01*
X118808120Y-88168257D01*
X118808500Y-88168125D01*
X118801378Y-88163581D01*
X118772313Y-88153816D01*
X118724043Y-88139594D01*
X118659308Y-88121682D01*
X118580848Y-88100845D01*
X118491402Y-88077849D01*
X118433850Y-88063396D01*
X118040150Y-87965373D01*
X118036644Y-87772287D01*
X118036000Y-87705526D01*
X118036535Y-87648766D01*
X118038122Y-87606363D01*
X118040634Y-87582676D01*
X118042300Y-87579200D01*
X118056806Y-87583327D01*
X118092145Y-87594988D01*
X118145256Y-87613105D01*
X118213076Y-87636603D01*
X118292544Y-87664403D01*
X118380598Y-87695427D01*
X118474176Y-87728599D01*
X118570216Y-87762842D01*
X118665655Y-87797077D01*
X118757433Y-87830227D01*
X118808500Y-87848795D01*
X118965407Y-87907798D01*
X119100010Y-87962472D01*
X119214786Y-88014065D01*
X119312209Y-88063825D01*
X119394757Y-88113000D01*
X119464905Y-88162839D01*
X119514358Y-88204572D01*
X119603600Y-88302406D01*
X119671016Y-88412551D01*
X119715741Y-88533530D01*
X119721509Y-88557203D01*
X119727631Y-88589589D01*
X119723264Y-88605986D01*
X119703503Y-88615184D01*
X119686598Y-88619757D01*
X119626723Y-88635234D01*
X119566368Y-88650526D01*
X119510795Y-88664337D01*
X119465263Y-88675372D01*
X119435033Y-88682332D01*
X119425509Y-88684100D01*
X119418997Y-88673700D01*
X119418100Y-88664264D01*
X119411399Y-88635702D01*
X119393834Y-88593833D01*
X119369210Y-88546082D01*
X119341334Y-88499878D01*
X119315998Y-88465013D01*
X119279421Y-88428394D01*
X119235197Y-88393879D01*
X119220517Y-88384550D01*
X119164504Y-88351724D01*
X118605154Y-88575062D01*
X118492577Y-88619963D01*
X118387324Y-88661848D01*
X118291719Y-88699800D01*
X118208088Y-88732898D01*
X118138756Y-88760226D01*
X118086046Y-88780864D01*
X118052284Y-88793895D01*
X118039802Y-88798400D01*
X118037761Y-88786414D01*
X118036018Y-88753311D01*
X118034701Y-88703373D01*
X118033938Y-88640882D01*
X118033800Y-88598194D01*
X118033800Y-88397987D01*
X118259225Y-88329779D01*
D15*
X84632500Y-97340500D02*
X84632500Y-97405500D01*
X81102500Y-97340500D02*
X81102500Y-97405500D01*
X84632500Y-93475500D02*
X84632500Y-93540500D01*
X81102500Y-93475500D02*
X81102500Y-93540500D01*
X79777500Y-93540500D02*
X81102500Y-93540500D01*
X81102500Y-97405500D02*
X84632500Y-97405500D01*
X81102500Y-93475500D02*
X84632500Y-93475500D01*
D17*
X105186000Y-89768200D02*
X104567330Y-89768200D01*
X102586000Y-89768200D02*
X103204670Y-89768200D01*
X102586000Y-87168200D02*
X105186000Y-87168200D01*
D18*
X100697800Y-100515300D02*
G75*
G03X100697800Y-100515300I-125000J0D01*
G01*
D15*
X119860000Y-106982200D02*
X103660000Y-106982200D01*
X103660000Y-106982200D02*
X103660000Y-106582200D01*
X119860000Y-91182200D02*
X119860000Y-90782200D01*
X119860000Y-90782200D02*
X103660000Y-90782200D01*
X103660000Y-90782200D02*
X103660000Y-91182200D01*
X119860000Y-106982200D02*
X119860000Y-106632200D01*
X119860000Y-106632200D02*
X120760000Y-106632200D01*
D17*
X97514000Y-104406000D02*
G75*
G02X97414000Y-104406000I-50000J0D01*
G01*
X97414000Y-104406000D02*
G75*
G02X97514000Y-104406000I50000J0D01*
G01*
X97414000Y-104406000D02*
X97414000Y-104406000D01*
X97514000Y-104406000D02*
X97514000Y-104406000D01*
X98514000Y-103906000D02*
X97814000Y-103906000D01*
X100814000Y-103906000D02*
X100114000Y-103906000D01*
X100114000Y-106406000D02*
X100814000Y-106406000D01*
X98514000Y-106406000D02*
X97814000Y-106406000D01*
D14*
X104072000Y-76082500D02*
X95572000Y-76082500D01*
X104072000Y-80962500D02*
X104072000Y-78112500D01*
X95572000Y-80962500D02*
X95572000Y-78112500D01*
X104072000Y-80962500D02*
X102522000Y-80962500D01*
X95572000Y-80962500D02*
X97122000Y-80962500D01*
D12*
X76887300Y-99088700D02*
X76837300Y-99088700D01*
X77537300Y-99159700D02*
X77537300Y-106017700D01*
X76887300Y-99088700D02*
G75*
G02X76387300Y-98588700I0J500000D01*
G01*
X76087300Y-98688700D02*
G75*
G03X76887300Y-99488700I800000J0D01*
G01*
X76887300Y-99488700D02*
X77187300Y-99488700D01*
X77187300Y-99488700D02*
X77187300Y-99788700D01*
X77187300Y-99788700D02*
G75*
G03X76787300Y-100188700I0J-400000D01*
G01*
X76887300Y-106088700D02*
X76837300Y-106088700D01*
X76887300Y-106088700D02*
G75*
G03X76387300Y-106588700I0J-500000D01*
G01*
X76087300Y-106488700D02*
G75*
G02X76887300Y-105688700I800000J0D01*
G01*
X76887300Y-105688700D02*
X77187300Y-105688700D01*
X77187300Y-105688700D02*
X77187300Y-105388700D01*
X77187300Y-105388700D02*
G75*
G02X76787300Y-104988700I0J400000D01*
G01*
X76787300Y-100188700D02*
X76787300Y-104888700D01*
D19*
X87711999Y-102109001D02*
X87711999Y-101784000D01*
X87711999Y-102109001D02*
X87386998Y-102109001D01*
X87711999Y-99058999D02*
X87386998Y-99058999D01*
X87711999Y-99384000D02*
X87711999Y-99058999D01*
X85587002Y-99058999D02*
X85262001Y-99058999D01*
X85262001Y-99384000D02*
X85262001Y-99058999D01*
X85887001Y-102109001D02*
X85262001Y-102109001D01*
X85262001Y-102109001D02*
X85262001Y-101484001D01*
D13*
X89857000Y-106173400D02*
X85657000Y-106173400D01*
X85657000Y-103122600D02*
X89857000Y-103122600D01*
D18*
X91242119Y-80528523D02*
X91242119Y-79258523D01*
X91544500Y-79258523D01*
X91725928Y-79319000D01*
X91846880Y-79439952D01*
X91907357Y-79560904D01*
X91967833Y-79802809D01*
X91967833Y-79984238D01*
X91907357Y-80226142D01*
X91846880Y-80347095D01*
X91725928Y-80468047D01*
X91544500Y-80528523D01*
X91242119Y-80528523D01*
X93056404Y-79681857D02*
X93056404Y-80528523D01*
X92754023Y-79198047D02*
X92451642Y-80105190D01*
X93237833Y-80105190D01*
X91051619Y-87450023D02*
X91051619Y-86180023D01*
X91354000Y-86180023D01*
X91535428Y-86240500D01*
X91656380Y-86361452D01*
X91716857Y-86482404D01*
X91777333Y-86724309D01*
X91777333Y-86905738D01*
X91716857Y-87147642D01*
X91656380Y-87268595D01*
X91535428Y-87389547D01*
X91354000Y-87450023D01*
X91051619Y-87450023D01*
X92986857Y-87450023D02*
X92261142Y-87450023D01*
X92624000Y-87450023D02*
X92624000Y-86180023D01*
X92503047Y-86361452D01*
X92382095Y-86482404D01*
X92261142Y-86542880D01*
D11*
X91827642Y-81541857D02*
X91875261Y-81589476D01*
X91922880Y-81732333D01*
X91922880Y-81827571D01*
X91875261Y-81970428D01*
X91780023Y-82065666D01*
X91684785Y-82113285D01*
X91494309Y-82160904D01*
X91351452Y-82160904D01*
X91160976Y-82113285D01*
X91065738Y-82065666D01*
X90970500Y-81970428D01*
X90922880Y-81827571D01*
X90922880Y-81732333D01*
X90970500Y-81589476D01*
X91018119Y-81541857D01*
X91018119Y-81160904D02*
X90970500Y-81113285D01*
X90922880Y-81018047D01*
X90922880Y-80779952D01*
X90970500Y-80684714D01*
X91018119Y-80637095D01*
X91113357Y-80589476D01*
X91208595Y-80589476D01*
X91351452Y-80637095D01*
X91922880Y-81208523D01*
X91922880Y-80589476D01*
X90922880Y-79970428D02*
X90922880Y-79875190D01*
X90970500Y-79779952D01*
X91018119Y-79732333D01*
X91113357Y-79684714D01*
X91303833Y-79637095D01*
X91541928Y-79637095D01*
X91732404Y-79684714D01*
X91827642Y-79732333D01*
X91875261Y-79779952D01*
X91922880Y-79875190D01*
X91922880Y-79970428D01*
X91875261Y-80065666D01*
X91827642Y-80113285D01*
X91732404Y-80160904D01*
X91541928Y-80208523D01*
X91303833Y-80208523D01*
X91113357Y-80160904D01*
X91018119Y-80113285D01*
X90970500Y-80065666D01*
X90922880Y-79970428D01*
X94687642Y-88971357D02*
X94735261Y-89018976D01*
X94782880Y-89161833D01*
X94782880Y-89257071D01*
X94735261Y-89399928D01*
X94640023Y-89495166D01*
X94544785Y-89542785D01*
X94354309Y-89590404D01*
X94211452Y-89590404D01*
X94020976Y-89542785D01*
X93925738Y-89495166D01*
X93830500Y-89399928D01*
X93782880Y-89257071D01*
X93782880Y-89161833D01*
X93830500Y-89018976D01*
X93878119Y-88971357D01*
X94782880Y-88018976D02*
X94782880Y-88590404D01*
X94782880Y-88304690D02*
X93782880Y-88304690D01*
X93925738Y-88399928D01*
X94020976Y-88495166D01*
X94068595Y-88590404D01*
X94782880Y-87542785D02*
X94782880Y-87352309D01*
X94735261Y-87257071D01*
X94687642Y-87209452D01*
X94544785Y-87114214D01*
X94354309Y-87066595D01*
X93973357Y-87066595D01*
X93878119Y-87114214D01*
X93830500Y-87161833D01*
X93782880Y-87257071D01*
X93782880Y-87447547D01*
X93830500Y-87542785D01*
X93878119Y-87590404D01*
X93973357Y-87638023D01*
X94211452Y-87638023D01*
X94306690Y-87590404D01*
X94354309Y-87542785D01*
X94401928Y-87447547D01*
X94401928Y-87257071D01*
X94354309Y-87161833D01*
X94306690Y-87114214D01*
X94211452Y-87066595D01*
D10*
X108976220Y-86901261D02*
X108976220Y-87415309D01*
X109006458Y-87475785D01*
X109036696Y-87506023D01*
X109097172Y-87536261D01*
X109218125Y-87536261D01*
X109278601Y-87506023D01*
X109308839Y-87475785D01*
X109339077Y-87415309D01*
X109339077Y-86901261D01*
X109671696Y-87536261D02*
X109792649Y-87536261D01*
X109853125Y-87506023D01*
X109883363Y-87475785D01*
X109943839Y-87385071D01*
X109974077Y-87264119D01*
X109974077Y-87022214D01*
X109943839Y-86961738D01*
X109913601Y-86931500D01*
X109853125Y-86901261D01*
X109732172Y-86901261D01*
X109671696Y-86931500D01*
X109641458Y-86961738D01*
X109611220Y-87022214D01*
X109611220Y-87173404D01*
X109641458Y-87233880D01*
X109671696Y-87264119D01*
X109732172Y-87294357D01*
X109853125Y-87294357D01*
X109913601Y-87264119D01*
X109943839Y-87233880D01*
X109974077Y-87173404D01*
X104825785Y-81540261D02*
X104614119Y-81237880D01*
X104462928Y-81540261D02*
X104462928Y-80905261D01*
X104704833Y-80905261D01*
X104765309Y-80935500D01*
X104795547Y-80965738D01*
X104825785Y-81026214D01*
X104825785Y-81116928D01*
X104795547Y-81177404D01*
X104765309Y-81207642D01*
X104704833Y-81237880D01*
X104462928Y-81237880D01*
X105067690Y-80965738D02*
X105097928Y-80935500D01*
X105158404Y-80905261D01*
X105309595Y-80905261D01*
X105370071Y-80935500D01*
X105400309Y-80965738D01*
X105430547Y-81026214D01*
X105430547Y-81086690D01*
X105400309Y-81177404D01*
X105037452Y-81540261D01*
X105430547Y-81540261D01*
X105642214Y-80905261D02*
X106035309Y-80905261D01*
X105823642Y-81147166D01*
X105914357Y-81147166D01*
X105974833Y-81177404D01*
X106005071Y-81207642D01*
X106035309Y-81268119D01*
X106035309Y-81419309D01*
X106005071Y-81479785D01*
X105974833Y-81510023D01*
X105914357Y-81540261D01*
X105732928Y-81540261D01*
X105672452Y-81510023D01*
X105642214Y-81479785D01*
X112748785Y-86774261D02*
X112537119Y-86471880D01*
X112385928Y-86774261D02*
X112385928Y-86139261D01*
X112627833Y-86139261D01*
X112688309Y-86169500D01*
X112718547Y-86199738D01*
X112748785Y-86260214D01*
X112748785Y-86350928D01*
X112718547Y-86411404D01*
X112688309Y-86441642D01*
X112627833Y-86471880D01*
X112385928Y-86471880D01*
X112990690Y-86199738D02*
X113020928Y-86169500D01*
X113081404Y-86139261D01*
X113232595Y-86139261D01*
X113293071Y-86169500D01*
X113323309Y-86199738D01*
X113353547Y-86260214D01*
X113353547Y-86320690D01*
X113323309Y-86411404D01*
X112960452Y-86774261D01*
X113353547Y-86774261D01*
X113595452Y-86199738D02*
X113625690Y-86169500D01*
X113686166Y-86139261D01*
X113837357Y-86139261D01*
X113897833Y-86169500D01*
X113928071Y-86199738D01*
X113958309Y-86260214D01*
X113958309Y-86320690D01*
X113928071Y-86411404D01*
X113565214Y-86774261D01*
X113958309Y-86774261D01*
X117314738Y-82546976D02*
X117284500Y-82607452D01*
X117224023Y-82667928D01*
X117133309Y-82758642D01*
X117103071Y-82819119D01*
X117103071Y-82879595D01*
X117254261Y-82849357D02*
X117224023Y-82909833D01*
X117163547Y-82970309D01*
X117042595Y-83000547D01*
X116830928Y-83000547D01*
X116709976Y-82970309D01*
X116649500Y-82909833D01*
X116619261Y-82849357D01*
X116619261Y-82728404D01*
X116649500Y-82667928D01*
X116709976Y-82607452D01*
X116830928Y-82577214D01*
X117042595Y-82577214D01*
X117163547Y-82607452D01*
X117224023Y-82667928D01*
X117254261Y-82728404D01*
X117254261Y-82849357D01*
X117254261Y-81972452D02*
X117254261Y-82335309D01*
X117254261Y-82153880D02*
X116619261Y-82153880D01*
X116709976Y-82214357D01*
X116770452Y-82274833D01*
X116800690Y-82335309D01*
X107160785Y-79284285D02*
X107130547Y-79314523D01*
X107039833Y-79344761D01*
X106979357Y-79344761D01*
X106888642Y-79314523D01*
X106828166Y-79254047D01*
X106797928Y-79193571D01*
X106767690Y-79072619D01*
X106767690Y-78981904D01*
X106797928Y-78860952D01*
X106828166Y-78800476D01*
X106888642Y-78740000D01*
X106979357Y-78709761D01*
X107039833Y-78709761D01*
X107130547Y-78740000D01*
X107160785Y-78770238D01*
X107765547Y-79344761D02*
X107402690Y-79344761D01*
X107584119Y-79344761D02*
X107584119Y-78709761D01*
X107523642Y-78800476D01*
X107463166Y-78860952D01*
X107402690Y-78891190D01*
X107977214Y-78709761D02*
X108400547Y-78709761D01*
X108128404Y-79344761D01*
X104825785Y-86319785D02*
X104795547Y-86350023D01*
X104704833Y-86380261D01*
X104644357Y-86380261D01*
X104553642Y-86350023D01*
X104493166Y-86289547D01*
X104462928Y-86229071D01*
X104432690Y-86108119D01*
X104432690Y-86017404D01*
X104462928Y-85896452D01*
X104493166Y-85835976D01*
X104553642Y-85775500D01*
X104644357Y-85745261D01*
X104704833Y-85745261D01*
X104795547Y-85775500D01*
X104825785Y-85805738D01*
X105430547Y-86380261D02*
X105067690Y-86380261D01*
X105249119Y-86380261D02*
X105249119Y-85745261D01*
X105188642Y-85835976D01*
X105128166Y-85896452D01*
X105067690Y-85926690D01*
X105793404Y-86017404D02*
X105732928Y-85987166D01*
X105702690Y-85956928D01*
X105672452Y-85896452D01*
X105672452Y-85866214D01*
X105702690Y-85805738D01*
X105732928Y-85775500D01*
X105793404Y-85745261D01*
X105914357Y-85745261D01*
X105974833Y-85775500D01*
X106005071Y-85805738D01*
X106035309Y-85866214D01*
X106035309Y-85896452D01*
X106005071Y-85956928D01*
X105974833Y-85987166D01*
X105914357Y-86017404D01*
X105793404Y-86017404D01*
X105732928Y-86047642D01*
X105702690Y-86077880D01*
X105672452Y-86138357D01*
X105672452Y-86259309D01*
X105702690Y-86319785D01*
X105732928Y-86350023D01*
X105793404Y-86380261D01*
X105914357Y-86380261D01*
X105974833Y-86350023D01*
X106005071Y-86319785D01*
X106035309Y-86259309D01*
X106035309Y-86138357D01*
X106005071Y-86077880D01*
X105974833Y-86047642D01*
X105914357Y-86017404D01*
X86777285Y-87345761D02*
X86565619Y-87043380D01*
X86414428Y-87345761D02*
X86414428Y-86710761D01*
X86656333Y-86710761D01*
X86716809Y-86741000D01*
X86747047Y-86771238D01*
X86777285Y-86831714D01*
X86777285Y-86922428D01*
X86747047Y-86982904D01*
X86716809Y-87013142D01*
X86656333Y-87043380D01*
X86414428Y-87043380D01*
X87019190Y-86771238D02*
X87049428Y-86741000D01*
X87109904Y-86710761D01*
X87261095Y-86710761D01*
X87321571Y-86741000D01*
X87351809Y-86771238D01*
X87382047Y-86831714D01*
X87382047Y-86892190D01*
X87351809Y-86982904D01*
X86988952Y-87345761D01*
X87382047Y-87345761D01*
X87986809Y-87345761D02*
X87623952Y-87345761D01*
X87805380Y-87345761D02*
X87805380Y-86710761D01*
X87744904Y-86801476D01*
X87684428Y-86861952D01*
X87623952Y-86892190D01*
X86831785Y-89777261D02*
X86620119Y-89474880D01*
X86468928Y-89777261D02*
X86468928Y-89142261D01*
X86710833Y-89142261D01*
X86771309Y-89172500D01*
X86801547Y-89202738D01*
X86831785Y-89263214D01*
X86831785Y-89353928D01*
X86801547Y-89414404D01*
X86771309Y-89444642D01*
X86710833Y-89474880D01*
X86468928Y-89474880D01*
X87073690Y-89202738D02*
X87103928Y-89172500D01*
X87164404Y-89142261D01*
X87315595Y-89142261D01*
X87376071Y-89172500D01*
X87406309Y-89202738D01*
X87436547Y-89263214D01*
X87436547Y-89323690D01*
X87406309Y-89414404D01*
X87043452Y-89777261D01*
X87436547Y-89777261D01*
X87829642Y-89142261D02*
X87890119Y-89142261D01*
X87950595Y-89172500D01*
X87980833Y-89202738D01*
X88011071Y-89263214D01*
X88041309Y-89384166D01*
X88041309Y-89535357D01*
X88011071Y-89656309D01*
X87980833Y-89716785D01*
X87950595Y-89747023D01*
X87890119Y-89777261D01*
X87829642Y-89777261D01*
X87769166Y-89747023D01*
X87738928Y-89716785D01*
X87708690Y-89656309D01*
X87678452Y-89535357D01*
X87678452Y-89384166D01*
X87708690Y-89263214D01*
X87738928Y-89202738D01*
X87769166Y-89172500D01*
X87829642Y-89142261D01*
X86751785Y-81667261D02*
X86540119Y-81364880D01*
X86388928Y-81667261D02*
X86388928Y-81032261D01*
X86630833Y-81032261D01*
X86691309Y-81062500D01*
X86721547Y-81092738D01*
X86751785Y-81153214D01*
X86751785Y-81243928D01*
X86721547Y-81304404D01*
X86691309Y-81334642D01*
X86630833Y-81364880D01*
X86388928Y-81364880D01*
X87356547Y-81667261D02*
X86993690Y-81667261D01*
X87175119Y-81667261D02*
X87175119Y-81032261D01*
X87114642Y-81122976D01*
X87054166Y-81183452D01*
X86993690Y-81213690D01*
X87658928Y-81667261D02*
X87779880Y-81667261D01*
X87840357Y-81637023D01*
X87870595Y-81606785D01*
X87931071Y-81516071D01*
X87961309Y-81395119D01*
X87961309Y-81153214D01*
X87931071Y-81092738D01*
X87900833Y-81062500D01*
X87840357Y-81032261D01*
X87719404Y-81032261D01*
X87658928Y-81062500D01*
X87628690Y-81092738D01*
X87598452Y-81153214D01*
X87598452Y-81304404D01*
X87628690Y-81364880D01*
X87658928Y-81395119D01*
X87719404Y-81425357D01*
X87840357Y-81425357D01*
X87900833Y-81395119D01*
X87931071Y-81364880D01*
X87961309Y-81304404D01*
X86811785Y-83727261D02*
X86600119Y-83424880D01*
X86448928Y-83727261D02*
X86448928Y-83092261D01*
X86690833Y-83092261D01*
X86751309Y-83122500D01*
X86781547Y-83152738D01*
X86811785Y-83213214D01*
X86811785Y-83303928D01*
X86781547Y-83364404D01*
X86751309Y-83394642D01*
X86690833Y-83424880D01*
X86448928Y-83424880D01*
X87416547Y-83727261D02*
X87053690Y-83727261D01*
X87235119Y-83727261D02*
X87235119Y-83092261D01*
X87174642Y-83182976D01*
X87114166Y-83243452D01*
X87053690Y-83273690D01*
X87779404Y-83364404D02*
X87718928Y-83334166D01*
X87688690Y-83303928D01*
X87658452Y-83243452D01*
X87658452Y-83213214D01*
X87688690Y-83152738D01*
X87718928Y-83122500D01*
X87779404Y-83092261D01*
X87900357Y-83092261D01*
X87960833Y-83122500D01*
X87991071Y-83152738D01*
X88021309Y-83213214D01*
X88021309Y-83243452D01*
X87991071Y-83303928D01*
X87960833Y-83334166D01*
X87900357Y-83364404D01*
X87779404Y-83364404D01*
X87718928Y-83394642D01*
X87688690Y-83424880D01*
X87658452Y-83485357D01*
X87658452Y-83606309D01*
X87688690Y-83666785D01*
X87718928Y-83697023D01*
X87779404Y-83727261D01*
X87900357Y-83727261D01*
X87960833Y-83697023D01*
X87991071Y-83666785D01*
X88021309Y-83606309D01*
X88021309Y-83485357D01*
X87991071Y-83424880D01*
X87960833Y-83394642D01*
X87900357Y-83364404D01*
X102649261Y-101718214D02*
X102346880Y-101929880D01*
X102649261Y-102081071D02*
X102014261Y-102081071D01*
X102014261Y-101839166D01*
X102044500Y-101778690D01*
X102074738Y-101748452D01*
X102135214Y-101718214D01*
X102225928Y-101718214D01*
X102286404Y-101748452D01*
X102316642Y-101778690D01*
X102346880Y-101839166D01*
X102346880Y-102081071D01*
X102649261Y-101113452D02*
X102649261Y-101476309D01*
X102649261Y-101294880D02*
X102014261Y-101294880D01*
X102104976Y-101355357D01*
X102165452Y-101415833D01*
X102195690Y-101476309D01*
X102014261Y-100901785D02*
X102014261Y-100478452D01*
X102649261Y-100750595D01*
X113764785Y-88869761D02*
X113553119Y-88567380D01*
X113401928Y-88869761D02*
X113401928Y-88234761D01*
X113643833Y-88234761D01*
X113704309Y-88265000D01*
X113734547Y-88295238D01*
X113764785Y-88355714D01*
X113764785Y-88446428D01*
X113734547Y-88506904D01*
X113704309Y-88537142D01*
X113643833Y-88567380D01*
X113401928Y-88567380D01*
X114369547Y-88869761D02*
X114006690Y-88869761D01*
X114188119Y-88869761D02*
X114188119Y-88234761D01*
X114127642Y-88325476D01*
X114067166Y-88385952D01*
X114006690Y-88416190D01*
X114913833Y-88234761D02*
X114792880Y-88234761D01*
X114732404Y-88265000D01*
X114702166Y-88295238D01*
X114641690Y-88385952D01*
X114611452Y-88506904D01*
X114611452Y-88748809D01*
X114641690Y-88809285D01*
X114671928Y-88839523D01*
X114732404Y-88869761D01*
X114853357Y-88869761D01*
X114913833Y-88839523D01*
X114944071Y-88809285D01*
X114974309Y-88748809D01*
X114974309Y-88597619D01*
X114944071Y-88537142D01*
X114913833Y-88506904D01*
X114853357Y-88476666D01*
X114732404Y-88476666D01*
X114671928Y-88506904D01*
X114641690Y-88537142D01*
X114611452Y-88597619D01*
X101191785Y-103665261D02*
X100980119Y-103362880D01*
X100828928Y-103665261D02*
X100828928Y-103030261D01*
X101070833Y-103030261D01*
X101131309Y-103060500D01*
X101161547Y-103090738D01*
X101191785Y-103151214D01*
X101191785Y-103241928D01*
X101161547Y-103302404D01*
X101131309Y-103332642D01*
X101070833Y-103362880D01*
X100828928Y-103362880D01*
X101796547Y-103665261D02*
X101433690Y-103665261D01*
X101615119Y-103665261D02*
X101615119Y-103030261D01*
X101554642Y-103120976D01*
X101494166Y-103181452D01*
X101433690Y-103211690D01*
X102371071Y-103030261D02*
X102068690Y-103030261D01*
X102038452Y-103332642D01*
X102068690Y-103302404D01*
X102129166Y-103272166D01*
X102280357Y-103272166D01*
X102340833Y-103302404D01*
X102371071Y-103332642D01*
X102401309Y-103393119D01*
X102401309Y-103544309D01*
X102371071Y-103604785D01*
X102340833Y-103635023D01*
X102280357Y-103665261D01*
X102129166Y-103665261D01*
X102068690Y-103635023D01*
X102038452Y-103604785D01*
X86777285Y-85617261D02*
X86565619Y-85314880D01*
X86414428Y-85617261D02*
X86414428Y-84982261D01*
X86656333Y-84982261D01*
X86716809Y-85012500D01*
X86747047Y-85042738D01*
X86777285Y-85103214D01*
X86777285Y-85193928D01*
X86747047Y-85254404D01*
X86716809Y-85284642D01*
X86656333Y-85314880D01*
X86414428Y-85314880D01*
X87382047Y-85617261D02*
X87019190Y-85617261D01*
X87200619Y-85617261D02*
X87200619Y-84982261D01*
X87140142Y-85072976D01*
X87079666Y-85133452D01*
X87019190Y-85163690D01*
X87926333Y-85193928D02*
X87926333Y-85617261D01*
X87775142Y-84952023D02*
X87623952Y-85405595D01*
X88017047Y-85405595D01*
X86741785Y-79077261D02*
X86530119Y-78774880D01*
X86378928Y-79077261D02*
X86378928Y-78442261D01*
X86620833Y-78442261D01*
X86681309Y-78472500D01*
X86711547Y-78502738D01*
X86741785Y-78563214D01*
X86741785Y-78653928D01*
X86711547Y-78714404D01*
X86681309Y-78744642D01*
X86620833Y-78774880D01*
X86378928Y-78774880D01*
X87346547Y-79077261D02*
X86983690Y-79077261D01*
X87165119Y-79077261D02*
X87165119Y-78442261D01*
X87104642Y-78532976D01*
X87044166Y-78593452D01*
X86983690Y-78623690D01*
X87558214Y-78442261D02*
X87951309Y-78442261D01*
X87739642Y-78684166D01*
X87830357Y-78684166D01*
X87890833Y-78714404D01*
X87921071Y-78744642D01*
X87951309Y-78805119D01*
X87951309Y-78956309D01*
X87921071Y-79016785D01*
X87890833Y-79047023D01*
X87830357Y-79077261D01*
X87648928Y-79077261D01*
X87588452Y-79047023D01*
X87558214Y-79016785D01*
X83980261Y-90783833D02*
X83677880Y-90995500D01*
X83980261Y-91146690D02*
X83345261Y-91146690D01*
X83345261Y-90904785D01*
X83375500Y-90844309D01*
X83405738Y-90814071D01*
X83466214Y-90783833D01*
X83556928Y-90783833D01*
X83617404Y-90814071D01*
X83647642Y-90844309D01*
X83677880Y-90904785D01*
X83677880Y-91146690D01*
X83980261Y-90179071D02*
X83980261Y-90541928D01*
X83980261Y-90360500D02*
X83345261Y-90360500D01*
X83435976Y-90420976D01*
X83496452Y-90481452D01*
X83526690Y-90541928D01*
X83980261Y-85371214D02*
X83677880Y-85582880D01*
X83980261Y-85734071D02*
X83345261Y-85734071D01*
X83345261Y-85492166D01*
X83375500Y-85431690D01*
X83405738Y-85401452D01*
X83466214Y-85371214D01*
X83556928Y-85371214D01*
X83617404Y-85401452D01*
X83647642Y-85431690D01*
X83677880Y-85492166D01*
X83677880Y-85734071D01*
X83980261Y-84766452D02*
X83980261Y-85129309D01*
X83980261Y-84947880D02*
X83345261Y-84947880D01*
X83435976Y-85008357D01*
X83496452Y-85068833D01*
X83526690Y-85129309D01*
X83980261Y-84161690D02*
X83980261Y-84524547D01*
X83980261Y-84343119D02*
X83345261Y-84343119D01*
X83435976Y-84403595D01*
X83496452Y-84464071D01*
X83526690Y-84524547D01*
X83980261Y-79529214D02*
X83677880Y-79740880D01*
X83980261Y-79892071D02*
X83345261Y-79892071D01*
X83345261Y-79650166D01*
X83375500Y-79589690D01*
X83405738Y-79559452D01*
X83466214Y-79529214D01*
X83556928Y-79529214D01*
X83617404Y-79559452D01*
X83647642Y-79589690D01*
X83677880Y-79650166D01*
X83677880Y-79892071D01*
X83980261Y-78924452D02*
X83980261Y-79287309D01*
X83980261Y-79105880D02*
X83345261Y-79105880D01*
X83435976Y-79166357D01*
X83496452Y-79226833D01*
X83526690Y-79287309D01*
X83405738Y-78682547D02*
X83375500Y-78652309D01*
X83345261Y-78591833D01*
X83345261Y-78440642D01*
X83375500Y-78380166D01*
X83405738Y-78349928D01*
X83466214Y-78319690D01*
X83526690Y-78319690D01*
X83617404Y-78349928D01*
X83980261Y-78712785D01*
X83980261Y-78319690D01*
X99066261Y-87593714D02*
X98763880Y-87805380D01*
X99066261Y-87956571D02*
X98431261Y-87956571D01*
X98431261Y-87714666D01*
X98461500Y-87654190D01*
X98491738Y-87623952D01*
X98552214Y-87593714D01*
X98642928Y-87593714D01*
X98703404Y-87623952D01*
X98733642Y-87654190D01*
X98763880Y-87714666D01*
X98763880Y-87956571D01*
X99066261Y-86988952D02*
X99066261Y-87351809D01*
X99066261Y-87170380D02*
X98431261Y-87170380D01*
X98521976Y-87230857D01*
X98582452Y-87291333D01*
X98612690Y-87351809D01*
X98431261Y-86595857D02*
X98431261Y-86535380D01*
X98461500Y-86474904D01*
X98491738Y-86444666D01*
X98552214Y-86414428D01*
X98673166Y-86384190D01*
X98824357Y-86384190D01*
X98945309Y-86414428D01*
X99005785Y-86444666D01*
X99036023Y-86474904D01*
X99066261Y-86535380D01*
X99066261Y-86595857D01*
X99036023Y-86656333D01*
X99005785Y-86686571D01*
X98945309Y-86716809D01*
X98824357Y-86747047D01*
X98673166Y-86747047D01*
X98552214Y-86716809D01*
X98491738Y-86686571D01*
X98461500Y-86656333D01*
X98431261Y-86595857D01*
X99066261Y-84941833D02*
X98763880Y-85153500D01*
X99066261Y-85304690D02*
X98431261Y-85304690D01*
X98431261Y-85062785D01*
X98461500Y-85002309D01*
X98491738Y-84972071D01*
X98552214Y-84941833D01*
X98642928Y-84941833D01*
X98703404Y-84972071D01*
X98733642Y-85002309D01*
X98763880Y-85062785D01*
X98763880Y-85304690D01*
X99066261Y-84639452D02*
X99066261Y-84518500D01*
X99036023Y-84458023D01*
X99005785Y-84427785D01*
X98915071Y-84367309D01*
X98794119Y-84337071D01*
X98552214Y-84337071D01*
X98491738Y-84367309D01*
X98461500Y-84397547D01*
X98431261Y-84458023D01*
X98431261Y-84578976D01*
X98461500Y-84639452D01*
X98491738Y-84669690D01*
X98552214Y-84699928D01*
X98703404Y-84699928D01*
X98763880Y-84669690D01*
X98794119Y-84639452D01*
X98824357Y-84578976D01*
X98824357Y-84458023D01*
X98794119Y-84397547D01*
X98763880Y-84367309D01*
X98703404Y-84337071D01*
X103538261Y-88679866D02*
X103991833Y-88679866D01*
X104082547Y-88710104D01*
X104143023Y-88770580D01*
X104173261Y-88861295D01*
X104173261Y-88921771D01*
X103538261Y-88437961D02*
X103538261Y-88014628D01*
X104173261Y-88286771D01*
X92806761Y-103864833D02*
X92504380Y-104076500D01*
X92806761Y-104227690D02*
X92171761Y-104227690D01*
X92171761Y-103985785D01*
X92202000Y-103925309D01*
X92232238Y-103895071D01*
X92292714Y-103864833D01*
X92383428Y-103864833D01*
X92443904Y-103895071D01*
X92474142Y-103925309D01*
X92504380Y-103985785D01*
X92504380Y-104227690D01*
X92232238Y-103622928D02*
X92202000Y-103592690D01*
X92171761Y-103532214D01*
X92171761Y-103381023D01*
X92202000Y-103320547D01*
X92232238Y-103290309D01*
X92292714Y-103260071D01*
X92353190Y-103260071D01*
X92443904Y-103290309D01*
X92806761Y-103653166D01*
X92806761Y-103260071D01*
X92682785Y-88328285D02*
X92652547Y-88358523D01*
X92561833Y-88388761D01*
X92501357Y-88388761D01*
X92410642Y-88358523D01*
X92350166Y-88298047D01*
X92319928Y-88237571D01*
X92289690Y-88116619D01*
X92289690Y-88025904D01*
X92319928Y-87904952D01*
X92350166Y-87844476D01*
X92410642Y-87784000D01*
X92501357Y-87753761D01*
X92561833Y-87753761D01*
X92652547Y-87784000D01*
X92682785Y-87814238D01*
X93287547Y-88388761D02*
X92924690Y-88388761D01*
X93106119Y-88388761D02*
X93106119Y-87753761D01*
X93045642Y-87844476D01*
X92985166Y-87904952D01*
X92924690Y-87935190D01*
X93529452Y-87814238D02*
X93559690Y-87784000D01*
X93620166Y-87753761D01*
X93771357Y-87753761D01*
X93831833Y-87784000D01*
X93862071Y-87814238D01*
X93892309Y-87874714D01*
X93892309Y-87935190D01*
X93862071Y-88025904D01*
X93499214Y-88388761D01*
X93892309Y-88388761D01*
X91845190Y-92806761D02*
X91845190Y-93320809D01*
X91875428Y-93381285D01*
X91905666Y-93411523D01*
X91966142Y-93441761D01*
X92087095Y-93441761D01*
X92147571Y-93411523D01*
X92177809Y-93381285D01*
X92208047Y-93320809D01*
X92208047Y-92806761D01*
X92480190Y-92867238D02*
X92510428Y-92837000D01*
X92570904Y-92806761D01*
X92722095Y-92806761D01*
X92782571Y-92837000D01*
X92812809Y-92867238D01*
X92843047Y-92927714D01*
X92843047Y-92988190D01*
X92812809Y-93078904D01*
X92449952Y-93441761D01*
X92843047Y-93441761D01*
X111276190Y-98470961D02*
X111276190Y-98985009D01*
X111306428Y-99045485D01*
X111336666Y-99075723D01*
X111397142Y-99105961D01*
X111518095Y-99105961D01*
X111578571Y-99075723D01*
X111608809Y-99045485D01*
X111639047Y-98985009D01*
X111639047Y-98470961D01*
X112274047Y-99105961D02*
X111911190Y-99105961D01*
X112092619Y-99105961D02*
X112092619Y-98470961D01*
X112032142Y-98561676D01*
X111971666Y-98622152D01*
X111911190Y-98652390D01*
X97687190Y-102839761D02*
X97687190Y-103353809D01*
X97717428Y-103414285D01*
X97747666Y-103444523D01*
X97808142Y-103474761D01*
X97929095Y-103474761D01*
X97989571Y-103444523D01*
X98019809Y-103414285D01*
X98050047Y-103353809D01*
X98050047Y-102839761D01*
X98291952Y-102839761D02*
X98715285Y-102839761D01*
X98443142Y-103474761D01*
X81745666Y-85467761D02*
X81534000Y-85165380D01*
X81382809Y-85467761D02*
X81382809Y-84832761D01*
X81624714Y-84832761D01*
X81685190Y-84863000D01*
X81715428Y-84893238D01*
X81745666Y-84953714D01*
X81745666Y-85044428D01*
X81715428Y-85104904D01*
X81685190Y-85135142D01*
X81624714Y-85165380D01*
X81382809Y-85165380D01*
X82289952Y-85044428D02*
X82289952Y-85467761D01*
X82138761Y-84802523D02*
X81987571Y-85256095D01*
X82380666Y-85256095D01*
X101714166Y-106956785D02*
X101683928Y-106987023D01*
X101593214Y-107017261D01*
X101532738Y-107017261D01*
X101442023Y-106987023D01*
X101381547Y-106926547D01*
X101351309Y-106866071D01*
X101321071Y-106745119D01*
X101321071Y-106654404D01*
X101351309Y-106533452D01*
X101381547Y-106472976D01*
X101442023Y-106412500D01*
X101532738Y-106382261D01*
X101593214Y-106382261D01*
X101683928Y-106412500D01*
X101714166Y-106442738D01*
X102077023Y-106654404D02*
X102016547Y-106624166D01*
X101986309Y-106593928D01*
X101956071Y-106533452D01*
X101956071Y-106503214D01*
X101986309Y-106442738D01*
X102016547Y-106412500D01*
X102077023Y-106382261D01*
X102197976Y-106382261D01*
X102258452Y-106412500D01*
X102288690Y-106442738D01*
X102318928Y-106503214D01*
X102318928Y-106533452D01*
X102288690Y-106593928D01*
X102258452Y-106624166D01*
X102197976Y-106654404D01*
X102077023Y-106654404D01*
X102016547Y-106684642D01*
X101986309Y-106714880D01*
X101956071Y-106775357D01*
X101956071Y-106896309D01*
X101986309Y-106956785D01*
X102016547Y-106987023D01*
X102077023Y-107017261D01*
X102197976Y-107017261D01*
X102258452Y-106987023D01*
X102288690Y-106956785D01*
X102318928Y-106896309D01*
X102318928Y-106775357D01*
X102288690Y-106714880D01*
X102258452Y-106684642D01*
X102197976Y-106654404D01*
X96492785Y-105579333D02*
X96523023Y-105609571D01*
X96553261Y-105700285D01*
X96553261Y-105760761D01*
X96523023Y-105851476D01*
X96462547Y-105911952D01*
X96402071Y-105942190D01*
X96281119Y-105972428D01*
X96190404Y-105972428D01*
X96069452Y-105942190D01*
X96008976Y-105911952D01*
X95948500Y-105851476D01*
X95918261Y-105760761D01*
X95918261Y-105700285D01*
X95948500Y-105609571D01*
X95978738Y-105579333D01*
X96129928Y-105035047D02*
X96553261Y-105035047D01*
X95888023Y-105186238D02*
X96341595Y-105337428D01*
X96341595Y-104944333D01*
X99610333Y-77820761D02*
X99610333Y-78274333D01*
X99580095Y-78365047D01*
X99519619Y-78425523D01*
X99428904Y-78455761D01*
X99368428Y-78455761D01*
X100215095Y-77820761D02*
X99912714Y-77820761D01*
X99882476Y-78123142D01*
X99912714Y-78092904D01*
X99973190Y-78062666D01*
X100124380Y-78062666D01*
X100184857Y-78092904D01*
X100215095Y-78123142D01*
X100245333Y-78183619D01*
X100245333Y-78334809D01*
X100215095Y-78395285D01*
X100184857Y-78425523D01*
X100124380Y-78455761D01*
X99973190Y-78455761D01*
X99912714Y-78425523D01*
X99882476Y-78395285D01*
X84107261Y-102957690D02*
X83472261Y-102957690D01*
X83472261Y-102806500D01*
X83502500Y-102715785D01*
X83562976Y-102655309D01*
X83623452Y-102625071D01*
X83744404Y-102594833D01*
X83835119Y-102594833D01*
X83956071Y-102625071D01*
X84016547Y-102655309D01*
X84077023Y-102715785D01*
X84107261Y-102806500D01*
X84107261Y-102957690D01*
X83532738Y-102352928D02*
X83502500Y-102322690D01*
X83472261Y-102262214D01*
X83472261Y-102111023D01*
X83502500Y-102050547D01*
X83532738Y-102020309D01*
X83593214Y-101990071D01*
X83653690Y-101990071D01*
X83744404Y-102020309D01*
X84107261Y-102383166D01*
X84107261Y-101990071D01*
X88171261Y-101067809D02*
X88685309Y-101067809D01*
X88745785Y-101037571D01*
X88776023Y-101007333D01*
X88806261Y-100946857D01*
X88806261Y-100825904D01*
X88776023Y-100765428D01*
X88745785Y-100735190D01*
X88685309Y-100704952D01*
X88171261Y-100704952D01*
X88382928Y-100130428D02*
X88806261Y-100130428D01*
X88141023Y-100281619D02*
X88594595Y-100432809D01*
X88594595Y-100039714D01*
X95159285Y-105579333D02*
X95189523Y-105609571D01*
X95219761Y-105700285D01*
X95219761Y-105760761D01*
X95189523Y-105851476D01*
X95129047Y-105911952D01*
X95068571Y-105942190D01*
X94947619Y-105972428D01*
X94856904Y-105972428D01*
X94735952Y-105942190D01*
X94675476Y-105911952D01*
X94615000Y-105851476D01*
X94584761Y-105760761D01*
X94584761Y-105700285D01*
X94615000Y-105609571D01*
X94645238Y-105579333D01*
X94584761Y-105035047D02*
X94584761Y-105156000D01*
X94615000Y-105216476D01*
X94645238Y-105246714D01*
X94735952Y-105307190D01*
X94856904Y-105337428D01*
X95098809Y-105337428D01*
X95159285Y-105307190D01*
X95189523Y-105276952D01*
X95219761Y-105216476D01*
X95219761Y-105095523D01*
X95189523Y-105035047D01*
X95159285Y-105004809D01*
X95098809Y-104974571D01*
X94947619Y-104974571D01*
X94887142Y-105004809D01*
X94856904Y-105035047D01*
X94826666Y-105095523D01*
X94826666Y-105216476D01*
X94856904Y-105276952D01*
X94887142Y-105307190D01*
X94947619Y-105337428D01*
X88552261Y-97006833D02*
X88249880Y-97218500D01*
X88552261Y-97369690D02*
X87917261Y-97369690D01*
X87917261Y-97127785D01*
X87947500Y-97067309D01*
X87977738Y-97037071D01*
X88038214Y-97006833D01*
X88128928Y-97006833D01*
X88189404Y-97037071D01*
X88219642Y-97067309D01*
X88249880Y-97127785D01*
X88249880Y-97369690D01*
X87917261Y-96432309D02*
X87917261Y-96734690D01*
X88219642Y-96764928D01*
X88189404Y-96734690D01*
X88159166Y-96674214D01*
X88159166Y-96523023D01*
X88189404Y-96462547D01*
X88219642Y-96432309D01*
X88280119Y-96402071D01*
X88431309Y-96402071D01*
X88491785Y-96432309D01*
X88522023Y-96462547D01*
X88552261Y-96523023D01*
X88552261Y-96674214D01*
X88522023Y-96734690D01*
X88491785Y-96764928D01*
X93175666Y-81470285D02*
X93145428Y-81500523D01*
X93054714Y-81530761D01*
X92994238Y-81530761D01*
X92903523Y-81500523D01*
X92843047Y-81440047D01*
X92812809Y-81379571D01*
X92782571Y-81258619D01*
X92782571Y-81167904D01*
X92812809Y-81046952D01*
X92843047Y-80986476D01*
X92903523Y-80926000D01*
X92994238Y-80895761D01*
X93054714Y-80895761D01*
X93145428Y-80926000D01*
X93175666Y-80956238D01*
X93478047Y-81530761D02*
X93599000Y-81530761D01*
X93659476Y-81500523D01*
X93689714Y-81470285D01*
X93750190Y-81379571D01*
X93780428Y-81258619D01*
X93780428Y-81016714D01*
X93750190Y-80956238D01*
X93719952Y-80926000D01*
X93659476Y-80895761D01*
X93538523Y-80895761D01*
X93478047Y-80926000D01*
X93447809Y-80956238D01*
X93417571Y-81016714D01*
X93417571Y-81167904D01*
X93447809Y-81228380D01*
X93478047Y-81258619D01*
X93538523Y-81288857D01*
X93659476Y-81288857D01*
X93719952Y-81258619D01*
X93750190Y-81228380D01*
X93780428Y-81167904D01*
X92873285Y-80263785D02*
X92843047Y-80294023D01*
X92752333Y-80324261D01*
X92691857Y-80324261D01*
X92601142Y-80294023D01*
X92540666Y-80233547D01*
X92510428Y-80173071D01*
X92480190Y-80052119D01*
X92480190Y-79961404D01*
X92510428Y-79840452D01*
X92540666Y-79779976D01*
X92601142Y-79719500D01*
X92691857Y-79689261D01*
X92752333Y-79689261D01*
X92843047Y-79719500D01*
X92873285Y-79749738D01*
X93478047Y-80324261D02*
X93115190Y-80324261D01*
X93296619Y-80324261D02*
X93296619Y-79689261D01*
X93236142Y-79779976D01*
X93175666Y-79840452D01*
X93115190Y-79870690D01*
X93871142Y-79689261D02*
X93931619Y-79689261D01*
X93992095Y-79719500D01*
X94022333Y-79749738D01*
X94052571Y-79810214D01*
X94082809Y-79931166D01*
X94082809Y-80082357D01*
X94052571Y-80203309D01*
X94022333Y-80263785D01*
X93992095Y-80294023D01*
X93931619Y-80324261D01*
X93871142Y-80324261D01*
X93810666Y-80294023D01*
X93780428Y-80263785D01*
X93750190Y-80203309D01*
X93719952Y-80082357D01*
X93719952Y-79931166D01*
X93750190Y-79810214D01*
X93780428Y-79749738D01*
X93810666Y-79719500D01*
X93871142Y-79689261D01*
X92682785Y-90333285D02*
X92652547Y-90363523D01*
X92561833Y-90393761D01*
X92501357Y-90393761D01*
X92410642Y-90363523D01*
X92350166Y-90303047D01*
X92319928Y-90242571D01*
X92289690Y-90121619D01*
X92289690Y-90030904D01*
X92319928Y-89909952D01*
X92350166Y-89849476D01*
X92410642Y-89789000D01*
X92501357Y-89758761D01*
X92561833Y-89758761D01*
X92652547Y-89789000D01*
X92682785Y-89819238D01*
X93287547Y-90393761D02*
X92924690Y-90393761D01*
X93106119Y-90393761D02*
X93106119Y-89758761D01*
X93045642Y-89849476D01*
X92985166Y-89909952D01*
X92924690Y-89940190D01*
X93892309Y-90393761D02*
X93529452Y-90393761D01*
X93710880Y-90393761D02*
X93710880Y-89758761D01*
X93650404Y-89849476D01*
X93589928Y-89909952D01*
X93529452Y-89940190D01*
X92746285Y-82840285D02*
X92716047Y-82870523D01*
X92625333Y-82900761D01*
X92564857Y-82900761D01*
X92474142Y-82870523D01*
X92413666Y-82810047D01*
X92383428Y-82749571D01*
X92353190Y-82628619D01*
X92353190Y-82537904D01*
X92383428Y-82416952D01*
X92413666Y-82356476D01*
X92474142Y-82296000D01*
X92564857Y-82265761D01*
X92625333Y-82265761D01*
X92716047Y-82296000D01*
X92746285Y-82326238D01*
X93351047Y-82900761D02*
X92988190Y-82900761D01*
X93169619Y-82900761D02*
X93169619Y-82265761D01*
X93109142Y-82356476D01*
X93048666Y-82416952D01*
X92988190Y-82447190D01*
X93562714Y-82265761D02*
X93955809Y-82265761D01*
X93744142Y-82507666D01*
X93834857Y-82507666D01*
X93895333Y-82537904D01*
X93925571Y-82568142D01*
X93955809Y-82628619D01*
X93955809Y-82779809D01*
X93925571Y-82840285D01*
X93895333Y-82870523D01*
X93834857Y-82900761D01*
X93653428Y-82900761D01*
X93592952Y-82870523D01*
X93562714Y-82840285D01*
X92619285Y-87185285D02*
X92589047Y-87215523D01*
X92498333Y-87245761D01*
X92437857Y-87245761D01*
X92347142Y-87215523D01*
X92286666Y-87155047D01*
X92256428Y-87094571D01*
X92226190Y-86973619D01*
X92226190Y-86882904D01*
X92256428Y-86761952D01*
X92286666Y-86701476D01*
X92347142Y-86641000D01*
X92437857Y-86610761D01*
X92498333Y-86610761D01*
X92589047Y-86641000D01*
X92619285Y-86671238D01*
X93224047Y-87245761D02*
X92861190Y-87245761D01*
X93042619Y-87245761D02*
X93042619Y-86610761D01*
X92982142Y-86701476D01*
X92921666Y-86761952D01*
X92861190Y-86792190D01*
X93768333Y-86822428D02*
X93768333Y-87245761D01*
X93617142Y-86580523D02*
X93465952Y-87034095D01*
X93859047Y-87034095D01*
X81745666Y-88361761D02*
X81534000Y-88059380D01*
X81382809Y-88361761D02*
X81382809Y-87726761D01*
X81624714Y-87726761D01*
X81685190Y-87757000D01*
X81715428Y-87787238D01*
X81745666Y-87847714D01*
X81745666Y-87938428D01*
X81715428Y-87998904D01*
X81685190Y-88029142D01*
X81624714Y-88059380D01*
X81382809Y-88059380D01*
X82289952Y-87726761D02*
X82169000Y-87726761D01*
X82108523Y-87757000D01*
X82078285Y-87787238D01*
X82017809Y-87877952D01*
X81987571Y-87998904D01*
X81987571Y-88240809D01*
X82017809Y-88301285D01*
X82048047Y-88331523D01*
X82108523Y-88361761D01*
X82229476Y-88361761D01*
X82289952Y-88331523D01*
X82320190Y-88301285D01*
X82350428Y-88240809D01*
X82350428Y-88089619D01*
X82320190Y-88029142D01*
X82289952Y-87998904D01*
X82229476Y-87968666D01*
X82108523Y-87968666D01*
X82048047Y-87998904D01*
X82017809Y-88029142D01*
X81987571Y-88089619D01*
X79586666Y-90992261D02*
X79375000Y-90689880D01*
X79223809Y-90992261D02*
X79223809Y-90357261D01*
X79465714Y-90357261D01*
X79526190Y-90387500D01*
X79556428Y-90417738D01*
X79586666Y-90478214D01*
X79586666Y-90568928D01*
X79556428Y-90629404D01*
X79526190Y-90659642D01*
X79465714Y-90689880D01*
X79223809Y-90689880D01*
X79798333Y-90357261D02*
X80221666Y-90357261D01*
X79949523Y-90992261D01*
X79586666Y-92198761D02*
X79375000Y-91896380D01*
X79223809Y-92198761D02*
X79223809Y-91563761D01*
X79465714Y-91563761D01*
X79526190Y-91594000D01*
X79556428Y-91624238D01*
X79586666Y-91684714D01*
X79586666Y-91775428D01*
X79556428Y-91835904D01*
X79526190Y-91866142D01*
X79465714Y-91896380D01*
X79223809Y-91896380D01*
X79949523Y-91835904D02*
X79889047Y-91805666D01*
X79858809Y-91775428D01*
X79828571Y-91714952D01*
X79828571Y-91684714D01*
X79858809Y-91624238D01*
X79889047Y-91594000D01*
X79949523Y-91563761D01*
X80070476Y-91563761D01*
X80130952Y-91594000D01*
X80161190Y-91624238D01*
X80191428Y-91684714D01*
X80191428Y-91714952D01*
X80161190Y-91775428D01*
X80130952Y-91805666D01*
X80070476Y-91835904D01*
X79949523Y-91835904D01*
X79889047Y-91866142D01*
X79858809Y-91896380D01*
X79828571Y-91956857D01*
X79828571Y-92077809D01*
X79858809Y-92138285D01*
X79889047Y-92168523D01*
X79949523Y-92198761D01*
X80070476Y-92198761D01*
X80130952Y-92168523D01*
X80161190Y-92138285D01*
X80191428Y-92077809D01*
X80191428Y-91956857D01*
X80161190Y-91896380D01*
X80130952Y-91866142D01*
X80070476Y-91835904D01*
M02*
