M48
; DRILL file {KiCad (5.1.4)-1} date 12/19/2019 6:18:11 PM
; FORMAT={-:-/ absolute / inch / decimal}
; #@! TF.CreationDate,2019-12-19T18:18:11-07:00
; #@! TF.GenerationSoftware,Kicad,Pcbnew,(5.1.4)-1
FMAT,2
INCH
T1C0.0118
T2C0.0354
T3C0.0394
T4C0.0472
%
G90
G05
T1
X3.175Y-3.25
X3.185Y-3.36
X3.185Y-3.5425
X3.185Y-3.4525
X3.1875Y-3.645
X3.25Y-3.7075
X3.25Y-3.7575
X3.25Y-3.805
X3.2598Y-3.1673
X3.26Y-3.19
X3.26Y-3.215
X3.26Y-3.25
X3.26Y-3.2975
X3.26Y-3.3925
X3.26Y-3.42
X3.26Y-3.455
X3.26Y-3.4823
X3.26Y-3.505
X3.26Y-3.5327
X3.26Y-3.57
X3.26Y-4.015
X3.26Y-4.0402
X3.2603Y-3.2727
X3.309Y-3.599
X3.31Y-4.0658
X3.33Y-3.14
X3.33Y-3.18
X3.33Y-3.2575
X3.33Y-3.3175
X3.33Y-3.4887
X3.3302Y-3.4449
X3.333Y-3.942
X3.34Y-3.1075
X3.3775Y-3.4525
X3.3776Y-3.572
X3.378Y-3.3343
X3.38Y-3.51
X3.3805Y-3.3906
X3.3805Y-3.5331
X3.3823Y-3.2198
X3.3825Y-3.195
X3.3825Y-3.27
X3.3825Y-3.2975
X3.387Y-3.1369
X3.405Y-3.7075
X3.405Y-3.7575
X3.4175Y-4.0675
X3.435Y-3.865
X3.46Y-4.0
X3.465Y-3.52
X3.4656Y-3.2075
X3.4656Y-3.285
X3.4677Y-3.175
X3.4775Y-3.8475
X3.4825Y-3.3925
X3.501Y-3.517
X3.5025Y-3.45
X3.5075Y-3.2125
X3.5075Y-3.2425
X3.5075Y-3.2775
X3.51Y-3.1075
X3.535Y-3.3425
X3.5375Y-3.4825
X3.545Y-3.445
X3.565Y-4.0
X3.57Y-4.07
X3.5725Y-3.225
X3.575Y-3.505
X3.5775Y-3.28
X3.6093Y-3.7507
X3.61Y-3.71
X3.61Y-3.79
X3.61Y-3.83
X3.61Y-3.87
X3.6125Y-3.2825
X3.6125Y-3.52
X3.615Y-4.0
X3.6391Y-3.73
X3.64Y-3.77
X3.64Y-3.81
X3.64Y-3.89
X3.6405Y-3.848
X3.654Y-3.597
X3.6708Y-3.949
X3.675Y-3.99
X3.6763Y-3.6481
X3.68Y-4.1325
X3.696Y-3.495
X3.6975Y-3.2275
X3.6975Y-3.4625
X3.7Y-3.2575
X3.7Y-3.31
X3.7Y-3.345
X3.7Y-3.546
X3.705Y-3.165
X3.705Y-3.1975
X3.705Y-4.025
X3.7075Y-4.065
X3.715Y-3.89
X3.7177Y-3.6525
X3.7375Y-3.625
X3.7375Y-3.9875
X3.75Y-3.735
X3.7575Y-3.6525
X3.7675Y-3.89
X3.775Y-3.9875
X3.7775Y-3.625
X3.7975Y-3.6525
X3.815Y-3.89
X3.815Y-3.9875
X3.82Y-4.105
X3.825Y-3.805
X3.8375Y-3.6525
X3.8394Y-3.9875
X3.8475Y-3.7275
X3.8478Y-3.1521
X3.855Y-3.6225
X3.8575Y-3.23
X3.87Y-4.19
X3.8749Y-4.0239
X3.875Y-3.6525
X3.875Y-3.9875
X3.88Y-3.8325
X3.8875Y-3.9125
X3.895Y-3.6225
X3.9Y-3.14
X3.91Y-4.045
X3.91Y-4.07
X3.912Y-3.9956
X3.915Y-3.2525
X3.915Y-3.65
X3.935Y-3.2925
X3.935Y-3.3875
X3.94Y-3.225
X3.94Y-3.9629
X3.945Y-4.0775
X3.952Y-3.498
X3.952Y-3.548
X3.975Y-3.71
X3.975Y-3.75
X3.975Y-3.79
X3.975Y-3.83
X3.975Y-3.87
X3.9751Y-3.9207
X3.9875Y-4.17
X3.995Y-4.04
X4.0Y-3.9044
X4.005Y-3.73
X4.005Y-3.77
X4.005Y-3.81
X4.0175Y-3.1075
X4.025Y-3.8875
X4.026Y-3.601
X4.0875Y-3.455
X4.089Y-3.887
X4.09Y-3.295
X4.099Y-4.058
X4.125Y-3.2175
X4.1375Y-3.0925
X4.145Y-3.945
X4.153Y-3.555
X4.153Y-3.595
X4.215Y-3.1975
X4.26Y-3.1775
X4.26Y-3.415
X4.318Y-3.1271
X4.3396Y-3.1725
X4.375Y-3.155
X4.4025Y-3.1925
X4.4025Y-3.44
X4.4025Y-3.865
X4.445Y-3.525
X4.455Y-4.188
X4.4975Y-3.44
X4.5075Y-3.9825
X4.51Y-3.8269
X4.5462Y-3.5263
X4.5925Y-3.755
X4.5925Y-3.9275
X4.6125Y-3.84
X4.645Y-3.1575
X4.6525Y-3.0925
X4.6525Y-3.25
X4.6525Y-3.8025
X4.6525Y-3.865
X4.6525Y-4.01
X4.655Y-3.015
X4.655Y-3.9325
X4.655Y-4.09
X4.71Y-3.3625
X4.71Y-3.4425
X4.7125Y-3.5325
T2
X3.216Y-3.9405
X3.216Y-4.1374
T3
X3.345Y-3.03
X3.445Y-3.03
T4
X3.1097Y-3.9011
X3.1097Y-4.1767
T0
M30
