<?xml version="1.0" standalone="no"?>
 <!DOCTYPE svg PUBLIC "-//W3C//DTD SVG 1.1//EN" 
 "http://www.w3.org/Graphics/SVG/1.1/DTD/svg11.dtd"> 
<svg xmlns="http://www.w3.org/2000/svg" version="1.1" 
    width="4.92252cm" height="7.4803cm" viewBox="0 0 19380 29450 ">
<title>SVG Picture created as mainboard-B_Paste.svg date 2019/11/01 14:40:51 </title>
  <desc>Picture generated by PCBNEW </desc>
<g style="fill:#000000; fill-opacity:1;stroke:#000000; stroke-opacity:1;
stroke-linecap:round; stroke-linejoin:round; "
 transform="translate(0 0) scale(1 1)">
</g>
<g style="fill:#000000; fill-opacity:0.0; 
stroke:#000000; stroke-width:-0.000393701; stroke-opacity:1; 
stroke-linecap:round; stroke-linejoin:round;">
<g >
</g>
<g >
</g>
<g >
</g>
<g >
</g>
<g >
</g>
<g >
</g>
<g >
</g>
<g >
</g>
<g >
</g>
<g style="fill:#000000; fill-opacity:0.0; 
stroke:#000000; stroke-width:-0.000393701; stroke-opacity:1; 
stroke-linecap:round; stroke-linejoin:round;">
</g>
<g style="fill:#000000; fill-opacity:0.0; 
stroke:#000000; stroke-width:0; stroke-opacity:1; 
stroke-linecap:round; stroke-linejoin:round;">
</g>
<g style="fill:#000000; fill-opacity:1.0; 
stroke:#000000; stroke-width:0; stroke-opacity:1; 
stroke-linecap:round; stroke-linejoin:round;">
<path style="fill:#000000; fill-opacity:1.0; 
stroke:#000000; stroke-width:0; stroke-opacity:1; 
stroke-linecap:round; stroke-linejoin:round;fill-rule:evenodd;"
d="M 1418,2488
1418,1819
2008,1819
2008,2488
1418,2488
Z" /> 
<path style="fill:#000000; fill-opacity:1.0; 
stroke:#000000; stroke-width:0; stroke-opacity:1; 
stroke-linecap:round; stroke-linejoin:round;fill-rule:evenodd;"
d="M 1418,8315
1418,7645
2008,7645
2008,8315
1418,8315
Z" /> 
<path style="fill:#000000; fill-opacity:1.0; 
stroke:#000000; stroke-width:0; stroke-opacity:1; 
stroke-linecap:round; stroke-linejoin:round;fill-rule:evenodd;"
d="M 3465,2852
3032,2852
3032,2754
3465,2754
3465,2852
Z" /> 
<path style="fill:#000000; fill-opacity:1.0; 
stroke:#000000; stroke-width:0; stroke-opacity:1; 
stroke-linecap:round; stroke-linejoin:round;fill-rule:evenodd;"
d="M 3465,3049
3032,3049
3032,2951
3465,2951
3465,3049
Z" /> 
<path style="fill:#000000; fill-opacity:1.0; 
stroke:#000000; stroke-width:0; stroke-opacity:1; 
stroke-linecap:round; stroke-linejoin:round;fill-rule:evenodd;"
d="M 3465,3246
3032,3246
3032,3147
3465,3147
3465,3246
Z" /> 
<path style="fill:#000000; fill-opacity:1.0; 
stroke:#000000; stroke-width:0; stroke-opacity:1; 
stroke-linecap:round; stroke-linejoin:round;fill-rule:evenodd;"
d="M 3465,3443
3032,3443
3032,3344
3465,3344
3465,3443
Z" /> 
<path style="fill:#000000; fill-opacity:1.0; 
stroke:#000000; stroke-width:0; stroke-opacity:1; 
stroke-linecap:round; stroke-linejoin:round;fill-rule:evenodd;"
d="M 3465,3640
3032,3640
3032,3541
3465,3541
3465,3640
Z" /> 
<path style="fill:#000000; fill-opacity:1.0; 
stroke:#000000; stroke-width:0; stroke-opacity:1; 
stroke-linecap:round; stroke-linejoin:round;fill-rule:evenodd;"
d="M 3465,3836
3032,3836
3032,3738
3465,3738
3465,3836
Z" /> 
<path style="fill:#000000; fill-opacity:1.0; 
stroke:#000000; stroke-width:0; stroke-opacity:1; 
stroke-linecap:round; stroke-linejoin:round;fill-rule:evenodd;"
d="M 3465,4033
3032,4033
3032,3935
3465,3935
3465,4033
Z" /> 
<path style="fill:#000000; fill-opacity:1.0; 
stroke:#000000; stroke-width:0; stroke-opacity:1; 
stroke-linecap:round; stroke-linejoin:round;fill-rule:evenodd;"
d="M 3465,4230
3032,4230
3032,4132
3465,4132
3465,4230
Z" /> 
<path style="fill:#000000; fill-opacity:1.0; 
stroke:#000000; stroke-width:0; stroke-opacity:1; 
stroke-linecap:round; stroke-linejoin:round;fill-rule:evenodd;"
d="M 3465,4427
3032,4427
3032,4329
3465,4329
3465,4427
Z" /> 
<path style="fill:#000000; fill-opacity:1.0; 
stroke:#000000; stroke-width:0; stroke-opacity:1; 
stroke-linecap:round; stroke-linejoin:round;fill-rule:evenodd;"
d="M 3465,4624
3032,4624
3032,4525
3465,4525
3465,4624
Z" /> 
<path style="fill:#000000; fill-opacity:1.0; 
stroke:#000000; stroke-width:0; stroke-opacity:1; 
stroke-linecap:round; stroke-linejoin:round;fill-rule:evenodd;"
d="M 3465,4821
3032,4821
3032,4722
3465,4722
3465,4821
Z" /> 
<path style="fill:#000000; fill-opacity:1.0; 
stroke:#000000; stroke-width:0; stroke-opacity:1; 
stroke-linecap:round; stroke-linejoin:round;fill-rule:evenodd;"
d="M 3465,5018
3032,5018
3032,4919
3465,4919
3465,5018
Z" /> 
<path style="fill:#000000; fill-opacity:1.0; 
stroke:#000000; stroke-width:0; stroke-opacity:1; 
stroke-linecap:round; stroke-linejoin:round;fill-rule:evenodd;"
d="M 3465,5214
3032,5214
3032,5116
3465,5116
3465,5214
Z" /> 
<path style="fill:#000000; fill-opacity:1.0; 
stroke:#000000; stroke-width:0; stroke-opacity:1; 
stroke-linecap:round; stroke-linejoin:round;fill-rule:evenodd;"
d="M 3465,5411
3032,5411
3032,5313
3465,5313
3465,5411
Z" /> 
<path style="fill:#000000; fill-opacity:1.0; 
stroke:#000000; stroke-width:0; stroke-opacity:1; 
stroke-linecap:round; stroke-linejoin:round;fill-rule:evenodd;"
d="M 3465,5608
3032,5608
3032,5510
3465,5510
3465,5608
Z" /> 
<path style="fill:#000000; fill-opacity:1.0; 
stroke:#000000; stroke-width:0; stroke-opacity:1; 
stroke-linecap:round; stroke-linejoin:round;fill-rule:evenodd;"
d="M 3465,5805
3032,5805
3032,5706
3465,5706
3465,5805
Z" /> 
<path style="fill:#000000; fill-opacity:1.0; 
stroke:#000000; stroke-width:0; stroke-opacity:1; 
stroke-linecap:round; stroke-linejoin:round;fill-rule:evenodd;"
d="M 3465,6002
3032,6002
3032,5903
3465,5903
3465,6002
Z" /> 
<path style="fill:#000000; fill-opacity:1.0; 
stroke:#000000; stroke-width:0; stroke-opacity:1; 
stroke-linecap:round; stroke-linejoin:round;fill-rule:evenodd;"
d="M 3465,6199
3032,6199
3032,6100
3465,6100
3465,6199
Z" /> 
<path style="fill:#000000; fill-opacity:1.0; 
stroke:#000000; stroke-width:0; stroke-opacity:1; 
stroke-linecap:round; stroke-linejoin:round;fill-rule:evenodd;"
d="M 3465,6395
3032,6395
3032,6297
3465,6297
3465,6395
Z" /> 
<path style="fill:#000000; fill-opacity:1.0; 
stroke:#000000; stroke-width:0; stroke-opacity:1; 
stroke-linecap:round; stroke-linejoin:round;fill-rule:evenodd;"
d="M 3465,6592
3032,6592
3032,6494
3465,6494
3465,6592
Z" /> 
<path style="fill:#000000; fill-opacity:1.0; 
stroke:#000000; stroke-width:0; stroke-opacity:1; 
stroke-linecap:round; stroke-linejoin:round;fill-rule:evenodd;"
d="M 3465,6789
3032,6789
3032,6691
3465,6691
3465,6789
Z" /> 
<path style="fill:#000000; fill-opacity:1.0; 
stroke:#000000; stroke-width:0; stroke-opacity:1; 
stroke-linecap:round; stroke-linejoin:round;fill-rule:evenodd;"
d="M 3465,6986
3032,6986
3032,6888
3465,6888
3465,6986
Z" /> 
<path style="fill:#000000; fill-opacity:1.0; 
stroke:#000000; stroke-width:0; stroke-opacity:1; 
stroke-linecap:round; stroke-linejoin:round;fill-rule:evenodd;"
d="M 3465,7183
3032,7183
3032,7084
3465,7084
3465,7183
Z" /> 
<path style="fill:#000000; fill-opacity:1.0; 
stroke:#000000; stroke-width:0; stroke-opacity:1; 
stroke-linecap:round; stroke-linejoin:round;fill-rule:evenodd;"
d="M 3465,7380
3032,7380
3032,7281
3465,7281
3465,7380
Z" /> 
</g>
<g >
</g>
<g >
</g>
<g >
</g>
<g >
</g>
<g >
</g>
<g >
</g>
<g style="fill:#000000; fill-opacity:1.0; 
stroke:#000000; stroke-width:0; stroke-opacity:1; 
stroke-linecap:round; stroke-linejoin:round;">
<path style="fill:#000000; fill-opacity:1.0; 
stroke:#000000; stroke-width:0; stroke-opacity:1; 
stroke-linecap:round; stroke-linejoin:round;fill-rule:evenodd;"
d="M 1457,12825
1457,12431
2047,12431
2047,12825
1457,12825
Z" /> 
<path style="fill:#000000; fill-opacity:1.0; 
stroke:#000000; stroke-width:0; stroke-opacity:1; 
stroke-linecap:round; stroke-linejoin:round;fill-rule:evenodd;"
d="M 1457,11565
1457,11171
2047,11171
2047,11565
1457,11565
Z" /> 
<path style="fill:#000000; fill-opacity:1.0; 
stroke:#000000; stroke-width:0; stroke-opacity:1; 
stroke-linecap:round; stroke-linejoin:round;fill-rule:evenodd;"
d="M 3386,12825
3386,12431
3976,12431
3976,12825
3386,12825
Z" /> 
<path style="fill:#000000; fill-opacity:1.0; 
stroke:#000000; stroke-width:0; stroke-opacity:1; 
stroke-linecap:round; stroke-linejoin:round;fill-rule:evenodd;"
d="M 3386,11565
3386,11171
3976,11171
3976,11565
3386,11565
Z" /> 
</g>
<g >
</g>
<g >
</g>
<g >
</g>
<g style="fill:#000000; fill-opacity:1.0; 
stroke:#000000; stroke-width:0; stroke-opacity:1; 
stroke-linecap:round; stroke-linejoin:round;">
<path style="fill:#000000; fill-opacity:1.0; 
stroke:#000000; stroke-width:0; stroke-opacity:1; 
stroke-linecap:round; stroke-linejoin:round;fill-rule:evenodd;"
d="M 5489,10222
5495,10223
5500,10224
5506,10226
5511,10229
5516,10232
5520,10235
5525,10239
5528,10243
5532,10248
5535,10252
5537,10258
5539,10263
5540,10268
5541,10274
5542,10280
5542,10416
5541,10421
5540,10427
5539,10432
5537,10438
5535,10443
5532,10448
5528,10452
5525,10457
5520,10461
5516,10464
5511,10467
5506,10469
5500,10471
5495,10473
5489,10473
5484,10474
5367,10474
5362,10473
5356,10473
5351,10471
5345,10469
5340,10467
5335,10464
5331,10461
5326,10457
5322,10452
5319,10448
5316,10443
5314,10438
5312,10432
5310,10427
5310,10421
5309,10416
5309,10280
5310,10274
5310,10268
5312,10263
5314,10258
5316,10252
5319,10248
5322,10243
5326,10239
5331,10235
5335,10232
5340,10229
5345,10226
5351,10224
5356,10223
5362,10222
5367,10222
5484,10222
5489,10222
Z" /> 
<path style="fill:#000000; fill-opacity:1.0; 
stroke:#000000; stroke-width:0; stroke-opacity:1; 
stroke-linecap:round; stroke-linejoin:round;fill-rule:evenodd;"
d="M 5871,10222
5877,10223
5882,10224
5888,10226
5893,10229
5898,10232
5902,10235
5906,10239
5910,10243
5914,10248
5917,10252
5919,10258
5921,10263
5922,10268
5923,10274
5923,10280
5923,10416
5923,10421
5922,10427
5921,10432
5919,10438
5917,10443
5914,10448
5910,10452
5906,10457
5902,10461
5898,10464
5893,10467
5888,10469
5882,10471
5877,10473
5871,10473
5865,10474
5749,10474
5744,10473
5738,10473
5732,10471
5727,10469
5722,10467
5717,10464
5712,10461
5708,10457
5704,10452
5701,10448
5698,10443
5696,10438
5694,10432
5692,10427
5691,10421
5691,10416
5691,10280
5691,10274
5692,10268
5694,10263
5696,10258
5698,10252
5701,10248
5704,10243
5708,10239
5712,10235
5717,10232
5722,10229
5727,10226
5732,10224
5738,10223
5744,10222
5749,10222
5865,10222
5871,10222
Z" /> 
</g>
<g >
</g>
<g >
</g>
<g >
</g>
<g >
</g>
<g >
</g>
<g >
</g>
<g style="fill:#000000; fill-opacity:1.0; 
stroke:#000000; stroke-width:0; stroke-opacity:1; 
stroke-linecap:round; stroke-linejoin:round;">
<path style="fill:#000000; fill-opacity:1.0; 
stroke:#000000; stroke-width:0; stroke-opacity:1; 
stroke-linecap:round; stroke-linejoin:round;fill-rule:evenodd;"
d="M 10223,7455
9810,7455
9810,7041
10223,7041
10223,7455
Z" /> 
<path style="fill:#000000; fill-opacity:1.0; 
stroke:#000000; stroke-width:0; stroke-opacity:1; 
stroke-linecap:round; stroke-linejoin:round;fill-rule:evenodd;"
d="M 9642,6205
9642,7091
9229,7091
9229,6205
9642,6205
Z" /> 
<path style="fill:#000000; fill-opacity:1.0; 
stroke:#000000; stroke-width:0; stroke-opacity:1; 
stroke-linecap:round; stroke-linejoin:round;fill-rule:evenodd;"
d="M 10804,6205
10804,7091
10390,7091
10390,6205
10804,6205
Z" /> 
</g>
<g >
</g>
<g style="fill:#000000; fill-opacity:1.0; 
stroke:#000000; stroke-width:0; stroke-opacity:1; 
stroke-linecap:round; stroke-linejoin:round;">
<path style="fill:#000000; fill-opacity:1.0; 
stroke:#000000; stroke-width:0; stroke-opacity:1; 
stroke-linecap:round; stroke-linejoin:round;fill-rule:evenodd;"
d="M 7865,10642
7871,10643
7876,10644
7882,10646
7887,10648
7892,10651
7896,10655
7900,10659
7904,10663
7908,10667
7911,10672
7913,10677
7915,10683
7916,10688
7917,10694
7917,10700
7917,10816
7917,10822
7916,10827
7915,10833
7913,10838
7911,10843
7908,10848
7904,10853
7900,10857
7896,10861
7892,10864
7887,10867
7882,10870
7876,10871
7871,10873
7865,10874
7859,10874
7723,10874
7718,10874
7712,10873
7707,10871
7701,10870
7696,10867
7691,10864
7687,10861
7682,10857
7679,10853
7675,10848
7672,10843
7670,10838
7668,10833
7667,10827
7666,10822
7665,10816
7665,10700
7666,10694
7667,10688
7668,10683
7670,10677
7672,10672
7675,10667
7679,10663
7682,10659
7687,10655
7691,10651
7696,10648
7701,10646
7707,10644
7712,10643
7718,10642
7723,10642
7859,10642
7865,10642
Z" /> 
<path style="fill:#000000; fill-opacity:1.0; 
stroke:#000000; stroke-width:0; stroke-opacity:1; 
stroke-linecap:round; stroke-linejoin:round;fill-rule:evenodd;"
d="M 7865,11024
7871,11025
7876,11026
7882,11028
7887,11030
7892,11033
7896,11037
7900,11041
7904,11045
7908,11049
7911,11054
7913,11059
7915,11065
7916,11070
7917,11076
7917,11082
7917,11198
7917,11203
7916,11209
7915,11215
7913,11220
7911,11225
7908,11230
7904,11235
7900,11239
7896,11243
7892,11246
7887,11249
7882,11251
7876,11253
7871,11255
7865,11256
7859,11256
7723,11256
7718,11256
7712,11255
7707,11253
7701,11251
7696,11249
7691,11246
7687,11243
7682,11239
7679,11235
7675,11230
7672,11225
7670,11220
7668,11215
7667,11209
7666,11203
7665,11198
7665,11082
7666,11076
7667,11070
7668,11065
7670,11059
7672,11054
7675,11049
7679,11045
7682,11041
7687,11037
7691,11033
7696,11030
7701,11028
7707,11026
7712,11025
7718,11024
7723,11024
7859,11024
7865,11024
Z" /> 
</g>
<g >
</g>
<g style="fill:#000000; fill-opacity:1.0; 
stroke:#000000; stroke-width:0; stroke-opacity:1; 
stroke-linecap:round; stroke-linejoin:round;">
<path style="fill:#000000; fill-opacity:1.0; 
stroke:#000000; stroke-width:0; stroke-opacity:1; 
stroke-linecap:round; stroke-linejoin:round;fill-rule:evenodd;"
d="M 8940,8748
8946,8749
8951,8750
8957,8752
8962,8754
8967,8757
8971,8761
8975,8765
8979,8769
8983,8773
8986,8778
8988,8783
8990,8789
8991,8794
8992,8800
8992,8806
8992,8922
8992,8927
8991,8933
8990,8939
8988,8944
8986,8949
8983,8954
8979,8959
8975,8963
8971,8967
8967,8970
8962,8973
8957,8975
8951,8977
8946,8979
8940,8980
8934,8980
8798,8980
8793,8980
8787,8979
8782,8977
8776,8975
8771,8973
8766,8970
8762,8967
8757,8963
8754,8959
8750,8954
8747,8949
8745,8944
8743,8939
8742,8933
8741,8927
8740,8922
8740,8806
8741,8800
8742,8794
8743,8789
8745,8783
8747,8778
8750,8773
8754,8769
8757,8765
8762,8761
8766,8757
8771,8754
8776,8752
8782,8750
8787,8749
8793,8748
8798,8748
8934,8748
8940,8748
Z" /> 
<path style="fill:#000000; fill-opacity:1.0; 
stroke:#000000; stroke-width:0; stroke-opacity:1; 
stroke-linecap:round; stroke-linejoin:round;fill-rule:evenodd;"
d="M 8940,8366
8946,8367
8951,8368
8957,8370
8962,8372
8967,8375
8971,8379
8975,8383
8979,8387
8983,8391
8986,8396
8988,8401
8990,8407
8991,8412
8992,8418
8992,8424
8992,8540
8992,8546
8991,8551
8990,8557
8988,8562
8986,8567
8983,8572
8979,8577
8975,8581
8971,8585
8967,8588
8962,8591
8957,8594
8951,8595
8946,8597
8940,8598
8934,8598
8798,8598
8793,8598
8787,8597
8782,8595
8776,8594
8771,8591
8766,8588
8762,8585
8757,8581
8754,8577
8750,8572
8747,8567
8745,8562
8743,8557
8742,8551
8741,8546
8740,8540
8740,8424
8741,8418
8742,8412
8743,8407
8745,8401
8747,8396
8750,8391
8754,8387
8757,8383
8762,8379
8766,8375
8771,8372
8776,8370
8782,8368
8787,8367
8793,8366
8798,8366
8934,8366
8940,8366
Z" /> 
</g>
<g >
</g>
<g >
</g>
<g >
</g>
<g style="fill:#000000; fill-opacity:1.0; 
stroke:#000000; stroke-width:0; stroke-opacity:1; 
stroke-linecap:round; stroke-linejoin:round;">
<path style="fill:#000000; fill-opacity:1.0; 
stroke:#000000; stroke-width:0; stroke-opacity:1; 
stroke-linecap:round; stroke-linejoin:round;fill-rule:evenodd;"
d="M 5192,5963
6161,5963
6161,6872
5192,6872
5192,5963
Z" /> 
<path style="fill:#000000; fill-opacity:1.0; 
stroke:#000000; stroke-width:0; stroke-opacity:1; 
stroke-linecap:round; stroke-linejoin:round;fill-rule:evenodd;"
d="M 6543,7225
7123,7225
7123,7402
6543,7402
6543,7225
Z" /> 
<path style="fill:#000000; fill-opacity:1.0; 
stroke:#000000; stroke-width:0; stroke-opacity:1; 
stroke-linecap:round; stroke-linejoin:round;fill-rule:evenodd;"
d="M 6543,6969
7123,6969
7123,7146
6543,7146
6543,6969
Z" /> 
<path style="fill:#000000; fill-opacity:1.0; 
stroke:#000000; stroke-width:0; stroke-opacity:1; 
stroke-linecap:round; stroke-linejoin:round;fill-rule:evenodd;"
d="M 6543,6713
7123,6713
7123,6890
6543,6890
6543,6713
Z" /> 
<path style="fill:#000000; fill-opacity:1.0; 
stroke:#000000; stroke-width:0; stroke-opacity:1; 
stroke-linecap:round; stroke-linejoin:round;fill-rule:evenodd;"
d="M 6543,6457
7123,6457
7123,6634
6543,6634
6543,6457
Z" /> 
<path style="fill:#000000; fill-opacity:1.0; 
stroke:#000000; stroke-width:0; stroke-opacity:1; 
stroke-linecap:round; stroke-linejoin:round;fill-rule:evenodd;"
d="M 6543,6201
7123,6201
7123,6378
6543,6378
6543,6201
Z" /> 
<path style="fill:#000000; fill-opacity:1.0; 
stroke:#000000; stroke-width:0; stroke-opacity:1; 
stroke-linecap:round; stroke-linejoin:round;fill-rule:evenodd;"
d="M 6543,5945
7123,5945
7123,6122
6543,6122
6543,5945
Z" /> 
<path style="fill:#000000; fill-opacity:1.0; 
stroke:#000000; stroke-width:0; stroke-opacity:1; 
stroke-linecap:round; stroke-linejoin:round;fill-rule:evenodd;"
d="M 6543,5689
7123,5689
7123,5867
6543,5867
6543,5689
Z" /> 
<path style="fill:#000000; fill-opacity:1.0; 
stroke:#000000; stroke-width:0; stroke-opacity:1; 
stroke-linecap:round; stroke-linejoin:round;fill-rule:evenodd;"
d="M 6543,5433
7123,5433
7123,5611
6543,5611
6543,5433
Z" /> 
<path style="fill:#000000; fill-opacity:1.0; 
stroke:#000000; stroke-width:0; stroke-opacity:1; 
stroke-linecap:round; stroke-linejoin:round;fill-rule:evenodd;"
d="M 4229,5433
4810,5433
4810,5611
4229,5611
4229,5433
Z" /> 
<path style="fill:#000000; fill-opacity:1.0; 
stroke:#000000; stroke-width:0; stroke-opacity:1; 
stroke-linecap:round; stroke-linejoin:round;fill-rule:evenodd;"
d="M 4229,5689
4810,5689
4810,5867
4229,5867
4229,5689
Z" /> 
<path style="fill:#000000; fill-opacity:1.0; 
stroke:#000000; stroke-width:0; stroke-opacity:1; 
stroke-linecap:round; stroke-linejoin:round;fill-rule:evenodd;"
d="M 4229,5945
4810,5945
4810,6122
4229,6122
4229,5945
Z" /> 
<path style="fill:#000000; fill-opacity:1.0; 
stroke:#000000; stroke-width:0; stroke-opacity:1; 
stroke-linecap:round; stroke-linejoin:round;fill-rule:evenodd;"
d="M 4229,6201
4810,6201
4810,6378
4229,6378
4229,6201
Z" /> 
<path style="fill:#000000; fill-opacity:1.0; 
stroke:#000000; stroke-width:0; stroke-opacity:1; 
stroke-linecap:round; stroke-linejoin:round;fill-rule:evenodd;"
d="M 4229,6457
4810,6457
4810,6634
4229,6634
4229,6457
Z" /> 
<path style="fill:#000000; fill-opacity:1.0; 
stroke:#000000; stroke-width:0; stroke-opacity:1; 
stroke-linecap:round; stroke-linejoin:round;fill-rule:evenodd;"
d="M 4229,6713
4810,6713
4810,6890
4229,6890
4229,6713
Z" /> 
<path style="fill:#000000; fill-opacity:1.0; 
stroke:#000000; stroke-width:0; stroke-opacity:1; 
stroke-linecap:round; stroke-linejoin:round;fill-rule:evenodd;"
d="M 4229,6969
4810,6969
4810,7146
4229,7146
4229,6969
Z" /> 
<path style="fill:#000000; fill-opacity:1.0; 
stroke:#000000; stroke-width:0; stroke-opacity:1; 
stroke-linecap:round; stroke-linejoin:round;fill-rule:evenodd;"
d="M 4229,7225
4810,7225
4810,7402
4229,7402
4229,7225
Z" /> 
</g>
<g >
</g>
<g style="fill:#000000; fill-opacity:1.0; 
stroke:#000000; stroke-width:0; stroke-opacity:1; 
stroke-linecap:round; stroke-linejoin:round;">
<path style="fill:#000000; fill-opacity:1.0; 
stroke:#000000; stroke-width:0; stroke-opacity:1; 
stroke-linecap:round; stroke-linejoin:round;fill-rule:evenodd;"
d="M 5212,3603
6181,3603
6181,4512
5212,4512
5212,3603
Z" /> 
<path style="fill:#000000; fill-opacity:1.0; 
stroke:#000000; stroke-width:0; stroke-opacity:1; 
stroke-linecap:round; stroke-linejoin:round;fill-rule:evenodd;"
d="M 6563,4865
7143,4865
7143,5042
6563,5042
6563,4865
Z" /> 
<path style="fill:#000000; fill-opacity:1.0; 
stroke:#000000; stroke-width:0; stroke-opacity:1; 
stroke-linecap:round; stroke-linejoin:round;fill-rule:evenodd;"
d="M 6563,4609
7143,4609
7143,4786
6563,4786
6563,4609
Z" /> 
<path style="fill:#000000; fill-opacity:1.0; 
stroke:#000000; stroke-width:0; stroke-opacity:1; 
stroke-linecap:round; stroke-linejoin:round;fill-rule:evenodd;"
d="M 6563,4353
7143,4353
7143,4530
6563,4530
6563,4353
Z" /> 
<path style="fill:#000000; fill-opacity:1.0; 
stroke:#000000; stroke-width:0; stroke-opacity:1; 
stroke-linecap:round; stroke-linejoin:round;fill-rule:evenodd;"
d="M 6563,4097
7143,4097
7143,4274
6563,4274
6563,4097
Z" /> 
<path style="fill:#000000; fill-opacity:1.0; 
stroke:#000000; stroke-width:0; stroke-opacity:1; 
stroke-linecap:round; stroke-linejoin:round;fill-rule:evenodd;"
d="M 6563,3841
7143,3841
7143,4018
6563,4018
6563,3841
Z" /> 
<path style="fill:#000000; fill-opacity:1.0; 
stroke:#000000; stroke-width:0; stroke-opacity:1; 
stroke-linecap:round; stroke-linejoin:round;fill-rule:evenodd;"
d="M 6563,3585
7143,3585
7143,3762
6563,3762
6563,3585
Z" /> 
<path style="fill:#000000; fill-opacity:1.0; 
stroke:#000000; stroke-width:0; stroke-opacity:1; 
stroke-linecap:round; stroke-linejoin:round;fill-rule:evenodd;"
d="M 6563,3329
7143,3329
7143,3507
6563,3507
6563,3329
Z" /> 
<path style="fill:#000000; fill-opacity:1.0; 
stroke:#000000; stroke-width:0; stroke-opacity:1; 
stroke-linecap:round; stroke-linejoin:round;fill-rule:evenodd;"
d="M 6563,3073
7143,3073
7143,3251
6563,3251
6563,3073
Z" /> 
<path style="fill:#000000; fill-opacity:1.0; 
stroke:#000000; stroke-width:0; stroke-opacity:1; 
stroke-linecap:round; stroke-linejoin:round;fill-rule:evenodd;"
d="M 4249,3073
4830,3073
4830,3251
4249,3251
4249,3073
Z" /> 
<path style="fill:#000000; fill-opacity:1.0; 
stroke:#000000; stroke-width:0; stroke-opacity:1; 
stroke-linecap:round; stroke-linejoin:round;fill-rule:evenodd;"
d="M 4249,3329
4830,3329
4830,3507
4249,3507
4249,3329
Z" /> 
<path style="fill:#000000; fill-opacity:1.0; 
stroke:#000000; stroke-width:0; stroke-opacity:1; 
stroke-linecap:round; stroke-linejoin:round;fill-rule:evenodd;"
d="M 4249,3585
4830,3585
4830,3762
4249,3762
4249,3585
Z" /> 
<path style="fill:#000000; fill-opacity:1.0; 
stroke:#000000; stroke-width:0; stroke-opacity:1; 
stroke-linecap:round; stroke-linejoin:round;fill-rule:evenodd;"
d="M 4249,3841
4830,3841
4830,4018
4249,4018
4249,3841
Z" /> 
<path style="fill:#000000; fill-opacity:1.0; 
stroke:#000000; stroke-width:0; stroke-opacity:1; 
stroke-linecap:round; stroke-linejoin:round;fill-rule:evenodd;"
d="M 4249,4097
4830,4097
4830,4274
4249,4274
4249,4097
Z" /> 
<path style="fill:#000000; fill-opacity:1.0; 
stroke:#000000; stroke-width:0; stroke-opacity:1; 
stroke-linecap:round; stroke-linejoin:round;fill-rule:evenodd;"
d="M 4249,4353
4830,4353
4830,4530
4249,4530
4249,4353
Z" /> 
<path style="fill:#000000; fill-opacity:1.0; 
stroke:#000000; stroke-width:0; stroke-opacity:1; 
stroke-linecap:round; stroke-linejoin:round;fill-rule:evenodd;"
d="M 4249,4609
4830,4609
4830,4786
4249,4786
4249,4609
Z" /> 
<path style="fill:#000000; fill-opacity:1.0; 
stroke:#000000; stroke-width:0; stroke-opacity:1; 
stroke-linecap:round; stroke-linejoin:round;fill-rule:evenodd;"
d="M 4249,4865
4830,4865
4830,5042
4249,5042
4249,4865
Z" /> 
</g>
<g >
</g>
<g >
</g>
<g style="fill:#000000; fill-opacity:1.0; 
stroke:#000000; stroke-width:0; stroke-opacity:1; 
stroke-linecap:round; stroke-linejoin:round;">
<path style="fill:#000000; fill-opacity:1.0; 
stroke:#000000; stroke-width:0; stroke-opacity:1; 
stroke-linecap:round; stroke-linejoin:round;fill-rule:evenodd;"
d="M 11885,1545
11885,1939
11177,1939
11177,1545
11885,1545
Z" /> 
<path style="fill:#000000; fill-opacity:1.0; 
stroke:#000000; stroke-width:0; stroke-opacity:1; 
stroke-linecap:round; stroke-linejoin:round;fill-rule:evenodd;"
d="M 11885,2332
11885,2726
11177,2726
11177,2332
11885,2332
Z" /> 
<path style="fill:#000000; fill-opacity:1.0; 
stroke:#000000; stroke-width:0; stroke-opacity:1; 
stroke-linecap:round; stroke-linejoin:round;fill-rule:evenodd;"
d="M 11885,3120
11885,3513
11177,3513
11177,3120
11885,3120
Z" /> 
<path style="fill:#000000; fill-opacity:1.0; 
stroke:#000000; stroke-width:0; stroke-opacity:1; 
stroke-linecap:round; stroke-linejoin:round;fill-rule:evenodd;"
d="M 11885,3907
11885,4301
11177,4301
11177,3907
11885,3907
Z" /> 
<path style="fill:#000000; fill-opacity:1.0; 
stroke:#000000; stroke-width:0; stroke-opacity:1; 
stroke-linecap:round; stroke-linejoin:round;fill-rule:evenodd;"
d="M 11885,4695
11885,5088
11177,5088
11177,4695
11885,4695
Z" /> 
<path style="fill:#000000; fill-opacity:1.0; 
stroke:#000000; stroke-width:0; stroke-opacity:1; 
stroke-linecap:round; stroke-linejoin:round;fill-rule:evenodd;"
d="M 11885,5482
11885,5876
11177,5876
11177,5482
11885,5482
Z" /> 
<path style="fill:#000000; fill-opacity:1.0; 
stroke:#000000; stroke-width:0; stroke-opacity:1; 
stroke-linecap:round; stroke-linejoin:round;fill-rule:evenodd;"
d="M 11885,6269
11885,6663
11177,6663
11177,6269
11885,6269
Z" /> 
<path style="fill:#000000; fill-opacity:1.0; 
stroke:#000000; stroke-width:0; stroke-opacity:1; 
stroke-linecap:round; stroke-linejoin:round;fill-rule:evenodd;"
d="M 11885,7057
11885,7450
11177,7450
11177,7057
11885,7057
Z" /> 
<path style="fill:#000000; fill-opacity:1.0; 
stroke:#000000; stroke-width:0; stroke-opacity:1; 
stroke-linecap:round; stroke-linejoin:round;fill-rule:evenodd;"
d="M 18106,7057
18106,7450
17397,7450
17397,7057
18106,7057
Z" /> 
<path style="fill:#000000; fill-opacity:1.0; 
stroke:#000000; stroke-width:0; stroke-opacity:1; 
stroke-linecap:round; stroke-linejoin:round;fill-rule:evenodd;"
d="M 18106,6269
18106,6663
17397,6663
17397,6269
18106,6269
Z" /> 
<path style="fill:#000000; fill-opacity:1.0; 
stroke:#000000; stroke-width:0; stroke-opacity:1; 
stroke-linecap:round; stroke-linejoin:round;fill-rule:evenodd;"
d="M 18106,5482
18106,5876
17397,5876
17397,5482
18106,5482
Z" /> 
<path style="fill:#000000; fill-opacity:1.0; 
stroke:#000000; stroke-width:0; stroke-opacity:1; 
stroke-linecap:round; stroke-linejoin:round;fill-rule:evenodd;"
d="M 18106,4695
18106,5088
17397,5088
17397,4695
18106,4695
Z" /> 
<path style="fill:#000000; fill-opacity:1.0; 
stroke:#000000; stroke-width:0; stroke-opacity:1; 
stroke-linecap:round; stroke-linejoin:round;fill-rule:evenodd;"
d="M 18106,3907
18106,4301
17397,4301
17397,3907
18106,3907
Z" /> 
<path style="fill:#000000; fill-opacity:1.0; 
stroke:#000000; stroke-width:0; stroke-opacity:1; 
stroke-linecap:round; stroke-linejoin:round;fill-rule:evenodd;"
d="M 18106,3120
18106,3513
17397,3513
17397,3120
18106,3120
Z" /> 
<path style="fill:#000000; fill-opacity:1.0; 
stroke:#000000; stroke-width:0; stroke-opacity:1; 
stroke-linecap:round; stroke-linejoin:round;fill-rule:evenodd;"
d="M 18106,2332
18106,2726
17397,2726
17397,2332
18106,2332
Z" /> 
<path style="fill:#000000; fill-opacity:1.0; 
stroke:#000000; stroke-width:0; stroke-opacity:1; 
stroke-linecap:round; stroke-linejoin:round;fill-rule:evenodd;"
d="M 18106,1545
18106,1939
17397,1939
17397,1545
18106,1545
Z" /> 
</g>
<g >
</g>
<g >
</g>
<g >
</g>
<g style="fill:#000000; fill-opacity:1.0; 
stroke:#000000; stroke-width:0; stroke-opacity:1; 
stroke-linecap:round; stroke-linejoin:round;">
<path style="fill:#000000; fill-opacity:1.0; 
stroke:#000000; stroke-width:0; stroke-opacity:1; 
stroke-linecap:round; stroke-linejoin:round;fill-rule:evenodd;"
d="M 5356,12767
5362,12768
5368,12770
5373,12772
5378,12774
5383,12777
5388,12780
5392,12784
5396,12789
5400,12793
5403,12798
5405,12803
5407,12809
5408,12815
5409,12820
5409,12826
5409,13397
5409,13403
5408,13408
5407,13414
5405,13420
5403,13425
5400,13430
5396,13434
5392,13439
5388,13443
5383,13446
5378,13449
5373,13452
5368,13453
5362,13455
5356,13456
5350,13456
5232,13456
5227,13456
5221,13455
5215,13453
5210,13452
5204,13449
5200,13446
5195,13443
5191,13439
5187,13434
5183,13430
5180,13425
5178,13420
5176,13414
5174,13408
5174,13403
5173,13397
5173,12826
5174,12820
5174,12815
5176,12809
5178,12803
5180,12798
5183,12793
5187,12789
5191,12784
5195,12780
5200,12777
5204,12774
5210,12772
5215,12770
5221,12768
5227,12767
5232,12767
5350,12767
5356,12767
Z" /> 
<path style="fill:#000000; fill-opacity:1.0; 
stroke:#000000; stroke-width:0; stroke-opacity:1; 
stroke-linecap:round; stroke-linejoin:round;fill-rule:evenodd;"
d="M 5856,12767
5862,12768
5868,12770
5873,12772
5878,12774
5883,12777
5888,12780
5892,12784
5896,12789
5900,12793
5903,12798
5905,12803
5907,12809
5908,12815
5909,12820
5909,12826
5909,13397
5909,13403
5908,13408
5907,13414
5905,13420
5903,13425
5900,13430
5896,13434
5892,13439
5888,13443
5883,13446
5878,13449
5873,13452
5868,13453
5862,13455
5856,13456
5850,13456
5732,13456
5727,13456
5721,13455
5715,13453
5710,13452
5704,13449
5700,13446
5695,13443
5691,13439
5687,13434
5683,13430
5680,13425
5678,13420
5676,13414
5674,13408
5674,13403
5673,13397
5673,12826
5674,12820
5674,12815
5676,12809
5678,12803
5680,12798
5683,12793
5687,12789
5691,12784
5695,12780
5700,12777
5704,12774
5710,12772
5715,12770
5721,12768
5727,12767
5732,12767
5850,12767
5856,12767
Z" /> 
<path style="fill:#000000; fill-opacity:1.0; 
stroke:#000000; stroke-width:0; stroke-opacity:1; 
stroke-linecap:round; stroke-linejoin:round;fill-rule:evenodd;"
d="M 6356,12767
6362,12768
6368,12770
6373,12772
6378,12774
6383,12777
6388,12780
6392,12784
6396,12789
6400,12793
6403,12798
6405,12803
6407,12809
6408,12815
6409,12820
6409,12826
6409,13397
6409,13403
6408,13408
6407,13414
6405,13420
6403,13425
6400,13430
6396,13434
6392,13439
6388,13443
6383,13446
6378,13449
6373,13452
6368,13453
6362,13455
6356,13456
6350,13456
6232,13456
6227,13456
6221,13455
6215,13453
6210,13452
6204,13449
6200,13446
6195,13443
6191,13439
6187,13434
6183,13430
6180,13425
6178,13420
6176,13414
6174,13408
6174,13403
6173,13397
6173,12826
6174,12820
6174,12815
6176,12809
6178,12803
6180,12798
6183,12793
6187,12789
6191,12784
6195,12780
6200,12777
6204,12774
6210,12772
6215,12770
6221,12768
6227,12767
6232,12767
6350,12767
6356,12767
Z" /> 
<path style="fill:#000000; fill-opacity:1.0; 
stroke:#000000; stroke-width:0; stroke-opacity:1; 
stroke-linecap:round; stroke-linejoin:round;fill-rule:evenodd;"
d="M 6856,12767
6862,12768
6868,12770
6873,12772
6878,12774
6883,12777
6888,12780
6892,12784
6896,12789
6900,12793
6903,12798
6905,12803
6907,12809
6908,12815
6909,12820
6909,12826
6909,13397
6909,13403
6908,13408
6907,13414
6905,13420
6903,13425
6900,13430
6896,13434
6892,13439
6888,13443
6883,13446
6878,13449
6873,13452
6868,13453
6862,13455
6856,13456
6850,13456
6732,13456
6727,13456
6721,13455
6715,13453
6710,13452
6704,13449
6700,13446
6695,13443
6691,13439
6687,13434
6683,13430
6680,13425
6678,13420
6676,13414
6674,13408
6674,13403
6673,13397
6673,12826
6674,12820
6674,12815
6676,12809
6678,12803
6680,12798
6683,12793
6687,12789
6691,12784
6695,12780
6700,12777
6704,12774
6710,12772
6715,12770
6721,12768
6727,12767
6732,12767
6850,12767
6856,12767
Z" /> 
<path style="fill:#000000; fill-opacity:1.0; 
stroke:#000000; stroke-width:0; stroke-opacity:1; 
stroke-linecap:round; stroke-linejoin:round;fill-rule:evenodd;"
d="M 6856,10740
6862,10741
6868,10742
6873,10744
6878,10746
6883,10749
6888,10753
6892,10757
6896,10761
6900,10766
6903,10771
6905,10776
6907,10781
6908,10787
6909,10793
6909,10799
6909,11369
6909,11375
6908,11381
6907,11387
6905,11392
6903,11397
6900,11402
6896,11407
6892,11411
6888,11415
6883,11418
6878,11421
6873,11424
6868,11426
6862,11427
6856,11428
6850,11428
6732,11428
6727,11428
6721,11427
6715,11426
6710,11424
6704,11421
6700,11418
6695,11415
6691,11411
6687,11407
6683,11402
6680,11397
6678,11392
6676,11387
6674,11381
6674,11375
6673,11369
6673,10799
6674,10793
6674,10787
6676,10781
6678,10776
6680,10771
6683,10766
6687,10761
6691,10757
6695,10753
6700,10749
6704,10746
6710,10744
6715,10742
6721,10741
6727,10740
6732,10739
6850,10739
6856,10740
Z" /> 
<path style="fill:#000000; fill-opacity:1.0; 
stroke:#000000; stroke-width:0; stroke-opacity:1; 
stroke-linecap:round; stroke-linejoin:round;fill-rule:evenodd;"
d="M 6356,10740
6362,10741
6368,10742
6373,10744
6378,10746
6383,10749
6388,10753
6392,10757
6396,10761
6400,10766
6403,10771
6405,10776
6407,10781
6408,10787
6409,10793
6409,10799
6409,11369
6409,11375
6408,11381
6407,11387
6405,11392
6403,11397
6400,11402
6396,11407
6392,11411
6388,11415
6383,11418
6378,11421
6373,11424
6368,11426
6362,11427
6356,11428
6350,11428
6232,11428
6227,11428
6221,11427
6215,11426
6210,11424
6204,11421
6200,11418
6195,11415
6191,11411
6187,11407
6183,11402
6180,11397
6178,11392
6176,11387
6174,11381
6174,11375
6173,11369
6173,10799
6174,10793
6174,10787
6176,10781
6178,10776
6180,10771
6183,10766
6187,10761
6191,10757
6195,10753
6200,10749
6204,10746
6210,10744
6215,10742
6221,10741
6227,10740
6232,10739
6350,10739
6356,10740
Z" /> 
<path style="fill:#000000; fill-opacity:1.0; 
stroke:#000000; stroke-width:0; stroke-opacity:1; 
stroke-linecap:round; stroke-linejoin:round;fill-rule:evenodd;"
d="M 5856,10740
5862,10741
5868,10742
5873,10744
5878,10746
5883,10749
5888,10753
5892,10757
5896,10761
5900,10766
5903,10771
5905,10776
5907,10781
5908,10787
5909,10793
5909,10799
5909,11369
5909,11375
5908,11381
5907,11387
5905,11392
5903,11397
5900,11402
5896,11407
5892,11411
5888,11415
5883,11418
5878,11421
5873,11424
5868,11426
5862,11427
5856,11428
5850,11428
5732,11428
5727,11428
5721,11427
5715,11426
5710,11424
5704,11421
5700,11418
5695,11415
5691,11411
5687,11407
5683,11402
5680,11397
5678,11392
5676,11387
5674,11381
5674,11375
5673,11369
5673,10799
5674,10793
5674,10787
5676,10781
5678,10776
5680,10771
5683,10766
5687,10761
5691,10757
5695,10753
5700,10749
5704,10746
5710,10744
5715,10742
5721,10741
5727,10740
5732,10739
5850,10739
5856,10740
Z" /> 
<path style="fill:#000000; fill-opacity:1.0; 
stroke:#000000; stroke-width:0; stroke-opacity:1; 
stroke-linecap:round; stroke-linejoin:round;fill-rule:evenodd;"
d="M 5356,10740
5362,10741
5368,10742
5373,10744
5378,10746
5383,10749
5388,10753
5392,10757
5396,10761
5400,10766
5403,10771
5405,10776
5407,10781
5408,10787
5409,10793
5409,10799
5409,11369
5409,11375
5408,11381
5407,11387
5405,11392
5403,11397
5400,11402
5396,11407
5392,11411
5388,11415
5383,11418
5378,11421
5373,11424
5368,11426
5362,11427
5356,11428
5350,11428
5232,11428
5227,11428
5221,11427
5215,11426
5210,11424
5204,11421
5200,11418
5195,11415
5191,11411
5187,11407
5183,11402
5180,11397
5178,11392
5176,11387
5174,11381
5174,11375
5173,11369
5173,10799
5174,10793
5174,10787
5176,10781
5178,10776
5180,10771
5183,10766
5187,10761
5191,10757
5195,10753
5200,10749
5204,10746
5210,10744
5215,10742
5221,10741
5227,10740
5232,10739
5350,10739
5356,10740
Z" /> 
</g>
<g >
</g>
<g style="fill:#000000; fill-opacity:1.0; 
stroke:#000000; stroke-width:0; stroke-opacity:1; 
stroke-linecap:round; stroke-linejoin:round;">
<path style="fill:#000000; fill-opacity:1.0; 
stroke:#000000; stroke-width:0; stroke-opacity:1; 
stroke-linecap:round; stroke-linejoin:round;fill-rule:evenodd;"
d="M 4790,12998
4796,12999
4801,13000
4807,13002
4812,13004
4817,13007
4821,13011
4825,13015
4829,13019
4833,13023
4836,13028
4838,13033
4840,13039
4841,13044
4842,13050
4842,13056
4842,13172
4842,13177
4841,13183
4840,13189
4838,13194
4836,13199
4833,13204
4829,13209
4825,13213
4821,13217
4817,13220
4812,13223
4807,13225
4801,13227
4796,13229
4790,13230
4784,13230
4648,13230
4643,13230
4637,13229
4632,13227
4626,13225
4621,13223
4616,13220
4612,13217
4607,13213
4604,13209
4600,13204
4597,13199
4595,13194
4593,13189
4592,13183
4591,13177
4590,13172
4590,13056
4591,13050
4592,13044
4593,13039
4595,13033
4597,13028
4600,13023
4604,13019
4607,13015
4612,13011
4616,13007
4621,13004
4626,13002
4632,13000
4637,12999
4643,12998
4648,12998
4784,12998
4790,12998
Z" /> 
<path style="fill:#000000; fill-opacity:1.0; 
stroke:#000000; stroke-width:0; stroke-opacity:1; 
stroke-linecap:round; stroke-linejoin:round;fill-rule:evenodd;"
d="M 4790,12616
4796,12617
4801,12618
4807,12620
4812,12622
4817,12625
4821,12629
4825,12633
4829,12637
4833,12641
4836,12646
4838,12651
4840,12657
4841,12662
4842,12668
4842,12674
4842,12790
4842,12796
4841,12801
4840,12807
4838,12812
4836,12817
4833,12822
4829,12827
4825,12831
4821,12835
4817,12838
4812,12841
4807,12844
4801,12845
4796,12847
4790,12848
4784,12848
4648,12848
4643,12848
4637,12847
4632,12845
4626,12844
4621,12841
4616,12838
4612,12835
4607,12831
4604,12827
4600,12822
4597,12817
4595,12812
4593,12807
4592,12801
4591,12796
4590,12790
4590,12674
4591,12668
4592,12662
4593,12657
4595,12651
4597,12646
4600,12641
4604,12637
4607,12633
4612,12629
4616,12625
4621,12622
4626,12620
4632,12618
4637,12617
4643,12616
4648,12616
4784,12616
4790,12616
Z" /> 
</g>
<g >
</g>
<g >
</g>
<g style="fill:#000000; fill-opacity:1.0; 
stroke:#000000; stroke-width:0; stroke-opacity:1; 
stroke-linecap:round; stroke-linejoin:round;">
<path style="fill:#000000; fill-opacity:1.0; 
stroke:#000000; stroke-width:0; stroke-opacity:1; 
stroke-linecap:round; stroke-linejoin:round;fill-rule:evenodd;"
d="M 10900,8508
11353,8508
11353,9098
10900,9098
10900,8508
Z" /> 
<path style="fill:#000000; fill-opacity:1.0; 
stroke:#000000; stroke-width:0; stroke-opacity:1; 
stroke-linecap:round; stroke-linejoin:round;fill-rule:evenodd;"
d="M 10900,11571
11353,11571
11353,12161
10900,12161
10900,11571
Z" /> 
<path style="fill:#000000; fill-opacity:1.0; 
stroke:#000000; stroke-width:0; stroke-opacity:1; 
stroke-linecap:round; stroke-linejoin:round;fill-rule:evenodd;"
d="M 11006,13787
11006,13334
11872,13334
11872,13787
11006,13787
Z" /> 
<path style="fill:#000000; fill-opacity:1.0; 
stroke:#000000; stroke-width:0; stroke-opacity:1; 
stroke-linecap:round; stroke-linejoin:round;fill-rule:evenodd;"
d="M 11333,8323
11333,7866
11806,7866
11806,8323
11333,8323
Z" /> 
<path style="fill:#000000; fill-opacity:1.0; 
stroke:#000000; stroke-width:0; stroke-opacity:1; 
stroke-linecap:round; stroke-linejoin:round;fill-rule:evenodd;"
d="M 14867,8323
14867,7866
15359,7866
15359,8323
14867,8323
Z" /> 
<path style="fill:#000000; fill-opacity:1.0; 
stroke:#000000; stroke-width:0; stroke-opacity:1; 
stroke-linecap:round; stroke-linejoin:round;fill-rule:evenodd;"
d="M 15526,8161
15526,7708
16392,7708
16392,8161
15526,8161
Z" /> 
<path style="fill:#000000; fill-opacity:1.0; 
stroke:#000000; stroke-width:0; stroke-opacity:1; 
stroke-linecap:round; stroke-linejoin:round;fill-rule:evenodd;"
d="M 15408,13787
15408,13413
16392,13413
16392,13787
15408,13787
Z" /> 
<path style="fill:#000000; fill-opacity:1.0; 
stroke:#000000; stroke-width:0; stroke-opacity:1; 
stroke-linecap:round; stroke-linejoin:round;fill-rule:evenodd;"
d="M 15904,9015
15904,8700
16392,8700
16392,9015
15904,9015
Z" /> 
<path style="fill:#000000; fill-opacity:1.0; 
stroke:#000000; stroke-width:0; stroke-opacity:1; 
stroke-linecap:round; stroke-linejoin:round;fill-rule:evenodd;"
d="M 15904,9449
15904,9134
16392,9134
16392,9449
15904,9449
Z" /> 
<path style="fill:#000000; fill-opacity:1.0; 
stroke:#000000; stroke-width:0; stroke-opacity:1; 
stroke-linecap:round; stroke-linejoin:round;fill-rule:evenodd;"
d="M 15904,9882
15904,9567
16392,9567
16392,9882
15904,9882
Z" /> 
<path style="fill:#000000; fill-opacity:1.0; 
stroke:#000000; stroke-width:0; stroke-opacity:1; 
stroke-linecap:round; stroke-linejoin:round;fill-rule:evenodd;"
d="M 15904,10315
15904,10000
16392,10000
16392,10315
15904,10315
Z" /> 
<path style="fill:#000000; fill-opacity:1.0; 
stroke:#000000; stroke-width:0; stroke-opacity:1; 
stroke-linecap:round; stroke-linejoin:round;fill-rule:evenodd;"
d="M 15904,10748
15904,10433
16392,10433
16392,10748
15904,10748
Z" /> 
<path style="fill:#000000; fill-opacity:1.0; 
stroke:#000000; stroke-width:0; stroke-opacity:1; 
stroke-linecap:round; stroke-linejoin:round;fill-rule:evenodd;"
d="M 15904,11181
15904,10866
16392,10866
16392,11181
15904,11181
Z" /> 
<path style="fill:#000000; fill-opacity:1.0; 
stroke:#000000; stroke-width:0; stroke-opacity:1; 
stroke-linecap:round; stroke-linejoin:round;fill-rule:evenodd;"
d="M 15904,11614
15904,11299
16392,11299
16392,11614
15904,11614
Z" /> 
<path style="fill:#000000; fill-opacity:1.0; 
stroke:#000000; stroke-width:0; stroke-opacity:1; 
stroke-linecap:round; stroke-linejoin:round;fill-rule:evenodd;"
d="M 15904,12047
15904,11732
16392,11732
16392,12047
15904,12047
Z" /> 
</g>
<g >
</g>
<g >
</g>
<g >
</g>
<g >
</g>
<g >
</g>
<g style="fill:#000000; fill-opacity:1.0; 
stroke:#000000; stroke-width:0; stroke-opacity:1; 
stroke-linecap:round; stroke-linejoin:round;">
<path style="fill:#000000; fill-opacity:1.0; 
stroke:#000000; stroke-width:0; stroke-opacity:1; 
stroke-linecap:round; stroke-linejoin:round;fill-rule:evenodd;"
d="M 8228,11623
8237,11624
8246,11626
8255,11629
8263,11633
8272,11638
8279,11644
8286,11650
8292,11657
8298,11665
8303,11673
8307,11681
8310,11690
8312,11699
8314,11709
8314,11718
8314,12077
8314,12087
8312,12096
8310,12105
8307,12114
8303,12123
8298,12131
8292,12138
8286,12145
8279,12152
8272,12157
8263,12162
8255,12166
8246,12169
8237,12171
8228,12173
8218,12173
8026,12173
8017,12173
8008,12171
7998,12169
7990,12166
7981,12162
7973,12157
7965,12152
7958,12145
7952,12138
7947,12131
7942,12123
7938,12114
7934,12105
7932,12096
7931,12087
7930,12077
7930,11718
7931,11709
7932,11699
7934,11690
7938,11681
7942,11673
7947,11665
7952,11657
7958,11650
7965,11644
7973,11638
7981,11633
7990,11629
7998,11626
8008,11624
8017,11623
8026,11622
8218,11622
8228,11623
Z" /> 
<path style="fill:#000000; fill-opacity:1.0; 
stroke:#000000; stroke-width:0; stroke-opacity:1; 
stroke-linecap:round; stroke-linejoin:round;fill-rule:evenodd;"
d="M 8966,11623
8975,11624
8984,11626
8993,11629
9002,11633
9010,11638
9017,11644
9024,11650
9031,11657
9036,11665
9041,11673
9045,11681
9048,11690
9051,11699
9052,11709
9052,11718
9052,12077
9052,12087
9051,12096
9048,12105
9045,12114
9041,12123
9036,12131
9031,12138
9024,12145
9017,12152
9010,12157
9002,12162
8993,12166
8984,12169
8975,12171
8966,12173
8956,12173
8765,12173
8755,12173
8746,12171
8737,12169
8728,12166
8719,12162
8711,12157
8704,12152
8697,12145
8690,12138
8685,12131
8680,12123
8676,12114
8673,12105
8670,12096
8669,12087
8669,12077
8669,11718
8669,11709
8670,11699
8673,11690
8676,11681
8680,11673
8685,11665
8690,11657
8697,11650
8704,11644
8711,11638
8719,11633
8728,11629
8737,11626
8746,11624
8755,11623
8765,11622
8956,11622
8966,11623
Z" /> 
</g>
<g >
</g>
<g style="fill:#000000; fill-opacity:1.0; 
stroke:#000000; stroke-width:0; stroke-opacity:1; 
stroke-linecap:round; stroke-linejoin:round;">
<path style="fill:#000000; fill-opacity:1.0; 
stroke:#000000; stroke-width:0; stroke-opacity:1; 
stroke-linecap:round; stroke-linejoin:round;fill-rule:evenodd;"
d="M 8390,10641
8396,10642
8401,10643
8407,10645
8412,10647
8417,10650
8421,10654
8425,10658
8429,10662
8433,10666
8436,10671
8438,10676
8440,10682
8441,10687
8442,10693
8442,10699
8442,10815
8442,10821
8441,10826
8440,10832
8438,10837
8436,10842
8433,10847
8429,10852
8425,10856
8421,10860
8417,10863
8412,10866
8407,10869
8401,10870
8396,10872
8390,10873
8384,10873
8248,10873
8243,10873
8237,10872
8232,10870
8226,10869
8221,10866
8216,10863
8212,10860
8207,10856
8204,10852
8200,10847
8197,10842
8195,10837
8193,10832
8192,10826
8191,10821
8190,10815
8190,10699
8191,10693
8192,10687
8193,10682
8195,10676
8197,10671
8200,10666
8204,10662
8207,10658
8212,10654
8216,10650
8221,10647
8226,10645
8232,10643
8237,10642
8243,10641
8248,10641
8384,10641
8390,10641
Z" /> 
<path style="fill:#000000; fill-opacity:1.0; 
stroke:#000000; stroke-width:0; stroke-opacity:1; 
stroke-linecap:round; stroke-linejoin:round;fill-rule:evenodd;"
d="M 8390,11023
8396,11024
8401,11025
8407,11027
8412,11029
8417,11032
8421,11036
8425,11040
8429,11044
8433,11048
8436,11053
8438,11058
8440,11064
8441,11069
8442,11075
8442,11081
8442,11197
8442,11202
8441,11208
8440,11214
8438,11219
8436,11224
8433,11229
8429,11234
8425,11238
8421,11242
8417,11245
8412,11248
8407,11250
8401,11252
8396,11254
8390,11255
8384,11255
8248,11255
8243,11255
8237,11254
8232,11252
8226,11250
8221,11248
8216,11245
8212,11242
8207,11238
8204,11234
8200,11229
8197,11224
8195,11219
8193,11214
8192,11208
8191,11202
8190,11197
8190,11081
8191,11075
8192,11069
8193,11064
8195,11058
8197,11053
8200,11048
8204,11044
8207,11040
8212,11036
8216,11032
8221,11029
8226,11027
8232,11025
8237,11024
8243,11023
8248,11023
8384,11023
8390,11023
Z" /> 
</g>
<g >
</g>
<g style="fill:#000000; fill-opacity:1.0; 
stroke:#000000; stroke-width:0; stroke-opacity:1; 
stroke-linecap:round; stroke-linejoin:round;">
<path style="fill:#000000; fill-opacity:1.0; 
stroke:#000000; stroke-width:0; stroke-opacity:1; 
stroke-linecap:round; stroke-linejoin:round;fill-rule:evenodd;"
d="M 8865,10641
8871,10642
8876,10643
8882,10645
8887,10647
8892,10650
8896,10654
8900,10658
8904,10662
8908,10666
8911,10671
8913,10676
8915,10682
8916,10687
8917,10693
8917,10699
8917,10815
8917,10821
8916,10826
8915,10832
8913,10837
8911,10842
8908,10847
8904,10852
8900,10856
8896,10860
8892,10863
8887,10866
8882,10869
8876,10870
8871,10872
8865,10873
8859,10873
8723,10873
8718,10873
8712,10872
8707,10870
8701,10869
8696,10866
8691,10863
8687,10860
8682,10856
8679,10852
8675,10847
8672,10842
8670,10837
8668,10832
8667,10826
8666,10821
8665,10815
8665,10699
8666,10693
8667,10687
8668,10682
8670,10676
8672,10671
8675,10666
8679,10662
8682,10658
8687,10654
8691,10650
8696,10647
8701,10645
8707,10643
8712,10642
8718,10641
8723,10641
8859,10641
8865,10641
Z" /> 
<path style="fill:#000000; fill-opacity:1.0; 
stroke:#000000; stroke-width:0; stroke-opacity:1; 
stroke-linecap:round; stroke-linejoin:round;fill-rule:evenodd;"
d="M 8865,11023
8871,11024
8876,11025
8882,11027
8887,11029
8892,11032
8896,11036
8900,11040
8904,11044
8908,11048
8911,11053
8913,11058
8915,11064
8916,11069
8917,11075
8917,11081
8917,11197
8917,11202
8916,11208
8915,11214
8913,11219
8911,11224
8908,11229
8904,11234
8900,11238
8896,11242
8892,11245
8887,11248
8882,11250
8876,11252
8871,11254
8865,11255
8859,11255
8723,11255
8718,11255
8712,11254
8707,11252
8701,11250
8696,11248
8691,11245
8687,11242
8682,11238
8679,11234
8675,11229
8672,11224
8670,11219
8668,11214
8667,11208
8666,11202
8665,11197
8665,11081
8666,11075
8667,11069
8668,11064
8670,11058
8672,11053
8675,11048
8679,11044
8682,11040
8687,11036
8691,11032
8696,11029
8701,11027
8707,11025
8712,11024
8718,11023
8723,11023
8859,11023
8865,11023
Z" /> 
</g>
<g >
</g>
<g style="fill:#000000; fill-opacity:1.0; 
stroke:#000000; stroke-width:0; stroke-opacity:1; 
stroke-linecap:round; stroke-linejoin:round;">
<path style="fill:#000000; fill-opacity:1.0; 
stroke:#000000; stroke-width:0; stroke-opacity:1; 
stroke-linecap:round; stroke-linejoin:round;fill-rule:evenodd;"
d="M 10146,9797
10152,9798
10157,9799
10163,9801
10168,9804
10173,9807
10177,9810
10181,9814
10185,9818
10189,9823
10192,9827
10194,9833
10196,9838
10197,9843
10198,9849
10198,9855
10198,9991
10198,9996
10197,10002
10196,10007
10194,10013
10192,10018
10189,10023
10185,10027
10181,10032
10177,10036
10173,10039
10168,10042
10163,10044
10157,10046
10152,10048
10146,10048
10140,10049
10024,10049
10019,10048
10013,10048
10007,10046
10002,10044
9997,10042
9992,10039
9987,10036
9983,10032
9979,10027
9976,10023
9973,10018
9971,10013
9969,10007
9967,10002
9966,9996
9966,9991
9966,9855
9966,9849
9967,9843
9969,9838
9971,9833
9973,9827
9976,9823
9979,9818
9983,9814
9987,9810
9992,9807
9997,9804
10002,9801
10007,9799
10013,9798
10019,9797
10024,9797
10140,9797
10146,9797
Z" /> 
<path style="fill:#000000; fill-opacity:1.0; 
stroke:#000000; stroke-width:0; stroke-opacity:1; 
stroke-linecap:round; stroke-linejoin:round;fill-rule:evenodd;"
d="M 9764,9797
9770,9798
9775,9799
9781,9801
9786,9804
9791,9807
9795,9810
9800,9814
9803,9818
9807,9823
9810,9827
9812,9833
9814,9838
9815,9843
9816,9849
9817,9855
9817,9991
9816,9996
9815,10002
9814,10007
9812,10013
9810,10018
9807,10023
9803,10027
9800,10032
9795,10036
9791,10039
9786,10042
9781,10044
9775,10046
9770,10048
9764,10048
9759,10049
9642,10049
9637,10048
9631,10048
9626,10046
9620,10044
9615,10042
9610,10039
9606,10036
9601,10032
9597,10027
9594,10023
9591,10018
9589,10013
9587,10007
9585,10002
9585,9996
9584,9991
9584,9855
9585,9849
9585,9843
9587,9838
9589,9833
9591,9827
9594,9823
9597,9818
9601,9814
9606,9810
9610,9807
9615,9804
9620,9801
9626,9799
9631,9798
9637,9797
9642,9797
9759,9797
9764,9797
Z" /> 
</g>
<g >
</g>
<g style="fill:#000000; fill-opacity:1.0; 
stroke:#000000; stroke-width:0; stroke-opacity:1; 
stroke-linecap:round; stroke-linejoin:round;">
<path style="fill:#000000; fill-opacity:1.0; 
stroke:#000000; stroke-width:0; stroke-opacity:1; 
stroke-linecap:round; stroke-linejoin:round;fill-rule:evenodd;"
d="M 9340,10641
9346,10642
9351,10643
9357,10645
9362,10647
9367,10650
9371,10654
9375,10658
9379,10662
9383,10666
9386,10671
9388,10676
9390,10682
9391,10687
9392,10693
9392,10699
9392,10815
9392,10821
9391,10826
9390,10832
9388,10837
9386,10842
9383,10847
9379,10852
9375,10856
9371,10860
9367,10863
9362,10866
9357,10869
9351,10870
9346,10872
9340,10873
9334,10873
9198,10873
9193,10873
9187,10872
9182,10870
9176,10869
9171,10866
9166,10863
9162,10860
9157,10856
9154,10852
9150,10847
9147,10842
9145,10837
9143,10832
9142,10826
9141,10821
9140,10815
9140,10699
9141,10693
9142,10687
9143,10682
9145,10676
9147,10671
9150,10666
9154,10662
9157,10658
9162,10654
9166,10650
9171,10647
9176,10645
9182,10643
9187,10642
9193,10641
9198,10641
9334,10641
9340,10641
Z" /> 
<path style="fill:#000000; fill-opacity:1.0; 
stroke:#000000; stroke-width:0; stroke-opacity:1; 
stroke-linecap:round; stroke-linejoin:round;fill-rule:evenodd;"
d="M 9340,11023
9346,11024
9351,11025
9357,11027
9362,11029
9367,11032
9371,11036
9375,11040
9379,11044
9383,11048
9386,11053
9388,11058
9390,11064
9391,11069
9392,11075
9392,11081
9392,11197
9392,11202
9391,11208
9390,11214
9388,11219
9386,11224
9383,11229
9379,11234
9375,11238
9371,11242
9367,11245
9362,11248
9357,11250
9351,11252
9346,11254
9340,11255
9334,11255
9198,11255
9193,11255
9187,11254
9182,11252
9176,11250
9171,11248
9166,11245
9162,11242
9157,11238
9154,11234
9150,11229
9147,11224
9145,11219
9143,11214
9142,11208
9141,11202
9140,11197
9140,11081
9141,11075
9142,11069
9143,11064
9145,11058
9147,11053
9150,11048
9154,11044
9157,11040
9162,11036
9166,11032
9171,11029
9176,11027
9182,11025
9187,11024
9193,11023
9198,11023
9334,11023
9340,11023
Z" /> 
</g>
<g >
</g>
<g >
</g>
<g >
</g>
<g >
</g>
<g >
</g>
<g >
</g>
<g >
</g>
<g >
</g>
<g >
</g>
<g >
</g>
<g >
</g>
<g >
</g>
<g >
</g>
<g >
</g>
<g >
</g>
<g >
</g>
</g> 
</svg>
