<?xml version="1.0" standalone="no"?>
 <!DOCTYPE svg PUBLIC "-//W3C//DTD SVG 1.1//EN" 
 "http://www.w3.org/Graphics/SVG/1.1/DTD/svg11.dtd"> 
<svg xmlns="http://www.w3.org/2000/svg" version="1.1" 
    width="4.92252cm" height="7.4803cm" viewBox="0 0 19380 29450 ">
<title>SVG Picture created as mainboard-F_Paste.svg date 2019/11/01 14:40:51 </title>
  <desc>Picture generated by PCBNEW </desc>
<g style="fill:#000000; fill-opacity:1;stroke:#000000; stroke-opacity:1;
stroke-linecap:round; stroke-linejoin:round; "
 transform="translate(0 0) scale(1 1)">
</g>
<g style="fill:#000000; fill-opacity:0.0; 
stroke:#000000; stroke-width:-0.000393701; stroke-opacity:1; 
stroke-linecap:round; stroke-linejoin:round;">
<g >
</g>
<g >
</g>
<g >
</g>
<g >
</g>
<g >
</g>
<g >
</g>
<g >
</g>
<g >
</g>
<g style="fill:#000000; fill-opacity:0.0; 
stroke:#000000; stroke-width:-0.000393701; stroke-opacity:1; 
stroke-linecap:round; stroke-linejoin:round;">
</g>
<g style="fill:#000000; fill-opacity:0.0; 
stroke:#000000; stroke-width:0; stroke-opacity:1; 
stroke-linecap:round; stroke-linejoin:round;">
</g>
<g style="fill:#000000; fill-opacity:1.0; 
stroke:#000000; stroke-width:0; stroke-opacity:1; 
stroke-linecap:round; stroke-linejoin:round;">
<path style="fill:#000000; fill-opacity:1.0; 
stroke:#000000; stroke-width:0; stroke-opacity:1; 
stroke-linecap:round; stroke-linejoin:round;fill-rule:evenodd;"
d="M 3562,9818
3562,9527
4507,9527
4507,9818
3562,9818
Z" /> 
<path style="fill:#000000; fill-opacity:1.0; 
stroke:#000000; stroke-width:0; stroke-opacity:1; 
stroke-linecap:round; stroke-linejoin:round;fill-rule:evenodd;"
d="M 2026,9818
2026,9527
2971,9527
2971,9818
2026,9818
Z" /> 
<path style="fill:#000000; fill-opacity:1.0; 
stroke:#000000; stroke-width:0; stroke-opacity:1; 
stroke-linecap:round; stroke-linejoin:round;fill-rule:evenodd;"
d="M 3562,9318
3562,9027
4507,9027
4507,9318
3562,9318
Z" /> 
<path style="fill:#000000; fill-opacity:1.0; 
stroke:#000000; stroke-width:0; stroke-opacity:1; 
stroke-linecap:round; stroke-linejoin:round;fill-rule:evenodd;"
d="M 2026,9318
2026,9027
2971,9027
2971,9318
2026,9318
Z" /> 
<path style="fill:#000000; fill-opacity:1.0; 
stroke:#000000; stroke-width:0; stroke-opacity:1; 
stroke-linecap:round; stroke-linejoin:round;fill-rule:evenodd;"
d="M 3562,8818
3562,8527
4507,8527
4507,8818
3562,8818
Z" /> 
<path style="fill:#000000; fill-opacity:1.0; 
stroke:#000000; stroke-width:0; stroke-opacity:1; 
stroke-linecap:round; stroke-linejoin:round;fill-rule:evenodd;"
d="M 2026,8818
2026,8527
2971,8527
2971,8818
2026,8818
Z" /> 
</g>
<g >
</g>
<g >
</g>
<g style="fill:#000000; fill-opacity:1.0; 
stroke:#000000; stroke-width:0; stroke-opacity:1; 
stroke-linecap:round; stroke-linejoin:round;">
<path style="fill:#000000; fill-opacity:1.0; 
stroke:#000000; stroke-width:0; stroke-opacity:1; 
stroke-linecap:round; stroke-linejoin:round;fill-rule:evenodd;"
d="M 4489,5397
4495,5398
4500,5399
4506,5401
4511,5404
4516,5407
4520,5410
4525,5414
4528,5418
4532,5423
4535,5427
4537,5433
4539,5438
4540,5443
4541,5449
4542,5455
4542,5591
4541,5596
4540,5602
4539,5607
4537,5613
4535,5618
4532,5623
4528,5627
4525,5632
4520,5636
4516,5639
4511,5642
4506,5644
4500,5646
4495,5648
4489,5648
4484,5649
4367,5649
4362,5648
4356,5648
4351,5646
4345,5644
4340,5642
4335,5639
4331,5636
4326,5632
4322,5627
4319,5623
4316,5618
4314,5613
4312,5607
4310,5602
4310,5596
4309,5591
4309,5455
4310,5449
4310,5443
4312,5438
4314,5433
4316,5427
4319,5423
4322,5418
4326,5414
4331,5410
4335,5407
4340,5404
4345,5401
4351,5399
4356,5398
4362,5397
4367,5397
4484,5397
4489,5397
Z" /> 
<path style="fill:#000000; fill-opacity:1.0; 
stroke:#000000; stroke-width:0; stroke-opacity:1; 
stroke-linecap:round; stroke-linejoin:round;fill-rule:evenodd;"
d="M 4871,5397
4877,5398
4882,5399
4888,5401
4893,5404
4898,5407
4902,5410
4906,5414
4910,5418
4914,5423
4917,5427
4919,5433
4921,5438
4922,5443
4923,5449
4923,5455
4923,5591
4923,5596
4922,5602
4921,5607
4919,5613
4917,5618
4914,5623
4910,5627
4906,5632
4902,5636
4898,5639
4893,5642
4888,5644
4882,5646
4877,5648
4871,5648
4865,5649
4749,5649
4744,5648
4738,5648
4732,5646
4727,5644
4722,5642
4717,5639
4712,5636
4708,5632
4704,5627
4701,5623
4698,5618
4696,5613
4694,5607
4692,5602
4691,5596
4691,5591
4691,5455
4691,5449
4692,5443
4694,5438
4696,5433
4698,5427
4701,5423
4704,5418
4708,5414
4712,5410
4717,5407
4722,5404
4727,5401
4732,5399
4738,5398
4744,5397
4749,5397
4865,5397
4871,5397
Z" /> 
</g>
<g >
</g>
<g style="fill:#000000; fill-opacity:1.0; 
stroke:#000000; stroke-width:0; stroke-opacity:1; 
stroke-linecap:round; stroke-linejoin:round;">
<path style="fill:#000000; fill-opacity:1.0; 
stroke:#000000; stroke-width:0; stroke-opacity:1; 
stroke-linecap:round; stroke-linejoin:round;fill-rule:evenodd;"
d="M 4489,2847
4495,2848
4500,2849
4506,2851
4511,2854
4516,2857
4520,2860
4525,2864
4528,2868
4532,2873
4535,2877
4537,2883
4539,2888
4540,2893
4541,2899
4542,2905
4542,3041
4541,3046
4540,3052
4539,3057
4537,3063
4535,3068
4532,3073
4528,3077
4525,3082
4520,3086
4516,3089
4511,3092
4506,3094
4500,3096
4495,3098
4489,3098
4484,3099
4367,3099
4362,3098
4356,3098
4351,3096
4345,3094
4340,3092
4335,3089
4331,3086
4326,3082
4322,3077
4319,3073
4316,3068
4314,3063
4312,3057
4310,3052
4310,3046
4309,3041
4309,2905
4310,2899
4310,2893
4312,2888
4314,2883
4316,2877
4319,2873
4322,2868
4326,2864
4331,2860
4335,2857
4340,2854
4345,2851
4351,2849
4356,2848
4362,2847
4367,2847
4484,2847
4489,2847
Z" /> 
<path style="fill:#000000; fill-opacity:1.0; 
stroke:#000000; stroke-width:0; stroke-opacity:1; 
stroke-linecap:round; stroke-linejoin:round;fill-rule:evenodd;"
d="M 4871,2847
4877,2848
4882,2849
4888,2851
4893,2854
4898,2857
4902,2860
4906,2864
4910,2868
4914,2873
4917,2877
4919,2883
4921,2888
4922,2893
4923,2899
4923,2905
4923,3041
4923,3046
4922,3052
4921,3057
4919,3063
4917,3068
4914,3073
4910,3077
4906,3082
4902,3086
4898,3089
4893,3092
4888,3094
4882,3096
4877,3098
4871,3098
4865,3099
4749,3099
4744,3098
4738,3098
4732,3096
4727,3094
4722,3092
4717,3089
4712,3086
4708,3082
4704,3077
4701,3073
4698,3068
4696,3063
4694,3057
4692,3052
4691,3046
4691,3041
4691,2905
4691,2899
4692,2893
4694,2888
4696,2883
4698,2877
4701,2873
4704,2868
4708,2864
4712,2860
4717,2857
4722,2854
4727,2851
4732,2849
4738,2848
4744,2847
4749,2847
4865,2847
4871,2847
Z" /> 
</g>
<g >
</g>
<g style="fill:#000000; fill-opacity:1.0; 
stroke:#000000; stroke-width:0; stroke-opacity:1; 
stroke-linecap:round; stroke-linejoin:round;">
<path style="fill:#000000; fill-opacity:1.0; 
stroke:#000000; stroke-width:0; stroke-opacity:1; 
stroke-linecap:round; stroke-linejoin:round;fill-rule:evenodd;"
d="M 3315,6416
3321,6417
3326,6418
3332,6420
3337,6422
3342,6425
3346,6429
3350,6433
3354,6437
3358,6441
3361,6446
3363,6451
3365,6457
3366,6462
3367,6468
3367,6474
3367,6590
3367,6596
3366,6601
3365,6607
3363,6612
3361,6617
3358,6622
3354,6627
3350,6631
3346,6635
3342,6638
3337,6641
3332,6644
3326,6645
3321,6647
3315,6648
3309,6648
3173,6648
3168,6648
3162,6647
3157,6645
3151,6644
3146,6641
3141,6638
3137,6635
3132,6631
3129,6627
3125,6622
3122,6617
3120,6612
3118,6607
3117,6601
3116,6596
3115,6590
3115,6474
3116,6468
3117,6462
3118,6457
3120,6451
3122,6446
3125,6441
3129,6437
3132,6433
3137,6429
3141,6425
3146,6422
3151,6420
3157,6418
3162,6417
3168,6416
3173,6416
3309,6416
3315,6416
Z" /> 
<path style="fill:#000000; fill-opacity:1.0; 
stroke:#000000; stroke-width:0; stroke-opacity:1; 
stroke-linecap:round; stroke-linejoin:round;fill-rule:evenodd;"
d="M 3315,6798
3321,6799
3326,6800
3332,6802
3337,6804
3342,6807
3346,6811
3350,6815
3354,6819
3358,6823
3361,6828
3363,6833
3365,6839
3366,6844
3367,6850
3367,6856
3367,6972
3367,6977
3366,6983
3365,6989
3363,6994
3361,6999
3358,7004
3354,7009
3350,7013
3346,7017
3342,7020
3337,7023
3332,7025
3326,7027
3321,7029
3315,7030
3309,7030
3173,7030
3168,7030
3162,7029
3157,7027
3151,7025
3146,7023
3141,7020
3137,7017
3132,7013
3129,7009
3125,7004
3122,6999
3120,6994
3118,6989
3117,6983
3116,6977
3115,6972
3115,6856
3116,6850
3117,6844
3118,6839
3120,6833
3122,6828
3125,6823
3129,6819
3132,6815
3137,6811
3141,6807
3146,6804
3151,6802
3157,6800
3162,6799
3168,6798
3173,6798
3309,6798
3315,6798
Z" /> 
</g>
<g >
</g>
<g style="fill:#000000; fill-opacity:1.0; 
stroke:#000000; stroke-width:0; stroke-opacity:1; 
stroke-linecap:round; stroke-linejoin:round;">
<path style="fill:#000000; fill-opacity:1.0; 
stroke:#000000; stroke-width:0; stroke-opacity:1; 
stroke-linecap:round; stroke-linejoin:round;fill-rule:evenodd;"
d="M 3315,3991
3321,3992
3326,3993
3332,3995
3337,3997
3342,4000
3346,4004
3350,4008
3354,4012
3358,4016
3361,4021
3363,4026
3365,4032
3366,4037
3367,4043
3367,4049
3367,4165
3367,4171
3366,4176
3365,4182
3363,4187
3361,4192
3358,4197
3354,4202
3350,4206
3346,4210
3342,4213
3337,4216
3332,4219
3326,4220
3321,4222
3315,4223
3309,4223
3173,4223
3168,4223
3162,4222
3157,4220
3151,4219
3146,4216
3141,4213
3137,4210
3132,4206
3129,4202
3125,4197
3122,4192
3120,4187
3118,4182
3117,4176
3116,4171
3115,4165
3115,4049
3116,4043
3117,4037
3118,4032
3120,4026
3122,4021
3125,4016
3129,4012
3132,4008
3137,4004
3141,4000
3146,3997
3151,3995
3157,3993
3162,3992
3168,3991
3173,3991
3309,3991
3315,3991
Z" /> 
<path style="fill:#000000; fill-opacity:1.0; 
stroke:#000000; stroke-width:0; stroke-opacity:1; 
stroke-linecap:round; stroke-linejoin:round;fill-rule:evenodd;"
d="M 3315,4373
3321,4374
3326,4375
3332,4377
3337,4379
3342,4382
3346,4386
3350,4390
3354,4394
3358,4398
3361,4403
3363,4408
3365,4414
3366,4419
3367,4425
3367,4431
3367,4547
3367,4552
3366,4558
3365,4564
3363,4569
3361,4574
3358,4579
3354,4584
3350,4588
3346,4592
3342,4595
3337,4598
3332,4600
3326,4602
3321,4604
3315,4605
3309,4605
3173,4605
3168,4605
3162,4604
3157,4602
3151,4600
3146,4598
3141,4595
3137,4592
3132,4588
3129,4584
3125,4579
3122,4574
3120,4569
3118,4564
3117,4558
3116,4552
3115,4547
3115,4431
3116,4425
3117,4419
3118,4414
3120,4408
3122,4403
3125,4398
3129,4394
3132,4390
3137,4386
3141,4382
3146,4379
3151,4377
3157,4375
3162,4374
3168,4373
3173,4373
3309,4373
3315,4373
Z" /> 
</g>
<g >
</g>
<g style="fill:#000000; fill-opacity:1.0; 
stroke:#000000; stroke-width:0; stroke-opacity:1; 
stroke-linecap:round; stroke-linejoin:round;">
<path style="fill:#000000; fill-opacity:1.0; 
stroke:#000000; stroke-width:0; stroke-opacity:1; 
stroke-linecap:round; stroke-linejoin:round;fill-rule:evenodd;"
d="M 3315,3216
3321,3217
3326,3218
3332,3220
3337,3222
3342,3225
3346,3229
3350,3233
3354,3237
3358,3241
3361,3246
3363,3251
3365,3257
3366,3262
3367,3268
3367,3274
3367,3390
3367,3396
3366,3401
3365,3407
3363,3412
3361,3417
3358,3422
3354,3427
3350,3431
3346,3435
3342,3438
3337,3441
3332,3444
3326,3445
3321,3447
3315,3448
3309,3448
3173,3448
3168,3448
3162,3447
3157,3445
3151,3444
3146,3441
3141,3438
3137,3435
3132,3431
3129,3427
3125,3422
3122,3417
3120,3412
3118,3407
3117,3401
3116,3396
3115,3390
3115,3274
3116,3268
3117,3262
3118,3257
3120,3251
3122,3246
3125,3241
3129,3237
3132,3233
3137,3229
3141,3225
3146,3222
3151,3220
3157,3218
3162,3217
3168,3216
3173,3216
3309,3216
3315,3216
Z" /> 
<path style="fill:#000000; fill-opacity:1.0; 
stroke:#000000; stroke-width:0; stroke-opacity:1; 
stroke-linecap:round; stroke-linejoin:round;fill-rule:evenodd;"
d="M 3315,3598
3321,3599
3326,3600
3332,3602
3337,3604
3342,3607
3346,3611
3350,3615
3354,3619
3358,3623
3361,3628
3363,3633
3365,3639
3366,3644
3367,3650
3367,3656
3367,3772
3367,3777
3366,3783
3365,3789
3363,3794
3361,3799
3358,3804
3354,3809
3350,3813
3346,3817
3342,3820
3337,3823
3332,3825
3326,3827
3321,3829
3315,3830
3309,3830
3173,3830
3168,3830
3162,3829
3157,3827
3151,3825
3146,3823
3141,3820
3137,3817
3132,3813
3129,3809
3125,3804
3122,3799
3120,3794
3118,3789
3117,3783
3116,3777
3115,3772
3115,3656
3116,3650
3117,3644
3118,3639
3120,3633
3122,3628
3125,3623
3129,3619
3132,3615
3137,3611
3141,3607
3146,3604
3151,3602
3157,3600
3162,3599
3168,3598
3173,3598
3309,3598
3315,3598
Z" /> 
</g>
<g >
</g>
<g >
</g>
<g style="fill:#000000; fill-opacity:1.0; 
stroke:#000000; stroke-width:0; stroke-opacity:1; 
stroke-linecap:round; stroke-linejoin:round;">
<path style="fill:#000000; fill-opacity:1.0; 
stroke:#000000; stroke-width:0; stroke-opacity:1; 
stroke-linecap:round; stroke-linejoin:round;fill-rule:evenodd;"
d="M 10065,5616
10071,5617
10076,5618
10082,5620
10087,5622
10092,5625
10096,5629
10100,5633
10104,5637
10108,5641
10111,5646
10113,5651
10115,5657
10116,5662
10117,5668
10117,5674
10117,5790
10117,5796
10116,5801
10115,5807
10113,5812
10111,5817
10108,5822
10104,5827
10100,5831
10096,5835
10092,5838
10087,5841
10082,5844
10076,5845
10071,5847
10065,5848
10059,5848
9923,5848
9918,5848
9912,5847
9907,5845
9901,5844
9896,5841
9891,5838
9887,5835
9882,5831
9879,5827
9875,5822
9872,5817
9870,5812
9868,5807
9867,5801
9866,5796
9865,5790
9865,5674
9866,5668
9867,5662
9868,5657
9870,5651
9872,5646
9875,5641
9879,5637
9882,5633
9887,5629
9891,5625
9896,5622
9901,5620
9907,5618
9912,5617
9918,5616
9923,5616
10059,5616
10065,5616
Z" /> 
<path style="fill:#000000; fill-opacity:1.0; 
stroke:#000000; stroke-width:0; stroke-opacity:1; 
stroke-linecap:round; stroke-linejoin:round;fill-rule:evenodd;"
d="M 10065,5998
10071,5999
10076,6000
10082,6002
10087,6004
10092,6007
10096,6011
10100,6015
10104,6019
10108,6023
10111,6028
10113,6033
10115,6039
10116,6044
10117,6050
10117,6056
10117,6172
10117,6177
10116,6183
10115,6189
10113,6194
10111,6199
10108,6204
10104,6209
10100,6213
10096,6217
10092,6220
10087,6223
10082,6225
10076,6227
10071,6229
10065,6230
10059,6230
9923,6230
9918,6230
9912,6229
9907,6227
9901,6225
9896,6223
9891,6220
9887,6217
9882,6213
9879,6209
9875,6204
9872,6199
9870,6194
9868,6189
9867,6183
9866,6177
9865,6172
9865,6056
9866,6050
9867,6044
9868,6039
9870,6033
9872,6028
9875,6023
9879,6019
9882,6015
9887,6011
9891,6007
9896,6004
9901,6002
9907,6000
9912,5999
9918,5998
9923,5998
10059,5998
10065,5998
Z" /> 
</g>
<g >
</g>
<g style="fill:#000000; fill-opacity:1.0; 
stroke:#000000; stroke-width:0; stroke-opacity:1; 
stroke-linecap:round; stroke-linejoin:round;">
<path style="fill:#000000; fill-opacity:1.0; 
stroke:#000000; stroke-width:0; stroke-opacity:1; 
stroke-linecap:round; stroke-linejoin:round;fill-rule:evenodd;"
d="M 10065,4691
10071,4692
10076,4693
10082,4695
10087,4697
10092,4700
10096,4704
10100,4708
10104,4712
10108,4716
10111,4721
10113,4726
10115,4732
10116,4737
10117,4743
10117,4749
10117,4865
10117,4871
10116,4876
10115,4882
10113,4887
10111,4892
10108,4897
10104,4902
10100,4906
10096,4910
10092,4913
10087,4916
10082,4919
10076,4920
10071,4922
10065,4923
10059,4923
9923,4923
9918,4923
9912,4922
9907,4920
9901,4919
9896,4916
9891,4913
9887,4910
9882,4906
9879,4902
9875,4897
9872,4892
9870,4887
9868,4882
9867,4876
9866,4871
9865,4865
9865,4749
9866,4743
9867,4737
9868,4732
9870,4726
9872,4721
9875,4716
9879,4712
9882,4708
9887,4704
9891,4700
9896,4697
9901,4695
9907,4693
9912,4692
9918,4691
9923,4691
10059,4691
10065,4691
Z" /> 
<path style="fill:#000000; fill-opacity:1.0; 
stroke:#000000; stroke-width:0; stroke-opacity:1; 
stroke-linecap:round; stroke-linejoin:round;fill-rule:evenodd;"
d="M 10065,5073
10071,5074
10076,5075
10082,5077
10087,5079
10092,5082
10096,5086
10100,5090
10104,5094
10108,5098
10111,5103
10113,5108
10115,5114
10116,5119
10117,5125
10117,5131
10117,5247
10117,5252
10116,5258
10115,5264
10113,5269
10111,5274
10108,5279
10104,5284
10100,5288
10096,5292
10092,5295
10087,5298
10082,5300
10076,5302
10071,5304
10065,5305
10059,5305
9923,5305
9918,5305
9912,5304
9907,5302
9901,5300
9896,5298
9891,5295
9887,5292
9882,5288
9879,5284
9875,5279
9872,5274
9870,5269
9868,5264
9867,5258
9866,5252
9865,5247
9865,5131
9866,5125
9867,5119
9868,5114
9870,5108
9872,5103
9875,5098
9879,5094
9882,5090
9887,5086
9891,5082
9896,5079
9901,5077
9907,5075
9912,5074
9918,5073
9923,5073
10059,5073
10065,5073
Z" /> 
</g>
<g >
</g>
<g >
</g>
<g >
</g>
<g >
</g>
<g >
</g>
<g >
</g>
<g style="fill:#000000; fill-opacity:1.0; 
stroke:#000000; stroke-width:0; stroke-opacity:1; 
stroke-linecap:round; stroke-linejoin:round;">
<path style="fill:#000000; fill-opacity:1.0; 
stroke:#000000; stroke-width:0; stroke-opacity:1; 
stroke-linecap:round; stroke-linejoin:round;fill-rule:evenodd;"
d="M 11748,7505
11335,7505
11335,7091
11748,7091
11748,7505
Z" /> 
<path style="fill:#000000; fill-opacity:1.0; 
stroke:#000000; stroke-width:0; stroke-opacity:1; 
stroke-linecap:round; stroke-linejoin:round;fill-rule:evenodd;"
d="M 11915,7141
11915,6255
12329,6255
12329,7141
11915,7141
Z" /> 
<path style="fill:#000000; fill-opacity:1.0; 
stroke:#000000; stroke-width:0; stroke-opacity:1; 
stroke-linecap:round; stroke-linejoin:round;fill-rule:evenodd;"
d="M 10754,7141
10754,6255
11167,6255
11167,7141
10754,7141
Z" /> 
</g>
<g >
</g>
<g >
</g>
<g >
</g>
<g >
</g>
<g style="fill:#000000; fill-opacity:1.0; 
stroke:#000000; stroke-width:0; stroke-opacity:1; 
stroke-linecap:round; stroke-linejoin:round;">
<path style="fill:#000000; fill-opacity:1.0; 
stroke:#000000; stroke-width:0; stroke-opacity:1; 
stroke-linecap:round; stroke-linejoin:round;fill-rule:evenodd;"
d="M 7515,12523
7521,12524
7526,12525
7532,12527
7537,12529
7542,12532
7546,12536
7550,12540
7554,12544
7558,12548
7561,12553
7563,12558
7565,12564
7566,12569
7567,12575
7567,12581
7567,12697
7567,12702
7566,12708
7565,12714
7563,12719
7561,12724
7558,12729
7554,12734
7550,12738
7546,12742
7542,12745
7537,12748
7532,12750
7526,12752
7521,12754
7515,12755
7509,12755
7373,12755
7368,12755
7362,12754
7357,12752
7351,12750
7346,12748
7341,12745
7337,12742
7332,12738
7329,12734
7325,12729
7322,12724
7320,12719
7318,12714
7317,12708
7316,12702
7315,12697
7315,12581
7316,12575
7317,12569
7318,12564
7320,12558
7322,12553
7325,12548
7329,12544
7332,12540
7337,12536
7341,12532
7346,12529
7351,12527
7357,12525
7362,12524
7368,12523
7373,12523
7509,12523
7515,12523
Z" /> 
<path style="fill:#000000; fill-opacity:1.0; 
stroke:#000000; stroke-width:0; stroke-opacity:1; 
stroke-linecap:round; stroke-linejoin:round;fill-rule:evenodd;"
d="M 7515,12141
7521,12142
7526,12143
7532,12145
7537,12147
7542,12150
7546,12154
7550,12158
7554,12162
7558,12166
7561,12171
7563,12176
7565,12182
7566,12187
7567,12193
7567,12199
7567,12315
7567,12321
7566,12326
7565,12332
7563,12337
7561,12342
7558,12347
7554,12352
7550,12356
7546,12360
7542,12363
7537,12366
7532,12369
7526,12370
7521,12372
7515,12373
7509,12373
7373,12373
7368,12373
7362,12372
7357,12370
7351,12369
7346,12366
7341,12363
7337,12360
7332,12356
7329,12352
7325,12347
7322,12342
7320,12337
7318,12332
7317,12326
7316,12321
7315,12315
7315,12199
7316,12193
7317,12187
7318,12182
7320,12176
7322,12171
7325,12166
7329,12162
7332,12158
7337,12154
7341,12150
7346,12147
7351,12145
7357,12143
7362,12142
7368,12141
7373,12141
7509,12141
7515,12141
Z" /> 
</g>
<g >
</g>
<g style="fill:#000000; fill-opacity:1.0; 
stroke:#000000; stroke-width:0; stroke-opacity:1; 
stroke-linecap:round; stroke-linejoin:round;">
<path style="fill:#000000; fill-opacity:1.0; 
stroke:#000000; stroke-width:0; stroke-opacity:1; 
stroke-linecap:round; stroke-linejoin:round;fill-rule:evenodd;"
d="M 6089,3497
6095,3498
6100,3499
6106,3501
6111,3504
6116,3507
6120,3510
6125,3514
6128,3518
6132,3523
6135,3527
6137,3533
6139,3538
6140,3543
6141,3549
6142,3555
6142,3691
6141,3696
6140,3702
6139,3707
6137,3713
6135,3718
6132,3723
6128,3727
6125,3732
6120,3736
6116,3739
6111,3742
6106,3744
6100,3746
6095,3748
6089,3748
6084,3749
5967,3749
5962,3748
5956,3748
5951,3746
5945,3744
5940,3742
5935,3739
5931,3736
5926,3732
5922,3727
5919,3723
5916,3718
5914,3713
5912,3707
5910,3702
5910,3696
5909,3691
5909,3555
5910,3549
5910,3543
5912,3538
5914,3533
5916,3527
5919,3523
5922,3518
5926,3514
5931,3510
5935,3507
5940,3504
5945,3501
5951,3499
5956,3498
5962,3497
5967,3497
6084,3497
6089,3497
Z" /> 
<path style="fill:#000000; fill-opacity:1.0; 
stroke:#000000; stroke-width:0; stroke-opacity:1; 
stroke-linecap:round; stroke-linejoin:round;fill-rule:evenodd;"
d="M 6471,3497
6477,3498
6482,3499
6488,3501
6493,3504
6498,3507
6502,3510
6506,3514
6510,3518
6514,3523
6517,3527
6519,3533
6521,3538
6522,3543
6523,3549
6523,3555
6523,3691
6523,3696
6522,3702
6521,3707
6519,3713
6517,3718
6514,3723
6510,3727
6506,3732
6502,3736
6498,3739
6493,3742
6488,3744
6482,3746
6477,3748
6471,3748
6465,3749
6349,3749
6344,3748
6338,3748
6332,3746
6327,3744
6322,3742
6317,3739
6312,3736
6308,3732
6304,3727
6301,3723
6298,3718
6296,3713
6294,3707
6292,3702
6291,3696
6291,3691
6291,3555
6291,3549
6292,3543
6294,3538
6296,3533
6298,3527
6301,3523
6304,3518
6308,3514
6312,3510
6317,3507
6322,3504
6327,3501
6332,3499
6338,3498
6344,3497
6349,3497
6465,3497
6471,3497
Z" /> 
</g>
<g >
</g>
<g >
</g>
<g >
</g>
<g style="fill:#000000; fill-opacity:1.0; 
stroke:#000000; stroke-width:0; stroke-opacity:1; 
stroke-linecap:round; stroke-linejoin:round;">
<path style="fill:#000000; fill-opacity:1.0; 
stroke:#000000; stroke-width:0; stroke-opacity:1; 
stroke-linecap:round; stroke-linejoin:round;fill-rule:evenodd;"
d="M 9902,10816
10237,10816
10237,10934
9902,10934
9902,10816
Z" /> 
<path style="fill:#000000; fill-opacity:1.0; 
stroke:#000000; stroke-width:0; stroke-opacity:1; 
stroke-linecap:round; stroke-linejoin:round;fill-rule:evenodd;"
d="M 9902,10620
10237,10620
10237,10738
9902,10738
9902,10620
Z" /> 
<path style="fill:#000000; fill-opacity:1.0; 
stroke:#000000; stroke-width:0; stroke-opacity:1; 
stroke-linecap:round; stroke-linejoin:round;fill-rule:evenodd;"
d="M 9902,10423
10237,10423
10237,10541
9902,10541
9902,10423
Z" /> 
<path style="fill:#000000; fill-opacity:1.0; 
stroke:#000000; stroke-width:0; stroke-opacity:1; 
stroke-linecap:round; stroke-linejoin:round;fill-rule:evenodd;"
d="M 9902,10226
10237,10226
10237,10344
9902,10344
9902,10226
Z" /> 
<path style="fill:#000000; fill-opacity:1.0; 
stroke:#000000; stroke-width:0; stroke-opacity:1; 
stroke-linecap:round; stroke-linejoin:round;fill-rule:evenodd;"
d="M 9902,10029
10237,10029
10237,10147
9902,10147
9902,10029
Z" /> 
<path style="fill:#000000; fill-opacity:1.0; 
stroke:#000000; stroke-width:0; stroke-opacity:1; 
stroke-linecap:round; stroke-linejoin:round;fill-rule:evenodd;"
d="M 9902,9832
10237,9832
10237,9950
9902,9950
9902,9832
Z" /> 
<path style="fill:#000000; fill-opacity:1.0; 
stroke:#000000; stroke-width:0; stroke-opacity:1; 
stroke-linecap:round; stroke-linejoin:round;fill-rule:evenodd;"
d="M 9902,9635
10237,9635
10237,9753
9902,9753
9902,9635
Z" /> 
<path style="fill:#000000; fill-opacity:1.0; 
stroke:#000000; stroke-width:0; stroke-opacity:1; 
stroke-linecap:round; stroke-linejoin:round;fill-rule:evenodd;"
d="M 9902,9438
10237,9438
10237,9557
9902,9557
9902,9438
Z" /> 
<path style="fill:#000000; fill-opacity:1.0; 
stroke:#000000; stroke-width:0; stroke-opacity:1; 
stroke-linecap:round; stroke-linejoin:round;fill-rule:evenodd;"
d="M 9902,9242
10237,9242
10237,9360
9902,9360
9902,9242
Z" /> 
<path style="fill:#000000; fill-opacity:1.0; 
stroke:#000000; stroke-width:0; stroke-opacity:1; 
stroke-linecap:round; stroke-linejoin:round;fill-rule:evenodd;"
d="M 9902,9045
10237,9045
10237,9163
9902,9163
9902,9045
Z" /> 
<path style="fill:#000000; fill-opacity:1.0; 
stroke:#000000; stroke-width:0; stroke-opacity:1; 
stroke-linecap:round; stroke-linejoin:round;fill-rule:evenodd;"
d="M 9902,8848
10237,8848
10237,8966
9902,8966
9902,8848
Z" /> 
<path style="fill:#000000; fill-opacity:1.0; 
stroke:#000000; stroke-width:0; stroke-opacity:1; 
stroke-linecap:round; stroke-linejoin:round;fill-rule:evenodd;"
d="M 9902,8651
10237,8651
10237,8769
9902,8769
9902,8651
Z" /> 
<path style="fill:#000000; fill-opacity:1.0; 
stroke:#000000; stroke-width:0; stroke-opacity:1; 
stroke-linecap:round; stroke-linejoin:round;fill-rule:evenodd;"
d="M 9853,8267
9853,8602
9735,8602
9735,8267
9853,8267
Z" /> 
<path style="fill:#000000; fill-opacity:1.0; 
stroke:#000000; stroke-width:0; stroke-opacity:1; 
stroke-linecap:round; stroke-linejoin:round;fill-rule:evenodd;"
d="M 9656,8267
9656,8602
9538,8602
9538,8267
9656,8267
Z" /> 
<path style="fill:#000000; fill-opacity:1.0; 
stroke:#000000; stroke-width:0; stroke-opacity:1; 
stroke-linecap:round; stroke-linejoin:round;fill-rule:evenodd;"
d="M 9459,8267
9459,8602
9341,8602
9341,8267
9459,8267
Z" /> 
<path style="fill:#000000; fill-opacity:1.0; 
stroke:#000000; stroke-width:0; stroke-opacity:1; 
stroke-linecap:round; stroke-linejoin:round;fill-rule:evenodd;"
d="M 9263,8267
9263,8602
9144,8602
9144,8267
9263,8267
Z" /> 
<path style="fill:#000000; fill-opacity:1.0; 
stroke:#000000; stroke-width:0; stroke-opacity:1; 
stroke-linecap:round; stroke-linejoin:round;fill-rule:evenodd;"
d="M 9066,8267
9066,8602
8948,8602
8948,8267
9066,8267
Z" /> 
<path style="fill:#000000; fill-opacity:1.0; 
stroke:#000000; stroke-width:0; stroke-opacity:1; 
stroke-linecap:round; stroke-linejoin:round;fill-rule:evenodd;"
d="M 8869,8267
8869,8602
8751,8602
8751,8267
8869,8267
Z" /> 
<path style="fill:#000000; fill-opacity:1.0; 
stroke:#000000; stroke-width:0; stroke-opacity:1; 
stroke-linecap:round; stroke-linejoin:round;fill-rule:evenodd;"
d="M 8672,8267
8672,8602
8554,8602
8554,8267
8672,8267
Z" /> 
<path style="fill:#000000; fill-opacity:1.0; 
stroke:#000000; stroke-width:0; stroke-opacity:1; 
stroke-linecap:round; stroke-linejoin:round;fill-rule:evenodd;"
d="M 8475,8267
8475,8602
8357,8602
8357,8267
8475,8267
Z" /> 
<path style="fill:#000000; fill-opacity:1.0; 
stroke:#000000; stroke-width:0; stroke-opacity:1; 
stroke-linecap:round; stroke-linejoin:round;fill-rule:evenodd;"
d="M 8278,8267
8278,8602
8160,8602
8160,8267
8278,8267
Z" /> 
<path style="fill:#000000; fill-opacity:1.0; 
stroke:#000000; stroke-width:0; stroke-opacity:1; 
stroke-linecap:round; stroke-linejoin:round;fill-rule:evenodd;"
d="M 8081,8267
8081,8602
7963,8602
7963,8267
8081,8267
Z" /> 
<path style="fill:#000000; fill-opacity:1.0; 
stroke:#000000; stroke-width:0; stroke-opacity:1; 
stroke-linecap:round; stroke-linejoin:round;fill-rule:evenodd;"
d="M 7885,8267
7885,8602
7767,8602
7767,8267
7885,8267
Z" /> 
<path style="fill:#000000; fill-opacity:1.0; 
stroke:#000000; stroke-width:0; stroke-opacity:1; 
stroke-linecap:round; stroke-linejoin:round;fill-rule:evenodd;"
d="M 7688,8267
7688,8602
7570,8602
7570,8267
7688,8267
Z" /> 
<path style="fill:#000000; fill-opacity:1.0; 
stroke:#000000; stroke-width:0; stroke-opacity:1; 
stroke-linecap:round; stroke-linejoin:round;fill-rule:evenodd;"
d="M 7186,8651
7520,8651
7520,8769
7186,8769
7186,8651
Z" /> 
<path style="fill:#000000; fill-opacity:1.0; 
stroke:#000000; stroke-width:0; stroke-opacity:1; 
stroke-linecap:round; stroke-linejoin:round;fill-rule:evenodd;"
d="M 7186,8848
7520,8848
7520,8966
7186,8966
7186,8848
Z" /> 
<path style="fill:#000000; fill-opacity:1.0; 
stroke:#000000; stroke-width:0; stroke-opacity:1; 
stroke-linecap:round; stroke-linejoin:round;fill-rule:evenodd;"
d="M 7186,9045
7520,9045
7520,9163
7186,9163
7186,9045
Z" /> 
<path style="fill:#000000; fill-opacity:1.0; 
stroke:#000000; stroke-width:0; stroke-opacity:1; 
stroke-linecap:round; stroke-linejoin:round;fill-rule:evenodd;"
d="M 7186,9242
7520,9242
7520,9360
7186,9360
7186,9242
Z" /> 
<path style="fill:#000000; fill-opacity:1.0; 
stroke:#000000; stroke-width:0; stroke-opacity:1; 
stroke-linecap:round; stroke-linejoin:round;fill-rule:evenodd;"
d="M 7186,9438
7520,9438
7520,9557
7186,9557
7186,9438
Z" /> 
<path style="fill:#000000; fill-opacity:1.0; 
stroke:#000000; stroke-width:0; stroke-opacity:1; 
stroke-linecap:round; stroke-linejoin:round;fill-rule:evenodd;"
d="M 7186,9635
7520,9635
7520,9753
7186,9753
7186,9635
Z" /> 
<path style="fill:#000000; fill-opacity:1.0; 
stroke:#000000; stroke-width:0; stroke-opacity:1; 
stroke-linecap:round; stroke-linejoin:round;fill-rule:evenodd;"
d="M 7186,9832
7520,9832
7520,9950
7186,9950
7186,9832
Z" /> 
<path style="fill:#000000; fill-opacity:1.0; 
stroke:#000000; stroke-width:0; stroke-opacity:1; 
stroke-linecap:round; stroke-linejoin:round;fill-rule:evenodd;"
d="M 7186,10029
7520,10029
7520,10147
7186,10147
7186,10029
Z" /> 
<path style="fill:#000000; fill-opacity:1.0; 
stroke:#000000; stroke-width:0; stroke-opacity:1; 
stroke-linecap:round; stroke-linejoin:round;fill-rule:evenodd;"
d="M 7186,10226
7520,10226
7520,10344
7186,10344
7186,10226
Z" /> 
<path style="fill:#000000; fill-opacity:1.0; 
stroke:#000000; stroke-width:0; stroke-opacity:1; 
stroke-linecap:round; stroke-linejoin:round;fill-rule:evenodd;"
d="M 7186,10423
7520,10423
7520,10541
7186,10541
7186,10423
Z" /> 
<path style="fill:#000000; fill-opacity:1.0; 
stroke:#000000; stroke-width:0; stroke-opacity:1; 
stroke-linecap:round; stroke-linejoin:round;fill-rule:evenodd;"
d="M 7186,10620
7520,10620
7520,10738
7186,10738
7186,10620
Z" /> 
<path style="fill:#000000; fill-opacity:1.0; 
stroke:#000000; stroke-width:0; stroke-opacity:1; 
stroke-linecap:round; stroke-linejoin:round;fill-rule:evenodd;"
d="M 7186,10816
7520,10816
7520,10934
7186,10934
7186,10816
Z" /> 
<path style="fill:#000000; fill-opacity:1.0; 
stroke:#000000; stroke-width:0; stroke-opacity:1; 
stroke-linecap:round; stroke-linejoin:round;fill-rule:evenodd;"
d="M 7688,10984
7688,11318
7570,11318
7570,10984
7688,10984
Z" /> 
<path style="fill:#000000; fill-opacity:1.0; 
stroke:#000000; stroke-width:0; stroke-opacity:1; 
stroke-linecap:round; stroke-linejoin:round;fill-rule:evenodd;"
d="M 7885,10984
7885,11318
7767,11318
7767,10984
7885,10984
Z" /> 
<path style="fill:#000000; fill-opacity:1.0; 
stroke:#000000; stroke-width:0; stroke-opacity:1; 
stroke-linecap:round; stroke-linejoin:round;fill-rule:evenodd;"
d="M 8081,10984
8081,11318
7963,11318
7963,10984
8081,10984
Z" /> 
<path style="fill:#000000; fill-opacity:1.0; 
stroke:#000000; stroke-width:0; stroke-opacity:1; 
stroke-linecap:round; stroke-linejoin:round;fill-rule:evenodd;"
d="M 8278,10984
8278,11318
8160,11318
8160,10984
8278,10984
Z" /> 
<path style="fill:#000000; fill-opacity:1.0; 
stroke:#000000; stroke-width:0; stroke-opacity:1; 
stroke-linecap:round; stroke-linejoin:round;fill-rule:evenodd;"
d="M 8475,10984
8475,11318
8357,11318
8357,10984
8475,10984
Z" /> 
<path style="fill:#000000; fill-opacity:1.0; 
stroke:#000000; stroke-width:0; stroke-opacity:1; 
stroke-linecap:round; stroke-linejoin:round;fill-rule:evenodd;"
d="M 8672,10984
8672,11318
8554,11318
8554,10984
8672,10984
Z" /> 
<path style="fill:#000000; fill-opacity:1.0; 
stroke:#000000; stroke-width:0; stroke-opacity:1; 
stroke-linecap:round; stroke-linejoin:round;fill-rule:evenodd;"
d="M 8869,10984
8869,11318
8751,11318
8751,10984
8869,10984
Z" /> 
<path style="fill:#000000; fill-opacity:1.0; 
stroke:#000000; stroke-width:0; stroke-opacity:1; 
stroke-linecap:round; stroke-linejoin:round;fill-rule:evenodd;"
d="M 9066,10984
9066,11318
8948,11318
8948,10984
9066,10984
Z" /> 
<path style="fill:#000000; fill-opacity:1.0; 
stroke:#000000; stroke-width:0; stroke-opacity:1; 
stroke-linecap:round; stroke-linejoin:round;fill-rule:evenodd;"
d="M 9263,10984
9263,11318
9144,11318
9144,10984
9263,10984
Z" /> 
<path style="fill:#000000; fill-opacity:1.0; 
stroke:#000000; stroke-width:0; stroke-opacity:1; 
stroke-linecap:round; stroke-linejoin:round;fill-rule:evenodd;"
d="M 9459,10984
9459,11318
9341,11318
9341,10984
9459,10984
Z" /> 
<path style="fill:#000000; fill-opacity:1.0; 
stroke:#000000; stroke-width:0; stroke-opacity:1; 
stroke-linecap:round; stroke-linejoin:round;fill-rule:evenodd;"
d="M 9656,10984
9656,11318
9538,11318
9538,10984
9656,10984
Z" /> 
<path style="fill:#000000; fill-opacity:1.0; 
stroke:#000000; stroke-width:0; stroke-opacity:1; 
stroke-linecap:round; stroke-linejoin:round;fill-rule:evenodd;"
d="M 9853,10984
9853,11318
9735,11318
9735,10984
9853,10984
Z" /> 
<path style="fill:#000000; fill-opacity:1.0; 
stroke:#000000; stroke-width:0; stroke-opacity:1; 
stroke-linecap:round; stroke-linejoin:round;fill-rule:evenodd;"
d="M 9745,8759
9745,10826
7678,10826
7678,8759
9745,8759
Z" /> 
</g>
<g >
</g>
<g >
</g>
<g style="fill:#000000; fill-opacity:1.0; 
stroke:#000000; stroke-width:0; stroke-opacity:1; 
stroke-linecap:round; stroke-linejoin:round;">
<path style="fill:#000000; fill-opacity:1.0; 
stroke:#000000; stroke-width:0; stroke-opacity:1; 
stroke-linecap:round; stroke-linejoin:round;fill-rule:evenodd;"
d="M 18106,13357
18106,13750
17397,13750
17397,13357
18106,13357
Z" /> 
<path style="fill:#000000; fill-opacity:1.0; 
stroke:#000000; stroke-width:0; stroke-opacity:1; 
stroke-linecap:round; stroke-linejoin:round;fill-rule:evenodd;"
d="M 18106,12569
18106,12963
17397,12963
17397,12569
18106,12569
Z" /> 
<path style="fill:#000000; fill-opacity:1.0; 
stroke:#000000; stroke-width:0; stroke-opacity:1; 
stroke-linecap:round; stroke-linejoin:round;fill-rule:evenodd;"
d="M 18106,11782
18106,12176
17397,12176
17397,11782
18106,11782
Z" /> 
<path style="fill:#000000; fill-opacity:1.0; 
stroke:#000000; stroke-width:0; stroke-opacity:1; 
stroke-linecap:round; stroke-linejoin:round;fill-rule:evenodd;"
d="M 18106,10995
18106,11388
17397,11388
17397,10995
18106,10995
Z" /> 
<path style="fill:#000000; fill-opacity:1.0; 
stroke:#000000; stroke-width:0; stroke-opacity:1; 
stroke-linecap:round; stroke-linejoin:round;fill-rule:evenodd;"
d="M 18106,10207
18106,10601
17397,10601
17397,10207
18106,10207
Z" /> 
<path style="fill:#000000; fill-opacity:1.0; 
stroke:#000000; stroke-width:0; stroke-opacity:1; 
stroke-linecap:round; stroke-linejoin:round;fill-rule:evenodd;"
d="M 18106,9420
18106,9813
17397,9813
17397,9420
18106,9420
Z" /> 
<path style="fill:#000000; fill-opacity:1.0; 
stroke:#000000; stroke-width:0; stroke-opacity:1; 
stroke-linecap:round; stroke-linejoin:round;fill-rule:evenodd;"
d="M 18106,8632
18106,9026
17397,9026
17397,8632
18106,8632
Z" /> 
<path style="fill:#000000; fill-opacity:1.0; 
stroke:#000000; stroke-width:0; stroke-opacity:1; 
stroke-linecap:round; stroke-linejoin:round;fill-rule:evenodd;"
d="M 18106,7845
18106,8239
17397,8239
17397,7845
18106,7845
Z" /> 
<path style="fill:#000000; fill-opacity:1.0; 
stroke:#000000; stroke-width:0; stroke-opacity:1; 
stroke-linecap:round; stroke-linejoin:round;fill-rule:evenodd;"
d="M 11885,7845
11885,8239
11177,8239
11177,7845
11885,7845
Z" /> 
<path style="fill:#000000; fill-opacity:1.0; 
stroke:#000000; stroke-width:0; stroke-opacity:1; 
stroke-linecap:round; stroke-linejoin:round;fill-rule:evenodd;"
d="M 11885,8632
11885,9026
11177,9026
11177,8632
11885,8632
Z" /> 
<path style="fill:#000000; fill-opacity:1.0; 
stroke:#000000; stroke-width:0; stroke-opacity:1; 
stroke-linecap:round; stroke-linejoin:round;fill-rule:evenodd;"
d="M 11885,9420
11885,9813
11177,9813
11177,9420
11885,9420
Z" /> 
<path style="fill:#000000; fill-opacity:1.0; 
stroke:#000000; stroke-width:0; stroke-opacity:1; 
stroke-linecap:round; stroke-linejoin:round;fill-rule:evenodd;"
d="M 11885,10207
11885,10601
11177,10601
11177,10207
11885,10207
Z" /> 
<path style="fill:#000000; fill-opacity:1.0; 
stroke:#000000; stroke-width:0; stroke-opacity:1; 
stroke-linecap:round; stroke-linejoin:round;fill-rule:evenodd;"
d="M 11885,10995
11885,11388
11177,11388
11177,10995
11885,10995
Z" /> 
<path style="fill:#000000; fill-opacity:1.0; 
stroke:#000000; stroke-width:0; stroke-opacity:1; 
stroke-linecap:round; stroke-linejoin:round;fill-rule:evenodd;"
d="M 11885,11782
11885,12176
11177,12176
11177,11782
11885,11782
Z" /> 
<path style="fill:#000000; fill-opacity:1.0; 
stroke:#000000; stroke-width:0; stroke-opacity:1; 
stroke-linecap:round; stroke-linejoin:round;fill-rule:evenodd;"
d="M 11885,12569
11885,12963
11177,12963
11177,12569
11885,12569
Z" /> 
<path style="fill:#000000; fill-opacity:1.0; 
stroke:#000000; stroke-width:0; stroke-opacity:1; 
stroke-linecap:round; stroke-linejoin:round;fill-rule:evenodd;"
d="M 11885,13357
11885,13750
11177,13750
11177,13357
11885,13357
Z" /> 
</g>
<g >
</g>
<g style="fill:#000000; fill-opacity:1.0; 
stroke:#000000; stroke-width:0; stroke-opacity:1; 
stroke-linecap:round; stroke-linejoin:round;">
<path style="fill:#000000; fill-opacity:1.0; 
stroke:#000000; stroke-width:0; stroke-opacity:1; 
stroke-linecap:round; stroke-linejoin:round;fill-rule:evenodd;"
d="M 9594,12466
9594,12732
9495,12732
9495,12466
9594,12466
Z" /> 
<path style="fill:#000000; fill-opacity:1.0; 
stroke:#000000; stroke-width:0; stroke-opacity:1; 
stroke-linecap:round; stroke-linejoin:round;fill-rule:evenodd;"
d="M 9791,12466
9791,12732
9692,12732
9692,12466
9791,12466
Z" /> 
<path style="fill:#000000; fill-opacity:1.0; 
stroke:#000000; stroke-width:0; stroke-opacity:1; 
stroke-linecap:round; stroke-linejoin:round;fill-rule:evenodd;"
d="M 9987,12466
9987,12732
9889,12732
9889,12466
9987,12466
Z" /> 
<path style="fill:#000000; fill-opacity:1.0; 
stroke:#000000; stroke-width:0; stroke-opacity:1; 
stroke-linecap:round; stroke-linejoin:round;fill-rule:evenodd;"
d="M 10105,12653
10371,12653
10371,12752
10105,12752
10105,12653
Z" /> 
<path style="fill:#000000; fill-opacity:1.0; 
stroke:#000000; stroke-width:0; stroke-opacity:1; 
stroke-linecap:round; stroke-linejoin:round;fill-rule:evenodd;"
d="M 10105,12850
10371,12850
10371,12949
10105,12949
10105,12850
Z" /> 
<path style="fill:#000000; fill-opacity:1.0; 
stroke:#000000; stroke-width:0; stroke-opacity:1; 
stroke-linecap:round; stroke-linejoin:round;fill-rule:evenodd;"
d="M 10105,13047
10371,13047
10371,13145
10105,13145
10105,13047
Z" /> 
<path style="fill:#000000; fill-opacity:1.0; 
stroke:#000000; stroke-width:0; stroke-opacity:1; 
stroke-linecap:round; stroke-linejoin:round;fill-rule:evenodd;"
d="M 10105,13244
10371,13244
10371,13342
10105,13342
10105,13244
Z" /> 
<path style="fill:#000000; fill-opacity:1.0; 
stroke:#000000; stroke-width:0; stroke-opacity:1; 
stroke-linecap:round; stroke-linejoin:round;fill-rule:evenodd;"
d="M 9987,13263
9987,13529
9889,13529
9889,13263
9987,13263
Z" /> 
<path style="fill:#000000; fill-opacity:1.0; 
stroke:#000000; stroke-width:0; stroke-opacity:1; 
stroke-linecap:round; stroke-linejoin:round;fill-rule:evenodd;"
d="M 9791,13263
9791,13529
9692,13529
9692,13263
9791,13263
Z" /> 
<path style="fill:#000000; fill-opacity:1.0; 
stroke:#000000; stroke-width:0; stroke-opacity:1; 
stroke-linecap:round; stroke-linejoin:round;fill-rule:evenodd;"
d="M 9594,13263
9594,13529
9495,13529
9495,13263
9594,13263
Z" /> 
<path style="fill:#000000; fill-opacity:1.0; 
stroke:#000000; stroke-width:0; stroke-opacity:1; 
stroke-linecap:round; stroke-linejoin:round;fill-rule:evenodd;"
d="M 9112,13244
9377,13244
9377,13342
9112,13342
9112,13244
Z" /> 
<path style="fill:#000000; fill-opacity:1.0; 
stroke:#000000; stroke-width:0; stroke-opacity:1; 
stroke-linecap:round; stroke-linejoin:round;fill-rule:evenodd;"
d="M 9112,13047
9377,13047
9377,13145
9112,13145
9112,13047
Z" /> 
<path style="fill:#000000; fill-opacity:1.0; 
stroke:#000000; stroke-width:0; stroke-opacity:1; 
stroke-linecap:round; stroke-linejoin:round;fill-rule:evenodd;"
d="M 9112,12850
9377,12850
9377,12949
9112,12949
9112,12850
Z" /> 
<path style="fill:#000000; fill-opacity:1.0; 
stroke:#000000; stroke-width:0; stroke-opacity:1; 
stroke-linecap:round; stroke-linejoin:round;fill-rule:evenodd;"
d="M 9112,12653
9377,12653
9377,12752
9112,12752
9112,12653
Z" /> 
</g>
<g >
</g>
<g >
</g>
<g >
</g>
<g style="fill:#000000; fill-opacity:1.0; 
stroke:#000000; stroke-width:0; stroke-opacity:1; 
stroke-linecap:round; stroke-linejoin:round;">
<path style="fill:#000000; fill-opacity:1.0; 
stroke:#000000; stroke-width:0; stroke-opacity:1; 
stroke-linecap:round; stroke-linejoin:round;fill-rule:evenodd;"
d="M 2214,5322
2220,5323
2225,5324
2231,5326
2236,5329
2241,5332
2245,5335
2250,5339
2253,5343
2257,5348
2260,5352
2262,5358
2264,5363
2265,5368
2266,5374
2267,5380
2267,5516
2266,5521
2265,5527
2264,5532
2262,5538
2260,5543
2257,5548
2253,5552
2250,5557
2245,5561
2241,5564
2236,5567
2231,5569
2225,5571
2220,5573
2214,5573
2209,5574
2092,5574
2087,5573
2081,5573
2076,5571
2070,5569
2065,5567
2060,5564
2056,5561
2051,5557
2047,5552
2044,5548
2041,5543
2039,5538
2037,5532
2035,5527
2035,5521
2034,5516
2034,5380
2035,5374
2035,5368
2037,5363
2039,5358
2041,5352
2044,5348
2047,5343
2051,5339
2056,5335
2060,5332
2065,5329
2070,5326
2076,5324
2081,5323
2087,5322
2092,5322
2209,5322
2214,5322
Z" /> 
<path style="fill:#000000; fill-opacity:1.0; 
stroke:#000000; stroke-width:0; stroke-opacity:1; 
stroke-linecap:round; stroke-linejoin:round;fill-rule:evenodd;"
d="M 2596,5322
2602,5323
2607,5324
2613,5326
2618,5329
2623,5332
2627,5335
2631,5339
2635,5343
2639,5348
2642,5352
2644,5358
2646,5363
2647,5368
2648,5374
2648,5380
2648,5516
2648,5521
2647,5527
2646,5532
2644,5538
2642,5543
2639,5548
2635,5552
2631,5557
2627,5561
2623,5564
2618,5567
2613,5569
2607,5571
2602,5573
2596,5573
2590,5574
2474,5574
2469,5573
2463,5573
2457,5571
2452,5569
2447,5567
2442,5564
2437,5561
2433,5557
2429,5552
2426,5548
2423,5543
2421,5538
2419,5532
2417,5527
2416,5521
2416,5516
2416,5380
2416,5374
2417,5368
2419,5363
2421,5358
2423,5352
2426,5348
2429,5343
2433,5339
2437,5335
2442,5332
2447,5329
2452,5326
2457,5324
2463,5323
2469,5322
2474,5322
2590,5322
2596,5322
Z" /> 
</g>
<g >
</g>
<g >
</g>
<g style="fill:#000000; fill-opacity:1.0; 
stroke:#000000; stroke-width:0; stroke-opacity:1; 
stroke-linecap:round; stroke-linejoin:round;">
<path style="fill:#000000; fill-opacity:1.0; 
stroke:#000000; stroke-width:0; stroke-opacity:1; 
stroke-linecap:round; stroke-linejoin:round;fill-rule:evenodd;"
d="M 10840,12791
10846,12792
10851,12793
10857,12795
10862,12797
10867,12800
10871,12804
10875,12808
10879,12812
10883,12816
10886,12821
10888,12826
10890,12832
10891,12837
10892,12843
10892,12849
10892,12965
10892,12971
10891,12976
10890,12982
10888,12987
10886,12992
10883,12997
10879,13002
10875,13006
10871,13010
10867,13013
10862,13016
10857,13019
10851,13020
10846,13022
10840,13023
10834,13023
10698,13023
10693,13023
10687,13022
10682,13020
10676,13019
10671,13016
10666,13013
10662,13010
10657,13006
10654,13002
10650,12997
10647,12992
10645,12987
10643,12982
10642,12976
10641,12971
10640,12965
10640,12849
10641,12843
10642,12837
10643,12832
10645,12826
10647,12821
10650,12816
10654,12812
10657,12808
10662,12804
10666,12800
10671,12797
10676,12795
10682,12793
10687,12792
10693,12791
10698,12791
10834,12791
10840,12791
Z" /> 
<path style="fill:#000000; fill-opacity:1.0; 
stroke:#000000; stroke-width:0; stroke-opacity:1; 
stroke-linecap:round; stroke-linejoin:round;fill-rule:evenodd;"
d="M 10840,13173
10846,13174
10851,13175
10857,13177
10862,13179
10867,13182
10871,13186
10875,13190
10879,13194
10883,13198
10886,13203
10888,13208
10890,13214
10891,13219
10892,13225
10892,13231
10892,13347
10892,13352
10891,13358
10890,13364
10888,13369
10886,13374
10883,13379
10879,13384
10875,13388
10871,13392
10867,13395
10862,13398
10857,13400
10851,13402
10846,13404
10840,13405
10834,13405
10698,13405
10693,13405
10687,13404
10682,13402
10676,13400
10671,13398
10666,13395
10662,13392
10657,13388
10654,13384
10650,13379
10647,13374
10645,13369
10643,13364
10642,13358
10641,13352
10640,13347
10640,13231
10641,13225
10642,13219
10643,13214
10645,13208
10647,13203
10650,13198
10654,13194
10657,13190
10662,13186
10666,13182
10671,13179
10676,13177
10682,13175
10687,13174
10693,13173
10698,13173
10834,13173
10840,13173
Z" /> 
</g>
<g >
</g>
<g style="fill:#000000; fill-opacity:1.0; 
stroke:#000000; stroke-width:0; stroke-opacity:1; 
stroke-linecap:round; stroke-linejoin:round;">
<path style="fill:#000000; fill-opacity:1.0; 
stroke:#000000; stroke-width:0; stroke-opacity:1; 
stroke-linecap:round; stroke-linejoin:round;fill-rule:evenodd;"
d="M 8615,12141
8621,12142
8626,12143
8632,12145
8637,12147
8642,12150
8646,12154
8650,12158
8654,12162
8658,12166
8661,12171
8663,12176
8665,12182
8666,12187
8667,12193
8667,12199
8667,12315
8667,12321
8666,12326
8665,12332
8663,12337
8661,12342
8658,12347
8654,12352
8650,12356
8646,12360
8642,12363
8637,12366
8632,12369
8626,12370
8621,12372
8615,12373
8609,12373
8473,12373
8468,12373
8462,12372
8457,12370
8451,12369
8446,12366
8441,12363
8437,12360
8432,12356
8429,12352
8425,12347
8422,12342
8420,12337
8418,12332
8417,12326
8416,12321
8415,12315
8415,12199
8416,12193
8417,12187
8418,12182
8420,12176
8422,12171
8425,12166
8429,12162
8432,12158
8437,12154
8441,12150
8446,12147
8451,12145
8457,12143
8462,12142
8468,12141
8473,12141
8609,12141
8615,12141
Z" /> 
<path style="fill:#000000; fill-opacity:1.0; 
stroke:#000000; stroke-width:0; stroke-opacity:1; 
stroke-linecap:round; stroke-linejoin:round;fill-rule:evenodd;"
d="M 8615,12523
8621,12524
8626,12525
8632,12527
8637,12529
8642,12532
8646,12536
8650,12540
8654,12544
8658,12548
8661,12553
8663,12558
8665,12564
8666,12569
8667,12575
8667,12581
8667,12697
8667,12702
8666,12708
8665,12714
8663,12719
8661,12724
8658,12729
8654,12734
8650,12738
8646,12742
8642,12745
8637,12748
8632,12750
8626,12752
8621,12754
8615,12755
8609,12755
8473,12755
8468,12755
8462,12754
8457,12752
8451,12750
8446,12748
8441,12745
8437,12742
8432,12738
8429,12734
8425,12729
8422,12724
8420,12719
8418,12714
8417,12708
8416,12702
8415,12697
8415,12581
8416,12575
8417,12569
8418,12564
8420,12558
8422,12553
8425,12548
8429,12544
8432,12540
8437,12536
8441,12532
8446,12529
8451,12527
8457,12525
8462,12524
8468,12523
8473,12523
8609,12523
8615,12523
Z" /> 
</g>
<g >
</g>
<g style="fill:#000000; fill-opacity:1.0; 
stroke:#000000; stroke-width:0; stroke-opacity:1; 
stroke-linecap:round; stroke-linejoin:round;">
<path style="fill:#000000; fill-opacity:1.0; 
stroke:#000000; stroke-width:0; stroke-opacity:1; 
stroke-linecap:round; stroke-linejoin:round;fill-rule:evenodd;"
d="M 10876,3256
10876,3689
10778,3689
10778,3256
10876,3256
Z" /> 
<path style="fill:#000000; fill-opacity:1.0; 
stroke:#000000; stroke-width:0; stroke-opacity:1; 
stroke-linecap:round; stroke-linejoin:round;fill-rule:evenodd;"
d="M 10680,3256
10680,3689
10581,3689
10581,3256
10680,3256
Z" /> 
<path style="fill:#000000; fill-opacity:1.0; 
stroke:#000000; stroke-width:0; stroke-opacity:1; 
stroke-linecap:round; stroke-linejoin:round;fill-rule:evenodd;"
d="M 10483,3256
10483,3689
10384,3689
10384,3256
10483,3256
Z" /> 
<path style="fill:#000000; fill-opacity:1.0; 
stroke:#000000; stroke-width:0; stroke-opacity:1; 
stroke-linecap:round; stroke-linejoin:round;fill-rule:evenodd;"
d="M 10286,3256
10286,3689
10187,3689
10187,3256
10286,3256
Z" /> 
<path style="fill:#000000; fill-opacity:1.0; 
stroke:#000000; stroke-width:0; stroke-opacity:1; 
stroke-linecap:round; stroke-linejoin:round;fill-rule:evenodd;"
d="M 10089,3256
10089,3689
9991,3689
9991,3256
10089,3256
Z" /> 
<path style="fill:#000000; fill-opacity:1.0; 
stroke:#000000; stroke-width:0; stroke-opacity:1; 
stroke-linecap:round; stroke-linejoin:round;fill-rule:evenodd;"
d="M 9892,3256
9892,3689
9794,3689
9794,3256
9892,3256
Z" /> 
<path style="fill:#000000; fill-opacity:1.0; 
stroke:#000000; stroke-width:0; stroke-opacity:1; 
stroke-linecap:round; stroke-linejoin:round;fill-rule:evenodd;"
d="M 9695,3256
9695,3689
9597,3689
9597,3256
9695,3256
Z" /> 
<path style="fill:#000000; fill-opacity:1.0; 
stroke:#000000; stroke-width:0; stroke-opacity:1; 
stroke-linecap:round; stroke-linejoin:round;fill-rule:evenodd;"
d="M 9498,3256
9498,3689
9400,3689
9400,3256
9498,3256
Z" /> 
<path style="fill:#000000; fill-opacity:1.0; 
stroke:#000000; stroke-width:0; stroke-opacity:1; 
stroke-linecap:round; stroke-linejoin:round;fill-rule:evenodd;"
d="M 9302,3256
9302,3689
9203,3689
9203,3256
9302,3256
Z" /> 
<path style="fill:#000000; fill-opacity:1.0; 
stroke:#000000; stroke-width:0; stroke-opacity:1; 
stroke-linecap:round; stroke-linejoin:round;fill-rule:evenodd;"
d="M 9105,3256
9105,3689
9006,3689
9006,3256
9105,3256
Z" /> 
<path style="fill:#000000; fill-opacity:1.0; 
stroke:#000000; stroke-width:0; stroke-opacity:1; 
stroke-linecap:round; stroke-linejoin:round;fill-rule:evenodd;"
d="M 11142,1642
11811,1642
11811,2233
11142,2233
11142,1642
Z" /> 
<path style="fill:#000000; fill-opacity:1.0; 
stroke:#000000; stroke-width:0; stroke-opacity:1; 
stroke-linecap:round; stroke-linejoin:round;fill-rule:evenodd;"
d="M 8071,1642
8741,1642
8741,2233
8071,2233
8071,1642
Z" /> 
</g>
<g >
</g>
<g style="fill:#000000; fill-opacity:1.0; 
stroke:#000000; stroke-width:0; stroke-opacity:1; 
stroke-linecap:round; stroke-linejoin:round;">
<path style="fill:#000000; fill-opacity:1.0; 
stroke:#000000; stroke-width:0; stroke-opacity:1; 
stroke-linecap:round; stroke-linejoin:round;fill-rule:evenodd;"
d="M 3553,10566
3730,10566
3730,10802
3553,10802
3553,10566
Z" /> 
<path style="fill:#000000; fill-opacity:1.0; 
stroke:#000000; stroke-width:0; stroke-opacity:1; 
stroke-linecap:round; stroke-linejoin:round;fill-rule:evenodd;"
d="M 3553,11393
3730,11393
3730,11629
3553,11629
3553,11393
Z" /> 
</g>
<g >
</g>
<g >
</g>
<g >
</g>
<g >
</g>
<g >
</g>
<g >
</g>
<g style="fill:#000000; fill-opacity:1.0; 
stroke:#000000; stroke-width:0; stroke-opacity:1; 
stroke-linecap:round; stroke-linejoin:round;">
<path style="fill:#000000; fill-opacity:1.0; 
stroke:#000000; stroke-width:0; stroke-opacity:1; 
stroke-linecap:round; stroke-linejoin:round;fill-rule:evenodd;"
d="M 3058,11564
2526,11564
2526,11387
3058,11387
3058,11564
Z" /> 
<path style="fill:#000000; fill-opacity:1.0; 
stroke:#000000; stroke-width:0; stroke-opacity:1; 
stroke-linecap:round; stroke-linejoin:round;fill-rule:evenodd;"
d="M 3058,11820
2526,11820
2526,11642
3058,11642
3058,11820
Z" /> 
<path style="fill:#000000; fill-opacity:1.0; 
stroke:#000000; stroke-width:0; stroke-opacity:1; 
stroke-linecap:round; stroke-linejoin:round;fill-rule:evenodd;"
d="M 3058,12076
2526,12076
2526,11898
3058,11898
3058,12076
Z" /> 
<path style="fill:#000000; fill-opacity:1.0; 
stroke:#000000; stroke-width:0; stroke-opacity:1; 
stroke-linecap:round; stroke-linejoin:round;fill-rule:evenodd;"
d="M 3058,12331
2526,12331
2526,12154
3058,12154
3058,12331
Z" /> 
<path style="fill:#000000; fill-opacity:1.0; 
stroke:#000000; stroke-width:0; stroke-opacity:1; 
stroke-linecap:round; stroke-linejoin:round;fill-rule:evenodd;"
d="M 3058,12587
2526,12587
2526,12410
3058,12410
3058,12587
Z" /> 
<path style="fill:#000000; fill-opacity:1.0; 
stroke:#000000; stroke-width:0; stroke-opacity:1; 
stroke-linecap:round; stroke-linejoin:round;fill-rule:evenodd;"
d="M 1434,11298
2044,11298
2044,11889
1434,11889
1434,11298
Z" /> 
<path style="fill:#000000; fill-opacity:1.0; 
stroke:#000000; stroke-width:0; stroke-opacity:1; 
stroke-linecap:round; stroke-linejoin:round;fill-rule:evenodd;"
d="M 1434,12085
2044,12085
2044,12676
1434,12676
1434,12085
Z" /> 
<path style="fill:#000000; fill-opacity:1.0; 
stroke:#000000; stroke-width:0; stroke-opacity:1; 
stroke-linecap:round; stroke-linejoin:round;fill-rule:evenodd;"
d="M 1434,10491
2044,10491
2044,11081
1434,11081
1434,10491
Z" /> 
<path style="fill:#000000; fill-opacity:1.0; 
stroke:#000000; stroke-width:0; stroke-opacity:1; 
stroke-linecap:round; stroke-linejoin:round;fill-rule:evenodd;"
d="M 1434,12892
2044,12892
2044,13483
1434,13483
1434,12892
Z" /> 
</g>
<g >
</g>
<g style="fill:#000000; fill-opacity:1.0; 
stroke:#000000; stroke-width:0; stroke-opacity:1; 
stroke-linecap:round; stroke-linejoin:round;">
<circle cx="4376.92" cy="11591.9" r="66.9289" /> 
</g>
<g style="fill:#000000; fill-opacity:1.0; 
stroke:#000000; stroke-width:39.3701; stroke-opacity:1; 
stroke-linecap:round; stroke-linejoin:round;">
</g>
<g style="fill:#000000; fill-opacity:1.0; 
stroke:#000000; stroke-width:0; stroke-opacity:1; 
stroke-linecap:round; stroke-linejoin:round;">
<circle cx="4376.92" cy="11198.2" r="66.9289" /> 
</g>
<g style="fill:#000000; fill-opacity:1.0; 
stroke:#000000; stroke-width:39.3701; stroke-opacity:1; 
stroke-linecap:round; stroke-linejoin:round;">
</g>
<g style="fill:#000000; fill-opacity:1.0; 
stroke:#000000; stroke-width:0; stroke-opacity:1; 
stroke-linecap:round; stroke-linejoin:round;">
<circle cx="4376.92" cy="10804.5" r="66.9289" /> 
</g>
<g style="fill:#000000; fill-opacity:1.0; 
stroke:#000000; stroke-width:39.3701; stroke-opacity:1; 
stroke-linecap:round; stroke-linejoin:round;">
</g>
<g style="fill:#000000; fill-opacity:1.0; 
stroke:#000000; stroke-width:0; stroke-opacity:1; 
stroke-linecap:round; stroke-linejoin:round;">
<circle cx="4691.88" cy="11591.9" r="66.9289" /> 
</g>
<g style="fill:#000000; fill-opacity:1.0; 
stroke:#000000; stroke-width:39.3701; stroke-opacity:1; 
stroke-linecap:round; stroke-linejoin:round;">
</g>
<g style="fill:#000000; fill-opacity:1.0; 
stroke:#000000; stroke-width:0; stroke-opacity:1; 
stroke-linecap:round; stroke-linejoin:round;">
<circle cx="4691.88" cy="11198.2" r="66.9289" /> 
</g>
<g style="fill:#000000; fill-opacity:1.0; 
stroke:#000000; stroke-width:39.3701; stroke-opacity:1; 
stroke-linecap:round; stroke-linejoin:round;">
</g>
<g style="fill:#000000; fill-opacity:1.0; 
stroke:#000000; stroke-width:0; stroke-opacity:1; 
stroke-linecap:round; stroke-linejoin:round;">
<circle cx="4691.88" cy="10804.5" r="66.9289" /> 
</g>
<g style="fill:#000000; fill-opacity:1.0; 
stroke:#000000; stroke-width:39.3701; stroke-opacity:1; 
stroke-linecap:round; stroke-linejoin:round;">
</g>
<g style="fill:#000000; fill-opacity:1.0; 
stroke:#000000; stroke-width:0; stroke-opacity:1; 
stroke-linecap:round; stroke-linejoin:round;">
<circle cx="5006.84" cy="11591.9" r="66.9289" /> 
</g>
<g style="fill:#000000; fill-opacity:1.0; 
stroke:#000000; stroke-width:39.3701; stroke-opacity:1; 
stroke-linecap:round; stroke-linejoin:round;">
</g>
<g style="fill:#000000; fill-opacity:1.0; 
stroke:#000000; stroke-width:0; stroke-opacity:1; 
stroke-linecap:round; stroke-linejoin:round;">
<circle cx="5006.84" cy="11198.2" r="66.9289" /> 
</g>
<g style="fill:#000000; fill-opacity:1.0; 
stroke:#000000; stroke-width:39.3701; stroke-opacity:1; 
stroke-linecap:round; stroke-linejoin:round;">
</g>
<g style="fill:#000000; fill-opacity:1.0; 
stroke:#000000; stroke-width:0; stroke-opacity:1; 
stroke-linecap:round; stroke-linejoin:round;">
<circle cx="5006.84" cy="10804.5" r="66.9289" /> 
</g>
<g style="fill:#000000; fill-opacity:1.0; 
stroke:#000000; stroke-width:39.3701; stroke-opacity:1; 
stroke-linecap:round; stroke-linejoin:round;">
</g>
<g >
</g>
<g style="fill:#000000; fill-opacity:1.0; 
stroke:#000000; stroke-width:39.3701; stroke-opacity:1; 
stroke-linecap:round; stroke-linejoin:round;">
</g>
<g style="fill:#000000; fill-opacity:1.0; 
stroke:#000000; stroke-width:0; stroke-opacity:1; 
stroke-linecap:round; stroke-linejoin:round;">
<path style="fill:#000000; fill-opacity:1.0; 
stroke:#000000; stroke-width:0; stroke-opacity:1; 
stroke-linecap:round; stroke-linejoin:round;fill-rule:evenodd;"
d="M 8090,12523
8096,12524
8101,12525
8107,12527
8112,12529
8117,12532
8121,12536
8125,12540
8129,12544
8133,12548
8136,12553
8138,12558
8140,12564
8141,12569
8142,12575
8142,12581
8142,12697
8142,12702
8141,12708
8140,12714
8138,12719
8136,12724
8133,12729
8129,12734
8125,12738
8121,12742
8117,12745
8112,12748
8107,12750
8101,12752
8096,12754
8090,12755
8084,12755
7948,12755
7943,12755
7937,12754
7932,12752
7926,12750
7921,12748
7916,12745
7912,12742
7907,12738
7904,12734
7900,12729
7897,12724
7895,12719
7893,12714
7892,12708
7891,12702
7890,12697
7890,12581
7891,12575
7892,12569
7893,12564
7895,12558
7897,12553
7900,12548
7904,12544
7907,12540
7912,12536
7916,12532
7921,12529
7926,12527
7932,12525
7937,12524
7943,12523
7948,12523
8084,12523
8090,12523
Z" /> 
<path style="fill:#000000; fill-opacity:1.0; 
stroke:#000000; stroke-width:0; stroke-opacity:1; 
stroke-linecap:round; stroke-linejoin:round;fill-rule:evenodd;"
d="M 8090,12141
8096,12142
8101,12143
8107,12145
8112,12147
8117,12150
8121,12154
8125,12158
8129,12162
8133,12166
8136,12171
8138,12176
8140,12182
8141,12187
8142,12193
8142,12199
8142,12315
8142,12321
8141,12326
8140,12332
8138,12337
8136,12342
8133,12347
8129,12352
8125,12356
8121,12360
8117,12363
8112,12366
8107,12369
8101,12370
8096,12372
8090,12373
8084,12373
7948,12373
7943,12373
7937,12372
7932,12370
7926,12369
7921,12366
7916,12363
7912,12360
7907,12356
7904,12352
7900,12347
7897,12342
7895,12337
7893,12332
7892,12326
7891,12321
7890,12315
7890,12199
7891,12193
7892,12187
7893,12182
7895,12176
7897,12171
7900,12166
7904,12162
7907,12158
7912,12154
7916,12150
7921,12147
7926,12145
7932,12143
7937,12142
7943,12141
7948,12141
8084,12141
8090,12141
Z" /> 
</g>
<g >
</g>
<g style="fill:#000000; fill-opacity:1.0; 
stroke:#000000; stroke-width:0; stroke-opacity:1; 
stroke-linecap:round; stroke-linejoin:round;">
<path style="fill:#000000; fill-opacity:1.0; 
stroke:#000000; stroke-width:0; stroke-opacity:1; 
stroke-linecap:round; stroke-linejoin:round;fill-rule:evenodd;"
d="M 5065,9898
5071,9899
5076,9900
5082,9902
5087,9904
5092,9907
5096,9911
5100,9915
5104,9919
5108,9923
5111,9928
5113,9933
5115,9939
5116,9944
5117,9950
5117,9956
5117,10072
5117,10077
5116,10083
5115,10089
5113,10094
5111,10099
5108,10104
5104,10109
5100,10113
5096,10117
5092,10120
5087,10123
5082,10125
5076,10127
5071,10129
5065,10130
5059,10130
4923,10130
4918,10130
4912,10129
4907,10127
4901,10125
4896,10123
4891,10120
4887,10117
4882,10113
4879,10109
4875,10104
4872,10099
4870,10094
4868,10089
4867,10083
4866,10077
4865,10072
4865,9956
4866,9950
4867,9944
4868,9939
4870,9933
4872,9928
4875,9923
4879,9919
4882,9915
4887,9911
4891,9907
4896,9904
4901,9902
4907,9900
4912,9899
4918,9898
4923,9898
5059,9898
5065,9898
Z" /> 
<path style="fill:#000000; fill-opacity:1.0; 
stroke:#000000; stroke-width:0; stroke-opacity:1; 
stroke-linecap:round; stroke-linejoin:round;fill-rule:evenodd;"
d="M 5065,9516
5071,9517
5076,9518
5082,9520
5087,9522
5092,9525
5096,9529
5100,9533
5104,9537
5108,9541
5111,9546
5113,9551
5115,9557
5116,9562
5117,9568
5117,9574
5117,9690
5117,9696
5116,9701
5115,9707
5113,9712
5111,9717
5108,9722
5104,9727
5100,9731
5096,9735
5092,9738
5087,9741
5082,9744
5076,9745
5071,9747
5065,9748
5059,9748
4923,9748
4918,9748
4912,9747
4907,9745
4901,9744
4896,9741
4891,9738
4887,9735
4882,9731
4879,9727
4875,9722
4872,9717
4870,9712
4868,9707
4867,9701
4866,9696
4865,9690
4865,9574
4866,9568
4867,9562
4868,9557
4870,9551
4872,9546
4875,9541
4879,9537
4882,9533
4887,9529
4891,9525
4896,9522
4901,9520
4907,9518
4912,9517
4918,9516
4923,9516
5059,9516
5065,9516
Z" /> 
</g>
<g >
</g>
<g style="fill:#000000; fill-opacity:1.0; 
stroke:#000000; stroke-width:0; stroke-opacity:1; 
stroke-linecap:round; stroke-linejoin:round;">
<path style="fill:#000000; fill-opacity:1.0; 
stroke:#000000; stroke-width:0; stroke-opacity:1; 
stroke-linecap:round; stroke-linejoin:round;fill-rule:evenodd;"
d="M 4207,12660
4207,12306
4561,12306
4561,12660
4207,12660
Z" /> 
<path style="fill:#000000; fill-opacity:1.0; 
stroke:#000000; stroke-width:0; stroke-opacity:1; 
stroke-linecap:round; stroke-linejoin:round;fill-rule:evenodd;"
d="M 4207,13290
4207,12936
4561,12936
4561,13290
4207,13290
Z" /> 
<path style="fill:#000000; fill-opacity:1.0; 
stroke:#000000; stroke-width:0; stroke-opacity:1; 
stroke-linecap:round; stroke-linejoin:round;fill-rule:evenodd;"
d="M 5821,13290
5821,12936
6176,12936
6176,13290
5821,13290
Z" /> 
<path style="fill:#000000; fill-opacity:1.0; 
stroke:#000000; stroke-width:0; stroke-opacity:1; 
stroke-linecap:round; stroke-linejoin:round;fill-rule:evenodd;"
d="M 5821,12660
5821,12306
6176,12306
6176,12660
5821,12660
Z" /> 
</g>
<g >
</g>
<g style="fill:#000000; fill-opacity:1.0; 
stroke:#000000; stroke-width:0; stroke-opacity:1; 
stroke-linecap:round; stroke-linejoin:round;">
<path style="fill:#000000; fill-opacity:1.0; 
stroke:#000000; stroke-width:0; stroke-opacity:1; 
stroke-linecap:round; stroke-linejoin:round;fill-rule:evenodd;"
d="M 6471,5872
6477,5873
6482,5874
6488,5876
6493,5879
6498,5882
6502,5885
6506,5889
6510,5893
6514,5898
6517,5902
6519,5908
6521,5913
6522,5918
6523,5924
6523,5930
6523,6066
6523,6071
6522,6077
6521,6082
6519,6088
6517,6093
6514,6098
6510,6102
6506,6107
6502,6111
6498,6114
6493,6117
6488,6119
6482,6121
6477,6123
6471,6123
6465,6124
6349,6124
6344,6123
6338,6123
6332,6121
6327,6119
6322,6117
6317,6114
6312,6111
6308,6107
6304,6102
6301,6098
6298,6093
6296,6088
6294,6082
6292,6077
6291,6071
6291,6066
6291,5930
6291,5924
6292,5918
6294,5913
6296,5908
6298,5902
6301,5898
6304,5893
6308,5889
6312,5885
6317,5882
6322,5879
6327,5876
6332,5874
6338,5873
6344,5872
6349,5872
6465,5872
6471,5872
Z" /> 
<path style="fill:#000000; fill-opacity:1.0; 
stroke:#000000; stroke-width:0; stroke-opacity:1; 
stroke-linecap:round; stroke-linejoin:round;fill-rule:evenodd;"
d="M 6089,5872
6095,5873
6100,5874
6106,5876
6111,5879
6116,5882
6120,5885
6125,5889
6128,5893
6132,5898
6135,5902
6137,5908
6139,5913
6140,5918
6141,5924
6142,5930
6142,6066
6141,6071
6140,6077
6139,6082
6137,6088
6135,6093
6132,6098
6128,6102
6125,6107
6120,6111
6116,6114
6111,6117
6106,6119
6100,6121
6095,6123
6089,6123
6084,6124
5967,6124
5962,6123
5956,6123
5951,6121
5945,6119
5940,6117
5935,6114
5931,6111
5926,6107
5922,6102
5919,6098
5916,6093
5914,6088
5912,6082
5910,6077
5910,6071
5909,6066
5909,5930
5910,5924
5910,5918
5912,5913
5914,5908
5916,5902
5919,5898
5922,5893
5926,5889
5931,5885
5935,5882
5940,5879
5945,5876
5951,5874
5956,5873
5962,5872
5967,5872
6084,5872
6089,5872
Z" /> 
</g>
<g >
</g>
<g style="fill:#000000; fill-opacity:1.0; 
stroke:#000000; stroke-width:0; stroke-opacity:1; 
stroke-linecap:round; stroke-linejoin:round;">
<path style="fill:#000000; fill-opacity:1.0; 
stroke:#000000; stroke-width:0; stroke-opacity:1; 
stroke-linecap:round; stroke-linejoin:round;fill-rule:evenodd;"
d="M 6089,5397
6095,5398
6100,5399
6106,5401
6111,5404
6116,5407
6120,5410
6125,5414
6128,5418
6132,5423
6135,5427
6137,5433
6139,5438
6140,5443
6141,5449
6142,5455
6142,5591
6141,5596
6140,5602
6139,5607
6137,5613
6135,5618
6132,5623
6128,5627
6125,5632
6120,5636
6116,5639
6111,5642
6106,5644
6100,5646
6095,5648
6089,5648
6084,5649
5967,5649
5962,5648
5956,5648
5951,5646
5945,5644
5940,5642
5935,5639
5931,5636
5926,5632
5922,5627
5919,5623
5916,5618
5914,5613
5912,5607
5910,5602
5910,5596
5909,5591
5909,5455
5910,5449
5910,5443
5912,5438
5914,5433
5916,5427
5919,5423
5922,5418
5926,5414
5931,5410
5935,5407
5940,5404
5945,5401
5951,5399
5956,5398
5962,5397
5967,5397
6084,5397
6089,5397
Z" /> 
<path style="fill:#000000; fill-opacity:1.0; 
stroke:#000000; stroke-width:0; stroke-opacity:1; 
stroke-linecap:round; stroke-linejoin:round;fill-rule:evenodd;"
d="M 6471,5397
6477,5398
6482,5399
6488,5401
6493,5404
6498,5407
6502,5410
6506,5414
6510,5418
6514,5423
6517,5427
6519,5433
6521,5438
6522,5443
6523,5449
6523,5455
6523,5591
6523,5596
6522,5602
6521,5607
6519,5613
6517,5618
6514,5623
6510,5627
6506,5632
6502,5636
6498,5639
6493,5642
6488,5644
6482,5646
6477,5648
6471,5648
6465,5649
6349,5649
6344,5648
6338,5648
6332,5646
6327,5644
6322,5642
6317,5639
6312,5636
6308,5632
6304,5627
6301,5623
6298,5618
6296,5613
6294,5607
6292,5602
6291,5596
6291,5591
6291,5455
6291,5449
6292,5443
6294,5438
6296,5433
6298,5427
6301,5423
6304,5418
6308,5414
6312,5410
6317,5407
6322,5404
6327,5401
6332,5399
6338,5398
6344,5397
6349,5397
6465,5397
6471,5397
Z" /> 
</g>
<g >
</g>
<g style="fill:#000000; fill-opacity:1.0; 
stroke:#000000; stroke-width:0; stroke-opacity:1; 
stroke-linecap:round; stroke-linejoin:round;">
<path style="fill:#000000; fill-opacity:1.0; 
stroke:#000000; stroke-width:0; stroke-opacity:1; 
stroke-linecap:round; stroke-linejoin:round;fill-rule:evenodd;"
d="M 6089,6922
6095,6923
6100,6924
6106,6926
6111,6929
6116,6932
6120,6935
6125,6939
6128,6943
6132,6948
6135,6952
6137,6958
6139,6963
6140,6968
6141,6974
6142,6980
6142,7116
6141,7121
6140,7127
6139,7132
6137,7138
6135,7143
6132,7148
6128,7152
6125,7157
6120,7161
6116,7164
6111,7167
6106,7169
6100,7171
6095,7173
6089,7173
6084,7174
5967,7174
5962,7173
5956,7173
5951,7171
5945,7169
5940,7167
5935,7164
5931,7161
5926,7157
5922,7152
5919,7148
5916,7143
5914,7138
5912,7132
5910,7127
5910,7121
5909,7116
5909,6980
5910,6974
5910,6968
5912,6963
5914,6958
5916,6952
5919,6948
5922,6943
5926,6939
5931,6935
5935,6932
5940,6929
5945,6926
5951,6924
5956,6923
5962,6922
5967,6922
6084,6922
6089,6922
Z" /> 
<path style="fill:#000000; fill-opacity:1.0; 
stroke:#000000; stroke-width:0; stroke-opacity:1; 
stroke-linecap:round; stroke-linejoin:round;fill-rule:evenodd;"
d="M 6471,6922
6477,6923
6482,6924
6488,6926
6493,6929
6498,6932
6502,6935
6506,6939
6510,6943
6514,6948
6517,6952
6519,6958
6521,6963
6522,6968
6523,6974
6523,6980
6523,7116
6523,7121
6522,7127
6521,7132
6519,7138
6517,7143
6514,7148
6510,7152
6506,7157
6502,7161
6498,7164
6493,7167
6488,7169
6482,7171
6477,7173
6471,7173
6465,7174
6349,7174
6344,7173
6338,7173
6332,7171
6327,7169
6322,7167
6317,7164
6312,7161
6308,7157
6304,7152
6301,7148
6298,7143
6296,7138
6294,7132
6292,7127
6291,7121
6291,7116
6291,6980
6291,6974
6292,6968
6294,6963
6296,6958
6298,6952
6301,6948
6304,6943
6308,6939
6312,6935
6317,6932
6322,6929
6327,6926
6332,6924
6338,6923
6344,6922
6349,6922
6465,6922
6471,6922
Z" /> 
</g>
<g >
</g>
<g style="fill:#000000; fill-opacity:1.0; 
stroke:#000000; stroke-width:0; stroke-opacity:1; 
stroke-linecap:round; stroke-linejoin:round;">
<path style="fill:#000000; fill-opacity:1.0; 
stroke:#000000; stroke-width:0; stroke-opacity:1; 
stroke-linecap:round; stroke-linejoin:round;fill-rule:evenodd;"
d="M 6471,4597
6477,4598
6482,4599
6488,4601
6493,4604
6498,4607
6502,4610
6506,4614
6510,4618
6514,4623
6517,4627
6519,4633
6521,4638
6522,4643
6523,4649
6523,4655
6523,4791
6523,4796
6522,4802
6521,4807
6519,4813
6517,4818
6514,4823
6510,4827
6506,4832
6502,4836
6498,4839
6493,4842
6488,4844
6482,4846
6477,4848
6471,4848
6465,4849
6349,4849
6344,4848
6338,4848
6332,4846
6327,4844
6322,4842
6317,4839
6312,4836
6308,4832
6304,4827
6301,4823
6298,4818
6296,4813
6294,4807
6292,4802
6291,4796
6291,4791
6291,4655
6291,4649
6292,4643
6294,4638
6296,4633
6298,4627
6301,4623
6304,4618
6308,4614
6312,4610
6317,4607
6322,4604
6327,4601
6332,4599
6338,4598
6344,4597
6349,4597
6465,4597
6471,4597
Z" /> 
<path style="fill:#000000; fill-opacity:1.0; 
stroke:#000000; stroke-width:0; stroke-opacity:1; 
stroke-linecap:round; stroke-linejoin:round;fill-rule:evenodd;"
d="M 6089,4597
6095,4598
6100,4599
6106,4601
6111,4604
6116,4607
6120,4610
6125,4614
6128,4618
6132,4623
6135,4627
6137,4633
6139,4638
6140,4643
6141,4649
6142,4655
6142,4791
6141,4796
6140,4802
6139,4807
6137,4813
6135,4818
6132,4823
6128,4827
6125,4832
6120,4836
6116,4839
6111,4842
6106,4844
6100,4846
6095,4848
6089,4848
6084,4849
5967,4849
5962,4848
5956,4848
5951,4846
5945,4844
5940,4842
5935,4839
5931,4836
5926,4832
5922,4827
5919,4823
5916,4818
5914,4813
5912,4807
5910,4802
5910,4796
5909,4791
5909,4655
5910,4649
5910,4643
5912,4638
5914,4633
5916,4627
5919,4623
5922,4618
5926,4614
5931,4610
5935,4607
5940,4604
5945,4601
5951,4599
5956,4598
5962,4597
5967,4597
6084,4597
6089,4597
Z" /> 
</g>
<g >
</g>
<g style="fill:#000000; fill-opacity:1.0; 
stroke:#000000; stroke-width:0; stroke-opacity:1; 
stroke-linecap:round; stroke-linejoin:round;">
<path style="fill:#000000; fill-opacity:1.0; 
stroke:#000000; stroke-width:0; stroke-opacity:1; 
stroke-linecap:round; stroke-linejoin:round;fill-rule:evenodd;"
d="M 6114,2847
6120,2848
6125,2849
6131,2851
6136,2854
6141,2857
6145,2860
6150,2864
6153,2868
6157,2873
6160,2877
6162,2883
6164,2888
6165,2893
6166,2899
6167,2905
6167,3041
6166,3046
6165,3052
6164,3057
6162,3063
6160,3068
6157,3073
6153,3077
6150,3082
6145,3086
6141,3089
6136,3092
6131,3094
6125,3096
6120,3098
6114,3098
6109,3099
5992,3099
5987,3098
5981,3098
5976,3096
5970,3094
5965,3092
5960,3089
5956,3086
5951,3082
5947,3077
5944,3073
5941,3068
5939,3063
5937,3057
5935,3052
5935,3046
5934,3041
5934,2905
5935,2899
5935,2893
5937,2888
5939,2883
5941,2877
5944,2873
5947,2868
5951,2864
5956,2860
5960,2857
5965,2854
5970,2851
5976,2849
5981,2848
5987,2847
5992,2847
6109,2847
6114,2847
Z" /> 
<path style="fill:#000000; fill-opacity:1.0; 
stroke:#000000; stroke-width:0; stroke-opacity:1; 
stroke-linecap:round; stroke-linejoin:round;fill-rule:evenodd;"
d="M 6496,2847
6502,2848
6507,2849
6513,2851
6518,2854
6523,2857
6527,2860
6531,2864
6535,2868
6539,2873
6542,2877
6544,2883
6546,2888
6547,2893
6548,2899
6548,2905
6548,3041
6548,3046
6547,3052
6546,3057
6544,3063
6542,3068
6539,3073
6535,3077
6531,3082
6527,3086
6523,3089
6518,3092
6513,3094
6507,3096
6502,3098
6496,3098
6490,3099
6374,3099
6369,3098
6363,3098
6357,3096
6352,3094
6347,3092
6342,3089
6337,3086
6333,3082
6329,3077
6326,3073
6323,3068
6321,3063
6319,3057
6317,3052
6316,3046
6316,3041
6316,2905
6316,2899
6317,2893
6319,2888
6321,2883
6323,2877
6326,2873
6329,2868
6333,2864
6337,2860
6342,2857
6347,2854
6352,2851
6357,2849
6363,2848
6369,2847
6374,2847
6490,2847
6496,2847
Z" /> 
</g>
<g >
</g>
<g style="fill:#000000; fill-opacity:1.0; 
stroke:#000000; stroke-width:0; stroke-opacity:1; 
stroke-linecap:round; stroke-linejoin:round;">
<path style="fill:#000000; fill-opacity:1.0; 
stroke:#000000; stroke-width:0; stroke-opacity:1; 
stroke-linecap:round; stroke-linejoin:round;fill-rule:evenodd;"
d="M 2596,5747
2602,5748
2607,5749
2613,5751
2618,5754
2623,5757
2627,5760
2631,5764
2635,5768
2639,5773
2642,5777
2644,5783
2646,5788
2647,5793
2648,5799
2648,5805
2648,5941
2648,5946
2647,5952
2646,5957
2644,5963
2642,5968
2639,5973
2635,5977
2631,5982
2627,5986
2623,5989
2618,5992
2613,5994
2607,5996
2602,5998
2596,5998
2590,5999
2474,5999
2469,5998
2463,5998
2457,5996
2452,5994
2447,5992
2442,5989
2437,5986
2433,5982
2429,5977
2426,5973
2423,5968
2421,5963
2419,5957
2417,5952
2416,5946
2416,5941
2416,5805
2416,5799
2417,5793
2419,5788
2421,5783
2423,5777
2426,5773
2429,5768
2433,5764
2437,5760
2442,5757
2447,5754
2452,5751
2457,5749
2463,5748
2469,5747
2474,5747
2590,5747
2596,5747
Z" /> 
<path style="fill:#000000; fill-opacity:1.0; 
stroke:#000000; stroke-width:0; stroke-opacity:1; 
stroke-linecap:round; stroke-linejoin:round;fill-rule:evenodd;"
d="M 2214,5747
2220,5748
2225,5749
2231,5751
2236,5754
2241,5757
2245,5760
2250,5764
2253,5768
2257,5773
2260,5777
2262,5783
2264,5788
2265,5793
2266,5799
2267,5805
2267,5941
2266,5946
2265,5952
2264,5957
2262,5963
2260,5968
2257,5973
2253,5977
2250,5982
2245,5986
2241,5989
2236,5992
2231,5994
2225,5996
2220,5998
2214,5998
2209,5999
2092,5999
2087,5998
2081,5998
2076,5996
2070,5994
2065,5992
2060,5989
2056,5986
2051,5982
2047,5977
2044,5973
2041,5968
2039,5963
2037,5957
2035,5952
2035,5946
2034,5941
2034,5805
2035,5799
2035,5793
2037,5788
2039,5783
2041,5777
2044,5773
2047,5768
2051,5764
2056,5760
2060,5757
2065,5754
2070,5751
2076,5749
2081,5748
2087,5747
2092,5747
2209,5747
2214,5747
Z" /> 
</g>
<g >
</g>
<g style="fill:#000000; fill-opacity:1.0; 
stroke:#000000; stroke-width:0; stroke-opacity:1; 
stroke-linecap:round; stroke-linejoin:round;">
<path style="fill:#000000; fill-opacity:1.0; 
stroke:#000000; stroke-width:0; stroke-opacity:1; 
stroke-linecap:round; stroke-linejoin:round;fill-rule:evenodd;"
d="M 2214,7172
2220,7173
2225,7174
2231,7176
2236,7179
2241,7182
2245,7185
2250,7189
2253,7193
2257,7198
2260,7202
2262,7208
2264,7213
2265,7218
2266,7224
2267,7230
2267,7366
2266,7371
2265,7377
2264,7382
2262,7388
2260,7393
2257,7398
2253,7402
2250,7407
2245,7411
2241,7414
2236,7417
2231,7419
2225,7421
2220,7423
2214,7423
2209,7424
2092,7424
2087,7423
2081,7423
2076,7421
2070,7419
2065,7417
2060,7414
2056,7411
2051,7407
2047,7402
2044,7398
2041,7393
2039,7388
2037,7382
2035,7377
2035,7371
2034,7366
2034,7230
2035,7224
2035,7218
2037,7213
2039,7208
2041,7202
2044,7198
2047,7193
2051,7189
2056,7185
2060,7182
2065,7179
2070,7176
2076,7174
2081,7173
2087,7172
2092,7172
2209,7172
2214,7172
Z" /> 
<path style="fill:#000000; fill-opacity:1.0; 
stroke:#000000; stroke-width:0; stroke-opacity:1; 
stroke-linecap:round; stroke-linejoin:round;fill-rule:evenodd;"
d="M 2596,7172
2602,7173
2607,7174
2613,7176
2618,7179
2623,7182
2627,7185
2631,7189
2635,7193
2639,7198
2642,7202
2644,7208
2646,7213
2647,7218
2648,7224
2648,7230
2648,7366
2648,7371
2647,7377
2646,7382
2644,7388
2642,7393
2639,7398
2635,7402
2631,7407
2627,7411
2623,7414
2618,7417
2613,7419
2607,7421
2602,7423
2596,7423
2590,7424
2474,7424
2469,7423
2463,7423
2457,7421
2452,7419
2447,7417
2442,7414
2437,7411
2433,7407
2429,7402
2426,7398
2423,7393
2421,7388
2419,7382
2417,7377
2416,7371
2416,7366
2416,7230
2416,7224
2417,7218
2419,7213
2421,7208
2423,7202
2426,7198
2429,7193
2433,7189
2437,7185
2442,7182
2447,7179
2452,7176
2457,7174
2463,7173
2469,7172
2474,7172
2590,7172
2596,7172
Z" /> 
</g>
<g >
</g>
<g style="fill:#000000; fill-opacity:1.0; 
stroke:#000000; stroke-width:0; stroke-opacity:1; 
stroke-linecap:round; stroke-linejoin:round;">
<path style="fill:#000000; fill-opacity:1.0; 
stroke:#000000; stroke-width:0; stroke-opacity:1; 
stroke-linecap:round; stroke-linejoin:round;fill-rule:evenodd;"
d="M 2596,7647
2602,7648
2607,7649
2613,7651
2618,7654
2623,7657
2627,7660
2631,7664
2635,7668
2639,7673
2642,7677
2644,7683
2646,7688
2647,7693
2648,7699
2648,7705
2648,7841
2648,7846
2647,7852
2646,7857
2644,7863
2642,7868
2639,7873
2635,7877
2631,7882
2627,7886
2623,7889
2618,7892
2613,7894
2607,7896
2602,7898
2596,7898
2590,7899
2474,7899
2469,7898
2463,7898
2457,7896
2452,7894
2447,7892
2442,7889
2437,7886
2433,7882
2429,7877
2426,7873
2423,7868
2421,7863
2419,7857
2417,7852
2416,7846
2416,7841
2416,7705
2416,7699
2417,7693
2419,7688
2421,7683
2423,7677
2426,7673
2429,7668
2433,7664
2437,7660
2442,7657
2447,7654
2452,7651
2457,7649
2463,7648
2469,7647
2474,7647
2590,7647
2596,7647
Z" /> 
<path style="fill:#000000; fill-opacity:1.0; 
stroke:#000000; stroke-width:0; stroke-opacity:1; 
stroke-linecap:round; stroke-linejoin:round;fill-rule:evenodd;"
d="M 2214,7647
2220,7648
2225,7649
2231,7651
2236,7654
2241,7657
2245,7660
2250,7664
2253,7668
2257,7673
2260,7677
2262,7683
2264,7688
2265,7693
2266,7699
2267,7705
2267,7841
2266,7846
2265,7852
2264,7857
2262,7863
2260,7868
2257,7873
2253,7877
2250,7882
2245,7886
2241,7889
2236,7892
2231,7894
2225,7896
2220,7898
2214,7898
2209,7899
2092,7899
2087,7898
2081,7898
2076,7896
2070,7894
2065,7892
2060,7889
2056,7886
2051,7882
2047,7877
2044,7873
2041,7868
2039,7863
2037,7857
2035,7852
2035,7846
2034,7841
2034,7705
2035,7699
2035,7693
2037,7688
2039,7683
2041,7677
2044,7673
2047,7668
2051,7664
2056,7660
2060,7657
2065,7654
2070,7651
2076,7649
2081,7648
2087,7647
2092,7647
2209,7647
2214,7647
Z" /> 
</g>
<g >
</g>
<g >
</g>
<g >
</g>
</g> 
</svg>
